<?xml version="1.0" encoding="utf-8"?>
<!-- Generator: Adobe Illustrator 18.1.1, SVG Export Plug-In . SVG Version: 6.00 Build 0)  -->
<!DOCTYPE svg PUBLIC "-//W3C//DTD SVG 1.1//EN" "http://www.w3.org/Graphics/SVG/1.1/DTD/svg11.dtd">
<svg version="1.1" id="Calque_1" xmlns="http://www.w3.org/2000/svg" xmlns:xlink="http://www.w3.org/1999/xlink" x="0px" y="0px"
	 viewBox="0 0 16 16" enable-background="new 0 0 16 16" xml:space="preserve">
<path fill="#FFFFFF" d="M8,0C3.6,0,0,3.6,0,8c0,4.4,3.6,8,8,8c4.4,0,8-3.6,8-8C16,3.6,12.4,0,8,0z M10.9,9.4c0.4,0.4,0.4,1,0,1.4
	c-0.4,0.4-1,0.4-1.4,0L8.1,9.4l-1.4,1.4c-0.4,0.4-1,0.4-1.4,0c-0.4-0.4-0.4-1,0-1.4L6.7,8L5.3,6.6c-0.4-0.4-0.4-1,0-1.4
	c0.4-0.4,1-0.4,1.4,0l1.4,1.4l1.4-1.4c0.4-0.4,1-0.4,1.4,0c0.4,0.4,0.4,1,0,1.4L9.5,8L10.9,9.4z"/>
</svg>
