<?xml version="1.0" encoding="utf-8"?>
<!-- Generator: Adobe Illustrator 18.1.1, SVG Export Plug-In . SVG Version: 6.00 Build 0)  -->
<!DOCTYPE svg PUBLIC "-//W3C//DTD SVG 1.1//EN" "http://www.w3.org/Graphics/SVG/1.1/DTD/svg11.dtd">
<svg version="1.1" id="Calque_1" xmlns="http://www.w3.org/2000/svg" xmlns:xlink="http://www.w3.org/1999/xlink" x="0px" y="0px"
	 viewBox="0 0 16 16" enable-background="new 0 0 16 16" xml:space="preserve">
<path fill="#3C5A98" d="M8,0C3.6,0,0,3.6,0,8s3.6,8,8,8s8-3.6,8-8S12.4,0,8,0z M10.6,8.5h-2V14H6.5V8.5H5v-2h1.5c0,0,0-0.8,0-1.7
	c0-1.3,0.9-2.5,2.8-2.5c0.8,0,1.4,0.1,1.4,0.1l0,1.8c0,0-0.6,0-1.3,0c-0.7,0-0.8,0.3-0.8,0.9c0,0.1,0,0.1,0,0.1c0,0.1,0,0.5,0,1.4
	h2.1L10.6,8.5z"/>
</svg>
