<?xml version="1.0" encoding="utf-8"?>
<!-- Generator: Adobe Illustrator 18.1.1, SVG Export Plug-In . SVG Version: 6.00 Build 0)  -->
<!DOCTYPE svg PUBLIC "-//W3C//DTD SVG 1.1//EN" "http://www.w3.org/Graphics/SVG/1.1/DTD/svg11.dtd">
<svg version="1.1" id="Calque_1" xmlns="http://www.w3.org/2000/svg" xmlns:xlink="http://www.w3.org/1999/xlink" x="0px" y="0px"
	 viewBox="0 0 117 135" enable-background="new 0 0 117 135" xml:space="preserve">
<g>
	<path fill="#FF6600" d="M58.5,19.6c12.8,0,24.8,5,33.8,14c9,9,14,21.1,14,33.8c0,12.8-5,24.8-14,33.8c-9,9-21.1,14-33.8,14
		c-12.8,0-24.8-5-33.8-14c-9-9-14-21.1-14-33.8c0-12.8,5-24.8,14-33.8C33.7,24.6,45.7,19.6,58.5,19.6 M58.5,9
		c-15,0-29.9,5.7-41.4,17.1C-5.7,49-5.7,86,17.1,108.9C28.6,120.3,43.5,126,58.5,126c15,0,29.9-5.7,41.4-17.1
		c22.8-22.8,22.8-59.9,0-82.7C88.4,14.7,73.5,9,58.5,9L58.5,9z"/>
	<g>
		<path fill="#FF6600" d="M53,48.4v3.1v26.6v3.1l-6.9-6.9l-1.6-1.6h-2.2H31.8v-16h10.6h2.2l1.6-1.6L53,48.4 M58.4,35.6l-16,16h-16
			v26.6h16l16,16v-16V51.5V35.6L58.4,35.6z"/>
		<rect x="69" y="62.2" fill="#FF6600" width="16" height="5.3"/>
		<polygon fill="#FF6600" points="85,39.4 85,35.6 81.2,35.6 69,47.8 69,51.5 72.8,51.5 		"/>
		<polygon fill="#FF6600" points="69,78.1 69,81.9 81.2,94.1 85,94.1 85,94.1 85,90.3 72.8,78.1 		"/>
	</g>
</g>
</svg>
