<?xml version="1.0" encoding="utf-8"?>
<!-- Generator: Adobe Illustrator 18.1.1, SVG Export Plug-In . SVG Version: 6.00 Build 0)  -->
<!DOCTYPE svg PUBLIC "-//W3C//DTD SVG 1.1//EN" "http://www.w3.org/Graphics/SVG/1.1/DTD/svg11.dtd">
<svg version="1.1" id="Calque_1" xmlns="http://www.w3.org/2000/svg" xmlns:xlink="http://www.w3.org/1999/xlink" x="0px" y="0px"
	 viewBox="0 0 117 135" enable-background="new 0 0 117 135" xml:space="preserve">
<g>
	<g>
		<path fill="#FF6600" d="M53.2,48.4v3.1v26.6v3.1l-6.9-6.9l-1.6-1.6h-2.2H31.9v-16h10.6h2.2l1.6-1.6L53.2,48.4 M58.5,35.6l-16,16
			h-16v26.6h16l16,16v-16V51.5V35.6L58.5,35.6z"/>
		<rect x="69.1" y="62.2" fill="#FF6600" width="16" height="5.3"/>
		<polygon fill="#FF6600" points="85.1,39.4 85.1,35.6 81.3,35.6 69.1,47.8 69.1,51.5 72.9,51.5 		"/>
		<polygon fill="#FF6600" points="69.1,78.1 69.1,81.9 81.3,94.1 85.1,94.1 85.1,94.1 85.1,90.3 72.9,78.1 		"/>
	</g>
	<path fill="#FF6600" d="M99.9,26.1C88.4,14.7,73.5,9,58.5,9c-15,0-29.9,5.7-41.4,17.1C-5.7,49-5.7,86,17.1,108.9
		C28.6,120.3,43.5,126,58.5,126c15,0,29.9-5.7,41.4-17.1C122.7,86,122.7,49,99.9,26.1z M10.6,67.5c0-12.8,5-24.8,14-33.8
		c9-9,21.1-14,33.8-14c11,0,21.4,3.7,29.9,10.5l0,0L21.1,97.4l0,0C14.3,88.9,10.6,78.5,10.6,67.5z M92.3,101.3c-9,9-21.1,14-33.8,14
		c-11,0-21.4-3.7-29.9-10.5l0,0l67.2-67.2l0,0c6.8,8.5,10.5,18.9,10.5,29.9C106.4,80.3,101.4,92.3,92.3,101.3z"/>
</g>
</svg>
