<?xml version="1.0" encoding="utf-8"?>
<!-- Generator: Adobe Illustrator 18.1.1, SVG Export Plug-In . SVG Version: 6.00 Build 0)  -->
<!DOCTYPE svg PUBLIC "-//W3C//DTD SVG 1.1//EN" "http://www.w3.org/Graphics/SVG/1.1/DTD/svg11.dtd">
<svg version="1.1" id="Calque_1" xmlns="http://www.w3.org/2000/svg" xmlns:xlink="http://www.w3.org/1999/xlink" x="0px" y="0px"
	 viewBox="0 0 117 135" enable-background="new 0 0 117 135" xml:space="preserve">
<g>
	<polygon fill="#FF6600" points="32.1,27.7 94.4,67.5 32.1,107.3 	"/>
	<path fill="#FF6600" d="M100,13.2c7.3,0,13.2,6.6,13.2,14.6v79.4c0,8.1-5.9,14.6-13.2,14.6H17c-7.3,0-13.2-6.6-13.2-14.6V27.8
		c0-8.1,5.9-14.6,13.2-14.6H100 M100,9H17C7.6,9,0,17.4,0,27.8v79.4C0,117.6,7.6,126,17,126h83c9.4,0,17-8.4,17-18.8V27.8
		C117,17.4,109.4,9,100,9L100,9z"/>
</g>
</svg>
