<?xml version="1.0" encoding="utf-8"?>
<!-- Generator: Adobe Illustrator 18.1.1, SVG Export Plug-In . SVG Version: 6.00 Build 0)  -->
<!DOCTYPE svg PUBLIC "-//W3C//DTD SVG 1.1//EN" "http://www.w3.org/Graphics/SVG/1.1/DTD/svg11.dtd">
<svg version="1.1" id="Calque_1" xmlns="http://www.w3.org/2000/svg" xmlns:xlink="http://www.w3.org/1999/xlink" x="0px" y="0px"
	 viewBox="0 0 117 135" enable-background="new 0 0 117 135" xml:space="preserve">
<g>
	<path fill="#FF6600" d="M58.5,19.6c26.4,0,47.9,21.5,47.9,47.9c0,26.4-21.5,47.9-47.9,47.9S10.6,93.9,10.6,67.5
		C10.6,41.1,32.1,19.6,58.5,19.6 M58.5,9C26.2,9,0,35.2,0,67.5C0,99.8,26.2,126,58.5,126S117,99.8,117,67.5C117,35.2,90.8,9,58.5,9
		L58.5,9z"/>
	<g>
		<rect x="37.1" y="35.6" fill="#FF6600" width="16" height="58.5"/>
		<rect x="63.7" y="35.6" fill="#FF6600" width="16" height="58.5"/>
	</g>
</g>
</svg>
