<?xml version="1.0" encoding="utf-8"?>
<!-- Generator: Adobe Illustrator 18.1.1, SVG Export Plug-In . SVG Version: 6.00 Build 0)  -->
<!DOCTYPE svg PUBLIC "-//W3C//DTD SVG 1.1//EN" "http://www.w3.org/Graphics/SVG/1.1/DTD/svg11.dtd">
<svg version="1.1" id="Calque_1" xmlns="http://www.w3.org/2000/svg" xmlns:xlink="http://www.w3.org/1999/xlink" x="0px" y="0px"
	 viewBox="0 0 117 135" enable-background="new 0 0 117 135" xml:space="preserve">
<g>
	<path fill="#FF6600" d="M58.5,19.6c26.4,0,47.9,21.5,47.9,47.9c0,26.4-21.5,47.9-47.9,47.9c-26.4,0-47.9-21.5-47.9-47.9
		C10.6,41.1,32.1,19.6,58.5,19.6 M58.5,9C26.2,9,0,35.2,0,67.5C0,99.8,26.2,126,58.5,126c32.3,0,58.5-26.2,58.5-58.5
		C117,35.2,90.8,9,58.5,9L58.5,9z"/>
	<path fill="#FF6600" d="M58.5,99.4l26-26c-2.1-2.9-4.6-5.5-7.5-7.5L63.8,79.1V62.2H53.2v16.9L40,65.9c-2.9,2.1-5.5,4.6-7.5,7.5
		L58.5,99.4z"/>
	<rect x="21.3" y="46.2" fill="#FF6600" width="10.6" height="10.6"/>
	<rect x="37.2" y="46.2" fill="#FF6600" width="10.6" height="10.6"/>
	<rect x="53.2" y="46.2" fill="#FF6600" width="10.6" height="10.6"/>
	<rect x="69.1" y="46.2" fill="#FF6600" width="10.6" height="10.6"/>
	<rect x="85.1" y="46.2" fill="#FF6600" width="10.6" height="10.6"/>
</g>
</svg>
