<?xml version="1.0" encoding="utf-8"?>
<!-- Generator: Adobe Illustrator 18.1.1, SVG Export Plug-In . SVG Version: 6.00 Build 0)  -->
<!DOCTYPE svg PUBLIC "-//W3C//DTD SVG 1.1//EN" "http://www.w3.org/Graphics/SVG/1.1/DTD/svg11.dtd">
<svg version="1.1" id="Calque_1" xmlns="http://www.w3.org/2000/svg" xmlns:xlink="http://www.w3.org/1999/xlink" x="0px" y="0px"
	 viewBox="0 0 16 16" enable-background="new 0 0 16 16" xml:space="preserve">
<path fill="#FFFFFF" d="M8,0C3.6,0,0,3.6,0,8s3.6,8,8,8c4.4,0,8-3.6,8-8S12.4,0,8,0z M7.3,11.3c0,0.3-0.1,0.5-0.4,0.6
	C6.9,12,6.8,12,6.7,12c-0.1,0-0.3,0-0.4-0.1L3.8,10H2.7C2.3,10,2,9.7,2,9.3V6.7C2,6.3,2.3,6,2.7,6h1.1l2.5-1.9C6.5,4,6.7,4,7,4.1
	c0.2,0.1,0.4,0.3,0.4,0.6V11.3z M13.9,11c-0.4,0.4-1,0.4-1.4,0l-1.4-1.4L9.7,11c-0.4,0.4-1,0.4-1.4,0c-0.4-0.4-0.4-1,0-1.4l1.4-1.4
	L8.3,6.7c-0.4-0.4-0.4-1,0-1.4c0.4-0.4,1-0.4,1.4,0l1.4,1.4l1.4-1.4c0.4-0.4,1-0.4,1.4,0c0.4,0.4,0.4,1,0,1.4l-1.4,1.4l1.4,1.4
	C14.3,9.9,14.3,10.6,13.9,11z"/>
</svg>
