<?xml version="1.0" encoding="utf-8"?>
<!-- Generator: Adobe Illustrator 18.1.1, SVG Export Plug-In . SVG Version: 6.00 Build 0)  -->
<!DOCTYPE svg PUBLIC "-//W3C//DTD SVG 1.1//EN" "http://www.w3.org/Graphics/SVG/1.1/DTD/svg11.dtd">
<svg version="1.1" id="Calque_1" xmlns="http://www.w3.org/2000/svg" xmlns:xlink="http://www.w3.org/1999/xlink" x="0px" y="0px"
	 viewBox="0 0 16 16" enable-background="new 0 0 16 16" xml:space="preserve">
<path fill="#FFFFFF" d="M8,0C3.6,0,0,3.6,0,8c0,4.4,3.6,8,8,8c4.4,0,8-3.6,8-8C16,3.6,12.4,0,8,0z M7,11c0,0.6-0.4,1-1,1
	c-0.6,0-1-0.4-1-1V5c0-0.6,0.4-1,1-1c0.6,0,1,0.4,1,1V11z M11,11c0,0.6-0.4,1-1,1c-0.6,0-1-0.4-1-1V5c0-0.6,0.4-1,1-1
	c0.6,0,1,0.4,1,1V11z"/>
</svg>
