<?xml version="1.0" encoding="utf-8"?>
<!-- Generator: Adobe Illustrator 18.1.1, SVG Export Plug-In . SVG Version: 6.00 Build 0)  -->
<!DOCTYPE svg PUBLIC "-//W3C//DTD SVG 1.1//EN" "http://www.w3.org/Graphics/SVG/1.1/DTD/svg11.dtd">
<svg version="1.1" id="Calque_1" xmlns="http://www.w3.org/2000/svg" xmlns:xlink="http://www.w3.org/1999/xlink" x="0px" y="0px"
	 viewBox="0 0 16 16" enable-background="new 0 0 16 16" xml:space="preserve">
<path fill="#FFFFFF" d="M8,0C3.6,0,0,3.6,0,8c0,4.4,3.6,8,8,8c4.4,0,8-3.6,8-8C16,3.6,12.4,0,8,0z M12.7,8.4l-7,4
	c-0.1,0-0.2,0.1-0.2,0.1c-0.1,0-0.2,0-0.3-0.1C5.1,12.3,5,12.2,5,12V4c0-0.2,0.1-0.3,0.2-0.4c0.1,0,0.2-0.1,0.3-0.1
	c0.1,0,0.2,0,0.2,0.1l7,4C12.9,7.7,13,7.8,13,8C13,8.2,12.9,8.3,12.7,8.4z"/>
</svg>
