<?xml version="1.0" encoding="utf-8"?>
<!-- Generator: Adobe Illustrator 18.1.1, SVG Export Plug-In . SVG Version: 6.00 Build 0)  -->
<!DOCTYPE svg PUBLIC "-//W3C//DTD SVG 1.1//EN" "http://www.w3.org/Graphics/SVG/1.1/DTD/svg11.dtd">
<svg version="1.1" id="Calque_1" xmlns="http://www.w3.org/2000/svg" xmlns:xlink="http://www.w3.org/1999/xlink" x="0px" y="0px"
	 viewBox="0 0 16 16" enable-background="new 0 0 16 16" xml:space="preserve">
<path fill="#FFFFFF" d="M8,0C3.6,0,0,3.6,0,8s3.6,8,8,8c4.4,0,8-3.6,8-8S12.4,0,8,0z M8.1,13l0.4,0.4c0.4,0.4,0.4,1,0,1.4
	s-1,0.4-1.4,0l-2.1-2.1c-0.4-0.4-0.4-1,0-1.4l2.1-2.1c0.4-0.4,1-0.4,1.4,0c0.4,0.4,0.4,1,0,1.4L8.1,11C9.7,11,11,9.6,11,8
	c0-1.7-1.3-3-3-3S5,6.3,5,8c0,0.4,0.1,0.9,0.3,1.2c0.2,0.5,0,1.1-0.5,1.3c-0.5,0.2-1.1,0-1.3-0.5C3.2,9.4,3,8.7,3,8c0-2.8,2.2-5,5-5
	c2.8,0,5,2.2,5,5C13,10.7,10.8,13,8.1,13z"/>
</svg>
