<?xml version="1.0" encoding="utf-8"?>
<!-- Generator: Adobe Illustrator 18.1.1, SVG Export Plug-In . SVG Version: 6.00 Build 0)  -->
<!DOCTYPE svg PUBLIC "-//W3C//DTD SVG 1.1//EN" "http://www.w3.org/Graphics/SVG/1.1/DTD/svg11.dtd">
<svg version="1.1" id="Calque_1" xmlns="http://www.w3.org/2000/svg" xmlns:xlink="http://www.w3.org/1999/xlink" x="0px" y="0px"
	 viewBox="0 0 16 16" enable-background="new 0 0 16 16" xml:space="preserve">
<path fill="#FFFFFF" d="M8,0C3.6,0,0,3.6,0,8c0,4.4,3.6,8,8,8c4.4,0,8-3.6,8-8C16,3.6,12.4,0,8,0z M7.3,11.3c0,0.3-0.1,0.5-0.4,0.6
	c-0.1,0-0.2,0.1-0.3,0.1c-0.1,0-0.3,0-0.4-0.1L3.8,10H2.7C2.3,10,2,9.7,2,9.3V6.7C2,6.3,2.3,6,2.7,6h1.1l2.5-1.9
	C6.5,4,6.7,4,6.9,4.1c0.2,0.1,0.4,0.3,0.4,0.6V11.3z M8.7,10.6c-0.1,0-0.2,0-0.3-0.1c-0.4-0.2-0.5-0.6-0.3-1c0,0,0.3-0.6,0.3-1.5
	c0-0.9-0.3-1.5-0.3-1.5c-0.2-0.4,0-0.8,0.3-1c0.4-0.2,0.8,0,1,0.3c0,0.1,0.5,0.9,0.5,2.2c0,1.3-0.4,2.1-0.5,2.2
	C9.3,10.5,9,10.6,8.7,10.6z M11.4,12.1c-0.1,0.3-0.4,0.4-0.7,0.4c-0.1,0-0.2,0-0.3-0.1c-0.4-0.2-0.5-0.6-0.3-1c0,0,0.7-1.4,0.7-3.4
	c0-2-0.7-3.4-0.7-3.4c-0.2-0.4,0-0.8,0.3-1c0.4-0.2,0.8,0,1,0.3c0,0.1,0.8,1.7,0.8,4.1C12.2,10.4,11.5,12,11.4,12.1z"/>
</svg>
