<?xml version="1.0" encoding="utf-8"?>
<!-- Generator: Adobe Illustrator 18.1.1, SVG Export Plug-In . SVG Version: 6.00 Build 0)  -->
<!DOCTYPE svg PUBLIC "-//W3C//DTD SVG 1.1//EN" "http://www.w3.org/Graphics/SVG/1.1/DTD/svg11.dtd">
<svg version="1.1" id="Calque_1" xmlns="http://www.w3.org/2000/svg" xmlns:xlink="http://www.w3.org/1999/xlink" x="0px" y="0px"
	 viewBox="0 0 16 16" enable-background="new 0 0 16 16" xml:space="preserve">
<path fill="#3CAADC" d="M8,0C3.6,0,0,3.6,0,8s3.6,8,8,8s8-3.6,8-8S12.4,0,8,0z M12.8,5.7c0,0.1,0,0.2,0,0.3c0,3.3-2.5,7-7,7
	c-1.4,0-2.7-0.4-3.8-1.1c0.2,0,0.4,0,0.6,0c1.2,0,2.2-0.4,3.1-1.1c-1.1,0-2-0.7-2.3-1.7c0.2,0,0.3,0,0.5,0c0.2,0,0.4,0,0.6-0.1
	c-1.1-0.2-2-1.2-2-2.4c0,0,0,0,0,0C2.8,6.9,3.2,7,3.6,7c-0.7-0.4-1.1-1.2-1.1-2c0-0.5,0.1-0.9,0.3-1.2c1.2,1.5,3,2.5,5.1,2.6
	c0-0.2-0.1-0.4-0.1-0.6c0-1.4,1.1-2.5,2.5-2.5c0.7,0,1.3,0.3,1.8,0.8c0.6-0.1,1.1-0.3,1.6-0.6c-0.2,0.6-0.6,1.1-1.1,1.4
	c0.5-0.1,1-0.2,1.4-0.4C13.7,4.9,13.3,5.3,12.8,5.7z"/>
</svg>
