<?xml version="1.0" standalone="no"?>
<!DOCTYPE svg PUBLIC "-//W3C//DTD SVG 1.1//EN" "http://www.w3.org/Graphics/SVG/1.1/DTD/svg11.dtd" >
<svg>
<metadata>
Created by FontForge 20090622 at Tue Nov 28 13:06:28 2017
 By deploy user
Copyright (c) 2010 by Jonathan Hill. All rights reserved.
</metadata>
<defs>
<font id="Knul-ExtraBold" horiz-adv-x="625" >
  <font-face 
    font-family="Knul ExtraBold"
    font-weight="800"
    font-stretch="normal"
    units-per-em="1000"
    panose-1="0 0 9 0 0 0 0 0 0 0"
    ascent="750"
    descent="-250"
    x-height="500"
    cap-height="700"
    bbox="-87 -226 946 1118"
    underline-thickness="50"
    underline-position="-50"
    unicode-range="U+0020-U+FB02"
  />
<missing-glyph horiz-adv-x="300" 
 />
    <glyph glyph-name=".notdef" horiz-adv-x="300" 
 />
    <glyph glyph-name=".null" horiz-adv-x="0" 
 />
    <glyph glyph-name="nonmarkingreturn" horiz-adv-x="333" 
 />
    <glyph glyph-name="space" unicode=" " horiz-adv-x="300" 
 />
    <glyph glyph-name="exclam" unicode="!" horiz-adv-x="190" 
d="M30 700h131v-531h-131v531zM30 140h131v-140h-131v140z" />
    <glyph glyph-name="quotedbl" unicode="&#x22;" horiz-adv-x="350" 
d="M30 739h131v-278h-131v278zM189 739h131v-278h-131v278z" />
    <glyph glyph-name="numbersign" unicode="#" horiz-adv-x="601" 
d="M403 699h133l-41 -192h76v-123h-102l-20 -95h122v-122h-148l-36 -167h-133l36 167h-57l-35 -167h-133l35 167h-70v122h96l20 95h-116v123h142l42 192h133l-42 -192h57zM316 289l20 95h-57l-20 -95h57z" />
    <glyph glyph-name="dollar" unicode="$" horiz-adv-x="530" 
d="M212 750h105v-50h168v-122h-168v-165q43 -10 73 -22.5t56.5 -33.5t40 -54.5t13.5 -79.5q0 -198 -183 -221v-52h-105v49h-182v122h182v189q-38 9 -66 20.5t-56.5 33t-44 57.5t-15.5 84q0 88 49 134.5t133 57.5v53zM212 436v137q-28 -5 -39.5 -21t-11.5 -47q0 -30 11.5 -45
t39.5 -24zM317 287v-160q29 7 41 29.5t12 66.5q0 28 -11 41t-42 23z" />
    <glyph glyph-name="percent" unicode="%" horiz-adv-x="705" 
d="M560 716h116l-531 -733h-115zM204 700q133 0 133 -155q0 -77 -34 -118t-99 -41t-99 41t-34 119q0 154 133 154zM204 616q-20 0 -27.5 -14t-7.5 -56q0 -44 7.5 -59.5t28 -15.5t28 15.5t7.5 58.5t-7 57t-29 14zM504 314q65 0 99 -39t34 -116t-34.5 -118t-98.5 -41
q-65 0 -99 41t-34 119q0 154 133 154zM504 229q-21 0 -29 -13.5t-8 -55.5q0 -44 8.5 -60t28.5 -16t28 16t8 59t-7.5 56.5t-28.5 13.5z" />
    <glyph glyph-name="ampersand" unicode="&#x26;" horiz-adv-x="562" 
d="M118 381l-9 11q-47 57 -47 116q0 72 46 124.5t125 52.5q82 0 126.5 -52t44.5 -125q0 -84 -74 -132l-34 -21l97 -119q4 13 8 53l113 -24q0 -49 -5 -79t-20 -65l44 -53l-94 -77l-36 44q-37 -17 -80 -17h-107q-79 0 -132.5 54t-53.5 137q0 58 18.5 98t64.5 69zM221 446
l41 27q12 8 15 13.5t3 20.5q0 29 -12 45t-34.5 16t-35 -16t-12.5 -45q0 -19 19 -42zM312 146l-118 143l-2 -2q-38 -24 -38 -78q0 -35 17.5 -55t44.5 -20h89q9 0 9 7q0 2 -2 5z" />
    <glyph glyph-name="quotesingle" unicode="'" horiz-adv-x="190" 
d="M30 739h131v-278h-131v278z" />
    <glyph glyph-name="parenleft" unicode="(" horiz-adv-x="284" 
d="M255 -69l-123 -40q-31 81 -66.5 208t-35.5 211q0 66 23 160.5t43.5 151.5t36.5 95l118 -40q-87 -252 -87 -367q0 -128 91 -379z" />
    <glyph glyph-name="parenright" unicode=")" horiz-adv-x="284" 
d="M34 677l117 40q17 -38 37 -95t43.5 -151.5t23.5 -160.5q0 -84 -35.5 -211t-67.5 -208l-122 40q91 251 91 379q0 115 -87 367z" />
    <glyph glyph-name="asterisk" unicode="*" horiz-adv-x="459" 
d="M165 731h131v-97l92 34l41 -116l-98 -36l64 -87l-109 -67l-56 75l-55 -75l-109 67l64 87l-100 36l41 116l94 -34v97z" />
    <glyph glyph-name="plus" unicode="+" horiz-adv-x="587" 
d="M228 519h131v-198h199v-122h-199v-199h-131v199h-198v122h198v198z" />
    <glyph glyph-name="comma" unicode="," horiz-adv-x="214" 
d="M54 176l131 1v-125q0 -46 -37.5 -77.5t-84.5 -31.5q-6 0 -12 1l-21 50q16 15 20 27t4 31v124z" />
    <glyph glyph-name="hyphen" unicode="-" horiz-adv-x="447" 
d="M30 333h387v-123h-387v123z" />
    <glyph glyph-name="period" unicode="." horiz-adv-x="190" 
d="M30 177h131v-177h-131v177z" />
    <glyph glyph-name="slash" unicode="/" horiz-adv-x="513" 
d="M342 700h142l-311 -700h-143z" />
    <glyph glyph-name="zero" unicode="0" horiz-adv-x="571" 
d="M30 245v166q0 130 69 198.5t186 68.5q121 0 189 -69.5t68 -197.5v-166q0 -123 -69.5 -189t-186 -66t-186.5 67t-70 188zM411 245v166q0 76 -30.5 110.5t-95.5 34.5q-62 0 -93 -34t-31 -111v-166q0 -133 125 -133q62 0 93.5 32t31.5 101z" />
    <glyph glyph-name="one" unicode="1" horiz-adv-x="373" 
d="M239 684h94v-685h-131v511l-126 -85l-66 106z" />
    <glyph glyph-name="two" unicode="2" horiz-adv-x="526" 
d="M30 679h221q93 0 158 -52.5t65 -143.5v-26q0 -66 -31 -118.5t-81 -100.5l-125 -117h259v-123h-476v90l252 239q36 35 53.5 64t17.5 66v26q0 35 -24.5 54t-67.5 19h-221v123z" />
    <glyph glyph-name="three" unicode="3" horiz-adv-x="499" 
d="M20 679h255q84 0 139 -57.5t55 -143.5q0 -81 -51 -134q51 -58 51 -146t-55 -144t-139 -56h-255v123h255q28 0 46 20t18 57q0 38 -18.5 63.5t-40.5 25.5h-187v122h187q26 0 42.5 18.5t16.5 50.5q0 36 -18.5 57t-45.5 21h-255v123z" />
    <glyph glyph-name="four" unicode="4" horiz-adv-x="570" 
d="M20 201l204 502l119 -51l-165 -406h145v160h130v-160h97v-123h-97v-123h-130v123h-303v78z" />
    <glyph glyph-name="five" unicode="5" horiz-adv-x="515" 
d="M35 670h437v-122h-306v-102h99q59 0 108.5 -19t83 -62.5t33.5 -105.5v-64q0 -53 -20.5 -92.5t-56 -61.5t-76 -32.5t-85.5 -10.5h-217v122h217q108 0 108 75v64q0 65 -95 65h-230v346z" />
    <glyph glyph-name="six" unicode="6" horiz-adv-x="528" 
d="M162 449h111q111 0 171.5 -51.5t60.5 -146.5v-37q0 -97 -60 -156.5t-176 -59.5q-118 0 -178.5 59t-60.5 189v177q0 125 69.5 190.5t192.5 65.5h200v-123h-200q-62 0 -93.5 -25t-36.5 -82zM374 214v37q0 41 -22 58.5t-79 17.5h-112v-81q0 -76 22.5 -100.5t85.5 -24.5
q57 0 81 22t24 71z" />
    <glyph glyph-name="seven" unicode="7" horiz-adv-x="498" 
d="M20 679h468v-78l-262 -603h-141l243 558h-308v123z" />
    <glyph glyph-name="eight" unicode="8" horiz-adv-x="570" 
d="M226 679h118q85 0 140.5 -57.5t55.5 -143.5q0 -81 -52 -134q52 -59 52 -146q0 -88 -56 -144t-140 -56h-118q-84 0 -140 56t-56 145q0 87 52 145q-52 54 -52 135q0 85 55.5 142.5t140.5 57.5zM220 409h130q26 0 42.5 18.5t16.5 50.5q0 35 -18.5 56.5t-46.5 21.5h-118
q-28 0 -46.5 -21t-18.5 -56q0 -31 17 -50.5t42 -19.5zM226 121h119q28 0 46 20.5t18 56.5q0 38 -18.5 63.5t-40.5 25.5h-129q-25 0 -42.5 -24.5t-17.5 -63.5q0 -37 18 -57.5t47 -20.5z" />
    <glyph glyph-name="nine" unicode="9" horiz-adv-x="528" 
d="M24 426v37q0 97 60 156.5t175 59.5q119 0 179.5 -59t60.5 -189v-177q0 -125 -69.5 -190.5t-192.5 -65.5h-200v123h200q62 0 93.5 25t36.5 82h-111q-111 0 -171.5 51.5t-60.5 146.5zM368 350v81q0 76 -22.5 100.5t-86.5 24.5q-57 0 -80.5 -22t-23.5 -71v-37
q0 -41 22 -58.5t79 -17.5h112z" />
    <glyph glyph-name="colon" unicode=":" horiz-adv-x="190" 
d="M30 500h131v-177h-131v177zM30 177h131v-177h-131v177z" />
    <glyph glyph-name="semicolon" unicode=";" horiz-adv-x="214" 
d="M54 500h131v-177h-131v177zM54 176l131 1v-125q0 -46 -37.5 -77.5t-84.5 -31.5q-6 0 -12 1l-21 50q16 15 20 27t4 31v124z" />
    <glyph glyph-name="less" unicode="&#x3c;" horiz-adv-x="467" 
d="M30 356l407 263v-147l-237 -155v-4l237 -155v-148l-407 263v83z" />
    <glyph glyph-name="equal" unicode="=" horiz-adv-x="587" 
d="M30 418h528v-122h-528v122zM30 256h528v-122h-528v122z" />
    <glyph glyph-name="greater" unicode="&#x3e;" horiz-adv-x="467" 
d="M30 472v147l407 -263v-83l-407 -263v148l238 155v4z" />
    <glyph glyph-name="question" unicode="?" horiz-adv-x="450" 
d="M30 700h172q100 0 159 -50.5t59 -141.5q0 -90 -84 -165l-44 -38q-24 -21 -31 -31t-7 -22v-65h-131v65q0 40 17 71t52 61l58 51q39 35 39 73q0 36 -20 53t-67 17h-172v122zM123 164h131v-164h-131v164z" />
    <glyph glyph-name="at" unicode="@" horiz-adv-x="640" 
d="M30 228v197q0 141 77 216.5t211 75.5q136 0 214 -76.5t78 -215.5q0 -180 -139 -264h-77l-5 29q-21 -17 -36.5 -22.5t-39.5 -6.5h-29q-52 0 -90.5 35.5t-38.5 86.5q0 49 38 87t91 38h77v16q0 15 -5.5 24t-12.5 9h-138v93h138q54 0 88.5 -35.5t34.5 -89.5v-129h4
q35 53 35 129q0 98 -49.5 147.5t-137.5 49.5q-86 0 -134.5 -48.5t-48.5 -148.5v-197q0 -90 51 -136.5t133 -46.5q48 0 107 24l28 -90q-49 -19 -74.5 -24t-54.5 -5h-6q-128 0 -208.5 73.5t-80.5 204.5zM361 287v26h-77q-9 0 -16.5 -9t-7.5 -21q0 -11 7 -19t17 -8h53
q10 0 17 8.5t7 19.5v3z" />
    <glyph glyph-name="A" unicode="A" 
d="M258 700h108l250 -700h-138l-57 161h-218l-56 -161h-137zM376 283l-64 179h-2l-64 -179h130z" />
    <glyph glyph-name="B" unicode="B" horiz-adv-x="615" 
d="M70 700h282q85 0 145 -59t60 -142q0 -73 -50 -130q74 -62 74 -158q0 -88 -62.5 -149.5t-152.5 -61.5h-296v700zM200 422h157q27 0 48.5 22.5t21.5 54.5q0 33 -22.5 56t-52.5 23h-152v-156zM200 122h166q34 0 59 26t25 63t-24.5 62.5t-59.5 25.5h-166v-177z" />
    <glyph glyph-name="C" unicode="C" 
d="M302 707h41q226 0 247 -247h-129q-6 70 -31.5 97t-86.5 27h-41q-64 0 -92.5 -29t-28.5 -102v-212q0 -61 31 -93.5t90 -32.5h41q57 0 83 33.5t31 102.5h131q-10 -119 -70 -189t-175 -70h-41q-118 0 -185 69.5t-67 179.5v212q0 129 67.5 191.5t184.5 62.5z" />
    <glyph glyph-name="D" unicode="D" horiz-adv-x="626" 
d="M70 700h255q117 0 184.5 -62.5t67.5 -191.5v-197q0 -111 -67.5 -180t-184.5 -69h-255v700zM446 249v197q0 74 -28.5 103t-92.5 29h-124v-456h124q59 0 90 33t31 94z" />
    <glyph glyph-name="E" unicode="E" horiz-adv-x="560" 
d="M70 700h455v-122h-324v-155h273v-122h-273v-179h324v-122h-455v700z" />
    <glyph glyph-name="F" unicode="F" horiz-adv-x="560" 
d="M70 700h455v-122h-324v-155h273v-122h-273v-301h-131v700z" />
    <glyph glyph-name="G" unicode="G" horiz-adv-x="659" 
d="M302 706h41q226 0 247 -245h-130q-5 69 -31 95.5t-86 26.5h-41q-64 0 -92.5 -29t-28.5 -102v-211q0 -61 31 -93.5t90 -32.5h41q63 0 92 28t29 99v29h-132v123h263v-152q0 -126 -69 -188t-183 -62h-41q-118 0 -185 69.5t-67 179.5v211q0 129 67.5 191.5t184.5 62.5z" />
    <glyph glyph-name="H" unicode="H" horiz-adv-x="666" 
d="M465 700h131v-700h-131v289h-264v-289h-131v700h131v-288h264v288z" />
    <glyph glyph-name="I" unicode="I" horiz-adv-x="270" 
d="M70 700h131v-700h-131v700z" />
    <glyph glyph-name="J" unicode="J" horiz-adv-x="331" 
d="M130 700h131v-507q0 -40 -5.5 -70.5t-14 -51.5t-22.5 -36t-28 -23t-35 -13t-38 -6t-41 -1h-67v122h67q37 0 45 7t8 40v32v507z" />
    <glyph glyph-name="K" unicode="K" horiz-adv-x="613" 
d="M429 700h160l-265 -352l279 -348h-163l-229 286h-10v-286h-131v700h131v-292h8z" />
    <glyph glyph-name="L" unicode="L" horiz-adv-x="506" 
d="M70 700h131v-578h296v-122h-427v700z" />
    <glyph glyph-name="M" unicode="M" horiz-adv-x="758" 
d="M576 700h112v-700h-131v414l-181 -308l-180 307v-413h-131v700h111l200 -340z" />
    <glyph glyph-name="N" unicode="N" horiz-adv-x="663" 
d="M468 700h131v-700h-106l-297 441v-441h-131v700h111l292 -434v434z" />
    <glyph glyph-name="O" unicode="O" horiz-adv-x="644" 
d="M302 706h41q117 0 184.5 -62.5t67.5 -191.5v-210q0 -110 -67.5 -179.5t-184.5 -69.5h-41q-118 0 -185 69.5t-67 179.5v210q0 129 67.5 191.5t184.5 62.5zM464 242v210q0 73 -28.5 102t-92.5 29h-41q-64 0 -92.5 -29t-28.5 -102v-210q0 -61 31 -93.5t90 -32.5h41
q59 0 90 32.5t31 93.5z" />
    <glyph glyph-name="P" unicode="P" horiz-adv-x="592" 
d="M70 700h282q85 0 145 -58.5t60 -142.5q0 -82 -60 -141t-145 -59h-151v-299h-131v700zM201 421h151q30 0 52.5 23t22.5 55q0 33 -22.5 56t-52.5 23h-151v-157z" />
    <glyph glyph-name="Q" unicode="Q" horiz-adv-x="657" 
d="M302 709h41q117 0 184.5 -62.5t67.5 -191.5v-210q0 -120 -79 -189l91 -90l-90 -90l-125 124q-32 -4 -49 -4h-41q-118 0 -185 69t-67 180v210q0 129 67.5 191.5t184.5 62.5zM464 245v210q0 73 -28.5 102t-92.5 29h-41q-64 0 -92.5 -29t-28.5 -102v-210q0 -61 31 -94
t90 -33h41q59 0 90 33t31 94z" />
    <glyph glyph-name="R" unicode="R" horiz-adv-x="619" 
d="M70 700h282q85 0 145 -58.5t60 -142.5q0 -64 -38.5 -116.5t-99.5 -72.5l-2 -1l168 -309h-147l-162 299h-75v-299h-131v700zM201 421h151q30 0 52.5 23t22.5 55q0 33 -22.5 56t-52.5 23h-151v-157z" />
    <glyph glyph-name="S" unicode="S" horiz-adv-x="540" 
d="M273 700h217v-122h-217q-62 0 -84.5 -15.5t-22.5 -57.5q0 -18 5 -30.5t11 -20t25 -14t33.5 -10t48.5 -10.5q40 -8 68 -16t58 -23t48.5 -35t30.5 -51t12 -72q0 -113 -60.5 -168.5t-171.5 -55.5h-239v122h239q57 0 79 22t22 80q0 36 -20.5 49.5t-90.5 27.5l-44 9.5
t-43.5 11.5t-44 17t-37.5 25t-32.5 35t-19.5 46.5t-8 60.5q0 52 18 90.5t51.5 61t75 33t93.5 10.5z" />
    <glyph glyph-name="T" unicode="T" horiz-adv-x="554" 
d="M10 700h535v-117h-201v-583h-131v583h-203v117z" />
    <glyph glyph-name="U" unicode="U" horiz-adv-x="645" 
d="M450 700h131v-486q0 -98 -53 -160t-146 -62h-106q-87 0 -146.5 59.5t-59.5 162.5v486h131v-486q0 -50 21 -75t54 -25h106q32 0 50 25t18 75v486z" />
    <glyph glyph-name="V" unicode="V" horiz-adv-x="608" 
d="M461 700h137l-240 -700h-107l-241 700h137l156 -455h2z" />
    <glyph glyph-name="W" unicode="W" horiz-adv-x="737" 
d="M595 700h133l-134 -700h-108l-117 246l-119 -246h-106l-134 700h133l86 -446l93 195h94l93 -195z" />
    <glyph glyph-name="X" unicode="X" horiz-adv-x="619" 
d="M457 700h152l-224 -350l224 -350h-152l-148 231l-147 -231h-152l223 350l-223 350h152l147 -231z" />
    <glyph glyph-name="Y" unicode="Y" horiz-adv-x="616" 
d="M456 700h151l-233 -387v-313h-131v313l-233 387h151l148 -246z" />
    <glyph glyph-name="Z" unicode="Z" horiz-adv-x="555" 
d="M55 700h456v-82l-299 -496h309v-122h-486v82l298 496h-278v122z" />
    <glyph glyph-name="bracketleft" unicode="[" horiz-adv-x="319" 
d="M30 718h260v-122h-129v-614h129v-122h-260v858z" />
    <glyph glyph-name="backslash" unicode="\" horiz-adv-x="513" 
d="M30 700h142l312 -700h-143z" />
    <glyph glyph-name="bracketright" unicode="]" horiz-adv-x="319" 
d="M30 718h260v-858h-260v122h129v614h-129v122z" />
    <glyph glyph-name="asciicircum" unicode="^" horiz-adv-x="675" 
d="M291 716h93l261 -399h-153l-143 220h-21l-145 -220h-153z" />
    <glyph glyph-name="underscore" unicode="_" horiz-adv-x="538" 
d="M30 -41h479v-122h-479v122z" />
    <glyph glyph-name="grave" unicode="`" horiz-adv-x="325" 
d="M30 682l33 91l233 -106l-35 -89z" />
    <glyph glyph-name="a" unicode="a" horiz-adv-x="445" 
d="M52 500h202q69 0 112.5 -46t43.5 -114v-340h-91l-5 29q-8 -10 -26.5 -19.5t-39.5 -9.5h-71q-68 0 -115 46t-47 112t47 112.5t115 46.5h110v23q0 22 -9 33.5t-24 11.5h-202v115zM287 153v49h-110q-16 0 -27.5 -13t-11.5 -31t11.5 -30.5t27.5 -12.5h71q14 0 26.5 12
t12.5 26z" />
    <glyph glyph-name="b" unicode="b" horiz-adv-x="460" 
d="M40 700h123v-224q24 30 71 30h33q72 0 123 -51t51 -130v-127q0 -86 -49 -142t-127 -56h-61q-21 0 -40 9.5t-28 19.5l-5 -29h-91v700zM318 198v127q0 30 -15 47.5t-36 17.5h-53q-19 0 -35 -17.5t-16 -42.5v-175q1 -17 13 -28.5t27 -11.5h62q23 0 38 22t15 61z" />
    <glyph glyph-name="c" unicode="c" horiz-adv-x="400" 
d="M227 507h158v-115h-158q-46 0 -65 -21.5t-19 -73.5v-86q0 -57 19 -79t65 -22h158v-115h-158q-100 0 -153.5 55.5t-53.5 160.5v86q0 100 53.5 155t153.5 55z" />
    <glyph glyph-name="d" unicode="d" horiz-adv-x="465" 
d="M298 700h123v-700h-91l-6 29q-8 -10 -27.5 -19.5t-39.5 -9.5h-62q-77 0 -126 56t-49 142v127q0 79 51 130t123 51h32q48 0 72 -30v224zM298 155v175q0 25 -16 42.5t-35 17.5h-53q-21 0 -36 -17.5t-15 -47.5v-127q0 -39 15 -61t37 -22h62q15 0 27.5 11.5t13.5 28.5z" />
    <glyph glyph-name="e" unicode="e" horiz-adv-x="438" 
d="M20 240v67q0 93 57 147t143 54q97 0 150.5 -53t53.5 -148v-110h-281v-1q1 -80 74 -80h195v-115h-195q-109 0 -153 61.5t-44 177.5zM301 307v6q-1 43 -20 61.5t-61 18.5q-35 0 -55.5 -20.5t-21.5 -59.5v-6h158z" />
    <glyph glyph-name="f" unicode="f" horiz-adv-x="335" 
d="M73 500v21q1 49 20.5 86.5t51.5 58.5t69.5 31.5t81.5 10.5q14 0 29 -1v-110q-10 1 -20 1q-107 0 -106 -77v-21h126v-110h-134v-390h-123v390h-58v110h63z" />
    <glyph glyph-name="g" unicode="g" horiz-adv-x="475" 
d="M339 500h92v-464q0 -102 -45.5 -159t-151.5 -57h-178v116h178q47 0 60 14t13 69v10q-23 -28 -71 -30h-32q-72 -2 -123 50t-51 130v122q0 86 49 142.5t126 56.5h61q21 0 40.5 -9.5t27.5 -19.5zM307 175v170q-1 17 -13 28.5t-27 11.5h-62q-22 0 -37 -22t-15 -61v-122
q0 -29 15 -47t36 -18h53q19 0 34.5 17.5t15.5 42.5z" />
    <glyph glyph-name="h" unicode="h" horiz-adv-x="480" 
d="M45 700h123v-224q23 28 71 29h33q72 0 123 -51t51 -129v-325h-123v325q0 29 -15 47t-36 18h-53q-19 0 -35 -17.5t-16 -43.5v-329h-123v700z" />
    <glyph glyph-name="i" unicode="i" horiz-adv-x="208" 
d="M45 659h123v-132h-123v132zM45 500h123v-500h-123v500z" />
    <glyph glyph-name="j" unicode="j" horiz-adv-x="205" 
d="M42 659h123v-132h-123v132zM42 500h123v-414q0 -85 -46 -154l-83 -116l-101 65l83 117q14 21 19 39.5t5 48.5v414z" />
    <glyph glyph-name="k" unicode="k" horiz-adv-x="498" 
d="M45 700h123v-373h12l137 173h157l-187 -231l202 -269h-151l-160 213h-10v-213h-123v700z" />
    <glyph glyph-name="l" unicode="l" horiz-adv-x="208" 
d="M45 700h123v-700h-123v700z" />
    <glyph glyph-name="m" unicode="m" horiz-adv-x="715" 
d="M473 506h34q72 0 122.5 -51t50.5 -129v-326h-123v326q0 30 -15 47.5t-35 17.5h-34q-21 0 -36 -16.5t-15 -42.5v-332h-123v331q0 25 -16 42.5t-35 17.5h-34q-21 0 -36 -15.5t-15 -39.5v-336h-122v500h92l4 -24q9 10 32 20t50 10h29q64 0 112 -41q48 41 113 41z" />
    <glyph glyph-name="n" unicode="n" horiz-adv-x="477" 
d="M214 506h55q72 0 122.5 -51t50.5 -129v-325h-123v325q0 30 -15 47.5t-35 17.5h-55q-20 0 -35.5 -16t-15.5 -39v-335h-123v499h92l4 -24q9 11 30 20.5t48 9.5z" />
    <glyph glyph-name="o" unicode="o" horiz-adv-x="455" 
d="M202 506h52q78 0 130 -60t52 -137v-127q0 -79 -51.5 -134t-130.5 -55h-52q-79 0 -130.5 55t-51.5 134v127q0 77 51.5 137t130.5 60zM313 182v127q0 34 -18 58t-41 24h-52q-23 0 -41 -24t-18 -58v-127q0 -33 17 -53.5t42 -20.5h52q25 0 42 20.5t17 53.5z" />
    <glyph glyph-name="p" unicode="p" horiz-adv-x="465" 
d="M208 506h62q78 0 127 -56t49 -142v-127q0 -79 -51 -130t-123 -51h-33q-47 0 -71 30v-209h-123v685h91l5 -29q9 10 28 19.5t39 9.5zM323 181v127q0 39 -15 61t-38 22h-62q-15 0 -27 -11.5t-13 -28.5v-175q0 -25 16 -42.5t35 -17.5h53q21 0 36 17.5t15 47.5z" />
    <glyph glyph-name="q" unicode="q" horiz-adv-x="465" 
d="M330 506h91v-685h-123v209q-24 -30 -72 -30h-32q-72 0 -123 51t-51 130v127q0 86 49 142t126 56h62q20 0 39.5 -9.5t27.5 -19.5zM298 176v175q-1 17 -13.5 28.5t-27.5 11.5h-62q-22 0 -37 -22t-15 -61v-127q0 -30 15 -47.5t36 -17.5h53q19 0 35 17.5t16 42.5z" />
    <glyph glyph-name="r" unicode="r" horiz-adv-x="346" 
d="M247 508h89v-115h-89q-84 0 -84 -84v-308h-123v499h92l6 -36q36 44 109 44z" />
    <glyph glyph-name="s" unicode="s" horiz-adv-x="432" 
d="M205 506h194v-115h-194q-33 0 -47.5 -9t-14.5 -29q0 -16 14.5 -24.5t50.5 -11.5l20 -2.5t16 -1.5q79 -9 124 -49t45 -106q0 -84 -55.5 -124t-143.5 -40h-181v115h181q45 0 60.5 11t15.5 38q0 19 -12 27.5t-47 12.5l-36 4q-36 4 -66 14t-55.5 27t-39.5 45t-14 65
q0 40 16 70.5t43 48t59 26t67 8.5z" />
    <glyph glyph-name="t" unicode="t" horiz-adv-x="360" 
d="M78 606h123v-106h140v-114h-140v-216q0 -39 9.5 -51t36.5 -12h94v-115h-94q-86 0 -127.5 48t-41.5 130v216h-68v114h68v106z" />
    <glyph glyph-name="u" unicode="u" horiz-adv-x="472" 
d="M314 500h123v-500h-92l-4 24q-9 -11 -29.5 -20.5t-47.5 -9.5h-55q-72 0 -123 51t-51 129v326h123v-326q0 -30 15 -47.5t36 -17.5h55q19 0 34.5 16t15.5 39v336z" />
    <glyph glyph-name="v" unicode="v" horiz-adv-x="517" 
d="M378 500h129l-182 -500h-132l-183 500h130l119 -341z" />
    <glyph glyph-name="w" unicode="w" horiz-adv-x="710" 
d="M572 500h129l-164 -500h-101l-81 253l-80 -253h-102l-163 500h129l84 -258l82 258h100l82 -257z" />
    <glyph glyph-name="x" unicode="x" horiz-adv-x="502" 
d="M343 500h143l-162 -246l169 -254h-145l-97 145l-96 -145h-145l169 254l-162 246h144l90 -137z" />
    <glyph glyph-name="y" unicode="y" horiz-adv-x="485" 
d="M345 500h130l-247 -680h-130l80 221l-168 459h129l104 -282z" />
    <glyph glyph-name="z" unicode="z" horiz-adv-x="418" 
d="M24 500h372v-78l-206 -307h209v-115h-379v78l206 307h-202v115z" />
    <glyph glyph-name="braceleft" unicode="{" horiz-adv-x="430" 
d="M140 718h260v-122h-130v-175q0 -80 -47 -132q47 -54 47 -131v-176h130v-122h-260v298q0 32 -15.5 50.5t-39.5 19.5h-55v123h57q24 0 38.5 18.5t14.5 51.5v297z" />
    <glyph glyph-name="bar" unicode="|" horiz-adv-x="190" 
d="M30 750h131v-846h-131v846z" />
    <glyph glyph-name="braceright" unicode="}" horiz-adv-x="430" 
d="M30 718h261v-297q0 -33 14.5 -51.5t37.5 -18.5h57v-123h-55q-24 -1 -39 -19.5t-15 -50.5v-298h-261v122h130v176q0 77 47 131q-47 52 -47 132v175h-130v122z" />
    <glyph glyph-name="asciitilde" unicode="~" horiz-adv-x="590" 
d="M149 109l-114 8q-5 21 -5 42q0 69 51 119t122 50q46 0 79.5 -20t68.5 -63q20 -24 38 -24q21 0 30.5 17.5t16.5 82.5l121 -16q4 -18 4 -35q0 -70 -50.5 -121t-121.5 -51q-46 0 -87 24.5t-63 59.5q-16 23 -36 23q-22 0 -31 -17t-23 -79z" />
    <glyph glyph-name="exclamdown" unicode="&#xa1;" horiz-adv-x="190" 
d="M30 533h131v-140h-131v140zM30 364h131v-531h-131v531z" />
    <glyph glyph-name="cent" unicode="&#xa2;" horiz-adv-x="425" 
d="M221 550h105v-43h69v-115h-69v-282h69v-115h-69v-45h-105v45q-93 5 -142 60.5t-49 155.5v86q0 96 49 150.5t142 59.5v43zM221 110v282q-37 -4 -52.5 -25.5t-15.5 -69.5v-86q0 -52 15.5 -74.5t52.5 -26.5z" />
    <glyph glyph-name="sterling" unicode="&#xa3;" horiz-adv-x="483" 
d="M262 700h155v-122h-155q-27 0 -34 -13t-7 -68v-47h161v-123h-161v-205h232v-122h-423v122h61v205h-61v123h61v47q0 111 44 157t127 46z" />
    <glyph glyph-name="currency" unicode="&#xa4;" horiz-adv-x="500" 
d="M335 565l48 48l82 -84l-37 -35q15 -30 15 -70v-52q0 -34 -16 -65l43 -41l-85 -86l-51 50q-29 -9 -56 -9h-53q-27 0 -56 8l-45 -49l-94 86l40 41q-19 30 -19 65v52q0 37 21 70l-36 35l84 84l48 -47q30 9 57 9h53q27 0 57 -10zM320 372v52q0 16 -11.5 26t-30.5 10h-53
q-21 0 -36 -11t-15 -25v-52q0 -14 15 -25t36 -11h53q19 0 30.5 10t11.5 26z" />
    <glyph glyph-name="yen" unicode="&#xa5;" horiz-adv-x="656" 
d="M476 700h151l-184 -304h144v-123h-193v-30h193v-122h-193v-121h-131v121h-204v122h204v29h-204v124h154l-183 304h150l149 -246z" />
    <glyph glyph-name="brokenbar" unicode="&#xa6;" horiz-adv-x="190" 
d="M30 750h131v-410h-131v410zM30 314h131v-410h-131v410z" />
    <glyph glyph-name="section" unicode="&#xa7;" horiz-adv-x="452" 
d="M215 603h194v-116h-194q-33 0 -47.5 -8.5t-14.5 -29.5q0 -15 14.5 -23.5t50.5 -12.5q8 0 20 -1.5t16 -2.5q79 -8 124 -48t45 -106q0 -44 -18 -77q18 -32 18 -72q0 -83 -55 -122t-144 -39h-181v116h181q45 0 60.5 9t15.5 36q0 19 -12 28t-47 12l-36 4q-36 4 -66 14
t-55.5 27t-39.5 45t-14 65q0 43 19 76q-19 31 -19 72t16 71.5t43 48t59 26t67 8.5zM241 295l-36 4q-43 5 -51 9q0 -2 -0.5 -3.5t-0.5 -2.5q0 -3 1 -8q5 -23 64 -29q3 0 17.5 -2t17.5 -2q34 -4 47 -9v1v2q0 22 -12.5 29t-46.5 11z" />
    <glyph glyph-name="dieresis" unicode="&#xa8;" horiz-adv-x="300" 
d="M30 757h105v-142h-105v142zM165 757h105v-142h-105v142z" />
    <glyph glyph-name="copyright" unicode="&#xa9;" horiz-adv-x="662" 
d="M330 748q129 0 215.5 -89.5t86.5 -216.5t-86.5 -216.5t-215.5 -89.5t-214.5 89.5t-85.5 216.5t85.5 216.5t214.5 89.5zM330 653q-83 0 -139 -61t-56 -150t56 -150t139 -61t140 61t57 150t-57 150t-140 61zM320 601h93v-80h-93q-21 0 -28.5 -17.5t-7.5 -62.5t7.5 -61.5
t28.5 -16.5h94v-80h-94q-36 0 -61.5 12.5t-39 35.5t-18.5 49.5t-5 60.5t5 60t17.5 50t38.5 37t63 13z" />
    <glyph glyph-name="ordfeminine" unicode="&#xaa;" horiz-adv-x="347" 
d="M50 698h154q51 0 82 -33t31 -80v-246h-73l-3 21q-6 -7 -24.5 -14t-39.5 -7h-29q-50 0 -84 33t-34 81.5t34 81.5t84 33h73v17q0 26 -17 26h-154v87zM221 457v24h-73q-9 0 -15.5 -7t-6.5 -20t6.5 -20.5t15.5 -7.5h49q10 0 17 8t7 20v3z" />
    <glyph glyph-name="guillemotleft" unicode="&#xab;" horiz-adv-x="524" 
d="M30 310l224 176v-156l-66 -52l66 -52v-156l-224 176v64zM270 310l225 176v-156l-66 -52l66 -52v-156l-225 176v64z" />
    <glyph glyph-name="logicalnot" unicode="&#xac;" horiz-adv-x="893" 
 />
    <glyph glyph-name="registered" unicode="&#xae;" horiz-adv-x="662" 
d="M330 748q129 0 215.5 -89.5t86.5 -216.5t-86.5 -216.5t-215.5 -89.5t-214.5 89.5t-85.5 216.5t85.5 216.5t214.5 89.5zM330 653q-83 0 -139 -61t-56 -150t56 -150t139 -61t140 61t57 150t-57 150t-140 61zM214 599h104q58 0 88.5 -22t30.5 -76q0 -65 -40 -87l59 -117h-89
l-53 104h-19v-104h-81v302zM295 474h38q17 0 20 3.5t3 23.5q0 17 -5.5 20.5t-32.5 3.5h-23v-51z" />
    <glyph glyph-name="macron" unicode="&#xaf;" horiz-adv-x="392" 
d="M30 718h332v-95h-332v95z" />
    <glyph glyph-name="degree" unicode="&#xb0;" horiz-adv-x="382" 
d="M191.5 734q71.5 0 116.5 -44t45 -113t-45 -112.5t-116.5 -43.5t-116.5 43.5t-45 112.5t45 113t116.5 44zM191.5 647q-29.5 0 -47.5 -18.5t-18 -51.5t17.5 -51t48 -18t48 18t17.5 51t-18 51.5t-47.5 18.5z" />
    <glyph glyph-name="plusminus" unicode="&#xb1;" horiz-adv-x="587" 
d="M228 595h131v-137h199v-122h-199v-136h-131v136h-198v122h198v137zM30 122h528v-122h-528v122z" />
    <glyph glyph-name="twosuperior" unicode="&#xb2;" horiz-adv-x="333" 
d="M30 700h129q55 0 93 -30t38 -84v-14q0 -38 -17 -67t-46 -56l-44 -43h120v-86h-273v71l129 122q19 18 27 30.5t8 28.5v14q0 13 -9.5 20.5t-25.5 7.5h-129v86z" />
    <glyph glyph-name="threesuperior" unicode="&#xb3;" horiz-adv-x="325" 
d="M30 700h148q51 0 84 -33.5t33 -83.5q0 -43 -24 -73q23 -32 23 -75q0 -51 -33 -84t-83 -33h-148v87h148q20 0 20 30q0 16 -6 25.5t-13 9.5h-2h-108v87h109q21 0 21 26q0 30 -21 30h-148v87z" />
    <glyph glyph-name="acute" unicode="&#xb4;" horiz-adv-x="325" 
d="M30 668l233 106l33 -91l-232 -104z" />
    <glyph glyph-name="paragraph" unicode="&#xb6;" horiz-adv-x="583" 
d="M216 621h338v-122h-71v-662h-113v662h-37v-662h-112v382h-6q-78 0 -131.5 52t-53.5 138q0 25 5.5 52t19.5 56t34 52t53.5 37.5t73.5 14.5z" />
    <glyph glyph-name="periodcentered" unicode="&#xb7;" horiz-adv-x="190" 
d="M30 402h131v-178h-131v178z" />
    <glyph glyph-name="cedilla" unicode="&#xb8;" horiz-adv-x="238" 
d="M68 44h85v-75q55 -16 55 -85q0 -96 -98 -96h-80v80h80q18 0 18 16q0 14 -18 14h-42v146z" />
    <glyph glyph-name="onesuperior" unicode="&#xb9;" horiz-adv-x="260" 
d="M155 700h75v-381h-97v256l-47 -32l-56 72z" />
    <glyph glyph-name="ordmasculine" unicode="&#xba;" horiz-adv-x="372" 
d="M188 697q76 0 115.5 -41.5t39.5 -132.5q0 -93 -39.5 -135.5t-115.5 -42.5q-77 0 -117.5 42.5t-40.5 135.5q0 91 40.5 132.5t117.5 41.5zM188 610q-36 0 -49 -17t-13 -70q0 -55 13 -73t49 -18q33 0 46 18.5t13 72.5t-12.5 70.5t-46.5 16.5z" />
    <glyph glyph-name="guillemotright" unicode="&#xbb;" horiz-adv-x="524" 
d="M270 330v156l225 -176v-64l-225 -176v156l66 52zM30 330v156l224 -176v-64l-224 -176v156l66 52z" />
    <glyph glyph-name="onequarter" unicode="&#xbc;" horiz-adv-x="687" 
d="M450 716h106l-329 -733h-107zM152 700h76v-381h-97v256l-49 -33l-52 74zM352 121l105 257l91 -31l-81 -196h43l19 85h78v-85h50v-86h-50v-65h-97v65h-158v56z" />
    <glyph glyph-name="onehalf" unicode="&#xbd;" horiz-adv-x="752" 
d="M450 716h106l-329 -733h-107zM152 700h76v-381h-97v256l-49 -33l-52 74zM449 379h129q55 0 92.5 -30t37.5 -83v-14q0 -66 -63 -124l-43 -41h121v-88h-274v71l129 122q19 18 27 30.5t8 29.5v14q0 12 -9.5 19.5t-25.5 7.5h-129v86z" />
    <glyph glyph-name="threequarters" unicode="&#xbe;" horiz-adv-x="720" 
d="M483 716h106l-329 -733h-106zM30 700h148q51 0 84 -33.5t33 -83.5q0 -43 -24 -73q23 -32 23 -75q0 -51 -33 -84t-83 -33h-148v87h148q20 0 20 30q0 16 -6 25.5t-13 9.5h-2h-108v87h109q21 0 21 26q0 30 -21 30h-148v87zM385 121l105 257l91 -31l-81 -196h43l19 85h78v-85
h51v-86h-51v-65h-97v65h-158v56z" />
    <glyph glyph-name="questiondown" unicode="&#xbf;" horiz-adv-x="450" 
d="M196 535h131v-164h-131v164zM196 348h131v-66q0 -39 -17 -70t-52 -62l-58 -50q-39 -35 -39 -73q0 -37 20 -53.5t67 -16.5h172v-122h-172q-100 0 -159 50.5t-59 141.5q0 90 84 164l44 39q24 20 31 30t7 22v66z" />
    <glyph glyph-name="Agrave" unicode="&#xc0;" 
d="M181 882l32 91l233 -106l-34 -89zM258 700h108l250 -700h-138l-57 161h-218l-56 -161h-137zM376 283l-64 179h-2l-64 -179h130z" />
    <glyph glyph-name="Aacute" unicode="&#xc1;" 
d="M180 868l233 106l32 -91l-231 -104zM258 700h108l250 -700h-138l-57 161h-218l-56 -161h-137zM376 283l-64 179h-2l-64 -179h130z" />
    <glyph glyph-name="Acircumflex" unicode="&#xc2;" 
d="M282 957h62l157 -190h-134l-54 99l-54 -99h-134zM258 700h108l250 -700h-138l-57 161h-218l-56 -161h-137zM376 283l-64 179h-2l-64 -179h130z" />
    <glyph glyph-name="Atilde" unicode="&#xc3;" 
d="M186 829l-44 71q1 1 18.5 16.5t40 27t46.5 11.5q53 0 104 -42q19 -15 31 -15q18 0 66 38l58 -62q-39 -40 -66.5 -55.5t-57.5 -15.5q-52 0 -98 37q-2 2 -5.5 4.5t-5 4t-4 3.5t-4 2.5t-3 2t-3 2l-3 1t-2.5 0.5h-3h-4q-11 -2 -61 -31zM258 700h108l250 -700h-138l-57 161
h-218l-56 -161h-137zM376 283l-64 179h-2l-64 -179h130z" />
    <glyph glyph-name="Adieresis" unicode="&#xc4;" 
d="M193 957h105v-142h-105v142zM328 957h105v-142h-105v142zM258 700h108l250 -700h-138l-57 161h-218l-56 -161h-137zM376 283l-64 179h-2l-64 -179h130z" />
    <glyph glyph-name="Aring" unicode="&#xc5;" 
d="M313 990q53 0 90 -36.5t37 -85.5q0 -51 -37 -87t-90 -36q-54 0 -90.5 36t-36.5 87q0 49 36.5 85.5t90.5 36.5zM313 895q-9 0 -15.5 -7.5t-6.5 -19.5q0 -13 6.5 -20.5t15.5 -7.5t15.5 8t6.5 20q0 11 -7 19t-15 8zM258 700h108l250 -700h-138l-57 161h-218l-56 -161h-137z
M376 283l-64 179h-2l-64 -179h130z" />
    <glyph glyph-name="AE" unicode="&#xc6;" horiz-adv-x="801" 
d="M258 700h508v-122h-324v-155h273v-122h-273v-179h324v-122h-455v161h-108l-56 -161h-137zM311 283v179l-65 -179h65z" />
    <glyph glyph-name="Ccedilla" unicode="&#xc7;" 
d="M302 707h41q226 0 247 -246h-129q-6 70 -31.5 96.5t-86.5 26.5h-41q-64 0 -92.5 -29t-28.5 -102v-212q0 -60 31 -93t90 -33h41q57 0 83 33.5t31 102.5h131q-10 -116 -67 -185.5t-167 -73.5h-4v-17q55 -18 55 -86q0 -96 -98 -96h-80v80h80q18 0 18 16q0 14 -18 14h-42v91
q-101 11 -158 78.5t-57 168.5v212q0 129 67.5 191.5t184.5 62.5z" />
    <glyph glyph-name="Egrave" unicode="&#xc8;" horiz-adv-x="560" 
d="M142 882l33 91l233 -106l-34 -89zM70 700h455v-122h-324v-155h273v-122h-273v-179h324v-122h-455v700z" />
    <glyph glyph-name="Eacute" unicode="&#xc9;" horiz-adv-x="560" 
d="M142 868l233 106l32 -91l-231 -104zM70 700h455v-122h-324v-155h273v-122h-273v-179h324v-122h-455v700z" />
    <glyph glyph-name="Ecircumflex" unicode="&#xca;" horiz-adv-x="560" 
d="M244 957h62l157 -190h-134l-54 99l-54 -99h-134zM70 700h455v-122h-324v-155h273v-122h-273v-179h324v-122h-455v700z" />
    <glyph glyph-name="Edieresis" unicode="&#xcb;" horiz-adv-x="560" 
d="M155 957h105v-142h-105v142zM290 957h105v-142h-105v142zM70 700h455v-122h-324v-155h273v-122h-273v-179h324v-122h-455v700z" />
    <glyph glyph-name="Igrave" unicode="&#xcc;" horiz-adv-x="270" 
d="M3 882l33 91l233 -106l-34 -89zM70 700h131v-700h-131v700z" />
    <glyph glyph-name="Iacute" unicode="&#xcd;" horiz-adv-x="270" 
d="M3 868l233 106l32 -91l-231 -104zM70 700h131v-700h-131v700z" />
    <glyph glyph-name="Icircumflex" unicode="&#xce;" horiz-adv-x="270" 
d="M104 957h63l157 -190h-134l-54 99l-54 -99h-134zM70 700h131v-700h-131v700z" />
    <glyph glyph-name="Idieresis" unicode="&#xcf;" horiz-adv-x="270" 
d="M16 957h105v-142h-105v142zM151 957h105v-142h-105v142zM70 700h131v-700h-131v700z" />
    <glyph glyph-name="Eth" unicode="&#xd0;" horiz-adv-x="669" 
d="M10 282v122h103v296h255q117 0 184.5 -62.5t67.5 -191.5v-197q0 -111 -67.5 -180t-184.5 -69h-255v282h-103zM244 282v-160h123q60 0 91 33t31 94v197q0 74 -28.5 103t-92.5 29h-124v-174h123v-122h-123z" />
    <glyph glyph-name="Ntilde" unicode="&#xd1;" horiz-adv-x="663" 
d="M205 829l-44 71q1 1 18.5 16.5t40 27t47.5 11.5q53 0 104 -42q19 -15 31 -15q17 0 65 38l59 -62q-39 -40 -67 -55.5t-57 -15.5q-52 0 -98 37q-3 2 -6 4.5t-5 4l-4.5 3.5t-3.5 2.5t-3 2t-3 2t-2.5 1t-3 0.5h-2.5h-4q-12 -2 -62 -31zM468 700h131v-700h-106l-297 441v-441
h-131v700h111l292 -434v434z" />
    <glyph glyph-name="Ograve" unicode="&#xd2;" horiz-adv-x="644" 
d="M190 882l33 91l232 -106l-34 -89zM302 706h41q117 0 184.5 -62.5t67.5 -191.5v-210q0 -110 -67.5 -179.5t-184.5 -69.5h-41q-118 0 -185 69.5t-67 179.5v210q0 129 67.5 191.5t184.5 62.5zM464 242v210q0 73 -28.5 102t-92.5 29h-41q-64 0 -92.5 -29t-28.5 -102v-210
q0 -61 31 -93.5t90 -32.5h41q59 0 90 32.5t31 93.5z" />
    <glyph glyph-name="Oacute" unicode="&#xd3;" horiz-adv-x="644" 
d="M189 868l233 106l33 -91l-231 -104zM302 706h41q117 0 184.5 -62.5t67.5 -191.5v-210q0 -110 -67.5 -179.5t-184.5 -69.5h-41q-118 0 -185 69.5t-67 179.5v210q0 129 67.5 191.5t184.5 62.5zM464 242v210q0 73 -28.5 102t-92.5 29h-41q-64 0 -92.5 -29t-28.5 -102v-210
q0 -61 31 -93.5t90 -32.5h41q59 0 90 32.5t31 93.5z" />
    <glyph glyph-name="Ocircumflex" unicode="&#xd4;" horiz-adv-x="644" 
d="M291 957h63l156 -190h-134l-54 99l-53 -99h-135zM302 706h41q117 0 184.5 -62.5t67.5 -191.5v-210q0 -110 -67.5 -179.5t-184.5 -69.5h-41q-118 0 -185 69.5t-67 179.5v210q0 129 67.5 191.5t184.5 62.5zM464 242v210q0 73 -28.5 102t-92.5 29h-41q-64 0 -92.5 -29
t-28.5 -102v-210q0 -61 31 -93.5t90 -32.5h41q59 0 90 32.5t31 93.5z" />
    <glyph glyph-name="Otilde" unicode="&#xd5;" horiz-adv-x="644" 
d="M195 829l-44 71q1 1 18.5 16.5t40 27t47.5 11.5q53 0 104 -42q19 -15 31 -15q17 0 65 38l59 -62q-39 -40 -66.5 -55.5t-57.5 -15.5q-52 0 -98 37q-3 2 -6 4.5t-5 4l-4.5 3.5t-3.5 2.5t-3 2t-3 2t-2.5 1t-3 0.5h-2.5h-4q-12 -2 -62 -31zM302 706h41q117 0 184.5 -62.5
t67.5 -191.5v-210q0 -110 -67.5 -179.5t-184.5 -69.5h-41q-118 0 -185 69.5t-67 179.5v210q0 129 67.5 191.5t184.5 62.5zM464 242v210q0 73 -28.5 102t-92.5 29h-41q-64 0 -92.5 -29t-28.5 -102v-210q0 -61 31 -93.5t90 -32.5h41q59 0 90 32.5t31 93.5z" />
    <glyph glyph-name="Odieresis" unicode="&#xd6;" horiz-adv-x="644" 
d="M202 957h105v-142h-105v142zM337 957h105v-142h-105v142zM302 706h41q117 0 184.5 -62.5t67.5 -191.5v-210q0 -110 -67.5 -179.5t-184.5 -69.5h-41q-118 0 -185 69.5t-67 179.5v210q0 129 67.5 191.5t184.5 62.5zM464 242v210q0 73 -28.5 102t-92.5 29h-41
q-64 0 -92.5 -29t-28.5 -102v-210q0 -61 31 -93.5t90 -32.5h41q59 0 90 32.5t31 93.5z" />
    <glyph glyph-name="multiply" unicode="&#xd7;" horiz-adv-x="519" 
d="M258 341l138 138l94 -85l-143 -143l143 -143l-94 -85l-138 138l-143 -142l-85 94l139 138l-139 138l85 94z" />
    <glyph glyph-name="Oslash" unicode="&#xd8;" horiz-adv-x="644" 
d="M430 750h142l-47 -105q70 -64 70 -193v-210q0 -110 -67.5 -179.5t-184.5 -69.5h-41q-34 0 -64 6l-22 -49h-143l48 108q-71 69 -71 184v210q0 129 67.5 191.5t184.5 62.5h41q34 0 64 -6zM185 201l170 382q-6 1 -12 1h-41q-64 0 -92.5 -29.5t-28.5 -102.5v-210q0 -22 4 -41
zM464 242v210q0 27 -4 48l-170 -384h12h41q59 0 90 32.5t31 93.5z" />
    <glyph glyph-name="Ugrave" unicode="&#xd9;" horiz-adv-x="645" 
d="M189 882l32 91l233 -106l-34 -89zM450 700h131v-486q0 -98 -53 -160t-146 -62h-106q-87 0 -146.5 59.5t-59.5 162.5v486h131v-486q0 -50 21 -75t54 -25h106q32 0 50 25t18 75v486z" />
    <glyph glyph-name="Uacute" unicode="&#xda;" horiz-adv-x="645" 
d="M188 868l233 106l33 -91l-232 -104zM450 700h131v-486q0 -98 -53 -160t-146 -62h-106q-87 0 -146.5 59.5t-59.5 162.5v486h131v-486q0 -50 21 -75t54 -25h106q32 0 50 25t18 75v486z" />
    <glyph glyph-name="Ucircumflex" unicode="&#xdb;" horiz-adv-x="645" 
d="M290 957h63l156 -190h-134l-54 99l-53 -99h-135zM450 700h131v-486q0 -98 -53 -160t-146 -62h-106q-87 0 -146.5 59.5t-59.5 162.5v486h131v-486q0 -50 21 -75t54 -25h106q32 0 50 25t18 75v486z" />
    <glyph glyph-name="Udieresis" unicode="&#xdc;" horiz-adv-x="645" 
d="M201 957h105v-142h-105v142zM336 957h105v-142h-105v142zM450 700h131v-486q0 -98 -53 -160t-146 -62h-106q-87 0 -146.5 59.5t-59.5 162.5v486h131v-486q0 -50 21 -75t54 -25h106q32 0 50 25t18 75v486z" />
    <glyph glyph-name="Yacute" unicode="&#xdd;" horiz-adv-x="616" 
d="M176 868l233 106l32 -91l-231 -104zM456 700h151l-233 -387v-313h-131v313l-233 387h151l148 -246z" />
    <glyph glyph-name="Thorn" unicode="&#xde;" horiz-adv-x="604" 
d="M202 0h-132v700h132v-106h149q100 0 159 -49.5t59 -138.5v-85q0 -88 -56.5 -146.5t-161.5 -58.5h-149v-116zM437 321v84q0 36 -19.5 51.5t-66.5 15.5h-149v-235h149q45 0 65.5 21t20.5 63z" />
    <glyph glyph-name="germandbls" unicode="&#xdf;" horiz-adv-x="621" 
d="M324 707h31q86 0 146.5 -59t60.5 -143q0 -72 -56 -132q80 -67 80 -161q0 -88 -63 -149.5t-154 -61.5h-127v122h127q36 0 61 26t25 63q0 96 -119 96v109q51 0 73 24.5t22 63.5q0 33 -22.5 56.5t-53.5 23.5h-31q-66 0 -94.5 -29t-28.5 -104v-451h-131v451q0 130 67.5 192.5
t186.5 62.5z" />
    <glyph glyph-name="agrave" unicode="&#xe0;" horiz-adv-x="445" 
d="M91 682l32 91l233 -106l-34 -89zM52 500h202q69 0 112.5 -46t43.5 -114v-340h-91l-5 29q-8 -10 -26.5 -19.5t-39.5 -9.5h-71q-68 0 -115 46t-47 112t47 112.5t115 46.5h110v23q0 22 -9 33.5t-24 11.5h-202v115zM287 153v49h-110q-16 0 -27.5 -13t-11.5 -31t11.5 -30.5
t27.5 -12.5h71q14 0 26.5 12t12.5 26z" />
    <glyph glyph-name="aacute" unicode="&#xe1;" horiz-adv-x="445" 
d="M90 668l233 106l32 -91l-231 -104zM52 500h202q69 0 112.5 -46t43.5 -114v-340h-91l-5 29q-8 -10 -26.5 -19.5t-39.5 -9.5h-71q-68 0 -115 46t-47 112t47 112.5t115 46.5h110v23q0 22 -9 33.5t-24 11.5h-202v115zM287 153v49h-110q-16 0 -27.5 -13t-11.5 -31t11.5 -30.5
t27.5 -12.5h71q14 0 26.5 12t12.5 26z" />
    <glyph glyph-name="acircumflex" unicode="&#xe2;" horiz-adv-x="445" 
d="M192 757h62l157 -190h-134l-54 99l-54 -99h-134zM52 500h202q69 0 112.5 -46t43.5 -114v-340h-91l-5 29q-8 -10 -26.5 -19.5t-39.5 -9.5h-71q-68 0 -115 46t-47 112t47 112.5t115 46.5h110v23q0 22 -9 33.5t-24 11.5h-202v115zM287 153v49h-110q-16 0 -27.5 -13
t-11.5 -31t11.5 -30.5t27.5 -12.5h71q14 0 26.5 12t12.5 26z" />
    <glyph glyph-name="atilde" unicode="&#xe3;" horiz-adv-x="445" 
d="M96 629l-44 71q1 1 18.5 16.5t40 27t46.5 11.5q53 0 104 -42q19 -15 31 -15q18 0 66 38l58 -62q-39 -40 -66.5 -55.5t-57.5 -15.5q-52 0 -98 37q-2 2 -5.5 4.5t-5 4t-4 3.5t-4 2.5t-3 2t-3 2l-3 1t-2.5 0.5h-3h-4q-11 -2 -61 -31zM52 500h202q69 0 112.5 -46t43.5 -114
v-340h-91l-5 29q-8 -10 -26.5 -19.5t-39.5 -9.5h-71q-68 0 -115 46t-47 112t47 112.5t115 46.5h110v23q0 22 -9 33.5t-24 11.5h-202v115zM287 153v49h-110q-16 0 -27.5 -13t-11.5 -31t11.5 -30.5t27.5 -12.5h71q14 0 26.5 12t12.5 26z" />
    <glyph glyph-name="adieresis" unicode="&#xe4;" horiz-adv-x="445" 
d="M103 757h105v-142h-105v142zM238 757h105v-142h-105v142zM52 500h202q69 0 112.5 -46t43.5 -114v-340h-91l-5 29q-8 -10 -26.5 -19.5t-39.5 -9.5h-71q-68 0 -115 46t-47 112t47 112.5t115 46.5h110v23q0 22 -9 33.5t-24 11.5h-202v115zM287 153v49h-110q-16 0 -27.5 -13
t-11.5 -31t11.5 -30.5t27.5 -12.5h71q14 0 26.5 12t12.5 26z" />
    <glyph glyph-name="aring" unicode="&#xe5;" horiz-adv-x="445" 
d="M223 790q53 0 90 -36.5t37 -85.5q0 -51 -37 -87t-90 -36q-54 0 -90.5 36t-36.5 87q0 49 36.5 85.5t90.5 36.5zM223 695q-9 0 -15.5 -7.5t-6.5 -19.5q0 -13 6.5 -20.5t15.5 -7.5t15.5 8t6.5 20q0 11 -7 19t-15 8zM52 500h202q69 0 112.5 -46t43.5 -114v-340h-91l-5 29
q-8 -10 -26.5 -19.5t-39.5 -9.5h-71q-68 0 -115 46t-47 112t47 112.5t115 46.5h110v23q0 22 -9 33.5t-24 11.5h-202v115zM287 153v49h-110q-16 0 -27.5 -13t-11.5 -31t11.5 -30.5t27.5 -12.5h71q14 0 26.5 12t12.5 26z" />
    <glyph glyph-name="ae" unicode="&#xe6;" horiz-adv-x="710" 
d="M52 500h202q61 0 104 -37q54 45 133 45q97 0 150.5 -53t53.5 -148v-110h-281v-3q1 -78 74 -78h195v-115h-195q-44 0 -78 11v-12h-91l-5 29q-8 -10 -26.5 -19.5t-39.5 -9.5h-71q-68 0 -115 46t-47 112t47 112.5t115 46.5h110v23q0 22 -9 33.5t-24 11.5h-202v115zM572 307
v2q0 45 -19 64.5t-62 19.5q-35 0 -55.5 -21t-21.5 -63v-2h158zM287 153v49h-110q-16 0 -27.5 -13t-11.5 -31t11.5 -30.5t27.5 -12.5h71q14 0 26.5 12t12.5 26z" />
    <glyph glyph-name="ccedilla" unicode="&#xe7;" horiz-adv-x="400" 
d="M227 507h158v-115h-158q-46 0 -65 -21.5t-19 -73.5v-86q0 -57 19 -79t65 -22h158v-115h-136v-14q55 -16 55 -85q0 -96 -98 -96h-80v80h80q18 0 18 16q0 14 -18 14h-42v92q-70 16 -107 69t-37 140v86q0 100 53.5 155t153.5 55z" />
    <glyph glyph-name="egrave" unicode="&#xe8;" horiz-adv-x="438" 
d="M88 682l32 91l233 -106l-34 -89zM20 240v67q0 93 57 147t143 54q97 0 150.5 -53t53.5 -148v-110h-281v-1q1 -80 74 -80h195v-115h-195q-109 0 -153 61.5t-44 177.5zM301 307v6q-1 43 -20 61.5t-61 18.5q-35 0 -55.5 -20.5t-21.5 -59.5v-6h158z" />
    <glyph glyph-name="eacute" unicode="&#xe9;" horiz-adv-x="438" 
d="M87 668l233 106l32 -91l-231 -104zM20 240v67q0 93 57 147t143 54q97 0 150.5 -53t53.5 -148v-110h-281v-1q1 -80 74 -80h195v-115h-195q-109 0 -153 61.5t-44 177.5zM301 307v6q-1 43 -20 61.5t-61 18.5q-35 0 -55.5 -20.5t-21.5 -59.5v-6h158z" />
    <glyph glyph-name="ecircumflex" unicode="&#xea;" horiz-adv-x="438" 
d="M189 757h62l157 -190h-134l-54 99l-54 -99h-134zM20 240v67q0 93 57 147t143 54q97 0 150.5 -53t53.5 -148v-110h-281v-1q1 -80 74 -80h195v-115h-195q-109 0 -153 61.5t-44 177.5zM301 307v6q-1 43 -20 61.5t-61 18.5q-35 0 -55.5 -20.5t-21.5 -59.5v-6h158z" />
    <glyph glyph-name="edieresis" unicode="&#xeb;" horiz-adv-x="438" 
d="M100 757h105v-142h-105v142zM235 757h105v-142h-105v142zM20 240v67q0 93 57 147t143 54q97 0 150.5 -53t53.5 -148v-110h-281v-1q1 -80 74 -80h195v-115h-195q-109 0 -153 61.5t-44 177.5zM301 307v6q-1 43 -20 61.5t-61 18.5q-35 0 -55.5 -20.5t-21.5 -59.5v-6h158z
" />
    <glyph glyph-name="igrave" unicode="&#xec;" horiz-adv-x="208" 
d="M-28 682l33 91l233 -106l-35 -89zM45 500h123v-500h-123v500z" />
    <glyph glyph-name="iacute" unicode="&#xed;" horiz-adv-x="208" 
d="M-28 668l232 106l33 -91l-231 -104zM45 500h123v-500h-123v500z" />
    <glyph glyph-name="icircumflex" unicode="&#xee;" horiz-adv-x="208" 
d="M73 757h63l157 -190h-135l-53 99l-54 -99h-134zM45 500h123v-500h-123v500z" />
    <glyph glyph-name="idieresis" unicode="&#xef;" horiz-adv-x="208" 
d="M-15 757h105v-142h-105v142zM120 757h105v-142h-105v142zM45 500h123v-500h-123v500z" />
    <glyph glyph-name="eth" unicode="&#xf0;" horiz-adv-x="523" 
d="M37 708h200q94 0 158 -39l43 44l62 -61l-43 -43q42 -62 42 -157v-212q0 -130 -60.5 -189t-179.5 -59q-115 0 -175 59.5t-60 156.5v37q0 95 60.5 146.5t171.5 51.5h112v9q0 34 -7 59l-41 -41l-61 61l43 45q-26 9 -65 9h-200v123zM368 246v81h-112q-57 0 -79 -17.5
t-22 -58.5v-37q0 -49 23.5 -71t80.5 -22q64 0 86.5 24.5t22.5 100.5z" />
    <glyph glyph-name="ntilde" unicode="&#xf1;" horiz-adv-x="477" 
d="M111 637l-45 71q1 1 18.5 16.5t40 27t47.5 11.5q53 0 104 -42q19 -15 31 -15q18 0 66 38l58 -62q-39 -39 -66.5 -55t-57.5 -16q-52 0 -98 37q-2 2 -5.5 4.5t-5 4t-4 3.5t-4 3t-3.5 2l-3 1.5t-2.5 1l-3 1t-2.5 0.5q-2 0 -4 -1q-12 -2 -61 -31zM214 506h55q72 0 122.5 -51
t50.5 -129v-325h-123v325q0 30 -15 47.5t-35 17.5h-55q-20 0 -35.5 -16t-15.5 -39v-335h-123v499h92l4 -24q9 11 30 20.5t48 9.5z" />
    <glyph glyph-name="ograve" unicode="&#xf2;" horiz-adv-x="455" 
d="M96 682l32 91l233 -106l-34 -89zM202 506h52q78 0 130 -60t52 -137v-127q0 -79 -51.5 -134t-130.5 -55h-52q-80 0 -131 55t-51 134v127q0 77 51.5 137t130.5 60zM313 182v127q0 34 -18 58t-41 24h-52q-23 0 -41 -24t-18 -58v-127q0 -33 17 -53.5t42 -20.5h52
q25 0 42 20.5t17 53.5z" />
    <glyph glyph-name="oacute" unicode="&#xf3;" horiz-adv-x="455" 
d="M95 668l233 106l32 -91l-231 -104zM202 506h52q78 0 130 -60t52 -137v-127q0 -79 -51.5 -134t-130.5 -55h-52q-80 0 -131 55t-51 134v127q0 77 51.5 137t130.5 60zM313 182v127q0 34 -18 58t-41 24h-52q-23 0 -41 -24t-18 -58v-127q0 -33 17 -53.5t42 -20.5h52
q25 0 42 20.5t17 53.5z" />
    <glyph glyph-name="ocircumflex" unicode="&#xf4;" horiz-adv-x="455" 
d="M197 757h62l157 -190h-134l-54 99l-54 -99h-134zM202 506h52q78 0 130 -60t52 -137v-127q0 -79 -51.5 -134t-130.5 -55h-52q-79 0 -130.5 55t-51.5 134v127q0 77 52 137t130 60zM313 182v127q0 34 -18 58t-41 24h-52q-23 0 -41 -24t-18 -58v-127q0 -33 17 -53.5t42 -20.5
h52q25 0 42 20.5t17 53.5z" />
    <glyph glyph-name="otilde" unicode="&#xf5;" horiz-adv-x="455" 
d="M101 629l-44 71q1 1 18.5 16.5t40 27t46.5 11.5q53 0 104 -42q19 -15 31 -15q18 0 66 38l58 -62q-39 -40 -66.5 -55.5t-57.5 -15.5q-52 0 -98 37q-2 2 -5.5 4.5t-5 4t-4 3.5t-4 2.5t-3 2t-3 2l-3 1t-2.5 0.5h-3h-4q-11 -2 -61 -31zM202 506h52q78 0 130 -60t52 -137v-127
q0 -79 -51.5 -134t-130.5 -55h-52q-79 0 -130.5 55t-51.5 134v127q0 77 51.5 137t130.5 60zM313 182v127q0 34 -18 58t-41 24h-52q-23 0 -41 -24t-18 -58v-127q0 -33 17 -53.5t42 -20.5h52q25 0 42 20.5t17 53.5z" />
    <glyph glyph-name="odieresis" unicode="&#xf6;" horiz-adv-x="455" 
d="M108 757h105v-142h-105v142zM243 757h105v-142h-105v142zM202 506h52q78 0 130 -60t52 -137v-127q0 -79 -51.5 -134t-130.5 -55h-52q-79 0 -130.5 55t-51.5 134v127q0 77 51.5 137t130.5 60zM313 182v127q0 34 -18 58t-41 24h-52q-23 0 -41 -24t-18 -58v-127
q0 -33 17 -53.5t42 -20.5h52q25 0 42 20.5t17 53.5z" />
    <glyph glyph-name="divide" unicode="&#xf7;" horiz-adv-x="455" 
d="M162 598h131v-163h-131v163zM30 417h395v-122h-395v122zM162 277h131v-163h-131v163z" />
    <glyph glyph-name="oslash" unicode="&#xf8;" horiz-adv-x="455" 
d="M312 550h102l-41 -92q30 -28 46.5 -67.5t16.5 -81.5v-127q0 -79 -51.5 -134t-130.5 -55h-52q-19 0 -36 3l-21 -46h-103l40 88q-62 55 -62 144v127q0 77 51.5 137t130.5 60h52q19 0 36 -4zM144 174l97 218q-4 0 -11 -0.5t-13 -0.5h-15q-27 0 -43 -24t-16 -58v-69
q0 -14 0.5 -34t0.5 -32zM313 182v74v9q0 36 -1 58l-94 -214q6 -1 16 -1h4h5h11q29 0 44 20.5t15 53.5z" />
    <glyph glyph-name="ugrave" unicode="&#xf9;" horiz-adv-x="472" 
d="M104 682l33 91l233 -106l-35 -89zM314 500h123v-500h-92l-4 24q-9 -11 -29.5 -20.5t-47.5 -9.5h-55q-72 0 -123 51t-51 129v326h123v-326q0 -30 15 -47.5t36 -17.5h55q19 0 34.5 16t15.5 39v336z" />
    <glyph glyph-name="uacute" unicode="&#xfa;" horiz-adv-x="472" 
d="M103 668l233 106l33 -91l-231 -104zM314 500h123v-500h-92l-4 24q-9 -11 -29.5 -20.5t-47.5 -9.5h-55q-72 0 -123 51t-51 129v326h123v-326q0 -30 15 -47.5t36 -17.5h55q19 0 34.5 16t15.5 39v336z" />
    <glyph glyph-name="ucircumflex" unicode="&#xfb;" horiz-adv-x="472" 
d="M205 757h63l157 -190h-135l-53 99l-54 -99h-134zM314 500h123v-500h-92l-4 24q-9 -11 -29.5 -20.5t-47.5 -9.5h-55q-72 0 -123 51t-51 129v326h123v-326q0 -30 15 -47.5t36 -17.5h55q19 0 34.5 16t15.5 39v336z" />
    <glyph glyph-name="udieresis" unicode="&#xfc;" horiz-adv-x="472" 
d="M117 757h105v-142h-105v142zM252 757h105v-142h-105v142zM314 500h123v-500h-92l-4 24q-9 -11 -29.5 -20.5t-47.5 -9.5h-55q-72 0 -123 51t-51 129v326h123v-326q0 -30 15 -47.5t36 -17.5h55q19 0 34.5 16t15.5 39v336z" />
    <glyph glyph-name="yacute" unicode="&#xfd;" horiz-adv-x="485" 
d="M110 668l233 106l32 -91l-231 -104zM345 500h130l-247 -680h-130l80 221l-168 459h129l104 -282z" />
    <glyph glyph-name="thorn" unicode="&#xfe;" horiz-adv-x="465" 
d="M155 -190h-123v890h123v-193h102q39 0 70 -14t50.5 -35t32.5 -48.5t18 -52t5 -47.5v-132q0 -81 -50.5 -129.5t-123.5 -48.5h-104v-190zM155 392v-279h104q20 0 35.5 18t15.5 47v130q0 40 -15.5 62t-37.5 22h-102z" />
    <glyph glyph-name="ydieresis" unicode="&#xff;" horiz-adv-x="485" 
d="M123 757h105v-142h-105v142zM258 757h105v-142h-105v142zM345 500h130l-247 -680h-130l80 221l-168 459h129l104 -282z" />
    <glyph glyph-name="Amacron" unicode="&#x100;" 
d="M147 918h332v-95h-332v95zM258 700h108l250 -700h-138l-57 161h-218l-56 -161h-137zM376 283l-64 179h-2l-64 -179h130z" />
    <glyph glyph-name="amacron" unicode="&#x101;" horiz-adv-x="445" 
d="M57 718h332v-95h-332v95zM52 500h202q69 0 112.5 -46t43.5 -114v-340h-91l-5 29q-8 -10 -26.5 -19.5t-39.5 -9.5h-71q-68 0 -115 46t-47 112t47 112.5t115 46.5h110v23q0 22 -9 33.5t-24 11.5h-202v115zM287 153v49h-110q-16 0 -27.5 -13t-11.5 -31t11.5 -30.5
t27.5 -12.5h71q14 0 26.5 12t12.5 26z" />
    <glyph glyph-name="Abreve" unicode="&#x102;" 
d="M367 957h101q4 -14 4 -29q0 -50 -37 -86.5t-90 -36.5h-64q-53 0 -90 34.5t-37 84.5q0 16 4 33h101q0 -25 5.5 -38.5t12 -16t16.5 -2.5h43q31 0 31 57zM258 700h108l250 -700h-138l-57 161h-218l-56 -161h-137zM376 283l-64 179h-2l-64 -179h130z" />
    <glyph glyph-name="abreve" unicode="&#x103;" horiz-adv-x="445" 
d="M277 757h101q4 -14 4 -28q0 -51 -37 -87.5t-90 -36.5h-64q-53 0 -90 34.5t-37 84.5q0 17 4 33h101q0 -24 5.5 -37.5t12 -16.5t16.5 -3h43q31 0 31 57zM52 500h202q69 0 112.5 -46t43.5 -114v-340h-91l-5 29q-8 -10 -26.5 -19.5t-39.5 -9.5h-71q-68 0 -115 46t-47 112
t47 112.5t115 46.5h110v23q0 22 -9 33.5t-24 11.5h-202v115zM287 153v49h-110q-16 0 -27.5 -13t-11.5 -31t11.5 -30.5t27.5 -12.5h71q14 0 26.5 12t12.5 26z" />
    <glyph glyph-name="Aogonek" unicode="&#x104;" 
d="M258 700h108l250 -700h-158h-1h-1q-20 0 -20 -17q0 -25 26 -25h2h2h122v-95h-128q-106 0 -106 120q0 104 90 112l-23 66h-218l-56 -161h-137zM376 283l-64 176h-2l-64 -176h130z" />
    <glyph glyph-name="aogonek" unicode="&#x105;" horiz-adv-x="445" 
d="M52 500h202q69 0 112.5 -46t43.5 -114v-429h-52h-0.5h-1.5q-20 0 -20 -17q0 -11 8 -17t13.5 -7t9.5 -1h-1h122v-95h-128q-106 0 -106 120q0 87 65 107l-5 28q-8 -10 -26.5 -19.5t-39.5 -9.5h-71q-68 0 -115 46t-47 112t47 112.5t115 46.5h110v23q0 22 -9 33.5t-24 11.5
h-202v115zM287 153v49h-110q-16 0 -27.5 -13t-11.5 -31t11.5 -30.5t27.5 -12.5h71q14 0 26.5 12t12.5 26z" />
    <glyph glyph-name="Cacute" unicode="&#x106;" 
d="M183 868l233 106l33 -91l-231 -104zM302 707h41q226 0 247 -247h-129q-6 70 -31.5 97t-86.5 27h-41q-64 0 -92.5 -29t-28.5 -102v-212q0 -61 31 -93.5t90 -32.5h41q57 0 83 33.5t31 102.5h131q-10 -119 -70 -189t-175 -70h-41q-118 0 -185 69.5t-67 179.5v212
q0 129 67.5 191.5t184.5 62.5z" />
    <glyph glyph-name="cacute" unicode="&#x107;" horiz-adv-x="400" 
d="M68 668l233 106l32 -91l-231 -104zM227 507h158v-115h-158q-46 0 -65 -21.5t-19 -73.5v-86q0 -57 19 -79t65 -22h158v-115h-158q-100 0 -153.5 55.5t-53.5 160.5v86q0 100 53.5 155t153.5 55z" />
    <glyph glyph-name="Cdotaccent" unicode="&#x10a;" 
d="M264 956h105v-142h-105v142zM302 707h41q226 0 247 -247h-129q-6 70 -31.5 97t-86.5 27h-41q-64 0 -92.5 -29t-28.5 -102v-212q0 -61 31 -93.5t90 -32.5h41q57 0 83 33.5t31 102.5h131q-10 -119 -70 -189t-175 -70h-41q-118 0 -185 69.5t-67 179.5v212q0 129 67.5 191.5
t184.5 62.5z" />
    <glyph glyph-name="cdotaccent" unicode="&#x10b;" horiz-adv-x="400" 
d="M148 756h105v-142h-105v142zM227 507h158v-115h-158q-46 0 -65 -21.5t-19 -73.5v-86q0 -57 19 -79t65 -22h158v-115h-158q-100 0 -153.5 55.5t-53.5 160.5v86q0 100 53.5 155t153.5 55z" />
    <glyph glyph-name="Ccaron" unicode="&#x10c;" 
d="M370 957h135l-157 -190h-63l-157 190h135l53 -100zM302 707h41q226 0 247 -247h-129q-6 70 -31.5 97t-86.5 27h-41q-64 0 -92.5 -29t-28.5 -102v-212q0 -61 31 -93.5t90 -32.5h41q57 0 83 33.5t31 102.5h131q-10 -119 -70 -189t-175 -70h-41q-118 0 -185 69.5t-67 179.5
v212q0 129 67.5 191.5t184.5 62.5z" />
    <glyph glyph-name="ccaron" unicode="&#x10d;" horiz-adv-x="400" 
d="M255 757h134l-157 -190h-62l-157 190h134l54 -100zM227 507h158v-115h-158q-46 0 -65 -21.5t-19 -73.5v-86q0 -57 19 -79t65 -22h158v-115h-158q-100 0 -153.5 55.5t-53.5 160.5v86q0 100 53.5 155t153.5 55z" />
    <glyph glyph-name="Dcaron" unicode="&#x10e;" horiz-adv-x="626" 
d="M365 957h134l-156 -190h-63l-157 190h134l54 -100zM70 700h255q117 0 184.5 -62.5t67.5 -191.5v-197q0 -111 -67.5 -180t-184.5 -69h-255v700zM446 249v197q0 74 -28.5 103t-92.5 29h-124v-456h124q59 0 90 33t31 94z" />
    <glyph glyph-name="dcaron" unicode="&#x10f;" horiz-adv-x="606" 
d="M298 700h123v-700h-91l-6 29q-8 -10 -27.5 -19.5t-39.5 -9.5h-62q-77 0 -126 56t-49 142v127q0 79 51 130t123 51h32q48 0 72 -30v224zM466 700h130v-124q0 -47 -37 -78t-84 -31h-12l-21 50q16 16 20 27.5t4 31.5v124zM298 155v175q0 25 -16 42.5t-35 17.5h-53
q-21 0 -36 -17.5t-15 -47.5v-127q0 -39 15 -61t37 -22h62q15 0 27.5 11.5t13.5 28.5z" />
    <glyph glyph-name="Dcroat" unicode="&#x110;" horiz-adv-x="669" 
d="M10 282v122h103v296h255q117 0 184.5 -62.5t67.5 -191.5v-197q0 -111 -67.5 -180t-184.5 -69h-255v282h-103zM244 282v-160h123q60 0 91 33t31 94v197q0 74 -28.5 103t-92.5 29h-124v-174h123v-122h-123z" />
    <glyph glyph-name="dcroat" unicode="&#x111;" horiz-adv-x="521" 
d="M298 700h123v-51h90v-95h-90v-554h-91l-6 29q-8 -10 -27.5 -19.5t-39.5 -9.5h-62q-77 0 -126 56t-49 142v127q0 79 51 130t123 51h32q48 0 72 -30v78h-107v95h107v51zM298 155v175q0 25 -16 42.5t-35 17.5h-53q-21 0 -36 -17.5t-15 -47.5v-127q0 -39 15 -61t37 -22h62
q15 0 27.5 11.5t13.5 28.5z" />
    <glyph glyph-name="Emacron" unicode="&#x112;" horiz-adv-x="560" 
d="M109 918h332v-95h-332v95zM70 700h455v-122h-324v-155h273v-122h-273v-179h324v-122h-455v700z" />
    <glyph glyph-name="emacron" unicode="&#x113;" horiz-adv-x="438" 
d="M54 718h332v-95h-332v95zM20 240v67q0 93 57 147t143 54q97 0 150.5 -53t53.5 -148v-110h-281v-1q1 -80 74 -80h195v-115h-195q-109 0 -153 61.5t-44 177.5zM301 307v6q-1 43 -20 61.5t-61 18.5q-35 0 -55.5 -20.5t-21.5 -59.5v-6h158z" />
    <glyph glyph-name="Edotaccent" unicode="&#x116;" horiz-adv-x="560" 
d="M222 956h105v-142h-105v142zM70 700h455v-122h-324v-155h273v-122h-273v-179h324v-122h-455v700z" />
    <glyph glyph-name="edotaccent" unicode="&#x117;" horiz-adv-x="438" 
d="M168 756h104v-142h-104v142zM20 240v67q0 93 57 147t143 54q97 0 150.5 -53t53.5 -148v-110h-281v-1q1 -80 74 -80h195v-115h-195q-109 0 -153 61.5t-44 177.5zM301 307v6q-1 43 -20 61.5t-61 18.5q-35 0 -55.5 -20.5t-21.5 -59.5v-6h158z" />
    <glyph glyph-name="Eogonek" unicode="&#x118;" horiz-adv-x="560" 
d="M70 700h455v-122h-324v-155h273v-122h-273v-179h324v-122h-143h-0.5h-1.5q-20 0 -20 -17q0 -25 28 -25h2h122v-95h-128q-106 0 -106 120q0 6 1 17h-209v700z" />
    <glyph glyph-name="eogonek" unicode="&#x119;" horiz-adv-x="438" 
d="M20 240v67q0 93 57 147t143 54q97 0 150.5 -53t53.5 -148v-110h-281v-7q3 -74 74 -74h195v-115h-155q-9 -4 -9 -16q0 -25 26 -25h2h2h122v-95h-128q-106 0 -106 120q0 11 1 20l-4 1q-78 14 -110.5 73.5t-32.5 160.5zM301 307v10q-2 41 -21 58.5t-60 17.5
q-34 0 -54.5 -19.5t-22.5 -57.5v-9h158z" />
    <glyph glyph-name="Ecaron" unicode="&#x11a;" horiz-adv-x="560" 
d="M329 957h134l-157 -190h-63l-156 190h134l54 -100zM70 700h455v-122h-324v-155h273v-122h-273v-179h324v-122h-455v700z" />
    <glyph glyph-name="ecaron" unicode="&#x11b;" horiz-adv-x="438" 
d="M274 757h134l-157 -190h-62l-157 190h134l54 -100zM20 240v67q0 93 57 147t143 54q97 0 150.5 -53t53.5 -148v-110h-281v-1q1 -80 74 -80h195v-115h-195q-109 0 -153 61.5t-44 177.5zM301 307v6q-1 43 -20 61.5t-61 18.5q-35 0 -55.5 -20.5t-21.5 -59.5v-6h158z" />
    <glyph glyph-name="Gbreve" unicode="&#x11e;" horiz-adv-x="659" 
d="M377 957h101q4 -14 4 -29q0 -50 -37 -86.5t-90 -36.5h-64q-53 0 -90 34.5t-37 84.5q0 16 4 33h101q0 -25 5.5 -38.5t12 -16t16.5 -2.5h43q31 0 31 57zM302 706h41q226 0 247 -245h-130q-5 69 -31 95.5t-86 26.5h-41q-64 0 -92.5 -29t-28.5 -102v-211q0 -61 31 -93.5
t90 -32.5h41q63 0 92 28t29 99v29h-132v123h263v-152q0 -126 -69 -188t-183 -62h-41q-118 0 -185 69.5t-67 179.5v211q0 129 67.5 191.5t184.5 62.5z" />
    <glyph glyph-name="gbreve" unicode="&#x11f;" horiz-adv-x="475" 
d="M291 757h101q4 -14 4 -28q0 -51 -37 -87.5t-90 -36.5h-64q-53 0 -90 34.5t-37 84.5q0 17 4 33h101q0 -24 5.5 -37.5t12 -16.5t16.5 -3h43q31 0 31 57zM339 500h92v-464q0 -102 -45.5 -159t-151.5 -57h-178v116h178q47 0 60 13.5t13 69.5v10q-23 -28 -71 -30h-32
q-72 -2 -123 50t-51 130v122q0 86 49 142.5t126 56.5h61q21 0 40.5 -9.5t27.5 -19.5zM307 175v170q-1 17 -13 28.5t-27 11.5h-62q-22 0 -37 -22t-15 -61v-122q0 -29 15 -47t36 -18h53q19 0 34.5 17.5t15.5 42.5z" />
    <glyph glyph-name="Gdotaccent" unicode="&#x120;" horiz-adv-x="659" 
d="M270 956h105v-142h-105v142zM302 706h41q226 0 247 -245h-130q-5 69 -31 95.5t-86 26.5h-41q-64 0 -92.5 -29t-28.5 -102v-211q0 -61 31 -93.5t90 -32.5h41q63 0 92 28t29 99v29h-132v123h263v-152q0 -126 -69 -188t-183 -62h-41q-118 0 -185 69.5t-67 179.5v211
q0 129 67.5 191.5t184.5 62.5z" />
    <glyph glyph-name="gdotaccent" unicode="&#x121;" horiz-adv-x="475" 
d="M184 756h105v-142h-105v142zM339 500h92v-464q0 -102 -45.5 -159t-151.5 -57h-178v116h178q47 0 60 14t13 69v10q-23 -28 -71 -30h-32q-72 -2 -123 50t-51 130v122q0 86 49 142.5t126 56.5h61q21 0 40.5 -9.5t27.5 -19.5zM307 175v170q-1 17 -13 28.5t-27 11.5h-62
q-22 0 -37 -22t-15 -61v-122q0 -29 15 -47t36 -18h53q19 0 34.5 17.5t15.5 42.5z" />
    <glyph glyph-name="Gcommaaccent" unicode="&#x122;" horiz-adv-x="659" 
d="M302 706h41q226 0 247 -245h-130q-5 69 -31 95.5t-86 26.5h-41q-64 0 -92.5 -29t-28.5 -102v-211q0 -61 31 -93.5t90 -32.5h41q63 0 92 28t29 99v29h-132v123h263v-152q0 -126 -69 -188t-183 -62h-41q-118 0 -185 69.5t-67 179.5v211q0 129 67.5 191.5t184.5 62.5z
M281 -34h102v-82q0 -36 -29 -60t-66 -24h-9l-17 39q13 11 16 20.5t3 24.5v82z" />
    <glyph glyph-name="gcommaaccent" unicode="&#x123;" horiz-adv-x="475" 
d="M170 589v83q0 36 29 60t66 24h9l16 -39q-8 -8 -12.5 -16t-5 -13.5t-0.5 -15.5v-83h-102zM339 500h92v-464q0 -102 -45.5 -159t-151.5 -57h-178v116h178q47 0 60 13.5t13 69.5v10q-23 -28 -71 -30h-32q-72 -2 -123 50t-51 130v122q0 86 49 142.5t126 56.5h61
q21 0 40.5 -9.5t27.5 -19.5zM307 175v170q-1 17 -13 28.5t-27 11.5h-62q-22 0 -37 -22t-15 -61v-122q0 -29 15 -47t36 -18h53q19 0 34.5 17.5t15.5 42.5z" />
    <glyph glyph-name="Hbar" unicode="&#x126;" horiz-adv-x="691" 
d="M476 700h130v-86h76v-122h-76v-492h-130v289h-265v-289h-131v492h-70v122h70v86h131v-86h265v86zM476 412v80h-265v-80h265z" />
    <glyph glyph-name="hbar" unicode="&#x127;" horiz-adv-x="480" 
d="M45 700h123v-38h104v-109h-104v-77q23 28 71 29h33q72 0 123 -51t51 -129v-325h-123v325q0 29 -15 47t-36 18h-53q-19 0 -35 -17.5t-16 -43.5v-329h-123v553h-89v109h89v38z" />
    <glyph glyph-name="Itilde" unicode="&#x128;" horiz-adv-x="270" 
d="M9 829l-44 71l18 16t40 27.5t47 11.5q53 0 104 -42q19 -15 31 -15q18 0 66 38l58 -62q-39 -40 -66.5 -55.5t-57.5 -15.5q-52 0 -98 37q-2 2 -5.5 4.5t-5 4t-4 3.5t-4 2.5t-3 2t-3 2l-3 1t-2.5 0.5h-3h-4q-12 -2 -61 -31zM70 700h131v-700h-131v700z" />
    <glyph glyph-name="itilde" unicode="&#x129;" horiz-adv-x="208" 
d="M-22 629l-45 71q2 1 19 16.5t40 27t47 11.5q53 0 104 -42q19 -15 31 -15q18 0 66 38l58 -62q-39 -40 -66.5 -55.5t-57.5 -15.5q-52 0 -98 37q-2 2 -5.5 4.5t-5 4t-4 3.5t-4 2.5t-3.5 2t-3 2t-2.5 1t-3 0.5h-2.5h-4q-12 -2 -61 -31zM45 500h123v-500h-123v500z" />
    <glyph glyph-name="Imacron" unicode="&#x12a;" horiz-adv-x="270" 
d="M-30 918h332v-95h-332v95zM70 700h131v-700h-131v700z" />
    <glyph glyph-name="imacron" unicode="&#x12b;" horiz-adv-x="208" 
d="M-61 718h332v-95h-332v95zM45 500h123v-500h-123v500z" />
    <glyph glyph-name="Iogonek" unicode="&#x12e;" horiz-adv-x="270" 
d="M70 700h131v-700h-126q-15 -2 -15 -17q0 -11 7.5 -17t13.5 -7t10 -1h-1h122v-95h-128q-106 0 -106 120q0 105 92 112v605z" />
    <glyph glyph-name="iogonek" unicode="&#x12f;" horiz-adv-x="208" 
d="M52 756h105v-142h-105v142zM45 500h123v-573h-52h-0.5h-1.5q-20 0 -20 -17q0 -11 8 -17t13.5 -7t9.5 -1h-1h122v-95h-128q-106 0 -106 120q0 61 33 90v500z" />
    <glyph glyph-name="Idotaccent" unicode="&#x130;" horiz-adv-x="270" 
d="M83 956h105v-142h-105v142zM70 700h131v-700h-131v700z" />
    <glyph glyph-name="dotlessi" unicode="&#x131;" horiz-adv-x="208" 
d="M45 500h123v-500h-123v500z" />
    <glyph glyph-name="IJ" unicode="&#x132;" horiz-adv-x="601" 
d="M70 700h131v-700h-131v700zM400 700h131v-507q0 -40 -5.5 -70.5t-14 -51.5t-22.5 -36t-28 -23t-35 -13t-38 -6t-41 -1h-67v122h67q37 0 45 7t8 40v32v507z" />
    <glyph glyph-name="ij" unicode="&#x133;" horiz-adv-x="413" 
d="M250 659h123v-132h-123v132zM45 659h123v-132h-123v132zM250 500h123v-414q0 -85 -46 -154l-83 -116l-101 65l83 117q14 21 19 39.5t5 48.5v414zM45 500h123v-500h-123v500z" />
    <glyph glyph-name="Kcommaaccent" unicode="&#x136;" horiz-adv-x="613" 
d="M429 700h160l-265 -352l279 -348h-163l-229 286h-10v-286h-131v700h131v-292h8zM295 -34h102v-82q0 -36 -29 -60t-66 -24h-9l-17 39q13 11 16 20.5t3 24.5v82z" />
    <glyph glyph-name="kcommaaccent" unicode="&#x137;" horiz-adv-x="498" 
d="M45 700h123v-373h12l137 173h157l-187 -231l202 -269h-151l-160 213h-10v-213h-123v700zM225 -34h102v-82q0 -36 -29 -60t-65 -24h-10l-16 39q12 11 15 20.5t3 24.5v82z" />
    <glyph glyph-name="Lacute" unicode="&#x139;" horiz-adv-x="506" 
d="M121 868l233 106l32 -91l-231 -104zM70 700h131v-578h296v-122h-427v700z" />
    <glyph glyph-name="lacute" unicode="&#x13a;" horiz-adv-x="208" 
d="M-29 868l233 106l33 -91l-231 -104zM45 700h123v-700h-123v700z" />
    <glyph glyph-name="Lcommaaccent" unicode="&#x13b;" horiz-adv-x="506" 
d="M70 700h131v-578h296v-122h-427v700zM242 -34h102v-82q0 -36 -29 -60t-66 -24h-9l-17 39q13 11 16 20.5t3 24.5v82z" />
    <glyph glyph-name="lcommaaccent" unicode="&#x13c;" horiz-adv-x="208" 
d="M45 700h123v-700h-123v700zM63 -34h102v-82q0 -36 -29 -60t-66 -24h-9l-17 39q13 11 16 20.5t3 24.5v82z" />
    <glyph glyph-name="Lcaron" unicode="&#x13d;" horiz-adv-x="506" 
d="M70 700h131v-578h296v-122h-427v700zM317 699h130v-125q0 -46 -37 -77t-85 -31h-11l-21 50q16 15 20 27t4 31v125z" />
    <glyph glyph-name="lcaron" unicode="&#x13e;" horiz-adv-x="358" 
d="M45 700h123v-700h-123v700zM218 700h131v-124q0 -47 -37.5 -78t-84.5 -31q-6 0 -11 1l-22 50q16 15 20 26.5t4 31.5v124z" />
    <glyph glyph-name="Ldot" unicode="&#x13f;" horiz-adv-x="506" 
d="M70 700h131v-578h296v-122h-427v700zM296 443h130v-177h-130v177z" />
    <glyph glyph-name="ldot" unicode="&#x140;" horiz-adv-x="346" 
d="M45 700h123v-700h-123v700zM206 402h131v-178h-131v178z" />
    <glyph glyph-name="Lslash" unicode="&#x141;" horiz-adv-x="567" 
d="M100 110l-90 90l121 123v377h130v-247l64 64l90 -89l-154 -154v-152h296v-122h-426v143z" />
    <glyph glyph-name="lslash" unicode="&#x142;" horiz-adv-x="418" 
d="M268 0h-130v155l-38 -36l-90 90l128 127v364h130v-233l51 50l90 -89l-141 -141v-287z" />
    <glyph glyph-name="Nacute" unicode="&#x143;" horiz-adv-x="663" 
d="M199 868l233 106l33 -91l-232 -104zM468 700h131v-700h-106l-297 441v-441h-131v700h111l292 -434v434z" />
    <glyph glyph-name="nacute" unicode="&#x144;" horiz-adv-x="477" 
d="M105 676l232 107l33 -92l-231 -104zM214 506h55q72 0 122.5 -51t50.5 -129v-325h-123v325q0 30 -15 47.5t-35 17.5h-55q-20 0 -35.5 -16t-15.5 -39v-335h-123v499h92l4 -24q9 11 30 20.5t48 9.5z" />
    <glyph glyph-name="Ncommaaccent" unicode="&#x145;" horiz-adv-x="663" 
d="M468 700h131v-700h-106l-297 441v-441h-131v700h111l292 -434v434zM290 -34h102v-82q0 -36 -28.5 -60t-65.5 -24h-10l-16 39q12 11 15 20.5t3 24.5v82z" />
    <glyph glyph-name="ncommaaccent" unicode="&#x146;" horiz-adv-x="477" 
d="M214 506h55q72 0 122.5 -51t50.5 -129v-325h-123v325q0 30 -15 47.5t-35 17.5h-55q-20 0 -35.5 -16t-15.5 -39v-335h-123v499h92l4 -24q9 11 30 20.5t48 9.5zM196 -34h102v-82q0 -36 -29 -60t-66 -24h-9l-17 39q13 11 16 20.5t3 24.5v82z" />
    <glyph glyph-name="Ncaron" unicode="&#x147;" horiz-adv-x="663" 
d="M386 957h134l-156 -190h-63l-157 190h135l53 -100zM468 700h131v-700h-106l-297 441v-441h-131v700h111l292 -434v434z" />
    <glyph glyph-name="ncaron" unicode="&#x148;" horiz-adv-x="477" 
d="M291 765h135l-157 -190h-63l-156 190h134l54 -100zM214 506h55q72 0 122.5 -51t50.5 -129v-325h-123v325q0 30 -15 47.5t-35 17.5h-55q-20 0 -35.5 -16t-15.5 -39v-335h-123v499h92l4 -24q9 11 30 20.5t48 9.5z" />
    <glyph glyph-name="Eng" unicode="&#x14a;" horiz-adv-x="693" 
d="M483 700h130v-644q0 -43 -5 -77t-13.5 -57t-23 -39.5t-29 -25.5t-35 -13.5t-37.5 -6t-41 -1.5h-67v122h67q33 0 42.5 3.5t10.5 19.5v57l-272 403v-441h-130v700h111l292 -434v434z" />
    <glyph glyph-name="eng" unicode="&#x14b;" horiz-adv-x="477" 
d="M214 506h55q72 0 122.5 -51t51.5 -129v-240q0 -85 -47 -154l-83 -116l-100 65l82 117q15 21 20 40t4 48v240q0 30 -15 47.5t-35 17.5h-55q-20 0 -35.5 -16t-15.5 -39v-335h-123v499h92l4 -24q9 11 30 20.5t48 9.5z" />
    <glyph glyph-name="Omacron" unicode="&#x14c;" horiz-adv-x="644" 
d="M156 918h332v-95h-332v95zM302 706h41q117 0 184.5 -62.5t67.5 -191.5v-210q0 -110 -67.5 -179.5t-184.5 -69.5h-41q-118 0 -185 69.5t-67 179.5v210q0 129 67.5 191.5t184.5 62.5zM464 242v210q0 73 -28.5 102t-92.5 29h-41q-64 0 -92.5 -29t-28.5 -102v-210
q0 -61 31 -93.5t90 -32.5h41q59 0 90 32.5t31 93.5z" />
    <glyph glyph-name="omacron" unicode="&#x14d;" horiz-adv-x="455" 
d="M62 718h332v-95h-332v95zM202 506h52q78 0 130 -60t52 -137v-127q0 -79 -51.5 -134t-130.5 -55h-52q-79 0 -130.5 55t-51.5 134v127q0 77 51.5 137t130.5 60zM313 182v127q0 34 -18 58t-41 24h-52q-23 0 -41 -24t-18 -58v-127q0 -33 17 -53.5t42 -20.5h52q25 0 42 20.5
t17 53.5z" />
    <glyph glyph-name="Ohungarumlaut" unicode="&#x150;" horiz-adv-x="644" 
d="M121 868l233 107l32 -92l-231 -104zM396 868l233 107l32 -92l-231 -104zM302 706h41q117 0 184.5 -62.5t67.5 -191.5v-210q0 -110 -67.5 -179.5t-184.5 -69.5h-41q-118 0 -185 69.5t-67 179.5v210q0 129 67.5 191.5t184.5 62.5zM464 242v210q0 73 -28.5 102.5t-92.5 29.5
h-41q-64 0 -92.5 -29.5t-28.5 -102.5v-210q0 -61 31 -93.5t90 -32.5h41q59 0 90 32.5t31 93.5z" />
    <glyph glyph-name="ohungarumlaut" unicode="&#x151;" horiz-adv-x="455" 
d="M26 668l233 107l33 -92l-231 -104zM301 668l233 107l33 -92l-231 -104zM202 506h52q78 0 130 -60t52 -137v-127q0 -79 -51.5 -134t-130.5 -55h-52q-80 0 -131 55t-51 134v127q0 77 51.5 137t130.5 60zM313 182v127q0 34 -18 58t-41 24h-52q-23 0 -41 -24t-18 -58v-127
q0 -33 17 -53.5t42 -20.5h52q25 0 42 20.5t17 53.5z" />
    <glyph glyph-name="OE" unicode="&#x152;" horiz-adv-x="964" 
d="M302 706h41q76 0 131 -26v20h455v-122h-324v-155h273v-122h-273v-179h324v-122h-455v23q-57 -30 -131 -30h-41q-118 0 -185 69.5t-67 179.5v210q0 129 67.5 191.5t184.5 62.5zM464 242v210q0 73 -28.5 102t-92.5 29h-41q-64 0 -92.5 -29t-28.5 -102v-210q0 -61 31 -93.5
t90 -32.5h41q59 0 90 32.5t31 93.5z" />
    <glyph glyph-name="oe" unicode="&#x153;" horiz-adv-x="731" 
d="M202 506h52q69 0 120 -49q55 51 139 51q97 0 150.5 -53t53.5 -148v-110h-281v-7q3 -74 74 -74h195v-115h-195q-85 0 -132 40q-51 -48 -124 -48h-52q-79 0 -130.5 55t-51.5 134v127q0 77 51.5 137t130.5 60zM594 307v10q-2 41 -21 58.5t-60 17.5q-34 0 -54 -19.5
t-23 -57.5v-9h158zM313 182v127q0 34 -18 58t-41 24h-52q-23 0 -41 -24t-18 -58v-127q0 -33 17 -53.5t42 -20.5h52q25 0 42 20.5t17 53.5z" />
    <glyph glyph-name="Racute" unicode="&#x154;" horiz-adv-x="619" 
d="M159 868l233 106l33 -91l-231 -104zM70 700h282q85 0 145 -58.5t60 -142.5q0 -64 -38.5 -116.5t-99.5 -72.5l-2 -1l168 -309h-147l-162 299h-75v-299h-131v700zM201 421h151q30 0 52.5 23t22.5 55q0 33 -22.5 56t-52.5 23h-151v-157z" />
    <glyph glyph-name="racute" unicode="&#x155;" horiz-adv-x="346" 
d="M33 668l233 106l33 -91l-231 -104zM247 508h89v-115h-89q-84 0 -84 -84v-308h-123v499h92l6 -36q36 44 109 44z" />
    <glyph glyph-name="Rcommaaccent" unicode="&#x156;" horiz-adv-x="619" 
d="M70 700h282q85 0 145 -58.5t60 -142.5q0 -64 -38.5 -116.5t-99.5 -72.5l-2 -1l168 -309h-147l-162 299h-75v-299h-131v700zM201 421h151q30 0 52.5 23t22.5 55q0 33 -22.5 56t-52.5 23h-151v-157zM272 -34h102v-82q0 -36 -29 -60t-66 -24h-9l-17 39q13 11 16 20.5t3 24.5
v82z" />
    <glyph glyph-name="rcommaaccent" unicode="&#x157;" horiz-adv-x="346" 
d="M247 508h89v-115h-89q-84 0 -84 -84v-308h-123v499h92l6 -36q36 44 109 44zM146 -34h102v-82q0 -36 -28.5 -60t-65.5 -24h-9l-17 39q12 11 15 20.5t3 24.5v82z" />
    <glyph glyph-name="Rcaron" unicode="&#x158;" horiz-adv-x="619" 
d="M346 957h135l-157 -190h-63l-157 190h135l54 -100zM70 700h282q85 0 145 -58.5t60 -142.5q0 -64 -38.5 -116.5t-99.5 -72.5l-2 -1l168 -309h-147l-161 299h-76v-299h-131v700zM201 421h151q30 0 52.5 23t22.5 55q0 33 -22.5 56t-52.5 23h-151v-157z" />
    <glyph glyph-name="rcaron" unicode="&#x159;" horiz-adv-x="346" 
d="M220 757h135l-157 -190h-63l-157 190h135l53 -100zM247 508h89v-115h-89q-84 0 -84 -84v-308h-123v499h92l6 -36q36 44 109 44z" />
    <glyph glyph-name="Sacute" unicode="&#x15a;" horiz-adv-x="540" 
d="M140 868l233 106l32 -91l-231 -104zM273 700h217v-122h-217q-62 0 -84.5 -15.5t-22.5 -57.5q0 -18 5 -30.5t11 -20t25 -14t33.5 -10t48.5 -10.5q40 -8 68 -16t58 -23t48.5 -35t30.5 -51t12 -72q0 -113 -60.5 -168.5t-171.5 -55.5h-239v122h239q57 0 79 22t22 80
q0 36 -20.5 49.5t-90.5 27.5l-44 9.5t-43.5 11.5t-44 17t-37.5 25t-32.5 35t-19.5 46.5t-8 60.5q0 52 18 90.5t51.5 61t75 33t93.5 10.5z" />
    <glyph glyph-name="sacute" unicode="&#x15b;" horiz-adv-x="432" 
d="M84 668l233 106l32 -91l-231 -104zM205 506h194v-115h-194q-33 0 -47.5 -9t-14.5 -29q0 -16 14.5 -24.5t50.5 -11.5l20 -2.5t16 -1.5q79 -9 124 -49t45 -106q0 -84 -55.5 -124t-143.5 -40h-181v115h181q45 0 60.5 11t15.5 38q0 19 -12 27.5t-47 12.5l-36 4q-36 4 -66 14
t-55.5 27t-39.5 45t-14 65q0 40 16 70.5t43 48t59 26t67 8.5z" />
    <glyph glyph-name="Scedilla" unicode="&#x15e;" horiz-adv-x="540" 
d="M273 700h217v-122h-217q-62 0 -84.5 -15.5t-22.5 -57.5q0 -18 4.5 -30.5t11 -20t25.5 -14t33.5 -10t48.5 -10.5q40 -8 68 -16t58 -23t48.5 -35t30 -51t11.5 -72q0 -104 -51.5 -159.5t-147.5 -63.5h-2v-17q55 -16 55 -85q0 -96 -98 -96h-80v80h80q18 0 18 16q0 14 -18 14
h-42v87h-184v122h239q57 0 79 22t22 80q0 36 -20.5 49.5t-90.5 27.5l-44 9.5t-43.5 11.5t-44 17t-37.5 25t-32.5 35t-19.5 46.5t-8 60.5q0 52 18 90.5t51.5 61t75 33t93.5 10.5z" />
    <glyph glyph-name="scedilla" unicode="&#x15f;" horiz-adv-x="432" 
d="M205 506h194v-115h-194q-33 0 -47.5 -9t-14.5 -29q0 -16 14.5 -24.5t50.5 -11.5l20 -2.5t16 -1.5q79 -9 124 -49t45 -106q0 -74 -43.5 -113.5t-115.5 -48.5h-3v-15q55 -16 55 -85q0 -96 -98 -96h-80v80h80q18 0 18 16q0 14 -18 14h-42v84h-133v115h181q45 0 60.5 11
t15.5 38q0 19 -12 27.5t-47 12.5l-36 4q-36 4 -66 14t-55.5 27t-39.5 45t-14 65q0 40 16 70.5t43 48t59 26t67 8.5z" />
    <glyph glyph-name="Scaron" unicode="&#x160;" horiz-adv-x="540" 
d="M327 956h134l-157 -190h-63l-156 190h134l54 -99zM273 700h217v-122h-217q-62 0 -84.5 -15.5t-22.5 -57.5q0 -18 5 -30.5t11 -20t25 -14t33.5 -10t48.5 -10.5q40 -8 68 -16t58 -23t48.5 -35t30.5 -51t12 -72q0 -113 -60.5 -168.5t-171.5 -55.5h-239v122h239q57 0 79 22
t22 80q0 36 -20.5 49.5t-90.5 27.5l-44 9.5t-43.5 11.5t-44 17t-37.5 25t-32.5 35t-19.5 46.5t-8 60.5q0 52 18 90.5t51.5 61t75 33t93.5 10.5z" />
    <glyph glyph-name="scaron" unicode="&#x161;" horiz-adv-x="432" 
d="M271 757h134l-157 -190h-63l-156 190h134l54 -100zM205 506h194v-115h-194q-33 0 -47.5 -9t-14.5 -29q0 -16 14.5 -24.5t50.5 -11.5l20 -2.5t16 -1.5q79 -9 124 -49t45 -106q0 -84 -55.5 -124t-143.5 -40h-181v115h181q45 0 60.5 11t15.5 38q0 19 -12 27.5t-47 12.5
l-36 4q-36 4 -66 14t-55.5 27t-39.5 45t-14 65q0 40 16 70.5t43 48t59 26t67 8.5z" />
    <glyph glyph-name="Tcedilla" unicode="&#x162;" horiz-adv-x="554" 
d="M10 700h535v-117h-201v-610q31 -21 31 -74q0 -96 -98 -96h-80v80h80q18 0 18 16q0 14 -18 14h-64v670h-203v117z" />
    <glyph glyph-name="tcedilla" unicode="&#x163;" horiz-adv-x="360" 
d="M78 606h123v-106h140v-114h-140v-216q0 -39 9.5 -51t36.5 -12h94v-115h-94q-11 0 -29 2v-17q55 -16 55 -85q0 -96 -98 -96h-80v80h80q18 0 18 16q0 14 -18 14h-43v121q-54 46 -54 143v216h-68v114h68v106z" />
    <glyph glyph-name="Tcaron" unicode="&#x164;" horiz-adv-x="554" 
d="M331 957h134l-156 -190h-63l-157 190h135l53 -100zM10 700h535v-117h-201v-583h-131v583h-203v117z" />
    <glyph glyph-name="tcaron" unicode="&#x165;" horiz-adv-x="432" 
d="M291 750h131v-124q0 -47 -37 -78t-85 -31q-5 0 -11 1l-21 50q16 15 19.5 26.5t3.5 31.5v124zM78 606h123v-106h140v-114h-140v-216q0 -39 9.5 -51t36.5 -12h94v-115h-94q-86 0 -127.5 48t-41.5 130v216h-68v114h68v106z" />
    <glyph glyph-name="Tbar" unicode="&#x166;" horiz-adv-x="554" 
d="M10 700h535v-122h-201v-107h94v-122h-94v-349h-131v349h-97v122h97v107h-203v122z" />
    <glyph glyph-name="tbar" unicode="&#x167;" horiz-adv-x="360" 
d="M78 593h123v-94h140v-115h-140v-48h140v-115h-140v-49q0 -38 9.5 -50.5t36.5 -12.5h94v-115h-94q-86 0 -127.5 48t-41.5 130v49h-68v115h68v48h-68v115h68v94z" />
    <glyph glyph-name="Utilde" unicode="&#x168;" horiz-adv-x="645" 
d="M194 829l-44 71q1 1 18.5 16.5t40 27t47.5 11.5q53 0 104 -42q19 -15 31 -15q17 0 65 38l59 -62q-39 -40 -67 -55.5t-57 -15.5q-52 0 -98 37q-3 2 -6 4.5t-5 4l-4.5 3.5t-3.5 2.5t-3 2t-3 2t-2.5 1t-3 0.5h-2.5h-4q-12 -2 -62 -31zM450 700h131v-486q0 -98 -53 -160
t-146 -62h-106q-87 0 -146.5 59.5t-59.5 162.5v486h131v-486q0 -50 21 -75t54 -25h106q32 0 50 25t18 75v486z" />
    <glyph glyph-name="utilde" unicode="&#x169;" horiz-adv-x="472" 
d="M110 629l-45 71q1 1 18.5 16.5t40 27t47.5 11.5q53 0 104 -42q19 -15 31 -15q18 0 66 38l58 -62q-39 -40 -66.5 -55.5t-57.5 -15.5q-52 0 -98 37q-2 2 -5.5 4.5t-5 4t-4 3.5t-4 2.5t-3.5 2t-3 2t-2.5 1t-3 0.5h-2.5h-4q-12 -2 -61 -31zM314 500h123v-500h-92l-4 24
q-9 -11 -29.5 -20.5t-47.5 -9.5h-55q-72 0 -123 51t-51 129v326h123v-326q0 -30 15 -47.5t36 -17.5h55q19 0 34.5 16t15.5 39v336z" />
    <glyph glyph-name="Umacron" unicode="&#x16a;" horiz-adv-x="645" 
d="M155 918h332v-95h-332v95zM450 700h131v-486q0 -98 -53 -160t-146 -62h-106q-87 0 -146.5 59.5t-59.5 162.5v486h131v-486q0 -50 21 -75t54 -25h106q32 0 50 25t18 75v486z" />
    <glyph glyph-name="umacron" unicode="&#x16b;" horiz-adv-x="472" 
d="M71 718h332v-95h-332v95zM314 500h123v-500h-92l-4 24q-9 -11 -29.5 -20.5t-47.5 -9.5h-55q-72 0 -123 51t-51 129v326h123v-326q0 -30 15 -47.5t36 -17.5h55q19 0 34.5 16t15.5 39v336z" />
    <glyph glyph-name="Uring" unicode="&#x16e;" horiz-adv-x="645" 
d="M321 990q53 0 90 -36.5t37 -85.5q0 -51 -37 -87t-90 -36q-54 0 -90.5 36t-36.5 87q0 49 36.5 85.5t90.5 36.5zM321 895q-9 0 -15.5 -7.5t-6.5 -19.5q0 -13 6.5 -20.5t15.5 -7.5t15.5 8t6.5 20q0 11 -6.5 19t-15.5 8zM450 700h131v-486q0 -98 -53 -160t-146 -62h-106
q-87 0 -146.5 59.5t-59.5 162.5v486h131v-486q0 -50 21 -75t54 -25h106q32 0 50 25t18 75v486z" />
    <glyph glyph-name="uring" unicode="&#x16f;" horiz-adv-x="472" 
d="M237 790q53 0 90 -36.5t37 -85.5q0 -51 -37 -87t-90 -36q-54 0 -90.5 36t-36.5 87q0 49 36.5 85.5t90.5 36.5zM237 695q-9 0 -15.5 -7.5t-6.5 -19.5q0 -13 6 -20.5t16 -7.5q9 0 15.5 8t6.5 20q0 11 -7 19t-15 8zM314 500h123v-500h-92l-4 24q-9 -11 -29.5 -20.5
t-47.5 -9.5h-55q-72 0 -123 51t-51 129v326h123v-326q0 -30 15 -47.5t36 -17.5h55q19 0 34.5 16t15.5 39v336z" />
    <glyph glyph-name="Uhungarumlaut" unicode="&#x170;" horiz-adv-x="645" 
d="M120 868l233 107l32 -92l-231 -104zM395 868l232 107l33 -92l-231 -104zM450 700h131v-486q0 -98 -53 -160t-146 -62h-106q-87 0 -146.5 59.5t-59.5 162.5v486h131v-486q0 -50 21 -75t54 -25h106q32 0 50 25t18 75v486z" />
    <glyph glyph-name="uhungarumlaut" unicode="&#x171;" horiz-adv-x="472" 
d="M35 668l233 107l33 -92l-232 -104zM310 668l233 107l32 -92l-231 -104zM314 500h123v-500h-92l-4 24q-9 -11 -29.5 -20.5t-47.5 -9.5h-55q-72 0 -123 51t-51 129v326h123v-326q0 -30 15 -47.5t36 -17.5h55q19 0 34.5 16t15.5 39v336z" />
    <glyph glyph-name="Uogonek" unicode="&#x172;" horiz-adv-x="645" 
d="M450 700h131v-486q0 -94 -49.5 -155.5t-137.5 -66.5h-4q-5 -3 -5 -12q0 -25 26 -25h2h2h122v-95h-128q-57 0 -82 32t-25 80v8q0 9 1 12h-27q-87 0 -146.5 59.5t-59.5 162.5v486h131v-486q0 -50 21 -75t54 -25h106q32 0 50 25t18 75v486z" />
    <glyph glyph-name="uogonek" unicode="&#x173;" horiz-adv-x="472" 
d="M314 500h123v-589h-52h-0.5h-1.5q-20 0 -20 -17q0 -11 8 -17t13.5 -7t9.5 -1h-1h122v-95h-128q-106 0 -106 120q0 86 64 106l-4 24q-9 -11 -29.5 -20.5t-47.5 -9.5h-55q-72 0 -123 51t-51 129v326h123v-326q0 -30 15 -47.5t36 -17.5h55q19 0 34.5 16t15.5 39v336z" />
    <glyph glyph-name="Wcircumflex" unicode="&#x174;" horiz-adv-x="737" 
d="M337 957h63l157 -190h-134l-54 99l-54 -99h-134zM595 700h133l-134 -700h-108l-117 246l-119 -246h-106l-134 700h133l86 -446l93 195h94l93 -195z" />
    <glyph glyph-name="wcircumflex" unicode="&#x175;" horiz-adv-x="710" 
d="M324 757h63l157 -190h-135l-54 99l-53 -99h-135zM572 500h129l-164 -500h-101l-81 253l-80 -253h-102l-163 500h129l84 -258l82 258h100l82 -257z" />
    <glyph glyph-name="Ycircumflex" unicode="&#x176;" horiz-adv-x="616" 
d="M278 957h62l157 -190h-134l-54 99l-54 -99h-134zM456 700h151l-233 -387v-313h-131v313l-233 387h151l148 -246z" />
    <glyph glyph-name="ycircumflex" unicode="&#x177;" horiz-adv-x="485" 
d="M212 757h62l157 -190h-134l-54 99l-54 -99h-134zM345 500h130l-247 -680h-130l80 221l-168 459h129l104 -282z" />
    <glyph glyph-name="Ydieresis" unicode="&#x178;" horiz-adv-x="616" 
d="M189 957h105v-142h-105v142zM324 957h105v-142h-105v142zM456 700h151l-233 -387v-313h-131v313l-233 387h151l148 -246z" />
    <glyph glyph-name="Zacute" unicode="&#x179;" horiz-adv-x="555" 
d="M145 868l233 106l32 -91l-231 -104zM55 700h456v-82l-299 -496h309v-122h-486v82l298 496h-278v122z" />
    <glyph glyph-name="zacute" unicode="&#x17a;" horiz-adv-x="418" 
d="M77 668l232 106l33 -91l-231 -104zM24 500h372v-78l-206 -307h209v-115h-379v78l206 307h-202v115z" />
    <glyph glyph-name="Zdotaccent" unicode="&#x17b;" horiz-adv-x="555" 
d="M225 956h105v-142h-105v142zM55 700h456v-82l-299 -496h309v-122h-486v82l298 496h-278v122z" />
    <glyph glyph-name="zdotaccent" unicode="&#x17c;" horiz-adv-x="418" 
d="M157 756h105v-142h-105v142zM24 500h372v-78l-206 -307h209v-115h-379v78l206 307h-202v115z" />
    <glyph glyph-name="Zcaron" unicode="&#x17d;" horiz-adv-x="555" 
d="M332 957h134l-157 -190h-63l-156 190h134l54 -100zM55 700h456v-82l-299 -496h309v-122h-486v82l298 496h-278v122z" />
    <glyph glyph-name="zcaron" unicode="&#x17e;" horiz-adv-x="418" 
d="M263 757h135l-157 -190h-63l-156 190h134l54 -100zM24 500h372v-78l-206 -307h209v-115h-379v78l206 307h-202v115z" />
    <glyph glyph-name="florin" unicode="&#x192;" horiz-adv-x="394" 
d="M92 471v8q0 77 33.5 130t87.5 76.5t123 23.5q14 0 29 -1v-122q-16 1 -30 1q-57 0 -85 -24.5t-28 -83.5v-8h143v-122h-143v-311q0 -87 -52 -142.5t-140 -66.5v128q27 2 44.5 22t17.5 59v311h-62v122h62z" />
    <glyph glyph-name="Acaron" unicode="&#x1cd;" 
d="M367 957h134l-157 -190h-62l-157 190h134l54 -100zM258 700h108l250 -700h-138l-57 161h-218l-56 -161h-137zM376 283l-64 179h-2l-64 -179h130z" />
    <glyph glyph-name="acaron" unicode="&#x1ce;" horiz-adv-x="445" 
d="M277 757h134l-157 -190h-62l-157 190h134l54 -100zM52 500h202q69 0 112.5 -46t43.5 -114v-340h-91l-5 29q-8 -10 -26.5 -19.5t-39.5 -9.5h-71q-68 0 -115 46t-47 112t47 112.5t115 46.5h110v23q0 22 -9 33.5t-24 11.5h-202v115zM287 153v49h-110q-16 0 -27.5 -13
t-11.5 -31t11.5 -30.5t27.5 -12.5h71q14 0 26.5 12t12.5 26z" />
    <glyph glyph-name="Icaron" unicode="&#x1cf;" horiz-adv-x="270" 
d="M190 957h134l-157 -190h-63l-156 190h134l54 -100zM70 700h131v-700h-131v700z" />
    <glyph glyph-name="icaron" unicode="&#x1d0;" horiz-adv-x="208" 
d="M158 757h135l-157 -190h-63l-156 190h134l54 -100zM45 500h123v-500h-123v500z" />
    <glyph glyph-name="Ocaron" unicode="&#x1d1;" horiz-adv-x="644" 
d="M376 957h134l-156 -190h-63l-157 190h135l53 -100zM302 706h41q117 0 184.5 -62.5t67.5 -191.5v-210q0 -110 -67.5 -179.5t-184.5 -69.5h-41q-118 0 -185 69.5t-67 179.5v210q0 129 67.5 191.5t184.5 62.5zM464 242v210q0 73 -28.5 102t-92.5 29h-41q-64 0 -92.5 -29
t-28.5 -102v-210q0 -61 31 -93.5t90 -32.5h41q59 0 90 32.5t31 93.5z" />
    <glyph glyph-name="ocaron" unicode="&#x1d2;" horiz-adv-x="455" 
d="M282 757h134l-157 -190h-62l-157 190h134l54 -100zM202 506h52q78 0 130 -60t52 -137v-127q0 -79 -51.5 -134t-130.5 -55h-52q-79 0 -130.5 55t-51.5 134v127q0 77 51.5 137t130.5 60zM313 182v127q0 34 -18 58t-41 24h-52q-23 0 -41 -24t-18 -58v-127q0 -33 17 -53.5
t42 -20.5h52q25 0 42 20.5t17 53.5z" />
    <glyph glyph-name="Ucaron" unicode="&#x1d3;" horiz-adv-x="645" 
d="M375 957h134l-156 -190h-63l-157 190h135l53 -100zM450 700h131v-486q0 -98 -53 -160t-146 -62h-106q-87 0 -146.5 59.5t-59.5 162.5v486h131v-486q0 -50 21 -75t54 -25h106q32 0 50 25t18 75v486z" />
    <glyph glyph-name="ucaron" unicode="&#x1d4;" horiz-adv-x="472" 
d="M290 757h135l-157 -190h-63l-157 190h135l54 -100zM314 500h123v-500h-92l-4 24q-9 -11 -29.5 -20.5t-47.5 -9.5h-55q-72 0 -123 51t-51 129v326h123v-326q0 -30 15 -47.5t36 -17.5h55q19 0 34.5 16t15.5 39v336z" />
    <glyph glyph-name="Udieresismacron" unicode="&#x1d5;" horiz-adv-x="645" 
d="M155 1014h332v-95h-332v95zM201 892h105v-142h-105v142zM336 892h105v-142h-105v142zM450 700h131v-486q0 -98 -53 -160t-146 -62h-106q-87 0 -146.5 59.5t-59.5 162.5v486h131v-486q0 -50 21 -75t54 -25h106q32 0 50 25t18 75v486z" />
    <glyph glyph-name="udieresismacron" unicode="&#x1d6;" horiz-adv-x="472" 
d="M71 812h332v-95h-332v95zM117 700h105v-142h-105v142zM252 700h105v-142h-105v142zM314 500h123v-500h-92l-4 24q-9 -11 -29.5 -20.5t-47.5 -9.5h-55q-72 0 -123 51t-51 129v326h123v-326q0 -30 15 -47.5t36 -17.5h55q19 0 34.5 16t15.5 39v336z" />
    <glyph glyph-name="Udieresisacute" unicode="&#x1d7;" horiz-adv-x="645" 
d="M188 1008l233 107l33 -92l-232 -104zM201 892h105v-142h-105v142zM336 892h105v-142h-105v142zM450 700h131v-486q0 -98 -53 -160t-146 -62h-106q-87 0 -146.5 59.5t-59.5 162.5v486h131v-486q0 -50 21 -75t54 -25h106q32 0 50 25t18 75v486z" />
    <glyph glyph-name="udieresisacute" unicode="&#x1d8;" horiz-adv-x="472" 
d="M103 805l233 106l33 -91l-231 -104zM117 700h105v-142h-105v142zM252 700h105v-142h-105v142zM314 500h123v-500h-92l-4 24q-9 -11 -29.5 -20.5t-47.5 -9.5h-55q-72 0 -123 51t-51 129v326h123v-326q0 -30 15 -47.5t36 -17.5h55q19 0 34.5 16t15.5 39v336z" />
    <glyph glyph-name="Udieresiscaron" unicode="&#x1d9;" horiz-adv-x="645" 
d="M375 1111h134l-156 -190h-63l-157 190h135l53 -100zM201 892h105v-142h-105v142zM336 892h105v-142h-105v142zM450 700h131v-486q0 -98 -53 -160t-146 -62h-106q-87 0 -146.5 59.5t-59.5 162.5v486h131v-486q0 -50 21 -75t54 -25h106q32 0 50 25t18 75v486z" />
    <glyph glyph-name="udieresiscaron" unicode="&#x1da;" horiz-adv-x="472" 
d="M290 908h135l-157 -190h-63l-157 190h135l54 -100zM117 700h105v-142h-105v142zM252 700h105v-142h-105v142zM314 500h123v-500h-92l-4 24q-9 -11 -29.5 -20.5t-47.5 -9.5h-55q-72 0 -123 51t-51 129v326h123v-326q0 -30 15 -47.5t36 -17.5h55q19 0 34.5 16t15.5 39v336z
" />
    <glyph glyph-name="Udieresisgrave" unicode="&#x1db;" horiz-adv-x="645" 
d="M189 1027l32 91l233 -106l-34 -90zM201 892h105v-142h-105v142zM336 892h105v-142h-105v142zM450 700h131v-486q0 -98 -53 -160t-146 -62h-106q-87 0 -146.5 59.5t-59.5 162.5v486h131v-486q0 -50 21 -75t54 -25h106q32 0 50 25t18 75v486z" />
    <glyph glyph-name="udieresisgrave" unicode="&#x1dc;" horiz-adv-x="472" 
d="M104 821l33 92l233 -107l-35 -89zM117 700h105v-142h-105v142zM252 700h105v-142h-105v142zM314 500h123v-500h-92l-4 24q-9 -11 -29.5 -20.5t-47.5 -9.5h-55q-72 0 -123 51t-51 129v326h123v-326q0 -30 15 -47.5t36 -17.5h55q19 0 34.5 16t15.5 39v336z" />
    <glyph glyph-name="Adieresismacron" unicode="&#x1de;" 
d="M183 971h105v-142h-105v142zM318 971h105v-142h-105v142zM136 811h332v-95h-332v95zM258 700h108l250 -700h-138l-57 161h-218l-56 -161h-137zM376 283l-64 179h-2l-64 -179h130z" />
    <glyph glyph-name="adieresismacron" unicode="&#x1df;" horiz-adv-x="445" 
d="M57 795h332v-95h-332v95zM103 675h105v-142h-105v142zM238 675h105v-142h-105v142zM52 500h202q69 0 112.5 -46t43.5 -114v-340h-91l-5 29q-8 -10 -26.5 -19.5t-39.5 -9.5h-71q-68 0 -115 46t-47 112t47 112.5t115 46.5h110v23q0 22 -9 33.5t-24 11.5h-202v115zM287 153
v49h-110q-16 0 -27.5 -13t-11.5 -31t11.5 -30.5t27.5 -12.5h71q14 0 26.5 12t12.5 26z" />
    <glyph glyph-name="Gcaron" unicode="&#x1e6;" horiz-adv-x="659" 
d="M376 957h134l-156 -190h-63l-157 190h135l53 -100zM302 706h41q226 0 247 -245h-130q-5 69 -31 95.5t-86 26.5h-41q-64 0 -92.5 -29t-28.5 -102v-211q0 -61 31 -93.5t90 -32.5h41q63 0 92 28t29 99v29h-132v123h263v-152q0 -126 -69 -188t-183 -62h-41q-118 0 -185 69.5
t-67 179.5v211q0 129 67.5 191.5t184.5 62.5z" />
    <glyph glyph-name="gcaron" unicode="&#x1e7;" horiz-adv-x="475" 
d="M290 757h134l-156 -190h-63l-157 190h135l53 -100zM339 500h92v-464q0 -102 -45.5 -159t-151.5 -57h-178v116h178q47 0 60 14t13 69v10q-23 -28 -71 -30h-32q-72 -2 -123 50t-51 130v122q0 86 49 142.5t126 56.5h61q21 0 40.5 -9.5t27.5 -19.5zM307 175v170
q-1 17 -13 28.5t-27 11.5h-62q-22 0 -37 -22t-15 -61v-122q0 -29 15 -47t36 -18h53q19 0 34.5 17.5t15.5 42.5z" />
    <glyph glyph-name="Oslashacute" unicode="&#x1fe;" horiz-adv-x="644" 
d="M186 828l233 107l33 -92l-232 -104zM430 750h142l-47 -105q70 -64 70 -193v-210q0 -110 -67.5 -179.5t-184.5 -69.5h-41q-34 0 -64 6l-22 -49h-143l48 108q-71 69 -71 184v210q0 129 67.5 191.5t184.5 62.5h41q34 0 64 -6zM185 201l170 382q-6 1 -12 1h-41
q-64 0 -92.5 -29.5t-28.5 -102.5v-210q0 -22 4 -41zM464 242v210q0 27 -4 48l-170 -384h12h41q59 0 90 32.5t31 93.5z" />
    <glyph glyph-name="oslashacute" unicode="&#x1ff;" horiz-adv-x="455" 
d="M76 668l233 106l33 -91l-231 -104zM312 550h102l-41 -92q30 -28 46.5 -67.5t16.5 -81.5v-127q0 -79 -51.5 -134t-130.5 -55h-52q-19 0 -36 3l-21 -46h-103l40 88q-62 55 -62 144v127q0 77 51.5 137t130.5 60h52q19 0 36 -4zM144 174l97 218q-4 0 -11 -0.5t-13 -0.5h-15
q-27 0 -43 -24t-16 -58v-69q0 -14 0.5 -34t0.5 -32zM313 182v74v9q0 36 -1 58l-94 -214q6 -1 16 -1h4h5h11q29 0 44 20.5t15 53.5z" />
    <glyph glyph-name="Scommaaccent" unicode="&#x218;" horiz-adv-x="540" 
d="M273 700h217v-122h-217q-62 0 -84.5 -15.5t-22.5 -57.5q0 -18 5 -30.5t11 -20t25 -14t33.5 -10t48.5 -10.5q40 -8 68 -16t58 -23t48.5 -35t30.5 -51t12 -72q0 -113 -60.5 -168.5t-171.5 -55.5h-239v122h239q57 0 79 22t22 80q0 36 -20.5 49.5t-90.5 27.5l-44 9.5
t-43.5 11.5t-44 17t-37.5 25t-32.5 35t-19.5 46.5t-8 60.5q0 52 18 90.5t51.5 61t75 33t93.5 10.5zM229 -34h102v-82q0 -36 -29 -60t-66 -24h-9l-17 39q13 11 16 20.5t3 24.5v82z" />
    <glyph glyph-name="scommaaccent" unicode="&#x219;" horiz-adv-x="432" 
d="M205 506h194v-115h-194q-33 0 -47.5 -9t-14.5 -29q0 -16 14.5 -24.5t50.5 -11.5l20 -2.5t16 -1.5q79 -9 124 -49t45 -106q0 -84 -55.5 -124t-143.5 -40h-181v115h181q45 0 60.5 11t15.5 38q0 19 -12 27.5t-47 12.5l-36 4q-36 4 -66 14t-55.5 27t-39.5 45t-14 65
q0 40 16 70.5t43 48t59 26t67 8.5zM175 -34h102v-82q0 -36 -29 -60t-66 -24h-9l-17 39q13 11 16 20.5t3 24.5v82z" />
    <glyph glyph-name="Tcommaaccent" unicode="&#x21a;" horiz-adv-x="554" 
d="M10 700h535v-117h-201v-583h-131v583h-203v117zM236 -34h102v-82q0 -36 -29 -60t-66 -24h-9l-17 39q13 11 16 20.5t3 24.5v82z" />
    <glyph glyph-name="tcommaaccent" unicode="&#x21b;" horiz-adv-x="360" 
d="M78 606h123v-106h140v-114h-140v-216q0 -39 9.5 -51t36.5 -12h94v-115h-94q-86 0 -127.5 48t-41.5 130v216h-68v114h68v106zM134 -34h102v-82q0 -36 -29 -60t-66 -24h-9l-17 39q13 11 16 20.5t3 24.5v82z" />
    <glyph glyph-name="Ecedilla" unicode="&#x228;" horiz-adv-x="560" 
d="M70 700h455v-122h-324v-155h273v-122h-273v-179h324v-122h-216v-31q55 -16 55 -85q0 -96 -98 -96h-80v80h80q18 0 18 16q0 14 -18 14h-42v102h-154v700z" />
    <glyph glyph-name="ecedilla" unicode="&#x229;" horiz-adv-x="438" 
d="M20 240v67q0 93 57 147t143 54q97 0 150.5 -53t53.5 -148v-110h-281v-5q2 -76 74 -76h195v-115h-158v-32q55 -16 55 -85q0 -96 -98 -96h-80v80h80q18 0 18 16q0 14 -18 14h-42v107q-82 13 -115.5 73t-33.5 162zM301 307v7q-1 42 -20 60.5t-61 18.5q-34 0 -54.5 -19.5
t-22.5 -58.5v-8h158z" />
    <glyph glyph-name="Odiaeresismacron" unicode="&#x22a;" horiz-adv-x="644" 
d="M156 1012h332v-95h-332v95zM202 892h105v-142h-105v142zM337 892h105v-142h-105v142zM302 706h41q117 0 184.5 -62.5t67.5 -191.5v-210q0 -110 -67.5 -179.5t-184.5 -69.5h-41q-118 0 -185 69.5t-67 179.5v210q0 129 67.5 191.5t184.5 62.5zM464 242v210q0 73 -28.5 102
t-92.5 29h-41q-64 0 -92.5 -29t-28.5 -102v-210q0 -61 31 -93.5t90 -32.5h41q59 0 90 32.5t31 93.5z" />
    <glyph glyph-name="odiaeresismacron" unicode="&#x22b;" horiz-adv-x="455" 
d="M62 845h332v-95h-332v95zM108 717h105v-142h-105v142zM243 717h105v-142h-105v142zM202 506h52q78 0 130 -60t52 -137v-127q0 -79 -51.5 -134t-130.5 -55h-52q-79 0 -130.5 55t-51.5 134v127q0 77 51.5 137t130.5 60zM313 182v127q0 34 -18 58t-41 24h-52q-23 0 -41 -24
t-18 -58v-127q0 -33 17 -53.5t42 -20.5h52q25 0 42 20.5t17 53.5z" />
    <glyph glyph-name="circumflex" unicode="&#x2c6;" horiz-adv-x="436" 
d="M187 757h62l157 -190h-134l-54 99l-54 -99h-134z" />
    <glyph glyph-name="caron" unicode="&#x2c7;" horiz-adv-x="436" 
d="M272 757h134l-156 -190h-63l-157 190h134l54 -100z" />
    <glyph glyph-name="breve" unicode="&#x2d8;" horiz-adv-x="378" 
d="M243 757h102q3 -14 3 -29q0 -50 -37 -86.5t-90 -36.5h-64q-53 0 -90 34.5t-37 84.5q0 16 4 33h101q0 -25 6 -38.5t12.5 -16t15.5 -2.5h43q31 0 31 57z" />
    <glyph glyph-name="dotaccent" unicode="&#x2d9;" horiz-adv-x="165" 
d="M30 756h105v-142h-105v142z" />
    <glyph glyph-name="ring" unicode="&#x2da;" horiz-adv-x="314" 
d="M157 790q53 0 90 -36.5t37 -85.5q0 -51 -37 -87t-90 -36q-54 0 -90.5 36t-36.5 87q0 49 36.5 85.5t90.5 36.5zM157 695q-9 0 -15.5 -7.5t-6.5 -19.5q0 -13 6.5 -20.5t15.5 -7.5t15.5 8t6.5 20q0 11 -6.5 19t-15.5 8z" />
    <glyph glyph-name="ogonek" unicode="&#x2db;" horiz-adv-x="294" 
d="M137 40h49v-95h-52h-1h-1q-20 0 -20 -17q0 -11 7.5 -17t13.5 -7t10 -1h-1h122v-95h-128q-106 0 -106 120q0 54 26 83.5t81 28.5z" />
    <glyph glyph-name="tilde" unicode="&#x2dc;" horiz-adv-x="424" 
d="M74 629l-44 71q1 1 18.5 16.5t40 27t47.5 11.5q52 0 103 -42q20 -15 32 -15q17 0 65 38l58 -62q-38 -40 -66 -55.5t-57 -15.5q-52 0 -98 37q-3 2 -6 4.5t-5 4l-4.5 3.5t-3.5 2.5t-3 2t-3 2t-2.5 1t-3 0.5h-2.5h-4q-12 -2 -62 -31z" />
    <glyph glyph-name="hungarumlaut" unicode="&#x2dd;" horiz-adv-x="600" 
d="M30 668l233 107l33 -92l-232 -104zM305 668l233 107l32 -92l-231 -104z" />
    <glyph glyph-name="dotbelowcomb" unicode="&#x323;" horiz-adv-x="0" 
d="M30 -37h105v-142h-105v142z" />
    <glyph glyph-name="circumflexbelowcomb" unicode="&#x32d;" horiz-adv-x="0" 
d="M187 -16h62l157 -190h-134l-54 99l-54 -99h-134z" />
    <glyph glyph-name="macronbelowcomb" unicode="&#x331;" horiz-adv-x="0" 
d="M30 -46h332v-95h-332v95z" />
    <glyph glyph-name="Delta" unicode="&#x394;" horiz-adv-x="833" 
 />
    <glyph glyph-name="Omega" unicode="&#x3a9;" horiz-adv-x="833" 
 />
    <glyph glyph-name="mu" unicode="&#x3bc;" horiz-adv-x="466" 
 />
    <glyph glyph-name="pi" unicode="&#x3c0;" horiz-adv-x="135" 
 />
    <glyph glyph-name="Acy" unicode="&#x410;" 
d="M258 700h108l250 -700h-138l-57 161h-218l-56 -161h-137zM376 283l-64 179h-2l-64 -179h130z" />
    <glyph glyph-name="Becy" unicode="&#x411;" horiz-adv-x="615" 
d="M70 700h456v-122h-326v-156h166q90 0 152.5 -61t62.5 -150q0 -87 -62.5 -149t-152.5 -62h-296v700zM200 122h166q34 0 59 26t25 63t-24.5 62.5t-59.5 25.5h-166v-177z" />
    <glyph glyph-name="Vecy" unicode="&#x412;" horiz-adv-x="614" 
d="M70 700h282q85 0 145 -59t60 -142q0 -73 -50 -130q74 -62 74 -158q0 -88 -62.5 -149.5t-152.5 -61.5h-296v700zM200 422h157q27 0 48.5 22.5t21.5 54.5q0 33 -22.5 56t-52.5 23h-152v-156zM200 122h166q34 0 59 26t25 63t-24.5 62.5t-59.5 25.5h-166v-177z" />
    <glyph glyph-name="Gecy" unicode="&#x413;" horiz-adv-x="473" 
d="M70 700h393v-117h-262v-583h-131v700z" />
    <glyph glyph-name="Decy" unicode="&#x414;" horiz-adv-x="710" 
d="M172 700h445v-578h68v-235h-131v113h-398v-113h-131v235h51q15 0 26.5 12t13.5 27zM487 122v456h-201l-49 -426q-2 -20 -16 -30h266z" />
    <glyph glyph-name="Iecy" unicode="&#x415;" horiz-adv-x="560" 
d="M70 700h455v-122h-324v-155h273v-122h-273v-179h324v-122h-455v700z" />
    <glyph glyph-name="Zhecy" unicode="&#x416;" horiz-adv-x="956" 
d="M771 700h160l-265 -352l280 -348h-163l-230 286h-10v-286h-131v286h-10l-229 -286h-163l279 348l-265 352h160l220 -292h8v292h131v-292h8z" />
    <glyph glyph-name="Zecy" unicode="&#x417;" horiz-adv-x="539" 
d="M34 707h268q88 0 145.5 -60.5t57.5 -150.5q0 -86 -53 -141q53 -61 53 -153t-57.5 -151t-145.5 -59h-268v122h268q29 0 49 24.5t20 63.5q0 40 -20 68.5t-44 28.5h-197v121h197q26 0 45 21t19 55q0 37 -20.5 63t-48.5 26h-268v122z" />
    <glyph glyph-name="Iicy" unicode="&#x418;" horiz-adv-x="664" 
d="M488 700h111v-700h-131v441l-297 -441h-106v700h131v-434z" />
    <glyph glyph-name="ShortIcy" unicode="&#x419;" horiz-adv-x="664" 
d="M383 957h102q3 -14 3 -29q0 -50 -36.5 -86.5t-89.5 -36.5h-64q-53 0 -90.5 34.5t-37.5 84.5q0 16 5 33h100q0 -25 6 -38.5t12.5 -16t16.5 -2.5h42q31 0 31 57zM488 700h111v-700h-131v441l-297 -441h-106v700h131v-434z" />
    <glyph glyph-name="Kacy" unicode="&#x41a;" horiz-adv-x="613" 
d="M429 700h160l-265 -352l279 -348h-163l-229 286h-10v-286h-131v700h131v-292h8z" />
    <glyph glyph-name="Elcy" unicode="&#x41b;" horiz-adv-x="647" 
d="M132 700h445v-700h-130v578h-201l-48 -420q-8 -72 -51 -115t-111 -43h-26v123h27q14 0 26 11.5t13 26.5z" />
    <glyph glyph-name="Emcy" unicode="&#x41c;" horiz-adv-x="758" 
d="M576 700h112v-700h-131v414l-181 -308l-180 307v-413h-131v700h111l200 -340z" />
    <glyph glyph-name="Ency" unicode="&#x41d;" horiz-adv-x="666" 
d="M465 700h131v-700h-131v289h-264v-289h-131v700h131v-288h264v288z" />
    <glyph glyph-name="Ocy" unicode="&#x41e;" horiz-adv-x="644" 
d="M302 706h41q117 0 184.5 -62.5t67.5 -191.5v-210q0 -110 -67.5 -179.5t-184.5 -69.5h-41q-118 0 -185 69.5t-67 179.5v210q0 129 67.5 191.5t184.5 62.5zM464 242v210q0 73 -28.5 102t-92.5 29h-41q-64 0 -92.5 -29t-28.5 -102v-210q0 -61 31 -93.5t90 -32.5h41
q59 0 90 32.5t31 93.5z" />
    <glyph glyph-name="Pecy" unicode="&#x41f;" horiz-adv-x="675" 
d="M70 700h535v-700h-131v578h-273v-578h-131v700z" />
    <glyph glyph-name="Ercy" unicode="&#x420;" horiz-adv-x="592" 
d="M70 700h282q85 0 145 -58.5t60 -142.5q0 -82 -60 -141t-145 -59h-151v-299h-131v700zM201 421h151q30 0 52.5 23t22.5 55q0 33 -22.5 56t-52.5 23h-151v-157z" />
    <glyph glyph-name="Escy" unicode="&#x421;" 
d="M302 707h41q226 0 247 -247h-129q-6 70 -31.5 97t-86.5 27h-41q-64 0 -92.5 -29t-28.5 -102v-212q0 -61 31 -93.5t90 -32.5h41q57 0 83 33.5t31 102.5h131q-10 -119 -70 -189t-175 -70h-41q-118 0 -185 69.5t-67 179.5v212q0 129 67.5 191.5t184.5 62.5z" />
    <glyph glyph-name="Tecy" unicode="&#x422;" horiz-adv-x="564" 
d="M15 700h535v-117h-201v-583h-131v583h-203v117z" />
    <glyph glyph-name="Ucy" unicode="&#x423;" horiz-adv-x="533" 
d="M366 700h152l-253 -700h-144l89 255l-195 445h154l103 -269z" />
    <glyph glyph-name="Efcy" unicode="&#x424;" horiz-adv-x="876" 
d="M372 700h132v-106h119q100 0 159 -49.5t59 -138.5v-85q0 -88 -56.5 -146.5t-161.5 -58.5h-119v-116h-132v116h-119q-105 0 -161.5 58.5t-56.5 146.5v85q0 89 59 138.5t159 49.5h119v106zM372 237v235h-119q-47 0 -66.5 -15.5t-19.5 -51.5v-84q0 -84 86 -84h119zM709 321
v84q0 36 -19.5 51.5t-66.5 15.5h-119v-235h119q86 0 86 84z" />
    <glyph glyph-name="Hacy" unicode="&#x425;" horiz-adv-x="619" 
d="M457 700h152l-224 -350l224 -350h-152l-148 231l-147 -231h-152l223 350l-223 350h152l147 -231z" />
    <glyph glyph-name="Tsecy" unicode="&#x426;" horiz-adv-x="771" 
d="M462 700h131v-568h158v-268h-131v136h-550v700h131v-568h261v568z" />
    <glyph glyph-name="Checy" unicode="&#x427;" horiz-adv-x="578" 
d="M385 700h123v-700h-123v224q-23 -28 -72 -28h-95q-71 0 -122 50.5t-51 129.5v324h123v-324q0 -30 14.5 -47.5t35.5 -17.5h117q19 0 34.5 17.5t15.5 42.5v329z" />
    <glyph glyph-name="Shacy" unicode="&#x428;" horiz-adv-x="845" 
d="M649 700h131v-700h-715v700h131v-568h161v568h131v-568h161v568z" />
    <glyph glyph-name="Shchacy" unicode="&#x429;" horiz-adv-x="958" 
d="M649 700h131v-568h158v-268h-131v136h-742v700h131v-568h161v568h131v-568h161v568z" />
    <glyph glyph-name="Hardsigncy" unicode="&#x42a;" horiz-adv-x="584" 
d="M-50 700h243v-299h151q85 0 145 -59t60 -141q0 -84 -59.5 -142.5t-145.5 -58.5h-282v570h-112v130zM193 122h151q30 0 52.5 23t22.5 56q0 32 -22.5 55t-52.5 23h-151v-157z" />
    <glyph glyph-name="Yerucy" unicode="&#x42b;" horiz-adv-x="850" 
d="M70 700h131v-299h151q85 0 145 -59t60 -141q0 -84 -59.5 -142.5t-145.5 -58.5h-282v700zM650 700h130v-700h-130v700zM201 122h151q30 0 52.5 23t22.5 56q0 32 -22.5 55t-52.5 23h-151v-157z" />
    <glyph glyph-name="Softsigncy" unicode="&#x42c;" horiz-adv-x="592" 
d="M70 700h131v-299h151q85 0 145 -59t60 -141q0 -84 -59.5 -142.5t-145.5 -58.5h-282v700zM201 122h151q30 0 52.5 23t22.5 56q0 32 -22.5 55t-52.5 23h-151v-157z" />
    <glyph glyph-name="Ereversedcy" unicode="&#x42d;" horiz-adv-x="644" 
d="M302 706h41q117 0 184.5 -62.5t67.5 -191.5v-210q0 -110 -67.5 -179.5t-184.5 -69.5h-41q-117 0 -184.5 69.5t-67.5 179.5h131q-1 -60 30.5 -93t90.5 -33h41q59 0 90 33t31 93v40h-231v130h231v40q0 74 -28.5 102.5t-92.5 28.5h-41q-64 0 -92.5 -28.5t-28.5 -102.5h-131
q0 129 67.5 191.5t184.5 62.5z" />
    <glyph glyph-name="Iucy" unicode="&#x42e;" horiz-adv-x="921" 
d="M578 706h41q117 0 184.5 -62.5t67.5 -191.5v-210q0 -111 -67.5 -180t-184.5 -69h-41q-117 0 -184.5 69t-67.5 180v43h-125v-285h-131v700h131v-285h125v37q0 129 67.5 191.5t184.5 62.5zM740 242v210q0 74 -28.5 102.5t-92.5 28.5h-41q-64 0 -92.5 -28.5t-28.5 -102.5
v-210q0 -60 31 -93t90 -33h41q59 0 90 33t31 93z" />
    <glyph glyph-name="Iacy" unicode="&#x42f;" horiz-adv-x="620" 
d="M268 700h282v-700h-131v299h-76l-162 -299h-146l168 309l-2 1q-61 20 -100 72t-39 117q0 84 60 142.5t146 58.5zM419 421v157h-151q-30 0 -52.5 -23t-22.5 -56q0 -32 22.5 -55t52.5 -23h151z" />
    <glyph glyph-name="acy" unicode="&#x430;" horiz-adv-x="445" 
d="M52 500h202q69 0 112.5 -46t43.5 -114v-340h-91l-5 29q-8 -10 -26.5 -19.5t-39.5 -9.5h-71q-68 0 -115 46t-47 112t47 112.5t115 46.5h110v23q0 22 -9 33.5t-24 11.5h-202v115zM287 153v49h-110q-16 0 -27.5 -13t-11.5 -31t11.5 -30.5t27.5 -12.5h71q14 0 26.5 12
t12.5 26z" />
    <glyph glyph-name="becy" unicode="&#x431;" horiz-adv-x="525" 
d="M292 708h200v-123h-200q-42 0 -70 -12t-40.5 -34t-16.5 -41.5t-4 -45.5v-9h112q111 0 171.5 -51.5t60.5 -146.5v-37q0 -97 -60 -156.5t-175 -59.5q-119 0 -179.5 59t-60.5 189v212q0 125 66.5 190.5t195.5 65.5zM374 214v37q0 41 -22 58.5t-79 17.5h-112v-81
q0 -76 22.5 -100.5t86.5 -24.5q57 0 80.5 22.5t23.5 70.5z" />
    <glyph glyph-name="vecy" unicode="&#x432;" horiz-adv-x="474" 
d="M35 500h260q61 0 104 -42t43 -101q0 -52 -36 -93q53 -45 53 -114q0 -62 -45 -106t-109 -44h-270v500zM158 315h112q49 0 49 36q0 21 -13.5 27.5t-39.5 6.5h-108v-70zM158 115h118q60 0 60 41q0 44 -60 44h-118v-85z" />
    <glyph glyph-name="gecy" unicode="&#x433;" horiz-adv-x="436" 
d="M35 500h386v-123h-263v-377h-123v500z" />
    <glyph glyph-name="decy" unicode="&#x434;" horiz-adv-x="525" 
d="M121 500h341v-389h48v-192h-117v81h-260v-81h-118v192h48q5 0 10.5 6t6.5 11zM345 111v278h-121l-32 -253q-5 -25 -15 -25h168z" />
    <glyph glyph-name="iecy" unicode="&#x435;" horiz-adv-x="438" 
d="M20 240v67q0 93 57 147t143 54q97 0 150.5 -53t53.5 -148v-110h-281v-1q1 -80 74 -80h195v-115h-195q-109 0 -153 61.5t-44 177.5zM301 307v6q-1 43 -20 61.5t-61 18.5q-35 0 -55.5 -20.5t-21.5 -59.5v-6h158z" />
    <glyph glyph-name="zhecy" unicode="&#x436;" horiz-adv-x="796" 
d="M608 500h157l-186 -230l203 -270h-151l-161 214h-10v-214h-124v214h-10l-161 -214h-151l203 270l-186 230h157l136 -172h12v172h124v-172h12z" />
    <glyph glyph-name="zecy" unicode="&#x437;" horiz-adv-x="372" 
d="M15 505h192q63 0 104 -43.5t41 -107.5q0 -61 -38 -101q38 -43 38 -109t-41 -108t-104 -42h-192v123h176q12 0 24.5 8.5t12.5 29.5q0 18 -8.5 28t-17.5 11l-8 1h-156v123h157q14 0 23.5 8t9.5 24q0 17 -12 24.5t-24 7.5h-177v123z" />
    <glyph glyph-name="iicy" unicode="&#x438;" horiz-adv-x="520" 
d="M360 500h120v-500h-123v305l-202 -305h-115v500h123v-300z" />
    <glyph glyph-name="iishortcy" unicode="&#x439;" horiz-adv-x="520" 
d="M311 757h102q3 -14 3 -29q0 -50 -36.5 -86.5t-89.5 -36.5h-64q-53 0 -90.5 34.5t-37.5 84.5q0 16 5 33h100q0 -25 6 -38.5t12.5 -16t16.5 -2.5h42q31 0 31 57zM360 500h120v-500h-123v305l-202 -305h-115v500h123v-300z" />
    <glyph glyph-name="kacy" unicode="&#x43a;" horiz-adv-x="498" 
d="M312 500h157l-187 -231l202 -269h-151l-160 213h-10v-213h-123v500h123v-173h12z" />
    <glyph glyph-name="elcy" unicode="&#x43b;" horiz-adv-x="511" 
d="M107 500h364v-500h-123v385h-134l-32 -249q-8 -59 -51.5 -97.5t-105.5 -38.5v110q38 0 44 38z" />
    <glyph glyph-name="emcy" unicode="&#x43c;" horiz-adv-x="616" 
d="M466 500h110v-500h-123v263l-145 -220l-145 219v-262h-123v500h109l159 -243z" />
    <glyph glyph-name="ency" unicode="&#x43d;" horiz-adv-x="525" 
d="M357 500h123v-500h-123v193h-189v-193h-123v500h123v-192h189v192z" />
    <glyph glyph-name="ocy" unicode="&#x43e;" horiz-adv-x="455" 
d="M202 506h52q78 0 130 -60t52 -137v-127q0 -79 -51.5 -134t-130.5 -55h-52q-79 0 -130.5 55t-51.5 134v127q0 77 51.5 137t130.5 60zM313 182v127q0 34 -18 58t-41 24h-52q-23 0 -41 -24t-18 -58v-127q0 -33 17 -53.5t42 -20.5h52q25 0 42 20.5t17 53.5z" />
    <glyph glyph-name="pecy" unicode="&#x43f;" horiz-adv-x="531" 
d="M45 500h441v-500h-123v385h-195v-385h-123v500z" />
    <glyph glyph-name="ercy" unicode="&#x440;" horiz-adv-x="465" 
d="M208 506h62q78 0 127 -56t49 -142v-127q0 -79 -51 -130t-123 -51h-33q-47 0 -71 30v-209h-123v685h91l5 -29q9 10 28 19.5t39 9.5zM323 181v127q0 39 -15 61t-38 22h-62q-15 0 -27 -11.5t-13 -28.5v-175q0 -25 16 -42.5t35 -17.5h53q21 0 36 17.5t15 47.5z" />
    <glyph glyph-name="escy" unicode="&#x441;" horiz-adv-x="400" 
d="M227 507h158v-115h-158q-46 0 -65 -21.5t-19 -73.5v-86q0 -57 19 -79t65 -22h158v-115h-158q-100 0 -153.5 55.5t-53.5 160.5v86q0 100 53.5 155t153.5 55z" />
    <glyph glyph-name="tecy" unicode="&#x442;" horiz-adv-x="469" 
d="M15 500h439v-115h-158v-385h-123v385h-158v115z" />
    <glyph glyph-name="ucy" unicode="&#x443;" horiz-adv-x="485" 
d="M345 500h130l-247 -680h-130l80 221l-168 459h129l104 -282z" />
    <glyph glyph-name="efcy" unicode="&#x444;" horiz-adv-x="694" 
d="M284 700h124v-193h90q48 0 84 -20.5t55 -52.5t28 -63.5t9 -60.5v-132q0 -81 -50.5 -129.5t-123.5 -48.5h-92v-191h-123v191h-92q-79 0 -126 47.5t-47 130.5v132q0 197 174 197h90v193zM285 113v279h-90q-21 0 -36.5 -22t-15.5 -61v-131q0 -30 14 -47.5t36 -17.5h92z
M551 178v130q0 40 -15.5 62t-37.5 22h-90v-279h92q21 0 36 18t15 47z" />
    <glyph glyph-name="hacy" unicode="&#x445;" horiz-adv-x="502" 
d="M343 500h143l-162 -246l169 -254h-145l-97 145l-96 -145h-145l169 254l-162 246h144l90 -137z" />
    <glyph glyph-name="tsecy" unicode="&#x446;" horiz-adv-x="624" 
d="M344 500h123v-378h142v-220h-123v98h-451v500h123v-377h186v377z" />
    <glyph glyph-name="checy" unicode="&#x447;" horiz-adv-x="479" 
d="M312 500h123v-500h-123v176q-23 -29 -72 -29h-32q-72 -1 -123 50.5t-51 129.5v173h123v-173q0 -29 15 -47t36 -18h53q19 0 35 17.5t16 42.5v178z" />
    <glyph glyph-name="shacy" unicode="&#x448;" horiz-adv-x="822" 
d="M658 500h123v-500h-741v500h123v-377h186v377h123v-377h186v377z" />
    <glyph glyph-name="shchacy" unicode="&#x449;" horiz-adv-x="943" 
d="M658 500h123v-377h142v-221h-123v98h-760v500h123v-377h186v377h123v-377h186v377z" />
    <glyph glyph-name="hardsigncy" unicode="&#x44a;" horiz-adv-x="541" 
d="M20 500h201v-178h139q64 0 105 -49.5t41 -111.5q0 -64 -40 -112.5t-106 -48.5h-262v377h-78v123zM221 123h119q43 0 43 39q0 37 -44 37h-118v-76z" />
    <glyph glyph-name="yerucy" unicode="&#x44b;" horiz-adv-x="671" 
d="M45 500h123v-178h139q64 0 105 -49.5t41 -111.5q0 -64 -40 -112.5t-106 -48.5h-262v500zM503 500h123v-500h-123v500zM168 123h119q43 0 43 39q0 37 -44 37h-118v-76z" />
    <glyph glyph-name="softsigncy" unicode="&#x44c;" horiz-adv-x="488" 
d="M45 500h123v-178h139q64 0 105 -49.5t41 -111.5q0 -64 -40 -112.5t-106 -48.5h-262v500zM168 123h119q43 0 43 39q0 37 -44 37h-118v-76z" />
    <glyph glyph-name="ereversedcy" unicode="&#x44d;" horiz-adv-x="456" 
d="M202 506h52q78 0 130 -60t52 -137v-128q0 -79 -51 -133.5t-131 -54.5h-52q-82 0 -132 44t-50 120h123q0 -31 15 -40t44 -9h52q25 0 42 21t17 53v8h-142v115h142v4q0 34 -18 58t-41 24h-52q-59 0 -59 -57h-123q0 75 51 123.5t131 48.5z" />
    <glyph glyph-name="iucy" unicode="&#x44e;" horiz-adv-x="673" 
d="M419 506h53q78 0 129.5 -59.5t51.5 -137.5v-127q0 -79 -51 -134t-130 -55h-53q-79 0 -130 55t-51 134v10h-70v-192h-123v500h123v-193h70v2q0 78 51.5 137.5t129.5 59.5zM530 182v127q0 34 -18 58t-40 24h-53q-22 0 -40 -24t-18 -58v-127q0 -32 17 -53t41 -21h53
q24 0 41 21t17 53z" />
    <glyph glyph-name="iacy" unicode="&#x44f;" horiz-adv-x="476" 
d="M200 500h231v-500h-123v214h-21l-117 -214h-150l134 221h-2q-59 15 -90 51t-31 84q0 61 46.5 102.5t122.5 41.5zM308 324v61h-105q-32 0 -44.5 -7t-12.5 -23q0 -31 57 -31h105z" />
    <glyph glyph-name="Bdotbelow" unicode="&#x1e04;" horiz-adv-x="615" 
d="M70 700h282q85 0 145 -59t60 -142q0 -73 -50 -130q74 -62 74 -158q0 -88 -62.5 -149.5t-152.5 -61.5h-296v700zM200 422h157q27 0 48.5 22.5t21.5 54.5q0 33 -22.5 56t-52.5 23h-152v-156zM200 122h166q34 0 59 26t25 63t-24.5 62.5t-59.5 25.5h-166v-177zM230 -37h105
v-142h-105v142z" />
    <glyph glyph-name="bdotbelow" unicode="&#x1e05;" horiz-adv-x="460" 
d="M40 700h123v-224q24 30 71 30h33q72 0 123 -51t51 -130v-127q0 -86 -49 -142t-127 -56h-61q-21 0 -40 9.5t-28 19.5l-5 -29h-91v700zM318 198v127q0 30 -15 47.5t-36 17.5h-53q-19 0 -35 -17.5t-16 -42.5v-175q1 -17 13 -28.5t27 -11.5h62q23 0 38 22t15 61zM181 -37h105
v-142h-105v142z" />
    <glyph glyph-name="Ddotbelow" unicode="&#x1e0c;" horiz-adv-x="626" 
d="M70 700h255q117 0 184.5 -62.5t67.5 -191.5v-197q0 -111 -67.5 -180t-184.5 -69h-255v700zM446 249v197q0 74 -28.5 103t-92.5 29h-124v-456h124q59 0 90 33t31 94zM262 -37h105v-142h-105v142z" />
    <glyph glyph-name="ddotbelow" unicode="&#x1e0d;" horiz-adv-x="465" 
d="M298 700h123v-700h-91l-6 29q-8 -10 -27.5 -19.5t-39.5 -9.5h-62q-77 0 -126 56t-49 142v127q0 79 51 130t123 51h32q48 0 72 -30v224zM298 155v175q0 25 -16 42.5t-35 17.5h-53q-21 0 -36 -17.5t-15 -47.5v-127q0 -39 15 -61t37 -22h62q15 0 27.5 11.5t13.5 28.5z
M173 -37h105v-142h-105v142z" />
    <glyph glyph-name="Dlinebelow" unicode="&#x1e0e;" horiz-adv-x="626" 
d="M70 700h255q117 0 184.5 -62.5t67.5 -191.5v-197q0 -111 -67.5 -180t-184.5 -69h-255v700zM446 249v197q0 74 -28.5 103t-92.5 29h-124v-456h124q59 0 90 33t31 94zM133 -46h332v-95h-332v95z" />
    <glyph glyph-name="dlinebelow" unicode="&#x1e0f;" horiz-adv-x="465" 
d="M298 700h123v-700h-91l-6 29q-8 -10 -27.5 -19.5t-39.5 -9.5h-62q-77 0 -126 56t-49 142v127q0 79 51 130t123 51h32q48 0 72 -30v224zM298 155v175q0 25 -16 42.5t-35 17.5h-53q-21 0 -36 -17.5t-15 -47.5v-127q0 -39 15 -61t37 -22h62q15 0 27.5 11.5t13.5 28.5z
M66 -46h332v-95h-332v95z" />
    <glyph glyph-name="Dcircumflexbelow" unicode="&#x1e12;" horiz-adv-x="626" 
d="M70 700h255q117 0 184.5 -62.5t67.5 -191.5v-197q0 -111 -67.5 -180t-184.5 -69h-255v700zM446 249v197q0 74 -28.5 103t-92.5 29h-124v-456h124q59 0 90 33t31 94zM251 -15h63l157 -190h-135l-53 99l-54 -99h-134z" />
    <glyph glyph-name="dcircumflexbelow" unicode="&#x1e13;" horiz-adv-x="465" 
d="M298 700h123v-700h-91l-6 29q-8 -10 -27.5 -19.5t-39.5 -9.5h-62q-77 0 -126 56t-49 142v127q0 79 51 130t123 51h32q48 0 72 -30v224zM298 155v175q0 25 -16 42.5t-35 17.5h-53q-21 0 -36 -17.5t-15 -47.5v-127q0 -39 15 -61t37 -22h62q15 0 27.5 11.5t13.5 28.5z
M190 -16h63l157 -190h-134l-54 99l-54 -99h-134z" />
    <glyph glyph-name="Hdotbelow" unicode="&#x1e24;" horiz-adv-x="666" 
d="M465 700h131v-700h-131v289h-264v-289h-131v700h131v-288h264v288zM288 -37h105v-142h-105v142z" />
    <glyph glyph-name="hdotbelow" unicode="&#x1e25;" horiz-adv-x="480" 
d="M45 700h123v-224q23 28 71 29h33q72 0 123 -51t51 -129v-325h-123v325q0 29 -15 47t-36 18h-53q-19 0 -35 -17.5t-16 -43.5v-329h-123v700zM190 -37h105v-142h-105v142z" />
    <glyph glyph-name="Idieresisacute" unicode="&#x1e2e;" horiz-adv-x="270" 
d="M3 1006l233 106l32 -91l-231 -104zM16 892h105v-142h-105v142zM151 892h105v-142h-105v142zM70 700h131v-700h-131v700z" />
    <glyph glyph-name="idieresisacute" unicode="&#x1e2f;" horiz-adv-x="208" 
d="M-28 816l232 106l33 -91l-231 -105zM-15 700h105v-142h-105v142zM120 700h105v-142h-105v142zM45 500h123v-500h-123v500z" />
    <glyph glyph-name="Ldotbelow" unicode="&#x1e36;" horiz-adv-x="506" 
d="M70 700h131v-578h296v-122h-427v700zM201 -37h105v-142h-105v142z" />
    <glyph glyph-name="ldotbelow" unicode="&#x1e37;" horiz-adv-x="208" 
d="M45 700h123v-700h-123v700zM54 -37h105v-142h-105v142z" />
    <glyph glyph-name="Lcircumflexbelow" unicode="&#x1e3c;" horiz-adv-x="506" 
d="M70 700h131v-578h296v-122h-427v700zM218 -16h63l157 -190h-134l-54 99l-54 -99h-134z" />
    <glyph glyph-name="lcircumflexbelow" unicode="&#x1e3d;" horiz-adv-x="208" 
d="M45 700h123v-700h-123v700zM69 -16h63l157 -190h-135l-53 99l-54 -99h-134z" />
    <glyph glyph-name="Macute" unicode="&#x1e3e;" horiz-adv-x="758" 
d="M244 812l233 106l32 -91l-231 -104zM576 700h112v-700h-131v414l-181 -308l-180 307v-413h-131v700h111l200 -340z" />
    <glyph glyph-name="macute" unicode="&#x1e3f;" horiz-adv-x="715" 
d="M227 668l233 106l33 -91l-231 -104zM473 506h34q72 0 122.5 -51t50.5 -129v-326h-123v326q0 30 -15 47.5t-35 17.5h-34q-21 0 -36 -16.5t-15 -42.5v-332h-123v331q0 25 -16 42.5t-35 17.5h-34q-21 0 -36 -15.5t-15 -39.5v-336h-122v500h92l4 -24q9 10 32 20t50 10h29
q64 0 112 -41q48 41 113 41z" />
    <glyph glyph-name="Ndotaccent" unicode="&#x1e44;" horiz-adv-x="663" 
d="M280 956h105v-142h-105v142zM468 700h131v-700h-106l-297 441v-441h-131v700h111l292 -434v434z" />
    <glyph glyph-name="ndotaccent" unicode="&#x1e45;" horiz-adv-x="477" 
d="M185 765h105v-142h-105v142zM214 506h55q72 0 122.5 -51t50.5 -129v-325h-123v325q0 30 -15 47.5t-35 17.5h-55q-20 0 -35.5 -16t-15.5 -39v-335h-123v499h92l4 -24q9 11 30 20.5t48 9.5z" />
    <glyph glyph-name="Ndotbelow" unicode="&#x1e46;" horiz-adv-x="663" 
d="M468 700h131v-700h-106l-297 441v-441h-131v700h111l292 -434v434zM280 -37h105v-142h-105v142z" />
    <glyph glyph-name="ndotbelow" unicode="&#x1e47;" horiz-adv-x="477" 
d="M214 506h55q72 0 122.5 -51t50.5 -129v-325h-123v325q0 30 -15 47.5t-35 17.5h-55q-20 0 -35.5 -16t-15.5 -39v-335h-123v499h92l4 -24q9 11 30 20.5t48 9.5zM185 -37h105v-142h-105v142z" />
    <glyph glyph-name="Ncircumflexbelow" unicode="&#x1e4a;" horiz-adv-x="663" 
d="M468 700h131v-700h-106l-297 441v-441h-131v700h111l292 -434v434zM297 -16h63l156 -190h-134l-54 99l-53 -99h-135z" />
    <glyph glyph-name="ncircumflexbelow" unicode="&#x1e4b;" horiz-adv-x="477" 
d="M214 506h55q72 0 122.5 -51t50.5 -129v-325h-123v325q0 30 -15 47.5t-35 17.5h-55q-20 0 -35.5 -16t-15.5 -39v-335h-123v499h92l4 -24q9 11 30 20.5t48 9.5zM202 -16h63l157 -190h-135l-53 99l-54 -99h-134z" />
    <glyph glyph-name="Otildeacute" unicode="&#x1e4c;" horiz-adv-x="644" 
d="M187 987l233 107l32 -92l-231 -104zM195 762l-44 71q1 1 18.5 16.5t40 27t47.5 11.5q53 0 104 -42q19 -15 31 -15q17 0 65 38l59 -62q-39 -40 -66.5 -55.5t-57.5 -15.5q-52 0 -98 37q-3 2 -6 4.5t-5 4l-4.5 3.5t-3.5 3t-3 2l-3 1.5t-2.5 1l-3 1t-2.5 0.5q-2 0 -4 -1
q-12 -2 -62 -31zM302 706h41q117 0 184.5 -62.5t67.5 -191.5v-210q0 -110 -67.5 -179.5t-184.5 -69.5h-41q-118 0 -185 69.5t-67 179.5v210q0 129 67.5 191.5t184.5 62.5zM464 242v210q0 73 -28.5 102t-92.5 29h-41q-64 0 -92.5 -29t-28.5 -102v-210q0 -61 31 -93.5
t90 -32.5h41q59 0 90 32.5t31 93.5z" />
    <glyph glyph-name="otildeacute" unicode="&#x1e4d;" horiz-adv-x="455" 
d="M95 821l233 107l32 -92l-231 -104zM101 577l-44 71q1 1 18.5 16.5t40 27t46.5 11.5q53 0 104 -42q19 -15 31 -15q18 0 66 38l58 -62q-39 -40 -66.5 -55.5t-57.5 -15.5q-52 0 -98 37q-2 2 -5.5 4.5t-5 4t-4 3.5t-4 3l-3 2t-3 1.5l-3 1t-2.5 1t-3 0.5q-1 0 -4 -1
q-11 -2 -61 -31zM202 506h52q78 0 130 -60t52 -137v-127q0 -79 -51.5 -134t-130.5 -55h-52q-79 0 -130.5 55t-51.5 134v127q0 77 51.5 137t130.5 60zM313 182v127q0 34 -18 58t-41 24h-52q-23 0 -41 -24t-18 -58v-127q0 -33 17 -53.5t42 -20.5h52q25 0 42 20.5t17 53.5z" />
    <glyph glyph-name="Omacrongrave" unicode="&#x1e50;" horiz-adv-x="644" 
d="M190 984l33 92l232 -107l-34 -89zM156 845h332v-95h-332v95zM302 706h41q117 0 184.5 -62.5t67.5 -191.5v-210q0 -110 -67.5 -179.5t-184.5 -69.5h-41q-118 0 -185 69.5t-67 179.5v210q0 129 67.5 191.5t184.5 62.5zM464 242v210q0 73 -28.5 102t-92.5 29h-41
q-64 0 -92.5 -29t-28.5 -102v-210q0 -61 31 -93.5t90 -32.5h41q59 0 90 32.5t31 93.5z" />
    <glyph glyph-name="omacrongrave" unicode="&#x1e51;" horiz-adv-x="455" 
d="M96 847l32 91l233 -106l-34 -89zM62 700h332v-95h-332v95zM202 506h52q78 0 130 -60t52 -137v-127q0 -79 -51.5 -134t-130.5 -55h-52q-80 0 -131 55t-51 134v127q0 77 51.5 137t130.5 60zM313 182v127q0 34 -18 58t-41 24h-52q-23 0 -41 -24t-18 -58v-127q0 -33 17 -53.5
t42 -20.5h52q25 0 42 20.5t17 53.5z" />
    <glyph glyph-name="Omacronacute" unicode="&#x1e52;" horiz-adv-x="644" 
d="M189 970l233 106l33 -91l-231 -104zM156 845h332v-95h-332v95zM302 706h41q117 0 184.5 -62.5t67.5 -191.5v-210q0 -110 -67.5 -179.5t-184.5 -69.5h-41q-118 0 -185 69.5t-67 179.5v210q0 129 67.5 191.5t184.5 62.5zM464 242v210q0 73 -28.5 102t-92.5 29h-41
q-64 0 -92.5 -29t-28.5 -102v-210q0 -61 31 -93.5t90 -32.5h41q59 0 90 32.5t31 93.5z" />
    <glyph glyph-name="omacronacute" unicode="&#x1e53;" horiz-adv-x="455" 
d="M95 829l233 107l32 -92l-231 -104zM62 700h332v-95h-332v95zM202 506h52q78 0 130 -59.5t52 -137.5v-127q0 -79 -51.5 -134t-130.5 -55h-52q-80 0 -131 55t-51 134v127q0 78 51.5 137.5t130.5 59.5zM313 182v127q0 34 -18 58t-41 24h-52q-23 0 -41 -24t-18 -58v-127
q0 -33 17 -53.5t42 -20.5h52q25 0 42 20.5t17 53.5z" />
    <glyph glyph-name="Sdotbelow" unicode="&#x1e62;" horiz-adv-x="540" 
d="M273 700h217v-122h-217q-62 0 -84.5 -15.5t-22.5 -57.5q0 -18 5 -30.5t11 -20t25 -14t33.5 -10t48.5 -10.5q40 -8 68 -16t58 -23t48.5 -35t30.5 -51t12 -72q0 -113 -60.5 -168.5t-171.5 -55.5h-239v122h239q57 0 79 22t22 80q0 36 -20.5 49.5t-90.5 27.5l-44 9.5
t-43.5 11.5t-44 17t-37.5 25t-32.5 35t-19.5 46.5t-8 60.5q0 52 18 90.5t51.5 61t75 33t93.5 10.5zM218 -37h105v-142h-105v142z" />
    <glyph glyph-name="sdotbelow" unicode="&#x1e63;" horiz-adv-x="432" 
d="M205 506h194v-115h-194q-33 0 -47.5 -9t-14.5 -29q0 -16 14.5 -24.5t50.5 -11.5l20 -2.5t16 -1.5q79 -9 124 -49t45 -106q0 -84 -55.5 -124t-143.5 -40h-181v115h181q45 0 60.5 11t15.5 38q0 19 -12 27.5t-47 12.5l-36 4q-36 4 -66 14t-55.5 27t-39.5 45t-14 65
q0 40 16 70.5t43 48t59 26t67 8.5zM164 -37h105v-142h-105v142z" />
    <glyph glyph-name="Tdotbelow" unicode="&#x1e6c;" horiz-adv-x="554" 
d="M10 700h535v-117h-201v-583h-131v583h-203v117zM225 -37h105v-142h-105v142z" />
    <glyph glyph-name="tdotbelow" unicode="&#x1e6d;" horiz-adv-x="360" 
d="M78 606h123v-106h140v-114h-140v-216q0 -39 9.5 -51t36.5 -12h94v-115h-94q-86 0 -127.5 48t-41.5 130v216h-68v114h68v106zM131 -37h105v-142h-105v142z" />
    <glyph glyph-name="Tlinebelow" unicode="&#x1e6e;" horiz-adv-x="554" 
d="M10 700h535v-117h-201v-583h-131v583h-203v117zM111 -46h332v-95h-332v95z" />
    <glyph glyph-name="tlinebelow" unicode="&#x1e6f;" horiz-adv-x="360" 
d="M78 606h123v-106h140v-114h-140v-216q0 -39 9.5 -51t36.5 -12h94v-115h-94q-86 0 -127.5 48t-41.5 130v216h-68v114h68v106zM30 -46h332v-95h-332v95z" />
    <glyph glyph-name="Tcircumflexbelow" unicode="&#x1e70;" horiz-adv-x="554" 
d="M10 700h535v-117h-201v-583h-131v583h-203v117zM242 -16h63l156 -190h-134l-54 99l-53 -99h-135z" />
    <glyph glyph-name="tcircumflexbelow" unicode="&#x1e71;" horiz-adv-x="360" 
d="M78 606h123v-106h140v-114h-140v-216q0 -39 9.5 -51t36.5 -12h94v-115h-94q-86 0 -127.5 48t-41.5 130v216h-68v114h68v106zM148 -16h63l157 -190h-134l-54 99l-54 -99h-134z" />
    <glyph glyph-name="Wgrave" unicode="&#x1e80;" horiz-adv-x="737" 
d="M236 882l33 91l233 -106l-34 -89zM595 700h133l-134 -700h-108l-117 246l-119 -246h-106l-134 700h133l86 -446l93 195h94l93 -195z" />
    <glyph glyph-name="wgrave" unicode="&#x1e81;" horiz-adv-x="710" 
d="M223 682l33 91l232 -106l-34 -89zM572 500h129l-164 -500h-101l-81 253l-80 -253h-102l-163 500h129l84 -258l82 258h100l82 -257z" />
    <glyph glyph-name="Wacute" unicode="&#x1e82;" horiz-adv-x="737" 
d="M236 868l233 106l32 -91l-231 -104zM595 700h133l-134 -700h-108l-117 246l-119 -246h-106l-134 700h133l86 -446l93 195h94l93 -195z" />
    <glyph glyph-name="wacute" unicode="&#x1e83;" horiz-adv-x="710" 
d="M222 668l233 106l33 -91l-231 -104zM572 500h129l-164 -500h-101l-81 253l-80 -253h-102l-163 500h129l84 -258l82 258h100l82 -257z" />
    <glyph glyph-name="Wdieresis" unicode="&#x1e84;" horiz-adv-x="737" 
d="M249 957h105v-142h-105v142zM384 957h105v-142h-105v142zM595 700h133l-134 -700h-108l-117 246l-119 -246h-106l-134 700h133l86 -446l93 195h94l93 -195z" />
    <glyph glyph-name="wdieresis" unicode="&#x1e85;" horiz-adv-x="710" 
d="M235 757h105v-142h-105v142zM370 757h105v-142h-105v142zM572 500h129l-164 -500h-101l-81 253l-80 -253h-102l-163 500h129l84 -258l82 258h100l82 -257z" />
    <glyph glyph-name="Zdotbelow" unicode="&#x1e92;" horiz-adv-x="555" 
d="M55 700h456v-82l-299 -496h309v-122h-486v82l298 496h-278v122zM252 -37h105v-142h-105v142z" />
    <glyph glyph-name="zdotbelow" unicode="&#x1e93;" horiz-adv-x="418" 
d="M24 500h372v-78l-206 -307h209v-115h-379v78l206 307h-202v115zM157 -37h105v-142h-105v142z" />
    <glyph glyph-name="adotbelow" unicode="&#x1ea1;" horiz-adv-x="445" 
d="M52 500h202q69 0 112.5 -46t43.5 -114v-340h-91l-5 29q-8 -10 -26.5 -19.5t-39.5 -9.5h-71q-68 0 -115 46t-47 112t47 112.5t115 46.5h110v23q0 22 -9 33.5t-24 11.5h-202v115zM287 153v49h-110q-16 0 -27.5 -13t-11.5 -31t11.5 -30.5t27.5 -12.5h71q14 0 26.5 12
t12.5 26zM159 -37h105v-142h-105v142z" />
    <glyph glyph-name="Acircumflexdotbelow" unicode="&#x1eac;" 
d="M282 957h62l157 -190h-134l-54 99l-54 -99h-134zM258 700h108l250 -700h-138l-57 161h-218l-56 -161h-137zM376 283l-64 179h-2l-64 -179h130zM261 -37h105v-142h-105v142z" />
    <glyph glyph-name="acircumflexdotbelow" unicode="&#x1ead;" horiz-adv-x="445" 
d="M192 757h62l157 -190h-134l-54 99l-54 -99h-134zM52 500h202q69 0 112.5 -46t43.5 -114v-340h-91l-5 29q-8 -10 -26.5 -19.5t-39.5 -9.5h-71q-68 0 -115 46t-47 112t47 112.5t115 46.5h110v23q0 22 -9 33.5t-24 11.5h-202v115zM287 153v49h-110q-16 0 -27.5 -13
t-11.5 -31t11.5 -30.5t27.5 -12.5h71q14 0 26.5 12t12.5 26zM159 -37h105v-142h-105v142z" />
    <glyph glyph-name="Edotbelow" unicode="&#x1eb8;" horiz-adv-x="560" 
d="M70 700h455v-122h-324v-155h273v-122h-273v-179h324v-122h-455v700zM222 -37h105v-142h-105v142z" />
    <glyph glyph-name="edotbelow" unicode="&#x1eb9;" horiz-adv-x="438" 
d="M20 240v67q0 93 57 147t143 54q97 0 150.5 -53t53.5 -148v-110h-281v-1q1 -80 74 -80h195v-115h-195q-109 0 -153 61.5t-44 177.5zM301 307v6q-1 43 -20 61.5t-61 18.5q-35 0 -55.5 -20.5t-21.5 -59.5v-6h158zM167 -37h105v-142h-105v142z" />
    <glyph glyph-name="Etilde" unicode="&#x1ebc;" horiz-adv-x="560" 
d="M148 829l-44 71q1 1 18.5 16.5t40 27t46.5 11.5q53 0 104 -42q19 -15 31 -15q18 0 66 38l58 -62q-39 -40 -66.5 -55.5t-57.5 -15.5q-52 0 -98 37q-2 2 -5.5 4.5t-5 4t-4 3.5t-4 2.5t-3 2t-3 2l-3 1t-2.5 0.5h-3h-4q-11 -2 -61 -31zM70 700h455v-122h-324v-155h273v-122
h-273v-179h324v-122h-455v700z" />
    <glyph glyph-name="etilde" unicode="&#x1ebd;" horiz-adv-x="438" 
d="M93 629l-44 71q1 1 18.5 16.5t40 27t46.5 11.5q53 0 104 -42q20 -15 31 -15q18 0 66 38l58 -62q-39 -40 -66.5 -55.5t-57.5 -15.5q-52 0 -98 37q-2 2 -5.5 4.5t-5 4t-4 3.5t-3.5 2.5t-3 2t-3.5 2l-3 1t-2.5 0.5h-3h-4q-11 -2 -61 -31zM20 240v67q0 93 57 147t143 54
q97 0 150.5 -53t53.5 -148v-110h-281v-1q1 -80 74 -80h195v-115h-195q-109 0 -153 61.5t-44 177.5zM301 307v6q-1 43 -20 61.5t-61 18.5q-35 0 -55.5 -20.5t-21.5 -59.5v-6h158z" />
    <glyph glyph-name="Ecircumflexdotbelow" unicode="&#x1ec6;" horiz-adv-x="560" 
d="M244 957h62l157 -190h-134l-54 99l-54 -99h-134zM70 700h455v-122h-324v-155h273v-122h-273v-179h324v-122h-455v700zM222 -37h105v-142h-105v142z" />
    <glyph glyph-name="ecircumflexdotbelow" unicode="&#x1ec7;" horiz-adv-x="438" 
d="M189 757h62l157 -190h-134l-54 99l-54 -99h-134zM20 240v67q0 93 57 147t143 54q97 0 150.5 -53t53.5 -148v-110h-281v-1q1 -80 74 -80h195v-115h-195q-109 0 -153 61.5t-44 177.5zM301 307v6q-1 43 -20 61.5t-61 18.5q-35 0 -55.5 -20.5t-21.5 -59.5v-6h158zM167 -37
h105v-142h-105v142z" />
    <glyph glyph-name="Idotbelow" unicode="&#x1eca;" horiz-adv-x="270" 
d="M70 700h131v-700h-131v700zM83 -38h105v-142h-105v142z" />
    <glyph glyph-name="idotbelow" unicode="&#x1ecb;" horiz-adv-x="208" 
d="M45 659h123v-132h-123v132zM45 500h123v-500h-123v500zM54 -37h105v-142h-105v142z" />
    <glyph glyph-name="Odotbelow" unicode="&#x1ecc;" horiz-adv-x="644" 
d="M302 706h41q117 0 184.5 -62.5t67.5 -191.5v-210q0 -110 -67.5 -179.5t-184.5 -69.5h-41q-118 0 -185 69.5t-67 179.5v210q0 129 67.5 191.5t184.5 62.5zM464 242v210q0 73 -28.5 102t-92.5 29h-41q-64 0 -92.5 -29t-28.5 -102v-210q0 -61 31 -93.5t90 -32.5h41
q59 0 90 32.5t31 93.5zM270 -37h105v-142h-105v142z" />
    <glyph glyph-name="odotbelow" unicode="&#x1ecd;" horiz-adv-x="455" 
d="M202 506h52q78 0 130 -60t52 -137v-127q0 -79 -51.5 -134t-130.5 -55h-52q-79 0 -130.5 55t-51.5 134v127q0 77 51.5 137t130.5 60zM313 182v127q0 34 -18 58t-41 24h-52q-23 0 -41 -24t-18 -58v-127q0 -33 17 -53.5t42 -20.5h52q25 0 42 20.5t17 53.5zM174 -37h105v-142
h-105v142z" />
    <glyph glyph-name="Ocircumflexdotbelow" unicode="&#x1ed8;" horiz-adv-x="644" 
d="M291 957h63l156 -190h-134l-54 99l-53 -99h-135zM302 706h41q117 0 184.5 -62.5t67.5 -191.5v-210q0 -110 -67.5 -179.5t-184.5 -69.5h-41q-118 0 -185 69.5t-67 179.5v210q0 129 67.5 191.5t184.5 62.5zM464 242v210q0 73 -28.5 102t-92.5 29h-41q-64 0 -92.5 -29
t-28.5 -102v-210q0 -61 31 -93.5t90 -32.5h41q59 0 90 32.5t31 93.5zM270 -37h105v-142h-105v142z" />
    <glyph glyph-name="ocircumflexdotbelow" unicode="&#x1ed9;" horiz-adv-x="455" 
d="M197 757h62l157 -190h-134l-54 99l-54 -99h-134zM202 506h52q78 0 130 -60t52 -137v-127q0 -79 -51.5 -134t-130.5 -55h-52q-79 0 -130.5 55t-51.5 134v127q0 77 52 137t130 60zM313 182v127q0 34 -18 58t-41 24h-52q-23 0 -41 -24t-18 -58v-127q0 -33 17 -53.5t42 -20.5
h52q25 0 42 20.5t17 53.5zM174 -37h105v-142h-105v142z" />
    <glyph glyph-name="Udotbelow" unicode="&#x1ee4;" horiz-adv-x="645" 
d="M450 700h131v-486q0 -98 -53 -160t-146 -62h-106q-87 0 -146.5 59.5t-59.5 162.5v486h131v-486q0 -50 21 -75t54 -25h106q32 0 50 25t18 75v486zM273 -38h105v-142h-105v142z" />
    <glyph glyph-name="udotbelow" unicode="&#x1ee5;" horiz-adv-x="472" 
d="M314 500h123v-500h-92l-4 24q-9 -11 -29.5 -20.5t-47.5 -9.5h-55q-72 0 -123 51t-51 129v326h123v-326q0 -30 15 -47.5t36 -17.5h55q19 0 34.5 16t15.5 39v336zM184 -37h105v-142h-105v142z" />
    <glyph glyph-name="Ygrave" unicode="&#x1ef2;" horiz-adv-x="616" 
d="M176 882l33 91l233 -106l-34 -89zM456 700h151l-233 -387v-313h-131v313l-233 387h151l148 -246z" />
    <glyph glyph-name="ygrave" unicode="&#x1ef3;" horiz-adv-x="485" 
d="M110 682l33 91l233 -106l-34 -89zM345 500h130l-247 -680h-130l80 221l-168 459h129l104 -282z" />
    <glyph glyph-name="endash" unicode="&#x2013;" horiz-adv-x="517" 
d="M30 334h458v-123h-458v123z" />
    <glyph glyph-name="emdash" unicode="&#x2014;" horiz-adv-x="633" 
d="M30 334h573v-123h-573v123z" />
    <glyph glyph-name="quoteleft" unicode="&#x2018;" horiz-adv-x="214" 
d="M30 540v125q0 46 37 77.5t85 31.5q6 0 11 -1l22 -50q-17 -15 -20.5 -27t-3.5 -31v-125h-131z" />
    <glyph glyph-name="quoteright" unicode="&#x2019;" horiz-adv-x="214" 
d="M54 774h131v-125q0 -46 -37.5 -77.5t-84.5 -31.5q-6 0 -12 1l-21 50q16 15 20 27t4 31v125z" />
    <glyph glyph-name="quotesinglbase" unicode="&#x201a;" horiz-adv-x="214" 
d="M54 176l131 1v-125q0 -46 -37.5 -77.5t-84.5 -31.5q-6 0 -12 1l-21 50q16 15 20 27t4 31v124z" />
    <glyph glyph-name="quotedblleft" unicode="&#x201c;" horiz-adv-x="381" 
d="M30 540v125q0 46 37 77.5t85 31.5q6 0 11 -1l22 -50q-17 -15 -20.5 -27t-3.5 -31v-125h-131zM197 540v125q0 46 37 77.5t85 31.5q6 0 11 -1l22 -50q-17 -15 -20.5 -27t-3.5 -31v-125h-131z" />
    <glyph glyph-name="quotedblright" unicode="&#x201d;" horiz-adv-x="381" 
d="M54 774h131v-125q0 -46 -37.5 -77.5t-84.5 -31.5q-6 0 -12 1l-21 50q16 15 20 27t4 31v125zM221 774h131v-125q0 -46 -37.5 -77t-84.5 -31h-11l-22 50q16 15 20 27t4 31v125z" />
    <glyph glyph-name="quotedblbase" unicode="&#x201e;" horiz-adv-x="381" 
d="M54 176l131 1v-125q0 -46 -37.5 -77.5t-84.5 -31.5q-6 0 -12 1l-21 50q16 15 20 27t4 31v124zM221 177h131v-125q0 -46 -37.5 -77.5t-84.5 -31.5q-6 0 -11 1l-22 50q16 15 20 27t4 31v125z" />
    <glyph glyph-name="dagger" unicode="&#x2020;" horiz-adv-x="447" 
d="M159 700h131v-173h127v-122h-127v-460h-131v460h-129v122h129v173z" />
    <glyph glyph-name="daggerdbl" unicode="&#x2021;" horiz-adv-x="447" 
d="M159 700h131v-168h127v-122h-127v-279h127v-122h-127v-186h-131v186h-129v122h129v279h-129v122h129v168z" />
    <glyph glyph-name="bullet" unicode="&#x2022;" horiz-adv-x="354" 
d="M177 456q60 0 103.5 -42.5t43.5 -100.5t-43.5 -100t-103.5 -42q-61 0 -104 42t-43 100t43 100.5t104 42.5z" />
    <glyph glyph-name="ellipsis" unicode="&#x2026;" horiz-adv-x="497" 
d="M30 177h131v-177h-131v177zM183 177h131v-177h-131v177zM337 177h130v-177h-130v177z" />
    <glyph glyph-name="perthousand" unicode="&#x2030;" horiz-adv-x="965" 
d="M560 716h116l-531 -733h-115zM204 700q133 0 133 -155q0 -77 -34 -118t-99 -41t-99 41t-34 119q0 154 133 154zM204 616q-20 0 -27.5 -14t-7.5 -56q0 -44 7.5 -59.5t28 -15.5t28 15.5t7.5 58.5t-7 57t-29 14zM504 314q65 0 99 -39t34 -116t-34.5 -118t-98.5 -41
q-65 0 -99 41t-34 119q0 154 133 154zM803 314q64 0 98.5 -39t34.5 -116t-34.5 -118t-98.5 -41q-66 0 -99.5 41t-33.5 119q0 154 133 154zM504 229q-21 0 -29 -13.5t-8 -55.5q0 -44 8.5 -60t28.5 -16t28 16t8 59t-7.5 56.5t-28.5 13.5zM803 229q-22 0 -29.5 -13.5
t-7.5 -55.5q0 -44 8 -60t29 -16q20 0 27.5 16t7.5 59t-7 56.5t-28 13.5z" />
    <glyph glyph-name="guilsinglleft" unicode="&#x2039;" horiz-adv-x="284" 
d="M30 310l224 176v-156l-66 -52l66 -52v-156l-224 176v64z" />
    <glyph glyph-name="guilsinglright" unicode="&#x203a;" horiz-adv-x="284" 
d="M30 330v156l224 -176v-64l-224 -176v156l66 52z" />
    <glyph glyph-name="fraction" unicode="&#x2044;" horiz-adv-x="495" 
d="M359 716h107l-330 -733h-106z" />
    <glyph glyph-name="euro" unicode="&#x20ac;" horiz-adv-x="627" 
d="M97 449v4q0 129 67.5 191.5t185.5 62.5q226 0 247 -246h-130q-5 70 -31 96.5t-86 26.5q-65 0 -93.5 -29t-28.5 -102v-4h217v-91h-217v-31h186v-91h-186v-5q0 -116 122 -116q57 0 83 34t31 102h131q-10 -119 -70 -189t-175 -70q-118 0 -185.5 69.5t-67.5 179.5v-5h-67v91
h67v31h-67v91h67z" />
    <glyph glyph-name="trademark" unicode="&#x2122;" horiz-adv-x="845" 
d="M30 700h342v-87h-123v-355h-96v355h-123v87zM733 700h82v-442h-96v234l-71 -119h-68l-69 118v-233h-97v442h83l118 -201z" />
    <glyph glyph-name="partialdiff" unicode="&#x2202;" horiz-adv-x="893" 
 />
    <glyph glyph-name="product" unicode="&#x220f;" horiz-adv-x="893" 
 />
    <glyph glyph-name="summation" unicode="&#x2211;" horiz-adv-x="893" 
 />
    <glyph glyph-name="minus" unicode="&#x2212;" horiz-adv-x="587" 
d="M30 376h528v-123h-528v123z" />
    <glyph glyph-name="radical" unicode="&#x221a;" horiz-adv-x="893" 
 />
    <glyph glyph-name="infinity" unicode="&#x221e;" horiz-adv-x="893" 
 />
    <glyph glyph-name="integral" unicode="&#x222b;" horiz-adv-x="893" 
 />
    <glyph glyph-name="approxequal" unicode="&#x2248;" horiz-adv-x="893" 
 />
    <glyph glyph-name="notequal" unicode="&#x2260;" horiz-adv-x="587" 
d="M348 566h142l-65 -148h133v-122h-188l-17 -40h205v-122h-260l-59 -134h-143l60 134h-126v122h180l18 40h-198v122h253z" />
    <glyph glyph-name="lessequal" unicode="&#x2264;" horiz-adv-x="467" 
d="M30 487l407 263v-147l-237 -155v-5l237 -155v-148l-407 263v84zM30 122h407v-122h-407v122z" />
    <glyph glyph-name="greaterequal" unicode="&#x2265;" horiz-adv-x="467" 
d="M30 603v147l407 -263v-84l-407 -263v148l238 155v5zM30 122h407v-122h-407v122z" />
    <glyph glyph-name="lozenge" unicode="&#x25ca;" horiz-adv-x="893" 
 />
    <glyph glyph-name="apple" unicode="&#xf8ff;" horiz-adv-x="0" 
 />
    <glyph glyph-name="fi" unicode="&#xfb01;" horiz-adv-x="543" 
d="M73 500v21q1 49 20.5 86.5t51.5 58.5t69.5 31.5t81.5 10.5q14 0 29 -1v-110q-10 1 -20 1q-107 0 -106 -77v-21h126v-110h-134v-390h-123v390h-58v110h63zM380 659h123v-132h-123v132zM380 500h123v-500h-123v500z" />
    <glyph glyph-name="fl" unicode="&#xfb02;" horiz-adv-x="543" 
d="M73 500v21q1 49 20.5 86.5t51.5 58.5t69.5 31.5t81.5 10.5q14 0 29 -1v-110q-10 1 -20 1q-107 0 -106 -77v-21h126v-110h-134v-390h-123v390h-58v110h63zM380 700h123v-700h-123v700z" />
    </font>
</defs>
</svg>
