<?xml version="1.0" standalone="no"?>
<!DOCTYPE svg PUBLIC "-//W3C//DTD SVG 1.1//EN" "http://www.w3.org/Graphics/SVG/1.1/DTD/svg11.dtd" >
<svg>
<metadata>
Created by FontForge 20090622 at Wed Nov  8 11:32:10 2017
 By deploy user
Copyright (c)2014 Commercial Type.
</metadata>
<defs>
<font id="DrukWeb-Medium" horiz-adv-x="342" >
  <font-face 
    font-family="Druk Web Medium"
    font-weight="500"
    font-stretch="normal"
    units-per-em="1000"
    panose-1="0 0 0 0 0 0 0 0 0 0"
    ascent="812"
    descent="-188"
    x-height="538"
    cap-height="744"
    bbox="-50 -214.954 878 1054"
    underline-thickness="84"
    underline-position="64"
    unicode-range="U+0020-U+FB02"
  />
<missing-glyph horiz-adv-x="364" 
d="M33 0v666h265v-666h-265zM66 33h199v600h-199v-600z" />
    <glyph glyph-name="f_f" unicode="ff" horiz-adv-x="454" 
d="M445 645h-48q-14 0 -18 -6t-4 -20v-81h70v-102h-70v-436h-107v436h-91v-436h-107v436h-64v102h64v137q0 11 3.5 23t12 22.5t23 17t37.5 6.5h100v-99h-47q-14 0 -18 -6t-4 -20v-81h91v137q0 11 3.5 23t12 22.5t23 17t37.5 6.5h101v-99z" />
    <glyph glyph-name="f_i" unicode="fi" horiz-adv-x="395" 
d="M243 645h-44q-14 0 -18 -6t-4 -20v-81h66v-102h-66v-436h-107v436h-64v102h64v137q0 11 3.5 23t12 22.5t23 17t37.5 6.5h97v-99zM375 0h-107v538h107v-538zM375 567h-107v115h107v-115z" />
    <glyph glyph-name="f_l" unicode="fl" horiz-adv-x="395" 
d="M243 645h-44q-14 0 -18 -6t-4 -20v-81h66v-102h-66v-436h-107v436h-64v102h64v137q0 11 3.5 23t12 22.5t23 17t37.5 6.5h97v-99zM375 0h-107v744h107v-744z" />
    <glyph glyph-name="emdash.alt" unicode="&#x2014;&#x2014;" horiz-adv-x="894" 
d="M16 261v78h862v-78h-862z" />
    <glyph glyph-name=".notdef" horiz-adv-x="364" 
d="M33 0v666h265v-666h-265zM66 33h199v600h-199v-600z" />
    <glyph glyph-name=".null" horiz-adv-x="0" 
 />
    <glyph glyph-name="nonmarkingreturn" horiz-adv-x="333" 
 />
    <glyph glyph-name="space" unicode=" " horiz-adv-x="102" 
 />
    <glyph glyph-name="exclam" unicode="!" horiz-adv-x="152" 
d="M127 0h-104v128h104v-128zM138 744l-44 -591h-37l-43 591h124z" />
    <glyph glyph-name="quotedbl" unicode="&#x22;" horiz-adv-x="220" 
d="M99 569h-82v175h82v-175zM203 569h-82v175h82v-175z" />
    <glyph glyph-name="numbersign" unicode="#" horiz-adv-x="366" 
d="M195 744l-20 -217h40l20 217h83l-20 -217h65l-8 -82h-65l-9 -105h64l-9 -84h-63l-23 -256h-83l23 256h-40l-23 -256h-82l23 256h-65l9 84h63l10 105h-64l9 82h62l20 217h83zM158 340h40l9 105h-40z" />
    <glyph glyph-name="dollar" unicode="$" horiz-adv-x="335" 
d="M148 -8q-66 2 -99.5 38.5t-33.5 102.5v143h106v-130q0 -23 6 -35t21 -16v224l-66 79q-19 22 -31.5 43.5t-20 43.5t-11 46.5t-3.5 54.5v20q0 68 34.5 105.5t97.5 39.5v61h35v-61q65 -2 94 -32.5t29 -96.5v-117h-98v106q0 17 -5.5 28t-19.5 15v-199l71 -84q21 -24 34 -45
t20.5 -42t10 -44.5t2.5 -51.5v-23q0 -78 -35.5 -124.5t-102.5 -48.5v-67h-35v67zM210 179q0 34 -5 54t-22 44v-182q27 10 27 62v22zM123 584q0 -29 5.5 -48t19.5 -38v156q-15 -4 -20 -16.5t-5 -35.5v-18z" />
    <glyph glyph-name="percent" unicode="%" horiz-adv-x="465" 
d="M14 652q0 47 25 72t67 25h19q42 0 66 -25.5t24 -71.5v-144q0 -44 -23.5 -70.5t-66.5 -26.5h-19q-40 0 -66 24.5t-26 72.5v144zM251 237q0 47 25 72t67 25h18q42 0 66 -25.5t24 -71.5v-144q0 -44 -23 -70.5t-66 -26.5h-19q-40 0 -66 24.5t-26 72.5v144zM405 744l-268 -744
h-74l268 744h74zM134 651q0 10 -5 16.5t-16 6.5q-9 0 -13.5 -6.5t-4.5 -16.5v-141q0 -10 4.5 -16.5t13.5 -6.5q11 0 16 6.5t5 16.5v141zM350 72q11 0 15.5 7t4.5 16v141q0 10 -4.5 16.5t-15.5 6.5q-10 0 -14 -6.5t-4 -16.5v-141q0 -9 4 -16t14 -7z" />
    <glyph glyph-name="ampersand" unicode="&#x26;" horiz-adv-x="425" 
d="M13 231q0 36 8 65.5t20.5 53t28.5 42t32 32.5q-20 45 -32.5 86.5t-12.5 88.5v26q0 25 6.5 48t21 40t37.5 27.5t55 10.5h20q36 0 58 -10.5t34 -28t16.5 -41.5t4.5 -51v-11q0 -26 -3.5 -48.5t-13.5 -44t-28.5 -45t-48.5 -51.5l88 -202q7 54 7 115v114h99q-2 -104 -10 -186
t-36 -151q16 -16 30.5 -21t28.5 -7l-29 -100q-21 4 -44 11.5t-46 30.5q-14 -14 -36.5 -23.5t-55.5 -9.5h-18q-88 0 -134.5 53.5t-46.5 149.5v37zM213 87q23 0 40 12l-2 6l-112 239q-7 -16 -12 -39.5t-5 -54.5v-15q0 -80 26 -114t65 -34zM156 604q0 -29 7 -53.5t21 -58.5
q20 30 25.5 53.5t5.5 57.5v16q0 22 -6 33t-23 11q-30 0 -30 -45v-14z" />
    <glyph glyph-name="quotesingle" unicode="'" horiz-adv-x="118" 
d="M101 569h-84v175h84v-175z" />
    <glyph glyph-name="parenleft" unicode="(" horiz-adv-x="207" 
d="M31 344q0 78 9 145.5t23.5 125t34 105.5t40.5 88h67q-29 -80 -49.5 -198.5t-20.5 -262.5q0 -146 22.5 -268t50.5 -210h-67q-19 37 -38.5 85.5t-35.5 108t-26 130t-10 151.5z" />
    <glyph glyph-name="parenright" unicode=")" horiz-adv-x="207" 
d="M72 347q0 144 -20.5 262.5t-49.5 198.5h67q21 -40 40.5 -88t34 -105.5t23.5 -125t9 -145.5q0 -81 -10 -151.5t-26 -130t-35.5 -108t-38.5 -85.5h-67q28 88 50.5 210t22.5 268z" />
    <glyph glyph-name="asterisk" unicode="*" horiz-adv-x="237" 
d="M195 717l31 -55l-58 -24l58 -27l-32 -54l-50 39l7 -65h-65l7 65l-50 -39l-32 54l57 27l-57 24l31 55l50 -38l-6 65h65l-6 -65z" />
    <glyph glyph-name="plus" unicode="+" horiz-adv-x="337" 
d="M123 260h-107v85h107v126h91v-126h107v-85h-107v-125h-91v125z" />
    <glyph glyph-name="comma" unicode="," horiz-adv-x="137" 
d="M38 -90q5 13 12 39t9 51h-43v128h105v-94q0 -47 -9.5 -77.5t-17.5 -46.5h-56z" />
    <glyph glyph-name="hyphen" unicode="-" horiz-adv-x="173" 
d="M157 347v-98h-141v98h141z" />
    <glyph glyph-name="period" unicode="." horiz-adv-x="137" 
d="M121 0h-105v128h105v-128z" />
    <glyph glyph-name="slash" unicode="/" horiz-adv-x="209" 
d="M77 -131h-84l128 939h84z" />
    <glyph glyph-name="zero" unicode="0" horiz-adv-x="341" 
d="M320 146q0 -33 -9 -61.5t-26.5 -49.5t-43.5 -32.5t-60 -11.5h-25q-66 0 -100.5 39t-34.5 116v434q0 81 32 126t109 45h21q40 0 66 -12.5t42 -34.5t22.5 -53.5t6.5 -68.5v-436zM205 586q0 29 -7.5 42t-27.5 13t-27 -13.5t-7 -41.5v-432q0 -20 5.5 -35t27.5 -15t29 14t7 36
v432z" />
    <glyph glyph-name="one" unicode="1" horiz-adv-x="224" 
d="M8 570v92q50 3 70.5 20.5t28.5 61.5h91v-744h-114v570h-76z" />
    <glyph glyph-name="two" unicode="2" horiz-adv-x="330" 
d="M163 643q-16 0 -22 -9t-6 -30v-127h-108v136q0 27 6 51.5t20 44t38 31t59 11.5h23q63 0 100.5 -31.5t37.5 -106.5v-37q0 -33 -1.5 -57.5t-8 -48t-20 -49t-36.5 -60.5q-15 -23 -35 -50.5l-37 -51.5q-25 -36 -39.5 -60t-21.5 -41t-8.5 -29t-1.5 -23h100v143h114v-249h-308
v56q0 36 3.5 65.5t13 59.5t26.5 64.5t44 81.5l65 115q12 21 18.5 36t9.5 28t3.5 24.5t0.5 25.5v48q0 21 -7.5 30t-21.5 9z" />
    <glyph glyph-name="three" unicode="3" horiz-adv-x="327" 
d="M24 520v94q0 22 5.5 46t18.5 44.5t35.5 33.5t57.5 13h28q70 0 101.5 -38.5t31.5 -100.5v-85q0 -29 -3.5 -49t-10 -33.5t-15 -21.5t-18.5 -13q26 -10 40 -29t14 -60v-183q0 -68 -35.5 -107.5t-95.5 -39.5h-31q-36 0 -61 10t-40.5 27.5t-22.5 40.5t-7 50v151h112v-122
q0 -44 33 -44q31 0 31 44v155q0 20 -5 29t-25 9h-61v116h53q21 0 26.5 8.5t5.5 33.5v104q0 23 -6.5 32t-22.5 9q-15 0 -21.5 -8.5t-6.5 -31.5v-84h-105z" />
    <glyph glyph-name="four" unicode="4" horiz-adv-x="346" 
d="M161 480q-30 -97 -68 -198h68v198zM7 273l39 105.5l47.5 132l46 132l34.5 104.5h98v-465h69v-102h-69v-180h-111v180h-154v93z" />
    <glyph glyph-name="five" unicode="5" horiz-adv-x="329" 
d="M26 333v411h278v-112h-167v-167q14 29 37 51t54 22h4q22 0 37 -7.5t24.5 -20t13.5 -28.5t4 -32v-319q0 -26 -7.5 -51.5t-24 -45t-42 -31.5t-62.5 -12h-21q-43 0 -70 12.5t-42 31.5t-20.5 41.5t-5.5 42.5v153h116v-131q0 -19 6 -31t24 -12q16 0 22 12.5t6 30.5v237
q0 16 -3.5 30t-22.5 14t-23 -14t-4 -30v-45h-111z" />
    <glyph glyph-name="six" unicode="6" horiz-adv-x="336" 
d="M170 98q33 0 33 47v181q0 46 -33 46t-33 -44v-183q0 -47 33 -47zM237 475q23 0 39 -8.5t25.5 -21.5t13.5 -28.5t4 -29.5v-247q0 -30 -7.5 -57t-24 -47.5t-43 -32.5t-63.5 -12h-21q-38 0 -64 11.5t-43 31.5t-24.5 46t-7.5 55v470q0 68 30 107t102 39h20q70 0 101 -33
t31 -84v-110h-115v85q0 13 -5 24.5t-22 11.5t-22 -11.5t-5 -24.5v-201q7 11 16.5 23t21.5 21.5t27 16t32 6.5h4z" />
    <glyph glyph-name="seven" unicode="7" horiz-adv-x="306" 
d="M295 744v-109l-41 -237q-9 -54 -15.5 -103t-10.5 -89.5t-5.5 -72t-1.5 -49.5v-84h-137v73q0 20 2 44.5t8 57t16.5 75t27.5 97.5q24 82 38 134t21 84t9 49t2 28h-86v-118h-107v220h280z" />
    <glyph glyph-name="eight" unicode="8" horiz-adv-x="329" 
d="M195 295q0 21 -7 32t-24 11t-23.5 -10t-6.5 -33v-158q0 -16 7 -26.5t24 -10.5q16 0 23 10.5t7 26.5v158zM193 610q0 16 -4.5 28.5t-24.5 12.5t-24 -12.5t-4 -28.5v-119q0 -16 6.5 -27t22.5 -11q14 0 21 10t7 27v120zM305 508q0 -40 -15.5 -62.5t-32.5 -33.5
q26 -15 41 -38.5t15 -65.5v-179q0 -28 -8 -53t-24.5 -44t-43 -30t-63.5 -11h-21q-37 0 -63 11t-42.5 30t-24 44.5t-7.5 54.5v177q0 42 17.5 67t34.5 37q-16 13 -30.5 34.5t-14.5 61.5v116q0 23 6 45.5t21 40.5t39.5 29.5t62.5 11.5h20q70 0 101.5 -37t31.5 -94v-112z" />
    <glyph glyph-name="nine" unicode="9" horiz-adv-x="336" 
d="M101 267q-20 0 -36 9.5t-26.5 24.5t-16 33.5t-5.5 36.5v240q0 29 7 54.5t23.5 44.5t42.5 30t65 11h23q39 0 65.5 -11t42 -29.5t22.5 -44t7 -55.5v-490q0 -57 -31.5 -93.5t-98.5 -36.5h-25q-36 0 -61 9.5t-40.5 26.5t-22 40.5t-6.5 52.5v98h117v-84q0 -14 5 -26t23 -12
q16 0 20.5 12t4.5 26v199q-6 -9 -15.5 -20.5t-21.5 -21.5t-27 -17t-32 -7h-3zM166 644q-22 0 -27.5 -15t-5.5 -31v-181q0 -47 33 -47q19 0 26.5 12t7.5 33v183q0 18 -6 32t-28 14z" />
    <glyph glyph-name="colon" unicode=":" horiz-adv-x="141" 
d="M123 0h-105v128h105v-128zM123 299h-105v128h105v-128z" />
    <glyph glyph-name="semicolon" unicode=";" horiz-adv-x="141" 
d="M40 -90q5 13 12 39t9 51h-43v128h105v-94q0 -47 -9.5 -77.5t-17.5 -46.5h-56zM123 299h-105v128h105v-128z" />
    <glyph glyph-name="less" unicode="&#x3c;" horiz-adv-x="283" 
d="M10 341l260 104v-82l-162 -61l162 -60v-81l-260 104v76z" />
    <glyph glyph-name="equal" unicode="=" horiz-adv-x="334" 
d="M316 287v-76h-298v76h298zM316 394v-76h-298v76h298z" />
    <glyph glyph-name="greater" unicode="&#x3e;" horiz-adv-x="283" 
d="M13 445l260 -104v-76l-260 -104v81l161 61l-161 60v82z" />
    <glyph glyph-name="question" unicode="?" horiz-adv-x="305" 
d="M92 153v120q0 24 1 40.5t5 30.5t10.5 28.5t18.5 34.5l29 49q8 13 12.5 24.5t7 22.5t3 23t0.5 27v54q0 21 -6 30t-23 9t-22 -9t-5 -30v-120h-108v120q0 31 5 58t18.5 46.5t37.5 30.5t63 11h22q39 0 64.5 -9.5t40.5 -27.5t21.5 -43.5t6.5 -58.5v-74q0 -19 -2.5 -35
t-7.5 -32t-13.5 -32t-21.5 -35l-33 -46q-11 -16 -17.5 -28.5t-10 -25.5t-4.5 -28.5t-1 -37.5v-87h-91zM190 0h-104v128h104v-128z" />
    <glyph glyph-name="at" unicode="@" horiz-adv-x="544" 
d="M482 -30q-8 -12 -24 -31t-41.5 -36t-59.5 -29.5t-77 -12.5h-7q-44 0 -89 13t-82.5 54.5t-61 119.5t-23.5 209v90q0 378 262 378h12q125 0 180.5 -78t55.5 -232v-90q0 -80 -9 -135t-26 -89t-41 -48.5t-55 -14.5h-2q-26 0 -42.5 7t-26.5 17t-14.5 20.5t-6.5 17.5
q-20 -32 -39 -47t-45 -15h-6q-13 0 -26.5 6.5t-24 20t-16.5 33.5t-5 48l13 309q1 16 5.5 31.5t13.5 28t22 20t31 7.5h5q21 0 38.5 -14t31.5 -37l2 47h106l-21 -410q0 -7 1.5 -12.5t11.5 -5.5t18.5 10.5t15 35t10 65.5t3.5 102v93q0 66 -10 111t-29.5 73t-49.5 40t-69 12h-12
q-43 0 -76.5 -17t-57 -54t-35.5 -95.5t-12 -140.5v-87q0 -75 8.5 -128t23 -88.5t33 -56.5t38 -31.5t38.5 -13.5t34 -3h7q29 0 54.5 9.5t45.5 23.5t34 29.5t21 27.5zM299 423q1 16 -3 24t-17 8q-11 0 -15 -8.5t-5 -23.5l-13 -268q-1 -11 1.5 -21.5t16.5 -10.5q12 0 16.5 9
t5.5 23z" />
    <glyph glyph-name="A" unicode="A" horiz-adv-x="320" 
d="M197 140h-83l-14 -140h-101l91 744h134l97 -744h-109zM126 251h59l-30 275z" />
    <glyph glyph-name="B" unicode="B" horiz-adv-x="345" 
d="M23 744h178q35 0 58 -9t36.5 -24.5t19 -38t5.5 -49.5v-114q0 -47 -17 -71t-39 -32q11 -4 22.5 -11t21 -19.5t15.5 -31.5t6 -47v-161q0 -59 -28 -97.5t-92 -38.5h-186v744zM136 339v-234h34q27 0 35.5 12.5t8.5 37.5v136q0 23 -8.5 35.5t-35.5 12.5h-34zM136 643v-193h34
q23 0 31 14.5t8 37.5v94q0 23 -8 35t-31 12h-34z" />
    <glyph glyph-name="C" unicode="C" horiz-adv-x="336" 
d="M208 151v173h111v-172q0 -30 -6 -59t-21 -51.5t-41 -36.5t-67 -14h-25q-43 0 -70 14t-42.5 36.5t-21 50.5t-5.5 56v454q0 28 6.5 55t22.5 48t42 33.5t64 12.5h26q46 0 73.5 -14t42 -36t18.5 -50t4 -55v-133h-111v131q0 24 -8.5 36.5t-29.5 12.5t-28 -12t-7 -37v-442
q0 -51 36 -51q20 0 28.5 13.5t8.5 36.5z" />
    <glyph glyph-name="D" unicode="D" horiz-adv-x="344" 
d="M23 744h173q36 0 60.5 -10t39.5 -28.5t21 -45t6 -59.5v-453q0 -69 -28.5 -108.5t-98.5 -39.5h-173v744zM136 108h27q26 0 35 14t9 44v419q0 32 -9 45t-30 13h-32v-535z" />
    <glyph glyph-name="E" unicode="E" horiz-adv-x="296" 
d="M280 744v-108h-144v-195h113v-113h-113v-215h150v-113h-263v744h257z" />
    <glyph glyph-name="F" unicode="F" horiz-adv-x="290" 
d="M23 744h257v-108h-144v-196h114v-113h-114v-327h-113v744z" />
    <glyph glyph-name="G" unicode="G" horiz-adv-x="341" 
d="M128 -10q-50 0 -79 39t-29 97v465q0 31 6.5 60t22.5 51t43 35.5t67 13.5h22q45 0 72 -13.5t41 -37t18 -53.5t4 -63v-76h-110v84q0 25 -7.5 38t-28.5 13q-35 0 -35 -51v-435q0 -53 37 -53q22 0 32 13.5t10 34.5v186h-51v114h158v-452h-64q-1 3 -6.5 26t-12.5 47
q-3 -9 -11.5 -23.5t-21.5 -27.5t-31 -22.5t-39 -9.5h-7z" />
    <glyph glyph-name="H" unicode="H" horiz-adv-x="349" 
d="M136 0h-113v744h113v-298h77v298h113v-744h-113v327h-77v-327z" />
    <glyph glyph-name="I" unicode="I" horiz-adv-x="159" 
d="M136 0h-113v744h113v-744z" />
    <glyph glyph-name="J" unicode="J" horiz-adv-x="319" 
d="M126 328v-183q0 -20 5.5 -30.5t21.5 -10.5h4q16 0 21 12t5 29v599h115v-608q0 -73 -34.5 -107.5t-93.5 -34.5h-31q-27 0 -50 6.5t-39.5 22.5t-25.5 42t-9 64v199h111z" />
    <glyph glyph-name="K" unicode="K" 
d="M136 0h-113v744h113v-298l89 298h110l-105 -346l116 -398h-116l-94 323v-323z" />
    <glyph glyph-name="L" unicode="L" horiz-adv-x="284" 
d="M136 744v-629h138v-115h-251v744h113z" />
    <glyph glyph-name="M" unicode="M" horiz-adv-x="435" 
d="M23 744h145l54 -393l55 393h135v-744h-106v481l-68 -481h-45l-69 481v-481h-101v744z" />
    <glyph glyph-name="N" unicode="N" horiz-adv-x="348" 
d="M125 744l97 -399v399h103v-744h-92l-108 428v-428h-102v744h102z" />
    <glyph glyph-name="O" unicode="O" horiz-adv-x="349" 
d="M329 166q0 -39 -7 -71t-24 -55.5t-44.5 -36t-68.5 -12.5h-19q-41 0 -68.5 12.5t-45 36t-25 55.5t-7.5 71v414q0 39 7.5 70.5t25 54t45 34.5t67.5 12h19q41 0 69 -12t45 -34.5t24 -54t7 -69.5v-415zM214 586q0 57 -39 57q-22 0 -31 -14t-9 -43v-428q0 -24 8.5 -40.5
t32.5 -16.5q23 0 30.5 16.5t7.5 40.5v428z" />
    <glyph glyph-name="P" unicode="P" horiz-adv-x="333" 
d="M136 309v-309h-113v744h179q60 0 88 -28t28 -95v-176q0 -66 -29 -101t-87 -35h-66zM136 416h29q26 0 32.5 15.5t6.5 38.5v122q0 22 -7 36.5t-32 14.5h-29v-227z" />
    <glyph glyph-name="Q" unicode="Q" horiz-adv-x="349" 
d="M329 166q0 -68 -23.5 -114t-82.5 -57l52 -150h-135v148q-66 8 -93 54.5t-27 118.5v414q0 39 7.5 70.5t25 54t45 34.5t67.5 12h19q41 0 69 -12t45 -34.5t24 -54t7 -69.5v-415zM214 586q0 57 -39 57q-22 0 -31 -14t-9 -43v-428q0 -24 8.5 -40.5t32.5 -16.5q23 0 30.5 16.5
t7.5 40.5v428z" />
    <glyph glyph-name="R" unicode="R" horiz-adv-x="339" 
d="M136 438h30q23 0 32 14t9 39v104q0 24 -7.5 36t-33.5 12h-30v-205zM136 0h-113v744h183q57 0 85 -26t28 -89v-132q0 -23 -5 -39.5t-12 -28t-16 -18t-16 -9.5q19 -8 34 -25.5t15 -55.5v-261q0 -23 3.5 -35t7.5 -20v-5h-112q-4 6 -7.5 18.5t-3.5 42.5v224q0 25 -7.5 36
t-34.5 11h-29v-332z" />
    <glyph glyph-name="S" unicode="S" horiz-adv-x="333" 
d="M180 751q70 0 99.5 -31.5t29.5 -97.5v-122h-109v107q0 19 -6 31.5t-26 12.5t-26.5 -13t-6.5 -39v-14q0 -16 2 -29t7 -25.5t14 -27t23 -32.5l72 -93q19 -25 32 -45.5t20.5 -41.5t11 -45.5t3.5 -55.5v-24q0 -82 -35.5 -128t-110.5 -46h-22q-68 0 -103 36t-35 105v149h112
v-130q0 -52 37 -52q20 0 28.5 14.5t8.5 49.5v17q0 20 -1.5 34.5t-6 28t-14 28t-24.5 34.5l-72 92q-18 23 -30 44.5t-19 43t-10 45t-3 51.5v24q0 75 36 110t103 35h21z" />
    <glyph glyph-name="T" unicode="T" horiz-adv-x="320" 
d="M311 744v-108h-95v-636h-112v636h-95v108h302z" />
    <glyph glyph-name="U" unicode="U" horiz-adv-x="345" 
d="M21 744h115v-589q0 -24 8.5 -38.5t27.5 -14.5q20 0 28.5 14t8.5 39v589h115v-582q0 -79 -33.5 -125t-108.5 -46h-20q-75 0 -108 45t-33 126v582z" />
    <glyph glyph-name="V" unicode="V" horiz-adv-x="327" 
d="M1 744h115l51 -512l52 512h107l-94 -744h-137z" />
    <glyph glyph-name="W" unicode="W" horiz-adv-x="531" 
d="M321 744l51 -482l52 482h106l-95 -744h-121l-47 433l-48 -433h-125l-93 744h114l51 -481l50 481h105z" />
    <glyph glyph-name="X" unicode="X" 
d="M13 744h115l48 -235l46 235h110l-85 -346l96 -398h-117l-56 269l-57 -269h-114l98 398z" />
    <glyph glyph-name="Y" unicode="Y" horiz-adv-x="306" 
d="M211 309v-309h-113v310l-102 434h110l52 -278l50 278h102z" />
    <glyph glyph-name="Z" unicode="Z" horiz-adv-x="305" 
d="M289 744v-98l-163 -537h171v-109h-289v101l161 537h-151v106h271z" />
    <glyph glyph-name="bracketleft" unicode="[" horiz-adv-x="192" 
d="M186 728h-54v-778h54v-80h-146v938h146v-80z" />
    <glyph glyph-name="backslash" unicode="\" horiz-adv-x="209" 
d="M4 808h84l127 -939h-83z" />
    <glyph glyph-name="bracketright" unicode="]" horiz-adv-x="193" 
d="M6 -50h54v778h-54l1 80h146l-1 -938h-146v80z" />
    <glyph glyph-name="asciicircum" unicode="^" horiz-adv-x="221" 
d="M219 439h-77l-33 161l-31 -161h-76l69 305h79z" />
    <glyph glyph-name="underscore" unicode="_" horiz-adv-x="313" 
d="M5 -20h303v-84h-303v84z" />
    <glyph glyph-name="grave" unicode="`" 
d="M146 567l-39 130h91l37 -130h-89z" />
    <glyph glyph-name="a" unicode="a" horiz-adv-x="310" 
d="M15 207q0 40 11 65t40 43q9 6 22.5 13t27.5 13.5t25.5 12.5l17.5 9q8 5 10.5 8.5t2.5 14.5v34q0 20 -6 27.5t-20 7.5h-2q-16 0 -21.5 -8t-5.5 -26v-57h-96v76q0 15 3.5 33t15 33t34 25.5t60.5 10.5h20q39 0 62.5 -8.5t36.5 -23.5t17.5 -34t4.5 -40v-320q0 -10 3 -13.5
t14 -3.5h19v-99h-102q-17 0 -26 13.5t-9 47.5q-5 -9 -12.5 -20.5t-19 -21t-25.5 -16t-31 -6.5h-3q-16 0 -28.5 7t-21.5 19t-13.5 27t-4.5 31v126zM172 272q-9 -5 -19.5 -12t-18.5 -15t-11 -17.5t-3 -25.5v-74q0 -35 25 -35q27 0 27 40v139z" />
    <glyph glyph-name="b" unicode="b" horiz-adv-x="312" 
d="M127 744v-266l11.5 16.5t18.5 21t26 18t33 7.5h3q36 0 55.5 -26.5t19.5 -65.5v-334q0 -49 -25 -84t-72 -35h-2q-20 0 -35.5 8.5t-27.5 20.5t-19.5 25t-11.5 22q-5 -19 -8.5 -40t-4.5 -32h-68v744h107zM127 136q0 -19 8 -30t22 -11q15 0 21.5 11t6.5 29v265q0 17 -6 29
t-23 12q-16 0 -22.5 -12t-6.5 -29v-264z" />
    <glyph glyph-name="c" unicode="c" horiz-adv-x="297" 
d="M282 241v-121q0 -23 -6.5 -46t-20.5 -41.5t-37.5 -30t-56.5 -11.5h-20q-32 0 -55.5 10.5t-38.5 28t-22.5 41t-7.5 50.5v293q0 63 31 97.5t97 34.5h19q33 0 56 -9t36.5 -25t19.5 -37t6 -46v-96h-103v73q0 20 -4 32.5t-23 12.5q-18 0 -22.5 -12t-4.5 -32v-275
q0 -19 5.5 -30t20.5 -11q16 0 22 11t6 29v110h103z" />
    <glyph glyph-name="d" unicode="d" horiz-adv-x="311" 
d="M291 744v-744h-107v61q-3 -8 -9.5 -19.5t-17 -22t-24.5 -17.5t-32 -7h-1q-36 0 -58.5 31.5t-22.5 82.5v328q0 19 4.5 37.5t13.5 33.5t23.5 24t35.5 9h2q18 0 32 -6.5t24.5 -16t17.5 -20l12 -17.5v263h107zM184 397q0 21 -6.5 34.5t-23.5 13.5q-28 0 -28 -43v-266
q0 -43 28 -43q17 0 23.5 12.5t6.5 36.5v255z" />
    <glyph glyph-name="e" unicode="e" horiz-adv-x="295" 
d="M159 545q63 0 91.5 -34t28.5 -100v-155h-159v-124q0 -18 6 -29t23 -11q14 0 20.5 11t6.5 28v89h103v-94q0 -72 -34 -104t-91 -32h-19q-54 0 -86 33t-32 102v291q0 55 28.5 92t93.5 37h20zM120 344h59v68q0 18 -5 30.5t-24 12.5q-20 0 -25 -12.5t-5 -30.5v-68z" />
    <glyph glyph-name="f" unicode="f" horiz-adv-x="256" 
d="M247 645h-48q-14 0 -18 -6t-4 -20v-81h70v-102h-70v-436h-107v436h-64v102h64v137q0 11 3.5 23t12 22.5t23 17t37.5 6.5h101v-99z" />
    <glyph glyph-name="g" unicode="g" horiz-adv-x="312" 
d="M185 64q-12 -26 -33.5 -47.5t-54.5 -21.5q-32 0 -55 27.5t-23 72.5v322q0 59 20 91.5t59 32.5q35 0 55 -19.5t34 -45.5v62h105v-625q0 -15 -3.5 -33.5t-16 -35t-38 -28t-68.5 -11.5h-24q-36 0 -59.5 7.5t-36.5 20.5t-18 29.5t-5 34.5v78h103v-48q0 -15 6 -23t21 -8h4
q17 0 22.5 8t5.5 23v137zM185 407q0 17 -6.5 28t-23.5 11q-15 0 -21.5 -11t-6.5 -28v-273q0 -18 7 -29t22 -11q14 0 21.5 11t7.5 30v272z" />
    <glyph glyph-name="h" unicode="h" horiz-adv-x="313" 
d="M20 744h107v-267q14 24 36 44t53 20h5q21 0 35 -8t22.5 -20.5t11.5 -27t3 -27.5v-458h-108v403q0 19 -6 29.5t-22 10.5q-17 0 -23.5 -11t-6.5 -33v-399h-107v744z" />
    <glyph glyph-name="i" unicode="i" horiz-adv-x="147" 
d="M127 0h-107v538h107v-538zM127 567h-107v115h107v-115z" />
    <glyph glyph-name="j" unicode="j" horiz-adv-x="148" 
d="M128 567h-107v115h107v-115zM0 -86q21 0 21 24v600h107v-648q0 -24 -6 -39.5t-16 -24t-22.5 -11.5t-24.5 -3h-109v102h50z" />
    <glyph glyph-name="k" unicode="k" horiz-adv-x="318" 
d="M210 538h107l-101 -230l108 -308h-111l-86 249v-249h-107v744h107v-402z" />
    <glyph glyph-name="l" unicode="l" horiz-adv-x="147" 
d="M127 0h-107v744h107v-744z" />
    <glyph glyph-name="m" unicode="m" horiz-adv-x="471" 
d="M20 538h105v-61q5 8 13 19t19.5 21t25 17t30.5 7h4q32 0 48.5 -19t21.5 -44q6 10 15 21t20 20.5t25 15.5t31 6h5q35 0 51.5 -22t16.5 -59v-460h-107v399q0 20 -5 32t-22 12q-15 0 -21 -9.5t-7 -26.5v-407h-107v399q0 20 -5 32t-23 12q-17 0 -22 -11t-5 -33v-399h-107v538
z" />
    <glyph glyph-name="n" unicode="n" horiz-adv-x="313" 
d="M20 538h105v-63q6 11 15 23t20.5 21.5t25.5 15.5t30 6h5q21 0 34.5 -8t22 -20.5t12 -27t3.5 -27.5v-458h-108v403q0 19 -6 29.5t-22 10.5q-17 0 -23.5 -11t-6.5 -33v-399h-107v538z" />
    <glyph glyph-name="o" unicode="o" horiz-adv-x="310" 
d="M17 130v277q0 67 33.5 103t94.5 36h20q60 0 94 -34.5t34 -100.5v-281q0 -27 -8.5 -52t-24.5 -44.5t-40 -31t-55 -11.5h-20q-35 0 -59.5 11.5t-39.5 31t-22 44.5t-7 52zM125 406v-271q0 -20 7.5 -31t22.5 -11q16 0 23 12t7 30v271q0 23 -8 32t-22 9t-22 -9t-8 -32z" />
    <glyph glyph-name="p" unicode="p" horiz-adv-x="313" 
d="M127 538v-58q5 8 13 18.5t18.5 20t24.5 16t31 6.5h1q41 0 60 -29t19 -72v-338q0 -53 -24.5 -79.5t-57.5 -26.5h-2q-29 0 -49 17t-34 34v-235h-107v726h107zM127 128q0 -21 9 -31t21 -10q15 0 21.5 10.5t6.5 28.5v281q0 39 -28 39q-14 0 -22 -10.5t-8 -28.5v-279z" />
    <glyph glyph-name="q" unicode="q" horiz-adv-x="313" 
d="M293 538v-726h-107v249q-3 -7 -10 -18t-18 -21t-25.5 -17.5t-32.5 -7.5h-2q-19 0 -34 9.5t-25 25.5t-15 37t-5 45v305q0 22 5 44t15.5 39t27.5 28t42 11h2q20 0 35.5 -7.5t27.5 -20t21.5 -27.5t16.5 -30q5 16 9.5 36.5t6.5 45.5h65zM186 397q0 24 -9 34t-23 10
q-15 0 -21 -12.5t-6 -30.5v-268q0 -22 8 -31t22 -9q29 0 29 45v262z" />
    <glyph glyph-name="r" unicode="r" horiz-adv-x="280" 
d="M125 470q3 7 9.5 19.5t16 23.5t23.5 19.5t33 8.5h4q29 0 42.5 -17t13.5 -44v-195h-104v120q0 17 -2.5 25t-15.5 8t-15.5 -8.5t-2.5 -24.5v-405h-107v538h105v-68z" />
    <glyph glyph-name="s" unicode="s" horiz-adv-x="278" 
d="M262 449v-81h-96v64q0 30 -24 30q-14 0 -18.5 -8.5t-4.5 -24.5v-9q0 -20 5.5 -31.5t19.5 -28.5l65 -78q19 -23 30.5 -41t18 -35t9 -34.5t2.5 -37.5v-14q0 -24 -6.5 -47t-21 -41.5t-37.5 -29.5t-56 -11h-21q-32 0 -54 8.5t-36 23.5t-20 35t-6 43v97h100v-77q0 -21 6.5 -29
t20.5 -8q25 0 25 37v9q0 17 -4.5 35.5t-24.5 41.5l-63 72q-32 37 -42.5 69t-10.5 70v15q0 51 27.5 82t88.5 31h19q32 0 53 -8t33.5 -21t17.5 -31t5 -37z" />
    <glyph glyph-name="t" unicode="t" horiz-adv-x="247" 
d="M131 0q-27 0 -45.5 15t-18.5 51v370h-61v102h61v177h107v-177h63v-102h-63v-308q0 -14 3.5 -19.5t17.5 -5.5h42v-103h-106z" />
    <glyph glyph-name="u" unicode="u" horiz-adv-x="307" 
d="M287 0h-103v64q-7 -11 -15.5 -22.5t-19.5 -21.5t-24.5 -16t-31.5 -6h-2q-16 0 -29 7.5t-22.5 20.5t-14.5 29.5t-5 33.5v449h107v-403q0 -15 5.5 -25.5t19.5 -10.5q17 0 22.5 11t5.5 28v400h107v-538z" />
    <glyph glyph-name="v" unicode="v" horiz-adv-x="282" 
d="M-1 538h104l41 -336l40 336h99l-83 -538h-115z" />
    <glyph glyph-name="w" unicode="w" horiz-adv-x="460" 
d="M81 0l-82 538h107l40 -335l41 335h94l41 -335l40 335h99l-82 -538h-108l-39 306l-39 -306h-112z" />
    <glyph glyph-name="x" unicode="x" horiz-adv-x="282" 
d="M1 538h103l40 -160l36 160h95l-68 -249l77 -289h-100l-43 171l-46 -171h-97l77 287z" />
    <glyph glyph-name="y" unicode="y" horiz-adv-x="285" 
d="M-1 538h104l42 -329l40 329h102l-108 -646q-7 -40 -22 -60t-44 -20h-101v102h46q14 0 18 6.5t6 20.5l3 23q2 17 1 27.5t-3 24.5z" />
    <glyph glyph-name="z" unicode="z" horiz-adv-x="249" 
d="M233 538v-89l-124 -351h132v-98h-234v94l121 348h-110v96h215z" />
    <glyph glyph-name="braceleft" unicode="{" horiz-adv-x="200" 
d="M163 258q0 -20 -4.5 -56l-9.5 -75l-9.5 -74.5t-4.5 -53.5q0 -24 9 -37t34 -13h16v-80h-32q-61 0 -92.5 28t-31.5 92q0 20 5 54.5t11.5 73.5t11.5 77.5t5 65.5q0 15 -6 25t-21 10h-24v92h21q30 0 30 30q0 28 -5 68t-11.5 80.5t-11.5 76.5t-5 56q0 32 8.5 53.5t25 34
t39 17.5t51.5 5h32v-80h-18q-23 0 -32 -12t-9 -34q0 -18 4.5 -52.5l9.5 -73l9.5 -74.5t4.5 -55q0 -31 -8.5 -52.5t-37.5 -33.5q29 -12 37.5 -33t8.5 -50z" />
    <glyph glyph-name="bar" unicode="|" horiz-adv-x="171" 
d="M126 -131h-81v939h81v-939z" />
    <glyph glyph-name="braceright" unicode="}" horiz-adv-x="200" 
d="M37 427q0 19 4.5 55l9.5 74.5l9.5 73t4.5 52.5q0 22 -8.5 34t-31.5 12h-19v80h32q58 0 91 -23t33 -87q0 -20 -5 -56l-11 -76.5t-11 -80.5t-5 -68q0 -15 6.5 -22.5t23.5 -7.5h20v-92h-24q-15 0 -20.5 -10t-5.5 -25q0 -27 5 -65.5t11 -77.5l11 -73.5t5 -54.5
q0 -64 -31.5 -92t-92.5 -28h-32v80h16q26 0 34.5 13t8.5 37q0 18 -4.5 53.5l-9.5 74.5l-9.5 75t-4.5 56q0 29 8.5 50t37.5 33q-29 12 -37.5 33.5t-8.5 52.5z" />
    <glyph glyph-name="asciitilde" unicode="~" horiz-adv-x="276" 
d="M130 351q-19 22 -25 28t-11 6q-6 0 -6 -11v-70h-75v116q0 11 3.5 23t11 21.5t19.5 16t29 6.5q22 0 38 -10t36 -35q17 -21 22.5 -27t9.5 -6q6 0 6 10v73h75v-118q0 -30 -17.5 -48.5t-43.5 -18.5q-20 0 -35.5 9.5t-36.5 34.5z" />
    <glyph glyph-name="exclamdown" unicode="&#xa1;" horiz-adv-x="150" 
d="M20.8838 538h102.457v-127.992h-102.457v127.992zM10.0469 -205.955l43.3477 590.965h36.4512l42.3623 -590.965h-122.161z" />
    <glyph glyph-name="cent" unicode="&#xa2;" horiz-adv-x="305" 
d="M291 120q0 -23 -6 -45.5t-19.5 -40.5t-36 -30t-54.5 -14v-65h-37v66q-35 2 -58 13.5t-37 29.5t-20 39.5t-6 42.5v294q0 63 29 98t92 37v64h37v-63q32 -1 54.5 -11t36 -26t19.5 -37.5t6 -45.5v-92h-95v77q0 12 -4 24t-17 17v-364q11 6 15 16.5t4 21.5v116h97v-122z
M117 412v-286q0 -12 4.5 -23t16.5 -16v365q-13 -5 -17 -15.5t-4 -24.5z" />
    <glyph glyph-name="sterling" unicode="&#xa3;" horiz-adv-x="388" 
d="M189 254q0 -59 -18 -93.5t-44 -60.5h139v148h107v-248h-365v61q12 10 25.5 23.5t25 31.5t19.5 41.5t8 55.5q0 23 -2 51t-5 60h-71v92h62q-3 33 -5 66.5t-2 65.5v41q0 36 6 66t21 51t41.5 33t67.5 12h27q39 0 63.5 -11.5t38 -30.5t18.5 -42t5 -45v-127h-107v103
q0 23 -6 35.5t-26 12.5q-21 0 -27 -12.5t-6 -35.5v-85q0 -25 0.5 -49.5t1.5 -47.5h123v-92h-117q1 -20 1.5 -37.5t0.5 -32.5z" />
    <glyph glyph-name="yen" unicode="&#xa5;" horiz-adv-x="331" 
d="M222 0h-113v230h-102v80h102v29h-102v79h89l-92 326h111l51 -253l51 253h101l-85 -326h91v-79h-102v-29h102v-80h-102v-230z" />
    <glyph glyph-name="brokenbar" unicode="&#xa6;" horiz-adv-x="171" 
d="M126 -131h-81v472h81v-472zM126 383h-81v425h81v-425z" />
    <glyph glyph-name="section" unicode="&#xa7;" horiz-adv-x="380" 
d="M368 243q0 -26 -7 -45t-19 -31.5t-27.5 -19.5t-31.5 -10q15 -17 24.5 -30.5t14.5 -27t6.5 -28.5t1.5 -36v-75q0 -58 -32.5 -96.5t-102.5 -38.5h-26q-60 0 -92.5 34.5t-32.5 97.5v117h111v-104q0 -20 7 -31t24 -11q16 0 21.5 11t5.5 33v39q0 19 -1.5 32.5t-7 26
t-15.5 24.5t-27 28l-75 66q-24 20 -38.5 37.5t-23 35.5t-11 37.5t-2.5 43.5v39q0 41 22 65t63 31q-26 26 -33.5 58t-7.5 80v27q0 25 6.5 48t22 41t41 29t63.5 11h25q72 0 98.5 -34.5t26.5 -98.5v-90h-110v81q0 25 -6.5 33.5t-23.5 8.5q-18 0 -23.5 -11t-5.5 -31v-7
q0 -21 1.5 -35.5t6.5 -26.5t13.5 -23.5t23.5 -24.5l32.5 -28.5l38.5 -33.5q29 -27 45.5 -46.5t24.5 -37t10 -35.5t2 -41v-27zM207 346q-1 0 -9 7t-19 15l-28 22q-13 -2 -21.5 -11.5t-8.5 -32.5v-17q0 -14 1.5 -23.5t6.5 -18.5t14 -18t24 -21q4 -4 9 -8l10 -8l11 -9l30 -24
q5 1 10 4t9 9t6.5 16.5t2.5 27.5v7q0 13 -1.5 22.5t-6.5 18.5t-14.5 18.5t-25.5 23.5z" />
    <glyph glyph-name="dieresis" unicode="&#xa8;" 
d="M160 567h-89v98h89v-98zM273 567h-89v98h89v-98z" />
    <glyph glyph-name="copyright" unicode="&#xa9;" horiz-adv-x="495" 
d="M243 -11q-108 0 -165.5 59t-57.5 186v278q0 119 58 181t166 62h12q219 0 219 -243v-278q0 -64 -16 -110.5t-45.5 -76.5t-70.5 -44t-90 -14h-10zM245 51h8q42 0 71 15t46.5 41t25 62t7.5 78v257q0 37 -7 71.5t-24 60.5t-45.5 41.5t-71.5 15.5h-10q-44 0 -73.5 -14
t-46.5 -38.5t-24 -59.5t-7 -77v-257q0 -44 8 -80t26 -62t47 -40t70 -14zM251 197q11 0 15 8.5t4 19.5v115h92v-127q0 -48 -28.5 -75.5t-73.5 -27.5h-19q-53 0 -79 32t-26 76v300q0 57 24.5 87.5t77.5 30.5h23q20 0 38.5 -5t32 -17.5t21.5 -33.5t8 -54v-83h-93v76
q0 14 -3.5 22t-14.5 8q-12 0 -15.5 -8t-3.5 -23v-293q0 -12 4 -20t16 -8z" />
    <glyph glyph-name="ordfeminine" unicode="&#xaa;" horiz-adv-x="186" 
d="M167 531q0 -9 8 -9h11v-63h-60q-11 0 -16 8.5t-6 28.5q-6 -13 -19.5 -26.5t-32.5 -13.5h-1q-20 0 -31.5 16t-11.5 38v54q0 27 9.5 40.5t29.5 24.5l49 25q7 4 7 12v8q0 18 -14 18h-1q-14 0 -14 -18v-19h-62v30q0 12 2 23t9.5 20t21 14.5t36.5 5.5h12q24 0 38.5 -5
t22.5 -13.5t10.5 -20t2.5 -24.5v-154zM103 599q-5 -2 -10 -5.5t-9 -7.5q-5 -5 -7 -10.5t-2 -16.5v-25q0 -19 13 -19q15 0 15 21v63z" />
    <glyph glyph-name="guillemotleft" unicode="&#xab;" horiz-adv-x="249" 
d="M139 123h-78l-47 136v54l47 134h78l-48 -161zM240 123h-79l-46 163l46 161h80l-43 -161z" />
    <glyph glyph-name="registered" unicode="&#xae;" horiz-adv-x="267" 
d="M132 403q-55 0 -87 34t-32 93v97q0 53 31 88t88 35h7q55 0 85 -34t30 -89v-97q0 -57 -32.5 -92t-83.5 -35h-6zM133 438h5q43 0 59.5 29t16.5 70v84q0 18 -3.5 35t-12 29.5t-23 21t-36.5 8.5h-6q-45 -1 -63 -26t-18 -72v-80q0 -20 4 -38t13.5 -31.5t25 -21.5t38.5 -8z
M126 470h-45v219h68q38 0 38 -39v-34q0 -21 -18 -29q11 -3 14.5 -10.5t3.5 -16.5v-65q0 -9 1 -13.5t3 -7.5v-4h-44q-3 6 -3 20v61q0 8 -1 10.5t-9 2.5h-8v-94zM126 600h9q5 0 7 2.5t2 10.5v29q0 12 -9 12h-9v-54z" />
    <glyph glyph-name="macron" unicode="&#xaf;" 
d="M85 656h172v-77h-172v77z" />
    <glyph glyph-name="degree" unicode="&#xb0;" horiz-adv-x="209" 
d="M6 650q0 43 28 69.5t71 26.5t70.5 -26.5t27.5 -69.5q0 -44 -27.5 -70.5t-70.5 -26.5t-71 26.5t-28 70.5zM67 650q0 -17 10 -27.5t27 -10.5t27 10.5t10 27.5t-10 27.5t-27 10.5t-27 -10.5t-10 -27.5z" />
    <glyph glyph-name="acute" unicode="&#xb4;" 
d="M145 697h90l-40 -130h-88z" />
    <glyph glyph-name="paragraph" unicode="&#xb6;" horiz-adv-x="349" 
d="M118 744h227v-84h-37v-660h-76v660h-34v-660h-75v341h-5q-55 0 -79 27t-24 87v182q0 55 24 81t79 26z" />
    <glyph glyph-name="periodcentered" unicode="&#xb7;" horiz-adv-x="137" 
d="M121 253h-105v128h105v-128z" />
    <glyph glyph-name="cedilla" unicode="&#xb8;" 
d="M153 -188h-55v60h38q24 0 24 18q0 19 -24 19h-23v91h55v-40q35 0 56 -17.5t21 -53.5v-3q0 -38 -27 -56t-65 -18z" />
    <glyph glyph-name="ordmasculine" unicode="&#xba;" horiz-adv-x="195" 
d="M89 456q-38 0 -57.5 22.5t-19.5 62.5v120q0 44 20.5 65.5t56.5 21.5h16q36 0 57 -21t21 -63v-123q0 -38 -19.5 -61.5t-58.5 -23.5h-16zM81 541q0 -21 16 -21t16 21v127q0 21 -16 21t-16 -21v-127z" />
    <glyph glyph-name="guillemotright" unicode="&#xbb;" horiz-adv-x="249" 
d="M159 286l-50 161h80l46 -136v-52l-48 -136h-78zM51 286l-43 161h79l47 -161l-47 -163h-79z" />
    <glyph glyph-name="onequarter" unicode="&#xbc;" horiz-adv-x="354" 
d="M7 647v56q17 0 27 3.5t16 9.5t8.5 13t4.5 15h60v-339h-72v242h-44zM335 744l-252 -744h-74l253 744h73zM160 110l20 48.5l24.5 62l24.5 64.5l20 55h69v-215h29v-62h-29v-63h-69v63h-89v47zM249 125v96q-2 -8 -6.5 -21l-9.5 -27l-10 -27.5t-8 -20.5h34z" />
    <glyph glyph-name="onehalf" unicode="&#xbd;" horiz-adv-x="399" 
d="M335 744l-252 -744h-74l253 744h73zM7 647v56q17 0 27 3.5t16 9.5t8.5 13t4.5 15h60v-339h-72v242h-44zM200 0v38q0 14 3 26t11.5 27t23 34.5l38.5 49.5q9 10 14.5 18.5t8.5 16t4 16t1 19.5v19q0 20 -15 20t-15 -19v-60h-68v62q0 35 16 56.5t60 21.5h15q48 0 65.5 -21
t17.5 -55v-21q0 -18 -3 -32.5t-9.5 -28t-17.5 -27t-26 -29.5l-31.5 -33t-16.5 -18.5t-6 -10.5t-1 -9h56v56h65v-116h-190z" />
    <glyph glyph-name="threequarters" unicode="&#xbe;" horiz-adv-x="400" 
d="M381 744l-252 -744h-74l253 744h73zM13 629v37q0 41 16.5 62.5t61.5 21.5h12q42 0 60 -19t18 -61v-28q0 -24 -8 -35.5t-17 -16.5q12 -6 21.5 -16.5t9.5 -32.5v-64q0 -35 -19 -57t-62 -22h-14q-24 0 -39.5 6t-24.5 16.5t-12.5 24t-3.5 28.5v54h70v-49q0 -20 15 -20
q8 0 10.5 5t2.5 15v49q0 11 -3 15.5t-13 4.5h-33v64h31q10 0 14 4t4 16v38q0 12 -3 17t-12 5t-12 -5t-3 -17v-40h-67zM206 110l20 48.5l24.5 62l24.5 64.5l20 55h69v-215h29v-62h-29v-63h-69v63h-89v47zM295 125v96q-2 -8 -6.5 -21l-9.5 -27l-10 -27.5t-8 -20.5h34z" />
    <glyph glyph-name="questiondown" unicode="&#xbf;" horiz-adv-x="296" 
d="M207.364 385.01v-119.993q0 -23.998 -0.985352 -40.4971q-0.984375 -16.499 -4.92578 -30.498q-3.94043 -14 -10.3438 -28.499t-18.2256 -34.498l-28.5703 -48.9971q-7.88086 -12.999 -12.3145 -24.498t-6.89648 -22.499q-2.46289 -10.999 -2.95508 -22.998
t-0.492188 -26.998v-53.9971q0 -20.999 5.91016 -29.998q5.91113 -9 22.6592 -9t21.6738 9q4.92578 8.99902 4.92578 29.998v119.992h106.398v-119.992q0 -30.998 -4.92578 -57.9961q-4.92578 -26.999 -18.2256 -46.498q-13.2998 -19.498 -36.9443 -30.498
q-23.6436 -10.999 -62.0654 -10.999h-21.6738q-38.4209 0 -63.543 9.49902q-25.1221 9.5 -39.8994 27.499t-21.1816 43.4971q-6.40332 25.498 -6.40332 58.4961v73.9961q0 18.999 2.46289 34.998t7.38867 31.998t13.2998 31.998t21.1816 34.9971l32.5098 45.9971
q10.8369 16 17.2412 28.499q6.40332 12.499 9.85156 25.498t4.43262 28.498q0.985352 15.499 0.985352 37.498v86.9951h89.6504zM110.818 538h102.457v-127.992h-102.457v127.992z" />
    <glyph glyph-name="Agrave" unicode="&#xc0;" horiz-adv-x="320" 
d="M197 140h-83l-14 -140h-101l91 744h134l97 -744h-109zM126 251h59l-30 275zM112 773l-44 109h94l42 -109h-92z" />
    <glyph glyph-name="Aacute" unicode="&#xc1;" horiz-adv-x="320" 
d="M197 140h-83l-14 -140h-101l91 744h134l97 -744h-109zM126 251h59l-30 275zM153 882h94l-44 -109h-92z" />
    <glyph glyph-name="Acircumflex" unicode="&#xc2;" horiz-adv-x="320" 
d="M197 140h-83l-14 -140h-101l91 744h134l97 -744h-109zM126 251h59l-30 275zM264 773h-81l-27 48l-27 -48h-80l63 109h89z" />
    <glyph glyph-name="Atilde" unicode="&#xc3;" horiz-adv-x="320" 
d="M197 140h-83l-14 -140h-101l91 744h134l97 -744h-109zM126 251h59l-30 275zM254 832q0 -26 -11 -41.5t-31 -15.5h-1q-14 0 -27 4.5t-30 12.5l-13 6.5t-10 2.5q-7 0 -7 -9v-19h-64v47q0 29 11.5 42.5t31.5 13.5h1q13 0 24.5 -3.5t29.5 -12.5q9 -5 15 -8t11 -3q6 0 6 9v20
h64v-46z" />
    <glyph glyph-name="Adieresis" unicode="&#xc4;" horiz-adv-x="320" 
d="M197 140h-83l-14 -140h-101l91 744h134l97 -744h-109zM126 251h59l-30 275zM143 773h-90v99h90v-99zM259 773h-90v99h90v-99z" />
    <glyph glyph-name="Aring" unicode="&#xc5;" horiz-adv-x="320" 
d="M197 140h-83l-14 -140h-101l91 744h134l97 -744h-109zM126 251h59l-30 275zM157 813q14 0 22.5 9t8.5 24q0 14 -8.5 23.5t-22.5 9.5t-22.5 -9.5t-8.5 -23.5q0 -15 8.5 -24t22.5 -9zM236 847q0 -35 -22 -58t-57 -23t-57.5 23t-22.5 58q0 33 23 56t57 23q35 0 57 -23
t22 -56z" />
    <glyph glyph-name="AE" unicode="&#xc6;" horiz-adv-x="486" 
d="M216 0v144h-86l-26 -144h-108l141 744h332v-108h-140v-195h110v-113h-110v-215h147v-113h-260zM216 254v366l-66 -366h66z" />
    <glyph glyph-name="Ccedilla" unicode="&#xc7;" horiz-adv-x="336" 
d="M208 151v173h111v-172q0 -30 -6 -59t-21 -51.5t-41 -36.5t-67 -14h-25q-43 0 -70 14t-42.5 36.5t-21 50.5t-5.5 56v454q0 28 6.5 55t22.5 48t42 33.5t64 12.5h26q46 0 73.5 -14t42 -36t18.5 -50t4 -55v-133h-111v131q0 24 -8.5 36.5t-29.5 12.5t-28 -12t-7 -37v-442
q0 -51 36 -51q20 0 28.5 13.5t8.5 36.5zM154 -188h-55v60h38q24 0 24 18q0 19 -24 19h-23v91h55v-40q35 0 56 -17.5t21 -53.5v-3q0 -38 -27 -56t-65 -18z" />
    <glyph glyph-name="Egrave" unicode="&#xc8;" horiz-adv-x="296" 
d="M280 744v-108h-144v-195h113v-113h-113v-215h150v-113h-263v744h257zM112 773l-44 109h94l42 -109h-92z" />
    <glyph glyph-name="Eacute" unicode="&#xc9;" horiz-adv-x="296" 
d="M280 744v-108h-144v-195h113v-113h-113v-215h150v-113h-263v744h257zM150 882h94l-44 -109h-92z" />
    <glyph glyph-name="Ecircumflex" unicode="&#xca;" horiz-adv-x="296" 
d="M280 744v-108h-144v-195h113v-113h-113v-215h150v-113h-263v744h257zM261 773h-81l-27 48l-27 -48h-80l63 109h89z" />
    <glyph glyph-name="Edieresis" unicode="&#xcb;" horiz-adv-x="296" 
d="M280 744v-108h-144v-195h113v-113h-113v-215h150v-113h-263v744h257zM140 773h-90v99h90v-99zM256 773h-90v99h90v-99z" />
    <glyph glyph-name="Igrave" unicode="&#xcc;" horiz-adv-x="159" 
d="M136 0h-113v744h113v-744zM33 773l-44 109h94l42 -109h-92z" />
    <glyph glyph-name="Iacute" unicode="&#xcd;" horiz-adv-x="159" 
d="M136 0h-113v744h113v-744zM76 882h94l-44 -109h-92z" />
    <glyph glyph-name="Icircumflex" unicode="&#xce;" horiz-adv-x="159" 
d="M136 0h-113v744h113v-744zM187 773h-81l-27 48l-27 -48h-80l63 109h89z" />
    <glyph glyph-name="Idieresis" unicode="&#xcf;" horiz-adv-x="159" 
d="M136 0h-113v744h113v-744zM66 773h-90v99h90v-99zM182 773h-90v99h90v-99z" />
    <glyph glyph-name="Eth" unicode="&#xd0;" horiz-adv-x="346" 
d="M25 744h173q36 0 60.5 -10t39.5 -28.5t21 -45t6 -59.5v-453q0 -69 -28.5 -108.5t-98.5 -39.5h-173v335h-27v95h27v314zM138 108h27q26 0 35 14t9 44v419q0 32 -9 45t-30 13h-32v-213h46v-95h-46v-227z" />
    <glyph glyph-name="Ntilde" unicode="&#xd1;" horiz-adv-x="348" 
d="M125 744l97 -399v399h103v-744h-92l-108 428v-428h-102v744h102zM276 832q0 -26 -11 -41.5t-31 -15.5h-1q-14 0 -27 4.5t-30 12.5l-13 6.5t-10 2.5q-7 0 -7 -9v-19h-64v47q0 29 11.5 42.5t31.5 13.5h1q13 0 24.5 -3.5t29.5 -12.5q9 -5 15 -8t11 -3q6 0 6 9v20h64v-46z
" />
    <glyph glyph-name="Ograve" unicode="&#xd2;" horiz-adv-x="349" 
d="M329 166q0 -39 -7 -71t-24 -55.5t-44.5 -36t-68.5 -12.5h-19q-41 0 -68.5 12.5t-45 36t-25 55.5t-7.5 71v414q0 39 7.5 70.5t25 54t45 34.5t67.5 12h19q41 0 69 -12t45 -34.5t24 -54t7 -69.5v-415zM214 586q0 57 -39 57q-22 0 -31 -14t-9 -43v-428q0 -24 8.5 -40.5
t32.5 -16.5q23 0 30.5 16.5t7.5 40.5v428zM128 773l-44 109h94l42 -109h-92z" />
    <glyph glyph-name="Oacute" unicode="&#xd3;" horiz-adv-x="349" 
d="M329 166q0 -39 -7 -71t-24 -55.5t-44.5 -36t-68.5 -12.5h-19q-41 0 -68.5 12.5t-45 36t-25 55.5t-7.5 71v414q0 39 7.5 70.5t25 54t45 34.5t67.5 12h19q41 0 69 -12t45 -34.5t24 -54t7 -69.5v-415zM214 586q0 57 -39 57q-22 0 -31 -14t-9 -43v-428q0 -24 8.5 -40.5
t32.5 -16.5q23 0 30.5 16.5t7.5 40.5v428zM171 882h94l-44 -109h-92z" />
    <glyph glyph-name="Ocircumflex" unicode="&#xd4;" horiz-adv-x="349" 
d="M329 166q0 -39 -7 -71t-24 -55.5t-44.5 -36t-68.5 -12.5h-19q-41 0 -68.5 12.5t-45 36t-25 55.5t-7.5 71v414q0 39 7.5 70.5t25 54t45 34.5t67.5 12h19q41 0 69 -12t45 -34.5t24 -54t7 -69.5v-415zM214 586q0 57 -39 57q-22 0 -31 -14t-9 -43v-428q0 -24 8.5 -40.5
t32.5 -16.5q23 0 30.5 16.5t7.5 40.5v428zM282 773h-81l-27 48l-27 -48h-80l63 109h89z" />
    <glyph glyph-name="Otilde" unicode="&#xd5;" horiz-adv-x="349" 
d="M329 166q0 -39 -7 -71t-24 -55.5t-44.5 -36t-68.5 -12.5h-19q-41 0 -68.5 12.5t-45 36t-25 55.5t-7.5 71v414q0 39 7.5 70.5t25 54t45 34.5t67.5 12h19q41 0 69 -12t45 -34.5t24 -54t7 -69.5v-415zM214 586q0 57 -39 57q-22 0 -31 -14t-9 -43v-428q0 -24 8.5 -40.5
t32.5 -16.5q23 0 30.5 16.5t7.5 40.5v428zM272 832q0 -26 -11 -41.5t-31 -15.5h-1q-14 0 -27 4.5t-30 12.5l-13 6.5t-10 2.5q-7 0 -7 -9v-19h-64v47q0 29 11.5 42.5t31.5 13.5h1q13 0 24.5 -3.5t29.5 -12.5q9 -5 15 -8t11 -3q6 0 6 9v20h64v-46z" />
    <glyph glyph-name="Odieresis" unicode="&#xd6;" horiz-adv-x="349" 
d="M329 166q0 -39 -7 -71t-24 -55.5t-44.5 -36t-68.5 -12.5h-19q-41 0 -68.5 12.5t-45 36t-25 55.5t-7.5 71v414q0 39 7.5 70.5t25 54t45 34.5t67.5 12h19q41 0 69 -12t45 -34.5t24 -54t7 -69.5v-415zM214 586q0 57 -39 57q-22 0 -31 -14t-9 -43v-428q0 -24 8.5 -40.5
t32.5 -16.5q23 0 30.5 16.5t7.5 40.5v428zM161 773h-90v99h90v-99zM277 773h-90v99h90v-99z" />
    <glyph glyph-name="multiply" unicode="&#xd7;" horiz-adv-x="301" 
d="M149 242l-85 -89l-58 54l87 92l-88 90l60 63l87 -90l85 90l59 -56l-88 -92l88 -91l-59 -60z" />
    <glyph glyph-name="Oslash" unicode="&#xd8;" horiz-adv-x="349" 
d="M330 152q0 -34 -9.5 -63.5t-27.5 -51.5t-44.5 -34.5t-61.5 -12.5h-21q-35 0 -56.5 12t-31.5 23l-11 -25h-68l31 81q-6 14 -8.5 32t-2.5 39v429q0 38 7.5 69.5t25 54t45 34.5t66.5 12h23q33 0 53 -9t34 -22l9 24h68l-31 -83q11 -35 11 -79v-430zM175 641q-26 0 -35 -14
t-9 -42v-257l88 256v2q0 55 -44 55zM175 105q27 0 35.5 15.5t8.5 33.5v261l-88 -254v-8q0 -17 9 -32.5t35 -15.5z" />
    <glyph glyph-name="Ugrave" unicode="&#xd9;" horiz-adv-x="345" 
d="M21 744h115v-589q0 -24 8.5 -38.5t27.5 -14.5q20 0 28.5 14t8.5 39v589h115v-582q0 -79 -33.5 -125t-108.5 -46h-20q-75 0 -108 45t-33 126v582zM128 773l-44 109h94l42 -109h-92z" />
    <glyph glyph-name="Uacute" unicode="&#xda;" horiz-adv-x="345" 
d="M21 744h115v-589q0 -24 8.5 -38.5t27.5 -14.5q20 0 28.5 14t8.5 39v589h115v-582q0 -79 -33.5 -125t-108.5 -46h-20q-75 0 -108 45t-33 126v582zM169 882h94l-44 -109h-92z" />
    <glyph glyph-name="Ucircumflex" unicode="&#xdb;" horiz-adv-x="345" 
d="M21 744h115v-589q0 -24 8.5 -38.5t27.5 -14.5q20 0 28.5 14t8.5 39v589h115v-582q0 -79 -33.5 -125t-108.5 -46h-20q-75 0 -108 45t-33 126v582zM280 773h-81l-27 48l-27 -48h-80l63 109h89z" />
    <glyph glyph-name="Udieresis" unicode="&#xdc;" horiz-adv-x="345" 
d="M21 744h115v-589q0 -24 8.5 -38.5t27.5 -14.5q20 0 28.5 14t8.5 39v589h115v-582q0 -79 -33.5 -125t-108.5 -46h-20q-75 0 -108 45t-33 126v582zM159 773h-90v99h90v-99zM275 773h-90v99h90v-99z" />
    <glyph glyph-name="Yacute" unicode="&#xdd;" horiz-adv-x="306" 
d="M211 309v-309h-113v310l-102 434h110l52 -278l50 278h102zM153 882h94l-44 -109h-92z" />
    <glyph glyph-name="Thorn" unicode="&#xde;" horiz-adv-x="338" 
d="M136 191v-191h-113v744h113v-152h71q56 0 86.5 -28t30.5 -96v-141q0 -136 -116 -136h-72zM136 290h34q26 0 32.5 15.5t6.5 38.5v98q0 22 -6.5 36.5t-32.5 14.5h-34v-203z" />
    <glyph glyph-name="germandbls" unicode="&#xdf;" horiz-adv-x="312" 
d="M245 442q10 -4 19 -9.5t16.5 -15.5t12 -26t4.5 -40v-225q0 -32 -5 -55.5t-18 -39t-36 -23.5t-60 -8h-32v107h19q23 0 23 29v192q0 14 -4.5 21.5t-18.5 7.5h-19v105h17q11 0 16.5 7t5.5 27v117q0 17 -5 27.5t-22 10.5h-5q-14 0 -20 -10t-6 -27v-614h-107v624q0 58 30.5 90
t90.5 32h28q63 0 91 -30t28 -97v-102q0 -34 -13 -50.5t-30 -24.5z" />
    <glyph glyph-name="agrave" unicode="&#xe0;" horiz-adv-x="310" 
d="M15 207q0 40 11 65t40 43q9 6 22.5 13t27.5 13.5t25.5 12.5l17.5 9q8 5 10.5 8.5t2.5 14.5v34q0 20 -6 27.5t-20 7.5h-2q-16 0 -21.5 -8t-5.5 -26v-57h-96v76q0 15 3.5 33t15 33t34 25.5t60.5 10.5h20q39 0 62.5 -8.5t36.5 -23.5t17.5 -34t4.5 -40v-320q0 -10 3 -13.5
t14 -3.5h19v-99h-102q-17 0 -26 13.5t-9 47.5q-5 -9 -12.5 -20.5t-19 -21t-25.5 -16t-31 -6.5h-3q-16 0 -28.5 7t-21.5 19t-13.5 27t-4.5 31v126zM172 272q-9 -5 -19.5 -12t-18.5 -15t-11 -17.5t-3 -25.5v-74q0 -35 25 -35q27 0 27 40v139zM99 567l-39 130h91l37 -130h-89z
" />
    <glyph glyph-name="aacute" unicode="&#xe1;" horiz-adv-x="310" 
d="M15 207q0 40 11 65t40 43q9 6 22.5 13t27.5 13.5t25.5 12.5l17.5 9q8 5 10.5 8.5t2.5 14.5v34q0 20 -6 27.5t-20 7.5h-2q-16 0 -21.5 -8t-5.5 -26v-57h-96v76q0 15 3.5 33t15 33t34 25.5t60.5 10.5h20q39 0 62.5 -8.5t36.5 -23.5t17.5 -34t4.5 -40v-320q0 -10 3 -13.5
t14 -3.5h19v-99h-102q-17 0 -26 13.5t-9 47.5q-5 -9 -12.5 -20.5t-19 -21t-25.5 -16t-31 -6.5h-3q-16 0 -28.5 7t-21.5 19t-13.5 27t-4.5 31v126zM172 272q-9 -5 -19.5 -12t-18.5 -15t-11 -17.5t-3 -25.5v-74q0 -35 25 -35q27 0 27 40v139zM139 697h90l-40 -130h-88z" />
    <glyph glyph-name="acircumflex" unicode="&#xe2;" horiz-adv-x="310" 
d="M15 207q0 40 11 65t40 43q9 6 22.5 13t27.5 13.5t25.5 12.5l17.5 9q8 5 10.5 8.5t2.5 14.5v34q0 20 -6 27.5t-20 7.5h-2q-16 0 -21.5 -8t-5.5 -26v-57h-96v76q0 15 3.5 33t15 33t34 25.5t60.5 10.5h20q39 0 62.5 -8.5t36.5 -23.5t17.5 -34t4.5 -40v-320q0 -10 3 -13.5
t14 -3.5h19v-99h-102q-17 0 -26 13.5t-9 47.5q-5 -9 -12.5 -20.5t-19 -21t-25.5 -16t-31 -6.5h-3q-16 0 -28.5 7t-21.5 19t-13.5 27t-4.5 31v126zM172 272q-9 -5 -19.5 -12t-18.5 -15t-11 -17.5t-3 -25.5v-74q0 -35 25 -35q27 0 27 40v139zM248 567h-79l-25 65l-25 -65h-77
l57 131h92z" />
    <glyph glyph-name="atilde" unicode="&#xe3;" horiz-adv-x="310" 
d="M15 207q0 40 11 65t40 43q9 6 22.5 13t27.5 13.5t25.5 12.5l17.5 9q8 5 10.5 8.5t2.5 14.5v34q0 20 -6 27.5t-20 7.5h-2q-16 0 -21.5 -8t-5.5 -26v-57h-96v76q0 15 3.5 33t15 33t34 25.5t60.5 10.5h20q39 0 62.5 -8.5t36.5 -23.5t17.5 -34t4.5 -40v-320q0 -10 3 -13.5
t14 -3.5h19v-99h-102q-17 0 -26 13.5t-9 47.5q-5 -9 -12.5 -20.5t-19 -21t-25.5 -16t-31 -6.5h-3q-16 0 -28.5 7t-21.5 19t-13.5 27t-4.5 31v126zM172 272q-9 -5 -19.5 -12t-18.5 -15t-11 -17.5t-3 -25.5v-74q0 -35 25 -35q27 0 27 40v139zM242 672v-46q0 -26 -11 -41.5
t-31 -15.5h-1q-14 0 -27 4.5t-30 12.5l-13 6.5t-10 2.5q-7 0 -7 -9v-19h-64v47q0 29 11.5 42.5t31.5 13.5h1q13 0 24.5 -3.5t29.5 -12.5q9 -5 15 -8t11 -3q6 0 6 9v20h64z" />
    <glyph glyph-name="adieresis" unicode="&#xe4;" horiz-adv-x="310" 
d="M15 207q0 40 11 65t40 43q9 6 22.5 13t27.5 13.5t25.5 12.5l17.5 9q8 5 10.5 8.5t2.5 14.5v34q0 20 -6 27.5t-20 7.5h-2q-16 0 -21.5 -8t-5.5 -26v-57h-96v76q0 15 3.5 33t15 33t34 25.5t60.5 10.5h20q39 0 62.5 -8.5t36.5 -23.5t17.5 -34t4.5 -40v-320q0 -10 3 -13.5
t14 -3.5h19v-99h-102q-17 0 -26 13.5t-9 47.5q-5 -9 -12.5 -20.5t-19 -21t-25.5 -16t-31 -6.5h-3q-16 0 -28.5 7t-21.5 19t-13.5 27t-4.5 31v126zM172 272q-9 -5 -19.5 -12t-18.5 -15t-11 -17.5t-3 -25.5v-74q0 -35 25 -35q27 0 27 40v139zM133 567h-89v98h89v-98zM246 567
h-89v98h89v-98z" />
    <glyph glyph-name="aring" unicode="&#xe5;" horiz-adv-x="310" 
d="M15 207q0 40 11 65t40 43q9 6 22.5 13t27.5 13.5t25.5 12.5l17.5 9q8 5 10.5 8.5t2.5 14.5v34q0 20 -6 27.5t-20 7.5h-2q-16 0 -21.5 -8t-5.5 -26v-57h-96v76q0 15 3.5 33t15 33t34 25.5t60.5 10.5h20q39 0 62.5 -8.5t36.5 -23.5t17.5 -34t4.5 -40v-320q0 -10 3 -13.5
t14 -3.5h19v-99h-102q-17 0 -26 13.5t-9 47.5q-5 -9 -12.5 -20.5t-19 -21t-25.5 -16t-31 -6.5h-3q-16 0 -28.5 7t-21.5 19t-13.5 27t-4.5 31v126zM172 272q-9 -5 -19.5 -12t-18.5 -15t-11 -17.5t-3 -25.5v-74q0 -35 25 -35q27 0 27 40v139zM145 563q-35 0 -57.5 23t-22.5 58
q0 33 23 56t57 23q35 0 57 -23t22 -56q0 -35 -22 -58t-57 -23zM145 610q14 0 22.5 9t8.5 24q0 14 -8.5 23.5t-22.5 9.5t-22.5 -9.5t-8.5 -23.5q0 -15 8.5 -24t22.5 -9z" />
    <glyph glyph-name="ae" unicode="&#xe6;" horiz-adv-x="450" 
d="M181 59q-12 -21 -35 -41.5t-58 -20.5h-3q-17 0 -30 7t-22 19t-13.5 27t-4.5 31v104q0 40 11 65t40 43q9 6 22.5 13t27.5 13.5t25.5 12.5l17.5 9q8 5 10.5 8.5t2.5 14.5v58q0 20 -6 27.5t-20 7.5h-2q-16 0 -21.5 -8t-5.5 -26v-81h-96v100q0 15 3.5 33t15 33t34 25.5
t60.5 10.5h18q21 0 34.5 -3.5t22 -8.5t12.5 -9.5t6 -7.5q4 6 21 18.5t52 12.5h17q62 0 89.5 -34t27.5 -100v-159h-159v-120q0 -18 6 -29t23 -11q14 0 20.5 11t6.5 28v85h103v-89q0 -38 -10 -64t-26.5 -42.5t-38.5 -23.5t-46 -7h-17q-32 0 -52.5 7t-33 17.5t-19.5 22
t-10 21.5zM172 250q-9 -5 -19.5 -12t-18.5 -15t-11 -17.5t-3 -25.5v-52q0 -35 25 -35q27 0 27 40v117zM275 347h59v67q0 17 -5 29.5t-24 12.5q-20 0 -25 -12.5t-5 -29.5v-67z" />
    <glyph glyph-name="ccedilla" unicode="&#xe7;" horiz-adv-x="297" 
d="M282 241v-121q0 -23 -6.5 -46t-20.5 -41.5t-37.5 -30t-56.5 -11.5h-20q-32 0 -55.5 10.5t-38.5 28t-22.5 41t-7.5 50.5v293q0 63 31 97.5t97 34.5h19q33 0 56 -9t36.5 -25t19.5 -37t6 -46v-96h-103v73q0 20 -4 32.5t-23 12.5q-18 0 -22.5 -12t-4.5 -32v-275
q0 -19 5.5 -30t20.5 -11q16 0 22 11t6 29v110h103zM135 -188h-55v60h38q24 0 24 18q0 19 -24 19h-23v91h55v-40q35 0 56 -17.5t21 -53.5v-3q0 -38 -27 -56t-65 -18z" />
    <glyph glyph-name="egrave" unicode="&#xe8;" horiz-adv-x="295" 
d="M159 545q63 0 91.5 -34t28.5 -100v-155h-159v-124q0 -18 6 -29t23 -11q14 0 20.5 11t6.5 28v89h103v-94q0 -72 -34 -104t-91 -32h-19q-54 0 -86 33t-32 102v291q0 55 28.5 92t93.5 37h20zM120 344h59v68q0 18 -5 30.5t-24 12.5q-20 0 -25 -12.5t-5 -30.5v-68zM104 567
l-39 130h91l37 -130h-89z" />
    <glyph glyph-name="eacute" unicode="&#xe9;" horiz-adv-x="295" 
d="M159 545q63 0 91.5 -34t28.5 -100v-155h-159v-124q0 -18 6 -29t23 -11q14 0 20.5 11t6.5 28v89h103v-94q0 -72 -34 -104t-91 -32h-19q-54 0 -86 33t-32 102v291q0 55 28.5 92t93.5 37h20zM120 344h59v68q0 18 -5 30.5t-24 12.5q-20 0 -25 -12.5t-5 -30.5v-68zM143 697h90
l-40 -130h-88z" />
    <glyph glyph-name="ecircumflex" unicode="&#xea;" horiz-adv-x="295" 
d="M159 545q63 0 91.5 -34t28.5 -100v-155h-159v-124q0 -18 6 -29t23 -11q14 0 20.5 11t6.5 28v89h103v-94q0 -72 -34 -104t-91 -32h-19q-54 0 -86 33t-32 102v291q0 55 28.5 92t93.5 37h20zM120 344h59v68q0 18 -5 30.5t-24 12.5q-20 0 -25 -12.5t-5 -30.5v-68zM252 567
h-79l-25 65l-25 -65h-77l57 131h92z" />
    <glyph glyph-name="edieresis" unicode="&#xeb;" horiz-adv-x="295" 
d="M159 545q63 0 91.5 -34t28.5 -100v-155h-159v-124q0 -18 6 -29t23 -11q14 0 20.5 11t6.5 28v89h103v-94q0 -72 -34 -104t-91 -32h-19q-54 0 -86 33t-32 102v291q0 55 28.5 92t93.5 37h20zM120 344h59v68q0 18 -5 30.5t-24 12.5q-20 0 -25 -12.5t-5 -30.5v-68zM137 567
h-89v98h89v-98zM250 567h-89v98h89v-98z" />
    <glyph glyph-name="igrave" unicode="&#xec;" horiz-adv-x="147" 
d="M127 0h-107v538h107v-538zM27 567l-39 130h91l37 -130h-89z" />
    <glyph glyph-name="iacute" unicode="&#xed;" horiz-adv-x="147" 
d="M127 0h-107v538h107v-538zM69 697h90l-40 -130h-88z" />
    <glyph glyph-name="icircumflex" unicode="&#xee;" horiz-adv-x="147" 
d="M168 565h-73l-21 65l-22 -65h-71l47 131h92zM127 0h-107v538h107v-538z" />
    <glyph glyph-name="idieresis" unicode="&#xef;" horiz-adv-x="147" 
d="M63 567h-83v98h83v-98zM167 567h-83v98h83v-98zM127 0h-107v538h107v-538z" />
    <glyph glyph-name="eth" unicode="&#xf0;" horiz-adv-x="314" 
d="M53 629l49 25l-42 90h109l22 -45l71 37v-78l-41 -21l35 -71l18 -40t13 -37t7.5 -42t2.5 -54v-263q0 -60 -33 -99.5t-95 -39.5h-23q-34 0 -58 11.5t-39.5 30.5t-22.5 44.5t-7 53.5v307q0 51 21.5 76.5t53.5 25.5h2q25 0 44 -12.5t37 -35.5l-46 99l-78 -39v77zM187 407
q0 20 -6.5 31t-23.5 11q-30 0 -30 -42v-272q0 -17 6.5 -29.5t23.5 -12.5q18 0 24 13t6 29v272z" />
    <glyph glyph-name="ntilde" unicode="&#xf1;" horiz-adv-x="313" 
d="M20 538h105v-63q6 11 15 23t20.5 21.5t25.5 15.5t30 6h5q21 0 34.5 -8t22 -20.5t12 -27t3.5 -27.5v-458h-108v403q0 19 -6 29.5t-22 10.5q-17 0 -23.5 -11t-6.5 -33v-399h-107v538zM253 672v-46q0 -26 -11 -41.5t-31 -15.5h-1q-14 0 -27 4.5t-30 12.5l-13 6.5t-10 2.5
q-7 0 -7 -9v-19h-64v47q0 29 11.5 42.5t31.5 13.5h1q13 0 24.5 -3.5t29.5 -12.5q9 -5 15 -8t11 -3q6 0 6 9v20h64z" />
    <glyph glyph-name="ograve" unicode="&#xf2;" horiz-adv-x="310" 
d="M17 130v277q0 67 33.5 103t94.5 36h20q60 0 94 -34.5t34 -100.5v-281q0 -27 -8.5 -52t-24.5 -44.5t-40 -31t-55 -11.5h-20q-35 0 -59.5 11.5t-39.5 31t-22 44.5t-7 52zM125 406v-271q0 -20 7.5 -31t22.5 -11q16 0 23 12t7 30v271q0 23 -8 32t-22 9t-22 -9t-8 -32z
M109 567l-39 130h91l37 -130h-89z" />
    <glyph glyph-name="oacute" unicode="&#xf3;" horiz-adv-x="310" 
d="M17 130v277q0 67 33.5 103t94.5 36h20q60 0 94 -34.5t34 -100.5v-281q0 -27 -8.5 -52t-24.5 -44.5t-40 -31t-55 -11.5h-20q-35 0 -59.5 11.5t-39.5 31t-22 44.5t-7 52zM125 406v-271q0 -20 7.5 -31t22.5 -11q16 0 23 12t7 30v271q0 23 -8 32t-22 9t-22 -9t-8 -32z
M148 697h90l-40 -130h-88z" />
    <glyph glyph-name="ocircumflex" unicode="&#xf4;" horiz-adv-x="310" 
d="M17 130v277q0 67 33.5 103t94.5 36h20q60 0 94 -34.5t34 -100.5v-281q0 -27 -8.5 -52t-24.5 -44.5t-40 -31t-55 -11.5h-20q-35 0 -59.5 11.5t-39.5 31t-22 44.5t-7 52zM125 406v-271q0 -20 7.5 -31t22.5 -11q16 0 23 12t7 30v271q0 23 -8 32t-22 9t-22 -9t-8 -32z
M258 567h-79l-25 65l-25 -65h-77l57 131h92z" />
    <glyph glyph-name="otilde" unicode="&#xf5;" horiz-adv-x="310" 
d="M17 130v277q0 67 33.5 103t94.5 36h20q60 0 94 -34.5t34 -100.5v-281q0 -27 -8.5 -52t-24.5 -44.5t-40 -31t-55 -11.5h-20q-35 0 -59.5 11.5t-39.5 31t-22 44.5t-7 52zM125 406v-271q0 -20 7.5 -31t22.5 -11q16 0 23 12t7 30v271q0 23 -8 32t-22 9t-22 -9t-8 -32z
M252 672v-46q0 -26 -11 -41.5t-31 -15.5h-1q-14 0 -27 4.5t-30 12.5l-13 6.5t-10 2.5q-7 0 -7 -9v-19h-64v47q0 29 11.5 42.5t31.5 13.5h1q13 0 24.5 -3.5t29.5 -12.5q9 -5 15 -8t11 -3q6 0 6 9v20h64z" />
    <glyph glyph-name="odieresis" unicode="&#xf6;" horiz-adv-x="310" 
d="M17 130v277q0 67 33.5 103t94.5 36h20q60 0 94 -34.5t34 -100.5v-281q0 -27 -8.5 -52t-24.5 -44.5t-40 -31t-55 -11.5h-20q-35 0 -59.5 11.5t-39.5 31t-22 44.5t-7 52zM125 406v-271q0 -20 7.5 -31t22.5 -11q16 0 23 12t7 30v271q0 23 -8 32t-22 9t-22 -9t-8 -32z
M143 567h-89v98h89v-98zM256 567h-89v98h89v-98z" />
    <glyph glyph-name="divide" unicode="&#xf7;" horiz-adv-x="343" 
d="M327 345v-85h-311v85h311zM221 379h-99v97h99v-97zM221 124h-99v98h99v-98z" />
    <glyph glyph-name="oslash" unicode="&#xf8;" horiz-adv-x="306" 
d="M17 130v277q0 67 32.5 103t92.5 36h22q26 0 46.5 -7.5t34.5 -21.5l10 21h61l-34 -75q7 -22 7 -52v-281q0 -27 -8 -52t-24 -44.5t-39 -31t-54 -11.5h-22q-29 0 -48 8.5t-32 22.5l-10 -22h-61l34 74q-5 13 -6.5 27t-1.5 29zM186 406q0 23 -8 32t-25 9q-16 0 -24.5 -9
t-8.5 -32v-154l66 150v4zM153 93q18 0 25.5 12t7.5 30v146l-66 -147q0 -19 8 -30t25 -11z" />
    <glyph glyph-name="ugrave" unicode="&#xf9;" horiz-adv-x="307" 
d="M287 0h-103v64q-7 -11 -15.5 -22.5t-19.5 -21.5t-24.5 -16t-31.5 -6h-2q-16 0 -29 7.5t-22.5 20.5t-14.5 29.5t-5 33.5v449h107v-403q0 -15 5.5 -25.5t19.5 -10.5q17 0 22.5 11t5.5 28v400h107v-538zM111 567l-39 130h91l37 -130h-89z" />
    <glyph glyph-name="uacute" unicode="&#xfa;" horiz-adv-x="307" 
d="M287 0h-103v64q-7 -11 -15.5 -22.5t-19.5 -21.5t-24.5 -16t-31.5 -6h-2q-16 0 -29 7.5t-22.5 20.5t-14.5 29.5t-5 33.5v449h107v-403q0 -15 5.5 -25.5t19.5 -10.5q17 0 22.5 11t5.5 28v400h107v-538zM146 697h90l-40 -130h-88z" />
    <glyph glyph-name="ucircumflex" unicode="&#xfb;" horiz-adv-x="307" 
d="M287 0h-103v64q-7 -11 -15.5 -22.5t-19.5 -21.5t-24.5 -16t-31.5 -6h-2q-16 0 -29 7.5t-22.5 20.5t-14.5 29.5t-5 33.5v449h107v-403q0 -15 5.5 -25.5t19.5 -10.5q17 0 22.5 11t5.5 28v400h107v-538zM256 567h-79l-25 65l-25 -65h-77l57 131h92z" />
    <glyph glyph-name="udieresis" unicode="&#xfc;" horiz-adv-x="307" 
d="M287 0h-103v64q-7 -11 -15.5 -22.5t-19.5 -21.5t-24.5 -16t-31.5 -6h-2q-16 0 -29 7.5t-22.5 20.5t-14.5 29.5t-5 33.5v449h107v-403q0 -15 5.5 -25.5t19.5 -10.5q17 0 22.5 11t5.5 28v400h107v-538zM141 567h-89v98h89v-98zM254 567h-89v98h89v-98z" />
    <glyph glyph-name="yacute" unicode="&#xfd;" horiz-adv-x="285" 
d="M-1 538h104l42 -329l40 329h102l-108 -646q-7 -40 -22 -60t-44 -20h-101v102h46q14 0 18 6.5t6 20.5l3 23q2 17 1 27.5t-3 24.5zM139 697h90l-40 -130h-88z" />
    <glyph glyph-name="thorn" unicode="&#xfe;" horiz-adv-x="313" 
d="M127 744v-263q5 8 13 18.5t18.5 19.5t24.5 15.5t31 6.5h1q41 0 60 -29t19 -72v-338q0 -53 -24.5 -79.5t-57.5 -26.5h-2q-29 0 -49 17t-34 34v-235h-107v932h107zM127 128q0 -21 9 -31t21 -10q15 0 21.5 10.5t6.5 28.5v281q0 39 -28 39q-14 0 -22 -10.5t-8 -28.5v-279z
" />
    <glyph glyph-name="ydieresis" unicode="&#xff;" horiz-adv-x="285" 
d="M-1 538h104l42 -329l40 329h102l-108 -646q-7 -40 -22 -60t-44 -20h-101v102h46q14 0 18 6.5t6 20.5l3 23q2 17 1 27.5t-3 24.5zM132 567h-89v98h89v-98zM245 567h-89v98h89v-98z" />
    <glyph glyph-name="dotlessi" unicode="&#x131;" horiz-adv-x="147" 
d="M127 0h-107v538h107v-538z" />
    <glyph glyph-name="Lslash" unicode="&#x141;" horiz-adv-x="297" 
d="M150 744v-311l96 70v-104l-96 -68v-216h138v-115h-251v252l-34 -24v99l34 24v393h113z" />
    <glyph glyph-name="lslash" unicode="&#x142;" horiz-adv-x="169" 
d="M138 0h-107v349l-30 -21v95l30 21v300h107v-222l30 22v-96l-30 -22v-426z" />
    <glyph glyph-name="OE" unicode="&#x152;" horiz-adv-x="486" 
d="M20 582q0 77 26.5 123t80.5 46h3q22 0 37.5 -5.5t26 -14t16.5 -18t11 -16.5v47h248v-108h-140v-195h110v-113h-110v-215h147v-113h-255v51q-11 -22 -32 -41.5t-61 -19.5h-3q-44 0 -74.5 40.5t-30.5 129.5v422zM216 578q0 29 -8 46t-31 17t-31.5 -17t-8.5 -46v-411
q0 -29 8.5 -46t31.5 -17t31 17t8 46v411z" />
    <glyph glyph-name="oe" unicode="&#x153;" horiz-adv-x="463" 
d="M288 253v-123q0 -17 6 -27.5t23 -10.5q14 0 20.5 10.5t6.5 27.5v87h103v-91q0 -38 -10 -63.5t-26.5 -42t-38.5 -23.5t-47 -7h-17q-41 0 -58 12.5t-22 18.5q-2 -3 -7.5 -8t-14.5 -10t-22 -9t-30 -4h-17q-33 0 -55.5 12t-37 31.5t-21 44.5t-6.5 52v278q0 65 31 101.5
t88 36.5h16q42 0 59.5 -11t23.5 -18q5 7 23 18t53 11h19q60 0 88.5 -32.5t28.5 -86.5v-174h-159zM125 138q0 -16 6 -29t24 -13q19 0 24.5 14t5.5 28v266q0 20 -6.5 31t-23.5 11t-23.5 -11t-6.5 -31v-266zM288 347h59v64q0 18 -5 31t-24 13q-20 0 -25 -12t-5 -29v-67z" />
    <glyph glyph-name="Scaron" unicode="&#x160;" horiz-adv-x="333" 
d="M180 751q70 0 99.5 -31.5t29.5 -97.5v-122h-109v107q0 19 -6 31.5t-26 12.5t-26.5 -13t-6.5 -39v-14q0 -16 2 -29t7 -25.5t14 -27t23 -32.5l72 -93q19 -25 32 -45.5t20.5 -41.5t11 -45.5t3.5 -55.5v-24q0 -82 -35.5 -128t-110.5 -46h-22q-68 0 -103 36t-35 105v149h112
v-130q0 -52 37 -52q20 0 28.5 14.5t8.5 49.5v17q0 20 -1.5 34.5t-6 28t-14 28t-24.5 34.5l-72 92q-18 23 -30 44.5t-19 43t-10 45t-3 51.5v24q0 75 36 110t103 35h21zM61 882h81l27 -48l27 48h80l-63 -109h-89z" />
    <glyph glyph-name="scaron" unicode="&#x161;" horiz-adv-x="278" 
d="M262 449v-81h-96v64q0 30 -24 30q-14 0 -18.5 -8.5t-4.5 -24.5v-9q0 -20 5.5 -31.5t19.5 -28.5l65 -78q19 -23 30.5 -41t18 -35t9 -34.5t2.5 -37.5v-14q0 -24 -6.5 -47t-21 -41.5t-37.5 -29.5t-56 -11h-21q-32 0 -54 8.5t-36 23.5t-20 35t-6 43v97h100v-77q0 -21 6.5 -29
t20.5 -8q25 0 25 37v9q0 17 -4.5 35.5t-24.5 41.5l-63 72q-32 37 -42.5 69t-10.5 70v15q0 51 27.5 82t88.5 31h19q32 0 53 -8t33.5 -21t17.5 -31t5 -37zM41 697h79l25 -64l25 64h77l-57 -130h-92z" />
    <glyph glyph-name="Ydieresis" unicode="&#x178;" horiz-adv-x="306" 
d="M211 309v-309h-113v310l-102 434h110l52 -278l50 278h102zM143 773h-90v99h90v-99zM259 773h-90v99h90v-99z" />
    <glyph glyph-name="Zcaron" unicode="&#x17d;" horiz-adv-x="305" 
d="M289 744v-98l-163 -537h171v-109h-289v101l161 537h-151v106h271zM46 882h81l27 -48l27 48h80l-63 -109h-89z" />
    <glyph glyph-name="zcaron" unicode="&#x17e;" horiz-adv-x="249" 
d="M233 538v-89l-124 -351h132v-98h-234v94l121 348h-110v96h215zM23 697h79l25 -64l25 64h77l-57 -130h-92z" />
    <glyph glyph-name="circumflex" unicode="&#x2c6;" 
d="M274 567h-79l-25 65l-25 -65h-77l57 131h92z" />
    <glyph glyph-name="caron" unicode="&#x2c7;" 
d="M68 697h79l25 -64l25 64h77l-57 -130h-92z" />
    <glyph glyph-name="breve" unicode="&#x2d8;" 
d="M174 565h-3q-45 0 -73 25t-28 78v4h78v-4q0 -34 24 -34h1q10 0 17 8t7 26v4h75v-4q0 -53 -28.5 -78t-69.5 -25z" />
    <glyph glyph-name="dotaccent" unicode="&#x2d9;" 
d="M224 567h-107v115h107v-115z" />
    <glyph glyph-name="ring" unicode="&#x2da;" 
d="M172 563q-35 0 -57.5 23t-22.5 58q0 33 23 56t57 23q35 0 57 -23t22 -56q0 -35 -22 -58t-57 -23zM172 610q14 0 22.5 9t8.5 24q0 14 -8.5 23.5t-22.5 9.5t-22.5 -9.5t-8.5 -23.5q0 -15 8.5 -24t22.5 -9z" />
    <glyph glyph-name="ogonek" unicode="&#x2db;" 
d="M109 -109q0 28 18.5 54t47.5 55h56q-25 -34 -34 -52.5t-9 -38.5v-4q0 -21 24 -21h19v-72h-50q-30 0 -51 16t-21 48v15z" />
    <glyph glyph-name="tilde" unicode="&#x2dc;" 
d="M268 672v-46q0 -26 -11 -41.5t-31 -15.5h-1q-14 0 -27 4.5t-30 12.5l-13 6.5t-10 2.5q-7 0 -7 -9v-19h-64v47q0 29 11.5 42.5t31.5 13.5h1q13 0 24.5 -3.5t29.5 -12.5q9 -5 15 -8t11 -3q6 0 6 9v20h64z" />
    <glyph glyph-name="hungarumlaut" unicode="&#x2dd;" 
d="M169 567l27 127h76l-29 -127h-74zM96 694h76l-27 -127h-74z" />
    <glyph glyph-name="endash" unicode="&#x2013;" horiz-adv-x="305" 
d="M289 339v-78h-273v78h273z" />
    <glyph glyph-name="emdash" unicode="&#x2014;" horiz-adv-x="463" 
d="M447 339v-78h-431v78h431z" />
    <glyph glyph-name="quoteleft" unicode="&#x2018;" horiz-adv-x="129" 
d="M74 659h40v-112h-99v82q0 38 7.5 68.5t14.5 46.5h55q-5 -14 -10.5 -38t-7.5 -47z" />
    <glyph glyph-name="quoteright" unicode="&#x2019;" horiz-adv-x="129" 
d="M37 547q5 14 10.5 38t7.5 47h-40v112h99v-82q0 -38 -7.5 -68.5t-14.5 -46.5h-55z" />
    <glyph glyph-name="quotesinglbase" unicode="&#x201a;" horiz-adv-x="129" 
d="M55 0h-40v112h99v-82q0 -38 -7.5 -68.5t-14.5 -46.5h-55q5 14 10.5 38t7.5 47z" />
    <glyph glyph-name="quotedblleft" unicode="&#x201c;" horiz-adv-x="247" 
d="M92 744q-5 -14 -10.5 -38t-7.5 -47h40v-112h-99v82q0 38 7.5 68.5t14.5 46.5h55zM210 744q-5 -14 -10.5 -38t-7.5 -47h40v-112h-99v82q0 38 7.5 68.5t14.5 46.5h55z" />
    <glyph glyph-name="quotedblright" unicode="&#x201d;" horiz-adv-x="247" 
d="M155 547q5 14 10.5 38t7.5 47h-40v112h99v-82q0 -38 -7.5 -68.5t-14.5 -46.5h-55zM37 547q5 14 10.5 38t7.5 47h-40v112h99v-82q0 -38 -7.5 -68.5t-14.5 -46.5h-55z" />
    <glyph glyph-name="quotedblbase" unicode="&#x201e;" horiz-adv-x="247" 
d="M37 -85q5 14 10.5 38t7.5 47h-40v112h99v-82q0 -38 -7.5 -68.5t-14.5 -46.5h-55zM155 -85q5 14 10.5 38t7.5 47h-40v112h99v-82q0 -38 -7.5 -68.5t-14.5 -46.5h-55z" />
    <glyph glyph-name="dagger" unicode="&#x2020;" horiz-adv-x="246" 
d="M71 491h-64v106h64v147h105v-147h63v-106h-63v-491h-105v491z" />
    <glyph glyph-name="daggerdbl" unicode="&#x2021;" horiz-adv-x="244" 
d="M7 148v106h64v237h-64v106h64v147h103v-147h63v-106h-63v-237h63v-106h-63v-148h-103v148h-64z" />
    <glyph glyph-name="bullet" unicode="&#x2022;" horiz-adv-x="218" 
d="M14 329q0 42 27 68.5t68 26.5t68 -26.5t27 -68.5t-27 -68.5t-68 -26.5t-68 26.5t-27 68.5z" />
    <glyph glyph-name="ellipsis" unicode="&#x2026;" horiz-adv-x="391" 
d="M375 128v-128h-105v128h105zM143 128h105v-128h-105v128zM16 0v128h105v-128h-105z" />
    <glyph glyph-name="perthousand" unicode="&#x2030;" horiz-adv-x="685" 
d="M14 652q0 47 25 72.5t67 25.5h19q42 0 66 -26t24 -72v-144q0 -44 -23.5 -70.5t-66.5 -26.5h-19q-40 0 -66 24.5t-26 72.5v144zM563 -4q-41 0 -67 24.5t-26 72.5v144q0 47 25.5 72t67.5 25h18q42 0 66 -25.5t24 -71.5v-144q0 -44 -23.5 -70.5t-65.5 -26.5h-19zM343 -4
q-40 0 -66 24.5t-26 72.5v144q0 47 25 72t67 25h18q42 0 66 -25.5t24 -71.5v-144q0 -44 -23 -70.5t-66 -26.5h-19zM405 744l-268 -744h-74l268 744h74zM350 72q11 0 15.5 7t4.5 16v141q0 10 -4.5 16.5t-15.5 6.5q-10 0 -14 -6.5t-4 -16.5v-141q0 -9 4 -16t14 -7zM133 651
q0 9 -4 16t-15 7q-10 0 -14.5 -7t-4.5 -16v-141q0 -10 4.5 -16.5t14.5 -6.5q11 0 15 6.5t4 16.5v141zM570 72q11 0 15 7t4 16v141q0 10 -4 16.5t-15 6.5q-10 0 -14 -6.5t-4 -16.5v-141q0 -9 4 -16t14 -7z" />
    <glyph glyph-name="guilsinglleft" unicode="&#x2039;" horiz-adv-x="153" 
d="M144 123h-86l-44 136v54l44 134h87l-48 -161z" />
    <glyph glyph-name="guilsinglright" unicode="&#x203a;" horiz-adv-x="151" 
d="M10 447h85l42 -136v-53l-42 -135h-87l45 161z" />
    <glyph glyph-name="fraction" unicode="&#x2044;" horiz-adv-x="330" 
d="M328 744l-252 -744h-74l253 744h73z" />
    <glyph glyph-name="Euro" unicode="&#x20ac;" horiz-adv-x="381" 
d="M7 373h55v29h-55v79h55v121q0 28 7 54.5t23 47.5t42 34t65 13h26q46 0 73.5 -14t42 -36.5t19 -50t4.5 -55.5v-88h-110v87q0 24 -8.5 36.5t-30.5 12.5t-30 -12.5t-8 -36.5v-113h132v-79h-132v-29h134v-79h-134v-142q0 -51 38 -51q21 0 30 13.5t9 36.5v115h110v-113
q0 -31 -6 -60t-21.5 -51.5t-42 -36.5t-66.5 -14h-24q-44 0 -71.5 13.5t-43.5 36t-21.5 50.5t-5.5 58v145h-55v79z" />
    <glyph glyph-name="trademark" unicode="&#x2122;" horiz-adv-x="330" 
d="M145 744h71l16 -124l15 124h71v-279h-52v162l-23 -162h-24l-22 162v-162h-52v279zM132 686h-31v-221h-64v221h-31v58h126v-58z" />
    <glyph glyph-name="minus" unicode="&#x2212;" horiz-adv-x="317" 
d="M301 345v-85h-285v85h285z" />
    <glyph glyph-name="Dcroat" unicode="&#x110;" horiz-adv-x="346" 
d="M25 744h173q36 0 60.5 -10t39.5 -28.5t21 -45t6 -59.5v-453q0 -69 -28.5 -108.5t-98.5 -39.5h-173v335h-27v95h27v314zM138 108h27q26 0 35 14t9 44v419q0 32 -9 45t-30 13h-32v-213h46v-95h-46v-227z" />
    <glyph glyph-name="Eng" unicode="&#x14a;" horiz-adv-x="348" 
d="M229 -188h-58v102h26q14 0 20 6t6 22v58l-98 426v-426h-102v744h104l96 -421v421h102v-821q0 -61 -22 -86t-74 -25z" />
    <glyph glyph-name="IJ" unicode="&#x132;" horiz-adv-x="474" 
d="M136 0h-113v744h113v-744zM281 328v-183q0 -20 5.5 -30.5t21.5 -10.5h4q16 0 21 12t5 29v599h115v-608q0 -73 -34.5 -107.5t-93.5 -34.5h-31q-27 0 -50 6.5t-39.5 22.5t-25.5 42t-9 64v199h111z" />
    <glyph glyph-name="dcroat" unicode="&#x111;" horiz-adv-x="311" 
d="M106 663h223v-71h-223v71zM291 744v-744h-107v61q-3 -8 -9.5 -19.5t-17 -22t-24.5 -17.5t-32 -7h-1q-36 0 -58.5 31.5t-22.5 82.5v328q0 19 4.5 37.5t13.5 33.5t23.5 24t35.5 9h2q18 0 32 -6.5t24.5 -16t17.5 -20l12 -17.5v263h107zM184 397q0 21 -6.5 34.5t-23.5 13.5
q-28 0 -28 -43v-266q0 -43 28 -43q17 0 23.5 12.5t6.5 36.5v255z" />
    <glyph glyph-name="eng" unicode="&#x14b;" horiz-adv-x="313" 
d="M185 403q0 19 -6 29.5t-22 10.5q-17 0 -23.5 -11t-6.5 -33v-399h-107v538h105v-63q13 23 36.5 44.5t54.5 21.5h5q21 0 34.5 -8t22 -20.5t12 -27t3.5 -27.5v-568q0 -24 -6.5 -39.5t-16.5 -24t-22.5 -11.5t-24.5 -3h-82v102h23q21 0 21 24v465z" />
    <glyph glyph-name="ij" unicode="&#x133;" horiz-adv-x="291" 
d="M127 0h-107v538h107v-538zM127 567h-107v115h107v-115zM271 567h-107v115h107v-115zM143 -86q21 0 21 24v600h107v-648q0 -24 -6 -39.5t-16 -24t-22.5 -11.5t-24.5 -3h-109v102h50z" />
    <glyph glyph-name="Abreve" unicode="&#x102;" horiz-adv-x="320" 
d="M197 140h-83l-14 -140h-101l91 744h134l97 -744h-109zM126 251h59l-30 275zM158 770h-3q-42 0 -70.5 24t-28.5 70v6h77v-4q0 -27 23 -27h1q11 0 17.5 7t6.5 20v4h76v-6q0 -46 -30 -70t-69 -24z" />
    <glyph glyph-name="Amacron" unicode="&#x100;" horiz-adv-x="320" 
d="M197 140h-83l-14 -140h-101l91 744h134l97 -744h-109zM126 251h59l-30 275zM70 859h173v-79h-173v79z" />
    <glyph glyph-name="Aogonek" unicode="&#x104;" horiz-adv-x="320" 
d="M197 140h-83l-14 -140h-101l91 744h134l97 -744h-109zM126 251h59l-30 275zM199 -109q0 28 18.5 54t47.5 55h56q-25 -34 -34 -52.5t-9 -38.5v-4q0 -21 24 -21h19v-72h-50q-30 0 -51 16t-21 48v15z" />
    <glyph glyph-name="Aringacute" unicode="&#x1fa;" horiz-adv-x="320" 
d="M157 1054h94l-44 -109h-92zM197 140h-83l-14 -140h-101l91 744h134l97 -744h-109zM126 251h59l-30 275zM159 813q14 0 22.5 9t8.5 24q0 14 -8.5 23.5t-22.5 9.5t-22.5 -9.5t-8.5 -23.5q0 -15 8.5 -24t22.5 -9zM238 847q0 -35 -22 -58t-57 -23t-57.5 23t-22.5 58
q0 33 23 56t57 23q35 0 57 -23t22 -56z" />
    <glyph glyph-name="AEacute" unicode="&#x1fc;" horiz-adv-x="486" 
d="M216 0v144h-86l-26 -144h-108l141 744h332v-108h-140v-195h110v-113h-110v-215h147v-113h-260zM216 254v366l-66 -366h66zM293 882h94l-44 -109h-92z" />
    <glyph glyph-name="Cacute" unicode="&#x106;" horiz-adv-x="336" 
d="M208 151v173h111v-172q0 -30 -6 -59t-21 -51.5t-41 -36.5t-67 -14h-25q-43 0 -70 14t-42.5 36.5t-21 50.5t-5.5 56v454q0 28 6.5 55t22.5 48t42 33.5t64 12.5h26q46 0 73.5 -14t42 -36t18.5 -50t4 -55v-133h-111v131q0 24 -8.5 36.5t-29.5 12.5t-28 -12t-7 -37v-442
q0 -51 36 -51q20 0 28.5 13.5t8.5 36.5zM167 882h94l-44 -109h-92z" />
    <glyph glyph-name="Ccaron" unicode="&#x10c;" horiz-adv-x="336" 
d="M208 151v173h111v-172q0 -30 -6 -59t-21 -51.5t-41 -36.5t-67 -14h-25q-43 0 -70 14t-42.5 36.5t-21 50.5t-5.5 56v454q0 28 6.5 55t22.5 48t42 33.5t64 12.5h26q46 0 73.5 -14t42 -36t18.5 -50t4 -55v-133h-111v131q0 24 -8.5 36.5t-29.5 12.5t-28 -12t-7 -37v-442
q0 -51 36 -51q20 0 28.5 13.5t8.5 36.5zM64 882h81l27 -48l27 48h80l-63 -109h-89z" />
    <glyph glyph-name="Ccircumflex" unicode="&#x108;" horiz-adv-x="336" 
d="M208 151v173h111v-172q0 -30 -6 -59t-21 -51.5t-41 -36.5t-67 -14h-25q-43 0 -70 14t-42.5 36.5t-21 50.5t-5.5 56v454q0 28 6.5 55t22.5 48t42 33.5t64 12.5h26q46 0 73.5 -14t42 -36t18.5 -50t4 -55v-133h-111v131q0 24 -8.5 36.5t-29.5 12.5t-28 -12t-7 -37v-442
q0 -51 36 -51q20 0 28.5 13.5t8.5 36.5zM279 773h-81l-27 48l-27 -48h-80l63 109h89z" />
    <glyph glyph-name="Cdotaccent" unicode="&#x10a;" horiz-adv-x="336" 
d="M208 151v173h111v-172q0 -30 -6 -59t-21 -51.5t-41 -36.5t-67 -14h-25q-43 0 -70 14t-42.5 36.5t-21 50.5t-5.5 56v454q0 28 6.5 55t22.5 48t42 33.5t64 12.5h26q46 0 73.5 -14t42 -36t18.5 -50t4 -55v-133h-111v131q0 24 -8.5 36.5t-29.5 12.5t-28 -12t-7 -37v-442
q0 -51 36 -51q20 0 28.5 13.5t8.5 36.5zM224 773h-107v115h107v-115z" />
    <glyph glyph-name="Dcaron" unicode="&#x10e;" horiz-adv-x="344" 
d="M23 744h173q36 0 60.5 -10t39.5 -28.5t21 -45t6 -59.5v-453q0 -69 -28.5 -108.5t-98.5 -39.5h-173v744zM136 108h27q26 0 35 14t9 44v419q0 32 -9 45t-30 13h-32v-535zM49 882h81l27 -48l27 48h80l-63 -109h-89z" />
    <glyph glyph-name="Ebreve" unicode="&#x114;" horiz-adv-x="296" 
d="M280 744v-108h-144v-195h113v-113h-113v-215h150v-113h-263v744h257zM156 770h-3q-42 0 -70.5 24t-28.5 70v6h77v-4q0 -27 23 -27h1q11 0 17.5 7t6.5 20v4h76v-6q0 -46 -30 -70t-69 -24z" />
    <glyph glyph-name="Ecaron" unicode="&#x11a;" horiz-adv-x="296" 
d="M280 744v-108h-144v-195h113v-113h-113v-215h150v-113h-263v744h257zM48 882h81l27 -48l27 48h80l-63 -109h-89z" />
    <glyph glyph-name="Edotaccent" unicode="&#x116;" horiz-adv-x="296" 
d="M280 744v-108h-144v-195h113v-113h-113v-215h150v-113h-263v744h257zM207 773h-107v115h107v-115z" />
    <glyph glyph-name="Emacron" unicode="&#x112;" horiz-adv-x="296" 
d="M280 744v-108h-144v-195h113v-113h-113v-215h150v-113h-263v744h257zM66 859h173v-79h-173v79z" />
    <glyph glyph-name="Eogonek" unicode="&#x118;" horiz-adv-x="296" 
d="M280 744v-108h-144v-195h113v-113h-113v-215h150v-113h-263v744h257zM123 -109q0 28 18.5 54t47.5 55h56q-25 -34 -34 -52.5t-9 -38.5v-4q0 -21 24 -21h19v-72h-50q-30 0 -51 16t-21 48v15z" />
    <glyph glyph-name="Gbreve" unicode="&#x11e;" horiz-adv-x="341" 
d="M128 -10q-50 0 -79 39t-29 97v465q0 31 6.5 60t22.5 51t43 35.5t67 13.5h22q45 0 72 -13.5t41 -37t18 -53.5t4 -63v-76h-110v84q0 25 -7.5 38t-28.5 13q-35 0 -35 -51v-435q0 -53 37 -53q22 0 32 13.5t10 34.5v186h-51v114h158v-452h-64q-1 3 -6.5 26t-12.5 47
q-3 -9 -11.5 -23.5t-21.5 -27.5t-31 -22.5t-39 -9.5h-7zM173 770h-3q-42 0 -70.5 24t-28.5 70v6h77v-4q0 -27 23 -27h1q11 0 17.5 7t6.5 20v4h76v-6q0 -46 -30 -70t-69 -24z" />
    <glyph glyph-name="Gcircumflex" unicode="&#x11c;" horiz-adv-x="341" 
d="M128 -10q-50 0 -79 39t-29 97v465q0 31 6.5 60t22.5 51t43 35.5t67 13.5h22q45 0 72 -13.5t41 -37t18 -53.5t4 -63v-76h-110v84q0 25 -7.5 38t-28.5 13q-35 0 -35 -51v-435q0 -53 37 -53q22 0 32 13.5t10 34.5v186h-51v114h158v-452h-64q-1 3 -6.5 26t-12.5 47
q-3 -9 -11.5 -23.5t-21.5 -27.5t-31 -22.5t-39 -9.5h-7zM279 773h-81l-27 48l-27 -48h-80l63 109h89z" />
    <glyph glyph-name="uni0122" unicode="&#x122;" horiz-adv-x="341" 
d="M128 -10q-50 0 -79 39t-29 97v465q0 31 6.5 60t22.5 51t43 35.5t67 13.5h22q45 0 72 -13.5t41 -37t18 -53.5t4 -63v-76h-110v84q0 25 -7.5 38t-28.5 13q-35 0 -35 -51v-435q0 -53 37 -53q22 0 32 13.5t10 34.5v186h-51v114h158v-452h-64q-1 3 -6.5 26t-12.5 47
q-3 -9 -11.5 -23.5t-21.5 -27.5t-31 -22.5t-39 -9.5h-7zM152 -196q4 10 8 27t5 38h-38v102h92v-64q0 -42 -8.5 -67t-13.5 -36h-45z" />
    <glyph glyph-name="Gdotaccent" unicode="&#x120;" horiz-adv-x="341" 
d="M128 -10q-50 0 -79 39t-29 97v465q0 31 6.5 60t22.5 51t43 35.5t67 13.5h22q45 0 72 -13.5t41 -37t18 -53.5t4 -63v-76h-110v84q0 25 -7.5 38t-28.5 13q-35 0 -35 -51v-435q0 -53 37 -53q22 0 32 13.5t10 34.5v186h-51v114h158v-452h-64q-1 3 -6.5 26t-12.5 47
q-3 -9 -11.5 -23.5t-21.5 -27.5t-31 -22.5t-39 -9.5h-7zM224 773h-107v115h107v-115z" />
    <glyph glyph-name="Hbar" unicode="&#x126;" horiz-adv-x="349" 
d="M-5 637h359v-84h-359v84zM136 0h-113v744h113v-298h77v298h113v-744h-113v327h-77v-327z" />
    <glyph glyph-name="Hcircumflex" unicode="&#x124;" horiz-adv-x="349" 
d="M136 0h-113v744h113v-298h77v298h113v-744h-113v327h-77v-327zM282 773h-81l-27 48l-27 -48h-80l63 109h89z" />
    <glyph glyph-name="Ibreve" unicode="&#x12c;" horiz-adv-x="159" 
d="M136 0h-113v744h113v-744zM81 770h-3q-42 0 -70.5 24t-28.5 70v6h77v-4q0 -27 23 -27h1q11 0 17.5 7t6.5 20v4h76v-6q0 -46 -30 -70t-69 -24z" />
    <glyph glyph-name="Idotaccent" unicode="&#x130;" horiz-adv-x="159" 
d="M136 0h-113v744h113v-744zM132 773h-107v115h107v-115z" />
    <glyph glyph-name="Imacron" unicode="&#x12a;" horiz-adv-x="159" 
d="M136 0h-113v744h113v-744zM-7 859h173v-79h-173v79z" />
    <glyph glyph-name="Iogonek" unicode="&#x12e;" horiz-adv-x="159" 
d="M136 0h-113v744h113v-744zM14 -109q0 28 18.5 54t47.5 55h56q-25 -34 -34 -52.5t-9 -38.5v-4q0 -21 24 -21h19v-72h-50q-30 0 -51 16t-21 48v15z" />
    <glyph glyph-name="Itilde" unicode="&#x128;" horiz-adv-x="159" 
d="M136 0h-113v744h113v-744zM177 832q0 -26 -11 -41.5t-31 -15.5h-1q-14 0 -27 4.5t-30 12.5l-13 6.5t-10 2.5q-7 0 -7 -9v-19h-64v47q0 29 11.5 42.5t31.5 13.5h1q13 0 24.5 -3.5t29.5 -12.5q9 -5 15 -8t11 -3q6 0 6 9v20h64v-46z" />
    <glyph glyph-name="Jcircumflex" unicode="&#x134;" horiz-adv-x="319" 
d="M126 328v-183q0 -20 5.5 -30.5t21.5 -10.5h4q16 0 21 12t5 29v599h115v-608q0 -73 -34.5 -107.5t-93.5 -34.5h-31q-27 0 -50 6.5t-39.5 22.5t-25.5 42t-9 64v199h111zM346 773h-81l-27 48l-27 -48h-80l63 109h89z" />
    <glyph glyph-name="uni0136" unicode="&#x136;" 
d="M136 0h-113v744h113v-298l89 298h110l-105 -346l116 -398h-116l-94 323v-323zM159 -196q4 10 8 27t5 38h-38v102h92v-64q0 -42 -8.5 -67t-13.5 -36h-45z" />
    <glyph glyph-name="Lacute" unicode="&#x139;" horiz-adv-x="284" 
d="M136 744v-629h138v-115h-251v744h113zM76 882h94l-44 -109h-92z" />
    <glyph glyph-name="Lcaron" unicode="&#x13d;" horiz-adv-x="284" 
d="M161 744h81l-12 -144h-76zM136 744v-629h138v-115h-251v744h113z" />
    <glyph glyph-name="uni013B" unicode="&#x13b;" horiz-adv-x="284" 
d="M136 744v-629h138v-115h-251v744h113zM129 -196q4 10 8 27t5 38h-38v102h92v-64q0 -42 -8.5 -67t-13.5 -36h-45z" />
    <glyph glyph-name="Ldot" unicode="&#x13f;" horiz-adv-x="283" 
d="M272 321h-105v127h105v-127zM136 744v-629h138v-115h-251v744h113z" />
    <glyph glyph-name="Nacute" unicode="&#x143;" horiz-adv-x="348" 
d="M125 744l97 -399v399h103v-744h-92l-108 428v-428h-102v744h102zM168 882h94l-44 -109h-92z" />
    <glyph glyph-name="Ncaron" unicode="&#x147;" horiz-adv-x="348" 
d="M125 744l97 -399v399h103v-744h-92l-108 428v-428h-102v744h102zM70 882h81l27 -48l27 48h80l-63 -109h-89z" />
    <glyph glyph-name="uni0145" unicode="&#x145;" horiz-adv-x="348" 
d="M125 744l97 -399v399h103v-744h-92l-108 428v-428h-102v744h102zM157 -196q4 10 8 27t5 38h-38v102h92v-64q0 -42 -8.5 -67t-13.5 -36h-45z" />
    <glyph glyph-name="Obreve" unicode="&#x14e;" horiz-adv-x="349" 
d="M329 166q0 -39 -7 -71t-24 -55.5t-44.5 -36t-68.5 -12.5h-19q-41 0 -68.5 12.5t-45 36t-25 55.5t-7.5 71v414q0 39 7.5 70.5t25 54t45 34.5t67.5 12h19q41 0 69 -12t45 -34.5t24 -54t7 -69.5v-415zM214 586q0 57 -39 57q-22 0 -31 -14t-9 -43v-428q0 -24 8.5 -40.5
t32.5 -16.5q23 0 30.5 16.5t7.5 40.5v428zM176 770h-3q-42 0 -70.5 24t-28.5 70v6h77v-4q0 -27 23 -27h1q11 0 17.5 7t6.5 20v4h76v-6q0 -46 -30 -70t-69 -24z" />
    <glyph glyph-name="Ohungarumlaut" unicode="&#x150;" horiz-adv-x="349" 
d="M329 166q0 -39 -7 -71t-24 -55.5t-44.5 -36t-68.5 -12.5h-19q-41 0 -68.5 12.5t-45 36t-25 55.5t-7.5 71v414q0 39 7.5 70.5t25 54t45 34.5t67.5 12h19q41 0 69 -12t45 -34.5t24 -54t7 -69.5v-415zM214 586q0 57 -39 57q-22 0 -31 -14t-9 -43v-428q0 -24 8.5 -40.5
t32.5 -16.5q23 0 30.5 16.5t7.5 40.5v428zM194 773l29 108h78l-32 -108h-75zM122 881h78l-28 -108h-75z" />
    <glyph glyph-name="Omacron" unicode="&#x14c;" horiz-adv-x="349" 
d="M329 166q0 -39 -7 -71t-24 -55.5t-44.5 -36t-68.5 -12.5h-19q-41 0 -68.5 12.5t-45 36t-25 55.5t-7.5 71v414q0 39 7.5 70.5t25 54t45 34.5t67.5 12h19q41 0 69 -12t45 -34.5t24 -54t7 -69.5v-415zM214 586q0 57 -39 57q-22 0 -31 -14t-9 -43v-428q0 -24 8.5 -40.5
t32.5 -16.5q23 0 30.5 16.5t7.5 40.5v428zM88 859h173v-79h-173v79z" />
    <glyph glyph-name="Oslashacute" unicode="&#x1fe;" horiz-adv-x="349" 
d="M330 152q0 -34 -9.5 -63.5t-27.5 -51.5t-44.5 -34.5t-61.5 -12.5h-21q-35 0 -56.5 12t-31.5 23l-11 -25h-68l31 81q-6 14 -8.5 32t-2.5 39v429q0 38 7.5 69.5t25 54t45 34.5t66.5 12h23q33 0 53 -9t34 -22l9 24h68l-31 -83q11 -35 11 -79v-430zM175 641q-26 0 -35 -14
t-9 -42v-257l88 256v2q0 55 -44 55zM175 105q27 0 35.5 15.5t8.5 33.5v261l-88 -254v-8q0 -17 9 -32.5t35 -15.5zM171 882h94l-44 -109h-92z" />
    <glyph glyph-name="Racute" unicode="&#x154;" horiz-adv-x="339" 
d="M136 438h30q23 0 32 14t9 39v104q0 24 -7.5 36t-33.5 12h-30v-205zM136 0h-113v744h183q57 0 85 -26t28 -89v-132q0 -23 -5 -39.5t-12 -28t-16 -18t-16 -9.5q19 -8 34 -25.5t15 -55.5v-261q0 -23 3.5 -35t7.5 -20v-5h-112q-4 6 -7.5 18.5t-3.5 42.5v224q0 25 -7.5 36
t-34.5 11h-29v-332zM159 882h94l-44 -109h-92z" />
    <glyph glyph-name="Rcaron" unicode="&#x158;" horiz-adv-x="339" 
d="M136 438h30q23 0 32 14t9 39v104q0 24 -7.5 36t-33.5 12h-30v-205zM136 0h-113v744h183q57 0 85 -26t28 -89v-132q0 -23 -5 -39.5t-12 -28t-16 -18t-16 -9.5q19 -8 34 -25.5t15 -55.5v-261q0 -23 3.5 -35t7.5 -20v-5h-112q-4 6 -7.5 18.5t-3.5 42.5v224q0 25 -7.5 36
t-34.5 11h-29v-332zM56 882h81l27 -48l27 48h80l-63 -109h-89z" />
    <glyph glyph-name="uni0156" unicode="&#x156;" horiz-adv-x="339" 
d="M136 438h30q23 0 32 14t9 39v104q0 24 -7.5 36t-33.5 12h-30v-205zM136 0h-113v744h183q57 0 85 -26t28 -89v-132q0 -23 -5 -39.5t-12 -28t-16 -18t-16 -9.5q19 -8 34 -25.5t15 -55.5v-261q0 -23 3.5 -35t7.5 -20v-5h-112q-4 6 -7.5 18.5t-3.5 42.5v224q0 25 -7.5 36
t-34.5 11h-29v-332zM154 -196q4 10 8 27t5 38h-38v102h92v-64q0 -42 -8.5 -67t-13.5 -36h-45z" />
    <glyph glyph-name="Sacute" unicode="&#x15a;" horiz-adv-x="333" 
d="M180 751q70 0 99.5 -31.5t29.5 -97.5v-122h-109v107q0 19 -6 31.5t-26 12.5t-26.5 -13t-6.5 -39v-14q0 -16 2 -29t7 -25.5t14 -27t23 -32.5l72 -93q19 -25 32 -45.5t20.5 -41.5t11 -45.5t3.5 -55.5v-24q0 -82 -35.5 -128t-110.5 -46h-22q-68 0 -103 36t-35 105v149h112
v-130q0 -52 37 -52q20 0 28.5 14.5t8.5 49.5v17q0 20 -1.5 34.5t-6 28t-14 28t-24.5 34.5l-72 92q-18 23 -30 44.5t-19 43t-10 45t-3 51.5v24q0 75 36 110t103 35h21zM164 882h94l-44 -109h-92z" />
    <glyph glyph-name="uni015E" unicode="&#x15e;" horiz-adv-x="333" 
d="M180 751q70 0 99.5 -31.5t29.5 -97.5v-122h-109v107q0 19 -6 31.5t-26 12.5t-26.5 -13t-6.5 -39v-14q0 -16 2 -29t7 -25.5t14 -27t23 -32.5l72 -93q19 -25 32 -45.5t20.5 -41.5t11 -45.5t3.5 -55.5v-24q0 -82 -35.5 -128t-110.5 -46h-22q-68 0 -103 36t-35 105v149h112
v-130q0 -52 37 -52q20 0 28.5 14.5t8.5 49.5v17q0 20 -1.5 34.5t-6 28t-14 28t-24.5 34.5l-72 92q-18 23 -30 44.5t-19 43t-10 45t-3 51.5v24q0 75 36 110t103 35h21zM151 -188h-55v60h38q24 0 24 18q0 19 -24 19h-23v91h55v-40q35 0 56 -17.5t21 -53.5v-3q0 -38 -27 -56
t-65 -18z" />
    <glyph glyph-name="Scircumflex" unicode="&#x15c;" horiz-adv-x="333" 
d="M180 751q70 0 99.5 -31.5t29.5 -97.5v-122h-109v107q0 19 -6 31.5t-26 12.5t-26.5 -13t-6.5 -39v-14q0 -16 2 -29t7 -25.5t14 -27t23 -32.5l72 -93q19 -25 32 -45.5t20.5 -41.5t11 -45.5t3.5 -55.5v-24q0 -82 -35.5 -128t-110.5 -46h-22q-68 0 -103 36t-35 105v149h112
v-130q0 -52 37 -52q20 0 28.5 14.5t8.5 49.5v17q0 20 -1.5 34.5t-6 28t-14 28t-24.5 34.5l-72 92q-18 23 -30 44.5t-19 43t-10 45t-3 51.5v24q0 75 36 110t103 35h21zM275 773h-81l-27 48l-27 -48h-80l63 109h89z" />
    <glyph glyph-name="uni0218" unicode="&#x218;" horiz-adv-x="333" 
d="M180 751q70 0 99.5 -31.5t29.5 -97.5v-122h-109v107q0 19 -6 31.5t-26 12.5t-26.5 -13t-6.5 -39v-14q0 -16 2 -29t7 -25.5t14 -27t23 -32.5l72 -93q19 -25 32 -45.5t20.5 -41.5t11 -45.5t3.5 -55.5v-24q0 -82 -35.5 -128t-110.5 -46h-22q-68 0 -103 36t-35 105v149h112
v-130q0 -52 37 -52q20 0 28.5 14.5t8.5 49.5v17q0 20 -1.5 34.5t-6 28t-14 28t-24.5 34.5l-72 92q-18 23 -30 44.5t-19 43t-10 45t-3 51.5v24q0 75 36 110t103 35h21zM142 -196q4 10 8 27t5 38h-38v102h92v-64q0 -42 -8.5 -67t-13.5 -36h-45z" />
    <glyph glyph-name="Tcaron" unicode="&#x164;" horiz-adv-x="320" 
d="M311 744v-108h-95v-636h-112v636h-95v108h302zM54 882h81l27 -48l27 48h80l-63 -109h-89z" />
    <glyph glyph-name="Tcommaaccent" unicode="&#x162;" horiz-adv-x="320" 
d="M311 744v-108h-95v-636h-112v636h-95v108h302zM141 -196q4 10 8 27t5 38h-38v102h92v-64q0 -42 -8.5 -67t-13.5 -36h-45z" />
    <glyph glyph-name="uni021A" unicode="&#x21a;" horiz-adv-x="320" 
d="M311 744v-108h-95v-636h-112v636h-95v108h302zM141 -196q4 10 8 27t5 38h-38v102h92v-64q0 -42 -8.5 -67t-13.5 -36h-45z" />
    <glyph glyph-name="Tbar" unicode="&#x166;" horiz-adv-x="320" 
d="M34 368v96h252v-96h-252zM311 744v-108h-95v-636h-112v636h-95v108h302z" />
    <glyph glyph-name="Ubreve" unicode="&#x16c;" horiz-adv-x="345" 
d="M21 744h115v-589q0 -24 8.5 -38.5t27.5 -14.5q20 0 28.5 14t8.5 39v589h115v-582q0 -79 -33.5 -125t-108.5 -46h-20q-75 0 -108 45t-33 126v582zM174 770h-3q-42 0 -70.5 24t-28.5 70v6h77v-4q0 -27 23 -27h1q11 0 17.5 7t6.5 20v4h76v-6q0 -46 -30 -70t-69 -24z" />
    <glyph glyph-name="Uhungarumlaut" unicode="&#x170;" horiz-adv-x="345" 
d="M21 744h115v-589q0 -24 8.5 -38.5t27.5 -14.5q20 0 28.5 14t8.5 39v589h115v-582q0 -79 -33.5 -125t-108.5 -46h-20q-75 0 -108 45t-33 126v582zM183 773l29 108h78l-32 -108h-75zM111 881h78l-28 -108h-75z" />
    <glyph glyph-name="Umacron" unicode="&#x16a;" horiz-adv-x="345" 
d="M21 744h115v-589q0 -24 8.5 -38.5t27.5 -14.5q20 0 28.5 14t8.5 39v589h115v-582q0 -79 -33.5 -125t-108.5 -46h-20q-75 0 -108 45t-33 126v582zM86 859h173v-79h-173v79z" />
    <glyph glyph-name="Uogonek" unicode="&#x172;" horiz-adv-x="345" 
d="M263 0q-24 -31 -34 -51t-10 -40v-4q0 -21 24 -21h19v-72h-50q-30 0 -51 16t-21 48v15q0 26 16 50.5t43 50.5q-4 -1 -8 -1h-9h-20q-75 0 -108 45t-33 126v582h115v-589q0 -24 8.5 -38.5t27.5 -14.5q20 0 28.5 14t8.5 39v589h115v-582q0 -36 -6 -61t-15 -43t-19.5 -31.5z
" />
    <glyph glyph-name="Uring" unicode="&#x16e;" horiz-adv-x="345" 
d="M21 744h115v-589q0 -24 8.5 -38.5t27.5 -14.5q20 0 28.5 14t8.5 39v589h115v-582q0 -79 -33.5 -125t-108.5 -46h-20q-75 0 -108 45t-33 126v582zM173 813q14 0 22.5 9t8.5 24q0 14 -8.5 23.5t-22.5 9.5t-22.5 -9.5t-8.5 -23.5q0 -15 8.5 -24t22.5 -9zM252 847
q0 -35 -22 -58t-57 -23t-57.5 23t-22.5 58q0 33 23 56t57 23q35 0 57 -23t22 -56z" />
    <glyph glyph-name="Utilde" unicode="&#x168;" horiz-adv-x="345" 
d="M21 744h115v-589q0 -24 8.5 -38.5t27.5 -14.5q20 0 28.5 14t8.5 39v589h115v-582q0 -79 -33.5 -125t-108.5 -46h-20q-75 0 -108 45t-33 126v582zM270 832q0 -26 -11 -41.5t-31 -15.5h-1q-14 0 -27 4.5t-30 12.5l-13 6.5t-10 2.5q-7 0 -7 -9v-19h-64v47q0 29 11.5 42.5
t31.5 13.5h1q13 0 24.5 -3.5t29.5 -12.5q9 -5 15 -8t11 -3q6 0 6 9v20h64v-46z" />
    <glyph glyph-name="Wacute" unicode="&#x1e82;" horiz-adv-x="531" 
d="M321 744l51 -482l52 482h106l-95 -744h-121l-47 433l-48 -433h-125l-93 744h114l51 -481l50 481h105zM265 882h94l-44 -109h-92z" />
    <glyph glyph-name="Wcircumflex" unicode="&#x174;" horiz-adv-x="531" 
d="M321 744l51 -482l52 482h106l-95 -744h-121l-47 433l-48 -433h-125l-93 744h114l51 -481l50 481h105zM374 773h-81l-27 48l-27 -48h-80l63 109h89z" />
    <glyph glyph-name="Wdieresis" unicode="&#x1e84;" horiz-adv-x="531" 
d="M321 744l51 -482l52 482h106l-95 -744h-121l-47 433l-48 -433h-125l-93 744h114l51 -481l50 481h105zM255 773h-90v99h90v-99zM371 773h-90v99h90v-99z" />
    <glyph glyph-name="Wgrave" unicode="&#x1e80;" horiz-adv-x="531" 
d="M321 744l51 -482l52 482h106l-95 -744h-121l-47 433l-48 -433h-125l-93 744h114l51 -481l50 481h105zM221 773l-44 109h94l42 -109h-92z" />
    <glyph glyph-name="Ycircumflex" unicode="&#x176;" horiz-adv-x="306" 
d="M211 309v-309h-113v310l-102 434h110l52 -278l50 278h102zM264 773h-81l-27 48l-27 -48h-80l63 109h89z" />
    <glyph glyph-name="Ygrave" unicode="&#x1ef2;" horiz-adv-x="306" 
d="M211 309v-309h-113v310l-102 434h110l52 -278l50 278h102zM113 773l-44 109h94l42 -109h-92z" />
    <glyph glyph-name="Zacute" unicode="&#x179;" horiz-adv-x="305" 
d="M289 744v-98l-163 -537h171v-109h-289v101l161 537h-151v106h271zM146 882h94l-44 -109h-92z" />
    <glyph glyph-name="Zdotaccent" unicode="&#x17b;" horiz-adv-x="305" 
d="M289 744v-98l-163 -537h171v-109h-289v101l161 537h-151v106h271zM206 773h-107v115h107v-115z" />
    <glyph glyph-name="abreve" unicode="&#x103;" horiz-adv-x="310" 
d="M15 207q0 40 11 65t40 43q9 6 22.5 13t27.5 13.5t25.5 12.5l17.5 9q8 5 10.5 8.5t2.5 14.5v34q0 20 -6 27.5t-20 7.5h-2q-16 0 -21.5 -8t-5.5 -26v-57h-96v76q0 15 3.5 33t15 33t34 25.5t60.5 10.5h20q39 0 62.5 -8.5t36.5 -23.5t17.5 -34t4.5 -40v-320q0 -10 3 -13.5
t14 -3.5h19v-99h-102q-17 0 -26 13.5t-9 47.5q-5 -9 -12.5 -20.5t-19 -21t-25.5 -16t-31 -6.5h-3q-16 0 -28.5 7t-21.5 19t-13.5 27t-4.5 31v126zM172 272q-9 -5 -19.5 -12t-18.5 -15t-11 -17.5t-3 -25.5v-74q0 -35 25 -35q27 0 27 40v139zM146 565h-3q-45 0 -73 25t-28 78
v4h78v-4q0 -34 24 -34h1q10 0 17 8t7 26v4h75v-4q0 -53 -28.5 -78t-69.5 -25z" />
    <glyph glyph-name="amacron" unicode="&#x101;" horiz-adv-x="310" 
d="M15 207q0 40 11 65t40 43q9 6 22.5 13t27.5 13.5t25.5 12.5l17.5 9q8 5 10.5 8.5t2.5 14.5v34q0 20 -6 27.5t-20 7.5h-2q-16 0 -21.5 -8t-5.5 -26v-57h-96v76q0 15 3.5 33t15 33t34 25.5t60.5 10.5h20q39 0 62.5 -8.5t36.5 -23.5t17.5 -34t4.5 -40v-320q0 -10 3 -13.5
t14 -3.5h19v-99h-102q-17 0 -26 13.5t-9 47.5q-5 -9 -12.5 -20.5t-19 -21t-25.5 -16t-31 -6.5h-3q-16 0 -28.5 7t-21.5 19t-13.5 27t-4.5 31v126zM172 272q-9 -5 -19.5 -12t-18.5 -15t-11 -17.5t-3 -25.5v-74q0 -35 25 -35q27 0 27 40v139zM59 656h172v-77h-172v77z" />
    <glyph glyph-name="aogonek" unicode="&#x105;" horiz-adv-x="310" 
d="M15 207q0 40 11 65t40 43q9 6 22.5 13t27.5 13.5t25.5 12.5l17.5 9q8 5 10.5 8.5t2.5 14.5v34q0 20 -6 27.5t-20 7.5h-2q-16 0 -21.5 -8t-5.5 -26v-57h-96v76q0 15 3.5 33t15 33t34 25.5t60.5 10.5h20q39 0 62.5 -8.5t36.5 -23.5t17.5 -34t4.5 -40v-320q0 -10 3 -13.5
t14 -3.5h19v-99h-102q-17 0 -26 13.5t-9 47.5q-5 -9 -12.5 -20.5t-19 -21t-25.5 -16t-31 -6.5h-3q-16 0 -28.5 7t-21.5 19t-13.5 27t-4.5 31v126zM172 272q-9 -5 -19.5 -12t-18.5 -15t-11 -17.5t-3 -25.5v-74q0 -35 25 -35q27 0 27 40v139zM189 -109q0 28 18.5 54t47.5 55
h56q-25 -34 -34 -52.5t-9 -38.5v-4q0 -21 24 -21h19v-72h-50q-30 0 -51 16t-21 48v15z" />
    <glyph glyph-name="aringacute" unicode="&#x1fb;" horiz-adv-x="310" 
d="M15 207q0 40 11 65t40 43q9 6 22.5 13t27.5 13.5t25.5 12.5l17.5 9q8 5 10.5 8.5t2.5 14.5v34q0 20 -6 27.5t-20 7.5h-2q-16 0 -21.5 -8t-5.5 -26v-57h-96v76q0 15 3.5 33t15 33t34 25.5t60.5 10.5h20q39 0 62.5 -8.5t36.5 -23.5t17.5 -34t4.5 -40v-320q0 -10 3 -13.5
t14 -3.5h19v-99h-102q-17 0 -26 13.5t-9 47.5q-5 -9 -12.5 -20.5t-19 -21t-25.5 -16t-31 -6.5h-3q-16 0 -28.5 7t-21.5 19t-13.5 27t-4.5 31v126zM172 272q-9 -5 -19.5 -12t-18.5 -15t-11 -17.5t-3 -25.5v-74q0 -35 25 -35q27 0 27 40v139zM143 563q-35 0 -57.5 23t-22.5 58
q0 33 23 56t57 23q35 0 57 -23t22 -56q0 -35 -22 -58t-57 -23zM143 610q14 0 22.5 9t8.5 24q0 14 -8.5 23.5t-22.5 9.5t-22.5 -9.5t-8.5 -23.5q0 -15 8.5 -24t22.5 -9zM139 872h90l-40 -130h-88z" />
    <glyph glyph-name="aeacute" unicode="&#x1fd;" horiz-adv-x="450" 
d="M181 59q-12 -21 -35 -41.5t-58 -20.5h-3q-17 0 -30 7t-22 19t-13.5 27t-4.5 31v104q0 40 11 65t40 43q9 6 22.5 13t27.5 13.5t25.5 12.5l17.5 9q8 5 10.5 8.5t2.5 14.5v58q0 20 -6 27.5t-20 7.5h-2q-16 0 -21.5 -8t-5.5 -26v-81h-96v100q0 15 3.5 33t15 33t34 25.5
t60.5 10.5h18q21 0 34.5 -3.5t22 -8.5t12.5 -9.5t6 -7.5q4 6 21 18.5t52 12.5h17q62 0 89.5 -34t27.5 -100v-159h-159v-120q0 -18 6 -29t23 -11q14 0 20.5 11t6.5 28v85h103v-89q0 -38 -10 -64t-26.5 -42.5t-38.5 -23.5t-46 -7h-17q-32 0 -52.5 7t-33 17.5t-19.5 22
t-10 21.5zM172 250q-9 -5 -19.5 -12t-18.5 -15t-11 -17.5t-3 -25.5v-52q0 -35 25 -35q27 0 27 40v117zM275 347h59v67q0 17 -5 29.5t-24 12.5q-20 0 -25 -12.5t-5 -29.5v-67zM221 697h90l-40 -130h-88z" />
    <glyph glyph-name="cacute" unicode="&#x107;" horiz-adv-x="297" 
d="M282 241v-121q0 -23 -6.5 -46t-20.5 -41.5t-37.5 -30t-56.5 -11.5h-20q-32 0 -55.5 10.5t-38.5 28t-22.5 41t-7.5 50.5v293q0 63 31 97.5t97 34.5h19q33 0 56 -9t36.5 -25t19.5 -37t6 -46v-96h-103v73q0 20 -4 32.5t-23 12.5q-18 0 -22.5 -12t-4.5 -32v-275
q0 -19 5.5 -30t20.5 -11q16 0 22 11t6 29v110h103zM146 697h90l-40 -130h-88z" />
    <glyph glyph-name="ccaron" unicode="&#x10d;" horiz-adv-x="297" 
d="M282 241v-121q0 -23 -6.5 -46t-20.5 -41.5t-37.5 -30t-56.5 -11.5h-20q-32 0 -55.5 10.5t-38.5 28t-22.5 41t-7.5 50.5v293q0 63 31 97.5t97 34.5h19q33 0 56 -9t36.5 -25t19.5 -37t6 -46v-96h-103v73q0 20 -4 32.5t-23 12.5q-18 0 -22.5 -12t-4.5 -32v-275
q0 -19 5.5 -30t20.5 -11q16 0 22 11t6 29v110h103zM49 697h79l25 -64l25 64h77l-57 -130h-92z" />
    <glyph glyph-name="ccircumflex" unicode="&#x109;" horiz-adv-x="297" 
d="M282 241v-121q0 -23 -6.5 -46t-20.5 -41.5t-37.5 -30t-56.5 -11.5h-20q-32 0 -55.5 10.5t-38.5 28t-22.5 41t-7.5 50.5v293q0 63 31 97.5t97 34.5h19q33 0 56 -9t36.5 -25t19.5 -37t6 -46v-96h-103v73q0 20 -4 32.5t-23 12.5q-18 0 -22.5 -12t-4.5 -32v-275
q0 -19 5.5 -30t20.5 -11q16 0 22 11t6 29v110h103zM256 567h-79l-25 65l-25 -65h-77l57 131h92z" />
    <glyph glyph-name="cdotaccent" unicode="&#x10b;" horiz-adv-x="297" 
d="M282 241v-121q0 -23 -6.5 -46t-20.5 -41.5t-37.5 -30t-56.5 -11.5h-20q-32 0 -55.5 10.5t-38.5 28t-22.5 41t-7.5 50.5v293q0 63 31 97.5t97 34.5h19q33 0 56 -9t36.5 -25t19.5 -37t6 -46v-96h-103v73q0 20 -4 32.5t-23 12.5q-18 0 -22.5 -12t-4.5 -32v-275
q0 -19 5.5 -30t20.5 -11q16 0 22 11t6 29v110h103zM205 567h-107v115h107v-115z" />
    <glyph glyph-name="dcaron" unicode="&#x10f;" horiz-adv-x="311" 
d="M291 744v-744h-107v61q-3 -8 -9.5 -19.5t-17 -22t-24.5 -17.5t-32 -7h-1q-36 0 -58.5 31.5t-22.5 82.5v328q0 19 4.5 37.5t13.5 33.5t23.5 24t35.5 9h2q18 0 32 -6.5t24.5 -16t17.5 -20l12 -17.5v263h107zM184 397q0 21 -6.5 34.5t-23.5 13.5q-28 0 -28 -43v-266
q0 -43 28 -43q17 0 23.5 12.5t6.5 36.5v255zM316 744h81l-12 -144h-76z" />
    <glyph glyph-name="ebreve" unicode="&#x115;" horiz-adv-x="295" 
d="M159 545q63 0 91.5 -34t28.5 -100v-155h-159v-124q0 -18 6 -29t23 -11q14 0 20.5 11t6.5 28v89h103v-94q0 -72 -34 -104t-91 -32h-19q-54 0 -86 33t-32 102v291q0 55 28.5 92t93.5 37h20zM120 344h59v68q0 18 -5 30.5t-24 12.5q-20 0 -25 -12.5t-5 -30.5v-68zM151 565h-3
q-45 0 -73 25t-28 78v4h78v-4q0 -34 24 -34h1q10 0 17 8t7 26v4h75v-4q0 -53 -28.5 -78t-69.5 -25z" />
    <glyph glyph-name="ecaron" unicode="&#x11b;" horiz-adv-x="295" 
d="M159 545q63 0 91.5 -34t28.5 -100v-155h-159v-124q0 -18 6 -29t23 -11q14 0 20.5 11t6.5 28v89h103v-94q0 -72 -34 -104t-91 -32h-19q-54 0 -86 33t-32 102v291q0 55 28.5 92t93.5 37h20zM120 344h59v68q0 18 -5 30.5t-24 12.5q-20 0 -25 -12.5t-5 -30.5v-68zM47 697h79
l25 -64l25 64h77l-57 -130h-92z" />
    <glyph glyph-name="edotaccent" unicode="&#x117;" horiz-adv-x="295" 
d="M159 545q63 0 91.5 -34t28.5 -100v-155h-159v-124q0 -18 6 -29t23 -11q14 0 20.5 11t6.5 28v89h103v-94q0 -72 -34 -104t-91 -32h-19q-54 0 -86 33t-32 102v291q0 55 28.5 92t93.5 37h20zM120 344h59v68q0 18 -5 30.5t-24 12.5q-20 0 -25 -12.5t-5 -30.5v-68zM203 567
h-107v115h107v-115z" />
    <glyph glyph-name="emacron" unicode="&#x113;" horiz-adv-x="295" 
d="M159 545q63 0 91.5 -34t28.5 -100v-155h-159v-124q0 -18 6 -29t23 -11q14 0 20.5 11t6.5 28v89h103v-94q0 -72 -34 -104t-91 -32h-19q-54 0 -86 33t-32 102v291q0 55 28.5 92t93.5 37h20zM120 344h59v68q0 18 -5 30.5t-24 12.5q-20 0 -25 -12.5t-5 -30.5v-68zM64 656h172
v-77h-172v77z" />
    <glyph glyph-name="eogonek" unicode="&#x119;" horiz-adv-x="295" 
d="M228 -3q-24 -31 -33 -50.5t-9 -37.5v-4q0 -21 24 -21h19v-72h-50q-30 0 -51 16t-21 48v15q0 26 15 49.5t40 49.5h-8h-19q-54 0 -86 33t-32 102v291q0 55 28.5 92t93.5 37h20q63 0 91.5 -34t28.5 -100v-155h-159v-124q0 -18 6 -29t23 -11q14 0 20.5 11t6.5 28v89h103v-94
q0 -29 -5.5 -49t-13 -34.5t-16.5 -25.5zM120 344h59v68q0 18 -5 30.5t-24 12.5q-20 0 -25 -12.5t-5 -30.5v-68z" />
    <glyph glyph-name="gbreve" unicode="&#x11f;" horiz-adv-x="312" 
d="M185 64q-12 -26 -33.5 -47.5t-54.5 -21.5q-32 0 -55 27.5t-23 72.5v322q0 59 20 91.5t59 32.5q35 0 55 -19.5t34 -45.5v62h105v-625q0 -15 -3.5 -33.5t-16 -35t-38 -28t-68.5 -11.5h-24q-36 0 -59.5 7.5t-36.5 20.5t-18 29.5t-5 34.5v78h103v-48q0 -15 6 -23t21 -8h4
q17 0 22.5 8t5.5 23v137zM185 407q0 17 -6.5 28t-23.5 11q-15 0 -21.5 -11t-6.5 -28v-273q0 -18 7 -29t22 -11q14 0 21.5 11t7.5 30v272zM157 565h-3q-45 0 -73 25t-28 78v4h78v-4q0 -34 24 -34h1q10 0 17 8t7 26v4h75v-4q0 -53 -28.5 -78t-69.5 -25z" />
    <glyph glyph-name="gcircumflex" unicode="&#x11d;" horiz-adv-x="312" 
d="M185 64q-12 -26 -33.5 -47.5t-54.5 -21.5q-32 0 -55 27.5t-23 72.5v322q0 59 20 91.5t59 32.5q35 0 55 -19.5t34 -45.5v62h105v-625q0 -15 -3.5 -33.5t-16 -35t-38 -28t-68.5 -11.5h-24q-36 0 -59.5 7.5t-36.5 20.5t-18 29.5t-5 34.5v78h103v-48q0 -15 6 -23t21 -8h4
q17 0 22.5 8t5.5 23v137zM185 407q0 17 -6.5 28t-23.5 11q-15 0 -21.5 -11t-6.5 -28v-273q0 -18 7 -29t22 -11q14 0 21.5 11t7.5 30v272zM258 567h-79l-25 65l-25 -65h-77l57 131h92z" />
    <glyph glyph-name="uni0123" unicode="&#x123;" horiz-adv-x="312" 
d="M185 64q-12 -26 -33.5 -47.5t-54.5 -21.5q-32 0 -55 27.5t-23 72.5v322q0 59 20 91.5t59 32.5q35 0 55 -19.5t34 -45.5v62h105v-625q0 -15 -3.5 -33.5t-16 -35t-38 -28t-68.5 -11.5h-24q-36 0 -59.5 7.5t-36.5 20.5t-18 29.5t-5 34.5v78h103v-48q0 -15 6 -23t21 -8h4
q17 0 22.5 8t5.5 23v137zM185 407q0 17 -6.5 28t-23.5 11q-15 0 -21.5 -11t-6.5 -28v-273q0 -18 7 -29t22 -11q14 0 21.5 11t7.5 30v272zM176 734q-4 -11 -8.5 -28t-4.5 -38h37v-101h-93v62q0 43 7.5 68.5t12.5 36.5h49z" />
    <glyph glyph-name="gdotaccent" unicode="&#x121;" horiz-adv-x="312" 
d="M185 64q-12 -26 -33.5 -47.5t-54.5 -21.5q-32 0 -55 27.5t-23 72.5v322q0 59 20 91.5t59 32.5q35 0 55 -19.5t34 -45.5v62h105v-625q0 -15 -3.5 -33.5t-16 -35t-38 -28t-68.5 -11.5h-24q-36 0 -59.5 7.5t-36.5 20.5t-18 29.5t-5 34.5v78h103v-48q0 -15 6 -23t21 -8h4
q17 0 22.5 8t5.5 23v137zM185 407q0 17 -6.5 28t-23.5 11q-15 0 -21.5 -11t-6.5 -28v-273q0 -18 7 -29t22 -11q14 0 21.5 11t7.5 30v272zM208 567h-107v115h107v-115z" />
    <glyph glyph-name="hbar" unicode="&#x127;" horiz-adv-x="313" 
d="M-18 663h223v-71h-223v71zM20 744h107v-267q14 24 36 44t53 20h5q21 0 35 -8t22.5 -20.5t11.5 -27t3 -27.5v-458h-108v403q0 19 -6 29.5t-22 10.5q-17 0 -23.5 -11t-6.5 -33v-399h-107v744z" />
    <glyph glyph-name="hcircumflex" unicode="&#x125;" horiz-adv-x="313" 
d="M20 744h107v-267q14 24 36 44t53 20h5q21 0 35 -8t22.5 -20.5t11.5 -27t3 -27.5v-458h-108v403q0 19 -6 29.5t-22 10.5q-17 0 -23.5 -11t-6.5 -33v-399h-107v744zM247 773h-81l-27 48l-27 -48h-80l63 109h89z" />
    <glyph glyph-name="ibreve" unicode="&#x12d;" horiz-adv-x="147" 
d="M75 565h-3q-45 0 -69 23.5t-24 64.5v19h76v-10q0 -27 18 -27h1q18 0 18 27v10h76v-19q0 -41 -25.5 -64.5t-67.5 -23.5zM127 0h-107v538h107v-538z" />
    <glyph glyph-name="idotaccent" horiz-adv-x="147" 
d="M127 0h-107v538h107v-538zM127 567h-107v115h107v-115z" />
    <glyph glyph-name="imacron" unicode="&#x12b;" horiz-adv-x="147" 
d="M-5 657h157v-78h-157v78zM127 0h-107v538h107v-538z" />
    <glyph glyph-name="iogonek" unicode="&#x12f;" horiz-adv-x="147" 
d="M127 0h-107v538h107v-538zM127 567h-107v115h107v-115zM5 -109q0 28 18.5 54t47.5 55h56q-25 -34 -34 -52.5t-9 -38.5v-4q0 -21 24 -21h19v-72h-50q-30 0 -51 16t-21 48v15z" />
    <glyph glyph-name="itilde" unicode="&#x129;" horiz-adv-x="147" 
d="M169 668v-38q0 -28 -11.5 -44.5t-31.5 -16.5h-1q-13 0 -24.5 4t-28.5 12q-9 4 -13 5.5t-8 1.5q-8 0 -8 -11v-14h-61v38q0 29 12 45t32 16h1q10 0 20 -3t29 -11q8 -4 14.5 -6.5t11.5 -2.5q6 0 6 9v16h61zM127 0h-107v538h107v-538z" />
    <glyph glyph-name="jcircumflex" unicode="&#x135;" horiz-adv-x="148" 
d="M168 565h-73l-21 65l-22 -65h-71l47 131h92zM0 -86q21 0 21 24v600h107v-648q0 -24 -6 -39.5t-16 -24t-22.5 -11.5t-24.5 -3h-109v102h50z" />
    <glyph glyph-name="uni0137" unicode="&#x137;" horiz-adv-x="318" 
d="M210 538h107l-101 -230l108 -308h-111l-86 249v-249h-107v744h107v-402zM149 -196q4 10 8 27t5 38h-38v102h92v-64q0 -42 -8.5 -67t-13.5 -36h-45z" />
    <glyph glyph-name="lacute" unicode="&#x13a;" horiz-adv-x="147" 
d="M127 0h-107v744h107v-744zM71 882h94l-44 -109h-92z" />
    <glyph glyph-name="lcaron" unicode="&#x13e;" horiz-adv-x="147" 
d="M152 744h81l-12 -144h-76zM127 0h-107v744h107v-744z" />
    <glyph glyph-name="uni013C" unicode="&#x13c;" horiz-adv-x="147" 
d="M127 0h-107v744h107v-744zM54 -196q4 10 8 27t5 38h-38v102h92v-64q0 -42 -8.5 -67t-13.5 -36h-45z" />
    <glyph glyph-name="ldot" unicode="&#x140;" horiz-adv-x="261" 
d="M254 322h-104v128h104v-128zM127 0h-107v744h107v-744z" />
    <glyph glyph-name="nacute" unicode="&#x144;" horiz-adv-x="313" 
d="M20 538h105v-63q6 11 15 23t20.5 21.5t25.5 15.5t30 6h5q21 0 34.5 -8t22 -20.5t12 -27t3.5 -27.5v-458h-108v403q0 19 -6 29.5t-22 10.5q-17 0 -23.5 -11t-6.5 -33v-399h-107v538zM149 697h90l-40 -130h-88z" />
    <glyph glyph-name="napostrophe" unicode="&#x149;" horiz-adv-x="388" 
d="M95 538h105v-63q6 11 15 23t20.5 21.5t25.5 15.5t30 6h5q21 0 34.5 -8t22 -20.5t12 -27t3.5 -27.5v-458h-108v403q0 19 -6 29.5t-22 10.5q-17 0 -23.5 -11t-6.5 -33v-399h-107v538zM24 547q5 14 10.5 38t7.5 47h-40v112h99v-82q0 -38 -7.5 -68.5t-14.5 -46.5h-55z" />
    <glyph glyph-name="ncaron" unicode="&#x148;" horiz-adv-x="313" 
d="M20 538h105v-63q6 11 15 23t20.5 21.5t25.5 15.5t30 6h5q21 0 34.5 -8t22 -20.5t12 -27t3.5 -27.5v-458h-108v403q0 19 -6 29.5t-22 10.5q-17 0 -23.5 -11t-6.5 -33v-399h-107v538zM54 697h79l25 -64l25 64h77l-57 -130h-92z" />
    <glyph glyph-name="uni0146" unicode="&#x146;" horiz-adv-x="313" 
d="M20 538h105v-63q6 11 15 23t20.5 21.5t25.5 15.5t30 6h5q21 0 34.5 -8t22 -20.5t12 -27t3.5 -27.5v-458h-108v403q0 19 -6 29.5t-22 10.5q-17 0 -23.5 -11t-6.5 -33v-399h-107v538zM137 -196q4 10 8 27t5 38h-38v102h92v-64q0 -42 -8.5 -67t-13.5 -36h-45z" />
    <glyph glyph-name="obreve" unicode="&#x14f;" horiz-adv-x="310" 
d="M17 130v277q0 67 33.5 103t94.5 36h20q60 0 94 -34.5t34 -100.5v-281q0 -27 -8.5 -52t-24.5 -44.5t-40 -31t-55 -11.5h-20q-35 0 -59.5 11.5t-39.5 31t-22 44.5t-7 52zM125 406v-271q0 -20 7.5 -31t22.5 -11q16 0 23 12t7 30v271q0 23 -8 32t-22 9t-22 -9t-8 -32z
M157 565h-3q-45 0 -73 25t-28 78v4h78v-4q0 -34 24 -34h1q10 0 17 8t7 26v4h75v-4q0 -53 -28.5 -78t-69.5 -25z" />
    <glyph glyph-name="ohungarumlaut" unicode="&#x151;" horiz-adv-x="310" 
d="M17 130v277q0 67 33.5 103t94.5 36h20q60 0 94 -34.5t34 -100.5v-281q0 -27 -8.5 -52t-24.5 -44.5t-40 -31t-55 -11.5h-20q-35 0 -59.5 11.5t-39.5 31t-22 44.5t-7 52zM125 406v-271q0 -20 7.5 -31t22.5 -11q16 0 23 12t7 30v271q0 23 -8 32t-22 9t-22 -9t-8 -32z
M171 567l27 127h76l-29 -127h-74zM98 694h76l-27 -127h-74z" />
    <glyph glyph-name="omacron" unicode="&#x14d;" horiz-adv-x="310" 
d="M17 130v277q0 67 33.5 103t94.5 36h20q60 0 94 -34.5t34 -100.5v-281q0 -27 -8.5 -52t-24.5 -44.5t-40 -31t-55 -11.5h-20q-35 0 -59.5 11.5t-39.5 31t-22 44.5t-7 52zM125 406v-271q0 -20 7.5 -31t22.5 -11q16 0 23 12t7 30v271q0 23 -8 32t-22 9t-22 -9t-8 -32zM69 656
h172v-77h-172v77z" />
    <glyph glyph-name="oslashacute" unicode="&#x1ff;" horiz-adv-x="306" 
d="M17 130v277q0 67 32.5 103t92.5 36h22q26 0 46.5 -7.5t34.5 -21.5l10 21h61l-34 -75q7 -22 7 -52v-281q0 -27 -8 -52t-24 -44.5t-39 -31t-54 -11.5h-22q-29 0 -48 8.5t-32 22.5l-10 -22h-61l34 74q-5 13 -6.5 27t-1.5 29zM186 406q0 23 -8 32t-25 9q-16 0 -24.5 -9
t-8.5 -32v-154l66 150v4zM153 93q18 0 25.5 12t7.5 30v146l-66 -147q0 -19 8 -30t25 -11zM147 697h90l-40 -130h-88z" />
    <glyph glyph-name="racute" unicode="&#x155;" horiz-adv-x="280" 
d="M125 470q3 7 9.5 19.5t16 23.5t23.5 19.5t33 8.5h4q29 0 42.5 -17t13.5 -44v-195h-104v120q0 17 -2.5 25t-15.5 8t-15.5 -8.5t-2.5 -24.5v-405h-107v538h105v-68zM140 697h90l-40 -130h-88z" />
    <glyph glyph-name="rcaron" unicode="&#x159;" horiz-adv-x="280" 
d="M125 470q3 7 9.5 19.5t16 23.5t23.5 19.5t33 8.5h4q29 0 42.5 -17t13.5 -44v-195h-104v120q0 17 -2.5 25t-15.5 8t-15.5 -8.5t-2.5 -24.5v-405h-107v538h105v-68zM44 697h79l25 -64l25 64h77l-57 -130h-92z" />
    <glyph glyph-name="uni0157" unicode="&#x157;" horiz-adv-x="280" 
d="M125 470q3 7 9.5 19.5t16 23.5t23.5 19.5t33 8.5h4q29 0 42.5 -17t13.5 -44v-195h-104v120q0 17 -2.5 25t-15.5 8t-15.5 -8.5t-2.5 -24.5v-405h-107v538h105v-68zM53 -196q4 10 8 27t5 38h-38v102h92v-64q0 -42 -8.5 -67t-13.5 -36h-45z" />
    <glyph glyph-name="sacute" unicode="&#x15b;" horiz-adv-x="278" 
d="M262 449v-81h-96v64q0 30 -24 30q-14 0 -18.5 -8.5t-4.5 -24.5v-9q0 -20 5.5 -31.5t19.5 -28.5l65 -78q19 -23 30.5 -41t18 -35t9 -34.5t2.5 -37.5v-14q0 -24 -6.5 -47t-21 -41.5t-37.5 -29.5t-56 -11h-21q-32 0 -54 8.5t-36 23.5t-20 35t-6 43v97h100v-77q0 -21 6.5 -29
t20.5 -8q25 0 25 37v9q0 17 -4.5 35.5t-24.5 41.5l-63 72q-32 37 -42.5 69t-10.5 70v15q0 51 27.5 82t88.5 31h19q32 0 53 -8t33.5 -21t17.5 -31t5 -37zM137 697h90l-40 -130h-88z" />
    <glyph glyph-name="uni015F" unicode="&#x15f;" horiz-adv-x="278" 
d="M262 449v-81h-96v64q0 30 -24 30q-14 0 -18.5 -8.5t-4.5 -24.5v-9q0 -20 5.5 -31.5t19.5 -28.5l65 -78q19 -23 30.5 -41t18 -35t9 -34.5t2.5 -37.5v-14q0 -24 -6.5 -47t-21 -41.5t-37.5 -29.5t-56 -11h-21q-32 0 -54 8.5t-36 23.5t-20 35t-6 43v97h100v-77q0 -21 6.5 -29
t20.5 -8q25 0 25 37v9q0 17 -4.5 35.5t-24.5 41.5l-63 72q-32 37 -42.5 69t-10.5 70v15q0 51 27.5 82t88.5 31h19q32 0 53 -8t33.5 -21t17.5 -31t5 -37zM124 -188h-55v60h38q24 0 24 18q0 19 -24 19h-23v91h55v-40q35 0 56 -17.5t21 -53.5v-3q0 -38 -27 -56t-65 -18z" />
    <glyph glyph-name="scircumflex" unicode="&#x15d;" horiz-adv-x="278" 
d="M262 449v-81h-96v64q0 30 -24 30q-14 0 -18.5 -8.5t-4.5 -24.5v-9q0 -20 5.5 -31.5t19.5 -28.5l65 -78q19 -23 30.5 -41t18 -35t9 -34.5t2.5 -37.5v-14q0 -24 -6.5 -47t-21 -41.5t-37.5 -29.5t-56 -11h-21q-32 0 -54 8.5t-36 23.5t-20 35t-6 43v97h100v-77q0 -21 6.5 -29
t20.5 -8q25 0 25 37v9q0 17 -4.5 35.5t-24.5 41.5l-63 72q-32 37 -42.5 69t-10.5 70v15q0 51 27.5 82t88.5 31h19q32 0 53 -8t33.5 -21t17.5 -31t5 -37zM247 567h-79l-25 65l-25 -65h-77l57 131h92z" />
    <glyph glyph-name="uni0219" unicode="&#x219;" horiz-adv-x="278" 
d="M262 449v-81h-96v64q0 30 -24 30q-14 0 -18.5 -8.5t-4.5 -24.5v-9q0 -20 5.5 -31.5t19.5 -28.5l65 -78q19 -23 30.5 -41t18 -35t9 -34.5t2.5 -37.5v-14q0 -24 -6.5 -47t-21 -41.5t-37.5 -29.5t-56 -11h-21q-32 0 -54 8.5t-36 23.5t-20 35t-6 43v97h100v-77q0 -21 6.5 -29
t20.5 -8q25 0 25 37v9q0 17 -4.5 35.5t-24.5 41.5l-63 72q-32 37 -42.5 69t-10.5 70v15q0 51 27.5 82t88.5 31h19q32 0 53 -8t33.5 -21t17.5 -31t5 -37zM116 -196q4 10 8 27t5 38h-38v102h92v-64q0 -42 -8.5 -67t-13.5 -36h-45z" />
    <glyph glyph-name="tbar" unicode="&#x167;" horiz-adv-x="247" 
d="M132 0q-27 0 -45.5 15t-18.5 51v188h-62v94h62v87h-62v103h62v177h107v-177h63v-103h-63v-87h63v-94h-63v-125q0 -14 3.5 -19.5t17.5 -5.5h42v-104h-106z" />
    <glyph glyph-name="tcaron" unicode="&#x165;" horiz-adv-x="247" 
d="M199 744h81l-12 -144h-76zM131 0q-27 0 -45.5 15t-18.5 51v370h-61v102h61v177h107v-177h63v-102h-63v-308q0 -14 3.5 -19.5t17.5 -5.5h42v-103h-106z" />
    <glyph glyph-name="tcommaaccent" unicode="&#x163;" horiz-adv-x="247" 
d="M131 0q-27 0 -45.5 15t-18.5 51v370h-61v102h61v177h107v-177h63v-102h-63v-308q0 -14 3.5 -19.5t17.5 -5.5h42v-103h-106zM139 -196q4 10 8 27t5 38h-38v102h92v-64q0 -42 -8.5 -67t-13.5 -36h-45z" />
    <glyph glyph-name="uni021B" unicode="&#x21b;" horiz-adv-x="247" 
d="M131 0q-27 0 -45.5 15t-18.5 51v370h-61v102h61v177h107v-177h63v-102h-63v-308q0 -14 3.5 -19.5t17.5 -5.5h42v-103h-106zM139 -196q4 10 8 27t5 38h-38v102h92v-64q0 -42 -8.5 -67t-13.5 -36h-45z" />
    <glyph glyph-name="ubreve" unicode="&#x16d;" horiz-adv-x="307" 
d="M287 0h-103v64q-7 -11 -15.5 -22.5t-19.5 -21.5t-24.5 -16t-31.5 -6h-2q-16 0 -29 7.5t-22.5 20.5t-14.5 29.5t-5 33.5v449h107v-403q0 -15 5.5 -25.5t19.5 -10.5q17 0 22.5 11t5.5 28v400h107v-538zM155 565h-3q-45 0 -73 25t-28 78v4h78v-4q0 -34 24 -34h1q10 0 17 8
t7 26v4h75v-4q0 -53 -28.5 -78t-69.5 -25z" />
    <glyph glyph-name="uhungarumlaut" unicode="&#x171;" horiz-adv-x="307" 
d="M287 0h-103v64q-7 -11 -15.5 -22.5t-19.5 -21.5t-24.5 -16t-31.5 -6h-2q-16 0 -29 7.5t-22.5 20.5t-14.5 29.5t-5 33.5v449h107v-403q0 -15 5.5 -25.5t19.5 -10.5q17 0 22.5 11t5.5 28v400h107v-538zM168 567l27 127h76l-29 -127h-74zM95 694h76l-27 -127h-74z" />
    <glyph glyph-name="umacron" unicode="&#x16b;" horiz-adv-x="307" 
d="M287 0h-103v64q-7 -11 -15.5 -22.5t-19.5 -21.5t-24.5 -16t-31.5 -6h-2q-16 0 -29 7.5t-22.5 20.5t-14.5 29.5t-5 33.5v449h107v-403q0 -15 5.5 -25.5t19.5 -10.5q17 0 22.5 11t5.5 28v400h107v-538zM68 656h172v-77h-172v77z" />
    <glyph glyph-name="uogonek" unicode="&#x173;" horiz-adv-x="307" 
d="M287 0h-103v64q-7 -11 -15.5 -22.5t-19.5 -21.5t-24.5 -16t-31.5 -6h-2q-16 0 -29 7.5t-22.5 20.5t-14.5 29.5t-5 33.5v449h107v-403q0 -15 5.5 -25.5t19.5 -10.5q17 0 22.5 11t5.5 28v400h107v-538zM165 -109q0 28 18.5 54t47.5 55h56q-25 -34 -34 -52.5t-9 -38.5v-4
q0 -21 24 -21h19v-72h-50q-30 0 -51 16t-21 48v15z" />
    <glyph glyph-name="uring" unicode="&#x16f;" horiz-adv-x="307" 
d="M287 0h-103v64q-7 -11 -15.5 -22.5t-19.5 -21.5t-24.5 -16t-31.5 -6h-2q-16 0 -29 7.5t-22.5 20.5t-14.5 29.5t-5 33.5v449h107v-403q0 -15 5.5 -25.5t19.5 -10.5q17 0 22.5 11t5.5 28v400h107v-538zM154 563q-35 0 -57.5 23t-22.5 58q0 33 23 56t57 23q35 0 57 -23
t22 -56q0 -35 -22 -58t-57 -23zM154 610q14 0 22.5 9t8.5 24q0 14 -8.5 23.5t-22.5 9.5t-22.5 -9.5t-8.5 -23.5q0 -15 8.5 -24t22.5 -9z" />
    <glyph glyph-name="utilde" unicode="&#x169;" horiz-adv-x="307" 
d="M287 0h-103v64q-7 -11 -15.5 -22.5t-19.5 -21.5t-24.5 -16t-31.5 -6h-2q-16 0 -29 7.5t-22.5 20.5t-14.5 29.5t-5 33.5v449h107v-403q0 -15 5.5 -25.5t19.5 -10.5q17 0 22.5 11t5.5 28v400h107v-538zM253 672v-46q0 -26 -11 -41.5t-31 -15.5h-1q-14 0 -27 4.5t-30 12.5
l-13 6.5t-10 2.5q-7 0 -7 -9v-19h-64v47q0 29 11.5 42.5t31.5 13.5h1q13 0 24.5 -3.5t29.5 -12.5q9 -5 15 -8t11 -3q6 0 6 9v20h64z" />
    <glyph glyph-name="wacute" unicode="&#x1e83;" horiz-adv-x="460" 
d="M81 0l-82 538h107l40 -335l41 335h94l41 -335l40 335h99l-82 -538h-108l-39 306l-39 -306h-112zM229 697h90l-40 -130h-88z" />
    <glyph glyph-name="wcircumflex" unicode="&#x175;" horiz-adv-x="460" 
d="M81 0l-82 538h107l40 -335l41 335h94l41 -335l40 335h99l-82 -538h-108l-39 306l-39 -306h-112zM336 567h-79l-25 65l-25 -65h-77l57 131h92z" />
    <glyph glyph-name="wdieresis" unicode="&#x1e85;" horiz-adv-x="460" 
d="M81 0l-82 538h107l40 -335l41 335h94l41 -335l40 335h99l-82 -538h-108l-39 306l-39 -306h-112zM221 567h-89v98h89v-98zM334 567h-89v98h89v-98z" />
    <glyph glyph-name="wgrave" unicode="&#x1e81;" horiz-adv-x="460" 
d="M81 0l-82 538h107l40 -335l41 335h94l41 -335l40 335h99l-82 -538h-108l-39 306l-39 -306h-112zM187 567l-39 130h91l37 -130h-89z" />
    <glyph glyph-name="ycircumflex" unicode="&#x177;" horiz-adv-x="285" 
d="M-1 538h104l42 -329l40 329h102l-108 -646q-7 -40 -22 -60t-44 -20h-101v102h46q14 0 18 6.5t6 20.5l3 23q2 17 1 27.5t-3 24.5zM248 567h-79l-25 65l-25 -65h-77l57 131h92z" />
    <glyph glyph-name="ygrave" unicode="&#x1ef3;" horiz-adv-x="285" 
d="M-1 538h104l42 -329l40 329h102l-108 -646q-7 -40 -22 -60t-44 -20h-101v102h46q14 0 18 6.5t6 20.5l3 23q2 17 1 27.5t-3 24.5zM99 567l-39 130h91l37 -130h-89z" />
    <glyph glyph-name="zacute" unicode="&#x17a;" horiz-adv-x="249" 
d="M233 538v-89l-124 -351h132v-98h-234v94l121 348h-110v96h215zM118 697h90l-40 -130h-88z" />
    <glyph glyph-name="zdotaccent" unicode="&#x17c;" horiz-adv-x="249" 
d="M233 538v-89l-124 -351h132v-98h-234v94l121 348h-110v96h215zM178 567h-107v115h107v-115z" />
    <glyph glyph-name="space_uni0326" 
d="M150 -196q4 10 8 27t5 38h-38v102h92v-64q0 -42 -8.5 -67t-13.5 -36h-45z" />
    <glyph glyph-name="oneeighth" unicode="&#x215b;" horiz-adv-x="396" 
d="M7 647v56q17 0 27 3.5t16 9.5t8.5 13t4.5 15h60v-339h-72v242h-44zM335 744l-252 -744h-74l253 744h73zM380 240q0 -30 -9 -42.5t-17 -18.5q13 -6 22 -20t9 -43v-42q0 -35 -20 -58t-66 -23h-8q-48 0 -67 23t-19 60v40q0 45 31 63q-11 8 -20 21.5t-9 39.5v30q0 75 82 75h9
q82 0 82 -75v-30zM311 126q0 20 -16 20q-15 0 -15 -20v-52q0 -18 15 -18q16 0 16 18v52zM308 267q0 18 -14 18t-14 -18v-42q0 -18 14 -18t14 18v42z" />
    <glyph glyph-name="onethird" unicode="&#x2153;" horiz-adv-x="392" 
d="M7 647v56q17 0 27 3.5t16 9.5t8.5 13t4.5 15h60v-339h-72v242h-44zM335 744l-252 -744h-74l253 744h73zM206 224v37q0 41 16.5 62.5t61.5 21.5h12q42 0 60 -19t18 -61v-28q0 -24 -8 -35.5t-17 -16.5q12 -6 21.5 -16.5t9.5 -32.5v-64q0 -35 -19 -57t-62 -22h-14
q-24 0 -39.5 6t-24.5 16.5t-12.5 24t-3.5 28.5v54h70v-49q0 -20 15 -20q8 0 10.5 5t2.5 15v49q0 11 -3 15.5t-13 4.5h-33v64h31q10 0 14 4t4 16v38q0 12 -3 17t-12 5t-12 -5t-3 -17v-40h-67z" />
    <glyph glyph-name="threeeighths" unicode="&#x215c;" horiz-adv-x="441" 
d="M381 744l-252 -744h-74l253 744h73zM13 629v37q0 41 16.5 62.5t61.5 21.5h12q42 0 60 -19t18 -61v-28q0 -24 -8 -35.5t-17 -16.5q12 -6 21.5 -16.5t9.5 -32.5v-64q0 -35 -19 -57t-62 -22h-14q-24 0 -39.5 6t-24.5 16.5t-12.5 24t-3.5 28.5v54h70v-49q0 -20 15 -20
q8 0 10.5 5t2.5 15v49q0 11 -3 15.5t-13 4.5h-33v64h31q10 0 14 4t4 16v38q0 12 -3 17t-12 5t-12 -5t-3 -17v-40h-67zM425 240q0 -30 -9 -42.5t-17 -18.5q13 -6 22 -20t9 -43v-42q0 -35 -20 -58t-66 -23h-8q-48 0 -67 23t-19 60v40q0 45 31 63q-11 8 -20 21.5t-9 39.5v30
q0 75 82 75h9q82 0 82 -75v-30zM356 126q0 20 -16 20q-15 0 -15 -20v-52q0 -18 15 -18q16 0 16 18v52zM353 267q0 18 -14 18t-14 -18v-42q0 -18 14 -18t14 18v42z" />
    <glyph glyph-name="fiveeighths" unicode="&#x215d;" horiz-adv-x="440" 
d="M380 744l-252 -744h-74l253 744h73zM16 545v199h164v-64h-95v-67q7 11 20 24t35 13q26 -1 37.5 -17t11.5 -39v-105q0 -91 -81 -91h-15q-46 0 -63 21.5t-17 57.5v40h74v-42q0 -17 13 -17t13 17v90q0 18 -13 18q-15 0 -15 -18v-20h-69zM424 240q0 -30 -9 -42.5t-17 -18.5
q13 -6 22 -20t9 -43v-42q0 -35 -20 -58t-66 -23h-8q-48 0 -67 23t-19 60v40q0 45 31 63q-11 8 -20 21.5t-9 39.5v30q0 75 82 75h9q82 0 82 -75v-30zM355 126q0 20 -16 20q-15 0 -15 -20v-52q0 -18 15 -18q16 0 16 18v52zM352 267q0 18 -14 18t-14 -18v-42q0 -18 14 -18
t14 18v42z" />
    <glyph glyph-name="twothirds" unicode="&#x2154;" horiz-adv-x="458" 
d="M7 405v38q0 14 3 26t11.5 27t23 34.5l38.5 49.5q9 10 14.5 18.5t8.5 16t4 16t1 19.5v19q0 20 -15 20t-15 -19v-60h-68v62q0 35 16 56.5t60 21.5h15q48 0 65.5 -21t17.5 -55v-21q0 -18 -3 -32.5t-9.5 -28t-17.5 -27t-26 -29.5l-31.5 -33t-16.5 -18.5t-6 -10.5t-1 -9h56v56
h65v-116h-190zM401 744l-252 -744h-74l253 744h73zM272 224v37q0 41 16.5 62.5t61.5 21.5h12q42 0 60 -19t18 -61v-28q0 -24 -8 -35.5t-17 -16.5q12 -6 21.5 -16.5t9.5 -32.5v-64q0 -35 -19 -57t-62 -22h-14q-24 0 -39.5 6t-24.5 16.5t-12.5 24t-3.5 28.5v54h70v-49
q0 -20 15 -20q8 0 10.5 5t2.5 15v49q0 11 -3 15.5t-13 4.5h-33v64h31q10 0 14 4t4 16v38q0 12 -3 17t-12 5t-12 -5t-3 -17v-40h-67z" />
    <glyph glyph-name="seveneighths" unicode="&#x215e;" horiz-adv-x="405" 
d="M176 744v-30q0 -22 -8.5 -57.5t-19.5 -92.5q-5 -22 -7.5 -41t-3.5 -37.5t-1.5 -38t-0.5 -42.5h-86q1 38 7 71t20 77q18 54 27.5 85.5t9.5 48.5h-37v-61h-65v118h165zM346 744l-252 -744h-74l253 744h73zM389 240q0 -30 -9 -42.5t-17 -18.5q13 -6 22 -20t9 -43v-42
q0 -35 -20 -58t-66 -23h-8q-48 0 -67 23t-19 60v40q0 45 31 63q-11 8 -20 21.5t-9 39.5v30q0 75 82 75h9q82 0 82 -75v-30zM320 126q0 20 -16 20q-15 0 -15 -20v-52q0 -18 15 -18q16 0 16 18v52zM317 267q0 18 -14 18t-14 -18v-42q0 -18 14 -18t14 18v42z" />
    <glyph glyph-name="uni2032" unicode="&#x2032;" horiz-adv-x="113" 
d="M88 569h-84l22 175h83z" />
    <glyph glyph-name="uni2033" unicode="&#x2033;" horiz-adv-x="215" 
d="M86 569h-82l21 175h82zM189 569h-82l22 175h82z" />
    <glyph glyph-name="uni24C5" unicode="&#x24c5;" horiz-adv-x="495" 
d="M243 -11q-108 0 -165.5 59t-57.5 186v278q0 119 58 181t166 62h12q219 0 219 -243v-278q0 -64 -16 -110.5t-45.5 -76.5t-70.5 -44t-90 -14h-10zM245 51h8q42 0 71 15t46.5 41t25 62t7.5 78v257q0 37 -7 71.5t-24 60.5t-45.5 41.5t-71.5 15.5h-10q-44 0 -73.5 -14
t-46.5 -38.5t-24 -59.5t-7 -77v-257q0 -44 8 -80t26 -62t47 -40t70 -14zM236 326v-206h-90v506h128q47 0 68.5 -20.5t21.5 -68.5v-111q0 -50 -21.5 -75t-68.5 -25h-38zM236 403h15q14 0 18.5 7.5t4.5 24.5v84q0 17 -4.5 23.5t-18.5 6.5h-15v-146z" />
    <glyph glyph-name="zero.num" horiz-adv-x="213" 
d="M111 750q44 0 66 -21t22 -69v-172q0 -90 -88 -90h-11q-40 0 -63 22t-23 68v172q0 48 23 69t65 21h9zM106 686q-17 0 -17 -25v-176q0 -9 3.5 -15.5t12.5 -6.5q18 0 18 22v176q0 25 -17 25z" />
    <glyph glyph-name="one.num" horiz-adv-x="141" 
d="M7 647v56q17 0 27 3.5t16 9.5t8.5 13t4.5 15h60v-339h-72v242h-44z" />
    <glyph glyph-name="two.num" horiz-adv-x="206" 
d="M7 405v38q0 14 3 26t11.5 27t23 34.5l38.5 49.5q9 10 14.5 18.5t8.5 16t4 16t1 19.5v19q0 20 -15 20t-15 -19v-60h-68v62q0 35 16 56.5t60 21.5h15q48 0 65.5 -21t17.5 -55v-21q0 -18 -3 -32.5t-9.5 -28t-17.5 -27t-26 -29.5l-31.5 -33t-16.5 -18.5t-6 -10.5t-1 -9h56v56
h65v-116h-190z" />
    <glyph glyph-name="three.num" horiz-adv-x="199" 
d="M13 629v37q0 41 16.5 62.5t61.5 21.5h12q42 0 60 -19t18 -61v-28q0 -24 -8 -35.5t-17 -16.5q12 -6 21.5 -16.5t9.5 -32.5v-64q0 -35 -19 -57t-62 -22h-14q-24 0 -39.5 6t-24.5 16.5t-12.5 24t-3.5 28.5v54h70v-49q0 -20 15 -20q8 0 10.5 5t2.5 15v49q0 11 -3 15.5
t-13 4.5h-33v64h31q10 0 14 4t4 16v38q0 12 -3 17t-12 5t-12 -5t-3 -17v-40h-67z" />
    <glyph glyph-name="four.num" horiz-adv-x="201" 
d="M7 515l20 48.5l24.5 62l24.5 64.5l20 55h69v-215h29v-62h-29v-63h-69v63h-89v47zM96 530v96q-2 -8 -6.5 -21l-9.5 -27l-10 -27.5t-8 -20.5h34z" />
    <glyph glyph-name="five.num" horiz-adv-x="201" 
d="M16 545v199h164v-64h-95v-67q7 11 20 24t35 13q26 -1 37.5 -17t11.5 -39v-105q0 -91 -81 -91h-15q-46 0 -63 21.5t-17 57.5v40h74v-42q0 -17 13 -17t13 17v90q0 18 -13 18q-15 0 -15 -18v-20h-69z" />
    <glyph glyph-name="six.num" horiz-adv-x="209" 
d="M148 623q26 -1 37 -17.5t11 -36.5v-92q0 -32 -22.5 -55.5t-65.5 -23.5h-6q-49 0 -68.5 24.5t-19.5 56.5v192q0 35 18.5 57t65.5 22h8q25 0 41 -6t25.5 -16.5t13 -25t3.5 -31.5v-30h-72v28q0 18 -15 18q-13 0 -13 -18v-78q8 11 22 21.5t37 10.5zM106 461q16 0 16 20v64
q0 20 -16 20q-17 0 -17 -20v-64q0 -20 17 -20z" />
    <glyph glyph-name="seven.num" horiz-adv-x="183" 
d="M176 744v-30q0 -22 -8.5 -57.5t-19.5 -92.5q-5 -22 -7.5 -41t-3.5 -37.5t-1.5 -38t-0.5 -42.5h-86q1 38 7 71t20 77q18 54 27.5 85.5t9.5 48.5h-37v-61h-65v118h165z" />
    <glyph glyph-name="eight.num" horiz-adv-x="203" 
d="M187 645q0 -30 -9 -42.5t-17 -18.5q13 -6 22 -20t9 -43v-42q0 -35 -20 -58t-66 -23h-8q-48 0 -67 23t-19 60v40q0 45 31 63q-11 8 -20 21.5t-9 39.5v30q0 75 82 75h9q82 0 82 -75v-30zM118 531q0 20 -16 20q-15 0 -15 -20v-52q0 -18 15 -18q16 0 16 18v52zM115 672
q0 18 -14 18t-14 -18v-42q0 -18 14 -18t14 18v42z" />
    <glyph glyph-name="nine.num" horiz-adv-x="209" 
d="M13 669q0 33 18 57t67 24h11q47 0 66.5 -24.5t19.5 -58.5v-189q0 -35 -19 -57.5t-66 -22.5h-7q-50 0 -66.5 22t-16.5 57v30h72v-28q0 -9 3 -13.5t12 -4.5q13 0 13 18v78q-8 -9 -21.5 -20.5t-36.5 -11.5q-26 1 -37.5 17t-11.5 37v90zM103 687q-16 0 -16 -20v-63
q0 -21 16 -21q17 0 17 21v63q0 20 -17 20z" />
    <glyph glyph-name="zero.den" horiz-adv-x="213" 
d="M111 345q44 0 66 -21t22 -69v-172q0 -90 -88 -90h-11q-40 0 -63 22t-23 68v172q0 48 23 69t65 21h9zM106 281q-17 0 -17 -25v-176q0 -9 3.5 -15.5t12.5 -6.5q18 0 18 22v176q0 25 -17 25z" />
    <glyph glyph-name="one.den" horiz-adv-x="141" 
d="M7 242v56q17 0 27 3.5t16 9.5t8.5 13t4.5 15h60v-339h-72v242h-44z" />
    <glyph glyph-name="two.den" horiz-adv-x="206" 
d="M7 0v38q0 14 3 26t11.5 27t23 34.5l38.5 49.5q9 10 14.5 18.5t8.5 16t4 16t1 19.5v19q0 20 -15 20t-15 -19v-60h-68v62q0 35 16 56.5t60 21.5h15q48 0 65.5 -21t17.5 -55v-21q0 -18 -3 -32.5t-9.5 -28t-17.5 -27t-26 -29.5l-31.5 -33t-16.5 -18.5t-6 -10.5t-1 -9h56v56
h65v-116h-190z" />
    <glyph glyph-name="three.den" horiz-adv-x="199" 
d="M13 224v37q0 41 16.5 62.5t61.5 21.5h12q42 0 60 -19t18 -61v-28q0 -24 -8 -35.5t-17 -16.5q12 -6 21.5 -16.5t9.5 -32.5v-64q0 -35 -19 -57t-62 -22h-14q-24 0 -39.5 6t-24.5 16.5t-12.5 24t-3.5 28.5v54h70v-49q0 -20 15 -20q8 0 10.5 5t2.5 15v49q0 11 -3 15.5
t-13 4.5h-33v64h31q10 0 14 4t4 16v38q0 12 -3 17t-12 5t-12 -5t-3 -17v-40h-67z" />
    <glyph glyph-name="four.den" horiz-adv-x="201" 
d="M7 110l20 48.5l24.5 62l24.5 64.5l20 55h69v-215h29v-62h-29v-63h-69v63h-89v47zM96 125v96q-2 -8 -6.5 -21l-9.5 -27l-10 -27.5t-8 -20.5h34z" />
    <glyph glyph-name="five.den" horiz-adv-x="201" 
d="M16 140v199h164v-64h-95v-67q7 11 20 24t35 13q26 -1 37.5 -17t11.5 -39v-105q0 -91 -81 -91h-15q-46 0 -63 21.5t-17 57.5v40h74v-42q0 -17 13 -17t13 17v90q0 18 -13 18q-15 0 -15 -18v-20h-69z" />
    <glyph glyph-name="six.den" horiz-adv-x="209" 
d="M148 218q26 -1 37 -17.5t11 -36.5v-92q0 -32 -22.5 -55.5t-65.5 -23.5h-6q-49 0 -68.5 24.5t-19.5 56.5v192q0 35 18.5 57t65.5 22h8q25 0 41 -6t25.5 -16.5t13 -25t3.5 -31.5v-30h-72v28q0 18 -15 18q-13 0 -13 -18v-78q8 11 22 21.5t37 10.5zM106 56q16 0 16 20v64
q0 20 -16 20q-17 0 -17 -20v-64q0 -20 17 -20z" />
    <glyph glyph-name="seven.den" horiz-adv-x="183" 
d="M176 340v-30q0 -22 -8.5 -57.5t-19.5 -92.5q-5 -22 -7.5 -41t-3.5 -37.5t-1.5 -38t-0.5 -42.5h-86q1 38 7 71t20 77q18 54 27.5 85.5t9.5 48.5h-37v-61h-65v118h165z" />
    <glyph glyph-name="eight.den" horiz-adv-x="203" 
d="M187 240q0 -30 -9 -42.5t-17 -18.5q13 -6 22 -20t9 -43v-42q0 -35 -20 -58t-66 -23h-8q-48 0 -67 23t-19 60v40q0 45 31 63q-11 8 -20 21.5t-9 39.5v30q0 75 82 75h9q82 0 82 -75v-30zM118 126q0 20 -16 20q-15 0 -15 -20v-52q0 -18 15 -18q16 0 16 18v52zM115 267
q0 18 -14 18t-14 -18v-42q0 -18 14 -18t14 18v42z" />
    <glyph glyph-name="nine.den" horiz-adv-x="209" 
d="M13 264q0 33 18 57t67 24h11q47 0 66.5 -24.5t19.5 -58.5v-189q0 -35 -19 -57.5t-66 -22.5h-7q-50 0 -66.5 22t-16.5 57v30h72v-28q0 -9 3 -13.5t12 -4.5q13 0 13 18v78q-8 -9 -21.5 -20.5t-36.5 -11.5q-26 1 -37.5 17t-11.5 37v90zM103 282q-16 0 -16 -20v-63
q0 -21 16 -21q17 0 17 21v63q0 20 -17 20z" />
    <glyph glyph-name="zero.sub" horiz-adv-x="213" 
d="M111 217q44 0 66 -21t22 -69v-172q0 -90 -88 -90h-11q-40 0 -63 22t-23 68v172q0 48 23 69t65 21h9zM106 153q-17 0 -17 -25v-176q0 -9 3.5 -15.5t12.5 -6.5q18 0 18 22v176q0 25 -17 25z" />
    <glyph glyph-name="one.sub" horiz-adv-x="141" 
d="M7 114v56q17 0 27 3.5t16 9.5t8.5 13t4.5 15h60v-339h-72v242h-44z" />
    <glyph glyph-name="two.sub" horiz-adv-x="206" 
d="M7 -128v38q0 14 3 26t11.5 27t23 34.5l38.5 49.5q9 10 14.5 18.5t8.5 16t4 16t1 19.5v19q0 20 -15 20t-15 -19v-60h-68v62q0 35 16 56.5t60 21.5h15q48 0 65.5 -21t17.5 -55v-21q0 -18 -3 -32.5t-9.5 -28t-17.5 -27t-26 -29.5l-31.5 -33t-16.5 -18.5t-6 -10.5t-1 -9h56
v56h65v-116h-190z" />
    <glyph glyph-name="three.sub" horiz-adv-x="199" 
d="M13 96v37q0 41 16.5 62.5t61.5 21.5h12q42 0 60 -19t18 -61v-28q0 -24 -8 -35.5t-17 -16.5q12 -6 21.5 -16.5t9.5 -32.5v-64q0 -35 -19 -57t-62 -22h-14q-24 0 -39.5 6t-24.5 16.5t-12.5 24t-3.5 28.5v54h70v-49q0 -20 15 -20q8 0 10.5 5t2.5 15v49q0 11 -3 15.5t-13 4.5
h-33v64h31q10 0 14 4t4 16v38q0 12 -3 17t-12 5t-12 -5t-3 -17v-40h-67z" />
    <glyph glyph-name="four.sub" horiz-adv-x="201" 
d="M7 -18l20 48.5l24.5 62l24.5 64.5l20 55h69v-215h29v-62h-29v-63h-69v63h-89v47zM96 -3v96q-2 -8 -6.5 -21l-9.5 -27l-10 -27.5t-8 -20.5h34z" />
    <glyph glyph-name="five.sub" horiz-adv-x="201" 
d="M16 12v199h164v-64h-95v-67q7 11 20 24t35 13q26 -1 37.5 -17t11.5 -39v-105q0 -91 -81 -91h-15q-46 0 -63 21.5t-17 57.5v40h74v-42q0 -17 13 -17t13 17v90q0 18 -13 18q-15 0 -15 -18v-20h-69z" />
    <glyph glyph-name="six.sub" horiz-adv-x="209" 
d="M148 90q26 -1 37 -17.5t11 -36.5v-92q0 -32 -22.5 -55.5t-65.5 -23.5h-6q-49 0 -68.5 24.5t-19.5 56.5v192q0 35 18.5 57t65.5 22h8q25 0 41 -6t25.5 -16.5t13 -25t3.5 -31.5v-30h-72v28q0 18 -15 18q-13 0 -13 -18v-78q8 11 22 21.5t37 10.5zM106 -72q16 0 16 20v64
q0 20 -16 20q-17 0 -17 -20v-64q0 -20 17 -20z" />
    <glyph glyph-name="seven.sub" horiz-adv-x="183" 
d="M176 211v-30q0 -22 -8.5 -57.5t-19.5 -92.5q-5 -22 -7.5 -41t-3.5 -37.5t-1.5 -38t-0.5 -42.5h-86q1 38 7 71t20 77q18 54 27.5 85.5t9.5 48.5h-37v-61h-65v118h165z" />
    <glyph glyph-name="eight.sub" horiz-adv-x="203" 
d="M187 112q0 -30 -9 -42.5t-17 -18.5q13 -6 22 -20t9 -43v-42q0 -35 -20 -58t-66 -23h-8q-48 0 -67 23t-19 60v40q0 45 31 63q-11 8 -20 21.5t-9 39.5v30q0 75 82 75h9q82 0 82 -75v-30zM118 -2q0 20 -16 20q-15 0 -15 -20v-52q0 -18 15 -18q16 0 16 18v52zM115 139
q0 18 -14 18t-14 -18v-42q0 -18 14 -18t14 18v42z" />
    <glyph glyph-name="nine.sub" horiz-adv-x="209" 
d="M13 136q0 33 18 57t67 24h11q47 0 66.5 -24.5t19.5 -58.5v-189q0 -35 -19 -57.5t-66 -22.5h-7q-50 0 -66.5 22t-16.5 57v30h72v-28q0 -9 3 -13.5t12 -4.5q13 0 13 18v78q-8 -9 -21.5 -20.5t-36.5 -11.5q-26 1 -37.5 17t-11.5 37v90zM103 154q-16 0 -16 -20v-63
q0 -21 16 -21q17 0 17 21v63q0 20 -17 20z" />
    <glyph glyph-name="zero.sup" horiz-adv-x="213" 
d="M111 750q44 0 66 -21t22 -69v-172q0 -90 -88 -90h-11q-40 0 -63 22t-23 68v172q0 48 23 69t65 21h9zM106 686q-17 0 -17 -25v-176q0 -9 3.5 -15.5t12.5 -6.5q18 0 18 22v176q0 25 -17 25z" />
    <glyph glyph-name="one.sup" horiz-adv-x="141" 
d="M7 647v56q17 0 27 3.5t16 9.5t8.5 13t4.5 15h60v-339h-72v242h-44z" />
    <glyph glyph-name="two.sup" horiz-adv-x="206" 
d="M7 405v38q0 14 3 26t11.5 27t23 34.5l38.5 49.5q9 10 14.5 18.5t8.5 16t4 16t1 19.5v19q0 20 -15 20t-15 -19v-60h-68v62q0 35 16 56.5t60 21.5h15q48 0 65.5 -21t17.5 -55v-21q0 -18 -3 -32.5t-9.5 -28t-17.5 -27t-26 -29.5l-31.5 -33t-16.5 -18.5t-6 -10.5t-1 -9h56v56
h65v-116h-190z" />
    <glyph glyph-name="three.sup" horiz-adv-x="199" 
d="M13 629v37q0 41 16.5 62.5t61.5 21.5h12q42 0 60 -19t18 -61v-28q0 -24 -8 -35.5t-17 -16.5q12 -6 21.5 -16.5t9.5 -32.5v-64q0 -35 -19 -57t-62 -22h-14q-24 0 -39.5 6t-24.5 16.5t-12.5 24t-3.5 28.5v54h70v-49q0 -20 15 -20q8 0 10.5 5t2.5 15v49q0 11 -3 15.5
t-13 4.5h-33v64h31q10 0 14 4t4 16v38q0 12 -3 17t-12 5t-12 -5t-3 -17v-40h-67z" />
    <glyph glyph-name="four.sup" horiz-adv-x="201" 
d="M7 515l20 48.5l24.5 62l24.5 64.5l20 55h69v-215h29v-62h-29v-63h-69v63h-89v47zM96 530v96q-2 -8 -6.5 -21l-9.5 -27l-10 -27.5t-8 -20.5h34z" />
    <glyph glyph-name="five.sup" horiz-adv-x="201" 
d="M16 545v199h164v-64h-95v-67q7 11 20 24t35 13q26 -1 37.5 -17t11.5 -39v-105q0 -91 -81 -91h-15q-46 0 -63 21.5t-17 57.5v40h74v-42q0 -17 13 -17t13 17v90q0 18 -13 18q-15 0 -15 -18v-20h-69z" />
    <glyph glyph-name="six.sup" horiz-adv-x="209" 
d="M148 623q26 -1 37 -17.5t11 -36.5v-92q0 -32 -22.5 -55.5t-65.5 -23.5h-6q-49 0 -68.5 24.5t-19.5 56.5v192q0 35 18.5 57t65.5 22h8q25 0 41 -6t25.5 -16.5t13 -25t3.5 -31.5v-30h-72v28q0 18 -15 18q-13 0 -13 -18v-78q8 11 22 21.5t37 10.5zM106 461q16 0 16 20v64
q0 20 -16 20q-17 0 -17 -20v-64q0 -20 17 -20z" />
    <glyph glyph-name="seven.sup" horiz-adv-x="183" 
d="M176 744v-30q0 -22 -8.5 -57.5t-19.5 -92.5q-5 -22 -7.5 -41t-3.5 -37.5t-1.5 -38t-0.5 -42.5h-86q1 38 7 71t20 77q18 54 27.5 85.5t9.5 48.5h-37v-61h-65v118h165z" />
    <glyph glyph-name="eight.sup" horiz-adv-x="203" 
d="M187 645q0 -30 -9 -42.5t-17 -18.5q13 -6 22 -20t9 -43v-42q0 -35 -20 -58t-66 -23h-8q-48 0 -67 23t-19 60v40q0 45 31 63q-11 8 -20 21.5t-9 39.5v30q0 75 82 75h9q82 0 82 -75v-30zM118 531q0 20 -16 20q-15 0 -15 -20v-52q0 -18 15 -18q16 0 16 18v52zM115 672
q0 18 -14 18t-14 -18v-42q0 -18 14 -18t14 18v42z" />
    <glyph glyph-name="nine.sup" horiz-adv-x="209" 
d="M13 669q0 33 18 57t67 24h11q47 0 66.5 -24.5t19.5 -58.5v-189q0 -35 -19 -57.5t-66 -22.5h-7q-50 0 -66.5 22t-16.5 57v30h72v-28q0 -9 3 -13.5t12 -4.5q13 0 13 18v78q-8 -9 -21.5 -20.5t-36.5 -11.5q-26 1 -37.5 17t-11.5 37v90zM103 687q-16 0 -16 -20v-63
q0 -21 16 -21q17 0 17 21v63q0 20 -17 20z" />
    <glyph glyph-name="E.alt" unicode="&#xe484;" horiz-adv-x="295" 
d="M279 744v-109h-143v-195h135v-112h-135v-215h148v-113h-261v744h256z" />
    <glyph glyph-name="F.alt" unicode="&#xe485;" horiz-adv-x="286" 
d="M275 744v-109h-140v-195h133v-111h-133v-329h-112v744h252z" />
    <glyph glyph-name="J.alt" unicode="&#xe489;" horiz-adv-x="220" 
d="M10 115h54q11 0 14 6.5t3 16.5v606h117v-673q0 -40 -17.5 -55.5t-48.5 -15.5h-122v115z" />
    <glyph glyph-name="IJ.alt" horiz-adv-x="375" 
d="M136 0h-113v744h113v-744zM165 115h54q11 0 14 6.5t3 16.5v606h117v-673q0 -40 -17.5 -55.5t-48.5 -15.5h-122v115z" />
    <glyph glyph-name="a.alt" unicode="&#xe4c0;" horiz-adv-x="296" 
d="M174 61q-5 -9 -12.5 -20.5t-18.5 -21t-25 -16t-31 -6.5h-3q-17 0 -29.5 7t-21.5 19t-13.5 27t-4.5 31v126q0 40 11 65t40 43q9 6 22.5 13t27.5 13.5t25.5 12.5l17.5 9q8 5 10.5 8.5t2.5 14.5v34q0 20 -6 27.5t-20 7.5h-2q-16 0 -21.5 -8t-5.5 -26v-57h-96v76q0 15 3.5 33
t15 33t34 25.5t60.5 10.5h20q39 0 62.5 -8.5t36.5 -23.5t17.5 -34t4.5 -40v-330q0 -26 1 -43.5t3 -29t3.5 -18t3.5 -10.5v-5h-104q-2 5 -5 20.5t-3 40.5zM172 272q-9 -5 -19.5 -12t-18.5 -15t-11 -17.5t-3 -25.5v-74q0 -35 25 -35q27 0 27 40v139z" />
    <glyph glyph-name="a.alt2" horiz-adv-x="308" 
d="M288 538v-538h-106v61q-3 -8 -9.5 -19.5t-17 -22t-24.5 -17.5t-31 -7h-2q-35 0 -57 31.5t-22 82.5v328q0 19 4 37.5t13 33.5t23 24t34 9h2q18 0 32.5 -6.5t25 -16t17.5 -20l12 -17.5v57h106zM182 397q0 21 -6 34.5t-23 13.5q-27 0 -27 -43v-266q0 -21 6 -32t21 -11
q17 0 23 12.5t6 36.5v255z" />
    <glyph glyph-name="r.alt" unicode="&#xe4d1;" horiz-adv-x="249" 
d="M125 467q31 75 83 75h4q8 0 16.5 -1.5t10.5 -2.5v-122q-8 3 -20.5 6t-29.5 3h-4q-33 0 -45.5 -11t-12.5 -37v-377h-107v538h105v-71z" />
    <glyph glyph-name="Eacute.alt" horiz-adv-x="296" 
d="M150 882h94l-44 -109h-92zM279 744v-109h-143v-195h135v-112h-135v-215h148v-113h-261v744h256z" />
    <glyph glyph-name="Ebreve.alt" horiz-adv-x="295" 
d="M279 744v-109h-143v-195h135v-112h-135v-215h148v-113h-261v744h256zM156 770h-3q-42 0 -70.5 24t-28.5 70v6h77v-4q0 -27 23 -27h1q11 0 17.5 7t6.5 20v4h76v-6q0 -46 -30 -70t-69 -24z" />
    <glyph glyph-name="Ecaron.alt" horiz-adv-x="295" 
d="M279 744v-109h-143v-195h135v-112h-135v-215h148v-113h-261v744h256zM46 882h81l27 -48l27 48h80l-63 -109h-89z" />
    <glyph glyph-name="Ecircumflex.alt" horiz-adv-x="296" 
d="M261 773h-81l-27 48l-27 -48h-80l63 109h89zM279 744v-109h-143v-195h135v-112h-135v-215h148v-113h-261v744h256z" />
    <glyph glyph-name="Edieresis.alt" horiz-adv-x="296" 
d="M140 773h-90v99h90v-99zM256 773h-90v99h90v-99zM279 744v-109h-143v-195h135v-112h-135v-215h148v-113h-261v744h256z" />
    <glyph glyph-name="Edotaccent.alt" horiz-adv-x="295" 
d="M279 744v-109h-143v-195h135v-112h-135v-215h148v-113h-261v744h256zM208 773h-107v115h107v-115z" />
    <glyph glyph-name="Egrave.alt" horiz-adv-x="296" 
d="M112 773l-44 109h94l42 -109h-92zM279 744v-109h-143v-195h135v-112h-135v-215h148v-113h-261v744h256z" />
    <glyph glyph-name="Emacron.alt" horiz-adv-x="295" 
d="M279 744v-109h-143v-195h135v-112h-135v-215h148v-113h-261v744h256zM67 859h173v-79h-173v79z" />
    <glyph glyph-name="Eogonek.alt" horiz-adv-x="295" 
d="M122 -109q0 28 18.5 54t47.5 55h56q-25 -34 -34 -52.5t-9 -38.5v-4q0 -21 24 -21h19v-72h-50q-30 0 -51 16t-21 48v15zM279 744v-109h-143v-195h135v-112h-135v-215h148v-113h-261v744h256z" />
    <glyph glyph-name="Jcircumflex.alt" horiz-adv-x="220" 
d="M10 115h54q11 0 14 6.5t3 16.5v606h117v-673q0 -40 -17.5 -55.5t-48.5 -15.5h-122v115zM246 773h-81l-27 48l-27 -48h-80l63 109h89z" />
    <glyph glyph-name="aacute.alt" horiz-adv-x="296" 
d="M174 61q-5 -9 -12.5 -20.5t-18.5 -21t-25 -16t-31 -6.5h-3q-17 0 -29.5 7t-21.5 19t-13.5 27t-4.5 31v126q0 40 11 65t40 43q9 6 22.5 13t27.5 13.5t25.5 12.5l17.5 9q8 5 10.5 8.5t2.5 14.5v34q0 20 -6 27.5t-20 7.5h-2q-16 0 -21.5 -8t-5.5 -26v-57h-96v76q0 15 3.5 33
t15 33t34 25.5t60.5 10.5h20q39 0 62.5 -8.5t36.5 -23.5t17.5 -34t4.5 -40v-330q0 -26 1 -43.5t3 -29t3.5 -18t3.5 -10.5v-5h-104q-2 5 -5 20.5t-3 40.5zM172 272q-9 -5 -19.5 -12t-18.5 -15t-11 -17.5t-3 -25.5v-74q0 -35 25 -35q27 0 27 40v139zM140 697h90l-40 -130h-88z
" />
    <glyph glyph-name="aacute.alt2" horiz-adv-x="308" 
d="M288 538v-538h-106v61q-3 -8 -9.5 -19.5t-17 -22t-24.5 -17.5t-31 -7h-2q-35 0 -57 31.5t-22 82.5v328q0 19 4 37.5t13 33.5t23 24t34 9h2q18 0 32.5 -6.5t25 -16t17.5 -20l12 -17.5v57h106zM182 397q0 21 -6 34.5t-23 13.5q-27 0 -27 -43v-266q0 -21 6 -32t21 -11
q17 0 23 12.5t6 36.5v255zM146 697h90l-40 -130h-88z" />
    <glyph glyph-name="abreve.alt" horiz-adv-x="296" 
d="M174 61q-5 -9 -12.5 -20.5t-18.5 -21t-25 -16t-31 -6.5h-3q-17 0 -29.5 7t-21.5 19t-13.5 27t-4.5 31v126q0 40 11 65t40 43q9 6 22.5 13t27.5 13.5t25.5 12.5l17.5 9q8 5 10.5 8.5t2.5 14.5v34q0 20 -6 27.5t-20 7.5h-2q-16 0 -21.5 -8t-5.5 -26v-57h-96v76q0 15 3.5 33
t15 33t34 25.5t60.5 10.5h20q39 0 62.5 -8.5t36.5 -23.5t17.5 -34t4.5 -40v-330q0 -26 1 -43.5t3 -29t3.5 -18t3.5 -10.5v-5h-104q-2 5 -5 20.5t-3 40.5zM172 272q-9 -5 -19.5 -12t-18.5 -15t-11 -17.5t-3 -25.5v-74q0 -35 25 -35q27 0 27 40v139zM146 565h-3q-45 0 -73 25
t-28 78v4h78v-4q0 -34 24 -34h1q10 0 17 8t7 26v4h75v-4q0 -53 -28.5 -78t-69.5 -25z" />
    <glyph glyph-name="abreve.alt2" horiz-adv-x="308" 
d="M288 538v-538h-106v61q-3 -8 -9.5 -19.5t-17 -22t-24.5 -17.5t-31 -7h-2q-35 0 -57 31.5t-22 82.5v328q0 19 4 37.5t13 33.5t23 24t34 9h2q18 0 32.5 -6.5t25 -16t17.5 -20l12 -17.5v57h106zM182 397q0 21 -6 34.5t-23 13.5q-27 0 -27 -43v-266q0 -21 6 -32t21 -11
q17 0 23 12.5t6 36.5v255zM150 565h-3q-45 0 -73 25t-28 78v4h78v-4q0 -34 24 -34h1q10 0 17 8t7 26v4h75v-4q0 -53 -28.5 -78t-69.5 -25z" />
    <glyph glyph-name="acircumflex.alt" horiz-adv-x="296" 
d="M174 61q-5 -9 -12.5 -20.5t-18.5 -21t-25 -16t-31 -6.5h-3q-17 0 -29.5 7t-21.5 19t-13.5 27t-4.5 31v126q0 40 11 65t40 43q9 6 22.5 13t27.5 13.5t25.5 12.5l17.5 9q8 5 10.5 8.5t2.5 14.5v34q0 20 -6 27.5t-20 7.5h-2q-16 0 -21.5 -8t-5.5 -26v-57h-96v76q0 15 3.5 33
t15 33t34 25.5t60.5 10.5h20q39 0 62.5 -8.5t36.5 -23.5t17.5 -34t4.5 -40v-330q0 -26 1 -43.5t3 -29t3.5 -18t3.5 -10.5v-5h-104q-2 5 -5 20.5t-3 40.5zM172 272q-9 -5 -19.5 -12t-18.5 -15t-11 -17.5t-3 -25.5v-74q0 -35 25 -35q27 0 27 40v139zM249 567h-79l-25 65
l-25 -65h-77l57 131h92z" />
    <glyph glyph-name="acircumflex.alt2" horiz-adv-x="308" 
d="M288 538v-538h-106v61q-3 -8 -9.5 -19.5t-17 -22t-24.5 -17.5t-31 -7h-2q-35 0 -57 31.5t-22 82.5v328q0 19 4 37.5t13 33.5t23 24t34 9h2q18 0 32.5 -6.5t25 -16t17.5 -20l12 -17.5v57h106zM182 397q0 21 -6 34.5t-23 13.5q-27 0 -27 -43v-266q0 -21 6 -32t21 -11
q17 0 23 12.5t6 36.5v255zM255 567h-79l-25 65l-25 -65h-77l57 131h92z" />
    <glyph glyph-name="adieresis.alt" horiz-adv-x="296" 
d="M174 61q-5 -9 -12.5 -20.5t-18.5 -21t-25 -16t-31 -6.5h-3q-17 0 -29.5 7t-21.5 19t-13.5 27t-4.5 31v126q0 40 11 65t40 43q9 6 22.5 13t27.5 13.5t25.5 12.5l17.5 9q8 5 10.5 8.5t2.5 14.5v34q0 20 -6 27.5t-20 7.5h-2q-16 0 -21.5 -8t-5.5 -26v-57h-96v76q0 15 3.5 33
t15 33t34 25.5t60.5 10.5h20q39 0 62.5 -8.5t36.5 -23.5t17.5 -34t4.5 -40v-330q0 -26 1 -43.5t3 -29t3.5 -18t3.5 -10.5v-5h-104q-2 5 -5 20.5t-3 40.5zM172 272q-9 -5 -19.5 -12t-18.5 -15t-11 -17.5t-3 -25.5v-74q0 -35 25 -35q27 0 27 40v139zM133 567h-89v98h89v-98z
M246 567h-89v98h89v-98z" />
    <glyph glyph-name="adieresis.alt2" horiz-adv-x="308" 
d="M288 538v-538h-106v61q-3 -8 -9.5 -19.5t-17 -22t-24.5 -17.5t-31 -7h-2q-35 0 -57 31.5t-22 82.5v328q0 19 4 37.5t13 33.5t23 24t34 9h2q18 0 32.5 -6.5t25 -16t17.5 -20l12 -17.5v57h106zM182 397q0 21 -6 34.5t-23 13.5q-27 0 -27 -43v-266q0 -21 6 -32t21 -11
q17 0 23 12.5t6 36.5v255zM141 567h-89v98h89v-98zM254 567h-89v98h89v-98z" />
    <glyph glyph-name="agrave.alt" horiz-adv-x="296" 
d="M174 61q-5 -9 -12.5 -20.5t-18.5 -21t-25 -16t-31 -6.5h-3q-17 0 -29.5 7t-21.5 19t-13.5 27t-4.5 31v126q0 40 11 65t40 43q9 6 22.5 13t27.5 13.5t25.5 12.5l17.5 9q8 5 10.5 8.5t2.5 14.5v34q0 20 -6 27.5t-20 7.5h-2q-16 0 -21.5 -8t-5.5 -26v-57h-96v76q0 15 3.5 33
t15 33t34 25.5t60.5 10.5h20q39 0 62.5 -8.5t36.5 -23.5t17.5 -34t4.5 -40v-330q0 -26 1 -43.5t3 -29t3.5 -18t3.5 -10.5v-5h-104q-2 5 -5 20.5t-3 40.5zM172 272q-9 -5 -19.5 -12t-18.5 -15t-11 -17.5t-3 -25.5v-74q0 -35 25 -35q27 0 27 40v139zM100 567l-39 130h91
l37 -130h-89z" />
    <glyph glyph-name="agrave.alt2" horiz-adv-x="308" 
d="M288 538v-538h-106v61q-3 -8 -9.5 -19.5t-17 -22t-24.5 -17.5t-31 -7h-2q-35 0 -57 31.5t-22 82.5v328q0 19 4 37.5t13 33.5t23 24t34 9h2q18 0 32.5 -6.5t25 -16t17.5 -20l12 -17.5v57h106zM182 397q0 21 -6 34.5t-23 13.5q-27 0 -27 -43v-266q0 -21 6 -32t21 -11
q17 0 23 12.5t6 36.5v255zM106 567l-39 130h91l37 -130h-89z" />
    <glyph glyph-name="amacron.alt" horiz-adv-x="296" 
d="M174 61q-5 -9 -12.5 -20.5t-18.5 -21t-25 -16t-31 -6.5h-3q-17 0 -29.5 7t-21.5 19t-13.5 27t-4.5 31v126q0 40 11 65t40 43q9 6 22.5 13t27.5 13.5t25.5 12.5l17.5 9q8 5 10.5 8.5t2.5 14.5v34q0 20 -6 27.5t-20 7.5h-2q-16 0 -21.5 -8t-5.5 -26v-57h-96v76q0 15 3.5 33
t15 33t34 25.5t60.5 10.5h20q39 0 62.5 -8.5t36.5 -23.5t17.5 -34t4.5 -40v-330q0 -26 1 -43.5t3 -29t3.5 -18t3.5 -10.5v-5h-104q-2 5 -5 20.5t-3 40.5zM172 272q-9 -5 -19.5 -12t-18.5 -15t-11 -17.5t-3 -25.5v-74q0 -35 25 -35q27 0 27 40v139zM60 656h172v-77h-172v77z
" />
    <glyph glyph-name="amacron.alt2" horiz-adv-x="308" 
d="M288 538v-538h-106v61q-3 -8 -9.5 -19.5t-17 -22t-24.5 -17.5t-31 -7h-2q-35 0 -57 31.5t-22 82.5v328q0 19 4 37.5t13 33.5t23 24t34 9h2q18 0 32.5 -6.5t25 -16t17.5 -20l12 -17.5v57h106zM182 397q0 21 -6 34.5t-23 13.5q-27 0 -27 -43v-266q0 -21 6 -32t21 -11
q17 0 23 12.5t6 36.5v255zM64 656h172v-77h-172v77z" />
    <glyph glyph-name="aogonek.alt" horiz-adv-x="296" 
d="M174 61q-5 -9 -12.5 -20.5t-18.5 -21t-25 -16t-31 -6.5h-3q-17 0 -29.5 7t-21.5 19t-13.5 27t-4.5 31v126q0 40 11 65t40 43q9 6 22.5 13t27.5 13.5t25.5 12.5l17.5 9q8 5 10.5 8.5t2.5 14.5v34q0 20 -6 27.5t-20 7.5h-2q-16 0 -21.5 -8t-5.5 -26v-57h-96v76q0 15 3.5 33
t15 33t34 25.5t60.5 10.5h20q39 0 62.5 -8.5t36.5 -23.5t17.5 -34t4.5 -40v-330q0 -26 1 -43.5t3 -29t3.5 -18t3.5 -10.5v-5h-104q-2 5 -5 20.5t-3 40.5zM172 272q-9 -5 -19.5 -12t-18.5 -15t-11 -17.5t-3 -25.5v-74q0 -35 25 -35q27 0 27 40v139zM164 -109q0 28 18.5 54
t47.5 55h56q-25 -34 -34 -52.5t-9 -38.5v-4q0 -21 24 -21h19v-72h-50q-30 0 -51 16t-21 48v15z" />
    <glyph glyph-name="aogonek.alt2" horiz-adv-x="308" 
d="M288 538v-538h-106v61q-3 -8 -9.5 -19.5t-17 -22t-24.5 -17.5t-31 -7h-2q-35 0 -57 31.5t-22 82.5v328q0 19 4 37.5t13 33.5t23 24t34 9h2q18 0 32.5 -6.5t25 -16t17.5 -20l12 -17.5v57h106zM182 397q0 21 -6 34.5t-23 13.5q-27 0 -27 -43v-266q0 -21 6 -32t21 -11
q17 0 23 12.5t6 36.5v255zM166 -109q0 28 18.5 54t47.5 55h56q-25 -34 -34 -52.5t-9 -38.5v-4q0 -21 24 -21h19v-72h-50q-30 0 -51 16t-21 48v15z" />
    <glyph glyph-name="aring.alt" horiz-adv-x="296" 
d="M174 61q-5 -9 -12.5 -20.5t-18.5 -21t-25 -16t-31 -6.5h-3q-17 0 -29.5 7t-21.5 19t-13.5 27t-4.5 31v126q0 40 11 65t40 43q9 6 22.5 13t27.5 13.5t25.5 12.5l17.5 9q8 5 10.5 8.5t2.5 14.5v34q0 20 -6 27.5t-20 7.5h-2q-16 0 -21.5 -8t-5.5 -26v-57h-96v76q0 15 3.5 33
t15 33t34 25.5t60.5 10.5h20q39 0 62.5 -8.5t36.5 -23.5t17.5 -34t4.5 -40v-330q0 -26 1 -43.5t3 -29t3.5 -18t3.5 -10.5v-5h-104q-2 5 -5 20.5t-3 40.5zM172 272q-9 -5 -19.5 -12t-18.5 -15t-11 -17.5t-3 -25.5v-74q0 -35 25 -35q27 0 27 40v139zM145 563q-35 0 -57.5 23
t-22.5 58q0 33 23 56t57 23q35 0 57 -23t22 -56q0 -35 -22 -58t-57 -23zM145 610q14 0 22.5 9t8.5 24q0 14 -8.5 23.5t-22.5 9.5t-22.5 -9.5t-8.5 -23.5q0 -15 8.5 -24t22.5 -9z" />
    <glyph glyph-name="aring.alt2" horiz-adv-x="308" 
d="M288 538v-538h-106v61q-3 -8 -9.5 -19.5t-17 -22t-24.5 -17.5t-31 -7h-2q-35 0 -57 31.5t-22 82.5v328q0 19 4 37.5t13 33.5t23 24t34 9h2q18 0 32.5 -6.5t25 -16t17.5 -20l12 -17.5v57h106zM182 397q0 21 -6 34.5t-23 13.5q-27 0 -27 -43v-266q0 -21 6 -32t21 -11
q17 0 23 12.5t6 36.5v255zM149 563q-35 0 -57.5 23t-22.5 58q0 33 23 56t57 23q35 0 57 -23t22 -56q0 -35 -22 -58t-57 -23zM149 610q14 0 22.5 9t8.5 24q0 14 -8.5 23.5t-22.5 9.5t-22.5 -9.5t-8.5 -23.5q0 -15 8.5 -24t22.5 -9z" />
    <glyph glyph-name="aringacute.alt" horiz-adv-x="296" 
d="M144 563q-35 0 -57.5 23t-22.5 58q0 33 23 56t57 23q35 0 57 -23t22 -56q0 -35 -22 -58t-57 -23zM144 610q14 0 22.5 9t8.5 24q0 14 -8.5 23.5t-22.5 9.5t-22.5 -9.5t-8.5 -23.5q0 -15 8.5 -24t22.5 -9zM140 872h90l-40 -130h-88zM174 61q-5 -9 -12.5 -20.5t-18.5 -21
t-25 -16t-31 -6.5h-3q-17 0 -29.5 7t-21.5 19t-13.5 27t-4.5 31v126q0 40 11 65t40 43q9 6 22.5 13t27.5 13.5t25.5 12.5l17.5 9q8 5 10.5 8.5t2.5 14.5v34q0 20 -6 27.5t-20 7.5h-2q-16 0 -21.5 -8t-5.5 -26v-57h-96v76q0 15 3.5 33t15 33t34 25.5t60.5 10.5h20
q39 0 62.5 -8.5t36.5 -23.5t17.5 -34t4.5 -40v-330q0 -26 1 -43.5t3 -29t3.5 -18t3.5 -10.5v-5h-104q-2 5 -5 20.5t-3 40.5zM172 272q-9 -5 -19.5 -12t-18.5 -15t-11 -17.5t-3 -25.5v-74q0 -35 25 -35q27 0 27 40v139z" />
    <glyph glyph-name="aringacute.alt2" horiz-adv-x="308" 
d="M149 563q-35 0 -57.5 23t-22.5 58q0 33 23 56t57 23q35 0 57 -23t22 -56q0 -35 -22 -58t-57 -23zM149 610q14 0 22.5 9t8.5 24q0 14 -8.5 23.5t-22.5 9.5t-22.5 -9.5t-8.5 -23.5q0 -15 8.5 -24t22.5 -9zM145 872h90l-40 -130h-88zM288 538v-538h-106v61q-3 -8 -9.5 -19.5
t-17 -22t-24.5 -17.5t-31 -7h-2q-35 0 -57 31.5t-22 82.5v328q0 19 4 37.5t13 33.5t23 24t34 9h2q18 0 32.5 -6.5t25 -16t17.5 -20l12 -17.5v57h106zM182 397q0 21 -6 34.5t-23 13.5q-27 0 -27 -43v-266q0 -21 6 -32t21 -11q17 0 23 12.5t6 36.5v255z" />
    <glyph glyph-name="atilde.alt" horiz-adv-x="296" 
d="M174 61q-5 -9 -12.5 -20.5t-18.5 -21t-25 -16t-31 -6.5h-3q-17 0 -29.5 7t-21.5 19t-13.5 27t-4.5 31v126q0 40 11 65t40 43q9 6 22.5 13t27.5 13.5t25.5 12.5l17.5 9q8 5 10.5 8.5t2.5 14.5v34q0 20 -6 27.5t-20 7.5h-2q-16 0 -21.5 -8t-5.5 -26v-57h-96v76q0 15 3.5 33
t15 33t34 25.5t60.5 10.5h20q39 0 62.5 -8.5t36.5 -23.5t17.5 -34t4.5 -40v-330q0 -26 1 -43.5t3 -29t3.5 -18t3.5 -10.5v-5h-104q-2 5 -5 20.5t-3 40.5zM172 272q-9 -5 -19.5 -12t-18.5 -15t-11 -17.5t-3 -25.5v-74q0 -35 25 -35q27 0 27 40v139zM242 672v-46
q0 -26 -11 -41.5t-31 -15.5h-1q-14 0 -27 4.5t-30 12.5l-13 6.5t-10 2.5q-7 0 -7 -9v-19h-64v47q0 29 11.5 42.5t31.5 13.5h1q13 0 24.5 -3.5t29.5 -12.5q9 -5 15 -8t11 -3q6 0 6 9v20h64z" />
    <glyph glyph-name="atilde.alt2" horiz-adv-x="308" 
d="M288 538v-538h-106v61q-3 -8 -9.5 -19.5t-17 -22t-24.5 -17.5t-31 -7h-2q-35 0 -57 31.5t-22 82.5v328q0 19 4 37.5t13 33.5t23 24t34 9h2q18 0 32.5 -6.5t25 -16t17.5 -20l12 -17.5v57h106zM182 397q0 21 -6 34.5t-23 13.5q-27 0 -27 -43v-266q0 -21 6 -32t21 -11
q17 0 23 12.5t6 36.5v255zM251 672v-46q0 -26 -11 -41.5t-31 -15.5h-1q-14 0 -27 4.5t-30 12.5l-13 6.5t-10 2.5q-7 0 -7 -9v-19h-64v47q0 29 11.5 42.5t31.5 13.5h1q13 0 24.5 -3.5t29.5 -12.5q9 -5 15 -8t11 -3q6 0 6 9v20h64z" />
    <glyph glyph-name="racute.alt" horiz-adv-x="249" 
d="M125 467q31 75 83 75h4q8 0 16.5 -1.5t10.5 -2.5v-122q-8 3 -20.5 6t-29.5 3h-4q-33 0 -45.5 -11t-12.5 -37v-377h-107v538h105v-71zM123 697h90l-40 -130h-88z" />
    <glyph glyph-name="rcaron.alt" horiz-adv-x="249" 
d="M125 467q31 75 83 75h4q8 0 16.5 -1.5t10.5 -2.5v-122q-8 3 -20.5 6t-29.5 3h-4q-33 0 -45.5 -11t-12.5 -37v-377h-107v538h105v-71zM27 697h79l25 -64l25 64h77l-57 -130h-92z" />
    <glyph glyph-name="rcommaaccent.alt" horiz-adv-x="249" 
d="M125 467q31 75 83 75h4q8 0 16.5 -1.5t10.5 -2.5v-122q-8 3 -20.5 6t-29.5 3h-4q-33 0 -45.5 -11t-12.5 -37v-377h-107v538h105v-71zM54 -196q4 10 8 27t5 38h-38v102h92v-64q0 -42 -8.5 -67t-13.5 -36h-45z" />
    <glyph glyph-name="space_uni0326.alt" 
d="M194 734q-4 -11 -8.5 -28t-4.5 -38h37v-101h-93v62q0 43 7.5 68.5t12.5 36.5h49z" />
    <glyph glyph-name="ordfeminine.alt" horiz-adv-x="181" 
d="M167 519q0 -29 2.5 -40.5t4.5 -15.5v-4h-66q-1 2 -2.5 11t-1.5 26q-6 -13 -19.5 -26.5t-32.5 -13.5h-1q-20 0 -31.5 16t-11.5 38v54q0 27 9.5 40.5t29.5 24.5l49 25q7 4 7 12v8q0 18 -14 18h-1q-14 0 -14 -18v-19h-62v30q0 12 2 23t9.5 20t21 14.5t36.5 5.5h12
q24 0 38.5 -5t22.5 -13.5t10.5 -20t2.5 -24.5v-166zM103 599q-5 -2 -10 -5.5t-9 -7.5q-5 -5 -7 -10.5t-2 -16.5v-25q0 -19 13 -19q15 0 15 21v63z" />
    <glyph glyph-name="ordfeminine.alt2" horiz-adv-x="195" 
d="M181 744v-285h-69v38q-5 -13 -17.5 -26.5t-32.5 -13.5h-1q-22 0 -35.5 16.5t-13.5 45.5v167q0 25 11.5 42.5t34.5 17.5h2q21 0 34 -12t18 -23v33h69zM112 665q0 11 -3 18t-13 7q-15 0 -15 -22v-130q0 -23 15 -23q16 0 16 26v124z" />
    <glyph glyph-name="caron.alt" 
d="M134 744h81l-12 -144h-76z" />
    <glyph glyph-name="plus.uc" horiz-adv-x="337" 
d="M123 301h-107v85h107v126h91v-126h107v-85h-107v-125h-91v125z" />
    <glyph glyph-name="minus.uc" horiz-adv-x="317" 
d="M301 386v-85h-285v85h285z" />
    <glyph glyph-name="multiply.uc" horiz-adv-x="301" 
d="M149 283l-85 -89l-58 54l87 92l-88 90l60 63l87 -90l85 90l59 -56l-88 -92l88 -91l-59 -60z" />
    <glyph glyph-name="divide.uc" horiz-adv-x="343" 
d="M327 386v-85h-311v85h311zM221 420h-99v97h99v-97zM221 165h-99v98h99v-98z" />
    <glyph glyph-name="equal.uc" horiz-adv-x="334" 
d="M316 328v-76h-298v76h298zM316 435v-76h-298v76h298z" />
    <glyph glyph-name="less.uc" horiz-adv-x="283" 
d="M10 382l260 104v-82l-162 -61l162 -60v-81l-260 104v76z" />
    <glyph glyph-name="greater.uc" horiz-adv-x="283" 
d="M13 486l260 -104v-76l-260 -104v81l161 61l-161 60v82z" />
    <glyph glyph-name="questiondown.uc" horiz-adv-x="305" 
d="M209.006 591.01v-119.993q0 -23.998 -1 -40.4971t-5 -30.498q-4 -14 -10.499 -28.499q-6.5 -14.499 -18.499 -34.498l-28.998 -48.9971q-8 -12.999 -12.499 -24.498q-4.5 -11.499 -7 -22.499q-2.5 -10.999 -3 -22.998t-0.5 -26.998v-53.9971q0 -20.999 6 -29.998
q5.99902 -9 22.998 -9t21.999 9q5 8.99902 5 29.998v119.992h107.993v-119.992q0 -30.998 -5 -57.9961q-4.99902 -26.999 -18.499 -46.498q-13.499 -19.498 -37.4971 -30.498q-23.999 -10.999 -62.9961 -10.999h-21.999q-38.998 0 -64.4961 9.49902
q-25.498 9.5 -40.4971 27.499t-21.499 43.4971t-6.5 58.4961v73.9961q0 18.999 2.5 34.998t7.5 31.998q4.99902 15.999 13.499 31.998q8.49902 15.999 21.499 34.9971l32.998 45.9971q10.999 16 17.498 28.499q6.5 12.499 10 25.498t4.5 28.498
q0.999023 15.499 0.999023 37.498v86.9951h90.9951zM111.012 744h103.993v-127.992h-103.993v127.992z" />
    <glyph glyph-name="exclamdown.uc" horiz-adv-x="152" 
d="M127 744h-104v-127.992h104v127.992zM138 0.0449219l-44 590.965h-37l-43 -590.965h124z" />
    <glyph glyph-name="hyphen.uc" horiz-adv-x="173" 
d="M157 388v-98h-141v98h141z" />
    <glyph glyph-name="endash.uc" horiz-adv-x="305" 
d="M289 379v-78h-273v78h273z" />
    <glyph glyph-name="emdash.uc" horiz-adv-x="463" 
d="M447 379v-78h-431v78h431z" />
    <glyph glyph-name="guilsinglleft.uc" horiz-adv-x="153" 
d="M144 145h-86l-44 136v54l44 134h87l-48 -161z" />
    <glyph glyph-name="guilsinglright.uc" horiz-adv-x="151" 
d="M10 469h85l42 -136v-53l-42 -135h-87l45 161z" />
    <glyph glyph-name="guillemotleft.uc" horiz-adv-x="249" 
d="M139 145h-78l-47 136v54l47 134h78l-48 -161zM240 145h-79l-46 163l46 161h80l-43 -161z" />
    <glyph glyph-name="guillemotright.uc" horiz-adv-x="248" 
d="M159 308l-50 161h80l46 -136v-52l-48 -136h-78zM51 308l-43 161h79l47 -161l-47 -163h-79z" />
    <glyph glyph-name="parenleft.uc" horiz-adv-x="207" 
d="M31 377q0 70 10 134.5t26 120.5t34.5 102.5t35.5 81.5h66q-13 -38 -25 -87t-21.5 -105.5t-15.5 -119t-6 -126.5q0 -67 7 -131t17.5 -122.5t23.5 -110.5t25 -95h-67q-19 42 -38.5 90t-35.5 104t-26 120t-10 138v6z" />
    <glyph glyph-name="parenright.uc" horiz-adv-x="207" 
d="M176 371q0 -74 -10 -138t-26 -120t-35.5 -104t-38.5 -90h-67q12 43 25 95t23.5 110.5t17.5 122.5t7 131q0 64 -6 126.5t-15.5 119t-21.5 105.5t-25 87h66q17 -35 35.5 -81.5t34.5 -102.5t26 -120.5t10 -134.5v-6v0z" />
    <glyph glyph-name="bracketleft.uc" horiz-adv-x="191" 
d="M185 737h-53v-726h53v-80h-145v886h145v-80z" />
    <glyph glyph-name="bracketright.uc" horiz-adv-x="191" 
d="M6 10h54v726h-54v81h145v-887h-145v80z" />
    <glyph glyph-name="braceleft.uc" horiz-adv-x="199" 
d="M162 301q0 -18 -4.5 -50.5l-9.5 -68.5l-9.5 -69t-4.5 -51q0 -20 9.5 -36.5t36.5 -16.5h13v-79h-32q-60 0 -91.5 31t-31.5 82q0 19 5 52l11 69.5t11 72.5t5 61q0 14 -5.5 24t-21.5 10h-23v93h21q29 0 29 30q0 25 -5 61t-11 73.5l-11 71t-5 53.5q0 51 33 77t90 26h32v-78
h-18q-23 0 -32 -12.5t-9 -28.5q0 -18 4.5 -50.5l9.5 -68l9.5 -67.5t4.5 -48q0 -30 -8 -51.5t-36 -33.5q29 -11 36.5 -31t7.5 -47z" />
    <glyph glyph-name="braceright.uc" horiz-adv-x="199" 
d="M36 464q0 16 4.5 48t10 67.5t10 68t4.5 50.5q0 16 -8.5 28.5t-31.5 12.5h-19v78h31q57 0 90 -26t33 -77q0 -20 -4.5 -53.5t-10.5 -71t-10.5 -73.5t-4.5 -61q0 -16 6 -23t23 -7h20v-93h-24q-15 0 -20 -10t-5 -24q0 -25 4.5 -61t10.5 -72.5t10.5 -69.5t4.5 -52
q0 -51 -31 -82t-92 -31h-31v79h12q28 0 37.5 16.5t9.5 36.5q0 18 -4.5 51t-10 69t-10 68.5t-4.5 50.5q0 27 8 47t37 31q-29 12 -37 33.5t-8 51.5z" />
    <glyph glyph-name="slash.uc" horiz-adv-x="209" 
d="M84 -81h-84l122 897h84z" />
    <glyph glyph-name="backslash.uc" horiz-adv-x="209" 
d="M3 816h84l122 -897h-84z" />
    <glyph glyph-name="bar.uc" horiz-adv-x="171" 
d="M126 -81h-81v897h81v-897z" />
    <glyph glyph-name="at.uc" horiz-adv-x="546" 
d="M483 21q-8 -12 -24 -31t-41.5 -36t-59.5 -29.5t-77 -12.5h-7q-44 0 -89 13t-82.5 54.5t-61 119.5t-23.5 209v90q0 378 262 378h12q125 0 180.5 -78t55.5 -232v-90q0 -80 -9 -135t-26 -89t-41 -48.5t-55 -14.5h-2q-26 0 -42.5 7t-26.5 17t-14.5 20.5t-6.5 17.5
q-20 -32 -39 -47t-45 -15h-6q-13 0 -26.5 6.5t-24 20t-16.5 33.5t-5 48l13 309q1 16 5.5 31.5t13.5 28t22 20t31 7.5h5q21 0 38.5 -14t31.5 -37l2 47h106l-21 -410q0 -7 1.5 -12.5t11.5 -5.5t18.5 10.5t15 35t10 65.5t3.5 102v93q0 66 -10 111t-29.5 73t-49.5 40t-69 12h-12
q-43 0 -76.5 -17t-57 -54t-35.5 -95.5t-12 -140.5v-87q0 -75 8.5 -128t23 -88.5t33 -56.5t38 -31.5t38.5 -13.5t34 -3h7q29 0 54.5 9.5t45.5 23.5t34 29.5t21 27.5zM300 474q1 16 -3 24t-17 8q-11 0 -15 -8.5t-5 -23.5l-13 -268q-1 -11 1.5 -21.5t16.5 -10.5q12 0 16.5 9
t5.5 23z" />
    <glyph glyph-name="grave.uc" 
d="M147 773l-44 109h94l42 -109h-92z" />
    <glyph glyph-name="dieresis.uc" 
d="M158 773h-90v99h90v-99zM274 773h-90v99h90v-99z" />
    <glyph glyph-name="macron.uc" 
d="M85 859h173v-79h-173v79z" />
    <glyph glyph-name="acute.uc" 
d="M145 882h94l-44 -109h-92z" />
    <glyph glyph-name="circumflex.uc" 
d="M278 773h-81l-27 48l-27 -48h-80l63 109h89z" />
    <glyph glyph-name="caron.uc" 
d="M63 882h81l27 -48l27 48h80l-63 -109h-89z" />
    <glyph glyph-name="breve.uc" 
d="M173 770h-3q-42 0 -70.5 24t-28.5 70v6h77v-4q0 -27 23 -27h1q11 0 17.5 7t6.5 20v4h76v-6q0 -46 -30 -70t-69 -24z" />
    <glyph glyph-name="dotaccent.uc" 
d="M224 773h-107v115h107v-115z" />
    <glyph glyph-name="ring.uc" 
d="M172 813q14 0 22.5 9t8.5 24q0 14 -8.5 23.5t-22.5 9.5t-22.5 -9.5t-8.5 -23.5q0 -15 8.5 -24t22.5 -9zM251 847q0 -35 -22 -58t-57 -23t-57.5 23t-22.5 58q0 33 23 56t57 23q35 0 57 -23t22 -56z" />
    <glyph glyph-name="tilde.uc" 
d="M268 832q0 -26 -11 -41.5t-31 -15.5h-1q-14 0 -27 4.5t-30 12.5l-13 6.5t-10 2.5q-7 0 -7 -9v-19h-64v47q0 29 11.5 42.5t31.5 13.5h1q13 0 24.5 -3.5t29.5 -12.5q9 -5 15 -8t11 -3q6 0 6 9v20h64v-46z" />
    <glyph glyph-name="hungarumlaut.uc" 
d="M166 773l29 108h78l-32 -108h-75zM94 881h78l-28 -108h-75z" />
    <glyph glyph-name="emdash.altuc" horiz-adv-x="894" 
d="M16 302v78h862v-78h-862z" />
    <glyph glyph-name="f.short" horiz-adv-x="252" 
d="M243 645h-44q-14 0 -18 -6t-4 -20v-81h66v-102h-66v-436h-107v436h-64v102h64v137q0 11 3.5 23t12 22.5t23 17t37.5 6.5h97v-99z" />
    <glyph glyph-name="f_f.short" horiz-adv-x="450" 
d="M246 645h-47q-14 0 -18 -6t-4 -20v-81h91v137q0 11 3.5 23t12 22.5t23 17t37.5 6.5h97v-99h-44q-14 0 -18 -6t-4 -20v-81h66v-102h-66v-436h-107v436h-91v-436h-107v436h-64v102h64v137q0 11 3.5 23t12 22.5t23 17t37.5 6.5h100v-99z" />
    <glyph glyph-name="j.short" horiz-adv-x="148" 
d="M128 567h-107v115h107v-115zM0 -86q21 0 21 24v600h107v-648q0 -24 -6 -39.5t-16 -24t-22.5 -11.5t-24.5 -3h-82v102h23z" />
    <glyph glyph-name="uni0192" unicode="&#x192;" horiz-adv-x="260" 
d="M65 373h-54v103h59l9 189q1 18 5.5 32.5t16.5 25t31.5 16t50.5 5.5h64v-98h-35q-14 -1 -20.5 -7t-7.5 -25l-7 -138h70v-103h-74l-26 -561h-107z" />
    <glyph glyph-name="uni0237" unicode="&#x237;" horiz-adv-x="148" 
d="M0 -86q21 0 21 24v600h107v-648q0 -24 -6 -39.5t-16 -24t-22.5 -11.5t-24.5 -3h-109v102h50z" />
    </font>
</defs>
</svg>
