<?xml version="1.0" standalone="no"?>
<!DOCTYPE svg PUBLIC "-//W3C//DTD SVG 1.1//EN" "http://www.w3.org/Graphics/SVG/1.1/DTD/svg11.dtd" >
<svg xmlns="http://www.w3.org/2000/svg">
<metadata></metadata>
<defs>
<font id="player_proregular" horiz-adv-x="1116" >
<font-face units-per-em="2048" ascent="1638" descent="-410" />
<missing-glyph horiz-adv-x="512" />
<glyph unicode="FI" horiz-adv-x="1419" d="M61 0v164h93v1151h-93v164h807v-383h-161v219h-361v-484h279v93h163v-349h-163v93h-279v-504h92v-164h-377zM981 0v164h92v1151h-92v164h377v-164h-92v-1151h92v-164h-377z" />
<glyph unicode="FL" horiz-adv-x="1822" d="M61 0v164h93v1151h-93v164h807v-383h-161v219h-361v-484h279v93h163v-349h-163v93h-279v-504h92v-164h-377zM981 0v164h92v1151h-92v164h377v-164h-92v-1151h344v219h162v-383h-791z" />
<glyph horiz-adv-x="0" />
<glyph horiz-adv-x="682" />
<glyph unicode=" "  horiz-adv-x="512" />
<glyph unicode="&#x09;" horiz-adv-x="512" />
<glyph unicode="&#xa0;" horiz-adv-x="512" />
<glyph unicode="!" horiz-adv-x="417" d="M113 0v164h192v-164h-192zM113 389v1090h192v-1090h-192z" />
<glyph unicode="&#x22;" horiz-adv-x="550" d="M41 1479h192l-28 -373h-133zM317 1479h193l-29 -373h-133z" />
<glyph unicode="#" horiz-adv-x="1890" d="M61 0v164h93v1151h-93v164h342l422 -967v803h-92v164h377v-164h-92v-1321h-193l-479 1116v-946h92v-164h-377zM1165 582v438l123 149h398l122 -147v-442l-122 -152h-398zM1243 123v143h518v-143h-518zM1337 571h299v455h-299v-455z" />
<glyph unicode="$" horiz-adv-x="952" d="M61 147v248h193v-231h156v555l-234 35l-115 141v434l123 150h226v92h131v-92h227l123 -148v-239h-193v223h-157v-445l266 -39l84 -133v-548l-123 -150h-227v-113h-131v113h-226zM254 915l156 -22v422h-156v-400zM541 164h157v512l-157 20v-532z" />
<glyph unicode="%" horiz-adv-x="1753" d="M82 850v479l123 150h397l123 -148v-483l-123 -152h-397zM254 840h299v495h-299v-495zM520 0l590 1479h127l-590 -1479h-127zM1028 154v479l123 149h397l123 -147v-483l-123 -152h-397zM1200 143h299v496h-299v-496z" />
<glyph unicode="&#x26;" horiz-adv-x="1069" d="M61 156v551l195 188l-143 217v248l116 119h637l84 -119v-279h-182v234h-453v-191l428 -602l115 176h170v-163h-57l-115 -181l131 -192h62v-162h-166l-129 180l-117 -180h-483zM254 162h272l113 190l-277 387l-108 -102v-475z" />
<glyph unicode="'" horiz-adv-x="274" d="M41 1479h192l-28 -373h-133z" />
<glyph unicode="(" horiz-adv-x="434" d="M82 766q0 185 66 374t204 419l103 -56q-134 -192 -193 -364t-59 -348q0 -182 58 -377.5t183 -433.5l-90 -60q-140 264 -206 464t-66 382z" />
<glyph unicode=")" horiz-adv-x="434" d="M-20 1503l102 56q138 -230 204 -419t66 -374q0 -182 -66 -382t-206 -464l-90 60q125 238 183 433.5t58 377.5q0 176 -58.5 348t-192.5 364z" />
<glyph unicode="*" horiz-adv-x="475" d="M20 1290l156 101l-156 100l37 53l150 -96v176h63v-174l148 94l37 -53l-158 -100l158 -101l-37 -53l-148 94v-178h-63v178l-150 -94z" />
<glyph unicode="+" horiz-adv-x="843" d="M51 664v161h275v291h192v-291h275v-161h-275v-277h-192v277h-275z" />
<glyph unicode="," horiz-adv-x="274" d="M41 0v164h192v-164l-98 -156h-8v156h-86z" />
<glyph unicode="-" horiz-adv-x="550" d="M41 651v164h469v-164h-469z" />
<glyph unicode="." horiz-adv-x="274" d="M41 0v164h192v-164h-192z" />
<glyph unicode="/" horiz-adv-x="747" d="M16 0l590 1479h127l-590 -1479h-127z" />
<glyph unicode="0" horiz-adv-x="1052" d="M123 154v1175l123 150h561l123 -148v-1179l-123 -152h-561zM315 164h422v1151h-422v-1151z" />
<glyph unicode="1" horiz-adv-x="520" d="M72 0v164h92v1151h-92v82l96 82h188v-1315h93v-164h-377z" />
<glyph unicode="2" horiz-adv-x="985" d="M82 0v707l111 118h518v490h-437v-236h-192v252l123 148h575l123 -150v-534l-127 -133h-502v-498h431v246h192v-410h-815z" />
<glyph unicode="3" horiz-adv-x="1015" d="M92 154v276h182v-266h437v549h-385v164h385v438h-437v-201h-182v215l123 150h565l123 -148v-426l-96 -90l96 -86v-577l-123 -152h-565z" />
<glyph unicode="4" horiz-adv-x="1042" d="M41 522v234l600 727h252v-797h108v-164h-108v-358h92v-164h-377v164h92v358h-659zM213 686h487v594z" />
<glyph unicode="5" horiz-adv-x="985" d="M82 147v263h192v-246h437v498h-518l-111 118v699h815v-164h-623v-490h502l127 -133v-542l-123 -150h-575z" />
<glyph unicode="6" horiz-adv-x="1036" d="M123 147v1180l123 152h575l123 -154v-246h-192v236h-437v-490h502l127 -133v-542l-123 -150h-575zM315 164h437v498h-437v-498z" />
<glyph unicode="7" horiz-adv-x="1089" d="M72 1081v398h977v-152l-539 -1163h88v-164h-377v164h92l543 1151h-623v-234h-161z" />
<glyph unicode="8" horiz-adv-x="1046" d="M113 154v573l96 88l-96 92v422l123 150h575l123 -148v-426l-96 -90l96 -86v-577l-123 -152h-575zM305 164h436v569h-436v-569zM305 897h436v418h-436v-418z" />
<glyph unicode="9" horiz-adv-x="1036" d="M92 154v256h193v-246h436v498h-502l-127 133v534l123 150h576l122 -148v-1179l-122 -152h-576zM285 825h436v490h-436v-490z" />
<glyph unicode=":" horiz-adv-x="274" d="M41 0v164h192v-164h-192zM41 668v163h192v-163h-192z" />
<glyph unicode=";" horiz-adv-x="274" d="M41 0v164h192v-164l-98 -156h-8v156h-86zM41 668v163h192v-163h-192z" />
<glyph unicode="&#x3c;" horiz-adv-x="962" d="M41 616v240l881 414v-191l-719 -342l719 -346v-192z" />
<glyph unicode="=" horiz-adv-x="843" d="M51 500v162h742v-162h-742zM51 831v162h742v-162h-742z" />
<glyph unicode="&#x3e;" horiz-adv-x="962" d="M41 199v192l719 346l-719 342v191l881 -414v-240z" />
<glyph unicode="?" horiz-adv-x="909" d="M51 1092v239l123 148h551l123 -150v-434l-115 -141l-284 -76v-289h-193v311l84 134l315 81v400h-411v-223h-193zM256 0v164h193v-164h-193z" />
<glyph unicode="@" horiz-adv-x="1726" d="M102 -205v1534l123 150h1276l123 -148v-1184l-123 -147h-926l-122 150v405l127 133h501v305h-436v-174h-192v185l122 153h576l123 -151v-842h158v1151h-1137v-1520h-193zM645 164h436v360h-436v-360z" />
<glyph unicode="A" d="M20 0v164h93l295 1151h-91v164h488v-164h-92l291 -1151h92v-164h-377v164h92l-72 278h-364l-70 -278h92v-164h-377zM418 606h278l-137 582z" />
<glyph unicode="B" horiz-adv-x="1007" d="M61 0v164h93v1151h-93v164h732l122 -148v-432l-96 -151l96 -148v-448l-122 -152h-732zM346 164h377v502h-377v-502zM346 829h377v486h-377v-486z" />
<glyph unicode="C" horiz-adv-x="942" d="M102 154v1175l123 150h523l122 -148v-235h-161v219h-414v-1151h414v217h161v-229l-122 -152h-523z" />
<glyph unicode="D" horiz-adv-x="997" d="M61 0v164h93v1151h-93v164h711l123 -148v-1179l-123 -152h-711zM346 164h356v1151h-356v-1151z" />
<glyph unicode="E" horiz-adv-x="960" d="M61 0v164h93v1151h-93v164h807v-383h-161v219h-361v-484h279v93h163v-349h-163v93h-279v-504h361v219h161v-383h-807z" />
<glyph unicode="F" horiz-adv-x="919" d="M61 0v164h93v1151h-93v164h807v-383h-161v219h-361v-484h279v93h163v-349h-163v93h-279v-504h92v-164h-377z" />
<glyph unicode="G" horiz-adv-x="974" d="M102 154v1175l123 150h555l123 -148v-233h-162v217h-446v-1151h436v489h-205v164h377v-665l-123 -152h-555z" />
<glyph unicode="H" horiz-adv-x="1171" d="M61 0v164h93v1151h-93v164h377v-164h-92v-484h479v484h-92v164h377v-164h-92v-1151h92v-164h-377v164h92v504h-479v-504h92v-164h-377z" />
<glyph unicode="I" horiz-adv-x="499" d="M61 0v164h93v1151h-93v164h377v-164h-92v-1151h92v-164h-377z" />
<glyph unicode="J" horiz-adv-x="935" d="M51 154v223h193v-213h346v1151h-92v164h376v-164h-92v-1163l-123 -152h-485z" />
<glyph unicode="K" horiz-adv-x="1060" d="M61 0v164h93v1151h-93v164h377v-164h-92v-543l375 543h-70v164h355v-164h-74l-244 -359l260 -792h92v-164h-245l-250 735l-199 -280v-291h92v-164h-377z" />
<glyph unicode="L" horiz-adv-x="903" d="M61 0v164h93v1151h-93v164h377v-164h-92v-1151h344v219h162v-383h-791z" />
<glyph unicode="M" horiz-adv-x="1243" d="M61 0v164h93v1151h-93v164h363l197 -637l198 637h363v-164h-92v-1151h92v-164h-377v164h92v966l-266 -831h-19l-266 831v-966h92v-164h-377z" />
<glyph unicode="N" horiz-adv-x="1161" d="M61 0v164h93v1151h-93v164h342l422 -1008v844h-92v164h377v-164h-92v-1321h-193l-479 1157v-987h92v-164h-377z" />
<glyph unicode="O" horiz-adv-x="1011" d="M102 154v1175l123 150h561l123 -148v-1179l-123 -152h-561zM295 164h422v1151h-422v-1151z" />
<glyph unicode="P" horiz-adv-x="958" d="M61 0v164h93v1151h-93v164h693l123 -148v-594l-123 -151h-408v-422h92v-164h-377zM346 750h338v565h-338v-565z" />
<glyph unicode="Q" horiz-adv-x="1011" d="M102 154v1175l123 150h561l123 -148v-1179l-123 -152h-198v-184h-164v184h-199zM295 164h422v1151h-422v-1151z" />
<glyph unicode="R" horiz-adv-x="1028" d="M61 0v164h93v1151h-93v164h693l123 -148v-604l-177 -137l181 -426h92v-164h-377v164h92l-178 422h-164v-422h92v-164h-377zM346 750h338v565h-338v-565z" />
<glyph unicode="S" horiz-adv-x="919" d="M61 147v248h193v-231h412v512l-490 78l-115 141v434l123 150h551l123 -148v-239h-192v223h-412v-400l520 -84l84 -133v-548l-123 -150h-551z" />
<glyph unicode="T" horiz-adv-x="1069" d="M51 1096v383h967v-383h-162v219h-223v-1151h92v-164h-377v164h92v1151h-227v-219h-162z" />
<glyph unicode="U" horiz-adv-x="1171" d="M61 1315v164h377v-164h-92v-1151h479v1151h-92v164h377v-164h-92v-1163l-123 -152h-619l-122 154v1161h-93z" />
<glyph unicode="V" d="M20 1315v164h377v-164h-92l250 -1057l256 1057h-92v164h377v-164h-92l-328 -1321h-240l-323 1321h-93z" />
<glyph unicode="W" horiz-adv-x="1816" d="M20 1315v164h377v-164h-92l250 -1057l258 1057h-92v164h377v-164h-92l249 -1057l256 1057h-92v164h377v-164h-92l-328 -1321h-239l-230 934l-231 -934h-240l-323 1321h-93z" />
<glyph unicode="X" horiz-adv-x="1077" d="M31 0v164h92l319 575l-319 576h-92v164h377v-164h-93l224 -391l223 391h-92v164h377v-164h-93l-319 -576l319 -575h93v-164h-377v164h92l-223 389l-224 -389h93v-164h-377z" />
<glyph unicode="Y" horiz-adv-x="1093" d="M20 1315v164h377v-164h-92l242 -432l241 432h-92v164h377v-164h-92l-338 -629v-522h92v-164h-377v164h93v528l-338 623h-93z" />
<glyph unicode="Z" horiz-adv-x="962" d="M41 0v205l678 1110h-483v-232h-162v396h837v-205l-678 -1110h515v217h161v-381h-868z" />
<glyph unicode="[" horiz-adv-x="358" d="M102 -92v1667l82 108h226v-163h-156v-1561h156v-164h-226z" />
<glyph unicode="\" horiz-adv-x="552" d="M4 1479h119l426 -1479h-119z" />
<glyph unicode="]" horiz-adv-x="358" d="M-51 -41h155v1561h-155v163h225l82 -108v-1667l-82 -113h-225v164z" />
<glyph unicode="^" d="M20 0v164h93l336 1317h221l334 -1317h92v-164h-377v164h92l-72 278h-364l-70 -278h92v-164h-377zM418 606h278l-137 584z" />
<glyph unicode="_" horiz-adv-x="755" d="M0 -80v164h756v-164h-756z" />
<glyph unicode="`" horiz-adv-x="657" d="M164 1763h170l78 -213h-117z" />
<glyph unicode="a" d="M20 0v164h93l295 1151h-70v164h446v-164h-71l291 -1151h92v-164h-377v164h92l-72 278h-364l-70 -278h92v-164h-377zM418 606h278l-137 582z" />
<glyph unicode="b" horiz-adv-x="1007" d="M61 0v164h93v1151h-93v164h732l122 -148v-432l-96 -151l96 -148v-448l-122 -152h-732zM346 164h377v502h-377v-502zM346 829h377v486h-377v-486z" />
<glyph unicode="c" horiz-adv-x="942" d="M102 154v1175l123 150h523l122 -148v-235h-161v219h-414v-1151h414v217h161v-229l-122 -152h-523z" />
<glyph unicode="d" horiz-adv-x="997" d="M61 0v164h93v1151h-93v164h711l123 -148v-1179l-123 -152h-711zM346 164h356v1151h-356v-1151z" />
<glyph unicode="e" horiz-adv-x="960" d="M61 0v164h93v1151h-93v164h807v-383h-161v219h-361v-484h279v93h163v-349h-163v93h-279v-504h361v219h161v-383h-807z" />
<glyph unicode="f" horiz-adv-x="919" d="M61 0v164h93v1151h-93v164h807v-383h-161v219h-361v-484h279v93h163v-349h-163v93h-279v-504h92v-164h-377z" />
<glyph unicode="g" horiz-adv-x="974" d="M102 154v1175l123 150h555l123 -148v-233h-162v217h-446v-1151h436v489h-205v164h377v-665l-123 -152h-555z" />
<glyph unicode="h" horiz-adv-x="1171" d="M61 0v164h93v1151h-93v164h377v-164h-92v-484h479v484h-92v164h377v-164h-92v-1151h92v-164h-377v164h92v504h-479v-504h92v-164h-377z" />
<glyph unicode="i" horiz-adv-x="499" d="M61 0v164h93v1151h-93v164h377v-164h-92v-1151h92v-164h-377z" />
<glyph unicode="j" horiz-adv-x="935" d="M51 154v223h193v-213h346v1151h-92v164h376v-164h-92v-1163l-123 -152h-485z" />
<glyph unicode="k" horiz-adv-x="1060" d="M61 0v164h93v1151h-93v164h377v-164h-92v-543l375 543h-70v164h355v-164h-74l-244 -359l260 -792h92v-164h-245l-250 735l-199 -280v-291h92v-164h-377z" />
<glyph unicode="l" horiz-adv-x="903" d="M61 0v164h93v1151h-93v164h377v-164h-92v-1151h344v219h162v-383h-791z" />
<glyph unicode="m" horiz-adv-x="1243" d="M61 0v164h93v1151h-93v164h363l197 -637l198 637h363v-164h-92v-1151h92v-164h-377v164h92v966l-266 -831h-19l-266 831v-966h92v-164h-377z" />
<glyph unicode="n" horiz-adv-x="1161" d="M61 0v164h93v1151h-93v164h342l422 -1008v844h-92v164h377v-164h-92v-1321h-193l-479 1157v-987h92v-164h-377z" />
<glyph unicode="o" horiz-adv-x="1011" d="M102 154v1175l123 150h561l123 -148v-1179l-123 -152h-561zM295 164h422v1151h-422v-1151z" />
<glyph unicode="p" horiz-adv-x="958" d="M61 0v164h93v1151h-93v164h693l123 -148v-594l-123 -151h-408v-422h92v-164h-377zM346 750h338v565h-338v-565z" />
<glyph unicode="q" horiz-adv-x="1011" d="M102 154v1175l123 150h561l123 -148v-1179l-123 -152h-198v-184h-164v184h-199zM295 164h422v1151h-422v-1151z" />
<glyph unicode="r" horiz-adv-x="1028" d="M61 0v164h93v1151h-93v164h693l123 -148v-604l-177 -137l181 -426h92v-164h-377v164h92l-178 422h-164v-422h92v-164h-377zM346 750h338v565h-338v-565z" />
<glyph unicode="s" horiz-adv-x="919" d="M61 147v248h193v-231h412v512l-490 78l-115 141v434l123 150h551l123 -148v-239h-192v223h-412v-400l520 -84l84 -133v-548l-123 -150h-551z" />
<glyph unicode="t" horiz-adv-x="1069" d="M51 1096v383h967v-383h-162v219h-223v-1151h92v-164h-377v164h92v1151h-227v-219h-162z" />
<glyph unicode="u" horiz-adv-x="1171" d="M61 1315v164h377v-164h-92v-1151h479v1151h-92v164h377v-164h-92v-1163l-123 -152h-619l-122 154v1161h-93z" />
<glyph unicode="v" d="M20 1315v164h377v-164h-92l250 -1057l256 1057h-92v164h377v-164h-92l-328 -1321h-240l-323 1321h-93z" />
<glyph unicode="w" horiz-adv-x="1816" d="M20 1315v164h377v-164h-92l250 -1057l258 1057h-92v164h377v-164h-92l249 -1057l256 1057h-92v164h377v-164h-92l-328 -1321h-239l-230 934l-231 -934h-240l-323 1321h-93z" />
<glyph unicode="x" horiz-adv-x="1077" d="M31 0v164h92l319 575l-319 576h-92v164h377v-164h-93l224 -391l223 391h-92v164h377v-164h-93l-319 -576l319 -575h93v-164h-377v164h92l-223 389l-224 -389h93v-164h-377z" />
<glyph unicode="y" horiz-adv-x="1093" d="M20 1315v164h377v-164h-92l242 -432l241 432h-92v164h377v-164h-92l-338 -629v-522h92v-164h-377v164h93v528l-338 623h-93z" />
<glyph unicode="z" horiz-adv-x="962" d="M41 0v205l678 1110h-483v-232h-162v396h837v-205l-678 -1110h515v217h161v-381h-868z" />
<glyph unicode="{" horiz-adv-x="960" d="M61 0v164h93v1151h-93v164h807v-383h-161v219h-361v-484h442v-163h-442v-504h361v219h161v-383h-807z" />
<glyph unicode="|" horiz-adv-x="438" d="M123 -205v1684h192v-1684h-192z" />
<glyph unicode="}" horiz-adv-x="909" d="M61 0v164h93v1151h-93v164h807v-383h-161v219h-361v-484h442v-163h-442v-504h92v-164h-377z" />
<glyph unicode="~" horiz-adv-x="944" d="M61 147v250h193v-233h436v498h-502l-127 133v534l123 150h576l123 -148v-239h-193v223h-436v-490h502l127 -133v-542l-123 -150h-576z" />
<glyph unicode="&#xa1;" horiz-adv-x="417" d="M113 -205v1090h192v-1090h-192zM113 1110v164h192v-164h-192z" />
<glyph unicode="&#xa2;" horiz-adv-x="942" d="M102 358v766l123 150h205v205h131v-205h187l122 -148v-235h-161v219h-414v-741h414v217h161v-230l-122 -151h-187v-205h-131v205h-205z" />
<glyph unicode="&#xa3;" horiz-adv-x="972" d="M61 651v164h191l-191 498l99 166h563l123 -148v-194h-162v178h-436l194 -500h293v-164h-293l-186 -487h481v176h162v-340h-836v205l185 446h-187z" />
<glyph unicode="&#xa4;" horiz-adv-x="942" d="M20 524v154h82v123h-82v153h82v375l123 150h523l122 -148v-235h-161v219h-414v-361h481v-153h-481v-123h481v-154h-481v-360h414v217h161v-229l-122 -152h-523l-123 154v370h-82z" />
<glyph unicode="&#xa5;" horiz-adv-x="1093" d="M20 1315v164h377v-164h-92l242 -432l241 432h-92v164h377v-164h-92l-287 -533h355v-153h-406v-123h406v-154h-406v-188h92v-164h-377v164h93v188h-404v154h404v61v62h-404v153h354l-288 533h-93z" />
<glyph unicode="&#xa6;" horiz-adv-x="438" d="M123 -205v615h192v-615h-192zM123 819v660h192v-660h-192z" />
<glyph unicode="&#xa7;" horiz-adv-x="1089" d="M20 0v164h93v1161l123 154h618l123 -152v-1163h92v-164h-377v164h92v502h-479v-502h92v-164h-377zM305 829h479v486h-479v-486z" />
<glyph unicode="&#xa8;" horiz-adv-x="651" d="M113 1567v139h151v-139h-151zM387 1567v139h152v-139h-152z" />
<glyph unicode="&#xa9;" horiz-adv-x="1626" d="M102 154v1175l123 150h1176l123 -148v-1179l-123 -152h-1176zM295 164h1036v1151h-1036v-1151zM471 461v561l123 149h440l123 -147v-154h-162v138h-331v-537h331v135h162v-147l-123 -152h-440z" />
<glyph unicode="&#xaa;" horiz-adv-x="3674" d="M31 49q45 15 106 34.5t84 27.5q93 34 164.5 113.5t71.5 152.5q0 87 -58 135.5t-147 48.5q-184 0 -184 -104q0 -32 34.5 -52t75.5 -20q24 0 50 12.5t41.5 24t43.5 35.5v-19q-22 -32 -60 -57t-75 -25q-53 0 -92 28.5t-39 72.5q0 37 18.5 63t49.5 38.5t62 18t65 5.5 q112 0 174.5 -58.5t62.5 -156.5q0 -39 -22 -82t-56 -78t-59 -56.5t-47 -37.5l37 -9q108 -23 180.5 -65.5t140.5 -132.5h-4v-4q-32 8 -43 8q-34 0 -49.5 -16t-15.5 -41q0 -38 34.5 -65t74.5 -37.5t75 -10.5t68.5 15t52.5 38h-8q-46 0 -97 25t-51 71q0 29 19 43.5t49 14.5 q47 0 87 -32.5t40 -74.5q0 -8 -4 -20q64 14 110.5 58t46.5 114q0 38 -12 78h8q15 -25 15 -78q0 -74 -52 -128.5t-125 -66.5q-19 -34 -61.5 -52.5t-85.5 -18.5t-86.5 12t-78 42.5t-34.5 72.5q0 29 18.5 51t49.5 22q19 0 31 -4q-90 80 -174 114t-199 34q-56 0 -221 -21z M117 1511q0 98 61 182.5t148 84.5q12 0 32 -4v-13q-8 2 -24 2q-82 0 -141.5 -78.5t-59.5 -168.5t62 -132q44 100 120 208.5t162.5 185.5t145.5 77q82 0 82 -139q0 -110 -94 -213t-212 -147q0 -1 -1 -3.5t-1 -4.5q-57 -214 -57 -301q0 -30 13 -51.5t31.5 -30.5t30.5 -12 t19 -3q68 0 129 45q-38 25 -90 25q-19 0 -43 -4.5t-29 -9.5v8q10 8 32.5 15t35.5 7q61 0 106 -28q49 41 79 104.5t30 128.5q0 117 -72 117q-69 0 -114 -61.5t-45 -133.5q0 -26 11 -51t36 -25q37 0 59.5 45.5t22.5 88.5q0 4 -3 15.5t-4 16.5h17q4 -12 4 -32 q0 -49 -28.5 -99.5t-67.5 -50.5q-34 0 -48 29.5t-14 68.5q0 71 48 138t120 67q54 0 86.5 -47.5t32.5 -116.5q0 -64 -34 -124.5t-91 -100.5q33 -33 33 -88q0 -93 -113 -143q2 -4 2 -11q0 -38 -33 -65t-71 -27h-10l6 11q26 0 57 20.5t31 52.5q0 9 -2 13q-47 -17 -101 -17 q-32 0 -69 6.5t-72 28t-35 53.5q0 31 35.5 46.5t71.5 15.5q45 0 102.5 -29.5t79.5 -69.5q94 42 94 119q0 46 -22 74q-68 -43 -146 -43q-122 0 -201 86.5t-79 232.5q0 41 26 111q-67 47 -67 149zM248 819q0 -24 25.5 -39.5t54 -19.5t59.5 -4q53 0 105 18q-21 38 -70.5 65 t-91.5 27q-17 0 -33 -3t-32.5 -14t-16.5 -30zM406 1380q104 46 177.5 160.5t73.5 237.5q0 25 -6.5 38t-27.5 13q-23 0 -43.5 -25t-55.5 -98q-1 -2 -23 -61.5t-51.5 -139t-43.5 -125.5zM537 176q0 56 31.5 99.5t80.5 43.5q33 0 49.5 -22.5t16.5 -52.5q0 -55 -29.5 -97.5 t-77.5 -42.5q-8 0 -24.5 6.5t-18.5 6.5q7 -30 34 -52t54 -22q34 0 62.5 21t48 51t37.5 79.5t28 87.5t23 95q-63 26 -92 82q-23 -10 -37 -10q-145 0 -145 153q0 116 82.5 208.5t199.5 92.5q71 0 121.5 -16.5t82 -32.5t56.5 -16q13 0 41 4v-11q-68 -17 -132.5 -61.5 t-106.5 -101.5q-6 49 -41 78.5t-88 29.5q-76 0 -135.5 -64t-59.5 -141q0 -108 119 -108q21 0 37 8q-15 30 -15 72q0 53 28 89t56 36q22 0 33.5 -15t11.5 -37q0 -40 -28 -82t-66 -67q22 -48 82 -72q22 87 48 151.5t73 121.5q18 20 42.5 43.5t65 49.5t72.5 30v-15 q-121 -58 -121 -282q0 -45 6 -97q82 40 82 119q0 66 -30 96v4q31 -19 39 -77q15 32 48 58t79 26q59 0 90.5 -56.5t31.5 -138.5q0 -30 -46 -149t-46 -173q0 -43 25 -43q30 0 56 39t45.5 108t34 135t30.5 149.5t26 121.5q40 -20 68 -20q18 0 32 5.5t32.5 19t23.5 16.5 q-6 -29 -26.5 -119t-33 -149.5t-23 -134.5t-7.5 -121l2 -35q42 -9 68 -43.5t26 -85.5q0 -73 -61 -123h-19q66 52 66 115q0 90 -76 108q12 -66 12 -137q0 -51 -25 -91.5t-65 -64t-86.5 -35.5t-93.5 -12q-67 0 -120.5 38.5t-53.5 100.5q0 32 13.5 55.5t34.5 34.5t39 16t34 5 q22 0 32 -2q33 67 117 104v7q-6 20 -6 61q-52 -106 -143 -106q-50 0 -83.5 53.5t-33.5 130.5q0 54 46 171.5t46 153.5q0 60 -22 60q-28 0 -54.5 -30t-31.5 -48q0 -92 -91 -137q0 -369 -299 -369q-88 0 -148 40.5t-60 127.5zM711 -121q0 -34 38 -50.5t78 -16.5q22 0 30.5 6 t8.5 26q0 35 -32.5 60.5t-67.5 25.5q-25 0 -40 -13t-15 -38zM758 541q0 -40 10 -60q35 23 60.5 60t25.5 71q0 41 -31 41q-35 0 -50 -36.5t-15 -75.5zM770 1208q0 58 46.5 138.5t112 140t115.5 59.5q44 0 64 -59l14 53q40 -20 68 -20q18 0 32 5.5t32.5 19t23.5 16.5 q-5 -31 -31.5 -161t-47.5 -243t-21 -145q0 -35 18 -35q22 0 39.5 28.5t36.5 79.5h18q-30 -137 -119 -137q-43 0 -77 31.5t-45 93.5q-39 -77 -68 -102t-66 -25q-36 0 -65.5 27.5t-46 69.5t-25 85t-8.5 80zM924 995q0 -22 16 -22q60 0 104 184q8 82 48 254q0 115 -37 115 q-24 0 -44 -48t-24 -85q-15 -71 -39 -212.5t-24 -185.5zM1169 -158q0 -54 44.5 -85t103.5 -31q54 0 105 35.5t51 91.5q0 25 -9.5 58.5t-24 72.5t-18.5 55q-75 -23 -104 -88q36 -12 56 -40.5t20 -51.5q0 -17 -13.5 -34.5t-38.5 -17.5q-24 0 -40.5 25t-16.5 53q0 25 4 37 q-12 2 -33 2q-39 0 -62.5 -22t-23.5 -60zM1229 748q0 33 29 49t61 16l119 -12q65 0 65 47q0 29 -23 45t-53 16q-23 0 -41 -10t-18 -27q0 -26 33 -26q25 0 43 12l4 -14q-26 -13 -45 -13q-21 0 -36 10.5t-15 28.5q0 23 25.5 37.5t52.5 14.5q37 0 62.5 -19.5t25.5 -52.5 q0 -31 -25 -46.5t-53 -15.5l-121 15q-28 0 -53 -13.5t-25 -41.5q0 -18 17 -27.5t36 -9.5q35 0 103 33.5t92 33.5q54 0 88.5 -37t34.5 -94l-13 2v6q-8 52 -38 76.5t-58 24.5q-19 0 -48 -15t-69.5 -30t-87.5 -15q-34 0 -51.5 15.5t-17.5 36.5zM1307 -111q0 -23 8 -42t22 -19 q31 0 31 25q0 40 -59 63q-2 -8 -2 -27zM1329 1409q9 30 17.5 49t23.5 41.5t37.5 33.5t52.5 11q53 0 83 -32.5t38 -84.5q5 6 25.5 35.5t32 42.5t35 27t48.5 14q41 0 71 -36t44 -88t14 -111q0 -84 -25.5 -172.5t-51 -168t-25.5 -143.5q0 -52 14 -86t35.5 -48.5t47.5 -28.5 t49.5 -26t42.5 -41.5t26 -74.5q35 60 61.5 80.5t59.5 20.5q47 0 84 -49.5t53 -107.5t16 -104q0 -80 -32 -157q39 -56 39 -119q0 -57 -22 -110.5t-67.5 -91.5t-103.5 -38q-35 0 -58.5 19.5t-23.5 52.5q0 23 18 40t40 17q12 0 18 -2v-8q-21 0 -40 -13t-19 -34q0 -25 17.5 -40 t41.5 -15q74 0 128 77t54 154q0 45 -28 92q-76 -163 -181 -163q-42 0 -61 31t-19 77q0 69 38 110.5t77 49.5q31 221 31 284q0 6 -7 13.5t-18 7.5q-26 0 -57 -43t-31 -119q0 -55 -59.5 -357.5t-71.5 -338.5q-40 20 -67 20q-13 0 -26 -4.5t-21 -9.5t-21 -14.5t-18 -12.5 q4 25 43.5 232.5t72.5 393t33 218.5q0 37 -11.5 63t-29.5 42.5t-40 32t-43.5 39t-39.5 56.5t-29.5 91t-11.5 135q0 72 47 226.5t47 230.5q0 45 -18 45q-24 0 -61.5 -45t-63.5 -113q-5 -52 -37.5 -222t-40.5 -198q-46 23 -67 23q-41 0 -80 -25q3 17 27.5 155.5t41.5 245.5 t17 140q0 35 -19 35q-15 0 -30 -18t-23.5 -37t-21.5 -54h-21zM1860 805l2 2q87 -102 194 -102q55 0 88 26q-29 5 -60 13.5t-68.5 26.5t-66 40.5t-48 57t-19.5 75.5q0 49 21 70l8 -8q-10 -30 -10 -56q0 -46 26.5 -82.5t69 -58t85.5 -34t85 -15.5q6 15 6 35q0 47 -37.5 79.5 t-89.5 32.5q-46 0 -82 -20l-8 2q31 31 86 31q56 0 100.5 -35t44.5 -88q0 -22 -6 -37h8q75 0 138 37.5t77 111.5l21 -10q-14 -70 -85 -121t-157 -51h-22q-33 -33 -99 -33q-64 0 -119 28.5t-83 82.5zM1935 1208q0 58 46.5 138.5t112.5 140t116 59.5q45 0 65 -59l15 53 q40 -20 67 -20q13 0 26 4.5t21 9.5t21 14.5t18 12.5q-5 -30 -31 -160.5t-46.5 -243.5t-20.5 -145q0 -35 16 -35q22 0 39.5 28.5t36.5 79.5h21q-35 -137 -119 -137q-44 0 -78 31t-45 94q-40 -77 -69 -102t-64 -25q-37 0 -66.5 27.5t-46.5 69.5t-26 85t-9 80zM1952 119 q0 -25 11.5 -47.5t37.5 -22.5q10 0 18 15t13 44t8.5 52t7 60.5t4.5 47.5q-43 -4 -71.5 -50t-28.5 -99zM2089 995q0 -22 16 -22q63 0 107 184q4 57 45 254q0 115 -37 115q-14 0 -25.5 -9t-18.5 -28t-11 -32t-8.5 -37.5t-4.5 -26.5q-1 -4 -13.5 -74t-22 -123.5t-18.5 -115 t-9 -85.5zM2294 305q0 41 28.5 95.5t73 104t106.5 84t121 34.5q44 0 73.5 -34.5t29.5 -103.5q0 -60 -42.5 -111.5t-101.5 -80.5t-118 -35q-25 -144 -25 -170q0 -45 53 -45q9 0 15 2v2q0 48 21.5 105t63 101t89.5 44q17 0 26 -15t9 -36q0 -67 -62.5 -139.5t-130.5 -79.5 q0 -114 40.5 -170t107.5 -56q56 0 124 38t132 102q-75 35 -119.5 99t-44.5 150q0 65 37.5 122.5t99.5 70.5v-8q-60 -18 -91.5 -72.5t-31.5 -120.5q0 -73 46 -132t120 -91q112 122 156 264l-234 72l103 41l-138 278l111 -32l-25 163l107 -120l63 92l64 -201l86 277l43 -72 l162 94v-182h100l-213 -211l211 59l-35 -108l160 -17l-154 -73l82 -66l-293 -55l19 -105l-180 146q-67 -153 -168 -254q55 -19 108 -19q137 0 189 107h8q-11 -60 -67.5 -95.5t-119.5 -35.5q-72 0 -137 24q-71 -71 -148 -112t-145 -41q-151 0 -151 248q-4 -2 -15 -2 q-82 0 -140 73t-58 209zM2468 279q49 7 89 60.5t58.5 113t18.5 104.5t-21 45q-81 0 -145 -323zM2484 1208q0 58 46.5 138.5t112.5 140t116 59.5q40 0 61 -49q46 239 59 283q42 -21 68 -21q18 0 32 5.5t32.5 19t23.5 16.5q-5 -27 -42 -219t-68 -364t-31 -205q0 -35 18 -35 q34 0 68.5 65.5t50.5 128.5h23q-5 -23 -14.5 -51.5t-28.5 -71t-49.5 -70.5t-65.5 -28q-44 0 -81 31.5t-50 93.5q-40 -78 -69 -103.5t-64 -25.5q-37 0 -66.5 27.5t-46.5 69.5t-26 85t-9 80zM2507 795q0 39 33 76t75 38v-8q-34 -6 -61 -32t-27 -60q0 -104 148 -104 q29 0 54.5 4.5t51 15t41 31.5t17.5 51q-6 -2 -15 -2q-47 0 -79.5 19t-32.5 50q0 16 16 28.5t31 12.5q31 0 57.5 -25.5t34.5 -58.5q64 8 120.5 54t73.5 108h4q-13 -83 -69 -129.5t-127 -56.5q-2 -55 -55.5 -97t-126.5 -42q-39 0 -74 10.5t-62.5 40.5t-27.5 76zM2521 47 q50 0 111 71.5t61 133.5q0 29 -18 29q-39 0 -75.5 -40t-57.5 -93t-21 -97v-4zM2638 995q0 -22 16 -22q50 0 77.5 88.5t74.5 370.5q-3 94 -37 94q-14 0 -25.5 -9t-18.5 -28t-11 -32t-8.5 -37.5t-4.5 -26.5q-1 -4 -13.5 -74t-22 -123.5t-18.5 -115t-9 -85.5zM2734 872 q0 -41 94 -41h8q-6 30 -24.5 49t-46.5 19q-31 0 -31 -27zM3090 1208q0 58 46.5 138.5t112.5 140t116 59.5q45 0 65 -59l15 53q40 -20 67 -20q13 0 26 4.5t21 9.5t21 14.5t18 12.5q-5 -30 -31 -160.5t-46.5 -243.5t-20.5 -145q0 -35 16 -35q22 0 39.5 28.5t36.5 79.5h21 q-35 -137 -119 -137q-44 0 -78 31t-45 94q-40 -77 -69 -102t-64 -25q-37 0 -66.5 27.5t-46.5 69.5t-26 85t-9 80zM3244 995q0 -22 16 -22q63 0 107 184q4 57 45 254q0 115 -37 115q-14 0 -25.5 -9.5t-18.5 -28t-10.5 -32t-7.5 -36.5t-5 -27q-1 -8 -13.5 -75t-22.5 -122 t-19 -116t-9 -85z" />
<glyph unicode="&#xab;" horiz-adv-x="819" d="M41 584v118l369 334v-198l-236 -193l236 -196v-203zM410 584v116l368 336v-198l-235 -193l235 -196v-203z" />
<glyph unicode="&#xac;" horiz-adv-x="1011" d="M102 154v1175l123 150h561l123 -148v-1179l-75 -95l49 -63l-127 -107l-88 113h-443zM295 164h244l-21 26l123 117l76 -98v1106h-422v-1151z" />
<glyph unicode="&#xad;" horiz-adv-x="1024" d="M0 651v164h1024v-164h-1024z" />
<glyph unicode="&#xae;" horiz-adv-x="1130" d="M82 608v778l78 93h811l78 -93v-782l-78 -92h-811zM203 614h725v762h-725v-762zM328 702v103h30v381h-30v102h366l78 -92v-117l-74 -88l88 -186h31v-103h-184v103h33l-84 182h-103v-182h31v-103h-182zM479 1087h172v99h-172v-99z" />
<glyph unicode="&#xaf;" horiz-adv-x="550" d="M41 1559v122h469v-122h-469z" />
<glyph unicode="&#xb0;" horiz-adv-x="684" d="M82 1067v291l113 121h284l123 -119v-295l-123 -123h-284zM244 1075h196v271h-196v-271z" />
<glyph unicode="&#xb1;" d="M20 1315v164h377v-164h-92l252 -1024l254 1024h-92v164h377v-164h-92l-293 -1151h90v-164h-488v164h93l-293 1151h-93z" />
<glyph unicode="&#xb4;" horiz-adv-x="657" d="M328 1550l78 213h169l-131 -213h-116z" />
<glyph unicode="&#xb6;" horiz-adv-x="978" d="M82 737v594l123 148h733v-164h-92v-1520h-131v1520h-142v-1520h-192v791h-176z" />
<glyph unicode="&#xb7;" horiz-adv-x="274" d="M41 668v163h192v-163h-192z" />
<glyph unicode="&#xb8;" horiz-adv-x="657" d="M252 -205l80 254h190l-133 -254h-137z" />
<glyph unicode="&#xb9;" horiz-adv-x="962" d="M61 0v164h93v1151h-93v164h693l123 -148v-604l-160 -129l102 -434h92v-164h-241l-148 586h-176v-422h92v-164h-377zM346 750h338v565h-338v-565z" />
<glyph unicode="&#xba;" horiz-adv-x="724" d="M82 705v438l123 149h315l123 -147v-443l-123 -151h-315zM160 246v143h436v-143h-436zM254 694h217v455h-217v-455z" />
<glyph unicode="&#xbb;" horiz-adv-x="819" d="M41 246v203l235 196l-235 193v198l369 -336v-116zM410 246v203l235 196l-235 193v198l368 -334v-118z" />
<glyph unicode="&#xbf;" horiz-adv-x="909" d="M66 -55v434l114 141l285 76v289h192v-312l-84 -133l-315 -82v-399h412v223h192v-239l-123 -148h-551zM465 1110v164h192v-164h-192z" />
<glyph unicode="&#xc0;" d="M20 0v164h93l295 1151h-91v164h488v-164h-92l291 -1151h92v-164h-377v164h92l-72 278h-364l-70 -278h92v-164h-377zM387 1763h170l78 -213h-117zM418 606h278l-137 582z" />
<glyph unicode="&#xc1;" d="M20 0v164h93l295 1151h-91v164h488v-164h-92l291 -1151h92v-164h-377v164h92l-72 278h-364l-70 -278h92v-164h-377zM418 606h278l-137 582zM512 1550l78 213h170l-131 -213h-117z" />
<glyph unicode="&#xc2;" d="M20 0v164h93l295 1151h-91v164h488v-164h-92l291 -1151h92v-164h-377v164h92l-72 278h-364l-70 -278h92v-164h-377zM373 1550l133 213h102l133 -213h-106l-78 103l-78 -103h-106zM418 606h278l-137 582z" />
<glyph unicode="&#xc3;" d="M20 0v164h93l295 1151h-91v164h488v-164h-92l291 -1151h92v-164h-377v164h92l-72 278h-364l-70 -278h92v-164h-377zM279 1544v131l75 70h156l182 -105v105h144v-135l-64 -66h-154l-196 105v-105h-143zM418 606h278l-137 582z" />
<glyph unicode="&#xc4;" d="M20 0v164h93l295 1151h-91v164h488v-164h-92l291 -1151h92v-164h-377v164h92l-72 278h-364l-70 -278h92v-164h-377zM344 1567v139h152v-139h-152zM418 606h278l-137 582zM618 1567v139h152v-139h-152z" />
<glyph unicode="&#xc5;" d="M20 0v164h93l295 1151h-91v164h488v-164h-92l291 -1151h92v-164h-377v164h92l-72 278h-364l-70 -278h92v-164h-377zM328 1653v192l92 99h274l92 -97v-196l-92 -101h-274zM418 606h278l-137 582zM479 1673h156v148h-156v-148z" />
<glyph unicode="&#xc6;" horiz-adv-x="1652" d="M20 0v164h91l620 1151h-90v164h920v-383h-162v219h-361v-484h279v93h164v-349h-164v93h-279v-504h361v219h162v-383h-807v164h92v278h-393l-150 -278h92v-164h-375zM541 606h305v545z" />
<glyph unicode="&#xc7;" horiz-adv-x="942" d="M102 154v1175l123 150h523l122 -148v-235h-161v219h-414v-1151h414v217h161v-229l-122 -152h-146l-106 -205h-138l64 205h-197z" />
<glyph unicode="&#xc8;" horiz-adv-x="960" d="M61 0v164h93v1151h-93v164h807v-383h-161v219h-361v-484h279v93h163v-349h-163v93h-279v-504h361v219h161v-383h-807zM319 1763h170l78 -213h-116z" />
<glyph unicode="&#xc9;" horiz-adv-x="960" d="M61 0v164h93v1151h-93v164h807v-383h-161v219h-361v-484h279v93h163v-349h-163v93h-279v-504h361v219h161v-383h-807zM436 1550l78 213h170l-131 -213h-117z" />
<glyph unicode="&#xca;" horiz-adv-x="960" d="M61 0v164h93v1151h-93v164h807v-383h-161v219h-361v-484h279v93h163v-349h-163v93h-279v-504h361v219h161v-383h-807zM299 1550l133 213h103l133 -213h-107l-78 103l-77 -103h-107z" />
<glyph unicode="&#xcb;" horiz-adv-x="960" d="M61 0v164h93v1151h-93v164h807v-383h-161v219h-361v-484h279v93h163v-349h-163v93h-279v-504h361v219h161v-383h-807zM266 1567v139h152v-139h-152zM541 1567v139h151v-139h-151z" />
<glyph unicode="&#xcc;" horiz-adv-x="499" d="M61 0v164h93v1151h-93v164h377v-164h-92v-1151h92v-164h-377zM78 1763h170l78 -213h-117z" />
<glyph unicode="&#xcd;" horiz-adv-x="499" d="M61 0v164h93v1151h-93v164h377v-164h-92v-1151h92v-164h-377zM201 1550l78 213h170l-132 -213h-116z" />
<glyph unicode="&#xce;" horiz-adv-x="499" d="M61 0v164h93v1151h-93v164h377v-164h-92v-1151h92v-164h-377zM66 1550l133 213h102l133 -213h-106l-78 103l-78 -103h-106z" />
<glyph unicode="&#xcf;" horiz-adv-x="499" d="M37 1567v139h151v-139h-151zM61 0v164h93v1151h-93v164h377v-164h-92v-1151h92v-164h-377zM311 1567v139h152v-139h-152z" />
<glyph unicode="&#xd0;" horiz-adv-x="997" d="M20 651v164h134v500h-93v164h711l123 -148v-1179l-123 -152h-711v164h93v487h-134zM346 164h356v1151h-356v-500h189v-164h-189v-487z" />
<glyph unicode="&#xd1;" horiz-adv-x="1161" d="M61 0v164h93v1151h-93v164h342l422 -1008v844h-92v164h377v-164h-92v-1321h-193l-479 1157v-987h92v-164h-377zM301 1544v131l76 70h155l183 -105v105h143v-135l-63 -66h-154l-197 105v-105h-143z" />
<glyph unicode="&#xd2;" horiz-adv-x="1011" d="M102 154v1175l123 150h561l123 -148v-1179l-123 -152h-561zM295 164h422v1151h-422v-1151zM336 1763h170l78 -213h-117z" />
<glyph unicode="&#xd3;" horiz-adv-x="1011" d="M102 154v1175l123 150h561l123 -148v-1179l-123 -152h-561zM295 164h422v1151h-422v-1151zM434 1550l78 213h170l-131 -213h-117z" />
<glyph unicode="&#xd4;" horiz-adv-x="1011" d="M102 154v1175l123 150h561l123 -148v-1179l-123 -152h-561zM295 164h422v1151h-422v-1151zM322 1550l133 213h102l133 -213h-106l-78 103l-78 -103h-106z" />
<glyph unicode="&#xd5;" horiz-adv-x="1011" d="M102 154v1175l123 150h561l123 -148v-1179l-123 -152h-561zM227 1544v131l76 70h156l182 -105v105h143v-135l-63 -66h-154l-196 105v-105h-144zM295 164h422v1151h-422v-1151z" />
<glyph unicode="&#xd6;" horiz-adv-x="1011" d="M102 154v1175l123 150h561l123 -148v-1179l-123 -152h-561zM293 1567v139h151v-139h-151zM295 164h422v1151h-422v-1151zM567 1567v139h152v-139h-152z" />
<glyph unicode="&#xd7;" horiz-adv-x="733" d="M41 561l195 197l-193 194l113 113l194 -193l207 205l135 -135l-205 -207l193 -194l-113 -113l-194 193l-197 -195z" />
<glyph unicode="&#xd8;" horiz-adv-x="1011" d="M102 154v1175l123 150h471l29 84h127l-41 -115l98 -117v-1179l-123 -152h-473l-32 -96h-127l45 129zM295 313l344 1002h-344v-1002zM369 164h348v1005z" />
<glyph unicode="&#xd9;" horiz-adv-x="1171" d="M61 1315v164h377v-164h-92v-1151h479v1151h-92v164h377v-164h-92v-1163l-123 -152h-619l-122 154v1161h-93zM412 1763h170l77 -213h-116z" />
<glyph unicode="&#xda;" horiz-adv-x="1171" d="M61 1315v164h377v-164h-92v-1151h479v1151h-92v164h377v-164h-92v-1163l-123 -152h-619l-122 154v1161h-93zM528 1550l78 213h170l-131 -213h-117z" />
<glyph unicode="&#xdb;" horiz-adv-x="1171" d="M61 1315v164h377v-164h-92v-1151h479v1151h-92v164h377v-164h-92v-1163l-123 -152h-619l-122 154v1161h-93zM401 1550l134 213h102l133 -213h-106l-78 103l-78 -103h-107z" />
<glyph unicode="&#xdc;" horiz-adv-x="1171" d="M61 1315v164h377v-164h-92v-1151h479v1151h-92v164h377v-164h-92v-1163l-123 -152h-619l-122 154v1161h-93zM373 1567v139h151v-139h-151zM647 1567v139h152v-139h-152z" />
<glyph unicode="&#xdd;" horiz-adv-x="1093" d="M20 1315v164h377v-164h-92l242 -432l241 432h-92v164h377v-164h-92l-338 -629v-522h92v-164h-377v164h93v528l-338 623h-93zM498 1550l77 213h170l-131 -213h-116z" />
<glyph unicode="&#xde;" horiz-adv-x="958" d="M61 0v164h93v1151h-93v164h377v-164h-92v-123h408l123 -148v-593l-123 -152h-408v-135h92v-164h-377zM346 463h338v565h-338v-565z" />
<glyph unicode="&#xdf;" horiz-adv-x="1839" d="M61 147v248h193v-231h412v512l-490 78l-115 141v434l123 150h551l123 -148v-239h-192v223h-412v-400l520 -84l84 -133v-548l-123 -150h-551zM981 147v248h193v-231h411v512l-489 78l-115 141v434l123 150h551l123 -148v-239h-193v223h-411v-400l520 -84l84 -133v-548 l-123 -150h-551z" />
<glyph unicode="&#xe0;" d="M20 0v164h93l295 1151h-91v164h488v-164h-92l291 -1151h92v-164h-377v164h92l-72 278h-364l-70 -278h92v-164h-377zM387 1763h170l78 -213h-117zM418 606h278l-137 582z" />
<glyph unicode="&#xe1;" d="M20 0v164h93l295 1151h-91v164h488v-164h-92l291 -1151h92v-164h-377v164h92l-72 278h-364l-70 -278h92v-164h-377zM418 606h278l-137 582zM512 1550l78 213h170l-131 -213h-117z" />
<glyph unicode="&#xe2;" d="M20 0v164h93l295 1151h-91v164h488v-164h-92l291 -1151h92v-164h-377v164h92l-72 278h-364l-70 -278h92v-164h-377zM373 1550l133 213h102l133 -213h-106l-78 103l-78 -103h-106zM418 606h278l-137 582z" />
<glyph unicode="&#xe3;" d="M20 0v164h93l295 1151h-91v164h488v-164h-92l291 -1151h92v-164h-377v164h92l-72 278h-364l-70 -278h92v-164h-377zM279 1544v131l75 70h156l182 -105v105h144v-135l-64 -66h-154l-196 105v-105h-143zM418 606h278l-137 582z" />
<glyph unicode="&#xe4;" d="M20 0v164h93l295 1151h-91v164h488v-164h-92l291 -1151h92v-164h-377v164h92l-72 278h-364l-70 -278h92v-164h-377zM344 1567v139h152v-139h-152zM418 606h278l-137 582zM618 1567v139h152v-139h-152z" />
<glyph unicode="&#xe5;" d="M20 0v164h93l295 1151h-91v164h488v-164h-92l291 -1151h92v-164h-377v164h92l-72 278h-364l-70 -278h92v-164h-377zM328 1653v192l92 99h274l92 -97v-196l-92 -101h-274zM418 606h278l-137 582zM479 1673h156v148h-156v-148z" />
<glyph unicode="&#xe6;" horiz-adv-x="1652" d="M20 0v164h91l620 1151h-90v164h920v-383h-162v219h-361v-484h279v93h164v-349h-164v93h-279v-504h361v219h162v-383h-807v164h92v278h-393l-150 -278h92v-164h-375zM541 606h305v555z" />
<glyph unicode="&#xe7;" horiz-adv-x="942" d="M102 154v1175l123 150h523l122 -148v-235h-161v219h-414v-1151h414v217h161v-229l-122 -152h-146l-106 -205h-138l64 205h-197z" />
<glyph unicode="&#xe8;" horiz-adv-x="960" d="M61 0v164h93v1151h-93v164h807v-383h-161v219h-361v-484h279v93h163v-349h-163v93h-279v-504h361v219h161v-383h-807zM319 1763h170l78 -213h-116z" />
<glyph unicode="&#xe9;" horiz-adv-x="960" d="M61 0v164h93v1151h-93v164h807v-383h-161v219h-361v-484h279v93h163v-349h-163v93h-279v-504h361v219h161v-383h-807zM436 1550l78 213h170l-131 -213h-117z" />
<glyph unicode="&#xea;" horiz-adv-x="960" d="M61 0v164h93v1151h-93v164h807v-383h-161v219h-361v-484h279v93h163v-349h-163v93h-279v-504h361v219h161v-383h-807zM299 1550l133 213h103l133 -213h-107l-78 103l-77 -103h-107z" />
<glyph unicode="&#xeb;" horiz-adv-x="960" d="M61 0v164h93v1151h-93v164h807v-383h-161v219h-361v-484h279v93h163v-349h-163v93h-279v-504h361v219h161v-383h-807zM266 1567v139h152v-139h-152zM541 1567v139h151v-139h-151z" />
<glyph unicode="&#xec;" horiz-adv-x="499" d="M61 0v164h93v1151h-93v164h377v-164h-92v-1151h92v-164h-377zM78 1763h170l78 -213h-117z" />
<glyph unicode="&#xed;" horiz-adv-x="499" d="M61 0v164h93v1151h-93v164h377v-164h-92v-1151h92v-164h-377zM201 1550l78 213h170l-132 -213h-116z" />
<glyph unicode="&#xee;" horiz-adv-x="499" d="M61 0v164h93v1151h-93v164h377v-164h-92v-1151h92v-164h-377zM66 1550l133 213h102l133 -213h-106l-78 103l-78 -103h-106z" />
<glyph unicode="&#xef;" horiz-adv-x="499" d="M37 1567v139h151v-139h-151zM61 0v164h93v1151h-93v164h377v-164h-92v-1151h92v-164h-377zM311 1567v139h152v-139h-152z" />
<glyph unicode="&#xf0;" horiz-adv-x="997" d="M20 651v164h134v500h-93v164h711l123 -148v-1179l-123 -152h-711v164h93v487h-134zM346 164h356v1151h-356v-500h189v-164h-189v-487z" />
<glyph unicode="&#xf1;" horiz-adv-x="1161" d="M61 0v164h93v1151h-93v164h342l422 -1008v844h-92v164h377v-164h-92v-1321h-193l-479 1157v-987h92v-164h-377zM301 1544v131l76 70h155l183 -105v105h143v-135l-63 -66h-154l-197 105v-105h-143z" />
<glyph unicode="&#xf2;" horiz-adv-x="1011" d="M102 154v1175l123 150h561l123 -148v-1179l-123 -152h-561zM295 164h422v1151h-422v-1151zM336 1763h170l78 -213h-117z" />
<glyph unicode="&#xf3;" horiz-adv-x="1011" d="M102 154v1175l123 150h561l123 -148v-1179l-123 -152h-561zM295 164h422v1151h-422v-1151zM434 1550l78 213h170l-131 -213h-117z" />
<glyph unicode="&#xf4;" horiz-adv-x="1011" d="M102 154v1175l123 150h561l123 -148v-1179l-123 -152h-561zM295 164h422v1151h-422v-1151zM322 1550l133 213h102l133 -213h-106l-78 103l-78 -103h-106z" />
<glyph unicode="&#xf5;" horiz-adv-x="1011" d="M102 154v1175l123 150h561l123 -148v-1179l-123 -152h-561zM227 1544v131l76 70h156l182 -105v105h143v-135l-63 -66h-154l-196 105v-105h-144zM295 164h422v1151h-422v-1151z" />
<glyph unicode="&#xf6;" horiz-adv-x="1011" d="M102 154v1175l123 150h561l123 -148v-1179l-123 -152h-561zM293 1567v139h151v-139h-151zM295 164h422v1151h-422v-1151zM567 1567v139h152v-139h-152z" />
<glyph unicode="&#xf7;" horiz-adv-x="1814" d="M20 1315v164h377v-164h-92l252 -983l254 983h-92v164h377v-164h-92l251 -983l254 983h-92v164h377v-164h-92l-293 -1151h90v-164h-487v164h92l-199 766l-194 -766h90v-164h-488v164h93l-293 1151h-93z" />
<glyph unicode="&#xf8;" horiz-adv-x="1011" d="M102 154v1175l123 150h471l29 84h127l-41 -115l98 -117v-1179l-123 -152h-473l-32 -96h-127l45 129zM295 313l344 1002h-344v-1002zM369 164h348v1005z" />
<glyph unicode="&#xf9;" horiz-adv-x="1171" d="M61 1315v164h377v-164h-92v-1151h479v1151h-92v164h377v-164h-92v-1163l-123 -152h-619l-122 154v1161h-93zM412 1763h170l77 -213h-116z" />
<glyph unicode="&#xfa;" horiz-adv-x="1171" d="M61 1315v164h377v-164h-92v-1151h479v1151h-92v164h377v-164h-92v-1163l-123 -152h-619l-122 154v1161h-93zM528 1550l78 213h170l-131 -213h-117z" />
<glyph unicode="&#xfb;" horiz-adv-x="1171" d="M61 1315v164h377v-164h-92v-1151h479v1151h-92v164h377v-164h-92v-1163l-123 -152h-619l-122 154v1161h-93zM401 1550l134 213h102l133 -213h-106l-78 103l-78 -103h-107z" />
<glyph unicode="&#xfc;" horiz-adv-x="1171" d="M61 1315v164h377v-164h-92v-1151h479v1151h-92v164h377v-164h-92v-1163l-123 -152h-619l-122 154v1161h-93zM373 1567v139h151v-139h-151zM647 1567v139h152v-139h-152z" />
<glyph unicode="&#xfd;" horiz-adv-x="1093" d="M20 1315v164h377v-164h-92l242 -432l241 432h-92v164h377v-164h-92l-338 -629v-522h92v-164h-377v164h93v528l-338 623h-93zM498 1550l77 213h170l-131 -213h-116z" />
<glyph unicode="&#xfe;" horiz-adv-x="958" d="M61 0v164h93v1151h-93v164h377v-164h-92v-123h408l123 -148v-593l-123 -152h-408v-135h92v-164h-377zM346 463h338v565h-338v-565z" />
<glyph unicode="&#xff;" horiz-adv-x="1093" d="M20 1315v164h377v-164h-92l242 -432l241 432h-92v164h377v-164h-92l-338 -629v-522h92v-164h-377v164h93v528l-338 623h-93zM334 1567v139h151v-139h-151zM608 1567v139h152v-139h-152z" />
<glyph unicode="&#x152;" horiz-adv-x="1482" d="M61 154v1175l123 150h1207v-383h-162v219h-361v-484h279v93h164v-349h-164v93h-279v-504h361v219h162v-383h-1207zM254 164h422v1151h-422v-1151z" />
<glyph unicode="&#x153;" horiz-adv-x="1482" d="M61 154v1175l123 150h1207v-383h-162v219h-361v-484h279v93h164v-349h-164v93h-279v-504h361v219h162v-383h-1207zM254 164h422v1151h-422v-1151z" />
<glyph unicode="&#x178;" horiz-adv-x="1093" d="M20 1315v164h377v-164h-92l242 -432l241 432h-92v164h377v-164h-92l-338 -629v-522h92v-164h-377v164h93v528l-338 623h-93zM334 1567v139h151v-139h-151zM608 1567v139h152v-139h-152z" />
<glyph unicode="&#x2c6;" horiz-adv-x="532" d="M82 1550l133 213h102l134 -213h-107l-78 103l-78 -103h-106z" />
<glyph unicode="&#x2dc;" horiz-adv-x="966" d="M205 1544v131l76 70h155l182 -105v105h144v-135l-64 -66h-153l-197 105v-105h-143z" />
<glyph unicode="&#x2000;" horiz-adv-x="972" />
<glyph unicode="&#x2001;" horiz-adv-x="1944" />
<glyph unicode="&#x2002;" horiz-adv-x="972" />
<glyph unicode="&#x2003;" horiz-adv-x="1944" />
<glyph unicode="&#x2004;" horiz-adv-x="648" />
<glyph unicode="&#x2005;" horiz-adv-x="486" />
<glyph unicode="&#x2006;" horiz-adv-x="324" />
<glyph unicode="&#x2007;" horiz-adv-x="324" />
<glyph unicode="&#x2008;" horiz-adv-x="243" />
<glyph unicode="&#x2009;" horiz-adv-x="388" />
<glyph unicode="&#x200a;" horiz-adv-x="108" />
<glyph unicode="&#x2010;" horiz-adv-x="550" d="M41 651v164h469v-164h-469z" />
<glyph unicode="&#x2011;" horiz-adv-x="550" d="M41 651v164h469v-164h-469z" />
<glyph unicode="&#x2012;" horiz-adv-x="550" d="M41 651v164h469v-164h-469z" />
<glyph unicode="&#x2013;" horiz-adv-x="919" d="M41 651v164h838v-164h-838z" />
<glyph unicode="&#x2014;" horiz-adv-x="1206" d="M41 651v164h1124v-164h-1124z" />
<glyph unicode="&#x2018;" horiz-adv-x="274" d="M41 1159v164l98 156h8v-156h86v-164h-192z" />
<glyph unicode="&#x2019;" horiz-adv-x="274" d="M41 1315v164h192v-164l-98 -156h-8v156h-86z" />
<glyph unicode="&#x201a;" horiz-adv-x="274" d="M41 0v164h192v-164l-98 -156h-8v156h-86z" />
<glyph unicode="&#x201c;" horiz-adv-x="569" d="M41 1159v164l98 156h8v-156h86v-164h-192zM336 1159v164l98 156h8v-156h86v-164h-192z" />
<glyph unicode="&#x201d;" horiz-adv-x="569" d="M41 1315v164h192v-164l-98 -156h-8v156h-86zM336 1315v164h192v-164l-98 -156h-8v156h-86z" />
<glyph unicode="&#x201e;" horiz-adv-x="569" d="M41 0v164h192v-164l-98 -156h-8v156h-86zM336 0v164h192v-164l-98 -156h-8v156h-86z" />
<glyph unicode="&#x2022;" horiz-adv-x="483" d="M72 752q0 72 49 122t119 50q72 0 122 -50t50 -122t-50 -120t-122 -48q-71 0 -119.5 48t-48.5 120z" />
<glyph unicode="&#x2026;" horiz-adv-x="987" d="M41 0v164h192v-164h-192zM397 0v164h193v-164h-193zM754 0v164h192v-164h-192z" />
<glyph unicode="&#x202f;" horiz-adv-x="388" />
<glyph unicode="&#x2039;" horiz-adv-x="450" d="M41 584v118l369 334v-198l-236 -193l236 -196v-203z" />
<glyph unicode="&#x203a;" horiz-adv-x="450" d="M41 246v203l235 196l-235 193v198l369 -334v-118z" />
<glyph unicode="&#x205f;" horiz-adv-x="486" />
<glyph unicode="&#x20ac;" horiz-adv-x="942" d="M20 524v154h82v123h-82v153h82v375l123 150h523l122 -148v-235h-161v219h-414v-361h481v-153h-481v-123h481v-154h-481v-360h414v217h161v-229l-122 -152h-523l-123 154v370h-82z" />
<glyph unicode="&#x2122;" horiz-adv-x="1427" d="M41 1268v211h561v-211h-113v96h-102v-471h41v-113h-209v113h41v471h-106v-96h-113zM674 780v113h41v471h-41v115h227l109 -269l110 269h226v-115h-41v-471h41v-113h-209v113h41v444l-164 -383h-8l-164 383v-444h41v-113h-209z" />
<glyph unicode="&#x25fc;" horiz-adv-x="1474" d="M0 0v1475h1475v-1475h-1475z" />
</font>
</defs>
</svg>
