<?xml version="1.0" standalone="no"?>
<!DOCTYPE svg PUBLIC "-//W3C//DTD SVG 1.1//EN" "http://www.w3.org/Graphics/SVG/1.1/DTD/svg11.dtd" >
<svg>
<metadata>
Created by FontForge 20090622 at Tue Nov 28 13:04:59 2017
 By deploy user
Copyright (c) 2010 by Jonathan Hill. All rights reserved.
</metadata>
<defs>
<font id="Knul-Bold" horiz-adv-x="648" >
  <font-face 
    font-family="Knul Bold"
    font-weight="700"
    font-stretch="normal"
    units-per-em="1000"
    panose-1="0 0 8 0 0 0 0 0 0 0"
    ascent="750"
    descent="-250"
    x-height="500"
    cap-height="700"
    bbox="-76 -209 932 1075"
    underline-thickness="50"
    underline-position="-50"
    unicode-range="U+0020-U+FB02"
  />
<missing-glyph horiz-adv-x="300" 
 />
    <glyph glyph-name=".notdef" horiz-adv-x="300" 
 />
    <glyph glyph-name=".null" horiz-adv-x="0" 
 />
    <glyph glyph-name="nonmarkingreturn" horiz-adv-x="333" 
 />
    <glyph glyph-name="space" unicode=" " horiz-adv-x="300" 
 />
    <glyph glyph-name="exclam" unicode="!" horiz-adv-x="174" 
d="M34 700h107v-525h-107v525zM34 118h107v-118h-107v118z" />
    <glyph glyph-name="quotedbl" unicode="&#x22;" horiz-adv-x="325" 
d="M34 731h107v-262h-107v262zM185 731h107v-262h-107v262z" />
    <glyph glyph-name="numbersign" unicode="#" horiz-adv-x="601" 
d="M420 699h108l-43 -200h82v-99h-103l-27 -127h130v-100h-152l-36 -173h-108l36 173h-89l-36 -173h-109l37 173h-76v100h97l27 127h-124v99h145l43 200h109l-43 -200h89zM328 273l27 127h-89l-27 -127h89z" />
    <glyph glyph-name="dollar" unicode="$" horiz-adv-x="527" 
d="M220 752h86v-52h172v-100h-172v-196q45 -10 76 -22t58 -33t40.5 -53.5t13.5 -76.5q0 -199 -188 -218v-53h-86v51h-186v100h186v221q-32 7 -55.5 15t-49.5 22.5t-42.5 34t-27.5 50t-11 69.5q0 167 186 186v55zM220 423v174q-41 -5 -60 -25t-19 -61q0 -40 18.5 -58.5
t60.5 -29.5zM306 301v-198q43 6 62 33t19 83q0 36 -17.5 53t-63.5 29z" />
    <glyph glyph-name="percent" unicode="%" horiz-adv-x="688" 
d="M560 713h95l-526 -726h-95zM198 700q126 0 126 -150q0 -75 -32 -114t-94 -39q-126 0 -126 154q0 149 126 149zM198 631q-26 0 -36 -17t-10 -63q0 -47 10 -66t36 -19t36 18.5t10 66t-9.5 64t-36.5 16.5zM496.5 303q126.5 0 126.5 -150q0 -75 -32.5 -114t-93.5 -39
q-127 0 -127 154q0 149 126.5 149zM497 234q-27 0 -37 -17t-10 -63q0 -47 10 -66t37 -19q25 0 35.5 18.5t10.5 65.5t-10 64t-36 17z" />
    <glyph glyph-name="ampersand" unicode="&#x26;" horiz-adv-x="563" 
d="M134 380l-20 24q-46 56 -46 113q0 71 44.5 122t121.5 51q79 0 122 -50.5t43 -122.5q0 -81 -72 -127l-48 -31l129 -158q11 21 13 64l93 -19q0 -45 -6 -75.5t-22 -62.5l43 -53l-76 -63l-37 45q-39 -23 -87 -23h-114q-76 0 -128.5 53t-52.5 135q0 57 19 97.5t65 69.5z
M217 433l56 36q15 9 20 18t5 29q0 36 -17 57t-47 21t-47.5 -21t-17.5 -57q0 -25 24 -53zM342 127l-146 178l-14 -9q-47 -30 -47 -94q0 -42 23 -67.5t57 -25.5h99q11 0 19 5t9 13z" />
    <glyph glyph-name="quotesingle" unicode="'" horiz-adv-x="174" 
d="M34 731h107v-262h-107v262z" />
    <glyph glyph-name="parenleft" unicode="(" horiz-adv-x="267" 
d="M234 -77l-99 -32q-28 72 -64.5 202.5t-36.5 214.5q0 66 23 160.5t43 151.5t35 95l96 -33q-87 -251 -87 -374q0 -133 90 -385z" />
    <glyph glyph-name="parenright" unicode=")" horiz-adv-x="267" 
d="M38 682l95 33q16 -38 36 -95t42.5 -151.5t22.5 -160.5q0 -84 -36.5 -214.5t-64.5 -202.5l-99 32q90 252 90 385q0 123 -86 374z" />
    <glyph glyph-name="asterisk" unicode="*" horiz-adv-x="446" 
d="M171 724h106v-106l102 37l33 -95l-106 -39l69 -93l-89 -55l-62 84l-61 -84l-89 55l68 93l-108 39l34 95l103 -38v107z" />
    <glyph glyph-name="plus" unicode="+" horiz-adv-x="586" 
d="M240 514h106v-206h207v-100h-207v-206h-106v206h-206v100h206v206z" />
    <glyph glyph-name="comma" unicode="," horiz-adv-x="200" 
d="M60 156h107v-116q0 -43 -35.5 -71t-79.5 -26l-18 42q16 13 21 25t5 30v116z" />
    <glyph glyph-name="hyphen" unicode="-" horiz-adv-x="441" 
d="M34 319h373v-99h-373v99z" />
    <glyph glyph-name="period" unicode="." horiz-adv-x="174" 
d="M34 157h107v-157h-107v157z" />
    <glyph glyph-name="slash" unicode="/" horiz-adv-x="495" 
d="M346 700h116l-311 -700h-117z" />
    <glyph glyph-name="zero" unicode="0" horiz-adv-x="565" 
d="M32 241v173q0 130 67.5 197t183.5 67q119 0 185 -68.5t66 -195.5v-173q0 -121 -67.5 -186t-182.5 -65t-183.5 65.5t-68.5 185.5zM428 241v173q0 85 -36 124.5t-109 39.5q-71 0 -108 -39t-37 -125v-173q0 -76 37.5 -113.5t108.5 -37.5q144 0 144 151z" />
    <glyph glyph-name="one" unicode="1" horiz-adv-x="363" 
d="M236 684h79v-685h-107v544l-141 -95l-54 87z" />
    <glyph glyph-name="two" unicode="2" horiz-adv-x="517" 
d="M33 678h214q91 0 154 -50.5t63 -138.5v-27q0 -66 -30.5 -117.5t-81.5 -100.5l-154 -146h290v-100h-466v75l257 244q40 38 59.5 70.5t19.5 74.5v27q0 43 -30 66.5t-81 23.5h-214v99z" />
    <glyph glyph-name="three" unicode="3" horiz-adv-x="493" 
d="M22 678h250q82 0 135 -55.5t53 -138.5q0 -89 -64 -139q64 -55 64 -152q0 -86 -53.5 -140.5t-134.5 -54.5h-250v100h250q36 0 58.5 25.5t22.5 69.5q0 45 -23 75t-53 30h-180v100h180q34 0 55 23t21 63q0 42 -23 68.5t-58 26.5h-250v99z" />
    <glyph glyph-name="four" unicode="4" horiz-adv-x="563" 
d="M21 192l206 506l97 -42l-175 -428h187v166h106v-166h101v-100h-101v-128h-106v128h-315v64z" />
    <glyph glyph-name="five" unicode="5" horiz-adv-x="511" 
d="M38 670h425v-100h-319v-133h119q58 0 106 -18.5t80.5 -60.5t32.5 -102v-67q0 -51 -20.5 -89.5t-54.5 -60t-74 -31.5t-84 -10h-211v100h211q127 0 127 91v67q0 41 -30 61t-83 20h-225v333z" />
    <glyph glyph-name="six" unicode="6" horiz-adv-x="526" 
d="M141 440h131q109 0 167.5 -49.5t58.5 -142.5v-39q0 -95 -58 -153t-172 -58q-117 0 -175.5 57.5t-58.5 187.5v184q0 124 68 187.5t190 63.5h193v-99h-193q-74 0 -111 -33t-40 -106zM392 209v39q0 49 -27.5 70.5t-92.5 21.5h-131v-97q0 -85 27.5 -115t99.5 -30
q66 0 95 27.5t29 83.5z" />
    <glyph glyph-name="seven" unicode="7" horiz-adv-x="491" 
d="M21 678h457v-64l-267 -616h-116l253 581h-327v99z" />
    <glyph glyph-name="eight" unicode="8" horiz-adv-x="568" 
d="M223 678h123q82 0 135.5 -55.5t53.5 -138.5q0 -90 -64 -139q64 -56 64 -152q0 -86 -54 -140.5t-135 -54.5h-123q-81 0 -135 54.5t-54 140.5q0 97 65 152q-65 50 -65 139q0 83 53.5 138.5t135.5 55.5zM217 398h135q33 0 55 23.5t22 62.5q0 42 -23.5 68.5t-59.5 26.5h-123
q-35 0 -58.5 -26.5t-23.5 -68.5q0 -38 22 -62t54 -24zM223 98h123q36 0 59.5 25.5t23.5 69.5q0 45 -23.5 75t-53.5 30h-134q-32 0 -54.5 -29.5t-22.5 -75.5q0 -44 23 -69.5t59 -25.5z" />
    <glyph glyph-name="nine" unicode="9" horiz-adv-x="526" 
d="M30 429v39q0 95 58 152.5t171 57.5q118 0 176 -57t58 -187v-184q0 -124 -68 -188t-189 -64h-193v100h193q73 0 110.5 33t40.5 106h-131q-110 0 -168 49.5t-58 142.5zM387 337v97q0 85 -27.5 115t-100.5 30q-66 0 -94.5 -27.5t-28.5 -83.5v-39q0 -49 27.5 -70.5
t92.5 -21.5h131z" />
    <glyph glyph-name="colon" unicode=":" horiz-adv-x="174" 
d="M34 483h107v-156h-107v156zM34 157h107v-157h-107v157z" />
    <glyph glyph-name="semicolon" unicode=";" horiz-adv-x="200" 
d="M60 483h107v-156h-107v156zM60 156h107v-116q0 -43 -35.5 -71t-79.5 -26l-18 42q16 13 21 25t5 30v116z" />
    <glyph glyph-name="less" unicode="&#x3c;" horiz-adv-x="461" 
d="M34 351l394 254v-120l-257 -167v-6l257 -167v-121l-394 254v73z" />
    <glyph glyph-name="equal" unicode="=" horiz-adv-x="586" 
d="M34 408h519v-100h-519v100zM34 244h519v-100h-519v100z" />
    <glyph glyph-name="greater" unicode="&#x3e;" horiz-adv-x="461" 
d="M34 485v120l394 -254v-73l-394 -254v121l257 167v6z" />
    <glyph glyph-name="question" unicode="?" horiz-adv-x="448" 
d="M34 700h168q98 0 155.5 -48.5t57.5 -137.5q0 -88 -83 -161l-49 -43q-24 -21 -32.5 -33.5t-8.5 -28.5v-58h-106v58q0 38 16 68t50 59l60 53q46 41 46 86q0 44 -25.5 65t-80.5 21h-168v100zM136 143h106v-143h-106v143z" />
    <glyph glyph-name="at" unicode="@" horiz-adv-x="624" 
d="M34 228v197q0 138 73.5 211t202.5 73q132 0 206 -74t74 -210q0 -82 -32.5 -148t-99.5 -107h-69l-4 29q-19 -16 -35 -22.5t-40 -7.5h-34q-48 0 -83.5 33t-35.5 81q0 46 35 81.5t84 35.5h87v24q0 19 -8 30t-20 11h-135v77h135q51 0 82.5 -33.5t31.5 -83.5v-146h7
q48 57 48 146q0 102 -51 153.5t-143 51.5q-90 0 -140 -50.5t-50 -154.5v-197q0 -94 52.5 -142.5t138.5 -48.5q47 0 101 21l23 -74q-31 -12 -55 -18t-36 -7t-33 -1q-123 0 -200 71t-77 199zM363 285v36h-87q-13 0 -23 -11t-10 -27q0 -15 10 -25t23 -10h53q14 0 24 11t10 26z
" />
    <glyph glyph-name="A" unicode="A" horiz-adv-x="620" 
d="M264 700h91l250 -700h-112l-62 173h-243l-60 -173h-112zM395 273l-85 236h-3l-83 -236h171z" />
    <glyph glyph-name="B" unicode="B" horiz-adv-x="618" 
d="M78 700h278q83 0 141 -57t58 -138q0 -82 -64 -137q41 -26 65 -69t24 -94q0 -85 -61 -145t-148 -60h-293v700zM184 411h178q35 0 61 28t26 66q0 39 -27.5 67t-65.5 28h-172v-189zM184 100h187q42 0 72.5 30.5t30.5 74.5q0 45 -30 75.5t-73 30.5h-187v-211z" />
    <glyph glyph-name="C" unicode="C" horiz-adv-x="630" 
d="M304 707h42q226 0 243 -242h-105q-5 78 -37 110t-101 32h-42q-73 0 -107 -34t-34 -116v-220q0 -69 36.5 -107t104.5 -38h42q126 0 135 154h107q-8 -116 -68 -185t-174 -69h-42q-116 0 -182 68t-66 177v220q0 128 65.5 189t182.5 61z" />
    <glyph glyph-name="D" unicode="D" horiz-adv-x="631" 
d="M78 700h250q116 0 182 -61t66 -189v-205q0 -109 -66 -177t-182 -68h-250v700zM469 245v205q0 82 -34 116t-107 34h-143v-500h143q68 0 104.5 38t36.5 107z" />
    <glyph glyph-name="E" unicode="E" horiz-adv-x="561" 
d="M78 700h444v-100h-337v-187h284v-100h-284v-213h337v-100h-444v700z" />
    <glyph glyph-name="F" unicode="F" horiz-adv-x="561" 
d="M78 700h444v-100h-337v-187h284v-100h-284v-313h-107v700z" />
    <glyph glyph-name="G" unicode="G" horiz-adv-x="660" 
d="M304 706h42q225 0 243 -241h-105q-5 78 -37 109.5t-101 31.5h-42q-73 0 -107 -34t-34 -116v-219q0 -69 36.5 -107t104.5 -38h42q72 0 106.5 33t34.5 113v44h-138v100h244v-144q0 -125 -67 -185.5t-180 -60.5h-42q-116 0 -182 68t-66 177v219q0 128 65.5 189t182.5 61z
" />
    <glyph glyph-name="H" unicode="H" horiz-adv-x="674" 
d="M489 700h107v-700h-107v301h-304v-301h-107v700h107v-300h304v300z" />
    <glyph glyph-name="I" unicode="I" horiz-adv-x="262" 
d="M78 700h107v-700h-107v700z" />
    <glyph glyph-name="J" unicode="J" horiz-adv-x="322" 
d="M138 700h106v-511q0 -39 -4.5 -69t-12.5 -50t-21.5 -34.5t-26.5 -22.5t-33 -12.5t-37 -5.5t-41 -1h-55v99h55q26 0 37 1.5t20 10t11 23.5t2 46v15v511z" />
    <glyph glyph-name="K" unicode="K" horiz-adv-x="604" 
d="M444 700h131l-266 -352l279 -348h-132l-239 297h-32v-297h-107v700h107v-303h31z" />
    <glyph glyph-name="L" unicode="L" horiz-adv-x="508" 
d="M78 700h107v-600h307v-100h-414v700z" />
    <glyph glyph-name="M" unicode="M" horiz-adv-x="768" 
d="M598 700h92v-700h-106v470l-203 -345l-202 344v-469h-107v700h92l217 -369z" />
    <glyph glyph-name="N" unicode="N" horiz-adv-x="669" 
d="M491 700h107v-700h-88l-331 493v-493h-107v700h93l326 -486v486z" />
    <glyph glyph-name="O" unicode="O" 
d="M304 706h42q116 0 181.5 -61t65.5 -189v-218q0 -109 -66 -177t-181 -68h-42q-116 0 -182 68t-66 177v218q0 128 65.5 189t182.5 61zM487 238v218q0 82 -34.5 116t-106.5 34h-42q-73 0 -107 -34t-34 -116v-218q0 -69 36.5 -107t104.5 -38h42q68 0 104.5 38t36.5 107z" />
    <glyph glyph-name="P" unicode="P" horiz-adv-x="595" 
d="M78 700h278q83 0 141 -57t58 -138q0 -80 -58 -137.5t-141 -57.5h-171v-310h-107v700zM185 410h171q38 0 65.5 28t27.5 67q0 40 -27.5 67.5t-65.5 27.5h-171v-190z" />
    <glyph glyph-name="Q" unicode="Q" horiz-adv-x="658" 
d="M304 708h42q116 0 181.5 -61t65.5 -189v-218q0 -129 -89 -194l96 -96l-73 -73l-125 124q-38 -6 -56 -6h-42q-116 0 -182 68t-66 177v218q0 128 65.5 189t182.5 61zM487 240v218q0 83 -34.5 117t-106.5 34h-42q-73 0 -107 -34t-34 -117v-218q0 -68 36.5 -106.5
t104.5 -38.5h42q68 0 104.5 38.5t36.5 106.5z" />
    <glyph glyph-name="R" unicode="R" horiz-adv-x="616" 
d="M78 700h278q83 0 141 -57t58 -138q0 -66 -41 -118t-105 -68l-7 -1l173 -318h-119l-169 310h-102v-310h-107v700zM185 410h171q38 0 65.5 28t27.5 67q0 40 -27.5 67.5t-65.5 27.5h-171v-190z" />
    <glyph glyph-name="S" unicode="S" horiz-adv-x="537" 
d="M272 700h211v-100h-211q-69 0 -97.5 -19.5t-28.5 -69.5q0 -16 3 -28t7 -21t15 -16t19 -11.5t26.5 -9.5t31 -8t38.5 -8q40 -8 68 -16t57.5 -22.5t47 -33.5t29 -49t11.5 -70q0 -219 -227 -219h-233v100h233q66 0 93 26.5t27 93.5q0 43 -25 60.5t-102 32.5q-28 5 -44.5 8.5
t-43.5 12t-43.5 17t-36.5 24t-31 34t-19 45t-8 58.5q0 99 63 144t170 45z" />
    <glyph glyph-name="T" unicode="T" horiz-adv-x="551" 
d="M13 700h526v-96h-208v-604h-107v604h-211v96z" />
    <glyph glyph-name="U" unicode="U" horiz-adv-x="651" 
d="M474 700h106v-492q0 -96 -51.5 -156t-140.5 -60h-111q-84 0 -141.5 58t-57.5 158v492h107v-492q0 -56 26 -86.5t66 -30.5h111q40 0 63 30.5t23 86.5v492z" />
    <glyph glyph-name="V" unicode="V" horiz-adv-x="603" 
d="M475 700h112l-240 -700h-90l-241 700h112l173 -503h2z" />
    <glyph glyph-name="W" unicode="W" horiz-adv-x="742" 
d="M619 700h108l-134 -700h-90l-132 276l-132 -276h-89l-134 700h109l95 -496l113 235h78l112 -236z" />
    <glyph glyph-name="X" unicode="X" horiz-adv-x="603" 
d="M463 700h124l-224 -350l224 -350h-124l-162 253l-161 -253h-124l223 350l-223 350h124l161 -253z" />
    <glyph glyph-name="Y" unicode="Y" horiz-adv-x="601" 
d="M464 700h122l-232 -385v-315h-106v315l-232 385h123l163 -270z" />
    <glyph glyph-name="Z" unicode="Z" horiz-adv-x="553" 
d="M56 700h451v-68l-324 -532h331v-100h-475v68l323 532h-306v100z" />
    <glyph glyph-name="bracketleft" unicode="[" horiz-adv-x="308" 
d="M34 727h241v-100h-134v-665h134v-99h-241v864z" />
    <glyph glyph-name="backslash" unicode="\" horiz-adv-x="495" 
d="M34 700h116l312 -700h-117z" />
    <glyph glyph-name="bracketright" unicode="]" horiz-adv-x="308" 
d="M34 727h241v-864h-241v99h134v665h-134v100z" />
    <glyph glyph-name="asciicircum" unicode="^" horiz-adv-x="655" 
d="M288 713h79l254 -388h-125l-158 243h-19l-160 -243h-125z" />
    <glyph glyph-name="underscore" unicode="_" horiz-adv-x="535" 
d="M34 -42h468v-99h-468v99z" />
    <glyph glyph-name="grave" unicode="`" horiz-adv-x="310" 
d="M34 686l27 75l216 -98l-28 -73z" />
    <glyph glyph-name="a" unicode="a" horiz-adv-x="450" 
d="M55 500h204q66 0 108 -44.5t42 -110.5v-345h-75l-4 38q-10 -15 -31.5 -26.5t-46.5 -11.5h-75q-65 0 -110.5 44.5t-45.5 108t45.5 109t110.5 45.5h131v38q0 28 -13.5 44.5t-35.5 16.5h-204v94zM308 148v65h-131q-23 0 -39 -17.5t-16 -42.5t16 -42t39 -17h75q22 0 39 16.5
t17 37.5z" />
    <glyph glyph-name="b" unicode="b" horiz-adv-x="468" 
d="M48 700h101v-236q10 17 32.5 29.5t51.5 12.5h40q70 0 119.5 -50t49.5 -126v-134q0 -86 -48 -141t-123 -55h-65q-24 0 -46 11.5t-32 26.5l-4 -38h-76v700zM341 196v134q0 36 -20 59t-48 23h-56q-26 0 -47 -22.5t-21 -54.5v-186q1 -23 18 -39t39 -16h65q30 0 50 27t20 75z
" />
    <glyph glyph-name="c" unicode="c" horiz-adv-x="405" 
d="M231 508h152v-94h-152q-55 0 -79 -27t-24 -87v-92q0 -65 24 -92.5t79 -27.5h152v-93h-152q-99 0 -151.5 54.5t-52.5 158.5v92q0 99 52.5 153.5t151.5 54.5z" />
    <glyph glyph-name="d" unicode="d" horiz-adv-x="472" 
d="M320 700h101v-700h-76l-4 38q-9 -15 -31.5 -26.5t-46.5 -11.5h-65q-75 0 -123 55t-48 141v134q0 76 49.5 126t119.5 50h40q29 0 51.5 -12.5t32.5 -29.5v236zM320 149v186q0 32 -21 54.5t-47 22.5h-56q-28 0 -48 -23t-20 -59v-134q0 -48 20 -75t50 -27h65q22 0 39 16
t18 39z" />
    <glyph glyph-name="e" unicode="e" horiz-adv-x="445" 
d="M27 239v71q0 92 56 145t141 53q95 0 147.5 -52t52.5 -146v-102h-296v-4q0 -55 21 -82t71 -27h191v-94h-191q-107 0 -150 60t-43 178zM324 298v16q-1 52 -25.5 76t-74.5 24q-43 0 -69 -25.5t-27 -74.5v-16h196z" />
    <glyph glyph-name="f" unicode="f" horiz-adv-x="332" 
d="M81 500v17q2 50 20.5 88t50.5 59.5t69.5 32t82.5 10.5q7 0 15 -1v-89q-61 1 -98 -22.5t-37 -77.5v-17h135v-90h-141v-410h-101v410h-61v90h65z" />
    <glyph glyph-name="g" unicode="g" horiz-adv-x="478" 
d="M353 502h76v-478q0 -105 -44 -161.5t-149 -56.5h-178v95h178q56 0 74 21.5t18 88.5v31q-10 -17 -32.5 -29.5t-52.5 -13.5h-39q-70 -1 -119.5 49.5t-49.5 127.5v129q0 86 48 141.5t123 55.5h64q24 0 46.5 -12t32.5 -27zM328 171v181q-2 23 -18.5 39.5t-38.5 16.5h-66
q-30 0 -50 -27.5t-20 -74.5v-130q0 -36 20.5 -59t48.5 -23h56q26 0 47 22.5t21 54.5z" />
    <glyph glyph-name="h" unicode="h" horiz-adv-x="488" 
d="M53 700h101v-236q25 41 84 41h40q70 0 119.5 -49.5t49.5 -126.5v-329h-101v329q0 37 -20 59.5t-48 22.5h-56q-26 0 -47 -22.5t-21 -54.5v-334h-101v700z" />
    <glyph glyph-name="i" unicode="i" horiz-adv-x="202" 
d="M53 667h101v-111h-101v111zM53 500h101v-500h-101v500z" />
    <glyph glyph-name="j" unicode="j" horiz-adv-x="200" 
d="M52 668h100v-112h-100v112zM52 500h100v-423q0 -85 -46 -155l-80 -111l-82 53l80 112q16 24 22 46t6 55v423z" />
    <glyph glyph-name="k" unicode="k" horiz-adv-x="489" 
d="M52 700h101v-382h34l147 182h128l-187 -230l202 -270h-122l-169 225h-33v-225h-101v700z" />
    <glyph glyph-name="l" unicode="l" horiz-adv-x="202" 
d="M53 700h101v-700h-101v700z" />
    <glyph glyph-name="m" unicode="m" horiz-adv-x="736" 
d="M490 506h36q70 0 119 -49.5t49 -126.5v-330h-100v330q0 37 -20 59.5t-48 22.5h-36q-28 0 -48 -21t-20 -55v-336h-101v335q0 32 -21 54.5t-47 22.5h-36q-27 0 -47.5 -20t-20.5 -52v-340h-100v501h76l3 -37q11 17 36.5 29.5t56.5 12.5h32q72 0 118 -55q45 55 119 55z" />
    <glyph glyph-name="n" unicode="n" horiz-adv-x="485" 
d="M217 506h58q69 0 118.5 -49.5t49.5 -126.5v-329h-100v329q0 37 -20 59.5t-48 22.5h-58q-27 0 -47.5 -21t-20.5 -51v-339h-101v500h76l3 -37q11 17 35 29.5t55 12.5z" />
    <glyph glyph-name="o" unicode="o" horiz-adv-x="463" 
d="M204 507h56q76 0 126.5 -59t50.5 -135v-135q0 -77 -50 -131t-127 -54h-56q-77 0 -127 54t-50 131v135q0 76 50.5 135t126.5 59zM336 178v135q0 40 -23 70t-53 30h-56q-30 0 -53 -30t-23 -70v-135q0 -40 22 -66t54 -26h56q32 0 54 26t22 66z" />
    <glyph glyph-name="p" unicode="p" horiz-adv-x="472" 
d="M210 507h65q75 0 123 -55t48 -141v-136q0 -77 -49.5 -127t-119.5 -50h-40q-29 0 -51.5 12.5t-32.5 29.5v-222h-101v689h76l4 -38q9 14 31.5 26t46.5 12zM345 175v136q0 47 -20 74.5t-50 27.5h-65q-22 0 -39 -16t-18 -39v-188q0 -33 21 -55.5t47 -22.5h56q28 0 48 23
t20 60z" />
    <glyph glyph-name="q" unicode="q" horiz-adv-x="472" 
d="M345 506h76v-688h-101v224q-10 -17 -32.5 -29.5t-51.5 -12.5h-40q-70 0 -119.5 50t-49.5 127v134q0 85 48 140t123 55h65q24 0 46.5 -11.5t31.5 -26.5zM320 172v185q-1 23 -18 39t-39 16h-65q-30 0 -50 -27t-20 -74v-134q0 -37 20 -60t48 -23h56q26 0 47 22.5t21 55.5z
" />
    <glyph glyph-name="r" unicode="r" horiz-adv-x="344" 
d="M251 508h80v-94h-80q-51 0 -76.5 -26.5t-25.5 -75.5v-311h-101v501h76l5 -51q32 57 122 57z" />
    <glyph glyph-name="s" unicode="s" horiz-adv-x="436" 
d="M207 506h189v-94h-189q-80 0 -80 -54q0 -23 20 -35t61 -16l21 -2.5t17 -2.5q79 -8 122 -46.5t43 -102.5q0 -82 -53.5 -120.5t-140.5 -38.5h-177v95h177q51 0 72.5 14.5t21.5 49.5q0 25 -16.5 38t-58.5 18l-38 4q-77 8 -124.5 43t-47.5 102q0 39 15.5 68.5t42 46.5
t57.5 25t66 8z" />
    <glyph glyph-name="t" unicode="t" horiz-adv-x="357" 
d="M85 609h100v-109h148v-93h-148v-241q0 -45 13.5 -62.5t49.5 -17.5h85v-94h-85q-84 0 -123.5 46.5t-39.5 127.5v241h-72v93h72v109z" />
    <glyph glyph-name="u" unicode="u" horiz-adv-x="479" 
d="M337 500h100v-502h-76l-3 38q-10 -17 -34 -29.5t-55 -12.5h-58q-70 0 -119.5 49.5t-49.5 126.5v330h101v-330q0 -37 20 -60t48 -23h58q26 0 47 21t21 52v340z" />
    <glyph glyph-name="v" unicode="v" horiz-adv-x="501" 
d="M383 500h105l-184 -500h-108l-183 500h106l131 -371z" />
    <glyph glyph-name="w" unicode="w" horiz-adv-x="714" 
d="M597 500h105l-164 -500h-85l-96 302l-96 -302h-85l-163 500h105l101 -305l97 305h83l98 -305z" />
    <glyph glyph-name="x" unicode="x" horiz-adv-x="481" 
d="M346 500h117l-163 -246l170 -254h-119l-110 166l-109 -166h-119l169 254l-162 246h117l104 -157z" />
    <glyph glyph-name="y" unicode="y" horiz-adv-x="475" 
d="M357 500h106l-252 -693h-106l80 223l-172 470h105l120 -326z" />
    <glyph glyph-name="z" unicode="z" horiz-adv-x="422" 
d="M31 500h363v-65l-230 -341h232v-94h-370v65l229 341h-224v94z" />
    <glyph glyph-name="braceleft" unicode="{" horiz-adv-x="423" 
d="M148 727h241v-100h-135v-196q0 -87 -58 -136q58 -55 58 -136v-197h135v-99h-241v296q0 38 -19.5 61t-50.5 25h-44v100h46q31 1 49.5 24t18.5 62v296z" />
    <glyph glyph-name="bar" unicode="|" horiz-adv-x="174" 
d="M34 739h107v-827h-107v827z" />
    <glyph glyph-name="braceright" unicode="}" horiz-adv-x="423" 
d="M34 727h241v-296q0 -39 19 -62t50 -24h45v-100h-44q-31 -2 -50.5 -25t-19.5 -61v-296h-241v99h135v197q0 81 59 136q-59 49 -59 136v196h-135v100z" />
    <glyph glyph-name="asciitilde" unicode="~" horiz-adv-x="589" 
d="M131 120l-93 6q-3 16 -3 33q0 65 48.5 112t115.5 47q44 0 77 -19.5t64 -59.5q24 -32 52 -32q27 0 41 21t21 82l99 -14q2 -13 2 -26q0 -66 -47.5 -114t-115.5 -48q-43 0 -82.5 23t-60.5 57q-20 31 -50 31q-27 0 -41.5 -21t-26.5 -78z" />
    <glyph glyph-name="exclamdown" unicode="&#xa1;" horiz-adv-x="174" 
d="M34 533h107v-118h-107v118zM34 358h107v-525h-107v525z" />
    <glyph glyph-name="cent" unicode="&#xa2;" horiz-adv-x="423" 
d="M216 554h86v-46h88v-95h-88v-323h88v-94h-88v-48h-86v49q-89 6 -135.5 60.5t-46.5 152.5v90q0 93 46.5 147t135.5 60v47zM216 91v322q-43 -5 -62.5 -32t-19.5 -81v-90q0 -58 19.5 -86t62.5 -33z" />
    <glyph glyph-name="sterling" unicode="&#xa3;" horiz-adv-x="478" 
d="M260 700h147v-100h-147q-34 0 -45 -17.5t-11 -80.5v-62h166v-100h-166v-240h241v-100h-411v100h63v240h-63v100h63v62q0 110 41.5 154t121.5 44z" />
    <glyph glyph-name="currency" unicode="&#xa4;" horiz-adv-x="491" 
d="M339 557l47 48l68 -68l-39 -38q20 -32 20 -74v-55q0 -37 -21 -69l44 -43l-70 -70l-50 49q-30 -12 -63 -12h-56q-31 0 -62 12l-45 -48l-76 69l40 42q-25 32 -25 70v55q0 41 26 75l-37 36l69 69l46 -47q33 13 64 13h56q33 0 64 -14zM335 370v55q0 23 -17 37.5t-43 14.5h-56
q-27 0 -47.5 -15.5t-20.5 -36.5v-55q0 -20 20.5 -35.5t47.5 -15.5h56q26 0 43 14.5t17 36.5z" />
    <glyph glyph-name="yen" unicode="&#xa5;" horiz-adv-x="641" 
d="M485 700h122l-191 -316h160v-100h-201v-56h201v-100h-201v-128h-106v128h-212v100h212v55h-212v101h171l-191 316h123l163 -270z" />
    <glyph glyph-name="brokenbar" unicode="&#xa6;" horiz-adv-x="174" 
d="M34 750h107v-398h-107v398zM34 310h107v-399h-107v399z" />
    <glyph glyph-name="section" unicode="&#xa7;" horiz-adv-x="452" 
d="M215 607h189v-94h-189q-80 0 -81 -54q0 -23 20 -35t62 -17q8 0 21 -2t17 -2q79 -8 122 -46.5t43 -102.5q0 -48 -22 -82q22 -32 22 -75q0 -81 -53 -118.5t-141 -37.5h-177v94h177q52 0 73 13.5t21 48.5q0 26 -16.5 39t-58.5 17l-38 4q-77 9 -124.5 43.5t-47.5 101.5
q0 48 25 81q-25 31 -25 76q0 39 15.5 68.5t41.5 46.5t57 25t67 8zM244 310l-38 4q-47 5 -62 12q-9 -12 -9 -24v-5q5 -38 81 -46q4 0 19 -2t19 -2q39 -5 57 -14q8 8 8 21q0 27 -17 39t-58 17z" />
    <glyph glyph-name="dieresis" unicode="&#xa8;" horiz-adv-x="289" 
d="M34 748h86v-125h-86v125zM169 748h86v-125h-86v125z" />
    <glyph glyph-name="copyright" unicode="&#xa9;" horiz-adv-x="651" 
d="M325 740q125 0 208.5 -87t83.5 -211t-83.5 -211t-208.5 -87t-208 87t-83 211t83 211t208 87zM325 661q-87 0 -146 -63t-59 -156t59 -156t146 -63t146.5 63.5t59.5 155.5t-59.5 155.5t-146.5 63.5zM317 599h88v-66h-88q-27 0 -37 -21t-10 -71q0 -49 10 -69.5t37 -20.5h88
v-66h-88q-35 0 -59.5 12t-37.5 34.5t-18 49t-5 60.5t5 60t17 49.5t37 36t61 12.5z" />
    <glyph glyph-name="ordfeminine" unicode="&#xaa;" horiz-adv-x="341" 
d="M55 693h147q47 0 76.5 -31t29.5 -76v-242h-61l-3 24q-7 -9 -25 -16.5t-40 -7.5h-34q-47 0 -79 31.5t-32 77.5t32 77t79 31h84v25q0 16 -7.5 25.5t-19.5 9.5h-147v72zM229 454v35h-84q-13 0 -22.5 -10t-9.5 -26.5t9.5 -26.5t22.5 -10h50q14 0 24 11t10 27z" />
    <glyph glyph-name="guillemotleft" unicode="&#xab;" horiz-adv-x="489" 
d="M34 305l204 160v-126l-77 -61l77 -61v-126l-204 160v54zM252 305l203 160v-126l-76 -61l76 -61v-126l-203 160v54z" />
    <glyph glyph-name="logicalnot" unicode="&#xac;" horiz-adv-x="880" 
 />
    <glyph glyph-name="registered" unicode="&#xae;" horiz-adv-x="651" 
d="M325 740q125 0 208.5 -87t83.5 -211t-83.5 -211t-208.5 -87t-208 87t-83 211t83 211t208 87zM325 661q-87 0 -146 -63t-59 -156t59 -156t146 -63t146.5 63.5t59.5 155.5t-59.5 155.5t-146.5 63.5zM212 598h102q57 0 86.5 -21t29.5 -74q0 -69 -46 -87l62 -121h-75l-55 110
h-37v-110h-67v303zM279 466h50q23 0 28.5 6.5t5.5 30.5q0 22 -8.5 28t-40.5 6h-35v-71z" />
    <glyph glyph-name="macron" unicode="&#xaf;" horiz-adv-x="381" 
d="M34 718h313v-78h-313v78z" />
    <glyph glyph-name="degree" unicode="&#xb0;" horiz-adv-x="377" 
d="M189.5 728q68.5 0 111.5 -42t43 -108.5t-43 -108.5t-111.5 -42t-112 42t-43.5 108.5t43.5 108.5t112 42zM189.5 657q-34.5 0 -55.5 -21.5t-21 -58.5t21 -58t55.5 -21t55 21t20.5 58t-20.5 58.5t-55 21.5z" />
    <glyph glyph-name="plusminus" unicode="&#xb1;" horiz-adv-x="586" 
d="M240 591h106v-157h207v-100h-207v-157h-106v157h-206v100h206v157zM34 100h519v-100h-519v100z" />
    <glyph glyph-name="twosuperior" unicode="&#xb2;" horiz-adv-x="327" 
d="M34 686h123q52 0 87.5 -28.5t35.5 -79.5v-14q0 -37 -16 -64.5t-45 -55.5l-60 -57h135v-71h-260v60l129 121q20 19 29.5 33.5t9.5 33.5v14q0 17 -13 27t-32 10h-123v71z" />
    <glyph glyph-name="threesuperior" unicode="&#xb3;" horiz-adv-x="319" 
d="M34 686h141q48 0 79 -31.5t31 -79.5q0 -45 -29 -73q28 -31 28 -78q0 -48 -30.5 -79t-78.5 -31h-141v72h141q14 0 22 10t8 28q0 20 -8.5 32.5t-20.5 11.5h-103v72h102q31 0 31 35q0 18 -8.5 28.5t-22.5 10.5h-141v72z" />
    <glyph glyph-name="acute" unicode="&#xb4;" horiz-adv-x="310" 
d="M34 664l216 98l27 -75l-215 -96z" />
    <glyph glyph-name="paragraph" unicode="&#xb6;" horiz-adv-x="578" 
d="M213 623h332v-100h-75v-688h-92v688h-54v-688h-92v397h-21q-74 0 -125.5 50.5t-51.5 133.5q0 25 5.5 51.5t19 54.5t33 50t51 36.5t70.5 14.5z" />
    <glyph glyph-name="periodcentered" unicode="&#xb7;" horiz-adv-x="174" 
d="M34 391h107v-156h-107v156z" />
    <glyph glyph-name="cedilla" unicode="&#xb8;" horiz-adv-x="227" 
d="M68 36h70v-74q55 -13 55 -78q0 -45 -21 -66.5t-67 -21.5h-71v67h71q22 0 22 21q0 19 -23 19h-36v133z" />
    <glyph glyph-name="onesuperior" unicode="&#xb9;" horiz-adv-x="249" 
d="M152 686h64v-371h-80v269l-56 -37l-46 59z" />
    <glyph glyph-name="ordmasculine" unicode="&#xba;" horiz-adv-x="367" 
d="M186 692q73 0 110.5 -40t37.5 -129q0 -91 -37 -132t-111 -41q-75 0 -113.5 41t-38.5 132q0 89 38.5 129t113.5 40zM186 620q-41 0 -57 -19.5t-16 -77.5q0 -60 16 -80.5t57 -20.5q38 0 53.5 21t15.5 80q0 58 -15 77.5t-54 19.5z" />
    <glyph glyph-name="guillemotright" unicode="&#xbb;" horiz-adv-x="489" 
d="M34 339v126l204 -160v-54l-204 -160v126l77 61zM252 339v126l203 -160v-54l-203 -160v126l76 61z" />
    <glyph glyph-name="onequarter" unicode="&#xbc;" horiz-adv-x="679" 
d="M446 699h88l-320 -712h-88zM149 686h65v-371h-80v270l-57 -39l-43 61zM353 113l103 252l75 -25l-84 -203h67l15 86h65v-86h52v-71h-52v-66h-80v66h-161v47z" />
    <glyph glyph-name="onehalf" unicode="&#xbd;" horiz-adv-x="739" 
d="M446 699h88l-320 -712h-88zM150 686h64v-371h-80v270l-57 -39l-43 61zM446 370h122q53 0 88 -28.5t35 -79.5v-14q0 -63 -61 -120l-60 -56h136v-73h-260v61l129 121q20 19 29 33.5t9 33.5v14q0 17 -12.5 27t-32.5 10h-122v71z" />
    <glyph glyph-name="threequarters" unicode="&#xbe;" horiz-adv-x="720" 
d="M487 699h87l-319 -712h-88zM34 686h141q48 0 79 -31.5t31 -79.5q0 -45 -29 -73q28 -31 28 -78q0 -48 -30.5 -79t-78.5 -31h-141v72h141q14 0 22 10t8 28q0 20 -8.5 32.5t-20.5 11.5h-103v72h102q31 0 31 35q0 18 -8.5 28.5t-22.5 10.5h-141v72zM394 113l103 253l75 -26
l-84 -203h67l15 86h65v-86h51v-71h-51v-66h-80v66h-161v47z" />
    <glyph glyph-name="questiondown" unicode="&#xbf;" horiz-adv-x="448" 
d="M207 535h106v-143h-106v143zM207 345h106v-59q0 -38 -16 -67.5t-50 -59.5l-60 -52q-46 -41 -46 -86q0 -44 25.5 -65.5t79.5 -21.5h169v-99h-169q-98 0 -155 48.5t-57 137.5q0 88 83 160l48 43q25 22 33.5 34.5t8.5 27.5v59z" />
    <glyph glyph-name="Agrave" unicode="&#xc0;" horiz-adv-x="620" 
d="M190 886l27 75l215 -98l-28 -73zM264 700h91l250 -700h-112l-62 173h-243l-60 -173h-112zM395 273l-85 236h-3l-83 -236h171z" />
    <glyph glyph-name="Aacute" unicode="&#xc1;" horiz-adv-x="620" 
d="M189 864l216 98l27 -75l-215 -96zM264 700h91l250 -700h-112l-62 173h-243l-60 -173h-112zM395 273l-85 236h-3l-83 -236h171z" />
    <glyph glyph-name="Acircumflex" unicode="&#xc2;" horiz-adv-x="620" 
d="M284 948h54l144 -173h-110l-61 100l-62 -100h-110zM264 700h91l250 -700h-112l-62 173h-243l-60 -173h-112zM395 273l-85 236h-3l-83 -236h171z" />
    <glyph glyph-name="Atilde" unicode="&#xc3;" horiz-adv-x="620" 
d="M185 838l-37 59q1 0 18.5 15.5t37 25t41.5 9.5q49 0 98 -40q22 -17 37 -17q18 0 63 36l48 -52q-34 -34 -59 -48.5t-52 -14.5q-48 0 -92 35l-3 3q-25 20 -36 20h-4q-14 -2 -60 -31zM264 700h91l250 -700h-112l-62 173h-243l-60 -173h-112zM395 273l-85 236h-3l-83 -236
h171z" />
    <glyph glyph-name="Adieresis" unicode="&#xc4;" horiz-adv-x="620" 
d="M200 948h86v-125h-86v125zM335 948h86v-125h-86v125zM264 700h91l250 -700h-112l-62 173h-243l-60 -173h-112zM395 273l-85 236h-3l-83 -236h171z" />
    <glyph glyph-name="Aring" unicode="&#xc5;" horiz-adv-x="620" 
d="M311 982q49 0 83 -34t34 -80q0 -47 -34 -81t-83 -34q-50 0 -84 34t-34 81q0 46 34 80t84 34zM311 903q-13 0 -22.5 -10t-9.5 -25q0 -16 9.5 -26t22.5 -10t22 10t9 26q0 15 -9.5 25t-21.5 10zM264 700h91l250 -700h-112l-62 173h-243l-60 -173h-112zM395 273l-85 236h-3
l-83 -236h171z" />
    <glyph glyph-name="AE" unicode="&#xc6;" horiz-adv-x="790" 
d="M266 700h487v-100h-337v-187h284v-100h-284v-213h337v-100h-444v173h-119l-60 -173h-112zM309 273v233l-83 -233h83z" />
    <glyph glyph-name="Ccedilla" unicode="&#xc7;" horiz-adv-x="630" 
d="M304 707h42q226 0 244 -242h-106q-5 78 -37 110t-101 32h-42q-73 0 -107 -34t-34 -116v-220q0 -69 36.5 -107t104.5 -38h42q126 0 135 154h107q-8 -114 -66 -182.5t-168 -71.5h-11v-25q55 -14 55 -79q0 -45 -21 -66.5t-68 -21.5h-70v67h70q23 0 23 21q0 19 -23 19h-37v86
q-101 10 -158.5 76.5t-57.5 167.5v220q0 128 65.5 189t182.5 61z" />
    <glyph glyph-name="Egrave" unicode="&#xc8;" horiz-adv-x="561" 
d="M156 886l26 75l216 -98l-28 -73zM78 700h444v-100h-337v-187h284v-100h-284v-213h337v-100h-444v700z" />
    <glyph glyph-name="Eacute" unicode="&#xc9;" horiz-adv-x="561" 
d="M155 864l216 98l27 -75l-215 -96zM78 700h444v-100h-337v-187h284v-100h-284v-213h337v-100h-444v700z" />
    <glyph glyph-name="Ecircumflex" unicode="&#xca;" horiz-adv-x="561" 
d="M250 948h53l145 -173h-110l-61 100l-62 -100h-110zM78 700h444v-100h-337v-187h284v-100h-284v-213h337v-100h-444v700z" />
    <glyph glyph-name="Edieresis" unicode="&#xcb;" horiz-adv-x="561" 
d="M166 948h86v-125h-86v125zM301 948h86v-125h-86v125zM78 700h444v-100h-337v-187h284v-100h-284v-213h337v-100h-444v700z" />
    <glyph glyph-name="Igrave" unicode="&#xcc;" horiz-adv-x="262" 
d="M11 886l27 75l215 -98l-28 -73zM78 700h107v-700h-107v700z" />
    <glyph glyph-name="Iacute" unicode="&#xcd;" horiz-adv-x="262" 
d="M11 864l215 98l27 -75l-214 -96zM78 700h107v-700h-107v700z" />
    <glyph glyph-name="Icircumflex" unicode="&#xce;" horiz-adv-x="262" 
d="M105 948h54l145 -173h-110l-62 100l-62 -100h-109zM78 700h107v-700h-107v700z" />
    <glyph glyph-name="Idieresis" unicode="&#xcf;" horiz-adv-x="262" 
d="M22 948h86v-125h-86v125zM157 948h86v-125h-86v125zM78 700h107v-700h-107v700z" />
    <glyph glyph-name="Eth" unicode="&#xd0;" horiz-adv-x="673" 
d="M13 293v99h107v308h250q116 0 181.5 -61t65.5 -189v-205q0 -109 -65.5 -177t-181.5 -68h-250v293h-107zM226 293v-193h144q68 0 104.5 38t36.5 107v205q0 82 -34 116t-107 34h-144v-208h128v-99h-128z" />
    <glyph glyph-name="Ntilde" unicode="&#xd1;" horiz-adv-x="669" 
d="M210 838l-37 59l18 15.5t37.5 25t41.5 9.5q49 0 97 -40q22 -17 38 -17q18 0 62 36l48 -52q-34 -34 -59 -48.5t-51 -14.5q-49 0 -92 35q-2 1 -4 3q-24 20 -36 20h-3q-14 -2 -60 -31zM491 700h107v-700h-88l-331 493v-493h-107v700h93l326 -486v486z" />
    <glyph glyph-name="Ograve" unicode="&#xd2;" 
d="M204 886l26 75l216 -98l-28 -73zM304 706h42q116 0 181.5 -61t65.5 -189v-218q0 -109 -66 -177t-181 -68h-42q-116 0 -182 68t-66 177v218q0 128 65.5 189t182.5 61zM487 238v218q0 82 -34.5 116t-106.5 34h-42q-73 0 -107 -34t-34 -116v-218q0 -69 36.5 -107t104.5 -38
h42q68 0 104.5 38t36.5 107z" />
    <glyph glyph-name="Oacute" unicode="&#xd3;" 
d="M203 864l216 98l27 -75l-215 -96zM304 706h42q116 0 181.5 -61t65.5 -189v-218q0 -109 -66 -177t-181 -68h-42q-116 0 -182 68t-66 177v218q0 128 65.5 189t182.5 61zM487 238v218q0 82 -34.5 116t-106.5 34h-42q-73 0 -107 -34t-34 -116v-218q0 -69 36.5 -107t104.5 -38
h42q68 0 104.5 38t36.5 107z" />
    <glyph glyph-name="Ocircumflex" unicode="&#xd4;" 
d="M298 948h53l145 -173h-110l-61 100l-62 -100h-110zM304 706h42q116 0 181.5 -61t65.5 -189v-218q0 -109 -66 -177t-181 -68h-42q-116 0 -182 68t-66 177v218q0 128 65.5 189t182.5 61zM487 238l-1 218q0 82 -34 116t-106 34h-42q-73 0 -107 -34t-34 -116v-218
q0 -69 36.5 -107t104.5 -38h42q68 0 104.5 38t36.5 107z" />
    <glyph glyph-name="Otilde" unicode="&#xd5;" 
d="M199 838l-37 59l18 15.5t37.5 25t41.5 9.5q49 0 98 -40q22 -17 37 -17q18 0 62 36l49 -52q-35 -34 -60 -48.5t-51 -14.5q-48 0 -92 35q-1 1 -4 3q-24 20 -35 20h-4q-14 -2 -60 -31zM304 706h42q116 0 181.5 -61t65.5 -189v-218q0 -109 -66 -177t-181 -68h-42
q-116 0 -182 68t-66 177v218q0 128 65.5 189t182.5 61zM487 238v218q0 82 -34.5 116t-106.5 34h-42q-73 0 -107 -34t-34 -116v-218q0 -69 36.5 -107t104.5 -38h42q68 0 104.5 38t36.5 107z" />
    <glyph glyph-name="Odieresis" unicode="&#xd6;" 
d="M214 948h86v-125h-86v125zM349 948h86v-125h-86v125zM304 706h42q116 0 181.5 -61t65.5 -189v-218q0 -109 -66 -177t-181 -68h-42q-116 0 -182 68t-66 177v218q0 128 65.5 189t182.5 61zM487 238l-1 218q0 82 -34 116t-106 34h-42q-73 0 -107 -34t-34 -116v-218
q0 -69 36.5 -107t104.5 -38h42q68 0 104.5 38t36.5 107z" />
    <glyph glyph-name="multiply" unicode="&#xd7;" horiz-adv-x="505" 
d="M251 324l145 144l76 -69l-148 -148l148 -148l-76 -69l-145 144l-147 -147l-70 76l145 144l-145 144l70 76z" />
    <glyph glyph-name="Oslash" unicode="&#xd8;" 
d="M444 750h116l-44 -98q77 -62 77 -198v-215q0 -109 -66 -177t-181 -68h-42q-39 0 -76 10l-24 -54h-117l46 103q-77 66 -77 186v215q0 128 65.5 189.5t182.5 61.5h42q40 0 74 -8zM185 169l193 432q-14 4 -32 4h-42q-73 0 -107 -34t-34 -117v-215q0 -44 22 -70zM487 239v215
q0 53 -23 80l-193 -434q14 -6 33 -6h42q68 0 104.5 38.5t36.5 106.5z" />
    <glyph glyph-name="Ugrave" unicode="&#xd9;" horiz-adv-x="651" 
d="M204 886l27 75l215 -98l-28 -73zM474 700h106v-492q0 -96 -51.5 -156t-140.5 -60h-111q-84 0 -141.5 58t-57.5 158v492h107v-492q0 -56 26 -86.5t66 -30.5h111q40 0 63 30.5t23 86.5v492z" />
    <glyph glyph-name="Uacute" unicode="&#xda;" horiz-adv-x="651" 
d="M203 864l216 98l27 -75l-215 -96zM474 700h106v-492q0 -96 -51.5 -156t-140.5 -60h-111q-84 0 -141.5 58t-57.5 158v492h107v-492q0 -56 26 -86.5t66 -30.5h111q40 0 63 30.5t23 86.5v492z" />
    <glyph glyph-name="Ucircumflex" unicode="&#xdb;" horiz-adv-x="651" 
d="M298 948h54l144 -173h-110l-61 100l-62 -100h-110zM474 700h106v-492q0 -96 -51.5 -156t-140.5 -60h-111q-84 0 -141.5 58t-57.5 158v492h107v-492q0 -56 26 -86.5t66 -30.5h111q40 0 63 30.5t23 86.5v492z" />
    <glyph glyph-name="Udieresis" unicode="&#xdc;" horiz-adv-x="651" 
d="M214 948h86v-125h-86v125zM349 948h86v-125h-86v125zM474 700h106v-492q0 -96 -51.5 -156t-140.5 -60h-111q-84 0 -141.5 58t-57.5 158v492h107v-492q0 -56 26 -86.5t66 -30.5h111q40 0 63 30.5t23 86.5v492z" />
    <glyph glyph-name="Yacute" unicode="&#xdd;" horiz-adv-x="601" 
d="M180 864l216 98l27 -75l-215 -96zM464 700h122l-232 -385v-315h-106v315l-232 385h123l163 -270z" />
    <glyph glyph-name="Thorn" unicode="&#xde;" horiz-adv-x="593" 
d="M173 0h-107v700h107v-111h170q98 0 155 -47.5t57 -133.5v-88q0 -87 -54.5 -143.5t-157.5 -56.5h-170v-120zM447 320v87q0 43 -25 63.5t-79 20.5h-170v-272h170q104 0 104 101z" />
    <glyph glyph-name="germandbls" unicode="&#xdf;" horiz-adv-x="610" 
d="M315 707h32q83 0 141.5 -57.5t58.5 -138.5q0 -78 -67 -138q43 -30 68 -73.5t25 -92.5q0 -86 -61.5 -146t-149.5 -60h-137v99h137q43 0 73.5 31t30.5 75.5t-29 76.5t-94 36v90q50 4 74 32.5t24 69.5q0 40 -28 68.5t-66 28.5h-32q-74 0 -108.5 -34.5t-34.5 -117.5v-455
h-106v455q0 129 65.5 190t183.5 61z" />
    <glyph glyph-name="agrave" unicode="&#xe0;" horiz-adv-x="450" 
d="M105 686l27 75l215 -98l-28 -73zM55 500h204q66 0 108 -44.5t42 -110.5v-345h-75l-4 38q-10 -15 -31.5 -26.5t-46.5 -11.5h-75q-65 0 -110.5 44.5t-45.5 108t45.5 109t110.5 45.5h131v38q0 28 -13.5 44.5t-35.5 16.5h-204v94zM308 148v65h-131q-23 0 -39 -17.5t-16 -42.5
t16 -42t39 -17h75q22 0 39 16.5t17 37.5z" />
    <glyph glyph-name="aacute" unicode="&#xe1;" horiz-adv-x="450" 
d="M104 664l216 98l27 -75l-214 -96zM55 500h204q66 0 108 -44.5t42 -110.5v-345h-75l-4 38q-10 -15 -31.5 -26.5t-46.5 -11.5h-75q-65 0 -110.5 44.5t-45.5 108t45.5 109t110.5 45.5h131v38q0 28 -13.5 44.5t-35.5 16.5h-204v94zM308 148v65h-131q-23 0 -39 -17.5
t-16 -42.5t16 -42t39 -17h75q22 0 39 16.5t17 37.5z" />
    <glyph glyph-name="acircumflex" unicode="&#xe2;" horiz-adv-x="450" 
d="M199 748h54l145 -173h-111l-61 100l-62 -100h-110zM55 500h204q66 0 108 -44.5t42 -110.5v-345h-75l-4 38q-10 -15 -31.5 -26.5t-46.5 -11.5h-75q-65 0 -110.5 44.5t-45.5 108t45.5 109t110.5 45.5h131v38q0 28 -13.5 44.5t-35.5 16.5h-204v94zM308 148v65h-131
q-23 0 -39 -17.5t-16 -42.5t16 -42t39 -17h75q22 0 39 16.5t17 37.5z" />
    <glyph glyph-name="atilde" unicode="&#xe3;" horiz-adv-x="450" 
d="M100 638l-37 59q1 0 18.5 15.5t37.5 25t41 9.5q49 0 98 -40q22 -17 37 -17q18 0 63 36l48 -52q-34 -34 -59 -48.5t-52 -14.5q-48 0 -92 35l-3 3q-25 20 -36 20h-4q-14 -2 -60 -31zM55 500h204q66 0 108 -44.5t42 -110.5v-345h-75l-4 38q-10 -15 -31.5 -26.5t-46.5 -11.5
h-75q-65 0 -110.5 44.5t-45.5 108t45.5 109t110.5 45.5h131v38q0 28 -13.5 44.5t-35.5 16.5h-204v94zM308 148v65h-131q-23 0 -39 -17.5t-16 -42.5t16 -42t39 -17h75q22 0 39 16.5t17 37.5z" />
    <glyph glyph-name="adieresis" unicode="&#xe4;" horiz-adv-x="450" 
d="M115 748h86v-125h-86v125zM250 748h86v-125h-86v125zM55 500h204q66 0 108 -44.5t42 -110.5v-345h-75l-4 38q-10 -15 -31.5 -26.5t-46.5 -11.5h-75q-65 0 -110.5 44.5t-45.5 108t45.5 109t110.5 45.5h131v38q0 28 -13.5 44.5t-35.5 16.5h-204v94zM308 148v65h-131
q-23 0 -39 -17.5t-16 -42.5t16 -42t39 -17h75q22 0 39 16.5t17 37.5z" />
    <glyph glyph-name="aring" unicode="&#xe5;" horiz-adv-x="450" 
d="M226 782q49 0 83 -34t34 -80q0 -47 -34 -81t-83 -34q-50 0 -84 34t-34 81q0 46 34 80t84 34zM226 703q-13 0 -22.5 -10t-9.5 -25q0 -16 9.5 -26t22.5 -10t22 10t9 26q0 15 -9.5 25t-21.5 10zM55 500h204q66 0 108 -44.5t42 -110.5v-345h-75l-4 38q-10 -15 -31.5 -26.5
t-46.5 -11.5h-75q-65 0 -110.5 44.5t-45.5 108t45.5 109t110.5 45.5h131v38q0 28 -13.5 44.5t-35.5 16.5h-204v94zM308 148v65h-131q-23 0 -39 -17.5t-16 -42.5t16 -42t39 -17h75q22 0 39 16.5t17 37.5z" />
    <glyph glyph-name="ae" unicode="&#xe6;" horiz-adv-x="730" 
d="M55 502h204q70 0 108 -53q51 59 141 59q95 0 147.5 -52t52.5 -146v-103h-296v-6q1 -54 22 -80t71 -26h191v-94h-191q-64 0 -96 30v-31h-75l-4 38q-10 -15 -31.5 -26.5t-46.5 -11.5h-75q-65 0 -110.5 44.5t-45.5 108t45.5 109t110.5 45.5h131v40q0 28 -13.5 44.5
t-35.5 16.5h-204v94zM608 298v14q0 53 -24.5 77.5t-75.5 24.5q-43 0 -69.5 -26.5t-26.5 -74.5v-15h196zM308 148v65h-131q-23 0 -39 -17.5t-16 -42.5t16 -42t39 -17h75q22 0 39 16.5t17 37.5z" />
    <glyph glyph-name="ccedilla" unicode="&#xe7;" horiz-adv-x="405" 
d="M231 508h152v-94h-152q-55 0 -79 -27t-24 -87v-92q0 -65 24 -92.5t79 -27.5h152v-93h-140v-23q55 -13 55 -79q0 -44 -21 -65.5t-67 -21.5h-71v66h71q22 0 22 21q0 19 -23 19h-36v88q-72 15 -109 68t-37 140v92q0 99 52.5 153.5t151.5 54.5z" />
    <glyph glyph-name="egrave" unicode="&#xe8;" horiz-adv-x="445" 
d="M103 686l26 75l216 -98l-28 -73zM27 239v71q0 92 56 145t141 53q95 0 147.5 -52t52.5 -146v-102h-296v-4q0 -55 21 -82t71 -27h191v-94h-191q-107 0 -150 60t-43 178zM324 298v16q-1 52 -25.5 76t-74.5 24q-43 0 -69 -25.5t-27 -74.5v-16h196z" />
    <glyph glyph-name="eacute" unicode="&#xe9;" horiz-adv-x="445" 
d="M102 664l216 98l27 -75l-215 -96zM27 239v71q0 92 56 145t141 53q95 0 147.5 -52t52.5 -146v-103h-296v-3q0 -55 21 -82t71 -27h191v-94h-191q-107 0 -150 60t-43 178zM324 298v16q-1 52 -25.5 76t-74.5 24q-43 0 -69 -25.5t-27 -74.5v-16h196z" />
    <glyph glyph-name="ecircumflex" unicode="&#xea;" horiz-adv-x="445" 
d="M197 748h53l145 -173h-110l-61 100l-62 -100h-110zM27 239v71q0 92 56 145t141 53q95 0 147.5 -52t52.5 -146v-102h-296v-4q0 -55 21 -82t71 -27h191v-94h-191q-107 0 -150 60t-43 178zM324 298v16q-1 52 -25.5 76t-74.5 24q-43 0 -69 -25.5t-27 -74.5v-16h196z" />
    <glyph glyph-name="edieresis" unicode="&#xeb;" horiz-adv-x="445" 
d="M113 748h86v-125h-86v125zM248 748h86v-125h-86v125zM27 239v71q0 92 56 145t141 53q95 0 147.5 -52t52.5 -146v-102h-296v-4q0 -55 21 -82t71 -27h191v-94h-191q-107 0 -150 60t-43 178zM324 298v16q-1 52 -25.5 76t-74.5 24q-43 0 -69 -25.5t-27 -74.5v-16h196z" />
    <glyph glyph-name="igrave" unicode="&#xec;" horiz-adv-x="188" 
d="M-26 686l27 75l215 -98l-28 -73zM46 500h100v-500h-100v500z" />
    <glyph glyph-name="iacute" unicode="&#xed;" horiz-adv-x="188" 
d="M-26 664l215 98l27 -75l-215 -96zM46 500h100v-500h-100v500z" />
    <glyph glyph-name="icircumflex" unicode="&#xee;" horiz-adv-x="188" 
d="M68 748h54l144 -173h-110l-61 100l-62 -100h-109zM46 500h100v-500h-100v500z" />
    <glyph glyph-name="idieresis" unicode="&#xef;" horiz-adv-x="188" 
d="M-15 748h85v-125h-85v125zM119 748h86v-125h-86v125zM46 500h100v-500h-100v500z" />
    <glyph glyph-name="eth" unicode="&#xf0;" horiz-adv-x="523" 
d="M43 701h193q99 0 162 -43l43 44l51 -51l-42 -43q43 -61 43 -159v-211q0 -129 -58 -186.5t-176 -57.5q-113 0 -171 57.5t-58 153.5v38q0 93 58 142.5t168 49.5h131v14q0 48 -15 80l-57 -57l-51 50l59 60q-34 19 -87 19h-193v100zM387 243v97h-131q-65 0 -92.5 -21.5
t-27.5 -70.5v-39q0 -56 28.5 -83.5t94.5 -27.5q73 0 100.5 30t27.5 115z" />
    <glyph glyph-name="ntilde" unicode="&#xf1;" horiz-adv-x="485" 
d="M116 644l-37 59q1 0 19 15.5t37.5 25t41.5 9.5q49 0 97 -40q22 -17 38 -17q18 0 62 36l48 -51q-34 -35 -59 -49t-51 -14q-49 0 -93 35l-3 3q-24 19 -36 19h-3q-14 -2 -61 -31zM217 506h58q69 0 118.5 -49.5t49.5 -126.5v-329h-100v329q0 37 -20 59.5t-48 22.5h-58
q-27 0 -47.5 -21t-20.5 -51v-339h-101v500h76l3 -37q11 17 35 29.5t55 12.5z" />
    <glyph glyph-name="ograve" unicode="&#xf2;" horiz-adv-x="463" 
d="M111 686l27 75l215 -98l-28 -73zM204 507h56q76 0 126.5 -59t50.5 -135v-135q0 -77 -50 -131t-127 -54h-56q-77 0 -127 54t-50 131v135q0 76 50.5 135t126.5 59zM336 178v135q0 40 -23 70t-53 30h-56q-30 0 -53 -30t-23 -70v-135q0 -40 22 -66t54 -26h56q32 0 54 26
t22 66z" />
    <glyph glyph-name="oacute" unicode="&#xf3;" horiz-adv-x="463" 
d="M110 664l216 98l27 -75l-214 -96zM204 507h56q76 0 126.5 -59t50.5 -135v-135q0 -77 -50 -131t-127 -54h-56q-77 0 -127 54t-50 131v135q0 76 50.5 135t126.5 59zM336 178v135q0 40 -23 70t-53 30h-56q-30 0 -53 -30t-23 -70v-135q0 -40 22 -66t54 -26h56q32 0 54 26
t22 66z" />
    <glyph glyph-name="ocircumflex" unicode="&#xf4;" horiz-adv-x="463" 
d="M205 748h54l145 -173h-110l-62 100l-62 -100h-110zM204 507h56q76 0 126.5 -59t50.5 -135v-135q0 -77 -50 -131t-127 -54h-56q-77 0 -127 54t-50 131v135q0 76 50.5 135t126.5 59zM336 178v135q0 40 -23 70t-53 30h-56q-30 0 -53 -30t-23 -70v-135q0 -40 22 -66t54 -26
h56q32 0 54 26t22 66z" />
    <glyph glyph-name="otilde" unicode="&#xf5;" horiz-adv-x="463" 
d="M106 638l-37 59q1 0 18.5 15.5t37.5 25t41 9.5q49 0 98 -40q22 -17 37 -17q19 0 63 36l48 -52q-34 -34 -59 -48.5t-52 -14.5q-48 0 -92 35l-3 3q-25 20 -36 20h-4q-14 -2 -60 -31zM204 507h56q76 0 126.5 -59t50.5 -135v-135q0 -77 -50 -131t-127 -54h-56q-77 0 -127 54
t-50 131v135q0 76 50.5 135t126.5 59zM336 178v135q0 40 -23 70t-53 30h-56q-30 0 -53 -30t-23 -70v-135q0 -40 22 -66t54 -26h56q32 0 54 26t22 66z" />
    <glyph glyph-name="odieresis" unicode="&#xf6;" horiz-adv-x="463" 
d="M121 748h86v-125h-86v125zM256 748h86v-125h-86v125zM204 507h56q76 0 126.5 -59t50.5 -135v-135q0 -77 -50 -131t-127 -54h-56q-77 0 -127 54t-50 131v135q0 76 50.5 135t126.5 59zM336 178v135q0 40 -23 70t-53 30h-56q-30 0 -53 -30t-23 -70v-135q0 -40 22 -66t54 -26
h56q32 0 54 26t22 66z" />
    <glyph glyph-name="divide" unicode="&#xf7;" horiz-adv-x="449" 
d="M172 583h106v-141h-106v141zM34 406h382v-100h-382v100zM172 269h106v-142h-106v142z" />
    <glyph glyph-name="oslash" unicode="&#xf8;" horiz-adv-x="463" 
d="M325 550h84l-39 -86q31 -28 49 -68t18 -83v-135q0 -77 -50 -131t-127 -54h-56q-19 0 -42 5l-20 -46h-85l36 80q-66 55 -66 146v135q0 76 50.5 135t126.5 59h56q22 0 43 -6zM137 132l126 281h-3h-56q-30 0 -53 -30t-23 -70v-135q0 -25 9 -46zM336 178v135q0 26 -11 50
l-123 -277h2h56q32 0 54 26t22 66z" />
    <glyph glyph-name="ugrave" unicode="&#xf9;" horiz-adv-x="479" 
d="M119 686l27 75l216 -98l-28 -73zM337 500h100v-502h-76l-3 38q-10 -17 -34 -29.5t-55 -12.5h-58q-70 0 -119.5 49.5t-49.5 126.5v330h101v-330q0 -37 20 -60t48 -23h58q26 0 47 21t21 52v340z" />
    <glyph glyph-name="uacute" unicode="&#xfa;" horiz-adv-x="479" 
d="M119 664l215 98l27 -75l-214 -96zM337 500h100v-502h-76l-3 38q-10 -17 -34 -29.5t-55 -12.5h-58q-70 0 -119.5 49.5t-49.5 126.5v330h101v-330q0 -37 20 -60t48 -23h58q26 0 47 21t21 52v340z" />
    <glyph glyph-name="ucircumflex" unicode="&#xfb;" horiz-adv-x="479" 
d="M213 748h54l145 -173h-110l-62 100l-61 -100h-110zM337 500h100v-502h-76l-3 38q-10 -17 -34 -29.5t-55 -12.5h-58q-70 0 -119.5 49.5t-49.5 126.5v330h101v-330q0 -37 20 -60t48 -23h58q26 0 47 21t21 52v340z" />
    <glyph glyph-name="udieresis" unicode="&#xfc;" horiz-adv-x="479" 
d="M130 748h86v-125h-86v125zM265 748h86v-125h-86v125zM337 500h100v-502h-76l-3 38q-10 -17 -34 -29.5t-55 -12.5h-58q-70 0 -119.5 49.5t-49.5 126.5v330h101v-330q0 -37 20 -60t48 -23h58q26 0 47 21t21 52v340z" />
    <glyph glyph-name="yacute" unicode="&#xfd;" horiz-adv-x="475" 
d="M117 664l215 98l27 -75l-214 -96zM357 500h106l-252 -693h-106l80 223l-172 470h105l120 -326z" />
    <glyph glyph-name="thorn" unicode="&#xfe;" horiz-adv-x="465" 
d="M136 -201h-100v909h100v-200h123q37 0 67 -14t49 -34.5t31.5 -47.5t17.5 -51.5t5 -46.5v-140q0 -80 -49 -127t-119 -47h-125v-201zM136 414v-323h125q27 0 47.5 23t20.5 60v137q0 48 -20 75.5t-50 27.5h-123z" />
    <glyph glyph-name="ydieresis" unicode="&#xff;" horiz-adv-x="475" 
d="M128 748h86v-125h-86v125zM263 748h86v-125h-86v125zM357 500h106l-252 -693h-106l80 223l-172 470h105l120 -326z" />
    <glyph glyph-name="Amacron" unicode="&#x100;" horiz-adv-x="620" 
d="M154 918h313v-78h-313v78zM264 700h91l250 -700h-112l-62 173h-243l-60 -173h-112zM395 273l-85 236h-3l-83 -236h171z" />
    <glyph glyph-name="amacron" unicode="&#x101;" horiz-adv-x="450" 
d="M69 718h313v-78h-313v78zM55 500h204q66 0 108 -44.5t42 -110.5v-345h-75l-4 38q-10 -15 -31.5 -26.5t-46.5 -11.5h-75q-65 0 -110.5 44.5t-45.5 108t45.5 109t110.5 45.5h131v38q0 28 -13.5 44.5t-35.5 16.5h-204v94zM308 148v65h-131q-23 0 -39 -17.5t-16 -42.5t16 -42
t39 -17h75q22 0 39 16.5t17 37.5z" />
    <glyph glyph-name="Abreve" unicode="&#x102;" horiz-adv-x="620" 
d="M374 948h84q2 -10 2 -21q0 -46 -34 -80t-83 -34h-64q-49 0 -83 32t-34 78q0 13 3 25h82q1 -57 42 -57h47q37 0 38 57zM264 700h91l250 -700h-112l-62 173h-243l-60 -173h-112zM395 273l-85 236h-3l-83 -236h171z" />
    <glyph glyph-name="abreve" unicode="&#x103;" horiz-adv-x="450" 
d="M289 748h84q2 -10 2 -20q0 -47 -34 -81t-83 -34h-64q-49 0 -83 32t-34 78q0 13 3 25h82q1 -56 42 -56h47q37 0 38 56zM55 500h204q66 0 108 -44.5t42 -110.5v-345h-75l-4 38q-10 -15 -31.5 -26.5t-46.5 -11.5h-75q-65 0 -110.5 44.5t-45.5 108t45.5 109t110.5 45.5h131
v38q0 28 -13.5 44.5t-35.5 16.5h-204v94zM308 148v65h-131q-23 0 -39 -17.5t-16 -42.5t16 -42t39 -17h75q22 0 39 16.5t17 37.5z" />
    <glyph glyph-name="Aogonek" unicode="&#x104;" horiz-adv-x="620" 
d="M264 700h91l250 -700h-131q-25 0 -25 -23q0 -36 33 -36h118v-78h-122q-97 0 -97 114q0 95 84 101l-34 95h-243l-60 -173h-112zM395 273l-84 233h-4l-83 -233h171z" />
    <glyph glyph-name="aogonek" unicode="&#x105;" horiz-adv-x="450" 
d="M55 500h204q66 0 108 -44.5t42 -110.5v-415h-44q-25 0 -25 -23q0 -13 8 -22t15 -11.5t10 -2.5h114v-78h-119q-96 0 -96 114q0 82 62 97l-4 34q-10 -15 -31.5 -26.5t-46.5 -11.5h-75q-65 0 -110.5 44.5t-45.5 108t45.5 109t110.5 45.5h131v38q0 28 -13.5 44.5t-35.5 16.5
h-204v94zM308 148v65h-131q-23 0 -39 -17.5t-16 -42.5t16 -42t39 -17h75q22 0 39 16.5t17 37.5z" />
    <glyph glyph-name="Cacute" unicode="&#x106;" horiz-adv-x="630" 
d="M197 864l216 98l26 -75l-214 -96zM304 707h42q226 0 243 -242h-105q-5 78 -37 110t-101 32h-42q-73 0 -107 -34t-34 -116v-220q0 -69 36.5 -107t104.5 -38h42q126 0 135 154h107q-8 -116 -68 -185t-174 -69h-42q-116 0 -182 68t-66 177v220q0 128 65.5 189t182.5 61z" />
    <glyph glyph-name="cacute" unicode="&#x107;" horiz-adv-x="405" 
d="M82 664l216 98l26 -75l-214 -96zM231 508h152v-94h-152q-55 0 -79 -27t-24 -87v-92q0 -65 24 -92.5t79 -27.5h152v-93h-152q-99 0 -151.5 54.5t-52.5 158.5v92q0 99 52.5 153.5t151.5 54.5z" />
    <glyph glyph-name="Cdotaccent" unicode="&#x10a;" horiz-adv-x="630" 
d="M275 948h86v-125h-86v125zM304 707h42q226 0 244 -242h-106q-5 78 -37 110t-101 32h-42q-73 0 -107 -34t-34 -116v-220q0 -69 36.5 -107t104.5 -38h42q126 0 135 154h107q-8 -116 -68 -185t-174 -69h-42q-116 0 -182 68t-66 177v220q0 128 65.5 189t182.5 61z" />
    <glyph glyph-name="cdotaccent" unicode="&#x10b;" horiz-adv-x="405" 
d="M160 748h87v-125h-87v125zM231 508h152v-94h-152q-55 0 -79 -27t-24 -87v-92q0 -65 24 -92.5t79 -27.5h152v-93h-152q-99 0 -151.5 54.5t-52.5 158.5v92q0 99 52.5 153.5t151.5 54.5z" />
    <glyph glyph-name="Ccaron" unicode="&#x10c;" horiz-adv-x="630" 
d="M380 948h110l-145 -173h-53l-145 173h110l61 -100zM304 707h42q226 0 243 -242h-105q-5 78 -37 110t-101 32h-42q-73 0 -107 -34t-34 -116v-220q0 -69 36.5 -107t104.5 -38h42q126 0 135 154h107q-8 -116 -68 -185t-174 -69h-42q-116 0 -182 68t-66 177v220
q0 128 65.5 189t182.5 61z" />
    <glyph glyph-name="ccaron" unicode="&#x10d;" horiz-adv-x="405" 
d="M265 748h110l-145 -173h-53l-145 173h110l62 -100zM231 508h152v-94h-152q-55 0 -79 -27t-24 -87v-92q0 -65 24 -92.5t79 -27.5h152v-93h-152q-99 0 -151.5 54.5t-52.5 158.5v92q0 99 52.5 153.5t151.5 54.5z" />
    <glyph glyph-name="Dcaron" unicode="&#x10e;" horiz-adv-x="631" 
d="M376 948h110l-145 -173h-54l-144 173h110l61 -100zM78 700h250q116 0 182 -61t66 -189v-205q0 -109 -66 -177t-182 -68h-250v700zM469 245v205q0 82 -34 116t-107 34h-143v-500h143q68 0 104.5 38t36.5 107z" />
    <glyph glyph-name="dcaron" unicode="&#x10f;" horiz-adv-x="598" 
d="M320 700h101v-700h-76l-4 38q-9 -15 -31.5 -26.5t-46.5 -11.5h-65q-75 0 -123 55t-48 141v134q0 76 49.5 126t119.5 50h40q29 0 51.5 -12.5t32.5 -29.5v236zM480 700h106v-116q0 -43 -35.5 -71t-78.5 -26l-18 42q16 14 21 26t5 29v116zM320 149v186q0 32 -21 54.5
t-47 22.5h-56q-28 0 -48 -23t-20 -59v-134q0 -48 20 -75t50 -27h65q22 0 39 16t18 39z" />
    <glyph glyph-name="Dcroat" unicode="&#x110;" horiz-adv-x="673" 
d="M13 293v99h107v308h250q116 0 181.5 -61t65.5 -189v-205q0 -109 -65.5 -177t-181.5 -68h-250v293h-107zM226 293v-193h144q68 0 104.5 38t36.5 107v205q0 82 -34 116t-107 34h-144v-208h128v-99h-128z" />
    <glyph glyph-name="dcroat" unicode="&#x111;" horiz-adv-x="526" 
d="M320 700h101v-58h93v-78h-93v-564h-76l-4 38q-9 -15 -31.5 -26.5t-46.5 -11.5h-65q-75 0 -123 55t-48 141v135q0 76 49.5 126t119.5 50h40q29 0 51.5 -12.5t32.5 -29.5v99h-126v78h126v58zM320 149v187q0 32 -21 54.5t-47 22.5h-56q-28 0 -48 -23t-20 -59v-135
q0 -48 20 -75t50 -27h65q22 0 39 16t18 39z" />
    <glyph glyph-name="Emacron" unicode="&#x112;" horiz-adv-x="561" 
d="M120 918h313v-78h-313v78zM78 700h444v-100h-337v-187h284v-100h-284v-213h337v-100h-444v700z" />
    <glyph glyph-name="emacron" unicode="&#x113;" horiz-adv-x="445" 
d="M67 718h313v-78h-313v78zM27 239v71q0 92 56 145t141 53q95 0 147.5 -52t52.5 -146v-102h-296v-4q0 -55 21 -82t71 -27h191v-94h-191q-107 0 -150 60t-43 178zM324 298v16q-1 52 -25.5 76t-74.5 24q-43 0 -69 -25.5t-27 -74.5v-16h196z" />
    <glyph glyph-name="Edotaccent" unicode="&#x116;" horiz-adv-x="561" 
d="M234 948h86v-125h-86v125zM78 700h444v-100h-337v-187h284v-100h-284v-213h337v-100h-444v700z" />
    <glyph glyph-name="edotaccent" unicode="&#x117;" horiz-adv-x="445" 
d="M181 748h86v-125h-86v125zM27 239v71q0 92 56 145t141 53q95 0 147.5 -52t52.5 -146v-102h-296v-4q0 -55 21 -82t71 -27h191v-94h-191q-107 0 -150 60t-43 178zM324 298v16q-1 52 -25.5 76t-74.5 24q-43 0 -69 -25.5t-27 -74.5v-16h196z" />
    <glyph glyph-name="Eogonek" unicode="&#x118;" horiz-adv-x="561" 
d="M78 700h444v-100h-337v-187h284v-100h-284v-213h337v-100h-135q-26 0 -26 -23q0 -20 11 -28t23 -8h114v-78h-119q-97 0 -97 114q0 13 3 23h-218v700z" />
    <glyph glyph-name="eogonek" unicode="&#x119;" horiz-adv-x="445" 
d="M27 239v71q0 92 56 145t141 53q95 0 147.5 -52t52.5 -146v-102h-296v-9q1 -53 22.5 -78.5t69.5 -25.5h191v-94h-144q-16 -3 -16 -22q0 -36 34 -36h114v-78h-119q-96 0 -96 114q0 15 2 25h-8q-83 12 -117 70.5t-34 164.5zM324 298v20q-2 50 -26.5 73t-73.5 23
q-42 0 -68 -25t-28 -72v-19h196z" />
    <glyph glyph-name="Ecaron" unicode="&#x11a;" horiz-adv-x="561" 
d="M338 948h110l-145 -173h-53l-145 173h110l62 -100zM78 700h444v-100h-337v-187h284v-100h-284v-213h337v-100h-444v700z" />
    <glyph glyph-name="ecaron" unicode="&#x11b;" horiz-adv-x="445" 
d="M285 748h110l-145 -173h-53l-145 173h110l62 -100zM27 239v71q0 92 56 145t141 53q95 0 147.5 -52t52.5 -146v-102h-296v-4q0 -55 21 -82t71 -27h191v-94h-191q-107 0 -150 60t-43 178zM324 298v16q-1 52 -25.5 76t-74.5 24q-43 0 -69 -25.5t-27 -74.5v-16h196z" />
    <glyph glyph-name="Gbreve" unicode="&#x11e;" horiz-adv-x="660" 
d="M388 948h84q2 -10 2 -21q0 -46 -34 -80t-83 -34h-64q-48 0 -82.5 32t-34.5 78q0 13 3 25h83q0 -57 41 -57h47q37 0 38 57zM304 706h42q225 0 243 -241h-105q-5 78 -37 109.5t-101 31.5h-42q-73 0 -107 -34t-34 -116v-219q0 -69 36.5 -107t104.5 -38h42q72 0 106.5 33
t34.5 113v44h-138v100h244v-144q0 -125 -66.5 -185.5t-180.5 -60.5h-42q-116 0 -182 68t-66 177v219q0 128 66 189t182 61z" />
    <glyph glyph-name="gbreve" unicode="&#x11f;" horiz-adv-x="478" 
d="M302 748h83q2 -10 2 -20q0 -47 -34 -81t-82 -34h-64q-49 0 -83 32t-34 78q0 13 2 25h83q1 -56 41 -56h48q36 0 38 56zM353 502h76v-478q0 -105 -44 -161.5t-149 -56.5h-178v95h178q56 0 74 21.5t18 88.5v31q-10 -17 -32.5 -29.5t-52.5 -13.5h-39q-70 -1 -119.5 49.5
t-49.5 127.5v129q0 86 48 141.5t123 55.5h64q24 0 46.5 -12t32.5 -27zM328 171v181q-2 23 -18.5 39.5t-38.5 16.5h-66q-30 0 -50 -27.5t-20 -74.5v-130q0 -36 20.5 -59t48.5 -23h56q26 0 47 22.5t21 54.5z" />
    <glyph glyph-name="Gdotaccent" unicode="&#x120;" horiz-adv-x="660" 
d="M282 948h86v-125h-86v125zM304 706h42q225 0 243 -241h-105q-5 78 -37 109.5t-101 31.5h-42q-73 0 -107 -34t-34 -116v-219q0 -69 36.5 -107t104.5 -38h42q72 0 106.5 33t34.5 113v44h-138v100h244v-144q0 -125 -67 -185.5t-180 -60.5h-42q-116 0 -182 68t-66 177v219
q0 128 65.5 189t182.5 61z" />
    <glyph glyph-name="gdotaccent" unicode="&#x121;" horiz-adv-x="478" 
d="M195 748h86v-125h-86v125zM353 502h76v-478q0 -105 -44 -161.5t-149 -56.5h-178v95h178q56 0 74 21.5t18 88.5v31q-10 -17 -32.5 -29.5t-52.5 -13.5h-39q-70 -1 -119.5 49.5t-49.5 127.5v129q0 86 48 141.5t123 55.5h64q24 0 46.5 -12t32.5 -27zM328 171v181
q-2 23 -18.5 39.5t-38.5 16.5h-66q-30 0 -50 -27.5t-20 -74.5v-130q0 -36 20.5 -59t48.5 -23h56q26 0 47 22.5t21 54.5z" />
    <glyph glyph-name="Gcommaaccent" unicode="&#x122;" horiz-adv-x="647" 
d="M297 704h42q226 0 244 -240h-106q-4 77 -36 109t-102 32h-42q-72 0 -106.5 -34t-34.5 -117v-215q0 -69 36.5 -107t104.5 -38h42q72 0 106.5 33t34.5 113v42h-137v100h244v-142q0 -125 -67 -185.5t-181 -60.5h-42q-116 0 -181.5 68t-65.5 177v215q0 128 65.5 189t181.5 61
zM284 -37h83v-83q0 -34 -28 -57t-63 -21l-14 34q22 17 22 44v83z" />
    <glyph glyph-name="gcommaaccent" unicode="&#x123;" horiz-adv-x="478" 
d="M178 599v83q0 34 28 57t63 21l14 -33q-22 -18 -22 -45v-83h-83zM353 502h76v-478q0 -105 -44 -161.5t-149 -56.5h-178v95h178q56 0 74 21.5t18 88.5v31q-10 -17 -32.5 -29.5t-52.5 -13.5h-39q-70 -1 -119.5 49.5t-49.5 127.5v129q0 86 48 141.5t123 55.5h64
q24 0 46.5 -12t32.5 -27zM328 171v181q-2 24 -18.5 40t-38.5 16h-66q-30 0 -50 -27.5t-20 -74.5v-130q0 -36 20.5 -59t48.5 -23h56q26 0 47 22.5t21 54.5z" />
    <glyph glyph-name="Hbar" unicode="&#x126;" horiz-adv-x="693" 
d="M497 700h107v-103h82v-100h-82v-497h-107v301h-304v-301h-106v497h-79v100h79v103h106v-103h304v103zM497 400v97h-304v-97h304z" />
    <glyph glyph-name="hbar" unicode="&#x127;" horiz-adv-x="488" 
d="M53 700h101v-49h117v-90h-117v-97q25 41 84 41h40q70 0 119.5 -49.5t49.5 -126.5v-329h-101v329q0 37 -20 59.5t-48 22.5h-56q-26 0 -47 -22.5t-21 -54.5v-334h-101v561h-88v90h88v49z" />
    <glyph glyph-name="Itilde" unicode="&#x128;" horiz-adv-x="262" 
d="M6 838l-36 59q2 1 13.5 11t21.5 17.5t27.5 14.5t33.5 7q49 0 98 -40q22 -17 37 -17q19 0 63 36l48 -52q-34 -34 -59 -48.5t-52 -14.5q-48 0 -92 35l-3 3q-24 20 -36 20h-4q-13 -2 -60 -31zM78 700h107v-700h-107v700z" />
    <glyph glyph-name="itilde" unicode="&#x129;" horiz-adv-x="188" 
d="M-31 638l-37 59l18.5 15.5t38 25t40.5 9.5q49 0 98 -40q22 -17 37 -17q18 0 63 36l48 -52q-34 -34 -59 -48.5t-52 -14.5q-48 0 -92 35l-3 3q-25 20 -36 20h-4q-13 -2 -60 -31zM46 500h100v-500h-100v500z" />
    <glyph glyph-name="Imacron" unicode="&#x12a;" horiz-adv-x="262" 
d="M-24 918h313v-78h-313v78zM78 700h107v-700h-107v700z" />
    <glyph glyph-name="imacron" unicode="&#x12b;" horiz-adv-x="188" 
d="M-61 718h312v-78h-312v78zM46 500h100v-500h-100v500z" />
    <glyph glyph-name="Iogonek" unicode="&#x12e;" horiz-adv-x="262" 
d="M78 700h107v-700h-103q-19 -2 -19 -23q0 -13 8.5 -22t15 -11.5t9.5 -2.5h114v-78h-118q-97 0 -97 114q0 96 83 101v622z" />
    <glyph glyph-name="iogonek" unicode="&#x12f;" horiz-adv-x="188" 
d="M52 748h86v-125h-86v125zM46 500h100v-558h-43q-26 0 -26 -23q0 -13 8.5 -21.5t15.5 -11t10 -2.5h113v-79h-118q-97 0 -97 114q0 62 37 84v497z" />
    <glyph glyph-name="Idotaccent" unicode="&#x130;" horiz-adv-x="262" 
d="M89 948h86v-125h-86v125zM78 700h107v-700h-107v700z" />
    <glyph glyph-name="dotlessi" unicode="&#x131;" horiz-adv-x="188" 
d="M46 500h100v-500h-100v500z" />
    <glyph glyph-name="IJ" unicode="&#x132;" horiz-adv-x="585" 
d="M78 700h107v-700h-107v700zM400 700h107v-511q0 -39 -5 -69t-12.5 -50t-21 -34.5t-27 -22.5t-33.5 -12.5t-36.5 -5.5t-40.5 -1h-55v99h55q26 0 37 1.5t20 10t11 23.5t2 46q0 6 -1 15v511z" />
    <glyph glyph-name="ij" unicode="&#x133;" horiz-adv-x="402" 
d="M254 668h100v-112h-100v112zM53 667h101v-111h-101v111zM254 500h100v-423q0 -85 -46 -155l-80 -111l-81 53l79 112q16 24 22 46t6 55v423zM53 500h101v-500h-101v500z" />
    <glyph glyph-name="Kcommaaccent" unicode="&#x136;" horiz-adv-x="604" 
d="M444 700h131l-266 -352l279 -348h-132l-239 297h-32v-297h-107v700h107v-303h31zM298 -37h84v-83q0 -34 -28 -57t-63 -21l-15 34q22 17 22 44v83z" />
    <glyph glyph-name="kcommaaccent" unicode="&#x137;" horiz-adv-x="489" 
d="M52 700h101v-382h34l147 182h128l-187 -230l202 -270h-122l-169 225h-33v-225h-101v700zM228 -37h83v-83q0 -34 -28 -57t-63 -21l-14 34q22 17 22 44v83z" />
    <glyph glyph-name="Lacute" unicode="&#x139;" horiz-adv-x="508" 
d="M133 864l216 98l27 -75l-215 -96zM78 700h107v-600h307v-100h-414v700z" />
    <glyph glyph-name="lacute" unicode="&#x13a;" horiz-adv-x="202" 
d="M-20 844l216 98l26 -75l-214 -97zM53 700h101v-700h-101v700z" />
    <glyph glyph-name="Lcommaaccent" unicode="&#x13b;" horiz-adv-x="508" 
d="M78 700h107v-600h307v-100h-414v700zM253 -37h84v-83q0 -34 -28 -57t-63 -21l-15 34q22 17 22 44v83z" />
    <glyph glyph-name="lcommaaccent" unicode="&#x13c;" horiz-adv-x="201" 
d="M53 700h100v-700h-100v700zM67 -37h84v-83q0 -34 -28 -57t-63 -21l-15 34q22 17 22 44v83z" />
    <glyph glyph-name="Lcaron" unicode="&#x13d;" horiz-adv-x="508" 
d="M78 700h107v-600h307v-100h-414v700zM316 699h106v-116q0 -43 -35 -71t-79 -26l-18 42q16 14 21 26t5 29v116z" />
    <glyph glyph-name="lcaron" unicode="&#x13e;" horiz-adv-x="328" 
d="M210 700h106v-116q0 -43 -35 -71t-79 -26l-18 42q16 14 21 26t5 29v116zM53 700h101v-700h-101v700z" />
    <glyph glyph-name="Ldot" unicode="&#x13f;" horiz-adv-x="508" 
d="M78 700h107v-600h307v-100h-414v700zM299 424h106v-157h-106v157z" />
    <glyph glyph-name="ldot" unicode="&#x140;" horiz-adv-x="316" 
d="M53 700h101v-700h-101v700zM197 391h107v-156h-107v156z" />
    <glyph glyph-name="Lslash" unicode="&#x141;" horiz-adv-x="552" 
d="M86 128l-73 73l109 111v388h106v-282l82 82l73 -73l-155 -155v-172h308v-100h-414v166z" />
    <glyph glyph-name="lslash" unicode="&#x142;" horiz-adv-x="390" 
d="M237 0h-106v178l-45 -43l-73 73l118 118v374h106v-268l68 68l73 -74l-141 -140v-286z" />
    <glyph glyph-name="Nacute" unicode="&#x143;" horiz-adv-x="669" 
d="M214 864l216 98l26 -75l-214 -96zM491 700h106v-700h-87l-331 493v-493h-107v700h93l326 -486v486z" />
    <glyph glyph-name="nacute" unicode="&#x144;" horiz-adv-x="485" 
d="M121 670l215 99l27 -75l-214 -97zM217 506h58q69 0 118.5 -49.5t49.5 -126.5v-329h-100v329q0 37 -20 59.5t-48 22.5h-58q-27 0 -47.5 -21t-20.5 -51v-339h-101v500h76l3 -37q11 17 35 29.5t55 12.5z" />
    <glyph glyph-name="Ncommaaccent" unicode="&#x145;" horiz-adv-x="669" 
d="M491 700h107v-700h-88l-331 493v-493h-107v700h93l326 -486v486zM302 -37h84v-83q0 -34 -28 -57t-63 -21l-15 34q22 17 22 44v83z" />
    <glyph glyph-name="ncommaaccent" unicode="&#x146;" horiz-adv-x="485" 
d="M217 507h58q69 0 118.5 -49.5t49.5 -126.5v-330h-100v330q0 37 -20 59.5t-48 22.5h-58q-27 0 -47.5 -21t-20.5 -51v-340h-101v502h76l3 -38q11 17 35 29.5t55 12.5zM212 -37h84v-83q0 -34 -28 -57t-63 -21l-15 34q22 17 22 44v83z" />
    <glyph glyph-name="Ncaron" unicode="&#x147;" horiz-adv-x="669" 
d="M397 948h110l-145 -173h-54l-144 173h110l61 -100zM491 700h106v-700h-87l-331 493v-493h-107v700h93l326 -486v486z" />
    <glyph glyph-name="ncaron" unicode="&#x148;" horiz-adv-x="485" 
d="M304 755h110l-145 -173h-54l-145 173h111l61 -100zM217 506h58q69 0 118.5 -49.5t49.5 -126.5v-329h-100v329q0 37 -20 59.5t-48 22.5h-58q-27 0 -47.5 -21t-20.5 -51v-339h-101v500h76l3 -37q11 17 35 29.5t55 12.5z" />
    <glyph glyph-name="Eng" unicode="&#x14a;" horiz-adv-x="693" 
d="M503 700h106v-656q0 -41 -5 -73.5t-12.5 -54.5t-21.5 -37.5t-27 -24t-33 -13.5t-37 -6t-41 -1h-55v100h55q43 0 56 8t14 43v45l-312 463v-493h-106v700h92l327 -486v486z" />
    <glyph glyph-name="eng" unicode="&#x14b;" horiz-adv-x="485" 
d="M217 506h58q69 0 118.5 -49.5t50.5 -126.5v-253q0 -85 -47 -155l-79 -111l-82 53l79 112q17 24 22.5 46t5.5 55v253q0 37 -20 59.5t-48 22.5h-58q-27 0 -47.5 -21t-20.5 -51v-339h-101v500h76l3 -37q11 17 35 29.5t55 12.5z" />
    <glyph glyph-name="Omacron" unicode="&#x14c;" 
d="M168 918h313v-78h-313v78zM304 706h42q116 0 181.5 -61t65.5 -189v-218q0 -109 -66 -177t-181 -68h-42q-116 0 -182 68t-66 177v218q0 128 65.5 189t182.5 61zM487 238l-1 218q0 82 -34 116t-106 34h-42q-73 0 -107 -34t-34 -116v-218q0 -69 36.5 -107t104.5 -38h42
q68 0 104.5 38t36.5 107z" />
    <glyph glyph-name="omacron" unicode="&#x14d;" horiz-adv-x="463" 
d="M75 718h313v-78h-313v78zM204 507h56q76 0 126.5 -59t50.5 -135v-135q0 -77 -50 -131t-127 -54h-56q-77 0 -127 54t-50 131v135q0 76 50.5 135t126.5 59zM336 178v135q0 40 -23 70t-53 30h-56q-30 0 -53 -30t-23 -70v-135q0 -40 22 -66t54 -26h56q32 0 54 26t22 66z" />
    <glyph glyph-name="Ohungarumlaut" unicode="&#x150;" 
d="M135 864l215 99l27 -75l-214 -97zM380 864l216 99l27 -75l-214 -97zM304 706h42q116 0 181.5 -61t65.5 -189v-218q0 -109 -66 -177t-181 -68h-42q-116 0 -182 68t-66 177v218q0 128 65.5 189t182.5 61zM487 238v218q0 82 -34.5 116t-106.5 34h-42q-73 0 -107 -34
t-34 -116v-218q0 -69 36.5 -107t104.5 -38h42q68 0 104.5 38t36.5 107z" />
    <glyph glyph-name="ohungarumlaut" unicode="&#x151;" horiz-adv-x="463" 
d="M42 664l216 99l26 -75l-214 -97zM288 664l215 99l27 -75l-214 -97zM204 507h56q76 0 126.5 -59t50.5 -135v-135q0 -77 -50 -131t-127 -54h-56q-77 0 -127 54t-50 131v135q0 76 50.5 135t126.5 59zM336 178v135q0 40 -23 70t-53 30h-56q-30 0 -53 -30t-23 -70v-135
q0 -40 22 -66t54 -26h56q32 0 54 26t22 66z" />
    <glyph glyph-name="OE" unicode="&#x152;" horiz-adv-x="971" 
d="M304 706h42q88 0 143 -36v30h443v-100h-337v-187h284v-100h-284v-213h337v-100h-443v34q-58 -41 -143 -41h-42q-116 0 -182 68t-66 177v218q0 128 65.5 189t182.5 61zM481 213v270q-5 68 -37.5 95.5t-97.5 27.5h-42q-73 0 -107 -34t-34 -116v-218q0 -69 36.5 -107
t104.5 -38h42q60 0 95 31.5t40 88.5z" />
    <glyph glyph-name="oe" unicode="&#x153;" horiz-adv-x="754" 
d="M204 507h56q77 0 126 -65q51 66 147 66q95 0 147.5 -52t52.5 -146v-102h-296v-8q1 -53 22 -79t70 -26h191v-94h-191q-97 0 -140 57q-46 -65 -129 -65h-56q-77 0 -127 54t-50 131v135q0 77 50.5 135.5t126.5 58.5zM633 298v20q-2 50 -26 73t-74 23q-42 0 -68 -24.5
t-28 -70.5v-21h196zM336 178v135q0 41 -23 70.5t-53 29.5h-56q-30 0 -53 -29.5t-23 -70.5v-135q0 -40 22 -66t54 -26h56q32 0 54 26t22 66z" />
    <glyph glyph-name="Racute" unicode="&#x154;" horiz-adv-x="616" 
d="M174 864l215 98l27 -75l-214 -96zM78 700h278q83 0 141 -57t58 -138q0 -66 -41 -118t-105 -68l-7 -1l173 -318h-119l-169 310h-102v-310h-107v700zM185 410h171q38 0 65.5 28t27.5 67q0 40 -27.5 67.5t-65.5 27.5h-171v-190z" />
    <glyph glyph-name="racute" unicode="&#x155;" horiz-adv-x="344" 
d="M45 664l216 98l27 -75l-214 -96zM251 508h80v-94h-80q-51 0 -76.5 -26.5t-25.5 -75.5v-311h-101v501h76l5 -51q32 57 122 57z" />
    <glyph glyph-name="Rcommaaccent" unicode="&#x156;" horiz-adv-x="616" 
d="M78 700h278q83 0 141 -57t58 -138q0 -66 -41 -118t-104 -68l-8 -1l173 -318h-119l-169 310h-102v-310h-107v700zM185 410h171q38 0 65.5 28t27.5 67q0 40 -27.5 67.5t-65.5 27.5h-171v-190zM279 -37h84v-83q0 -34 -28 -57t-63 -21l-14 34q21 17 21 44v83z" />
    <glyph glyph-name="rcommaaccent" unicode="&#x157;" horiz-adv-x="344" 
d="M251 509h80v-94h-80q-51 0 -76.5 -26.5t-25.5 -76.5v-311h-101v502h76l5 -51q32 57 122 57zM158 -37h84v-83q0 -34 -28.5 -57t-62.5 -21l-15 34q22 17 22 44v83z" />
    <glyph glyph-name="Rcaron" unicode="&#x158;" horiz-adv-x="616" 
d="M357 948h110l-145 -173h-54l-145 173h110l62 -100zM78 700h278q83 0 141 -57t58 -138q0 -66 -41 -118t-105 -68l-7 -1l173 -318h-119l-169 310h-102v-310h-107v700zM185 410h171q38 0 65.5 28t27.5 67q0 40 -27.5 67.5t-65.5 27.5h-171v-190z" />
    <glyph glyph-name="rcaron" unicode="&#x159;" horiz-adv-x="344" 
d="M229 748h110l-145 -173h-54l-145 173h110l62 -100zM251 508h80v-94h-80q-51 0 -76.5 -26.5t-25.5 -75.5v-311h-101v501h76l5 -51q32 57 122 57z" />
    <glyph glyph-name="Sacute" unicode="&#x15a;" horiz-adv-x="537" 
d="M149 864l216 98l27 -75l-214 -96zM272 700h211v-100h-211q-69 0 -97.5 -19.5t-28.5 -69.5q0 -16 3 -28t7 -21t15 -16t19 -11.5t26.5 -9.5t31 -8t38.5 -8q40 -8 68 -16t57.5 -22.5t47 -33.5t29 -49t11.5 -70q0 -219 -227 -219h-233v100h233q66 0 93 26.5t27 92.5
q0 44 -25 61.5t-102 32.5q-28 5 -44.5 8.5t-43.5 12t-43.5 17t-36.5 24t-31 34t-19 45t-8 58.5q0 99 62.5 144t170.5 45z" />
    <glyph glyph-name="sacute" unicode="&#x15b;" horiz-adv-x="436" 
d="M98 664l215 98l27 -75l-214 -96zM207 506h189v-94h-189q-80 0 -80 -54q0 -23 20 -35t61 -16l21 -2.5t17 -2.5q79 -8 122 -46.5t43 -102.5q0 -82 -53.5 -120.5t-140.5 -38.5h-177v95h177q51 0 72.5 14.5t21.5 49.5q0 25 -16.5 38t-58.5 18l-38 4q-77 8 -124.5 43
t-47.5 102q0 39 15.5 68.5t42 46.5t57.5 25t66 8z" />
    <glyph glyph-name="Scedilla" unicode="&#x15e;" horiz-adv-x="537" 
d="M272 700h211v-100h-211q-69 0 -97.5 -19.5t-28.5 -69.5q0 -16 3 -28t7 -21t15 -16t19 -11.5t26.5 -9.5t31 -8t38.5 -8q40 -8 68 -16t57.5 -22.5t47 -33.5t29 -49t11.5 -70q0 -206 -201 -218h-5v-27q55 -13 55 -78q0 -45 -21 -66.5t-67 -21.5h-71v67h71q22 0 22 21
q0 19 -23 19h-36v85h-184v100h233q66 0 93 26.5t27 93.5q0 43 -25 60.5t-102 32.5q-28 5 -44.5 8.5t-43.5 12t-43.5 17t-36.5 24t-31 34t-19 45t-8 58.5q0 99 63 144t170 45z" />
    <glyph glyph-name="scedilla" unicode="&#x15f;" horiz-adv-x="436" 
d="M207 506h189v-94h-189q-80 0 -80 -54q0 -23 20 -35t61 -16l21 -2.5t17 -2.5q79 -8 122 -46.5t43 -102.5q0 -74 -44 -112t-119 -45h-4v-24q55 -13 55 -79q0 -44 -21.5 -65.5t-67.5 -21.5h-70v66h70q22 0 22 21q0 19 -22 19h-37v82h-133v95h177q51 0 72.5 14.5t21.5 49.5
q0 25 -16.5 38t-58.5 18l-38 4q-77 8 -124.5 43t-47.5 102q0 39 15.5 68.5t42 46.5t57.5 25t66 8z" />
    <glyph glyph-name="Scaron" unicode="&#x160;" horiz-adv-x="537" 
d="M333 948h110l-145 -173h-54l-145 173h110l62 -100zM272 700h211v-100h-211q-69 0 -97.5 -19.5t-28.5 -69.5q0 -16 3 -28t7 -21t15 -16t19 -11.5t26.5 -9.5t31 -8t38.5 -8q40 -8 68 -16t57.5 -22.5t47 -33.5t29 -49t11.5 -70q0 -219 -227 -219h-233v100h233q66 0 93 26.5
t27 93.5q0 43 -25 60.5t-102 32.5q-28 5 -44.5 8.5t-43.5 12t-43.5 17t-36.5 24t-31 34t-19 45t-8 58.5q0 99 62.5 144t170.5 45z" />
    <glyph glyph-name="scaron" unicode="&#x161;" horiz-adv-x="436" 
d="M281 748h110l-145 -173h-54l-144 173h110l61 -100zM207 506h189v-94h-189q-80 0 -80 -54q0 -23 20 -35t61 -16l21 -2.5t17 -2.5q79 -8 122 -46.5t43 -102.5q0 -82 -53.5 -120.5t-140.5 -38.5h-177v95h177q51 0 72.5 14.5t21.5 49.5q0 25 -16.5 38t-58.5 18l-38 4
q-77 8 -124.5 43t-47.5 102q0 39 15.5 68.5t42 46.5t57.5 25t66 8z" />
    <glyph glyph-name="Tcedilla" unicode="&#x162;" horiz-adv-x="551" 
d="M13 700h526v-96h-208v-639q36 -16 36 -69q0 -45 -21 -66.5t-68 -21.5h-70v67h70q23 0 23 21q0 19 -23 19h-54v689h-211v96z" />
    <glyph glyph-name="tcedilla" unicode="&#x163;" horiz-adv-x="357" 
d="M85 609h100v-109h148v-93h-148v-241q0 -45 13.5 -62.5t49.5 -17.5h85v-94h-85q-14 0 -36 4v-26q55 -12 55 -78q0 -44 -21 -65.5t-67 -21.5h-71v66h71q22 0 22 21q0 19 -23 19h-36v113q-57 42 -57 142v241h-72v93h72v109z" />
    <glyph glyph-name="Tcaron" unicode="&#x164;" horiz-adv-x="551" 
d="M338 948h110l-145 -173h-54l-144 173h110l61 -100zM13 700h526v-96h-208v-604h-107v604h-211v96z" />
    <glyph glyph-name="tcaron" unicode="&#x165;" horiz-adv-x="414" 
d="M294 739h106v-115q0 -43 -35 -71.5t-79 -26.5l-18 43q16 13 21 25t5 30v115zM85 609h100v-109h148v-93h-148v-241q0 -45 13.5 -62.5t49.5 -17.5h85v-94h-85q-84 0 -123.5 46.5t-39.5 127.5v241h-72v93h72v109z" />
    <glyph glyph-name="Tbar" unicode="&#x166;" horiz-adv-x="551" 
d="M13 700h526v-100h-208v-138h98v-99h-98v-363h-107v363h-100v99h100v138h-211v100z" />
    <glyph glyph-name="tbar" unicode="&#x167;" horiz-adv-x="357" 
d="M85 599h100v-100h148v-93h-148v-67h148v-94h-148v-77q0 -46 13.5 -63t49.5 -17h85v-94h-85q-84 0 -123.5 46t-39.5 128v77h-72v94h72v67h-72v93h72v100z" />
    <glyph glyph-name="Utilde" unicode="&#x168;" horiz-adv-x="651" 
d="M199 838l-37 59q1 0 18.5 15.5t37 25t41.5 9.5q49 0 98 -40q22 -17 37 -17q18 0 63 36l48 -52q-35 -34 -59.5 -48.5t-51.5 -14.5q-48 0 -92 35l-3 3q-25 20 -36 20h-4q-14 -2 -60 -31zM474 700h106v-492q0 -96 -51.5 -156t-140.5 -60h-111q-84 0 -141.5 58t-57.5 158v492
h107v-492q0 -56 26 -86.5t66 -30.5h111q40 0 63 30.5t23 86.5v492z" />
    <glyph glyph-name="utilde" unicode="&#x169;" horiz-adv-x="479" 
d="M115 638l-37 59l18 15.5t37.5 25t41.5 9.5q49 0 97 -40q22 -17 38 -17q18 0 62 36l48 -52q-34 -34 -59 -48.5t-51 -14.5q-49 0 -92 35q-2 1 -4 3q-24 20 -36 20h-3q-14 -2 -60 -31zM337 500h100v-502h-76l-3 38q-10 -17 -34 -29.5t-55 -12.5h-58q-70 0 -119.5 49.5
t-49.5 126.5v330h101v-330q0 -37 20 -60t48 -23h58q26 0 47 21t21 52v340z" />
    <glyph glyph-name="Umacron" unicode="&#x16a;" horiz-adv-x="651" 
d="M168 918h313v-78h-313v78zM474 700h106v-492q0 -96 -51.5 -156t-140.5 -60h-111q-84 0 -141.5 58t-57.5 158v492h107v-492q0 -56 26 -86.5t66 -30.5h111q40 0 63 30.5t23 86.5v492z" />
    <glyph glyph-name="umacron" unicode="&#x16b;" horiz-adv-x="479" 
d="M84 718h313v-78h-313v78zM337 500h100v-502h-76l-3 38q-10 -17 -34 -29.5t-55 -12.5h-58q-70 0 -119.5 49.5t-49.5 126.5v330h101v-330q0 -37 20 -60t48 -23h58q26 0 47 21t21 52v340z" />
    <glyph glyph-name="Uring" unicode="&#x16e;" horiz-adv-x="651" 
d="M325 982q49 0 83 -34t34 -80q0 -47 -34 -81t-83 -34q-50 0 -84 34t-34 81q0 46 34 80t84 34zM325 903q-13 0 -22.5 -10t-9.5 -25q0 -16 9 -26t23 -10q13 0 22 10t9 26q0 15 -9.5 25t-21.5 10zM474 700h106v-492q0 -96 -51.5 -156t-140.5 -60h-111q-84 0 -141.5 58
t-57.5 158v492h107v-492q0 -56 26 -86.5t66 -30.5h111q40 0 63 30.5t23 86.5v492z" />
    <glyph glyph-name="uring" unicode="&#x16f;" horiz-adv-x="479" 
d="M240 782q49 0 83.5 -34t34.5 -80q0 -47 -34.5 -81t-83.5 -34q-50 0 -83.5 34t-33.5 81q0 46 34 80t83 34zM240 703q-13 0 -22 -10t-9 -25q0 -16 9 -26t22 -10t22.5 10t9.5 26q0 15 -9.5 25t-22.5 10zM337 500h100v-502h-76l-3 38q-10 -17 -34 -29.5t-55 -12.5h-58
q-70 0 -119.5 49.5t-49.5 126.5v330h101v-330q0 -37 20 -60t48 -23h58q26 0 47 21t21 52v340z" />
    <glyph glyph-name="Uhungarumlaut" unicode="&#x170;" horiz-adv-x="651" 
d="M135 864l215 99l27 -75l-214 -97zM381 864l215 99l27 -75l-214 -97zM474 700h106v-492q0 -96 -51.5 -156t-140.5 -60h-111q-84 0 -141.5 58t-57.5 158v492h107v-492q0 -56 26 -86.5t66 -30.5h111q40 0 63 30.5t23 86.5v492z" />
    <glyph glyph-name="uhungarumlaut" unicode="&#x171;" horiz-adv-x="479" 
d="M50 664l216 99l27 -75l-215 -97zM296 664l216 99l27 -75l-215 -97zM337 500h100v-502h-76l-3 38q-10 -17 -34 -29.5t-55 -12.5h-58q-70 0 -119.5 49.5t-49.5 126.5v330h101v-330q0 -37 20 -60t48 -23h58q26 0 47 21t21 52v340z" />
    <glyph glyph-name="Uogonek" unicode="&#x172;" horiz-adv-x="651" 
d="M474 700h106v-492q0 -92 -48.5 -152t-132.5 -64h-7q-11 -3 -11 -19q0 -36 33 -36h114v-78h-119q-52 0 -74.5 30.5t-22.5 76.5v7q0 14 3 19h-38q-84 0 -141.5 58t-57.5 158v492h107v-492q0 -56 26 -86.5t66 -30.5h111q40 0 63 30.5t23 86.5v492z" />
    <glyph glyph-name="uogonek" unicode="&#x173;" horiz-adv-x="479" 
d="M337 500h100v-572h-43q-26 0 -26 -23q0 -13 8.5 -22t15 -11.5t10.5 -2.5h113v-78h-118q-97 0 -97 114q0 80 61 97l-3 34q-10 -17 -34 -29.5t-55 -12.5h-58q-70 0 -119.5 49.5t-49.5 126.5v330h101v-330q0 -37 20 -60t48 -23h58q26 0 47 21t21 52v340z" />
    <glyph glyph-name="Wcircumflex" unicode="&#x174;" horiz-adv-x="742" 
d="M345 948h53l145 -173h-110l-61 100l-62 -100h-110zM619 700h108l-134 -700h-90l-132 276l-132 -276h-89l-134 700h109l95 -496l113 235h78l112 -236z" />
    <glyph glyph-name="wcircumflex" unicode="&#x175;" horiz-adv-x="714" 
d="M331 748h53l145 -173h-110l-61 100l-62 -100h-110zM597 500h105l-164 -500h-85l-96 302l-96 -302h-85l-163 500h105l101 -305l97 305h83l98 -305z" />
    <glyph glyph-name="Ycircumflex" unicode="&#x176;" horiz-adv-x="601" 
d="M275 948h54l144 -173h-110l-61 100l-62 -100h-110zM464 700h122l-232 -385v-315h-106v315l-232 385h123l163 -270z" />
    <glyph glyph-name="ycircumflex" unicode="&#x177;" horiz-adv-x="475" 
d="M211 748h54l145 -173h-110l-62 100l-61 -100h-110zM357 500h106l-252 -693h-106l80 223l-172 470h105l120 -326z" />
    <glyph glyph-name="Ydieresis" unicode="&#x178;" horiz-adv-x="601" 
d="M191 948h86v-125h-86v125zM326 948h86v-125h-86v125zM464 700h122l-232 -385v-315h-106v315l-232 385h123l163 -270z" />
    <glyph glyph-name="Zacute" unicode="&#x179;" horiz-adv-x="553" 
d="M155 864l216 98l27 -75l-215 -96zM56 700h451v-68l-324 -532h331v-100h-475v68l323 532h-306v100z" />
    <glyph glyph-name="zacute" unicode="&#x17a;" horiz-adv-x="422" 
d="M90 664l216 98l27 -75l-215 -96zM30 500h364v-65l-230 -341h232v-94h-370v65l229 341h-225v94z" />
    <glyph glyph-name="Zdotaccent" unicode="&#x17b;" horiz-adv-x="553" 
d="M234 948h86v-125h-86v125zM56 700h451v-68l-324 -532h331v-100h-475v68l323 532h-306v100z" />
    <glyph glyph-name="zdotaccent" unicode="&#x17c;" horiz-adv-x="422" 
d="M169 748h86v-125h-86v125zM30 500h364v-65l-230 -341h232v-94h-370v65l229 341h-225v94z" />
    <glyph glyph-name="Zcaron" unicode="&#x17d;" horiz-adv-x="553" 
d="M338 948h110l-144 -173h-54l-145 173h110l62 -100zM56 700h451v-68l-324 -532h331v-100h-475v68l323 532h-306v100z" />
    <glyph glyph-name="zcaron" unicode="&#x17e;" horiz-adv-x="422" 
d="M273 748h110l-144 -173h-54l-145 173h110l62 -100zM30 500h364v-65l-230 -341h232v-94h-370v65l229 341h-225v94z" />
    <glyph glyph-name="florin" unicode="&#x192;" horiz-adv-x="405" 
d="M118 462v22q0 111 66 167.5t171 56.5h17v-100h-15q-66 0 -99.5 -29t-33.5 -95v-22h148v-100h-148v-331q0 -80 -46 -132.5t-124 -65.5v105q29 6 46.5 29.5t17.5 63.5v331h-64v100h64z" />
    <glyph glyph-name="Acaron" unicode="&#x1cd;" horiz-adv-x="620" 
d="M372 948h111l-145 -173h-54l-145 173h110l62 -100zM264 700h91l250 -700h-112l-62 173h-243l-60 -173h-112zM395 273l-85 236h-3l-83 -236h171z" />
    <glyph glyph-name="acaron" unicode="&#x1ce;" horiz-adv-x="450" 
d="M288 748h110l-145 -173h-54l-145 173h110l62 -100zM55 500h204q66 0 108 -44.5t42 -110.5v-345h-75l-4 38q-10 -15 -31.5 -26.5t-46.5 -11.5h-75q-65 0 -110.5 44.5t-45.5 108t45.5 109t110.5 45.5h131v38q0 28 -13.5 44.5t-35.5 16.5h-204v94zM308 148v65h-131
q-23 0 -39 -17.5t-16 -42.5t16 -42t39 -17h75q22 0 39 16.5t17 37.5z" />
    <glyph glyph-name="Icaron" unicode="&#x1cf;" horiz-adv-x="262" 
d="M194 948h110l-145 -173h-54l-144 173h109l62 -100zM78 700h107v-700h-107v700z" />
    <glyph glyph-name="icaron" unicode="&#x1d0;" horiz-adv-x="188" 
d="M156 748h110l-144 -173h-54l-144 173h109l62 -100zM46 500h100v-500h-100v500z" />
    <glyph glyph-name="Ocaron" unicode="&#x1d1;" 
d="M386 948h110l-145 -173h-53l-145 173h110l62 -100zM304 706h42q116 0 181.5 -61t65.5 -189v-218q0 -109 -66 -177t-181 -68h-42q-116 0 -182 68t-66 177v218q0 128 65.5 189t182.5 61zM487 238l-1 218q0 82 -34 116t-106 34h-42q-73 0 -107 -34t-34 -116v-218
q0 -69 36.5 -107t104.5 -38h42q68 0 104.5 38t36.5 107z" />
    <glyph glyph-name="ocaron" unicode="&#x1d2;" horiz-adv-x="463" 
d="M294 748h110l-145 -173h-54l-145 173h110l62 -100zM204 507h56q76 0 126.5 -59t50.5 -135v-135q0 -77 -50 -131t-127 -54h-56q-77 0 -127 54t-50 131v135q0 76 50.5 135t126.5 59zM336 178v135q0 40 -23 70t-53 30h-56q-30 0 -53 -30t-23 -70v-135q0 -40 22 -66t54 -26
h56q32 0 54 26t22 66z" />
    <glyph glyph-name="Ucaron" unicode="&#x1d3;" horiz-adv-x="651" 
d="M386 948h110l-144 -173h-54l-145 173h110l62 -100zM474 700h106v-492q0 -96 -51.5 -156t-140.5 -60h-111q-84 0 -141.5 58t-57.5 158v492h107v-492q0 -56 26 -86.5t66 -30.5h111q40 0 63 30.5t23 86.5v492z" />
    <glyph glyph-name="ucaron" unicode="&#x1d4;" horiz-adv-x="479" 
d="M302 748h110l-145 -173h-54l-144 173h110l61 -100zM337 500h100v-502h-76l-3 38q-10 -17 -34 -29.5t-55 -12.5h-58q-70 0 -119.5 49.5t-49.5 126.5v330h101v-330q0 -37 20 -60t48 -23h58q26 0 47 21t21 52v340z" />
    <glyph glyph-name="Udieresismacron" unicode="&#x1d5;" horiz-adv-x="651" 
d="M168 994h313v-79h-313v79zM214 875h86v-125h-86v125zM349 875h86v-125h-86v125zM474 700h106v-492q0 -96 -51.5 -156t-140.5 -60h-111q-84 0 -141.5 58t-57.5 158v492h107v-492q0 -56 26 -86.5t66 -30.5h111q40 0 63 30.5t23 86.5v492z" />
    <glyph glyph-name="udieresismacron" unicode="&#x1d6;" horiz-adv-x="479" 
d="M84 792h313v-78h-313v78zM130 680h86v-125h-86v125zM265 680h86v-125h-86v125zM337 500h100v-502h-76l-3 38q-10 -17 -34 -29.5t-55 -12.5h-58q-70 0 -119.5 49.5t-49.5 126.5v330h101v-330q0 -37 20 -60t48 -23h58q26 0 47 21t21 52v340z" />
    <glyph glyph-name="Udieresisacute" unicode="&#x1d7;" horiz-adv-x="651" 
d="M203 975l216 98l27 -75l-215 -97zM214 875h86v-125h-86v125zM349 875h86v-125h-86v125zM474 700h106v-492q0 -96 -51.5 -156t-140.5 -60h-111q-84 0 -141.5 58t-57.5 158v492h107v-492q0 -56 26 -86.5t66 -30.5h111q40 0 63 30.5t23 86.5v492z" />
    <glyph glyph-name="udieresisacute" unicode="&#x1d8;" horiz-adv-x="479" 
d="M119 772l215 98l27 -75l-214 -96zM130 680h86v-125h-86v125zM265 680h86v-125h-86v125zM337 500h100v-502h-76l-3 38q-10 -17 -34 -29.5t-55 -12.5h-58q-70 0 -119.5 49.5t-49.5 126.5v330h101v-330q0 -37 20 -60t48 -23h58q26 0 47 21t21 52v340z" />
    <glyph glyph-name="Udieresiscaron" unicode="&#x1d9;" horiz-adv-x="651" 
d="M386 1075h110l-144 -174h-54l-145 174h110l62 -100zM214 875h86v-125h-86v125zM349 875h86v-125h-86v125zM474 700h106v-492q0 -96 -51.5 -156t-140.5 -60h-111q-84 0 -141.5 58t-57.5 158v492h107v-492q0 -56 26 -86.5t66 -30.5h111q40 0 63 30.5t23 86.5v492z" />
    <glyph glyph-name="udieresiscaron" unicode="&#x1da;" horiz-adv-x="479" 
d="M302 871h110l-145 -173h-54l-144 173h110l61 -100zM130 680h86v-125h-86v125zM265 680h86v-125h-86v125zM337 500h100v-502h-76l-3 38q-10 -17 -34 -29.5t-55 -12.5h-58q-70 0 -119.5 49.5t-49.5 126.5v330h101v-330q0 -37 20 -60t48 -23h58q26 0 47 21t21 52v340z" />
    <glyph glyph-name="Udieresisgrave" unicode="&#x1db;" horiz-adv-x="651" 
d="M204 1000l27 75l215 -98l-28 -73zM214 875h86v-125h-86v125zM349 875h86v-125h-86v125zM474 700h106v-492q0 -96 -51.5 -156t-140.5 -60h-111q-84 0 -141.5 58t-57.5 158v492h107v-492q0 -56 26 -86.5t66 -30.5h111q40 0 63 30.5t23 86.5v492z" />
    <glyph glyph-name="udieresisgrave" unicode="&#x1dc;" horiz-adv-x="479" 
d="M119 796l27 75l216 -98l-28 -73zM130 680h86v-125h-86v125zM265 680h86v-125h-86v125zM337 500h100v-502h-76l-3 38q-10 -17 -34 -29.5t-55 -12.5h-58q-70 0 -119.5 49.5t-49.5 126.5v330h101v-330q0 -37 20 -60t48 -23h58q26 0 47 21t21 52v340z" />
    <glyph glyph-name="Adieresismacron" unicode="&#x1de;" horiz-adv-x="620" 
d="M192 959h86v-125h-86v125zM327 959h86v-125h-86v125zM145 802h313v-79h-313v79zM264 700h91l250 -700h-112l-62 173h-243l-60 -173h-112zM395 273l-85 236h-3l-83 -236h171z" />
    <glyph glyph-name="adieresismacron" unicode="&#x1df;" horiz-adv-x="450" 
d="M69 789h313v-78h-313v78zM115 684h86v-126h-86v126zM250 684h86v-126h-86v126zM55 500h204q66 0 108 -44.5t42 -110.5v-345h-75l-4 38q-10 -15 -31.5 -26.5t-46.5 -11.5h-75q-65 0 -110.5 44.5t-45.5 108t45.5 109t110.5 45.5h131v38q0 28 -13.5 44.5t-35.5 16.5h-204v94
zM308 148v65h-131q-23 0 -39 -17.5t-16 -42.5t16 -42t39 -17h75q22 0 39 16.5t17 37.5z" />
    <glyph glyph-name="Gcaron" unicode="&#x1e6;" horiz-adv-x="660" 
d="M386 948h110l-145 -173h-53l-145 173h110l62 -100zM304 706h42q225 0 243 -241h-105q-5 78 -37 109.5t-101 31.5h-42q-73 0 -107 -34t-34 -116v-219q0 -69 36.5 -107t104.5 -38h42q72 0 106.5 33t34.5 113v44h-138v100h244v-144q0 -125 -67 -185.5t-180 -60.5h-42
q-116 0 -182 68t-66 177v219q0 128 65.5 189t182.5 61z" />
    <glyph glyph-name="gcaron" unicode="&#x1e7;" horiz-adv-x="478" 
d="M300 748h110l-145 -173h-54l-144 173h110l61 -100zM353 502h76v-478q0 -105 -44 -161.5t-149 -56.5h-178v95h178q56 0 74 21.5t18 88.5v31q-10 -17 -32.5 -29.5t-52.5 -13.5h-39q-70 -1 -119.5 49.5t-49.5 127.5v129q0 86 48 141.5t123 55.5h64q24 0 46.5 -12t32.5 -27z
M328 171v181q-2 23 -18.5 39.5t-38.5 16.5h-66q-30 0 -50 -27.5t-20 -74.5v-130q0 -36 20.5 -59t48.5 -23h56q26 0 47 22.5t21 54.5z" />
    <glyph glyph-name="Oslashacute" unicode="&#x1fe;" 
d="M199 814l215 99l27 -75l-214 -97zM444 750h116l-44 -98q77 -62 77 -198v-215q0 -109 -66 -177t-181 -68h-42q-39 0 -76 10l-24 -54h-117l46 103q-77 66 -77 186v215q0 128 65.5 189.5t182.5 61.5h42q40 0 74 -8zM185 169l193 432q-14 4 -32 4h-42q-73 0 -107 -34
t-34 -117v-215q0 -44 22 -70zM487 239v215q0 53 -23 80l-193 -434q14 -6 33 -6h42q68 0 104.5 38.5t36.5 106.5z" />
    <glyph glyph-name="oslashacute" unicode="&#x1ff;" horiz-adv-x="463" 
d="M93 664l215 98l27 -75l-214 -96zM325 550h84l-38 -87q31 -27 48.5 -67.5t17.5 -82.5v-135q0 -77 -50 -131t-127 -54h-56q-19 0 -42 5l-20 -46h-85l36 80q-66 55 -66 146v135q0 76 50.5 135t126.5 59h56q22 0 43 -6zM137 132l126 280q-2 1 -3 1h-56q-30 0 -53 -30t-23 -70
v-135q0 -25 9 -46zM336 178v135q0 26 -11 50l-123 -277h2h56q32 0 54 26t22 66z" />
    <glyph glyph-name="Scommaaccent" unicode="&#x218;" horiz-adv-x="537" 
d="M272 700h211v-100h-211q-69 0 -97.5 -19.5t-28.5 -69.5q0 -16 3 -28t7 -21t15 -16t19 -11.5t26.5 -9.5t31 -8t38.5 -8q40 -8 68 -16t57.5 -22.5t47 -33.5t29 -49t11.5 -70q0 -219 -227 -219h-233v100h233q66 0 93 26.5t27 93.5q0 43 -25 60.5t-102 32.5q-28 5 -44.5 8.5
t-43.5 12t-43.5 17t-36.5 24t-31 34t-19 45t-8 58.5q0 99 63 144t170 45zM235 -37h84v-83q0 -34 -28 -57t-63 -21l-15 34q22 17 22 44v83z" />
    <glyph glyph-name="scommaaccent" unicode="&#x219;" horiz-adv-x="436" 
d="M207 506h189v-94h-189q-80 0 -80 -54q0 -23 20 -35t61 -16l21 -2.5t17 -1.5q79 -9 122 -47.5t43 -102.5q0 -82 -53 -120t-141 -38h-177v94h177q51 0 72.5 14.5t21.5 49.5q0 26 -16.5 39t-58.5 17l-38 4q-77 9 -124.5 43.5t-47.5 101.5q0 39 15.5 68.5t42 46.5t57.5 25
t66 8zM184 -37h83v-83q0 -34 -28 -57t-63 -21l-14 34q22 17 22 44v83z" />
    <glyph glyph-name="Tcommaaccent" unicode="&#x21a;" horiz-adv-x="551" 
d="M13 700h526v-96h-208v-604h-107v604h-211v96zM242 -37h84v-83q0 -34 -28.5 -57t-62.5 -21l-15 34q22 17 22 44v83z" />
    <glyph glyph-name="tcommaaccent" unicode="&#x21b;" horiz-adv-x="357" 
d="M85 609h100v-109h148v-93h-148v-240q0 -45 13.5 -62t49.5 -17h85v-94h-85q-84 0 -123.5 46t-39.5 127v240h-72v93h72v109zM150 -37h83v-83q0 -34 -28 -57t-63 -21l-14 34q22 17 22 44v83z" />
    <glyph glyph-name="Ecedilla" unicode="&#x228;" horiz-adv-x="561" 
d="M78 700h444v-100h-337v-187h284v-100h-284v-213h337v-100h-221v-38q55 -13 55 -78q0 -45 -21 -66.5t-67 -21.5h-71v67h71q22 0 22 21q0 19 -23 19h-36v97h-153v700z" />
    <glyph glyph-name="ecedilla" unicode="&#x229;" horiz-adv-x="445" 
d="M27 239v71q0 92 56 145t141 53q95 0 147.5 -52t52.5 -146v-102h-296v-7q1 -54 22 -80t70 -26h191v-94h-150h-13v-39q55 -13 55 -78q0 -45 -21 -66.5t-67 -21.5h-71v67h71q22 0 22 21q0 19 -23 19h-36v101q-83 12 -117 71t-34 164zM324 298v17q-1 52 -25.5 75.5
t-74.5 23.5q-43 0 -69 -25t-27 -73v-18h196z" />
    <glyph glyph-name="Odiaeresismacron" unicode="&#x22a;" 
d="M168 992h313v-78h-313v78zM214 875h86v-125h-86v125zM349 875h86v-125h-86v125zM304 706h42q116 0 181.5 -61t65.5 -189v-218q0 -109 -66 -177t-181 -68h-42q-116 0 -182 68t-66 177v218q0 128 65.5 189t182.5 61zM487 238l-1 218q0 82 -34 116t-106 34h-42
q-73 0 -107 -34t-34 -116v-218q0 -69 36.5 -107t104.5 -38h42q68 0 104.5 38t36.5 107z" />
    <glyph glyph-name="odiaeresismacron" unicode="&#x22b;" horiz-adv-x="463" 
d="M75 828h313v-78h-313v78zM121 717h86v-125h-86v125zM256 717h86v-125h-86v125zM204 507h56q76 0 126.5 -59t50.5 -135v-135q0 -77 -50 -131t-127 -54h-56q-77 0 -127 54t-50 131v135q0 76 50.5 135t126.5 59zM336 178v135q0 40 -23 70t-53 30h-56q-30 0 -53 -30t-23 -70
v-135q0 -40 22 -66t54 -26h56q32 0 54 26t22 66z" />
    <glyph glyph-name="circumflex" unicode="&#x2c6;" horiz-adv-x="411" 
d="M179 748h54l144 -173h-110l-61 100l-62 -100h-110z" />
    <glyph glyph-name="caron" unicode="&#x2c7;" horiz-adv-x="411" 
d="M267 748h111l-145 -173h-54l-145 173h110l62 -100z" />
    <glyph glyph-name="breve" unicode="&#x2d8;" horiz-adv-x="367" 
d="M247 748h84q2 -10 2 -21q0 -46 -34 -80t-83 -34h-64q-49 0 -83 32t-34 78q0 13 3 25h82q1 -57 42 -57h47q37 0 38 57z" />
    <glyph glyph-name="dotaccent" unicode="&#x2d9;" horiz-adv-x="154" 
d="M34 748h86v-125h-86v125z" />
    <glyph glyph-name="ring" unicode="&#x2da;" horiz-adv-x="303" 
d="M152 782q49 0 83 -34t34 -80q0 -47 -34 -81t-83 -34q-50 0 -84 34t-34 81q0 46 34 80t84 34zM152 703q-13 0 -22.5 -10t-9.5 -25q0 -16 9 -26t23 -10q13 0 22 10t9 26q0 15 -9.5 25t-21.5 10z" />
    <glyph glyph-name="ogonek" unicode="&#x2db;" horiz-adv-x="283" 
d="M130 32h41v-79h-44q-25 0 -25 -22q0 -13 8.5 -22t15 -11.5t9.5 -2.5h114v-79h-118q-97 0 -97 115q0 102 96 101z" />
    <glyph glyph-name="tilde" unicode="&#x2dc;" horiz-adv-x="410" 
d="M71 638l-37 59q1 0 18.5 15.5t37 25t41.5 9.5q49 0 98 -40q22 -17 37 -17q18 0 63 36l48 -52q-34 -34 -59 -48.5t-52 -14.5q-48 0 -92 35l-3 3q-25 20 -36 20h-4q-14 -2 -60 -31z" />
    <glyph glyph-name="hungarumlaut" unicode="&#x2dd;" horiz-adv-x="556" 
d="M34 664l216 99l27 -75l-215 -97zM280 664l216 99l27 -75l-215 -97z" />
    <glyph glyph-name="dotbelowcomb" unicode="&#x323;" horiz-adv-x="0" 
d="M34 -41h86v-125h-86v125z" />
    <glyph glyph-name="circumflexbelowcomb" unicode="&#x32d;" horiz-adv-x="0" 
d="M179 -24h54l144 -173h-110l-61 99l-62 -99h-110z" />
    <glyph glyph-name="macronbelowcomb" unicode="&#x331;" horiz-adv-x="0" 
d="M34 -54h313v-79h-313v79z" />
    <glyph glyph-name="Delta" unicode="&#x394;" horiz-adv-x="833" 
 />
    <glyph glyph-name="Omega" unicode="&#x3a9;" horiz-adv-x="833" 
 />
    <glyph glyph-name="mu" unicode="&#x3bc;" horiz-adv-x="466" 
 />
    <glyph glyph-name="pi" unicode="&#x3c0;" horiz-adv-x="135" 
 />
    <glyph glyph-name="Acy" unicode="&#x410;" horiz-adv-x="620" 
d="M264 700h91l250 -700h-112l-62 173h-243l-60 -173h-112zM395 273l-85 236h-3l-83 -236h171z" />
    <glyph glyph-name="Becy" unicode="&#x411;" horiz-adv-x="619" 
d="M78 700h452v-100h-346v-189h184q93 0 152.5 -59t59.5 -146q0 -86 -61 -146t-148 -60h-293v700zM184 100h187q42 0 72.5 30.5t30.5 74.5q0 47 -30.5 76.5t-74.5 29.5h-185v-211z" />
    <glyph glyph-name="Vecy" unicode="&#x412;" horiz-adv-x="617" 
d="M78 700h278q83 0 141 -57t58 -138q0 -82 -64 -137q41 -26 65 -69t24 -94q0 -85 -61 -145t-148 -60h-293v700zM184 411h178q35 0 61 28t26 66q0 39 -27.5 67t-65.5 28h-172v-189zM184 100h187q42 0 72.5 30.5t30.5 74.5q0 45 -30 75.5t-73 30.5h-187v-211z" />
    <glyph glyph-name="Gecy" unicode="&#x413;" horiz-adv-x="480" 
d="M78 700h386v-96h-279v-604h-107v700z" />
    <glyph glyph-name="Decy" unicode="&#x414;" horiz-adv-x="692" 
d="M177 700h420v-600h66v-213h-107v113h-421v-113h-107v213h55q14 2 24.5 16t12.5 33zM491 100v500h-221l-52 -460q-2 -26 -17 -40h290z" />
    <glyph glyph-name="Iecy" unicode="&#x415;" horiz-adv-x="561" 
d="M78 700h444v-100h-337v-187h284v-100h-284v-213h337v-100h-444v700z" />
    <glyph glyph-name="Zhecy" unicode="&#x416;" horiz-adv-x="918" 
d="M758 700h130l-265 -352l280 -348h-133l-239 297h-19v-297h-106v297h-19l-238 -297h-133l279 348l-265 352h130l229 -303h17v303h106v-303h17z" />
    <glyph glyph-name="Zecy" unicode="&#x417;" horiz-adv-x="531" 
d="M35 705h262q85 0 140 -58t55 -146q0 -94 -65 -145q65 -57 65 -159q0 -90 -55 -146.5t-140 -56.5h-262v99h262q37 0 61.5 29t24.5 75q0 47 -24.5 80.5t-56.5 33.5h-188v98h188q34 0 57.5 26t23.5 66q0 45 -25 75t-61 30h-262v99z" />
    <glyph glyph-name="Iicy" unicode="&#x418;" horiz-adv-x="670" 
d="M505 700h93v-700h-107v492l-331 -492h-88v700h107v-485z" />
    <glyph glyph-name="ShortIcy" unicode="&#x419;" horiz-adv-x="670" 
d="M397 948h83q2 -10 2 -21q0 -46 -34 -80t-82 -34h-64q-49 0 -83 32t-34 78q0 13 2 25h83q1 -57 41 -57h48q36 0 38 57zM505 700h93v-700h-107v492l-331 -492h-88v700h107v-485z" />
    <glyph glyph-name="Kacy" unicode="&#x41a;" horiz-adv-x="604" 
d="M444 700h131l-266 -352l279 -348h-132l-239 297h-32v-297h-107v700h107v-303h31z" />
    <glyph glyph-name="Elcy" unicode="&#x41b;" horiz-adv-x="632" 
d="M135 700h419v-700h-106v600h-221l-51 -456q-6 -63 -42 -102t-92 -42h-21l-5 97h22q15 2 26 16t13 34z" />
    <glyph glyph-name="Emcy" unicode="&#x41c;" horiz-adv-x="768" 
d="M598 700h92v-700h-106v470l-203 -345l-202 344v-469h-107v700h92l217 -369z" />
    <glyph glyph-name="Ency" unicode="&#x41d;" horiz-adv-x="674" 
d="M489 700h107v-700h-107v301h-304v-301h-107v700h107v-300h304v300z" />
    <glyph glyph-name="Ocy" unicode="&#x41e;" 
d="M304 706h42q116 0 181.5 -61t65.5 -189v-218q0 -109 -66 -177t-181 -68h-42q-116 0 -182 68t-66 177v218q0 128 65.5 189t182.5 61zM487 238v218q0 82 -34.5 116t-106.5 34h-42q-73 0 -107 -34t-34 -116v-218q0 -69 36.5 -107t104.5 -38h42q68 0 104.5 38t36.5 107z" />
    <glyph glyph-name="Pecy" unicode="&#x41f;" horiz-adv-x="676" 
d="M76 700h525v-700h-107v601h-311v-601h-107v700z" />
    <glyph glyph-name="Ercy" unicode="&#x420;" horiz-adv-x="595" 
d="M78 700h278q83 0 141 -57t58 -138q0 -80 -58 -137.5t-141 -57.5h-171v-310h-107v700zM185 410h171q38 0 65.5 28t27.5 67q0 40 -27.5 67.5t-65.5 27.5h-171v-190z" />
    <glyph glyph-name="Escy" unicode="&#x421;" horiz-adv-x="630" 
d="M304 707h42q226 0 243 -242h-105q-5 78 -37 110t-101 32h-42q-73 0 -107 -34t-34 -116v-220q0 -69 36.5 -107t104.5 -38h42q126 0 135 154h107q-8 -116 -68 -185t-174 -69h-42q-116 0 -182 68t-66 177v220q0 128 65.5 189t182.5 61z" />
    <glyph glyph-name="Tecy" unicode="&#x422;" horiz-adv-x="560" 
d="M17 700h526v-96h-208v-604h-107v604h-211v96z" />
    <glyph glyph-name="Ucy" unicode="&#x423;" horiz-adv-x="519" 
d="M376 700h124l-254 -700h-117l90 255l-199 445h125l125 -302z" />
    <glyph glyph-name="Efcy" unicode="&#x424;" horiz-adv-x="844" 
d="M369 700h107v-103h110q104 0 162 -51.5t58 -144.5v-76q0 -93 -56 -151.5t-163 -58.5h-111v-115h-107v115h-111q-107 0 -163.5 58.5t-56.5 151.5v76q0 93 58.5 144.5t161.5 51.5h111v103zM369 213v285h-111q-60 0 -86 -24t-26 -73v-76q0 -112 112 -112h111zM699 325v76
q0 49 -26.5 73t-86.5 24h-110v-285h111q112 0 112 112z" />
    <glyph glyph-name="Hacy" unicode="&#x425;" horiz-adv-x="603" 
d="M463 700h124l-224 -350l224 -350h-124l-162 253l-161 -253h-124l223 350l-223 350h124l161 -253z" />
    <glyph glyph-name="Tsecy" unicode="&#x426;" horiz-adv-x="747" 
d="M480 700h106v-593h138v-238h-107v131h-541v700h107v-593h297v593z" />
    <glyph glyph-name="Checy" unicode="&#x427;" horiz-adv-x="584" 
d="M406 700h100v-700h-100v256q-25 -41 -85 -41h-105q-69 0 -118.5 50t-49.5 126v309h100v-309q0 -36 20 -59t48 -23h122q26 0 47 22.5t21 54.5v314z" />
    <glyph glyph-name="Shacy" unicode="&#x428;" horiz-adv-x="852" 
d="M673 700h107v-700h-708v700h107v-592h194v592h107v-592h193v592z" />
    <glyph glyph-name="Shchacy" unicode="&#x429;" horiz-adv-x="941" 
d="M673 700h107v-593h137v-238h-106v131h-739v700h107v-593h194v593h107v-593h193v593z" />
    <glyph glyph-name="Hardsigncy" unicode="&#x42a;" horiz-adv-x="581" 
d="M-50 700h221v-311h171q82 0 140.5 -57t58.5 -137q0 -81 -58 -138t-141 -57h-278v594h-114v106zM171 99h171q38 0 65.5 28t27.5 68q0 39 -28 67t-65 28h-171v-191z" />
    <glyph glyph-name="Yerucy" unicode="&#x42b;" horiz-adv-x="846" 
d="M78 700h107v-311h172q82 0 140 -57t58 -137q0 -81 -58 -138t-140 -57h-279v700zM663 700h105v-700h-105v700zM185 99h172q38 0 65 28t27 68q0 39 -27.5 67t-64.5 28h-172v-191z" />
    <glyph glyph-name="Softsigncy" unicode="&#x42c;" horiz-adv-x="595" 
d="M78 700h107v-311h172q82 0 140 -57t58 -137q0 -81 -58 -138t-140 -57h-279v700zM185 99h172q38 0 65 28t27 68q0 39 -27.5 67t-64.5 28h-172v-191z" />
    <glyph glyph-name="Ereversedcy" unicode="&#x42d;" 
d="M304 706h42q116 0 181.5 -61t65.5 -189v-217q0 -113 -65.5 -179.5t-181.5 -66.5h-42q-116 0 -182 67.5t-66 178.5h107q-1 -72 35.5 -109t104.5 -37h43q68 0 104.5 37t36.5 109v59h-249v106h249v52q0 83 -34 116.5t-107 33.5h-43q-72 0 -106 -33.5t-34 -116.5h-107
q0 127 66 188.5t182 61.5z" />
    <glyph glyph-name="Iucy" unicode="&#x42e;" horiz-adv-x="907" 
d="M562 706h42q116 0 181.5 -61t65.5 -189v-218q0 -110 -65.5 -177.5t-181.5 -67.5h-42q-116 0 -181.5 67.5t-65.5 177.5v62h-130v-300h-107v700h107v-294h130v50q0 128 65.5 189t181.5 61zM745 238v218q0 83 -34 116.5t-107 33.5h-42q-73 0 -107 -33.5t-34 -116.5v-218
q0 -69 36.5 -107t104.5 -38h42q68 0 104.5 38t36.5 107z" />
    <glyph glyph-name="Iacy" unicode="&#x42f;" horiz-adv-x="617" 
d="M261 700h278v-700h-107v311h-102l-169 -311h-118l173 318l-8 1q-64 16 -105 68t-41 118q0 81 58 138t141 57zM432 410v191h-171q-38 0 -65.5 -28t-27.5 -68q0 -39 27.5 -67t65.5 -28h171z" />
    <glyph glyph-name="acy" unicode="&#x430;" horiz-adv-x="450" 
d="M55 500h204q66 0 108 -44.5t42 -110.5v-345h-75l-4 38q-10 -15 -31.5 -26.5t-46.5 -11.5h-75q-65 0 -110.5 44.5t-45.5 108t45.5 109t110.5 45.5h131v38q0 28 -13.5 44.5t-35.5 16.5h-204v94zM308 148v65h-131q-23 0 -39 -17.5t-16 -42.5t16 -42t39 -17h75q22 0 39 16.5
t17 37.5z" />
    <glyph glyph-name="becy" unicode="&#x431;" horiz-adv-x="528" 
d="M294 706h195v-100h-195q-151 0 -151 -157v-14h131q109 0 167.5 -49.5t58.5 -142.5v-39q0 -95 -58 -152.5t-171 -57.5q-118 0 -176.5 57.5t-58.5 186.5v211q0 124 66 190.5t192 66.5zM394 209v39q0 48 -27.5 70t-92.5 22h-131v-98q0 -84 27.5 -113.5t100.5 -29.5
q65 0 94 27t29 83z" />
    <glyph glyph-name="vecy" unicode="&#x432;" horiz-adv-x="474" 
d="M42 500h253q59 0 101 -40.5t42 -98.5q0 -59 -47 -98q30 -19 47 -49.5t17 -67.5q0 -61 -43.5 -103.5t-105.5 -42.5h-264v500zM143 305h133q27 0 44 12.5t17 38.5q0 50 -64 50h-130v-101zM143 94h140q72 0 72 57q0 60 -72 60h-140v-117z" />
    <glyph glyph-name="gecy" unicode="&#x433;" horiz-adv-x="433" 
d="M42 500h376v-100h-275v-400h-101v500z" />
    <glyph glyph-name="decy" unicode="&#x434;" horiz-adv-x="521" 
d="M127 500h328v-409h47v-172h-96v81h-291v-81h-96v172h49q6 2 11 9.5t6 16.5zM360 91v318h-149l-35 -288q-4 -27 -15 -30h199z" />
    <glyph glyph-name="iecy" unicode="&#x435;" horiz-adv-x="445" 
d="M27 239v71q0 92 56 145t141 53q95 0 147.5 -52t52.5 -146v-102h-296v-4q0 -55 21 -82t71 -27h191v-94h-191q-107 0 -150 60t-43 178zM324 298v16q-1 52 -25.5 76t-74.5 24q-43 0 -69 -25.5t-27 -74.5v-16h196z" />
    <glyph glyph-name="zhecy" unicode="&#x436;" horiz-adv-x="744" 
d="M583 500h128l-186 -233l204 -267h-124l-169 221h-13v-221h-101v221h-13l-170 -221h-122l203 267l-186 233h127l147 -186h14v186h101v-186h14z" />
    <glyph glyph-name="zecy" unicode="&#x437;" horiz-adv-x="377" 
d="M27 504h187q61 0 100.5 -42t39.5 -104q0 -67 -47 -104q47 -40 47 -114q0 -63 -39.5 -104t-100.5 -41h-187v101h175q19 0 35 13t16 40q0 31 -17.5 44.5t-33.5 13.5h-144v100h145q21 0 35.5 12.5t14.5 35.5t-16 36t-35 13h-175v100z" />
    <glyph glyph-name="iicy" unicode="&#x438;" horiz-adv-x="517" 
d="M371 500h100v-500h-100v344l-229 -344h-96v500h101v-339z" />
    <glyph glyph-name="iishortcy" unicode="&#x439;" horiz-adv-x="517" 
d="M321 748h83q2 -10 2 -21q0 -46 -33.5 -80t-82.5 -34h-64q-49 0 -83 32t-34 78q0 13 3 25h82q1 -57 41 -57h48q36 0 38 57zM371 500h100v-500h-100v344l-229 -344h-96v500h101v-339z" />
    <glyph glyph-name="kacy" unicode="&#x43a;" horiz-adv-x="487" 
d="M328 500h128l-187 -230l202 -270h-122l-169 225h-33v-225h-101v500h101v-182h34z" />
    <glyph glyph-name="elcy" unicode="&#x43b;" horiz-adv-x="498" 
d="M105 500h347v-500h-100v406h-159l-35 -285q-7 -51 -42.5 -85t-86.5 -36l-4 87q35 3 41 45z" />
    <glyph glyph-name="emcy" unicode="&#x43c;" horiz-adv-x="608" 
d="M470 500h92v-500h-100v310l-157 -247l-156 246v-309h-101v500h91l166 -262z" />
    <glyph glyph-name="ency" unicode="&#x43d;" horiz-adv-x="525" 
d="M373 500h100v-500h-100v204h-220v-204h-101v500h101v-202h220v202z" />
    <glyph glyph-name="ocy" unicode="&#x43e;" horiz-adv-x="463" 
d="M204 507h56q76 0 126.5 -59t50.5 -135v-135q0 -77 -50 -131t-127 -54h-56q-77 0 -127 54t-50 131v135q0 76 50.5 135t126.5 59zM336 178v135q0 40 -23 70t-53 30h-56q-30 0 -53 -30t-23 -70v-135q0 -40 22 -66t54 -26h56q32 0 54 26t22 66z" />
    <glyph glyph-name="pecy" unicode="&#x43f;" horiz-adv-x="530" 
d="M52 500h426v-500h-100v406h-225v-406h-101v500z" />
    <glyph glyph-name="ercy" unicode="&#x440;" horiz-adv-x="472" 
d="M210 507h65q75 0 123 -55t48 -141v-136q0 -77 -49.5 -127t-119.5 -50h-40q-29 0 -51.5 12.5t-32.5 29.5v-222h-101v689h76l4 -38q9 14 31.5 26t46.5 12zM345 175v136q0 47 -20 74.5t-50 27.5h-65q-22 0 -39 -16t-18 -39v-188q0 -33 21 -55.5t47 -22.5h56q28 0 48 23
t20 60z" />
    <glyph glyph-name="escy" unicode="&#x441;" horiz-adv-x="405" 
d="M231 508h152v-94h-152q-55 0 -79 -27t-24 -87v-92q0 -65 24 -92.5t79 -27.5h152v-93h-152q-99 0 -151.5 54.5t-52.5 158.5v92q0 99 52.5 153.5t151.5 54.5z" />
    <glyph glyph-name="tecy" unicode="&#x442;" horiz-adv-x="455" 
d="M19 500h417v-94h-158v-406h-100v406h-159v94z" />
    <glyph glyph-name="ucy" unicode="&#x443;" horiz-adv-x="475" 
d="M357 500h106l-252 -693h-106l80 223l-172 470h105l120 -326z" />
    <glyph glyph-name="efcy" unicode="&#x444;" horiz-adv-x="700" 
d="M299 696h101v-193h87q50 0 88 -19.5t58.5 -50.5t30.5 -64.5t10 -67.5v-114q0 -87 -51.5 -137t-134.5 -50h-88v-191h-100v191h-88q-87 0 -136 49.5t-49 137.5v114q0 202 186 202h86v193zM300 92v317h-87q-39 0 -62 -28.5t-23 -80.5v-113q0 -45 21.5 -70t62.5 -25h88z
M573 187v112q0 53 -22.5 81.5t-63.5 28.5h-87v-317h88q40 0 62.5 25t22.5 70z" />
    <glyph glyph-name="hacy" unicode="&#x445;" horiz-adv-x="481" 
d="M346 500h117l-163 -246l170 -254h-119l-110 166l-109 -166h-119l169 254l-162 246h117l104 -157z" />
    <glyph glyph-name="tsecy" unicode="&#x446;" horiz-adv-x="604" 
d="M363 500h100v-400h121v-193h-100v93h-440v500h101v-399h218v399z" />
    <glyph glyph-name="checy" unicode="&#x447;" horiz-adv-x="482" 
d="M330 500h101v-500h-101v198q-25 -41 -84 -41h-40q-70 -1 -119.5 49t-49.5 127v167h101v-167q0 -37 20 -59.5t48 -22.5h56q26 0 47 22.5t21 54.5v172z" />
    <glyph glyph-name="shacy" unicode="&#x448;" horiz-adv-x="786" 
d="M637 500h100v-500h-689v500h101v-400h194v400h100v-400h194v400z" />
    <glyph glyph-name="shchacy" unicode="&#x449;" horiz-adv-x="883" 
d="M637 500h101v-400h122v-194h-101v94h-711v500h101v-400h194v400h100v-400h194v400z" />
    <glyph glyph-name="hardsigncy" unicode="&#x44a;" horiz-adv-x="520" 
d="M18 500h181v-193h147q61 0 101 -47t40 -107q0 -61 -39 -107t-102 -46h-248v400h-80v100zM199 100h131q27 0 42 14t15 40q0 24 -15.5 38.5t-42.5 14.5h-130v-107z" />
    <glyph glyph-name="yerucy" unicode="&#x44b;" horiz-adv-x="642" 
d="M52 500h101v-193h147q61 0 101 -47t40 -107q0 -61 -39 -107t-102 -46h-248v500zM496 500h101v-500h-101v500zM153 100h131q27 0 42 14t15 40q0 24 -15.5 38.5t-42.5 14.5h-130v-107z" />
    <glyph glyph-name="softsigncy" unicode="&#x44c;" horiz-adv-x="474" 
d="M52 500h101v-193h147q61 0 101 -47t40 -107q0 -61 -39 -107t-102 -46h-248v500zM153 100h131q27 0 42 14t15 40q0 24 -15.5 38.5t-42.5 14.5h-130v-107z" />
    <glyph glyph-name="ereversedcy" unicode="&#x44d;" horiz-adv-x="464" 
d="M205 506h54q76 0 127 -58.5t51 -135.5v-135q0 -77 -50 -130.5t-128 -53.5h-54q-80 0 -129 45t-49 120h101q0 -72 77 -72h54q33 0 55 26.5t22 65.5v25h-157v94h157v15q0 41 -23 70.5t-54 29.5h-54q-33 0 -55 -20.5t-22 -59.5h-101q0 75 50 124.5t128 49.5z" />
    <glyph glyph-name="iucy" unicode="&#x44e;" horiz-adv-x="666" 
d="M407 506h56q76 0 126.5 -58.5t50.5 -135.5v-134q0 -77 -50 -131t-127 -54h-56q-76 0 -126 54t-50 131v27h-77v-205h-101v500h101v-201h77v13q0 77 50.5 135.5t125.5 58.5zM539 178v134q0 41 -22.5 70.5t-53.5 29.5h-56q-30 0 -53 -29.5t-23 -70.5v-134q0 -39 22 -65
t54 -26h56q32 0 54 26t22 65z" />
    <glyph glyph-name="iacy" unicode="&#x44f;" horiz-adv-x="462" 
d="M189 500h223v-500h-100v222h-46l-121 -222h-122l134 228h-6q-57 11 -89 47.5t-32 84.5q0 60 44.5 100t114.5 40zM312 312v94h-120q-68 0 -68 -47t68 -47h120z" />
    <glyph glyph-name="Bdotbelow" unicode="&#x1e04;" horiz-adv-x="618" 
d="M78 700h278q83 0 141 -57t58 -138q0 -82 -64 -137q41 -26 65 -69t24 -94q0 -85 -61 -145t-148 -60h-293v700zM184 411h178q35 0 61 28t26 66q0 39 -27.5 67t-65.5 28h-172v-189zM184 100h187q42 0 72.5 30.5t30.5 74.5q0 45 -30 75.5t-73 30.5h-187v-211zM242 -41h86
v-125h-86v125z" />
    <glyph glyph-name="bdotbelow" unicode="&#x1e05;" horiz-adv-x="468" 
d="M48 700h101v-236q10 17 32.5 29.5t51.5 12.5h40q70 0 119.5 -50t49.5 -126v-134q0 -86 -48 -141t-123 -55h-65q-24 0 -46 11.5t-32 26.5l-4 -38h-76v700zM341 196v134q0 36 -20 59t-48 23h-56q-26 0 -47 -22.5t-21 -54.5v-186q1 -23 18 -39t39 -16h65q30 0 50 27t20 75z
M196 -41h86v-125h-86v125z" />
    <glyph glyph-name="Ddotbelow" unicode="&#x1e0c;" horiz-adv-x="631" 
d="M78 700h250q116 0 182 -61t66 -189v-205q0 -109 -66 -177t-182 -68h-250v700zM469 245v205q0 82 -34 116t-107 34h-143v-500h143q68 0 104.5 38t36.5 107zM275 -41h86v-125h-86v125z" />
    <glyph glyph-name="ddotbelow" unicode="&#x1e0d;" horiz-adv-x="472" 
d="M320 700h101v-700h-76l-4 38q-9 -15 -31.5 -26.5t-46.5 -11.5h-65q-75 0 -123 55t-48 141v134q0 76 49.5 126t119.5 50h40q29 0 51.5 -12.5t32.5 -29.5v236zM320 149v186q0 32 -21 54.5t-47 22.5h-56q-28 0 -48 -23t-20 -59v-134q0 -48 20 -75t50 -27h65q22 0 39 16
t18 39zM185 -41h86v-125h-86v125z" />
    <glyph glyph-name="Dlinebelow" unicode="&#x1e0e;" horiz-adv-x="631" 
d="M78 700h250q116 0 182 -61t66 -189v-205q0 -109 -66 -177t-182 -68h-250v700zM469 245v205q0 82 -34 116t-107 34h-143v-500h143q68 0 104.5 38t36.5 107zM141 -54h313v-79h-313v79z" />
    <glyph glyph-name="dlinebelow" unicode="&#x1e0f;" horiz-adv-x="472" 
d="M320 700h101v-700h-76l-4 38q-9 -15 -31.5 -26.5t-46.5 -11.5h-65q-75 0 -123 55t-48 141v134q0 76 49.5 126t119.5 50h40q29 0 51.5 -12.5t32.5 -29.5v236zM320 149v186q0 32 -21 54.5t-47 22.5h-56q-28 0 -48 -23t-20 -59v-134q0 -48 20 -75t50 -27h65q22 0 39 16
t18 39zM77 -54h313v-79h-313v79z" />
    <glyph glyph-name="Dcircumflexbelow" unicode="&#x1e12;" horiz-adv-x="631" 
d="M78 700h250q116 0 182 -61t66 -189v-205q0 -109 -66 -177t-182 -68h-250v700zM469 245v205q0 82 -34 116t-107 34h-143v-500h143q68 0 104.5 38t36.5 107zM261 -23h54l144 -173h-110l-61 99l-62 -99h-110z" />
    <glyph glyph-name="dcircumflexbelow" unicode="&#x1e13;" horiz-adv-x="472" 
d="M320 700h101v-700h-76l-4 38q-9 -15 -31.5 -26.5t-46.5 -11.5h-65q-75 0 -123 55t-48 141v134q0 76 49.5 126t119.5 50h40q29 0 51.5 -12.5t32.5 -29.5v236zM320 149v186q0 32 -21 54.5t-47 22.5h-56q-28 0 -48 -23t-20 -59v-134q0 -48 20 -75t50 -27h65q22 0 39 16
t18 39zM198 -24h54l145 -173h-110l-62 99l-62 -99h-109z" />
    <glyph glyph-name="Hdotbelow" unicode="&#x1e24;" horiz-adv-x="674" 
d="M489 700h107v-700h-107v301h-304v-301h-107v700h107v-300h304v300zM300 -41h86v-125h-86v125z" />
    <glyph glyph-name="hdotbelow" unicode="&#x1e25;" horiz-adv-x="488" 
d="M53 700h101v-236q25 41 84 41h40q70 0 119.5 -49.5t49.5 -126.5v-329h-101v329q0 37 -20 59.5t-48 22.5h-56q-26 0 -47 -22.5t-21 -54.5v-334h-101v700zM204 -41h86v-125h-86v125z" />
    <glyph glyph-name="Idieresisacute" unicode="&#x1e2e;" horiz-adv-x="262" 
d="M11 973l215 98l27 -75l-214 -96zM21 875h87v-125h-87v125zM156 875h87v-125h-87v125zM78 700h107v-700h-107v700z" />
    <glyph glyph-name="idieresisacute" unicode="&#x1e2f;" horiz-adv-x="188" 
d="M-26 780l215 99l27 -75l-215 -97zM-15 682h85v-125h-85v125zM119 682h86v-125h-86v125zM46 500h100v-500h-100v500z" />
    <glyph glyph-name="Ldotbelow" unicode="&#x1e36;" horiz-adv-x="508" 
d="M78 700h107v-600h307v-100h-414v700zM212 -41h86v-125h-86v125z" />
    <glyph glyph-name="ldotbelow" unicode="&#x1e37;" horiz-adv-x="202" 
d="M53 700h100v-700h-100v700zM60 -41h86v-125h-86v125z" />
    <glyph glyph-name="Lcircumflexbelow" unicode="&#x1e3c;" horiz-adv-x="508" 
d="M78 700h107v-600h307v-100h-414v700zM226 -24h54l145 -173h-110l-62 99l-61 -99h-110z" />
    <glyph glyph-name="lcircumflexbelow" unicode="&#x1e3d;" horiz-adv-x="202" 
d="M54 700h100v-700h-100v700zM72 -24h54l145 -173h-110l-62 99l-62 -99h-109z" />
    <glyph glyph-name="Macute" unicode="&#x1e3e;" horiz-adv-x="768" 
d="M260 796l216 98l27 -75l-215 -96zM598 700h92v-700h-106v470l-203 -345l-202 344v-469h-107v700h92l217 -369z" />
    <glyph glyph-name="macute" unicode="&#x1e3f;" horiz-adv-x="736" 
d="M250 664l216 98l27 -75l-215 -96zM490 506h36q70 0 119 -49.5t49 -126.5v-330h-100v330q0 37 -20 59.5t-48 22.5h-36q-28 0 -48 -21t-20 -55v-336h-101v335q0 32 -21 54.5t-47 22.5h-36q-27 0 -47.5 -20t-20.5 -52v-340h-100v501h76l3 -37q11 17 36.5 29.5t56.5 12.5h32
q72 0 118 -55q45 55 119 55z" />
    <glyph glyph-name="Ndotaccent" unicode="&#x1e44;" horiz-adv-x="669" 
d="M292 948h86v-125h-86v125zM491 700h107v-700h-88l-331 493v-493h-107v700h93l326 -486v486z" />
    <glyph glyph-name="ndotaccent" unicode="&#x1e45;" horiz-adv-x="485" 
d="M199 755h86v-126h-86v126zM217 506h58q69 0 118.5 -49.5t49.5 -126.5v-329h-100v329q0 37 -20 59.5t-48 22.5h-58q-27 0 -47.5 -21t-20.5 -51v-339h-101v500h76l3 -37q11 17 35 29.5t55 12.5z" />
    <glyph glyph-name="Ndotbelow" unicode="&#x1e46;" horiz-adv-x="669" 
d="M491 700h107v-700h-88l-331 493v-493h-107v700h93l326 -486v486zM292 -41h86v-125h-86v125z" />
    <glyph glyph-name="ndotbelow" unicode="&#x1e47;" horiz-adv-x="485" 
d="M217 506h58q69 0 118.5 -49.5t49.5 -126.5v-329h-100v329q0 37 -20 59.5t-48 22.5h-58q-27 0 -47.5 -21t-20.5 -51v-339h-101v500h76l3 -37q11 17 35 29.5t55 12.5zM199 -41h86v-125h-86v125z" />
    <glyph glyph-name="Ncircumflexbelow" unicode="&#x1e4a;" horiz-adv-x="669" 
d="M491 700h107v-700h-88l-331 493v-493h-107v700h93l326 -486v486zM305 -24h54l145 -173h-110l-62 99l-61 -99h-110z" />
    <glyph glyph-name="ncircumflexbelow" unicode="&#x1e4b;" horiz-adv-x="485" 
d="M217 506h58q69 0 118.5 -49.5t49.5 -126.5v-329h-100v329q0 37 -20 59.5t-48 22.5h-58q-27 0 -47.5 -21t-20.5 -51v-339h-101v500h76l3 -37q11 17 35 29.5t55 12.5zM213 -24h54l145 -173h-110l-62 99l-62 -99h-110z" />
    <glyph glyph-name="Otildeacute" unicode="&#x1e4c;" 
d="M201 958l216 99l27 -76l-215 -96zM199 763l-37 59q0 1 18 16t37.5 24.5t41.5 9.5q49 0 98 -40q22 -17 37 -17q18 0 62 37l49 -52q-35 -34 -60 -48.5t-51 -14.5q-48 0 -92 35q-1 1 -4 3q-24 19 -35 19h-4q-14 -1 -60 -31zM304 706h42q116 0 181.5 -61t65.5 -189v-218
q0 -109 -66 -177t-181 -68h-42q-116 0 -182 68t-66 177v218q0 128 65.5 189t182.5 61zM487 238v218q0 82 -34.5 116t-106.5 34h-42q-73 0 -107 -34t-34 -116v-218q0 -69 36.5 -107t104.5 -38h42q68 0 104.5 38t36.5 107z" />
    <glyph glyph-name="otildeacute" unicode="&#x1e4d;" horiz-adv-x="463" 
d="M110 789l216 99l27 -75l-214 -97zM106 579l-37 59q1 1 18.5 16t37.5 24.5t41 9.5q49 0 98 -40q22 -17 37 -17q19 0 63 37l48 -52q-34 -34 -59 -48.5t-52 -14.5q-48 0 -92 35l-3 3q-25 19 -36 19h-4q-14 -1 -60 -31zM204 507h56q76 0 126.5 -59t50.5 -135v-135
q0 -77 -50 -131t-127 -54h-56q-77 0 -127 54t-50 131v135q0 76 50.5 135t126.5 59zM336 178v135q0 40 -23 70t-53 30h-56q-30 0 -53 -30t-23 -70v-135q0 -40 22 -66t54 -26h56q32 0 54 26t22 66z" />
    <glyph glyph-name="Omacrongrave" unicode="&#x1e50;" 
d="M204 967l26 75l216 -99l-28 -73zM168 828h313v-78h-313v78zM304 706h42q116 0 181.5 -61t65.5 -189v-218q0 -109 -66 -177t-181 -68h-42q-116 0 -182 68t-66 177v218q0 128 65.5 189t182.5 61zM487 238l-1 218q0 82 -34 116t-106 34h-42q-73 0 -107 -34t-34 -116v-218
q0 -69 36.5 -107t104.5 -38h42q68 0 104.5 38t36.5 107z" />
    <glyph glyph-name="omacrongrave" unicode="&#x1e51;" horiz-adv-x="463" 
d="M111 816l27 75l215 -98l-28 -73zM75 679h313v-78h-313v78zM204 507h56q76 0 126.5 -59t50.5 -135v-135q0 -77 -50 -131t-127 -54h-56q-77 0 -127 54t-50 131v135q0 76 50.5 135t126.5 59zM336 178v135q0 40 -23 70t-53 30h-56q-30 0 -53 -30t-23 -70v-135q0 -40 22 -66
t54 -26h56q32 0 54 26t22 66z" />
    <glyph glyph-name="Omacronacute" unicode="&#x1e52;" 
d="M203 944l216 99l27 -76l-215 -96zM168 828h313v-78h-313v78zM304 706h42q116 0 181.5 -61t65.5 -189v-218q0 -109 -66 -177t-181 -68h-42q-116 0 -182 68t-66 177v218q0 128 65.5 189t182.5 61zM487 238l-1 218q0 82 -34 116t-106 34h-42q-73 0 -107 -34t-34 -116v-218
q0 -69 36.5 -107t104.5 -38h42q68 0 104.5 38t36.5 107z" />
    <glyph glyph-name="omacronacute" unicode="&#x1e53;" horiz-adv-x="463" 
d="M110 791l216 99l27 -76l-214 -96zM75 679h313v-78h-313v78zM204 507h56q76 0 126.5 -59t50.5 -135v-135q0 -77 -50 -131t-127 -54h-56q-77 0 -127 54t-50 131v135q0 76 50.5 135t126.5 59zM336 178v135q0 40 -23 70t-53 30h-56q-30 0 -53 -30t-23 -70v-135q0 -40 22 -66
t54 -26h56q32 0 54 26t22 66z" />
    <glyph glyph-name="Sdotbelow" unicode="&#x1e62;" horiz-adv-x="537" 
d="M272 700h211v-100h-211q-69 0 -97.5 -19.5t-28.5 -69.5q0 -16 3 -28t7 -21t15 -16t19 -11.5t26.5 -9.5t31 -8t38.5 -8q40 -8 68 -16t57.5 -22.5t47 -33.5t29 -49t11.5 -70q0 -219 -227 -219h-233v100h233q66 0 93 26.5t27 93.5q0 43 -25 60.5t-102 32.5q-28 5 -44.5 8.5
t-43.5 12t-43.5 17t-36.5 24t-31 34t-19 45t-8 58.5q0 99 63 144t170 45zM226 -41h86v-125h-86v125z" />
    <glyph glyph-name="sdotbelow" unicode="&#x1e63;" horiz-adv-x="436" 
d="M207 506h189v-94h-189q-80 0 -80 -54q0 -23 20 -35t61 -16l21 -2.5t17 -2.5q79 -8 122 -46.5t43 -102.5q0 -82 -53.5 -120.5t-140.5 -38.5h-177v95h177q51 0 72.5 14.5t21.5 49.5q0 25 -16.5 38t-58.5 18l-38 4q-77 8 -124.5 43t-47.5 102q0 39 15.5 68.5t42 46.5
t57.5 25t66 8zM176 -41h86v-125h-86v125z" />
    <glyph glyph-name="Tdotbelow" unicode="&#x1e6c;" horiz-adv-x="551" 
d="M13 700h526v-96h-208v-604h-107v604h-211v96zM233 -41h86v-125h-86v125z" />
    <glyph glyph-name="tdotbelow" unicode="&#x1e6d;" horiz-adv-x="357" 
d="M85 609h100v-109h148v-93h-148v-241q0 -45 13.5 -62.5t49.5 -17.5h85v-94h-85q-84 0 -123.5 46.5t-39.5 127.5v241h-72v93h72v109zM139 -41h86v-125h-86v125z" />
    <glyph glyph-name="Tlinebelow" unicode="&#x1e6e;" horiz-adv-x="551" 
d="M13 700h526v-96h-208v-604h-107v604h-211v96zM120 -54h313v-79h-313v79z" />
    <glyph glyph-name="tlinebelow" unicode="&#x1e6f;" horiz-adv-x="357" 
d="M85 609h100v-109h148v-93h-148v-241q0 -45 13.5 -62.5t49.5 -17.5h85v-94h-85q-84 0 -123.5 46.5t-39.5 127.5v241h-72v93h72v109zM34 -54h313v-79h-313v79z" />
    <glyph glyph-name="Tcircumflexbelow" unicode="&#x1e70;" horiz-adv-x="551" 
d="M13 700h526v-96h-208v-604h-107v604h-211v96zM246 -24h54l145 -173h-110l-62 99l-62 -99h-110z" />
    <glyph glyph-name="tcircumflexbelow" unicode="&#x1e71;" horiz-adv-x="357" 
d="M85 609h100v-109h148v-93h-148v-241q0 -45 13.5 -62.5t49.5 -17.5h85v-94h-85q-84 0 -123.5 46.5t-39.5 127.5v241h-72v93h72v109zM149 -24h54l144 -173h-110l-61 99l-62 -99h-110z" />
    <glyph glyph-name="Wgrave" unicode="&#x1e80;" horiz-adv-x="742" 
d="M251 886l26 75l216 -98l-28 -73zM619 700h108l-134 -700h-90l-132 276l-132 -276h-89l-134 700h109l95 -496l113 235h78l112 -236z" />
    <glyph glyph-name="wgrave" unicode="&#x1e81;" horiz-adv-x="714" 
d="M237 686l26 75l216 -98l-28 -73zM597 500h105l-164 -500h-85l-96 302l-96 -302h-85l-163 500h105l101 -305l97 305h83l98 -305z" />
    <glyph glyph-name="Wacute" unicode="&#x1e82;" horiz-adv-x="742" 
d="M250 864l216 98l27 -75l-215 -96zM619 700h108l-134 -700h-90l-132 276l-132 -276h-89l-134 700h109l95 -496l113 235h78l112 -236z" />
    <glyph glyph-name="wacute" unicode="&#x1e83;" horiz-adv-x="714" 
d="M236 664l216 98l27 -75l-215 -96zM597 500h105l-164 -500h-85l-96 302l-96 -302h-85l-163 500h105l101 -305l97 305h83l98 -305z" />
    <glyph glyph-name="Wdieresis" unicode="&#x1e84;" horiz-adv-x="742" 
d="M454 823h-164v125h164v-125zM619 700h108l-134 -700h-90l-132 276l-132 -276h-89l-134 700h109l95 -496l113 235h78l112 -236z" />
    <glyph glyph-name="wdieresis" unicode="&#x1e85;" horiz-adv-x="714" 
d="M247 748h86v-125h-86v125zM382 748h86v-125h-86v125zM597 500h105l-164 -500h-85l-96 302l-96 -302h-85l-163 500h105l101 -305l97 305h83l98 -305z" />
    <glyph glyph-name="Zdotbelow" unicode="&#x1e92;" horiz-adv-x="553" 
d="M56 700h451v-68l-324 -532h331v-100h-475v68l323 532h-306v100zM255 -41h86v-125h-86v125z" />
    <glyph glyph-name="zdotbelow" unicode="&#x1e93;" horiz-adv-x="422" 
d="M31 500h363v-65l-230 -341h232v-94h-370v65l229 341h-224v94zM168 -41h86v-125h-86v125z" />
    <glyph glyph-name="adotbelow" unicode="&#x1ea1;" horiz-adv-x="450" 
d="M55 500h204q66 0 108 -44.5t42 -110.5v-345h-75l-4 38q-10 -15 -31.5 -26.5t-46.5 -11.5h-75q-65 0 -110.5 44.5t-45.5 108t45.5 109t110.5 45.5h131v38q0 28 -13.5 44.5t-35.5 16.5h-204v94zM308 148v65h-131q-23 0 -39 -17.5t-16 -42.5t16 -42t39 -17h75q22 0 39 16.5
t17 37.5zM171 -41h86v-125h-86v125z" />
    <glyph glyph-name="Acircumflexdotbelow" unicode="&#x1eac;" horiz-adv-x="620" 
d="M284 948h54l144 -173h-110l-61 100l-62 -100h-110zM264 700h91l250 -700h-112l-62 173h-243l-60 -173h-112zM395 273l-85 236h-3l-83 -236h171zM269 -41h86v-125h-86v125z" />
    <glyph glyph-name="acircumflexdotbelow" unicode="&#x1ead;" horiz-adv-x="450" 
d="M199 748h54l145 -173h-111l-61 100l-62 -100h-110zM55 500h204q66 0 108 -44.5t42 -110.5v-345h-75l-4 38q-10 -15 -31.5 -26.5t-46.5 -11.5h-75q-65 0 -110.5 44.5t-45.5 108t45.5 109t110.5 45.5h131v38q0 28 -13.5 44.5t-35.5 16.5h-204v94zM308 148v65h-131
q-23 0 -39 -17.5t-16 -42.5t16 -42t39 -17h75q22 0 39 16.5t17 37.5zM171 -41h86v-125h-86v125z" />
    <glyph glyph-name="Edotbelow" unicode="&#x1eb8;" horiz-adv-x="561" 
d="M78 700h444v-100h-337v-187h284v-100h-284v-213h337v-100h-444v700zM234 -41h86v-125h-86v125z" />
    <glyph glyph-name="edotbelow" unicode="&#x1eb9;" horiz-adv-x="445" 
d="M27 239v71q0 92 56 145t141 53q95 0 147.5 -52t52.5 -146v-102h-296v-4q0 -55 21 -82t71 -27h191v-94h-191q-107 0 -150 60t-43 178zM324 298v16q-1 52 -25.5 76t-74.5 24q-43 0 -69 -25.5t-27 -74.5v-16h196zM181 -41h86v-125h-86v125z" />
    <glyph glyph-name="Etilde" unicode="&#x1ebc;" horiz-adv-x="561" 
d="M151 838l-37 59l18 15.5t37.5 25t41.5 9.5q49 0 98 -40q22 -17 37 -17q18 0 62 36l49 -52q-35 -34 -60 -48.5t-51 -14.5q-48 0 -92 35q-1 1 -4 3q-24 20 -35 20h-4q-14 -2 -60 -31zM78 700h444v-100h-337v-187h284v-100h-284v-213h337v-100h-444v700z" />
    <glyph glyph-name="etilde" unicode="&#x1ebd;" horiz-adv-x="445" 
d="M98 638l-37 59l18 15.5t37.5 25t41.5 9.5q49 0 98 -40q22 -17 37 -17q18 0 62 36l49 -52q-35 -34 -60 -48.5t-51 -14.5q-48 0 -92 35q-1 1 -4 3q-24 20 -35 20h-4q-14 -2 -60 -31zM27 239v71q0 92 56 145t141 53q95 0 147.5 -52t52.5 -146v-102h-296v-4q0 -55 21 -82
t71 -27h191v-94h-191q-107 0 -150 60t-43 178zM324 298v16q-1 52 -25.5 76t-74.5 24q-43 0 -69 -25.5t-27 -74.5v-16h196z" />
    <glyph glyph-name="Ecircumflexdotbelow" unicode="&#x1ec6;" horiz-adv-x="561" 
d="M250 948h53l145 -173h-110l-61 100l-62 -100h-110zM78 700h444v-100h-337v-187h284v-100h-284v-213h337v-100h-444v700zM234 -41h86v-125h-86v125z" />
    <glyph glyph-name="ecircumflexdotbelow" unicode="&#x1ec7;" horiz-adv-x="445" 
d="M197 748h53l145 -173h-110l-61 100l-62 -100h-110zM27 239v71q0 92 56 145t141 53q95 0 147.5 -52t52.5 -146v-102h-296v-4q0 -55 21 -82t71 -27h191v-94h-191q-107 0 -150 60t-43 178zM324 298v16q-1 52 -25.5 76t-74.5 24q-43 0 -69 -25.5t-27 -74.5v-16h196zM181 -41
h86v-125h-86v125z" />
    <glyph glyph-name="Idotbelow" unicode="&#x1eca;" horiz-adv-x="262" 
d="M78 700h107v-700h-107v700zM89 -42h86v-125h-86v125z" />
    <glyph glyph-name="idotbelow" unicode="&#x1ecb;" horiz-adv-x="202" 
d="M53 667h101v-111h-101v111zM53 500h101v-500h-101v500zM61 -41h86v-125h-86v125z" />
    <glyph glyph-name="Odotbelow" unicode="&#x1ecc;" 
d="M304 706h42q116 0 181.5 -61t65.5 -189v-218q0 -109 -66 -177t-181 -68h-42q-116 0 -182 68t-66 177v218q0 128 65.5 189t182.5 61zM487 238v218q0 82 -34.5 116t-106.5 34h-42q-73 0 -107 -34t-34 -116v-218q0 -69 36.5 -107t104.5 -38h42q68 0 104.5 38t36.5 107z
M281 -41h86v-125h-86v125z" />
    <glyph glyph-name="odotbelow" unicode="&#x1ecd;" horiz-adv-x="463" 
d="M204 507h56q76 0 126.5 -59t50.5 -135v-135q0 -77 -50 -131t-127 -54h-56q-77 0 -127 54t-50 131v135q0 76 50.5 135t126.5 59zM336 178v135q0 40 -23 70t-53 30h-56q-30 0 -53 -30t-23 -70v-135q0 -40 22 -66t54 -26h56q32 0 54 26t22 66zM188 -41h86v-125h-86v125z" />
    <glyph glyph-name="Ocircumflexdotbelow" unicode="&#x1ed8;" 
d="M298 948h53l145 -173h-110l-61 100l-62 -100h-110zM304 706h42q116 0 181.5 -61t65.5 -189v-218q0 -109 -66 -177t-181 -68h-42q-116 0 -182 68t-66 177v218q0 128 65.5 189t182.5 61zM487 238l-1 218q0 82 -34 116t-106 34h-42q-73 0 -107 -34t-34 -116v-218
q0 -69 36.5 -107t104.5 -38h42q68 0 104.5 38t36.5 107zM281 -41h86v-125h-86v125z" />
    <glyph glyph-name="ocircumflexdotbelow" unicode="&#x1ed9;" horiz-adv-x="463" 
d="M205 748h54l145 -173h-110l-62 100l-62 -100h-110zM204 507h56q76 0 126.5 -59t50.5 -135v-135q0 -77 -50 -131t-127 -54h-56q-77 0 -127 54t-50 131v135q0 76 50.5 135t126.5 59zM336 178v135q0 40 -23 70t-53 30h-56q-30 0 -53 -30t-23 -70v-135q0 -40 22 -66t54 -26
h56q32 0 54 26t22 66zM188 -41h86v-125h-86v125z" />
    <glyph glyph-name="Udotbelow" unicode="&#x1ee4;" horiz-adv-x="651" 
d="M474 700h106v-492q0 -96 -51.5 -156t-140.5 -60h-111q-84 0 -141.5 58t-57.5 158v492h107v-492q0 -56 26 -86.5t66 -30.5h111q40 0 63 30.5t23 86.5v492zM286 -42h86v-125h-86v125z" />
    <glyph glyph-name="udotbelow" unicode="&#x1ee5;" horiz-adv-x="479" 
d="M337 500h100v-502h-76l-3 38q-10 -17 -34 -29.5t-55 -12.5h-58q-70 0 -119.5 49.5t-49.5 126.5v330h101v-330q0 -37 20 -60t48 -23h58q26 0 47 21t21 52v340zM197 -41h86v-125h-86v125z" />
    <glyph glyph-name="Ygrave" unicode="&#x1ef2;" horiz-adv-x="601" 
d="M181 886l27 75l215 -98l-28 -73zM464 700h122l-231 -385v-315h-107v315l-232 385h123l163 -270z" />
    <glyph glyph-name="ygrave" unicode="&#x1ef3;" horiz-adv-x="475" 
d="M117 686l27 75l216 -98l-28 -73zM357 500h106l-252 -693h-106l80 223l-172 470h105l120 -326z" />
    <glyph glyph-name="endash" unicode="&#x2013;" horiz-adv-x="514" 
d="M34 322h446v-99h-446v99z" />
    <glyph glyph-name="emdash" unicode="&#x2014;" horiz-adv-x="634" 
d="M34 322h567v-99h-567v99z" />
    <glyph glyph-name="quoteleft" unicode="&#x2018;" horiz-adv-x="200" 
d="M34 544v116q0 43 35.5 71t78.5 26l19 -42q-16 -13 -21 -25.5t-5 -29.5v-116h-107z" />
    <glyph glyph-name="quoteright" unicode="&#x2019;" horiz-adv-x="200" 
d="M60 758h107v-116q0 -43 -35.5 -71t-79.5 -26l-18 42q16 14 21 26t5 29v116z" />
    <glyph glyph-name="quotesinglbase" unicode="&#x201a;" horiz-adv-x="200" 
d="M60 156h107v-116q0 -43 -35.5 -71t-79.5 -26l-18 42q16 13 21 25t5 30v116z" />
    <glyph glyph-name="quotedblleft" unicode="&#x201c;" horiz-adv-x="348" 
d="M34 544v116q0 43 35.5 71t78.5 26l19 -42q-16 -13 -21 -25.5t-5 -29.5v-116h-107zM182 544v116q0 43 35.5 71t78.5 26l18 -42q-16 -13 -21 -25.5t-5 -29.5v-116h-106z" />
    <glyph glyph-name="quotedblright" unicode="&#x201d;" horiz-adv-x="348" 
d="M60 758h107v-116q0 -43 -35.5 -71t-79.5 -26l-18 42q16 14 21 26t5 29v116zM208 758h106v-116q0 -43 -35 -71t-79 -26l-18 42q16 14 21 26t5 29v116z" />
    <glyph glyph-name="quotedblbase" unicode="&#x201e;" horiz-adv-x="348" 
d="M60 156h107v-116q0 -43 -35.5 -71t-79.5 -26l-18 42q16 13 21 25t5 30v116zM208 156h106v-116q0 -43 -35 -71t-79 -26l-18 42q16 13 21 25t5 30v116z" />
    <glyph glyph-name="dagger" unicode="&#x2020;" horiz-adv-x="441" 
d="M168 700h107v-178h132v-100h-132v-478h-107v478h-134v100h134v178z" />
    <glyph glyph-name="daggerdbl" unicode="&#x2021;" horiz-adv-x="441" 
d="M168 700h107v-174h132v-100h-132v-273h132v-99h-132v-194h-107v194h-134v99h134v273h-134v100h134v174z" />
    <glyph glyph-name="bullet" unicode="&#x2022;" horiz-adv-x="344" 
d="M172 448q56 0 97.5 -40t41.5 -95t-41.5 -94.5t-97.5 -39.5q-57 0 -97.5 39.5t-40.5 94.5t40.5 95t97.5 40z" />
    <glyph glyph-name="ellipsis" unicode="&#x2026;" horiz-adv-x="475" 
d="M34 157h107v-157h-107v157zM185 157h106v-157h-106v157zM336 157h106v-157h-106v157z" />
    <glyph glyph-name="perthousand" unicode="&#x2030;" horiz-adv-x="941" 
d="M560 713h95l-526 -726h-95zM198 700q126 0 126 -150q0 -75 -32 -114t-94 -39q-126 0 -126 154q0 149 126 149zM198 631q-26 0 -36 -17t-10 -63q0 -47 10 -66t36 -19t36 18.5t10 66t-9.5 64t-36.5 16.5zM496.5 303q126.5 0 126.5 -150q0 -75 -32.5 -114t-93.5 -39
q-127 0 -127 154q0 149 126.5 149zM782 303q126 0 126 -150q0 -75 -32.5 -114t-93.5 -39q-126 0 -126 154q0 149 126 149zM497 234q-27 0 -37 -17t-10 -63q0 -47 10 -66t37 -19q25 0 35.5 18.5t10.5 65.5t-10 64t-36 17zM782 234q-27 0 -37 -17t-10 -63q0 -47 10.5 -66
t36.5 -19q25 0 35.5 18.5t10.5 65.5t-10 64t-36 17z" />
    <glyph glyph-name="guilsinglleft" unicode="&#x2039;" horiz-adv-x="271" 
d="M34 305l204 160v-126l-77 -61l77 -61v-126l-204 160v54z" />
    <glyph glyph-name="guilsinglright" unicode="&#x203a;" horiz-adv-x="271" 
d="M34 339v126l204 -160v-54l-204 -160v126l77 61z" />
    <glyph glyph-name="fraction" unicode="&#x2044;" horiz-adv-x="481" 
d="M360 713h87l-325 -726h-88z" />
    <glyph glyph-name="euro" unicode="&#x20ac;" horiz-adv-x="624" 
d="M99 439v18q0 128 65.5 189t181.5 61q226 0 244 -242h-106q-4 79 -36 110.5t-102 31.5q-72 0 -106.5 -34t-34.5 -116v-18h241v-75h-241v-44h209v-75h-209v-16q0 -68 36 -102.5t105 -34.5q127 0 136 155h107q-8 -117 -68.5 -186t-174.5 -69q-115 0 -181 68t-66 177v8h-70
v75h70v44h-70v75h70z" />
    <glyph glyph-name="trademark" unicode="&#x2122;" horiz-adv-x="829" 
d="M34 700h330v-72h-125v-362h-80v362h-125v72zM727 700h68v-434h-79v265l-87 -147h-58l-86 145v-263h-79v434h69l126 -215z" />
    <glyph glyph-name="partialdiff" unicode="&#x2202;" horiz-adv-x="880" 
 />
    <glyph glyph-name="product" unicode="&#x220f;" horiz-adv-x="880" 
 />
    <glyph glyph-name="summation" unicode="&#x2211;" horiz-adv-x="880" 
 />
    <glyph glyph-name="minus" unicode="&#x2212;" horiz-adv-x="586" 
d="M34 364h519v-99h-519v99z" />
    <glyph glyph-name="radical" unicode="&#x221a;" horiz-adv-x="880" 
 />
    <glyph glyph-name="infinity" unicode="&#x221e;" horiz-adv-x="880" 
 />
    <glyph glyph-name="integral" unicode="&#x222b;" horiz-adv-x="880" 
 />
    <glyph glyph-name="approxequal" unicode="&#x2248;" horiz-adv-x="880" 
 />
    <glyph glyph-name="notequal" unicode="&#x2260;" horiz-adv-x="586" 
d="M370 594h116l-78 -174h145v-99h-189l-28 -64h217v-100h-262l-69 -157h-117l70 157h-141v100h185l29 64h-214v99h258z" />
    <glyph glyph-name="lessequal" unicode="&#x2264;" horiz-adv-x="461" 
d="M34 451l394 255v-120l-257 -167v-7l257 -167v-121l-394 255v72zM34 100h394v-100h-394v100z" />
    <glyph glyph-name="greaterequal" unicode="&#x2265;" horiz-adv-x="461" 
d="M34 586v120l394 -255v-72l-394 -255v121l257 167v7zM34 100h394v-100h-394v100z" />
    <glyph glyph-name="lozenge" unicode="&#x25ca;" horiz-adv-x="880" 
 />
    <glyph glyph-name="apple" unicode="&#xf8ff;" horiz-adv-x="0" 
 />
    <glyph glyph-name="fi" unicode="&#xfb01;" horiz-adv-x="534" 
d="M81 500v17q2 50 20.5 88t50.5 59.5t69.5 32t82.5 10.5q7 0 15 -1v-89q-61 1 -98 -22.5t-37 -77.5v-17h135v-90h-141v-410h-101v410h-61v90h65zM386 667h100v-111h-100v111zM386 500h100v-500h-100v500z" />
    <glyph glyph-name="fl" unicode="&#xfb02;" horiz-adv-x="534" 
d="M81 500v17q2 50 20.5 88t50.5 59.5t69.5 32t82.5 10.5q7 0 15 -1v-89q-61 1 -98 -22.5t-37 -77.5v-17h135v-90h-141v-410h-101v410h-61v90h65zM386 700h100v-700h-100v700z" />
    </font>
</defs>
</svg>
