<svg id="svgcontainer" xmlns="http://www.w3.org/2000/svg" viewBox="0 0 1311.974 1680.872"><title>bulma</title><rect id="contour" width="1311.974" height="1680.872" style="fill:none"/><g id="color"><g id="blanc"><path d="M667.614,645.88c2.675,0,2.675-2.526,2.675-4.457a2.947,2.947,0,0,0-1.338-2.823l-4.457,2.674a3.23,3.23,0,0,0,1.657,4.257l.126.052A2.709,2.709,0,0,0,667.614,645.88Z" style="fill:#fff"/><path d="M626.16,657.321a10.017,10.017,0,0,0,2.081.3c1.485,0,2.08-.446,2.08-1.337a51.519,51.519,0,0,0-1.486-12.629c-1.04-.6-2.377-1.486-3.715-2.378A24.769,24.769,0,0,1,626.16,657.321Z" style="fill:#fff"/><path d="M617.246,640.829c.594,2.228,1.634,2.377,2.377,2.377s1.783-.892,1.486-2.972a10.075,10.075,0,0,0-.3-2.08,28.482,28.482,0,0,1-2.526-1.931A12.336,12.336,0,0,0,617.246,640.829Z" style="fill:#fff"/><path d="M678.609,644.692a34.349,34.349,0,0,1-.148,12.332,34.138,34.138,0,0,0,4.16-1.189c4.754-1.634,6.24-2.08,6.24-3.714s-2.526-9.807-5.052-14.561a9.941,9.941,0,0,0-4.308-4.606,56.874,56.874,0,0,0-5.944,3.12A12.181,12.181,0,0,1,678.609,644.692Z" style="fill:#fff"/></g><path id="boucleOreille" d="M707.731,662.67c1.783,1.04,3.714-1.932,1.931-2.972C708.181,658.807,706.245,661.778,707.731,662.67Z" style="fill:#fff"/><path id="cheveux" d="M742.5,577.533a140.316,140.316,0,0,0-8.318-21.544,51.264,51.264,0,0,0-7.726-10.846c-1.634-1.634-7.875-3.714-14.709-5.2.891-.892,3.714-.149,8.023,1.04a17.394,17.394,0,0,1,3.566,1.337,8.543,8.543,0,0,0-2.377-4.012,18.973,18.973,0,0,0-6.092-3.417c-.6,0-8.618,2.377-8.618,2.377a25,25,0,0,1,7.132-2.971c.3-.6,0-1.486-.743-2.675A2.335,2.335,0,0,0,711,530.136a17.7,17.7,0,0,0-3.863-.742c-.6,0-5.2,4.606-5.2,4.606a10.382,10.382,0,0,1,4.012-5.052h0c-4.309-4.16-5.2-4.755-5.646-4.755a4.017,4.017,0,0,0-1.189,1.04,16.162,16.162,0,0,1,1.04,5.943c-1.04-1.04-3.268-7.577-4.011-8.32s-3.566,0-4.755.149c.149.3.3.742.446,1.04a94.492,94.492,0,0,1,2.823,9.212c-.594,0-.743-.3-1.635-2.526s-3.268-8.469-4.16-9.361a9.708,9.708,0,0,0-8.766-1.337,43.408,43.408,0,0,1,6.24,7.578c1.486,2.377,3.715,5.348,3.418,6.834a56.7,56.7,0,0,1-5.052-7.132c-1.486-2.228-5.943-7.131-7.132-7.429-3.566-.3-7.132-.3-10.7-.3a3.774,3.774,0,0,0-3.417,1.337c3.417.595,5.943,2.081,10.846,5.2,6.835,4.457,10.252,7.577,10.252,8.469-1.188-.446-4.308-3.269-10.4-7.132s-6.983-4.755-12.778-5.349a51.442,51.442,0,0,0-19.613,1.486c-8.766,2.08-17.829,6.092-19.761,7.577a38.962,38.962,0,0,0-7.28,6.687c2.971-1.635,6.537-3.418,10.1-5.052,5.646-2.675,11.144-4.755,14.115-4.606-5.5,2.229-12.629,4.457-21.841,9.955a52.033,52.033,0,0,0-17.384,14.115,69.983,69.983,0,0,0-13.223,23.921,84.067,84.067,0,0,1,10.252-13.669c6.24-7.281,17.829-18.573,19.909-18.275a186.911,186.911,0,0,0-17.235,17.086c-5.646,6.241-10.549,12.332-12.926,17.533s-3.418,11.886-3.864,19.315-.3,9.212.743,11.887a47.456,47.456,0,0,0,4.9,10.4c-.3-4.16,0-9.36,0-12.778,0-5.2.6-5.943,1.189-5.349-.446,2.675,0,8.915,0,14.71s0,6.389,2.229,11c2.08,4.309,3.12,6.092,5.794,7.577-.594-1.634-1.188-3.268-1.634-4.457-1.04-2.972-.594-8.023-.594-13.224a27.105,27.105,0,0,1,2.674-12.778C596,611.559,596,622.406,596,625.67s1.634,7.281,2.526,9.955a15.567,15.567,0,0,0,2.08,4.161c-.446-4.606,0-9.064.445-7.727a90.059,90.059,0,0,0,1.189,10.252c1.337,2.378,1.932,5.052,2.674,5.795s2.378,1.337,5.349,2.08c-.148-.148-.148-.3-.3-.446-1.337-2.674-2.823-6.389-3.12-7.131-.594-1.932-1.932-6.241,1.634-19.167a96.921,96.921,0,0,1,13.075-29.419s.6-.3-.148,1.486c-2.08,3.417-3.863,7.132-5.646,10.846-1.189,2.823-2.377,5.943-3.566,9.509a16.328,16.328,0,0,0-.743,2.526c1.337-1.189,2.08-3.417,4.457-6.983a122.211,122.211,0,0,1,19.019-21.1c9.955-8.914,22.881-17.383,27.19-17.383a116.226,116.226,0,0,0-27.329,19.17,146.126,146.126,0,0,0-18.87,20.653c-2.823,4.309-3.12,6.389-4.9,6.686-3.417,11.292-3.863,18.424-3.863,21.1v.149a114.95,114.95,0,0,1,8.469-19.613c6.092-10.994,8.915-13.52,9.212-13.52s.743.3-.3,1.337a124,124,0,0,0-9.955,16.2,166.372,166.372,0,0,0-6.983,16.79,52.686,52.686,0,0,0,3.12,6.537c1.337-9.063,11.144-26.744,21.99-37.591a119.978,119.978,0,0,1,12.926-11.589,136.255,136.255,0,0,1,23.03-14.412s-4.309,7.28-9.657,16.344-8.469,14.561-18.276,24.515a41.047,41.047,0,0,0,14.561-9.954,56.934,56.934,0,0,0,7.132-10.847c4.16-7.132,11.886-20.355,16.79-24.07l.445-.3a1.5,1.5,0,0,1-.3.743,67.565,67.565,0,0,0,1.783,7.875l3.417-.3c-.445-.446-.891-.743-1.337-1.189l1.783,1.04,1.337.743a112.109,112.109,0,0,1,17.533,13.818c2.823,2.526,5.2,5.5,7.28,7.726,4.16,4.606,6.835,7.875,7.429,11-9.063-11-15.452-18.424-20.8-23.03-3.566-2.972-7.875-5.943-11-8.32,4.606,8.766,9.955,19.612,13.967,26.447a120.8,120.8,0,0,0,7.28,11.292c1.634.3,2.526,2.674,2.526,2.674s3.417-6.834,6.24-7.28,5.349,2.08,8.172,4.9,3.863,3.715,4.755,11v.3l-23.769,30.3a2.934,2.934,0,0,1-2.08-.891,78.752,78.752,0,0,1-8.321,8.915c-.148.594-.148,1.188-.3,1.634,4.16-3.269,8.321-5.943,11.144-8.469l.445.3,23.179-29.567c.148,1.188.148,2.229.3,3.269,1.634-1.635,2.08-2.378,1.486-4.9-.594-2.823-4.9-17.235-8.321-23.772s-5.646-7.875-9.806-12.035-5.943-4.309-7.578-5.944-5.5-4.606-5.5-4.606c2.08.446,5.5,2.526,11.589,7.429s9.658,9.064,10.252,11,4.161,6.835,6.835,14.561c1.486,4.309,2.674,7.875,3.566,10.549.891-1.485,1.04-2.228.3-7.28a119.249,119.249,0,0,0-5.349-20.207c.743,0,4.458,10.252,5.8,15.6a68.493,68.493,0,0,1,1.486,7.578c.891-.6,1.04-.6,1.04-4.755,0-5.052-1.189-9.955-4.161-18.721a57.729,57.729,0,0,0-6.983-14.264c1.337.595,6.835,9.509,10.1,18.276a40.837,40.837,0,0,1,2.377,14.115c1.783-2.378,1.634-6.984.891-10.7a37.453,37.453,0,0,0-1.783-5.349c-.743-2.229-1.931-5.646-3.268-9.36-2.823-7.429-5.2-10.7-9.955-16.939A77.61,77.61,0,0,0,711,573.828c-.3-.3,0-1.04.743-.594,1.337.594,8.32,6.686,14.115,14.263a62.311,62.311,0,0,1,11.292,20.95c.743,2.823,1.486,4.9,1.931,6.835,1.04-2.377.892-5.8-.445-10.7a76.2,76.2,0,0,0-10.1-21.693c-4.9-6.686-10.1-11.292-18.572-18.275,2.08.446,6.389,3.269,11.737,8.766s7.875,7.726,7.875,8.172v1.635a83.212,83.212,0,0,1,10.549,21.989,27.321,27.321,0,0,1,.743,3.715,18.008,18.008,0,0,0,1.932-6.24c-.446-3.566-1.04-7.132-1.783-10.55-1.486-6.537-3.418-14.115-3.566-14.858-.446-1.485.3-1.485.891-.148.149.446,1.338,3.714,2.229,7.132,1.337,4.754,2.526,10.549,3.12,13.818.446-.3.892-.595.892-.892S744.43,584.22,742.5,577.533Zm-34.174,33.431c0,.594-1.634-.891-5.2-3.863s-6.538-5.052-6.538-5.052c2.229.446,8.618,5.2,11.738,8.915Zm-.594,10.7c-2.229-2.229-3.715-3.269-3.12-3.863,1.04.3,8.023,7.28,7.726,7.726s-2.377-1.783-4.606-3.863Zm.891-4.606c-4.457-3.863-8.766-7.578-8.766-7.578,2.229.3,14.115,9.955,15.6,13.224-.743,0-2.229-1.783-6.835-5.646Zm-2.674-76.222a8.051,8.051,0,0,1,5.2,1.635c1.932,1.783,3.715,3.268,3.715,3.268-1.189,0-6.984-4.308-7.726-4.308-2.081,0-5.944,2.377-6.389,1.931a10.065,10.065,0,0,1,5.2-2.526ZM702.681,560.6c.892,0,3.863.743,4.458,2.229-3.864-1.189-9.51,0-13.075,1.04C695.7,562.23,701.79,560.447,702.681,560.6Zm-11.589-12.48c0,1.485-.3,1.485-1.189-.149s-3.566-5.349-3.566-5.349c3.863,3.12,4.9,4.012,4.755,5.5Zm-36.111-13.668a80.725,80.725,0,0,1,17.978,2.526,46.537,46.537,0,0,1,10.7,4.012c-9.658-2.675-14.264-4.16-20.95-4.9a81.311,81.311,0,0,0-12.035-.446c-4.606.148-8.32.743-8.32.446.3-1.189,6.983-1.635,12.629-1.635Zm-12.481,21.1a119.581,119.581,0,0,0-9.509,7.726c-3.566,3.566-8.172,8.469-9.509,9.806,0-1.634,5.943-7.875,9.806-11.738s7.726-5.794,9.212-5.794Zm-20.207,8.469c-4.9,4.9-8.023,10.4-9.509,10.7,2.229-5.5,12.63-15.6,18.87-20.949s7.28-6.092,7.577-5.646a39.862,39.862,0,0,1-4.457,4.16c-3.863,3.566-9.509,8.766-12.481,11.738Zm-15.006-4.309a140.888,140.888,0,0,1,10.4-9.658c3.715-2.971,6.984-5.052,9.361-6.835,4.754-3.565,9.806-6.537,12.926-6.537v.743c-3.417.891-7.429,4.16-12.332,7.429s-8.469,4.754-13.521,9.806c-3.417,3.269-10.252,10.549-15.3,16.641-2.675,3.269-4.9,6.686-5.8,7.578.446-2.378,9.361-14.115,14.264-19.167Zm-9.806,23.324c-1.337,2.229-2.674,4.16-3.714,6.24-1.337,2.526-2.229,5.052-2.823,5.052.743-4.16,3.863-9.361,7.578-15.6s13.669-16.047,13.817-16.2.892.446.6.743a23.173,23.173,0,0,0-6.092,5.943,150.243,150.243,0,0,0-9.361,13.818Zm7.132,31.648c-3.12,9.954-4.309,13.817-4.309,13.817,1.189-7.28,5.8-24.367,10.7-32.984-.445,3.268-3.12,9.212-6.389,19.167Zm7.875-20.8c.594-2.526,3.417-6.389,8.172-12.183a139.2,139.2,0,0,1,12.778-12.035c2.971-2.675,5.2-5.2,6.835-5.349a148.451,148.451,0,0,0-16.344,15.749c-7.429,8.172-11.144,13.818-11.441,13.818Zm28.676-14.412a71.756,71.756,0,0,0-12.035,9.212c-2.972,2.823-5.052,5.646-6.389,6.24.892-3.268,13.075-15.3,26.3-20.949.3.445-1.189,1.485-7.875,5.5Zm25.11-9.806c1.337-1.337,2.823-1.189,2.823-.892s-2.816.89-2.816.89Zm5.2-1.932c2.972-1.188,4.755-1.188,4.755-.148A25.445,25.445,0,0,1,671.474,567.729Zm-9.955-3.417c-21.246,8.915-29.864,16.641-37.887,26.447,2.08-5.052,7.577-12.481,20.949-19.91s27.488-12.183,36.254-11c-1.932.595-9.658.595-19.316,4.458Zm19.91-13.075a97.771,97.771,0,0,0-21.841,1.634c-8.618,1.337-11.589,2.08-15.6,2.823-1.337.3-1.486,0,0-.594a120.774,120.774,0,0,1,17.681-3.715c9.509-1.337,20.058-1.04,21.1-.594s6.835,6.092,6.835,8.023c-2.823-1.783-4.16-4.754-8.172-7.577Zm26.452,37.737a85.96,85.96,0,0,0-18.126-6.835c2.228,0,8.617,1.635,15.452,4.755,6.092,2.674,12.481,6.686,15.155,11.589C719.172,597.889,715.16,592.986,707.881,588.974Zm4.012-7.132c8.766,6.389,10.549,9.955,11.144,11.59a84.56,84.56,0,0,0-12.035-11c-6.835-4.9-12.927-6.686-18.276-6.686,1.932-.743,10.4-.3,19.167,6.091Zm-.3-22.732c-2.972-2.081-6.686-5.2-7.726-5.2s-6.092.6-8.469,2.229c0-1.04,2.08-2.377,4.457-2.823a9.188,9.188,0,0,1,5.646.594,43.3,43.3,0,0,1,11,7.726c4.458,4.458,5.052,5.349,5.052,6.835a59.479,59.479,0,0,0-9.955-9.36ZM729.125,570.4c-.742,0-2.377-2.972-4.308-5.8s-3.715-5.646-10.4-10.7-8.32-6.537-10.846-6.537a48.448,48.448,0,0,0-6.686,1.337c-.6,0,0-1.189,2.674-1.932s4.012-.742,7.578.743,9.36,6.389,15.155,12.184a31.373,31.373,0,0,1,4.16,5.5c1.634,2.526,2.823,4.309,2.674,5.2ZM721.7,552.126a.279.279,0,0,1-.054-.391.276.276,0,0,1,.054-.054.146.146,0,0,0,.149-.143v-.006c7.28,7.28,13.818,16.641,14.115,20.95A104.182,104.182,0,0,0,721.7,552.126Z" style="fill:#fff"/><path id="bottes" d="M698.816,1471.247c-2.377-11.292-5.8-24.962-7.132-32.093-.446-2.378-.891-4.606-1.188-6.538a73.065,73.065,0,0,0-9.807-9.36,19.01,19.01,0,0,1-3.12-5.646c-.891-2.378-2.08-5.944-3.12-8.024,0-1.783.149-3.566.3-5.349a1.792,1.792,0,0,1-.743-.743,80.683,80.683,0,0,0-24.367,5.5v.594c0,2.229,1.486,6.538,1.486,9.658s-.892,3.417-2.675,10.995a48.551,48.551,0,0,1-4.308,11.738c0,1.634.148,3.566.3,5.646H642.51c-.148-2.526-.148-4.9-.148-7.132,0-12.481-.595-20.207-.595-20.207a19.592,19.592,0,0,1-3.268-3.714c-1.041-1.783.148-2.378,1.188-4.9,0,0-5.794-4.011-5.794-5.5v-.149l-2.378-.3v-1.337l3.269-.149.446-.891a13.361,13.361,0,0,0,1.188-4.16c0-.6-2.08-1.486-3.417-2.823a4.661,4.661,0,0,1-.743-1.486c-1.783-.3-5.052-1.04-6.092-2.229a28.151,28.151,0,0,1,5.944,1.189c-.149-.594-.149-1.337-.3-2.08-.445-4.161-3.12-33.877-4.754-50.072-1.337-12.629-3.269-22.138-4.9-31.5h-.3v-2.674h-.149c-.3-1.783-.594-3.418-.743-5.2-.743-5.5-1.337-9.509-1.931-13.075h1.485c.743,4.161,1.635,9.212,2.675,15.453,2.674,16.046,5.5,38.631,7.28,53.934s3.418,34.025,3.418,35.214,3.12,3.714,4.16,4.754-2.08,6.687-2.08,7.875,3.12,2.823,5.2,4.755c.891.891-.743,3.12-.743,3.863s.594,1.486,2.229,3.417c1.188,1.337.594,2.229.594,2.229s.594,8.172.892,16.492c2.228-3.269,3.268-8.766,4.308-12.481,1.189-4.16,1.932-4.9,1.338-8.617a44.72,44.72,0,0,1-.892-6.538,62.066,62.066,0,0,0-6.24,2.972s.3-1.04.594-1.189c2.08-1.04,3.863-1.931,5.646-2.674a4.107,4.107,0,0,1,.149-1.337c.148-1.041.446-2.675.743-4.161h1.188c-.3,1.932-.594,3.566-.743,5.052,9.658-4.16,14.561-5.052,24.07-5.052a5.285,5.285,0,0,1-.594-1.337c-1.337-3.863-2.972-4.606-2.972-4.606l-.148-2.08c-4.309-1.04-6.686.3-10.549,1.486s-5.646.3-8.172,1.783a17.849,17.849,0,0,1-.446,2.971h-1.189c.149-.743.149-1.485.3-2.377,0-.891,1.04-1.783,3.565-2.823a81.755,81.755,0,0,1,8.618-2.229c3.417-.743,8.023-.743,8.766,0s.446,2.229,1.189,2.972a12.789,12.789,0,0,1,2.229,4.755c1.04,1.04,1.634,2.08,1.634,7.874,1.932,3.715,3.417,10.4,4.9,12.035s5.8,4.458,9.212,8.618a36.9,36.9,0,0,1-.594-6.983c0-4.161.594-9.807-.892-13.818a48.269,48.269,0,0,0-2.674-6.389c-1.783,2.228-4.755,4.606-6.983,6.834-1.486-1.485,5.051-6.834,6.091-8.914s3.715-4.309,3.715-5.349c0-.6-.743-1.338-1.337-2.229s-1.189-1.634-1.189-1.634h-1.04c1.189-3.418,4.755-4.458,4.755-6.984s-2.823-17.829-4.012-32.836-2.526-26.3-2.526-36.4c0-9.212.892-10.549-.3-12.184a2.91,2.91,0,0,1-1.189-.148c-2.823-.594-3.268-1.189-3.714-5.052-.149-1.634-.446-5.5-.743-10.252H679.5c.148,4.606.3,8.321.445,9.361.446,4.754,2.081,5.051,2.972,5.051s2.08-1.04,2.08-1.634-.446-14.264-.446-28.527-.3-18.127-.891-19.613-4.309-3.714-6.835-3.714-7.132.742-6.834,8.32a15.306,15.306,0,0,1,5.2-.891,5.525,5.525,0,0,0-2.823-2.972c-1.04-.594-1.486-1.486.3-1.486s4.309,2.526,5.052,8.023c.445,3.715,1.04,17.087,1.486,26.893h-1.486c-.446-6.686-.743-14.858-1.04-20.5a48.834,48.834,0,0,0-.743-8.023c-8.618.892-13.075,4.16-18.721,9.806s-8.469,12.778-11.292,21.1c-1.338-.446-3.121-3.12-5.2-5.943s-4.011-5.5-6.091-7.875c-4.161-5.052-9.212-6.686-12.184-8.172s-5.5-3.566-5.2-4.012,1.931.892,4.9,2.378l.594.3a12.2,12.2,0,0,0-.3-4.012,3.281,3.281,0,0,0-1.932-1.486c-1.634-.3-3.268,1.337-4.754,2.675s-1.189,2.377,1.188,10.4c1.338,4.458,2.526,8.915,3.418,13.372h-1.483c-.594-2.971-1.337-5.794-2.229-9.212-2.228-8.171-3.417-11.589-3.417-12.777s.891-2.378,2.972-4.458a4.646,4.646,0,0,1,1.634-1.337c-1.783-1.783-2.972-2.229-2.377-2.229a3.1,3.1,0,0,1,1.634.149c-.149-.743-.3-1.337-.446-2.08a7.988,7.988,0,0,0-2.971,1.486,15.784,15.784,0,0,0-4.309,6.091c-.743,2.378-.3,6.241-.3,7.875s2.971,9.361,4.9,19.018,3.417,17.384,3.417,18.721c0,.743.892,1.486,2.229,1.486v1.189h-.737s4.16,20.95,5.646,34.025,1.486,30.161,1.486,38.779a52.769,52.769,0,0,1-1.337,13.669c-.446,2.972,2.08,3.864,4.754,7.578h1.486v1.189c-.3,0-.743-.149-1.04-.149-.446,0-1.634-.3-3.566-2.229l-1.783,1.783a17.059,17.059,0,0,1,3.12,3.418c0,.445-3.863,6.389-8.023,13.223-1.932,3.121-3.417,6.092-5.052,8.915a99.824,99.824,0,0,1-5.943,9.361c-1.783,1.783-5.2,1.04-6.24,2.08a44.2,44.2,0,0,0-4.458,5.943c-1.04,1.634-4.606,2.674-13.075,7.726s-14.263,6.538-19.464,10.7-4.16,9.212-4.16,9.212.743,1.486,8.469,2.823,13.669,1.634,29.567,1.634,16.2-.594,21.842-3.268,13.669-10.1,22.435-17.384c-.148-3.269-.445-6.538-.445-9.807h1.931c.594,9.064,1.486,20.059,1.486,25.853v8.321c2.526,7.429,2.823,8.32,8.915,16.789,6.686,9.212,16.046,18.424,17.532,19.019s9.658,0,11.738-1.04,5.2-7.429,9.063-16.344a107.507,107.507,0,0,0,6.835-23.327A64.842,64.842,0,0,1,698.816,1471.247ZM674.9,1386.11c-3.863,1.783-4.9,1.04-10.4,1.635s-10.549,3.12-12.332,4.754-3.417-.3-.892-1.485c6.687-3.418,17.087-5.646,23.625-4.9Zm-19.316-.445c4.012-1.635,3.863-2.378,6.092-2.675a59.334,59.334,0,0,1-6.537,4.012,25.5,25.5,0,0,0-6.835,5.052.993.993,0,0,1-1.385.23.882.882,0,0,1-.1-.082c-.149-.148-.3-.445-.446-.594-.148-.743,5.2-4.309,9.212-5.943Zm-47.843,62.106a113.366,113.366,0,0,1,9.361,9.509c-6.537-5.5-9.658-9.36-13.372-10.7,0-.6.446-1.339,4.011,1.187ZM616.354,1461c1.04,1.04,3.417,3.714,3.417,5.349C617.691,1464.412,615.314,1460.1,616.354,1461Zm-2.973-13.228c-1.486-1.634-2.526-1.634-2.526-2.08,0-.743,1.188-1.189,3.12.891a47.792,47.792,0,0,1,6.835,11.144c-2.229-3.269-4.755-6.686-7.429-9.955Zm40.265,10.549c-5.052,3.418-5.2,4.012-5.646,3.566-.149-.148,1.485-1.931,4.16-3.863a66.443,66.443,0,0,1,13.521-7.429C664.938,1451.63,658.7,1454.9,653.646,1458.316Zm19.612-1.188a37.321,37.321,0,0,0-9.955.446c-3.863,1.04-5.646,3.12-5.943,2.08.3-2.08,7.578-4.161,13.224-4.161s15.155,2.675,16.789,4.161C686.185,1459.8,679.35,1457.574,673.258,1457.128Zm16.79,2.08c-.3.3-5.349-1.932-7.429-2.675-4.012-1.485-9.658-2.971-9.658-2.971l.743-.6a33.051,33.051,0,0,1,11.738,3.269c3.12,1.486,5.349,2.229,4.606,2.972Zm-2.675-4.16c-.594,0-1.485-.149-4.606-2.526a10.5,10.5,0,0,1-3.714-1.635,17.7,17.7,0,0,1,7.28,1.932,15.258,15.258,0,0,1,6.241,4.755c-3.269-1.041-4.755-2.526-5.2-2.526Z" style="fill:#fff"/><path id="bout-bottes" d="M700.45,1480.752c-2.228,11.589-3.12,14.264-6.834,22.733-3.863,8.915-6.686,15.3-8.469,16.046s-10.252,1.486-12.927.6-11.44-9.658-18.424-18.573a72.227,72.227,0,0,1-8.023-12.926v.445h-.3v-17.086h-.743v-.446h-.892c-.148-2.972-.445-6.835-.742-11-3.418,3.269-15.75,15.007-24.07,17.83-9.658,3.268-22.585,2.823-35.362,2.823-11.738,0-20.207-2.08-23.625-4.458h0l-2.674,1.189s1.04,6.537,1.931,7.429,29.122,3.714,39.968,4.309,15.6-.3,21.545-2.229,14.412-7.429,23.029-14.115v-.149h.6v17.236h1.04v-.446h.446v-.15a36.059,36.059,0,0,0,.445,5.646c.743,3.715,1.783,6.538,9.212,17.385a81.7,81.7,0,0,0,16.641,17.681c.743.743,3.863.6,8.915.149s5.5-1.04,9.509-7.132a58.825,58.825,0,0,0,7.875-15.9c1.634-5.5,3.566-8.915,3.566-11.143A110.942,110.942,0,0,0,700.45,1480.752Z" style="fill:#fff"/><path id="boutons" d="M705.205,959.83l-1.04-1.04a3.269,3.269,0,0,0-2.377,1.337l-26.3-17.086c1.189-.149,2.377-.743,2.377-2.229a3.668,3.668,0,0,0-1.783-2.675l-3.566.149-.148.149-35.957-8.915a2.8,2.8,0,0,0,.446-2.377,4.935,4.935,0,0,0-4.457-4.606,4.44,4.44,0,0,0-4.012,4.011l-23.178,9.658a2.542,2.542,0,0,0-2.823-.892c-3.418,1.04-1.635,4.309.148,4.9a2.5,2.5,0,0,0,2.972-1.783c0-.3.148-.446,0-.743v-.6l22.733-9.36a3.377,3.377,0,0,0,3.012,3.705l.108.009a3.772,3.772,0,0,0,1.783-.3c.743-.3,1.485-.446,2.08-.743l36.551,9.064c-.892,2.228,1.485,3.714,2.674,3.714h.446l26.744,17.384a2.755,2.755,0,0,0,.892,3.12c2.377,2.378,4.16-.446,4.308-2.228A17.07,17.07,0,0,1,705.205,959.83Z" style="fill:#fff"/><path id="pantalon" d="M712.781,963.4c-.149.149-.3.149-.6.149a4.2,4.2,0,0,1-3.714-.892,6.712,6.712,0,0,1-2.972,3.12c-.148,18.276-5.349,41.008-8.469,56.609-3.12,15.75-9.063,35.362-11.738,40.86,1.189-5.5,4.161-13.818,7.281-26.447,3.417-13.818,6.983-31.945,8.469-39.374,1.188-5.8,1.783-11.441,2.377-16.2a87.29,87.29,0,0,0,1.486-15.155,3.612,3.612,0,0,1-4.16-1.783,5.088,5.088,0,0,1-.149-4.161c-6.835-1.634-12.183-3.714-16.344-8.32l-1.783-2.08H684.1c3.417,3.863,7.726,6.983,17.086,9.212a5.133,5.133,0,0,1,1.635-1.486c-3.418-3.566-5.2-6.24-6.092-9.955s-.743-6.389-1.189-10.7c-5.5.3-11.737.743-17.681,1.189a4.117,4.117,0,0,1,.3,4.309h0c1.635,2.228,3.269,4.308,5.052,6.389h-1.486c-2.08-2.526-3.714-4.458-4.457-5.2a4.541,4.541,0,0,1-2.972,1.04,3.947,3.947,0,0,1-4.16-3.566,3.887,3.887,0,0,1,.743-2.525l-3.417.148c-6.686.3-12.332.3-14.264.3A3.312,3.312,0,0,1,650.375,942a35.487,35.487,0,0,1-5.646.148c-1.04,0-1.783-.743-2.08-3.417h0s-1.783-.149-4.458-.3c-.891,8.766-2.08,15.452-2.08,21.247a99.665,99.665,0,0,0,16.2-2.675c.445,0,1.485.149-.3.892a57.484,57.484,0,0,1-15.749,3.417v.446c.148,2.971.594,6.24,1.04,10.1h-1.04c-.149-2.08-.446-4.16-.743-6.092-.892-6.24.446-17.532,2.08-27.487-2.526-.149-5.8-.446-8.915-.594-1.337-.149-2.526-.3-3.714-.446v3.269c.148,7.132.594,21.247.891,31.2h-1.337c-.149-9.361-.446-23.476-.743-30.162,0-1.486-.148-3.12-.148-4.606a68.263,68.263,0,0,1-7.578-1.486c0,4.606-6.538,3.715-8.618,2.526a1.809,1.809,0,0,1-.743-.743c-.594,2.972-2.377,3.863-4.16,3.417a29.5,29.5,0,0,1-3.566,4.9h-1.487a18.186,18.186,0,0,0,3.864-5.646l-.743-.742a3.744,3.744,0,0,1,.445-5.2c.149-.148.3-.3.446-.3-3.12-.743-7.132-1.783-10.549-2.823V929.36c3.417,1.04,8.023,2.229,12.778,3.269v.743h3.566a16.349,16.349,0,0,0,.3,2.674c.3,1.486,3.566,1.783,5.5,1.486s1.783-1.04,1.486-3.714h0v-.446h1.486v.743a58.446,58.446,0,0,0,7.578,1.04v-1.783h1.188V935.3c5.795.6,12.63.892,17.83.892v-2.972h.891v3.724c0,2.823.446,3.566,1.635,3.566s2.377-.3,4.457-.3,2.08-.892,2.08-2.229v-4.755h1.337c0,1.783.149,3.12.149,3.863,14.412-.743,37.591-2.377,41.9-2.674,0-.446-.149-.892-.149-1.486-.743-5.052-2.08-11.441-3.12-16.492-.892.743-1.486,0-4.012.594a70.76,70.76,0,0,1-17.681,1.783H652.756c0,1.337.3,8.469.446,13.521h-1.337c0-3.418-.149-8.172-.149-13.818a16.335,16.335,0,0,0-7.577-.149c-.3,4.9-.446,10.252-.446,14.115H642.8a82.605,82.605,0,0,1,.743-13.52.544.544,0,0,1,.149-.446h0s-9.063-.594-17.681-1.486a89,89,0,0,0-1.04,15.452h-1.191a89.042,89.042,0,0,1,.892-15.452c-2.378-.3-4.9-.594-6.835-.891-.892,1.04-1.634,8.171-1.634,16.343h-1.486a25.975,25.975,0,0,1,0-3.417c.148-3.714.594-8.172.891-9.955a29.651,29.651,0,0,1,.6-3.566,46.727,46.727,0,0,0-6.538-.445,32.667,32.667,0,0,0-1.783,9.36,48.224,48.224,0,0,0-.3,8.023H606.1a48.634,48.634,0,0,1,.446-5.943c.446-6.092.891-9.806,2.823-11.589h0s-11.887-2.08-19.464-4.012c-.743.446-1.337.892-2.08,1.337-.6.6-1.932,6.687-1.932,15.6,0,0,1.635.6,4.309,1.338V930.7c-1.783-.594-3.566-1.04-4.755-1.485a9.586,9.586,0,0,0-.594,2.971c-.446,2.378-.446,14.561-.446,22.287a28.82,28.82,0,0,0,12.927-8.023h1.634a31.116,31.116,0,0,1-14.561,9.658v2.823c0,5.943-2.525,7.28-3.268,10.1s1.04,4.16,1.337,7.726.3,23.476.3,36.105,2.229,44.277,3.715,58.392,4.011,28.528,5.646,38.78,4.16,25.258,6.537,38.036,5.943,28.676,7.726,35.362a85.389,85.389,0,0,0,6.389,15.75c2.08,4.16,2.972,6.24,2.526,6.686s-2.229-2.972-4.457-6.835c0,15.155.594,24.813,1.634,30.608s3.715,16.195,5.8,27.635c.445.3.891.743,1.485,1.189l1.486.3a51,51,0,0,1-.743-8.32c-.594-11.292-1.04-13.818-.3-22.882s1.04-10.4.6-13.52-3.418-8.618-4.161-16.493a151.131,151.131,0,0,1,.3-27.19c.743-7.875,1.338-12.035.892-15.6s-.594-18.424-.594-27.487,1.783-37.294,2.823-45.02,2.526-20.355,4.308-32.242c1.189-8.023,4.458-23.773,6.687-34.322,1.04-4.9,2.228-8.469,2.228-9.806,0-4.16-1.634-9.361-1.634-11.292a3.127,3.127,0,0,1,.743-1.932c-1.337-1.783-6.686-5.646-13.967-8.766-7.874-3.417-15.9-5.943-18.572-5.943s-4.9,0-4.9-1.04c0-.6,4.9-.149,10.1,1.04a118.689,118.689,0,0,1,12.332,3.863c2.08.743,4.012,1.634,5.8,2.377,1.337-1.04,1.634-1.634,1.634-3.863,0-.743,0-4.012-.148-8.32h1.337c.148,5.646.148,9.955.148,11a3.026,3.026,0,0,1-.891,2.228c4.606,2.526,7.28,4.9,7.875,6.389.743-.891,1.931-2.08,3.12-3.566a3.919,3.919,0,0,1,.743-.891,101.532,101.532,0,0,0-.6-15.007h1.041a86.275,86.275,0,0,1,.742,13.818c1.189-1.04,2.378-2.229,3.418-3.12,2.377-2.229,4.011-3.566,5.794-4.012-3.566,2.08-13.372,12.778-13.966,14.561s-.446,2.823.446,5.5a10.332,10.332,0,0,1,.148,7.874c-1.04,3.715-1.486,7.727-3.417,17.236s-3.269,18.721-5.5,34.47-3.863,30.459-4.9,47.694c-1.188,17.236-.891,39.077-.891,50.221s-1.932,27.041-.743,38.482,3.863,13.669,3.863,19.018-1.634,19.91-.743,31.648c.594,6.834,1.04,10.4,1.486,13.669a27.222,27.222,0,0,1,.743,6.983,37.287,37.287,0,0,1,6.686,3.863c4.9,3.566,6.835,6.538,13.669,16.2a46.745,46.745,0,0,1,12.481-21.247c3.863-3.418,7.132-6.389,11.143-8.024a16.365,16.365,0,0,1,.6-4.606h0a52.663,52.663,0,0,0-1.04-10.846,166.462,166.462,0,0,0-5.349-20.95,88.213,88.213,0,0,1-4.309-16.344c-1.486,3.269-2.972,6.389-4.309,8.915.743-5.943,6.983-16.938,5.646-22.584-.743-3.417-2.971-4.9-3.863-8.023a24.231,24.231,0,0,1-.148-8.024c.594-8.914,5.794-28.824,9.36-41.9s3.417-14.413,6.092-23.624,5.646-18.424,13.521-42.94c0,3.269-10.252,34.619-12.778,44.574s-4.012,15.006-8.469,30.607-7.281,34.62-7.281,39.077,4.161,6.24,4.9,11a15.193,15.193,0,0,1-.891,7.28h0a28.184,28.184,0,0,0-.3,11.144c.446,3.417,4.754,12.629,7.28,23.475,1.635,6.687,2.675,14.413,2.378,16.939h0a6.185,6.185,0,0,1,3.565-3.121l1.338-.445a141.1,141.1,0,0,0-3.269-20.8c-3.12-12.183-7.429-21.989-8.172-25.555-.743-4.755,1.634-5.5,1.634-8.024s-3.566-6.091-3.566-11.737,2.229-21.247,9.807-46.06,16.789-48.437,23.327-72.953c2.823-10.847,5.5-20.207,8.023-30.756,3.12-13.075,5.8-27.042,8.023-37.591,4.161-19.018,4.012-24.664,4.012-29.122C713.381,964.288,713.081,963.99,712.781,963.4Zm-80.232-41.749A5.27,5.27,0,0,1,637.6,927c0,2.674,0,4.309-3.566,5.2s-6.686.6-7.132-4.754a5.481,5.481,0,0,1,5.312-5.645h.037A.46.46,0,0,1,632.549,921.647Zm-28.23,47.843a35.4,35.4,0,0,1-5.943-4.606l.446-.3a85.872,85.872,0,0,1,12.629,9.212c-1.189,0-3.27-1.782-7.132-4.308Zm43.237,249.02a82.87,82.87,0,0,1,3.417-10.252c1.189-3.269,2.229-7.875,2.972-9.063C654.985,1201.423,650.528,1215.538,647.556,1218.51ZM676.681,973.5c-1.635-.891-8.024-.594-17.83,5.349s-17.384,11.738-21.693,14.858c-1.485,1.189-2.228,1.04-.594-.594a154.489,154.489,0,0,1,21.4-15.155c9.954-5.943,16.789-7.875,19.909-6.092,1.338.743.446,2.526-1.188,1.634Z" style="fill:#fff"/><path id="yeux" d="M677.272,644.547c-.892-4.457-2.377-6.537-4.606-8.023-.891.594-1.932,1.04-2.823,1.634a5.9,5.9,0,0,1,2.08,3.863,6.658,6.658,0,0,1-.594,2.972c2.377,3.566.891,9.509-2.526,9.063-2.526-.3-3.715-3.12-3.269-7.429a3.9,3.9,0,0,1-1.931-2.377,55.476,55.476,0,0,0-.149,8.618c.446,4.308.3,5.943,3.417,5.943h1.04v4.011H624.823v-5.794l.743.148a15.444,15.444,0,0,0,.594-5.794,33.218,33.218,0,0,0-2.823-11.292l-.148-.149a21.653,21.653,0,0,1-1.337,2.377,24.848,24.848,0,0,1,.742,4.606c0,2.675-1.04,4.755-2.674,4.606s-2.08-2.08-1.932-6.389h-.742v3.269c0,3.12.3,5.2.891,5.646a16.985,16.985,0,0,0,4.309,2.229c.446.149,1.04.3,1.486.446v9.212h.891v-2.526H669.1v-4.755a75.328,75.328,0,0,0,8.023-1.337C678.312,654.2,678.163,649.147,677.272,644.547Z" style="fill:#fff"/><path id="PEAU" d="M782.764,803.672c-13.075-19.761-23.624-36.105-27.19-41.3a95.531,95.531,0,0,1-8.024-14.858c-2.971-6.092-5.349-9.509-8.023-11-.446.149-.743.446-1.189.6-3.714,1.931-12.332,8.914-14.858,13.372a37.975,37.975,0,0,0-1.634,3.566H677.421a44.351,44.351,0,0,0,4.9-9.509,68.594,68.594,0,0,1-1.932-6.835l-.148-.594c-1.635,1.188-5.2,3.863-8.172,6.091V700.558a59.071,59.071,0,0,0,5.943-.743,64.271,64.271,0,0,0,13.969-3.568,151.6,151.6,0,0,1,1.783-16.492c-2.526,2.228-5.2,4.457-8.172,6.686v-1.783a105.611,105.611,0,0,0,18.127-17.384c1.932,1.931,6.835-.3,12.035-3.417s11-7.429,12.63-11.293-.149-15.6-1.338-19.166-6.24-8.618-8.617-8.618-4.9,4.012-7.132,8.915c-1.783-1.783-1.635-2.675-3.418-5.8a.54.54,0,0,1,.446.149c-1.188-1.783-4.16-5.943-7.28-11.292-4.012-6.835-9.212-17.681-13.967-26.448-.891-.743-1.783-1.337-2.377-1.931l-3.417.3A67.159,67.159,0,0,1,679.5,580.8c-1.04,1.486-4.012,5.052-6.984,9.509-5.051,7.578-10.7,17.533-12.332,20.059a38.862,38.862,0,0,1-12.778,13.223c-6.834,4.458-14.263,7.429-18.424,6.835,5.5-.743,13.373-6.538,19.167-15.007a187.757,187.757,0,0,0,17.087-28.23c-21.544,13.224-32.242,23.179-39.82,34.322a127,127,0,0,0-7.429,12.184,136.1,136.1,0,0,0,14.264,9.955c.149.148,0,1.188-.594,1.04a8.8,8.8,0,0,1-1.189-.6,38.493,38.493,0,0,1,1.04,13.67c-.148,1.486-4.606.891-7.577,0s-6.241-2.823-6.538-3.566c-.148-.446-.3-1.04-.446-1.486-.742-.3-2.674-1.04-2.823-1.189s.892-.148,2.526-.743c0-.445-.148-.891-.148-1.337v-1.04h-.3v-.891h-.149v-2.379l-.3-.148v-1.042h.3a24.959,24.959,0,0,1,.149-3.269c-.149-.149-.3-.149-.446-.3v-1.331c.148,0,.3.148.594.148.149-1.04.149-2.228.3-3.269-.445,1.041-.891,2.081-1.337,2.972l.446.149v1.337l-.743-.594a26.706,26.706,0,0,0-1.189,3.12,5.5,5.5,0,0,0,2.08,1.04v1.04a7.13,7.13,0,0,1-2.377-1.189c-.3.892-.743,1.932-1.04,2.823a8.713,8.713,0,0,0,3.417.6v1.188c-1.04-.3-2.674-.891-3.566-1.188-.3.742-.445,1.485-.742,2.377h0c1.188,2.229,2.525,4.9,4.16,8.172,5.5,11.589,5.2,17.235,9.212,21.247s11,7.577,19.761,12.183,13.669,6.389,15.9,6.389,4.457.446,13.818-5.349c3.12-1.931,6.092-3.714,9.212-5.794v1.783c-9.063,6.389-20.653,11.292-23.624,11.292a8.66,8.66,0,0,1-2.675-.6c-.594.6-.594,1.189,0,2.675,4.309,0,9.064-.149,13.224-.446v43.98l-.892.594c-4.011,2.675-5.943,2.675-16.641,2.675s-16.641-1.189-19.464-2.526-6.983-5.646-11.292-12.332l-.3-.446a60.278,60.278,0,0,0-2.971,21.247H592.881a118.058,118.058,0,0,1-5.943-12.332c-9.063,10.1-22.138,23.475-32.093,34.47a367.579,367.579,0,0,0-29.27,37c-6.389,9.509-11,16.789-11,16.789a71.076,71.076,0,0,0,4.606,11.734,102.693,102.693,0,0,0,11,16.492c4.457,5.052,19.166,19.167,28.973,28.379s19.464,19.464,19.464,20.207a12.174,12.174,0,0,1-.446,4.606c-.743,1.783-3.714,7.132-4.16,12.629s1.486,14.71,1.486,17.236c-2.823,5.2-4.012,8.32-5.349,8.617v-1.188c-4.755-2.229-6.538-1.486-6.538-1.486a2.545,2.545,0,0,1,1.932-1.04,10.981,10.981,0,0,0-.149-5.8c-.743-1.931-1.486-2.674-1.931-2.674s-1.189.743-1.783,3.714-2.378,6.538-2.378,8.469.6,3.121,5.349,5.646c4.755,2.675,6.538,3.715,8.024,3.121s5.051-4.606,6.24-6.538,2.377-2.674,2.674-2.377-.743,3.269-2.525,5.052c-1.189,1.188-2.378,2.525-3.418,3.565.6,2.972,4.309,3.418,6.538,1.932.445-4.309.148-11.589.445-19.91.446-9.212.3-10.252,1.635-11.589-.446-5.8,1.188-11.441,1.188-13.818a6.6,6.6,0,0,1,3.566-5.8v-.3h1.189c-.149.446-.149.892-.3,1.189,0,0,11.143,2.08,20.207,4.606a9.328,9.328,0,0,1,8.617.594c4.012.3,17.681,1.635,26.6,2.229h0a6.573,6.573,0,0,1,3.269-.743,4.7,4.7,0,0,1,3.417,1.04c9.955,0,18.87.3,26.15-.3a82.876,82.876,0,0,0,13.373-1.932c-.149-.594-.3-1.337-.446-1.783a31.9,31.9,0,0,1-.594-3.714c-22.585,3.566-56.312,1.634-71.913-.149a180.991,180.991,0,0,1-26.745-5.2l-1.04-.149a6.17,6.17,0,0,0-.445,2.378h-1.338a16.361,16.361,0,0,1,.3-2.675,2.676,2.676,0,0,1-2.229-2.228c-.3-1.189.148-7.578,1.337-14.561-4.16-5.052-9.955-13.372-15.007-21.1-5.348-8.023-11.44-21.1-15.452-27.636s-6.537-9.657-9.955-11.737a4.218,4.218,0,0,1,2.526,1.337h0c12.629-12.629,31.945-31.053,35.659-34.471-.3-.743-.743-1.634-1.04-2.526-3.566-8.171-1.634-14.56.6-20.5,2.525-4.754,5.349-9.36,8.32-13.818l-.446-.594h24.949c1.337,11.738,3.863,15.007,13.521,17.83,3.268-6.835,5.5-11.738,6.686-11.738,0,1.189-1.783,2.823-2.972,5.646a10.511,10.511,0,0,0-1.04,6.686c10.252,2.08,23.476-.891,29.568-6.24a81.715,81.715,0,0,0,11.589-12.184h45.02c-.743,2.526-1.338,5.349-2.378,8.915a53.194,53.194,0,0,0-1.337,6.686c2.377-.446,3.566,1.04,6.686,4.755a203.88,203.88,0,0,1,15.6,21.544c4.16,6.389,10.549,15.006,16.492,22.881,5.2,6.686,9.955,12.927,11.59,16.344a200.564,200.564,0,0,0-24.219,20.5c-8.469,8.469-22.435,23.178-30.9,30.607s-13.372,9.955-16.641,13.967-3.863,4.309-3.714,9.063c.3,4.755,2.377,12.63,4.16,20.95s1.189,14.561,2.526,17.533,9.955,12.332,11.738,12.332c1.04,0,1.783-.892,2.674-2.378h2.08v.149a19.311,19.311,0,0,1-1.485,2.229c.148.594.594,1.188,1.931,1.634,2.526.743,3.418,1.337,5.2-.446a5.5,5.5,0,0,0,1.782-3.566h1.486a15.932,15.932,0,0,1-.891,2.823,1.8,1.8,0,0,0,1.931.446c2.08-.3,2.675-.148,3.269-2.674l.149-.595h1.485c-.148.3-.148.595-.3.892-.891,2.972-1.188,3.269-3.566,3.714H726c.6.743,1.783,2.229,3.12,2.081,1.932-.3,4.012-4.012,6.389-7.875.3-.446.6-1.04.892-1.486l-1.486-1.486a2.1,2.1,0,0,1,.149-1.337H736.4a1.224,1.224,0,0,0,.083,1.728c.021.019.043.037.065.055.149.149.3.149.446.3.892-1.337,1.635-2.674,2.229-3.714a.77.77,0,0,0-.594-.3c-.3.148-.743.3-.892.594v-.3h-1.486c1.338-1.338,2.229-1.932,3.863-1.486.149-.149.149-.446.3-.594a2.1,2.1,0,0,0-2.081-1.486,6.427,6.427,0,0,0-3.863,1.931,5.212,5.212,0,0,1-2.08.892c-.594,1.783-1.04,3.714-1.486,5.349h-1.485c.594-1.932,1.485-4.161,2.08-6.389a3.677,3.677,0,0,1-2.378-2.08h.892A2.956,2.956,0,0,0,731.8,950.6c.148-.445.148-.891.3-1.188h1.189c-.149.3-.149.743-.3,1.04,1.188,0,2.08-.892,3.268-1.486-.148-.594-.445-1.634-1.188-1.783a2.078,2.078,0,0,0-1.338.446,10.287,10.287,0,0,0-.445,1.188h-1.338a6.469,6.469,0,0,0,.149-.743,21.893,21.893,0,0,1,.594-2.526,2.494,2.494,0,0,0-2.674,1.486,3.968,3.968,0,0,0-.446,1.783h-.888a4.134,4.134,0,0,1,.148-1.337,4.285,4.285,0,0,1,4.012-2.972c0-1.04-.594-1.634-1.04-1.634-.892,0-1.634-.594-2.823.892v1.04c-.3.891-.743,2.228-1.486,4.011h-1.486c.3-.891.6-1.783.892-2.526-1.486-1.485-3.269,1.635-3.418,2.526h-.891a4.638,4.638,0,0,1,4.755-4.309c.148-.3.148-.742.3-1.04,0-.891-2.378-1.634-6.538,1.04v.446a8.39,8.39,0,0,1-.446,3.863h-2.228l.445-.891c-.594-.892-1.337-.743-2.525.446l-.3.445h-.445a6.188,6.188,0,0,1,.743-1.04q2.005-2.005,3.565-1.783c.149-1.337-.445-2.08-2.228-1.634a7.851,7.851,0,0,0-5.2,3.714,14.676,14.676,0,0,1-3.12,4.755c-.594,0-.3-1.337-.3-2.229a.546.546,0,0,1,.149-.446c-1.932-1.485-2.378-2.823-2.08-3.12s1.04.3,2.823,2.229l.3-.446c0-4.754,0-6.092,1.783-10.846s1.04-6.983-.3-10.549c-1.486-3.566-5.2-8.766-5.944-10.847,1.04,0,1.189.446,3.269,3.715,2.08,3.417,5.8,9.806,5.8,12.183a13.808,13.808,0,0,1-1.783,6.835c-1.04,2.229-1.783,4.9-.743,6.538a13.621,13.621,0,0,1,4.754-2.675,4.978,4.978,0,0,1,3.864.3,9.418,9.418,0,0,1,4.754-2.228,5.332,5.332,0,0,0-.594-1.635c-.3-.3-4.16-.743-7.429-2.823-1.635-1.04-1.783-2.08-1.486-2.971,3.269,4.011,8.618,4.011,9.36,4.606.743.743.6,1.634,1.783,2.971a6.059,6.059,0,0,1,1.338.743,3.82,3.82,0,0,1,3.714-.743c-.891-6.389-.446-10.7-2.823-13.818-2.823-3.566-7.726-8.023-8.617-15.3-1.041,0-4.755-.149-4.755-1.338,0-.594,2.823.149,4.309-.3a38.78,38.78,0,0,0,5.349-4.457,114.082,114.082,0,0,1,9.657-6.983,238.974,238.974,0,0,1,25.4-14.546A111.654,111.654,0,0,0,785.587,868.6c9.063-7.875,18.275-17.087,21.247-23.624A341.219,341.219,0,0,0,782.764,803.672ZM720.657,630.131a8.937,8.937,0,0,1,2.972,3.714,13.4,13.4,0,0,0-2.823-2.971l-1.783,1.783c3.566,3.714,4.309,6.091,4.309,7.577a19.083,19.083,0,0,0-5.052-6.834l-1.931,1.931C718.429,631.468,718.726,631.171,720.657,630.131Zm-9.806,21.99c.743-1.04,2.377-1.189,4.012-1.189a22.355,22.355,0,0,1,3.12.3,38.305,38.305,0,0,0,.594-5.794c-.3-.149-.446-.3-.743-.3s-.891.446-2.377,1.783a25.177,25.177,0,0,1-2.526-5.348,6.414,6.414,0,0,1,1.337-3.269c.892-.892,1.635-.6,2.229.3-.743-.3-1.04-.446-1.783.891s-1.188,1.783.446,5.052a4.239,4.239,0,0,0,3.417-1.189v-.3c-.3-.3-2.971-2.823-2.823-3.417,2.229,1.932,3.715,2.526,3.715,3.863s-.446,6.092-.446,7.28-.3,1.635-1.783,3.121l-.149.148h-1.485a6.333,6.333,0,0,0,1.783-1.634,2.258,2.258,0,0,0-1.932-.446,14.087,14.087,0,0,0-4.309,1.04c0,.149-.3,3.12.743,3.12l1.783-1.04h1.932a36.046,36.046,0,0,1-4.012,2.526s-1.337-.891-1.337-1.634a9.444,9.444,0,0,1,.594-3.864Zm-4.606,7.726a3.108,3.108,0,0,1,4.363-.523c.032.025.063.051.094.077l.149.149a3.391,3.391,0,0,1-.446,4.309,2.947,2.947,0,0,1-3.863-.3A2.763,2.763,0,0,1,706.245,659.847Zm-65.964,15.006a3.029,3.029,0,0,1-.3-2.971,24.445,24.445,0,0,1,1.932-2.823,16.393,16.393,0,0,1,1.04-1.932c.446,0,.594.3.3,1.189-.891,2.674-2.526,3.714-2.526,4.457a5.835,5.835,0,0,0,1.189,2.08c.891,1.041,1.931,1.783,1.931,2.526C642.5,677.676,641.316,676.339,640.281,674.853Zm15.3,14.264c-2.228,0-2.823-1.337-2.823-1.337,4.012.446,6.241.149,6.241.891,0,.3-1.042.446-3.418.446Zm3.863-8.618c-2.674,1.041-4.606,1.486-10.549,1.783-.743,0-.446-.594,0-.594a34.1,34.1,0,0,0,8.469-1.634c2.972-1.189,3.269-2.378,4.16-2.08s.6,1.485-2.08,2.525Zm22.287-23.178a51.762,51.762,0,0,1-14.115,2.823c-3.269,0-3.863-.149-4.606-1.634s-1.188-9.509-.594-16.047c-2.674,1.634-4.606,2.526-5.052,2.08,0-.891.595-1.189,2.378-1.931s8.023-4.309,13.075-7.429,14.412-7.578,18.423-8.172,7.875.445,7.875.891.149.743-1.634.743-6.389-.743-11.144,1.189c-1.634.743-3.566,1.634-5.646,2.526a11.41,11.41,0,0,1,3.269,3.268c2.08-1.486,3.417-2.823,3.715-2.526s.148,2.081-2.526,4.161c.445.743.743,1.337,1.188,2.08a7.482,7.482,0,0,0,3.715-1.932c.148,1.337-2.229,2.823-3.12,3.269a19.994,19.994,0,0,1,1.04,2.674,10.628,10.628,0,0,0,3.714-1.04c-.446,1.189-2.08,2.081-3.12,2.526a27.189,27.189,0,0,1,.743,2.823,21.263,21.263,0,0,1,4.309.149,11.934,11.934,0,0,1-4.012.891,16.177,16.177,0,0,1,.594,3.715c.149,1.931-2.674,2.971-8.469,4.9Zm42.346,291.514c.148.594.594,1.04,1.634,1.635l.594-1.635h1.486c-.594,1.932-1.486,4.309-2.377,7.726a6.513,6.513,0,0,1-.149.743h-1.634a2.745,2.745,0,0,1,.3-1.04,30.355,30.355,0,0,1,1.634-4.754,7.272,7.272,0,0,1-2.08-2.675Zm-8.618,0h.892c-.446,1.04-.149,2.08,1.188,2.08a14.857,14.857,0,0,0,1.189-2.08h2.229a6.591,6.591,0,0,1-1.783,2.229c-.892,1.931-1.783,4.16-2.675,6.24h-2.08c.3-.743.743-1.634,1.04-2.526.594-1.188.892-2.08,1.337-2.823Q715.236,950.173,715.459,948.835Z" style="fill:#fff"/><path id="foulard" d="M758.545,720.022c-3.268-11.441-6.389-21.4-7.726-22.733-.594-.594-4.16-2.377-7.726-4.606-4.309-2.823-8.766-6.092-10.549-6.092-.892,0-2.823.892-5.646,2.823l-.446.149v-.446h-1.337l1.04-.594a35.731,35.731,0,0,1,3.12-1.932c-6.686.6-13.669,1.189-16.344,1.486a47.342,47.342,0,0,1,4.9,5.943l2.229-1.783h1.189a23.009,23.009,0,0,0-3.121,2.08,3.28,3.28,0,0,0,.446.743h-2.08c-1.931-3.566-6.835-9.063-9.063-9.063s-3.418-.149-5.2,1.04c1.04.892,6.389,4.755,6.687,7.578-2.378-1.189-6.389-5.944-8.618-6.389a8.444,8.444,0,0,0-5.943,1.931c-.149,1.635-.149,3.566-.446,5.795a8.909,8.909,0,0,1,1.189.594,6.18,6.18,0,0,1,5.943-.891,17.5,17.5,0,0,1,2.228,1.337h-2.377v.3a7.361,7.361,0,0,0-2.674-1.189,92.993,92.993,0,0,0-9.064,9.658h-2.675c3.714-4.606,7.132-8.172,7.132-8.172l.3-.3-.3-.3a101.338,101.338,0,0,1-44.129,5.349c-10.4-1.189-10.7-3.418-10.994-3.715s1.485-1.931,5.646-2.377a13.343,13.343,0,0,1-2.823,2.229c0,.594,4.606,2.228,10.7,2.674.892,0,1.783.149,2.823.149v-3.269c-1.931-.743-4.308-1.932-6.686-3.12l-1.486-.743h0c-7.28,1.337-10.846-.3-12.926,2.229-1.783,2.228-1.634,5.646-5.052,14.56,1.932,7.875,8.469,15.3,7.578,15.3-.446,0-3.715-3.417-5.943-6.983a30.686,30.686,0,0,1-3.418-8.618c0-.3.743-1.486,1.486-3.863.446-1.188.892-2.526,1.337-3.863-5.349.594-5.943.149-7.874,5.2s-4.458,9.212-4.458,11.738c0,.892,1.783,5.2,4.16,9.361a105.024,105.024,0,0,0,9.212,13.669c.743.743,8.172,3.269,16.344,3.715a80.75,80.75,0,0,0,16.938-.446c3.121-.594,7.429-3.715,15.75-10.252-1.932-7.578-2.823-11.144-1.932-15.3a25.4,25.4,0,0,1,3.418-6.983,58.643,58.643,0,0,1-12.035,4.457,120.574,120.574,0,0,1-20.5,3.418s9.063-1.635,13.669-2.823c4.309-1.189,10.549-2.081,20.058-6.686.743-1.189,1.486-2.229,2.378-3.418l.891-1.188h2.526c-5.349,6.537-8.915,11.886-8.915,15.3s2.377,14.71,6.24,25.853,4.9,12.332,5.646,24.516.446,18.127,1.635,19.167c0,0,3.863-7.578,8.023-15.007,2.08-3.863,4.309-6.686,6.241-10.252A103.279,103.279,0,0,0,716.5,742.6c.743-3.863.446-7.578-1.931-16.79s-6.389-23.023-7.136-23.763c-.446-.3-.892-.743-1.338-1.04h1.485v-.743l1.189.891a4.583,4.583,0,0,0,.446,1.932c.3.594.891,2.377,1.783,5.051,3.12-2.08,4.16-4.308,4.16-5.2s-2.229-4.754-2.229-4.754a10.157,10.157,0,0,1,3.12,2.525,3.247,3.247,0,0,0,1.04-3.863l-.148-.3h1.931a7.428,7.428,0,0,1-1.04,4.309c2.229,1.04,7.578-.891,11.292-1.783,4.161-1.04,7.132-2.08,8.618-.594a49.765,49.765,0,0,1,4.9,4.754,41,41,0,0,1,6.389,9.509c-1.188-.594-3.863-4.606-7.28-8.32-2.526-2.823-5.943-5.5-6.983-5.5a26.82,26.82,0,0,0-5.944,1.486c3.715,5.2,10.847,13.967,14.413,15.3-4.309-.446-9.51-5.349-15.75-14.858h0a17.209,17.209,0,0,1-2.674.594c-2.675.446-5.349.743-8.024,1.04h0c0,2.229-.891,4.309-5.349,6.835.446,1.486.892,3.12,1.486,4.9,15.6,7.132,33.431,16.2,34.768,17.384.149.149.3.3.3.446h0c8.321,5.2,15.9,9.36,18.424,10.1C763.6,736.366,761.814,731.314,758.545,720.022Zm-82.907.148c-3.715,3.715-13.521,7.578-17.533,7.578s-6.24-1.189-11-4.012c-9.806-5.794-10.846-7.28-10.846-7.874.891,0,2.971,2.377,11.738,6.983s9.806,6.092,27.636-2.675Zm30.756,7.429c-1.932-5.794-3.863-18.572-5.646-21.4h0c-1.338,1.931-2.675,4.012-4.012,6.389-2.526,4.457-2.229,6.389-2.229,16.789s.743,17.384,2.675,22.585c2.228-5.944,1.931-10.1,4.16-14.116-.594,9.807-2.08,12.63-3.417,20.8-2.823-.892-3.418-6.686-3.863-13.967-.6-8.618-.892-19.167-.892-22.733,0-6.389,1.634-11.44,4.9-14.709s4.606-6.24,5.795-6.24a32.713,32.713,0,0,1-2.823,4.457c1.783,1.337,4.16,8.32,5.349,22.138Z" style="fill:#fff"/><path id="tshirt" d="M747.105,733.394c-.446.149-1.189.446-2.08.743v-1.783c.445-.149.742-.3,1.188-.446-2.08-1.634-8.023-3.863-13.372-6.983s-16.344-8.321-19.464-9.806c2.08,7.132,4.457,15.3,5.052,19.166,1.188,7.132-.149,11-2.972,17.682-2.377,5.348-4.16,10.1-8.469,18.423a35.757,35.757,0,0,1,1.932,4.161h-.6a6.18,6.18,0,0,0-.594-1.486,4.748,4.748,0,0,0-1.486-1.486c-.891,1.634-1.931,3.417-2.971,5.349-7.132,12.629-8.172,15.452-9.361,16.79s-1.337,1.188-1.337,1.782-.892.892-.892.892.743-.446-.148-1.486-.892-6.389-1.486-15.749-.149-10.55-1.189-15.6c-.743-3.418-3.269-9.807-5.646-16.493-.446,1.635-2.229,5.646-8.469,13.967-8.766,11.589-20.207,16.641-33.579,16.047s-16.79-3.566-21.4-11-3.565-21.99.446-35.065a36.818,36.818,0,0,1-4.754-11.738c-16.493-.3-25.11,6.835-30.014,13.372,0,2.377,2.675,11,9.658,23.179,2.675-3.269,3.566-4.606,4.458-7.875s1.04-9.658,4.011-14.264c-.3,2.823-1.188,3.269-2.228,9.361s-1.486,9.063-2.526,10.846-3.12,3.863-5.5,7.875-6.092,9.212-7.429,14.709-.3,11.144,2.823,17.83,7.281,14.264,13.224,20.207l-1.189,1.188c-.594,13.373-1.634,22.733-1.931,25.259,0,.594-.149,1.932-2.378,5.2.446,3.269,1.783,4.606,1.783,5.795s-.445,5.8-2.823,16.641S589,889.845,589,902.326c10.7,3.417,19.167,5.794,40.86,7.429,21.544,1.634,41.751,1.485,60.621-1.338a12.509,12.509,0,0,1,3.863-7.28c-5.795,1.783-15.6,3.714-37,3.714-23.03,0-36.848-1.782-42.791-3.714,1.486,0,7.875,1.189,16.641,1.783,10.4.743,23.773.891,31.945.891a172.762,172.762,0,0,0,31.5-3.12l.148-.148a59.256,59.256,0,0,1,7.578-6.092c-.891-2.229-3.566-8.469-8.172-18.573-5.943-12.778-8.172-15.6-8.172-16.492s1.337-2.972,1.337-4.457-2.228-2.229-2.228-2.823c-4.9,1.634-17.681,2.674-26.745.891,13.67.446,21.544,0,26.893-2.229.149-.743.3-1.931.595-3.12A89.452,89.452,0,0,1,689.74,837.1a167.476,167.476,0,0,1,9.955-19.167c1.783-2.971,6.834-7.429,10.994-12.629a65.143,65.143,0,0,0,5.5-8.618c4.012-6.835,5.8-8.469,5.646-11.441a19.727,19.727,0,0,1-8.172,3.269,23.229,23.229,0,0,1-4.606-10.549h.743c1.337,3.863,1.783,6.538,4.012,8.766.594-.148,1.188-.3,1.634-.445-.149-1.041-.149-2.229-.3-3.566h.743a28.761,28.761,0,0,0-.3,3.566c4.457-1.486,8.469-3.715,9.806-5.5a38.954,38.954,0,0,0-3.269-3.714c-2.971-2.972-4.457-3.715-5.2-3.864q-.446,3.344-.892,7.132h-.891a66.659,66.659,0,0,1,1.634-14.263c1.783-7.281,1.783-11.144,7.429-17.979a49.844,49.844,0,0,1,16.938-13.52v1.337h.743l-.743.3a19.933,19.933,0,0,1,4.458,4.9A26.166,26.166,0,0,0,747.105,733.394ZM616.8,810.359a.817.817,0,0,1,.446.742v.149c-.3.3-10.252,5.349-12.035,5.8a60.056,60.056,0,0,1,11.584-6.691Zm-23.924,87.067c-1.782-.594-1.634-1.188-1.485-1.337.445-.445-.149.743,14.858,3.863A45.33,45.33,0,0,1,592.881,897.426ZM612.2,816.153a21,21,0,0,1,5.943-4.9c.594,0,.594.594.594.891a26.63,26.63,0,0,1-6.537,4.012ZM684.7,859.39a47.719,47.719,0,0,1-11.441,5.5c6.089-3.717,10.249-5.943,11.438-5.5Zm-3.566-.3c-1.783,2.674-3.863,4.309-19.464,7.875A97.088,97.088,0,0,0,681.138,859.09ZM633,792.08c.892-.446,1.783,5.052,4.606,10.1l4.606,8.172c-6.389-8.618-10.1-17.83-9.212-18.276Zm20.058,25.853a31.755,31.755,0,0,1-9.512-11.286c-2.377-4.16-4.754-8.023-5.051-8.32s.3-1.189.3-1.189c2.674,3.269,3.566,5.943,6.834,10.846s5.8,7.726,8.172,9.064Zm-6.834-12.183c0-.892.743-.446.743-.446a112.991,112.991,0,0,0,13.669,14.263A40.1,40.1,0,0,1,646.222,805.75Zm9.509,3.268c1.931,1.04,10.846,9.064,10.846,9.064C661.823,815.7,655.285,810.8,655.731,809.018Z" style="fill:#fff"/></g><g id="line"><path d="M652.162,1458.168c-2.675,1.783-4.309,3.566-4.16,3.863.445.446.594-.149,5.646-3.566s11.292-6.835,12.035-7.578A65.858,65.858,0,0,0,652.162,1458.168Z"/><path d="M657.214,1459.654c.3,1.04,2.228-1.041,5.943-2.081a32.052,32.052,0,0,1,9.955-.445c6.091.445,12.926,2.674,13.966,2.674-1.634-1.634-11.143-4.16-16.789-4.16S657.659,1457.722,657.214,1459.654Z"/><path d="M685.444,1456.088a35.45,35.45,0,0,0-11.738-3.269l-.743.594s5.646,1.486,9.658,2.972c2.08.743,7.132,3.12,7.429,2.674C690.793,1458.465,688.564,1457.722,685.444,1456.088Z"/><path d="M686.335,1452.819a17.7,17.7,0,0,0-7.28-1.932,11.82,11.82,0,0,0,3.714,1.635c3.121,2.377,4.012,2.526,4.606,2.526s1.932,1.485,5.2,2.526A13.091,13.091,0,0,0,686.335,1452.819Z"/><path d="M661.522,1382.986c-2.228.446-2.08,1.04-6.091,2.675s-9.361,5.2-9.361,5.794a1.129,1.129,0,0,0,1.189.892c.3,0,.446-.149.594-.446a28.109,28.109,0,0,1,6.835-5.052A33.92,33.92,0,0,0,661.522,1382.986Z"/><path d="M651.122,1391.158c-2.526,1.189-.743,3.269.891,1.486s6.835-4.012,12.332-4.755,6.538.149,10.4-1.634C668.357,1385.364,657.957,1387.592,651.122,1391.158Z"/><path d="M607.736,1447.767c-3.417-2.674-4.011-1.931-4.011-1.188,3.714,1.188,6.686,5.2,13.372,10.7C614.125,1454.008,611.005,1450.739,607.736,1447.767Z"/><path d="M613.381,1447.767a99.688,99.688,0,0,1,7.577,10.1,44.909,44.909,0,0,0-6.835-11.144c-1.931-1.931-3.12-1.634-3.12-.891C610.857,1446.133,611.748,1446.281,613.381,1447.767Z"/><path d="M619.623,1466.488c0-1.634-2.377-4.309-3.417-5.349S617.691,1464.408,619.623,1466.488Z"/><path d="M697.925,758.355c1.337-8.171,2.823-10.994,3.417-20.8-2.229,4.012-1.932,8.172-4.16,14.115-2.08-5.2-2.675-12.332-2.675-22.584s-.3-12.332,2.229-16.789c1.337-2.378,2.674-4.458,4.012-6.389h0c1.783,2.971,3.714,15.6,5.646,21.395-1.189-13.818-3.566-20.652-5.052-22.287.891-1.486,1.931-2.823,2.823-4.457-1.189,0-2.526,2.823-5.8,6.24s-4.9,8.321-4.9,14.71c0,3.417.3,13.966.892,22.732C694.507,751.818,695.1,757.464,697.925,758.355Z"/><path d="M647.11,723.885c4.755,2.823,6.983,4.012,11,4.012s13.818-3.864,17.533-7.578c-17.83,8.766-18.721,7.28-27.636,2.674s-10.847-6.983-11.738-6.983C636.264,716.456,637.3,718.09,647.11,723.885Z"/><path d="M805.794,838.886a326.4,326.4,0,0,0-17.978-31.2c-12.184-18.721-26.6-38.779-30.311-44.277s-4.16-8.617-7.429-15.3c-1.188-2.377-2.08-4.308-3.12-5.943a31.126,31.126,0,0,0,1.337-9.063,73.11,73.11,0,0,0,12.332,8.023,23.229,23.229,0,0,0,7.132,2.08c-.148-2.674-1.634-4.754-2.971-8.023a145.323,145.323,0,0,1-4.458-13.967c-3.417-11.292-5.794-20.5-7.875-23.475S735.961,685.26,734.03,685.26a7.263,7.263,0,0,0-1.783.149h0s-7.875.445-20.653,1.04a9.55,9.55,0,0,0-1.932-1.486c-2.08-.892-7.429.148-8.766,1.486h0a10.277,10.277,0,0,0-2.971.445,25.9,25.9,0,0,0-3.269.743c.148-2.377.446-4.457.743-6.834,1.188-.743,3.714-2.526,6.092-4.309a40.52,40.52,0,0,0,9.806-8.321c1.486-.743,2.971-1.634,4.457-2.526,7.578-4.9,11.887-7.874,13.67-11.44a14.082,14.082,0,0,0,1.188-5.5c1.189-1.634,3.418-5.2,3.418-6.834,0-.446-.149-1.04-.149-1.486a23.184,23.184,0,0,0,1.189-3.417.9.9,0,0,1,.148-.6,6.6,6.6,0,0,0,1.783-3.12c0-.3.149-.594.149-.891a5.048,5.048,0,0,0,1.337-2.081,28.761,28.761,0,0,0,1.783-8.617,11.168,11.168,0,0,0-.149-2.229,31.5,31.5,0,0,0,1.04-6.537,25.518,25.518,0,0,0,2.823-7.281,2.893,2.893,0,0,0,.149-1.04h0c1.932-6.389,2.08-6.835,1.486-14.561s-.3-10.549-4.16-21.395a76.437,76.437,0,0,0-11.144-21.247,15.826,15.826,0,0,0-5.5-4.9c0-1.932-.149-2.378-1.635-4.9a10.538,10.538,0,0,0-7.429-4.16h-.446a5.285,5.285,0,0,1-.594-1.337c-.3-1.189-.446-2.526-.891-2.972-.743-.743-4.755-1.337-6.389-1.188a48.092,48.092,0,0,0-5.5-5.5c-.3-.3-1.486,0-3.12,1.04a6.306,6.306,0,0,0-1.486-2.526,11.171,11.171,0,0,0-6.24.6,6.025,6.025,0,0,0-4.16-3.418,13.509,13.509,0,0,0-8.024.446c-1.783-1.04-4.308-.743-9.212-.743-5.349,0-7.429.3-9.954,2.08h-1.041c-6.24-.445-11.737-.148-21.395,2.823s-13.669,4.606-17.978,8.024-10.7,9.36-11.292,10.846h0a62.889,62.889,0,0,0-14.848,17.078,68.319,68.319,0,0,0-9.955,25.407h0a3.376,3.376,0,0,0-.149.594c-1.931,8.618-2.229,15.3-1.486,20.8s5.052,14.115,7.578,18.572h0c.149.149.149.446.3.594,1.634,3.418,4.606,9.064,6.389,10.252a22.369,22.369,0,0,0,2.526,1.635,26.256,26.256,0,0,0,2.229,4.606,37.193,37.193,0,0,1,3.12,5.2c1.188,2.377,1.634,2.377,4.309,3.566a21.711,21.711,0,0,1,4.457,2.526h0c.892,1.931,1.634,3.863,2.377,5.794,4.161,12.184,6.389,19.019,8.767,21.4s6.091,4.457,15.9,9.361a45.289,45.289,0,0,1,4.744,2.676,20.714,20.714,0,0,1-7.429.446c-1.931,0-3.714,1.783-4.9,5.051a18.648,18.648,0,0,0-.891,2.675,11.374,11.374,0,0,1-4.458.891c-1.486,0-2.526,0-4.012,2.526-.594.892-4.308,9.658-5.051,11.144a13.511,13.511,0,0,1-1.189,1.931c-8.172,0-13.966.892-21.395,5.349-7.578,4.606-10.847,9.807-10.847,10.7a62.932,62.932,0,0,0,2.675,7.429c-1.635,1.932-7.875,8.915-19.91,20.8a431.823,431.823,0,0,0-39.968,47.1c-7.578,11-12.927,18.87-12.927,21.247a34.512,34.512,0,0,0,3.269,10.252,104.835,104.835,0,0,0,19.018,26.6c2.675,2.823,17.979,17.235,21.1,20.355,11,10.252,19.612,19.613,19.91,19.91a4.217,4.217,0,0,1,.594,1.932c0,.445-4.9,10.1-4.9,14.709a111.129,111.129,0,0,0,1.931,17.235c-1.486,2.08-2.823,4.309-4.16,6.538a31.24,31.24,0,0,0-3.417-1.189c.148-1.486.445-5.5-.6-7.132-1.337-2.08-3.268-3.714-4.457-2.377-1.189,1.189-1.634,4.9-2.972,8.023s-1.337,6.241.149,8.47c1.634,2.228,7.726,5.051,9.955,6.24s4.309,1.337,5.349.446a7.473,7.473,0,0,0,7.427,2.665c-.892,3.566-2.972,4.16-2.972,6.983s2.526,9.212,2.526,11.292-.149,14.561-.149,28.231,1.04,39.968,2.229,52.6c.743,7.132,2.08,20.5,4.012,32.836,1.486,9.658,3.714,18.424,4.457,22.882,1.635,10.1,3.715,25.7,5.2,33.133s6.984,35.511,9.658,41.157q1.114,2.451,2.675,5.349c0,9.657-.3,24.812,1.188,32.687,1.337,6.538,3.418,16.2,5.052,23.476-3.417,1.337-4.755,2.228-6.24,5.051s-2.972,4.309-2.823,7.578c.148,1.634.594,1.04,1.188,5.646s2.526,10.4,4.755,21.693,1.931,15.3,2.823,16.195c.3.3.743.594,1.04.891a276.814,276.814,0,0,1,6.389,45.466c.743,13.669.743,29.567-.149,35.511s-1.634,6.537,1.189,10.252a1.163,1.163,0,0,0,.594.594c-1.783,1.783-2.377,2.229-2.377,2.972s3.714,3.714,3.714,3.714c-2.823,3.715-4.308,7.132-6.686,10.4s-3.12,6.24-5.794,9.657-4.309,8.915-7.578,10.55-4.16.148-6.092,2.08-2.971,4.9-4.309,6.24a18.262,18.262,0,0,1-3.863,1.783c-2.228,1.189-5.348,3.269-9.212,5.2-7.131,3.418-15.006,6.538-19.315,10.847-3.566,3.566-4.012,6.24-4.16,9.212-1.189.594-3.418,1.931-3.418,2.228s2.229,9.807,3.269,10.847,15.007,2.377,27.042,3.417,26.893.892,33.579-1.188,18.572-9.361,24.218-13.967V1476c0,5.646-.594,16.344,1.486,21.842a72.52,72.52,0,0,0,13.372,21.692c7.281,8.172,10.7,10.847,12.184,11.59s4.457.594,8.023.594,8.172-1.189,10.4-3.417a59.29,59.29,0,0,0,11.738-23.773c1.188-3.566,2.377-6.241,2.526-7.429.594-4.309-.3-8.915-1.338-16.493s-4.606-20.652-6.983-31.053-4.754-24.07-4.754-25.853.743-7.132-.3-12.481a50.082,50.082,0,0,0-3.863-10.252c.6-.743,1.04-1.634,1.635-2.228,1.486-1.783,2.228-2.823,2.228-3.715,0-2.08-2.377-3.269-2.377-4.309s3.566-3.863,3.566-5.2.446-2.08-1.04-9.212-2.972-23.773-4.309-35.214-2.228-38.779-2.228-38.779h0a2.644,2.644,0,0,0,1.634-2.229c0-1.337-.594-32.539-.594-38.779s.3-9.658-2.378-12.184a9.6,9.6,0,0,0-6.537-2.971c-1.04-8.172-1.486-14.264-4.012-22.882-2.674-8.023-5.795-16.046-9.212-23.772,1.189-2.378,2.823-5.052,2.823-8.024s-3.269-6.537-3.714-9.806c-.3-1.634,2.674-18.127,6.24-31.5s12.035-39.968,18.127-57.649,9.658-32.242,12.778-44.871,6.686-27.488,10.252-44.277,5.646-26.447,5.646-39.225h0a6.241,6.241,0,0,0,2.377.594,4.9,4.9,0,0,0,5.5-1.486,4.107,4.107,0,0,0,1.337.149,6.374,6.374,0,0,0,4.754,2.971c2.08,0,3.566-.742,6.241-4.9s7.28-11,7.28-12.035-1.634-2.526-4.012-2.526h0a4.2,4.2,0,0,1-2.08-2.674c-.3-1.634.149-2.229-1.337-2.823a3.945,3.945,0,0,0-.743-.891,48.24,48.24,0,0,1-.3-6.538c0-4.755-.743-5.943-4.309-10.4s-7.132-8.171-7.28-14.263l.891-.892c1.783-1.486,4.755-3.566,9.955-7.28,8.618-6.092,13.967-8.766,27.042-15.75a155.11,155.11,0,0,0,34.767-24.961c8.618-8.618,12.927-16.493,12.927-17.235A33.8,33.8,0,0,0,805.794,838.886Zm-59.878-98.36a19.909,19.909,0,0,0-4.457-4.9,41.726,41.726,0,0,1,5.5-2.229A28.555,28.555,0,0,1,745.916,740.526Zm-42.048,152.74C698.816,879,690.5,863.55,687.375,859.39c2.081-3.12,3.418-5.052-1.188-8.172,2.377-6.835,9.212-23.327,11.738-27.636s5.5-6.835,10.846-13.075c5.2-5.943,15.452-21.1,16.047-27.933a13.351,13.351,0,0,1,1.485-1.337c4.606,6.092,9.807,14.709,16.047,23.624,8.172,11.589,14.858,20.5,24.367,32.242-15.3,9.658-43.98,38.185-50.814,45.614A74.677,74.677,0,0,1,703.868,893.266Zm11.886-107.419c.446-4.309.892-8.915,1.486-13.075.743.148,2.229.891,5.2,3.863a38.816,38.816,0,0,1,3.269,3.714c-1.337,1.783-5.5,4.012-9.955,5.5Zm-.148,0c-.6.148-1.189.3-1.635.446-3.417-3.418-2.526-7.578-7.132-15.9,4.458-8.32,6.092-13.075,8.469-18.423,2.972-6.687,4.161-10.55,2.972-17.681-.594-3.864-2.972-12.035-5.052-19.167,3.121,1.486,13.967,6.834,19.464,9.806s11.292,5.349,13.373,6.983a50.194,50.194,0,0,0-21.545,15.6c-5.646,6.983-5.646,10.7-7.429,17.978a62.576,62.576,0,0,0-1.485,20.356Zm-80.679-11.3a11.6,11.6,0,0,1,1.04-6.686c1.188-2.823,2.971-4.458,2.971-5.646-1.188,0-3.417,4.754-6.686,11.737-9.806-2.823-12.183-6.091-13.521-18.126a60.588,60.588,0,0,1,2.675-23.03l.3.445c4.309,6.687,8.32,11,11.292,12.333s8.915,2.525,19.464,2.525,12.629-.148,16.641-2.674c3.12-2.08,8.915-6.538,11.144-8.172l.148.594c.594,2.081,1.189,4.458,1.932,6.835-4.309,11.144-11.738,18.127-17.979,23.773S645.181,776.779,634.927,774.547ZM679.352,722.4c0-3.566,3.863-9.36,9.658-16.344a84.484,84.484,0,0,1,9.36-9.955c1.486,0,8.469,4.9,9.212,5.646s4.606,14.561,7.132,23.773,2.675,13.075,1.932,16.79a103.282,103.282,0,0,1-9.361,24.367c-1.931,3.566-4.011,6.537-6.24,10.252-4.16,7.429-8.024,15.007-8.024,15.007-1.188-1.189-.742-6.984-1.634-19.167s-1.931-13.372-5.646-24.516-6.24-22.138-6.389-25.853Zm63.741-29.716c3.566,2.229,7.132,4.012,7.726,4.606,1.337,1.337,4.458,11.292,7.726,22.733s5.052,16.344,8.024,21.99c-2.675-.892-10.252-5.052-18.424-10.1h0c-.149-.148-.149-.3-.3-.446-1.189-1.188-19.019-10.4-34.768-17.383-.6-1.783-1.04-3.418-1.486-4.9,4.457-2.525,5.349-4.606,5.349-6.834h0a74.428,74.428,0,0,0,8.023-1.04c.892-.149,1.783-.446,2.675-.6h0c6.24,9.51,11.589,14.413,15.749,14.858-3.566-1.337-10.7-10.1-14.412-15.3a26.77,26.77,0,0,1,5.943-1.486c1.04,0,4.457,2.823,6.983,5.5,3.418,3.715,6.241,7.726,7.281,8.321a41.032,41.032,0,0,0-6.389-9.509c-1.486-1.635-3.269-3.269-4.9-4.755-1.338-1.337-4.458-.446-8.618.594-3.715.892-9.212,2.823-11.292,1.783a6.068,6.068,0,0,0,.891-5.051c-.148-.446-.445-.892-.594-1.338,3.715-2.674,6.983-3.714,8.766-4.9,2.823-1.931,4.755-2.823,5.646-2.823,1.635,0,6.092,3.269,10.4,6.092Zm-16.938-4.309c-3.418,2.378-5.646,2.972-8.321,5.5a47.27,47.27,0,0,0-4.9-5.943c2.675-.149,9.658-.743,16.344-1.486-1.04.594-2.08,1.337-3.12,1.931Zm-25.853-.148c2.229.445,6.24,5.2,8.618,6.389-.446-2.823-5.8-6.686-6.687-7.578,1.783-1.189,2.823-1.04,5.2-1.04,2.674,0,8.766,7.28,9.806,10.549a3.247,3.247,0,0,1-1.04,3.863,12.951,12.951,0,0,0-3.12-2.526s2.228,3.715,2.228,4.755-1.04,3.269-4.16,5.2a47.069,47.069,0,0,0-1.783-5.051,4.125,4.125,0,0,1-.445-1.932,63.81,63.81,0,0,0-7.727-5.2,6.067,6.067,0,0,0-5.943.891,2.973,2.973,0,0,0-1.188-.594h0q.222-3.343.445-5.795a8.083,8.083,0,0,1,5.8-1.931ZM656.916,701.3c-.594-1.486-.594-2.08,0-2.675a17.25,17.25,0,0,0,2.675.6c2.972,0,14.858-4.9,23.921-11.441a109.275,109.275,0,0,0,10.4-8.172,124.215,124.215,0,0,0-1.783,16.492,56.725,56.725,0,0,1-13.967,3.566,102.458,102.458,0,0,1-21.247,1.635ZM695.547,679.6c.149-.594.149-1.04.3-1.634a78.752,78.752,0,0,0,8.321-8.915c.743.743,1.932,1.188,4.16.594-2.674,2.972-7.726,5.943-12.778,9.955Zm-70.872-.594c-4.012-4.012-3.715-9.658-9.212-21.247-1.635-3.418-2.972-6.092-4.161-8.172h0a21.24,21.24,0,0,1,.743-2.377,21.21,21.21,0,0,0,4.012,1.337v1.04a4.566,4.566,0,0,0,.149,1.337c-1.635.594-2.675.594-2.526.743s2.08.891,2.823,1.189c.148.445.3,1.04.445,1.485.3.6,3.715,2.526,6.538,3.566s7.429,1.486,7.578,0a42.254,42.254,0,0,0-1.04-13.669,4.408,4.408,0,0,0,1.188.594c.594.149.743-.891.594-1.04-4.9-3.12-9.657-6.389-14.263-9.955a110.659,110.659,0,0,1,7.429-12.183c7.577-11,18.424-21.1,39.819-34.322a187.8,187.8,0,0,1-17.086,28.23c-5.944,8.469-13.67,14.264-19.167,15.007,4.309.594,11.589-2.378,18.424-6.835a40.249,40.249,0,0,0,12.778-13.224c1.782-2.526,7.28-12.48,12.332-20.058,3.863-5.8,7.726-9.955,7.429-10.252-5.052,3.269-13.075,16.938-17.236,24.367a75.95,75.95,0,0,1-7.131,10.846,37.552,37.552,0,0,1-14.561,9.955c9.806-9.806,12.926-15.452,18.275-24.367s9.658-16.344,9.658-16.344a136.2,136.2,0,0,0-23.03,14.413,119.988,119.988,0,0,0-12.927,11.589c-10.846,11-20.652,28.527-21.989,37.591a52.705,52.705,0,0,1-3.121-6.538,148.432,148.432,0,0,1,6.984-16.789,145.86,145.86,0,0,1,10.1-16.641c1.04-1.04.594-1.338.3-1.338s-3.12,2.378-9.212,13.521a114.915,114.915,0,0,0-8.469,19.613v-.149c0-2.526.446-9.806,3.863-21.1,1.783-.3,1.932-2.526,4.9-6.686a139.9,139.9,0,0,1,18.87-20.95,116.241,116.241,0,0,1,27.339-19.167c-4.309,0-17.384,8.469-27.19,17.384a124.135,124.135,0,0,0-19.019,21.395c-2.377,3.715-3.12,5.8-4.457,6.984a16.328,16.328,0,0,0,.743-2.526c1.189-3.566,2.377-6.686,3.566-9.509a105.987,105.987,0,0,1,5.5-10.847c.892-1.634.149-1.485.149-1.485a97.7,97.7,0,0,0-13.075,29.567c-3.566,13.075-2.229,17.384-1.635,19.167.3.891,1.783,4.457,3.121,7.132.148.148.148.3.3.445-2.972-.594-4.606-1.188-5.349-2.08s-1.337-3.417-2.675-5.794c-.3-2.08-.742-5.944-1.188-10.252-.446-1.338-.743,3.12-.446,7.726a13.706,13.706,0,0,1-2.08-4.16c-.892-2.823-2.526-6.835-2.526-9.955s0-14.115,1.932-20.5a31.067,31.067,0,0,0-2.526,13.075c0,5.2-.6,10.4.594,13.223.446,1.189,1.04,2.823,1.634,4.458-2.525-1.486-3.714-3.269-5.794-7.578-2.229-4.606-2.229-5.2-2.229-11s-.446-12.035,0-14.709c-.594-.6-1.189.148-1.189,5.349,0,3.417-.3,8.617,0,12.778a66.578,66.578,0,0,1-4.9-10.4c-1.04-2.674-1.188-4.457-.743-11.886s1.486-13.967,3.864-19.316,7.28-11.143,12.926-17.532A187.174,187.174,0,0,1,616.657,544.1c-2.08-.3-13.521,11-19.909,18.275a84.175,84.175,0,0,0-10.252,13.67,71.368,71.368,0,0,1,13.223-23.922,58.706,58.706,0,0,1,16.938-14.412c9.212-5.5,16.344-7.726,21.842-9.955-2.972-.148-8.321,2.08-14.116,4.606-3.565,1.635-7.131,3.417-10.1,5.052a50.93,50.93,0,0,1,7.28-6.538c2.081-1.485,11-5.5,19.762-7.577a51.437,51.437,0,0,1,19.612-1.486c5.943.594,6.686,1.337,12.778,5.349s9.361,6.835,10.4,7.132c0-.892-3.269-4.012-10.252-8.469-4.9-3.121-7.429-4.458-10.847-5.2a3.778,3.778,0,0,1,3.418-1.337,86.068,86.068,0,0,1,10.7.3c1.189.3,5.646,5.349,7.132,7.429a61.587,61.587,0,0,0,5.052,7.132c.446-1.486-1.932-4.457-3.417-6.835a49.748,49.748,0,0,0-6.241-7.577,9.708,9.708,0,0,1,8.766,1.337c.892.892,3.121,7.132,4.161,9.361s1.04,2.525,1.634,2.525a94.577,94.577,0,0,0-2.823-9.212,7.4,7.4,0,0,0-.446-1.04c1.189-.3,4.161-.891,4.755-.148s3.12,7.429,4.012,8.32a16.163,16.163,0,0,0-1.041-5.943,2.306,2.306,0,0,1,1.189-.891c.3,0,1.189.594,5.5,4.754h0a12.183,12.183,0,0,0-4.012,5.052s4.754-4.606,5.2-4.606a16.2,16.2,0,0,1,3.863.743,2.334,2.334,0,0,1,1.635,1.486c.743,1.188,1.04,2.08.743,2.674a25.005,25.005,0,0,0-7.132,2.972s8.023-2.378,8.617-2.378a18.946,18.946,0,0,1,6.092,3.418,7.481,7.481,0,0,1,2.378,4.011,17.452,17.452,0,0,0-3.566-1.337c-4.309-1.188-7.132-1.931-8.024-1.04,6.835,1.635,12.927,3.566,14.71,5.2a55.422,55.422,0,0,1,7.726,10.847,121.888,121.888,0,0,1,8.32,21.544c1.932,6.686,1.783,18.87,1.783,19.464s-.445.594-.891.891c-.594-3.268-1.783-9.063-3.12-13.818-.892-3.417-2.08-6.537-2.229-7.131-.594-1.338-1.189-1.189-.892.148.149.743,2.229,8.321,3.566,14.858.743,3.418,1.338,6.983,1.783,10.549a15.31,15.31,0,0,1-1.931,6.241,16.472,16.472,0,0,0-.743-3.715,79.032,79.032,0,0,0-10.549-21.99v-1.633c0-.446-2.378-2.674-7.875-8.172s-9.658-8.32-11.738-8.766c8.469,6.983,13.669,11.589,18.573,18.275a78.085,78.085,0,0,1,10.1,21.693c1.337,4.9,1.486,8.172.446,10.7-.446-1.932-1.04-4.161-1.932-6.835a62.959,62.959,0,0,0-11.292-21.1c-5.794-7.429-12.778-13.67-14.115-14.264-.743-.3-1.04.446-.743.594a66.788,66.788,0,0,1,12.332,11.887c4.755,6.091,7.132,9.509,9.955,16.938,1.337,3.714,2.377,7.132,3.269,9.36a28.3,28.3,0,0,1,1.783,5.349c.743,3.715.891,8.321-.892,10.7a42.045,42.045,0,0,0-2.384-14.116c-3.12-8.766-8.766-17.681-10.1-18.275a63.517,63.517,0,0,1,6.983,14.263c3.12,8.766,4.16,13.67,4.16,18.721,0,4.161-.148,4.161-1.04,4.755a45.534,45.534,0,0,0-1.486-7.578c-1.337-5.5-5.051-15.6-5.794-15.6a135.044,135.044,0,0,1,5.349,20.207c.742,5.052.594,5.943-.3,7.281-.742-2.675-2.08-6.241-3.565-10.549-2.675-7.727-6.092-12.778-6.835-14.561s-4.309-6.092-10.252-11-9.509-6.984-11.589-7.429c0,0,3.863,2.971,5.5,4.606s3.566,1.783,7.578,5.943,6.389,5.349,9.806,12.035,7.726,20.95,8.32,23.773c.446,2.526.149,3.268-1.485,4.9-.149-1.783-.3-3.715-.6-5.943-.891-7.281-1.931-8.172-4.754-11s-5.5-5.5-8.172-4.9-6.241,7.28-6.241,7.28-1.188-2.674-2.971-2.674c1.931,3.12,1.783,4.16,3.417,5.794,2.08-4.9,4.606-8.915,7.132-8.915s7.429,4.9,8.618,8.618,2.971,15.3,1.337,19.167-7.429,8.172-12.629,11.292-10.1,5.349-12.035,3.417c-12.184,14.561-20.207,19.019-29.568,24.962s-11.589,5.349-13.818,5.349-7.132-1.783-15.9-6.389-14.709-8.024-18.572-12.035Zm4.308-35.362a51.519,51.519,0,0,1,1.486,12.629c0,.891-.594,1.337-2.08,1.337a8.757,8.757,0,0,1-2.08-.3,25.779,25.779,0,0,0-1.04-16.047,21.959,21.959,0,0,0,3.714,2.378ZM617.1,644.985h.743c-.149,4.457.446,6.24,1.931,6.389s2.675-2.08,2.675-4.606a15.726,15.726,0,0,0-.743-4.606,21.746,21.746,0,0,0,1.337-2.377l.149.148a25.378,25.378,0,0,1,2.674,11.441,12.709,12.709,0,0,1-.594,5.794l-3.12-.891a23.608,23.608,0,0,1-4.309-2.229c-.446-.445-.892-2.526-.892-5.646a23.085,23.085,0,0,0,.149-3.417Zm4.457,1.783c0,2.971-.891,4.457-2.08,2.823a7.257,7.257,0,0,1-.743-4.606,2.759,2.759,0,0,0,1.783-1.04l.149-.149h0S621.406,643.8,621.554,646.768Zm-.594-8.469a8.757,8.757,0,0,1,.3,2.08c.149,1.931-.743,2.971-1.486,2.971s-1.782-.148-2.377-2.377c.149-2.08.446-3.863,1.04-4.457.743.446,1.635,1.188,2.526,1.783Zm-4.309-2.378a24.369,24.369,0,0,0-.3,3.269,2.745,2.745,0,0,1-1.04-.3c.446-.891.892-1.931,1.337-2.972Zm-1.634,3.864a8.252,8.252,0,0,0,1.337,1.04c0,1.04-.148,2.228-.148,3.268a4.526,4.526,0,0,1-2.378-1.188A13.426,13.426,0,0,1,615.017,639.785Zm-1.634,4.011a9.455,9.455,0,0,0,2.823,1.189v2.377a10.238,10.238,0,0,1-3.715-.594,9.89,9.89,0,0,1,.892-2.972Zm8.766,64.038c2.08-5.051,2.526-4.606,7.874-5.2-.445,1.337-.891,2.823-1.337,3.863-.891,2.377-1.486,3.566-1.486,3.863a35.989,35.989,0,0,0,3.418,8.618c2.08,3.566,5.349,6.983,5.943,6.983.892,0-5.646-7.429-7.578-15.3,3.418-8.915,3.269-12.332,5.052-14.561,2.08-2.525,5.646-.742,12.927-2.228h0l1.485.743a62.855,62.855,0,0,0,6.687,3.12V701c-.892,0-1.932-.149-2.823-.149-6.092-.446-10.7-2.08-10.7-2.674a10.432,10.432,0,0,0,2.823-2.229c-4.16.446-6.092,1.931-5.646,2.377s.594,2.675,11,3.715a101.09,101.09,0,0,0,44.128-5.349l.3.3-.3.3a122.943,122.943,0,0,0-9.063,10.7c-.892,1.188-1.635,2.228-2.378,3.417-9.509,4.606-15.749,5.5-20.058,6.686-4.457,1.189-13.669,2.823-13.669,2.823a120.226,120.226,0,0,0,20.5-3.268,58.691,58.691,0,0,0,12.033-4.466,30.483,30.483,0,0,0-3.418,6.983c-.891,4.161.149,7.727,1.932,15.3-8.321,6.538-12.629,9.806-15.75,10.252a80.75,80.75,0,0,1-16.938.446c-8.172-.594-15.749-3.12-16.344-3.715a104.823,104.823,0,0,1-9.212-13.669c-2.228-4.16-4.16-8.32-4.16-9.361.152-2.224,2.529-6.236,4.758-11.585Zm-6.538,11.292a38.256,38.256,0,0,0,4.755,11.738c-4.012,13.224-4.9,27.785-.446,35.065s8.023,10.252,21.4,11,24.812-4.457,33.579-16.047c6.24-8.32,8.023-12.332,8.469-13.966,2.228,6.686,4.9,13.075,5.646,16.492,1.04,5.052.594,6.389,1.188,15.6s.446,14.71,1.486,15.75.149,1.485.149,1.485.891-.148.891-.891,0-.446,1.338-1.783,2.228-4.012,9.36-16.79c1.189-1.931,2.08-3.714,2.972-5.348a7.016,7.016,0,0,1,1.485,1.485,35.822,35.822,0,0,1,1.189,3.715c1.337,4.606.892,5.349,4.9,11.44a17.918,17.918,0,0,0,8.172-3.268c.149,2.971-1.634,4.606-5.646,11.44a64.939,64.939,0,0,1-5.5,8.618c-4.161,5.2-9.212,9.806-11,12.629a166.593,166.593,0,0,0-9.955,19.167,89.63,89.63,0,0,0-3.863,10.549,23.133,23.133,0,0,0-.6,3.121c-5.348,2.228-13.223,2.674-26.893,2.228,9.064,1.783,21.842.6,26.745-.891,0,.594,2.229,1.188,2.229,2.823s-1.338,3.714-1.338,4.457,2.378,3.566,8.172,16.493c4.606,10.1,7.281,16.343,8.172,18.572-2.674,1.932-5.2,4.012-7.577,6.092l-.149.148a186.96,186.96,0,0,1-31.5,3.121c-8.172,0-21.544-.149-31.945-.892-8.766-.594-15.155-1.783-16.641-1.783,6.092,1.783,19.91,3.715,42.791,3.715,21.4,0,31.2-1.932,37-3.715a11.739,11.739,0,0,0-3.863,7.281c-18.87,2.823-39.225,2.971-60.621,1.337-21.693-1.783-30.31-4.012-40.859-7.429,0-12.481,3.863-22.881,6.388-33.876s2.824-15.453,2.824-16.641-1.338-2.526-1.783-5.8c2.228-3.12,2.377-4.457,2.377-5.2.3-2.675,1.337-11.887,1.931-25.259l1.189-1.189c-5.943-5.943-10.1-13.52-13.224-20.206s-4.16-12.184-2.823-17.83,5.052-10.846,7.429-14.71,4.458-6.091,5.5-7.874,1.486-4.606,2.526-10.847,1.931-6.686,2.228-9.36c-2.971,4.606-3.12,10.846-4.011,14.264s-1.783,4.606-4.458,7.874c-6.983-12.183-9.657-20.652-9.657-23.178,4.762-6.087,13.38-13.219,29.872-12.922Zm91.228,242.186c0,1.783-1.931,4.606-4.308,2.229a2.663,2.663,0,0,1-.556-3.725c.035-.047.072-.093.11-.138a2.84,2.84,0,0,1,2.08-1.041l1.04,1.189a7.4,7.4,0,0,0,1.634,1.486Zm-5.646-2.377c-9.806-2.378-14.115-5.646-17.532-9.807a44.726,44.726,0,0,1-5.2-6.686h0a4.1,4.1,0,0,0-.3-4.309c5.944-.445,12.184-.891,17.681-1.188.446,4.309.3,7.132,1.189,10.7s2.675,6.389,6.092,9.954a3.08,3.08,0,0,0-1.93,1.34Zm-28.676-20.5,3.566-.149a3.845,3.845,0,0,1,1.783,2.526c0,2.08-1.931,2.377-3.417,2.377s-4.309-2.08-1.932-4.754Zm-19.018-.6c0-2.674-.594-16.492-.594-18.275h17.384a78.471,78.471,0,0,0,17.681-1.783c2.674-.594,3.12.149,4.011-.594,1.04,5.051,2.378,11.589,3.121,16.492a5.629,5.629,0,0,1,.148,1.486c-4.16.3-27.339,1.936-41.751,2.679Zm-10.549-.891c-5.2,0-12.184-.446-17.83-.892a95.942,95.942,0,0,1,1.04-18.424c8.618.892,17.681,1.486,17.681,1.486h0c0,.149-.148.3-.148.446a96.131,96.131,0,0,0-.743,17.384Zm-7.28,29.121a132.072,132.072,0,0,1,1.337,21.693,3.9,3.9,0,0,0-.743.892,44.6,44.6,0,0,1-3.12,3.566c-.6-1.486-3.269-3.864-7.875-6.389a3.282,3.282,0,0,0,.891-2.229c.3-2.526-.742-31.35-1.04-42.791v-3.26c1.189.149,2.526.3,3.715.446,3.269.3,6.389.446,8.915.594-1.635,9.951-2.969,21.243-2.08,27.483Zm-22.289-27.928c-1.932.3-5.2,0-5.5-1.485s-.594-5.2,0-11.738a33.692,33.692,0,0,1,1.783-9.361A48.469,48.469,0,0,1,616.2,916a14.875,14.875,0,0,0-.6,3.566,97.339,97.339,0,0,0-.891,9.955c0,1.634,0,3.269.148,4.9h0c.3,2.674.3,3.417-1.485,3.714Zm-10.847-2.674a2.537,2.537,0,0,1,3.12,1.337,2.2,2.2,0,0,1,.149,1.04,2.267,2.267,0,0,1-1.993,2.511,2.318,2.318,0,0,1-.236.015h-.743c-1.929-.594-3.564-3.863-.3-4.9Zm-1.634,4.309a1.8,1.8,0,0,0,.743.743c-2.229,5.5-10.549,12.629-17.384,14.263,0-7.726,0-19.909.446-22.287a21.027,21.027,0,0,1,.594-2.971c3.863,1.486,11.441,3.417,16.641,4.754a3.8,3.8,0,0,0-1.337,5.052c0,.149.15.3.3.446Zm5.5-12.778c-.148,2.823-.445,4.9-.445,6.686a164.126,164.126,0,0,1-20.356-5.349c0-8.915,1.337-15.006,1.932-15.6a6.226,6.226,0,0,1,2.08-1.337c7.577,2.08,19.464,4.012,19.464,4.012h0c-1.783,1.783-2.378,5.349-2.675,11.589Zm-14.412-22.436a180.824,180.824,0,0,0,26.744,5.2c15.6,1.783,49.329,3.714,71.913.148a27.748,27.748,0,0,0,.6,3.715l.445,1.783a82.846,82.846,0,0,1-13.372,1.931c-7.28.446-16.195.3-26.15.3a4.915,4.915,0,0,0-3.417-1.04,8.1,8.1,0,0,0-3.269.743h0c-8.915-.743-22.584-1.931-26.6-2.228a9.33,9.33,0,0,0-8.618-.6c-9.063-2.526-20.207-4.606-20.207-4.606a8.463,8.463,0,0,0,.6-3.269,6.731,6.731,0,0,1,.446-2.377Zm24.219,30.162c0-8.915.742-17.087,1.782-18.127,2.081.3,4.458.6,6.835.892-.891,4.011-1.04,11-1.04,18.424C620.664,935.463,617.99,935.166,616.207,934.72Zm28.081-15.9a18.6,18.6,0,0,1,7.578.149c0,10.7.148,18.126.148,19.612s0,2.229-2.08,2.229-3.269.3-4.457.3-1.635-.743-1.635-3.566,0-11.144.445-18.722ZM599.713,813.776a175.568,175.568,0,0,0-1.486,26.447c-2.08,2.823-3.714,3.715-3.714,4.9s2.526,6.686,2.526,9.064-2.378,11.143-5.5,20.949a74.718,74.718,0,0,0-2.377,9.955c-4.9-4.9-13.669-18.572-20.5-30.161-4.16-7.132-7.281-13.67-9.063-16.493a45.53,45.53,0,0,0-7.578-9.36h0c6.24-6.241,25.556-24.368,35.213-34.025a102.808,102.808,0,0,0,12.481,18.721ZM575.792,958.2c1.04-1.04,2.228-2.378,3.417-3.566,1.783-1.783,2.823-4.755,2.526-5.052s-1.486.446-2.674,2.377-4.755,5.944-6.241,6.538-3.269-.446-8.023-3.12-5.349-3.715-5.349-5.646,1.783-5.349,2.377-8.469,1.486-3.715,1.783-3.715,1.189.743,1.932,2.675a10.968,10.968,0,0,1,.148,5.794,2.165,2.165,0,0,0-1.931,1.04s1.634-.743,6.537,1.486v1.189c1.338-.3,2.675-3.418,5.349-8.618,0-2.377-2.08-11.738-1.486-17.235s3.566-10.847,4.161-12.63a11.914,11.914,0,0,0,.445-4.606c0-.742-9.509-10.994-19.464-20.206s-24.664-23.328-28.973-28.379a102.7,102.7,0,0,1-11-16.493,62.191,62.191,0,0,1-4.606-11.738s4.458-7.28,11-16.789a349.848,349.848,0,0,1,29.271-36.848c9.954-11,23.029-24.367,32.093-34.471a101.5,101.5,0,0,0,7.577,15.007,131.022,131.022,0,0,0-8.32,13.818c-2.229,5.943-4.16,12.332-.594,20.5a18.274,18.274,0,0,1,1.04,2.526c-3.715,3.417-23.03,21.841-35.66,34.471h0A8.219,8.219,0,0,0,548.6,826.7c3.417,2.08,6.091,5.2,9.954,11.738s10.1,19.613,15.453,27.636c5.2,7.726,10.846,16.047,15.006,21.1-1.188,6.984-1.783,13.224-1.337,14.561a3.349,3.349,0,0,0,2.229,2.229,38.68,38.68,0,0,0-.446,5.052,6.206,6.206,0,0,0-3.566,5.646c0,2.377-1.634,8.023-1.188,13.818-1.338,1.337-1.189,2.377-1.635,11.589-.446,8.32,0,15.6-.446,19.91-2.525,1.636-6.24,1.19-6.834-1.781Zm35.065,241.145c2.08,3.863,4.16,7.132,4.457,6.835s-.446-2.526-2.526-6.686a76.116,76.116,0,0,1-6.389-15.75c-1.931-6.686-5.349-22.584-7.726-35.362s-4.9-27.784-6.537-38.036-4.309-24.665-5.646-38.78-3.715-45.762-3.715-58.392,0-32.39-.3-36.1c-.3-3.565-2.08-5.051-1.337-7.726.594-2.823,3.268-4.011,3.268-10.1v-2.823c9.658-3.269,14.264-8.618,18.573-15.155,1.634.594,3.566-.446,4.16-3.418.149.3.446.446.743.743,2.08,1.189,8.618,2.08,8.618-2.526a68.073,68.073,0,0,0,7.581,1.482c0,1.486,0,3.12.149,4.606.3,9.955.891,36.551.891,39.077,0,2.228-.3,2.823-1.634,3.863-1.634-.743-3.715-1.635-5.795-2.378a91.074,91.074,0,0,0-12.332-3.863c-5.2-1.188-10.1-1.634-10.1-1.04,0,.892,2.08,1.04,4.9,1.04s10.7,2.675,18.572,5.944c7.132,2.971,12.63,6.834,13.967,8.617a3.136,3.136,0,0,0-.743,1.932c0,1.931,1.634,7.132,1.634,11.292,0,1.337-1.188,4.754-2.228,9.806-2.229,10.4-5.5,26.15-6.686,34.322-1.783,11.887-3.121,24.367-4.309,32.242s-2.823,35.956-2.823,45.02.3,23.921.594,27.487-.148,7.726-.891,15.6a151.131,151.131,0,0,0-.3,27.19c.743,7.875,3.715,13.372,4.161,16.493s.148,4.457-.6,13.52-.3,11.59.3,22.882c.148,2.823.445,5.5.742,8.32l-1.485-.3a12.966,12.966,0,0,0-1.486-1.189c-2.229-11.44-4.755-21.692-5.8-27.636s-1.774-15.9-1.922-31.053Zm2.674,89.743c-1.931-9.658-4.9-17.384-4.9-19.019s-.594-5.5.3-7.874a18.1,18.1,0,0,1,4.309-6.092,7.978,7.978,0,0,1,2.972-1.486c.148.743.3,1.486.445,2.08a6.108,6.108,0,0,0-1.634-.148c-.594,0,.594.594,2.377,2.228a4.646,4.646,0,0,0-1.634,1.337c-2.08,2.081-2.972,3.269-2.972,4.458s1.189,4.606,3.418,12.778a157.448,157.448,0,0,1,4.754,24.961c.3,1.932.594,4.012.892,5.943-2.526,1.783-4.9.6-4.9-.594s-1.634-8.766-3.417-18.572ZM624.08,1396.8a52.769,52.769,0,0,0,1.338-13.669c0-8.618,0-25.7-1.486-38.78s-5.646-34.024-5.646-34.024a10.447,10.447,0,0,0,3.714-.149c1.486,9.212,3.566,18.87,4.9,31.5,1.635,16.195,4.309,45.911,4.755,50.072.148.742.148,1.485.3,2.08a26.309,26.309,0,0,0-5.943-1.189c1.188,1.189,4.309,1.932,6.092,2.229a4.64,4.64,0,0,0,.743,1.486c1.188,1.485,3.417,2.377,3.417,2.823a21.883,21.883,0,0,1-1.189,4.16q-.222.446-.446.891l-5.794.3c-2.675-4.011-5.2-4.9-4.755-7.726ZM564.8,1466.34c5.349-4.161,11.143-5.646,19.464-10.7s12.035-6.092,13.075-7.726a44.412,44.412,0,0,1,4.457-5.944c1.04-1.04,4.606-.445,6.241-2.08a99.679,99.679,0,0,0,5.943-9.36c1.634-2.972,3.269-5.8,5.052-8.915,4.011-6.835,8.023-12.778,8.023-13.224a22.514,22.514,0,0,0-3.12-3.417l1.783-1.783c1.931,1.932,3.12,2.229,3.566,2.229s2.971.3,4.606.594v.149c0,1.485,5.794,5.5,5.794,5.5-1.04,2.526-2.228,3.12-1.188,4.9a19.468,19.468,0,0,0,3.268,3.715s.6,7.726.6,20.207c0,5.646.3,12.48.743,18.721-8.767,7.28-16.939,15.006-22.436,17.384s-5.795,3.268-21.841,3.268-21.842-.3-29.568-1.634-8.469-2.823-8.469-2.823-1.337-4.9,4.012-9.061Zm56.163,21.247c-6.092,1.931-10.7,2.823-21.544,2.228s-39.077-3.417-39.968-4.308-1.932-7.429-1.932-7.429l2.675-1.189h0c3.417,2.377,11.738,4.457,23.624,4.457,12.927,0,25.853.446,35.362-2.823,8.172-2.823,20.653-14.561,24.07-17.829.3,4.9.594,9.509.743,12.777-8.618,6.687-17.235,12.333-23.03,14.116Zm77.708,20.06a58.81,58.81,0,0,1-7.875,15.9c-4.012,6.092-4.309,6.686-9.509,7.132s-8.172.743-8.915-.149a81.677,81.677,0,0,1-16.641-17.681c-7.429-10.846-8.469-13.669-9.212-17.384a50.94,50.94,0,0,1-.594-6.686,72.271,72.271,0,0,0,8.023,12.927c6.983,8.915,15.6,17.681,18.424,18.572s11.143.149,12.926-.594,4.755-7.132,8.469-16.047c3.715-8.469,4.606-11.143,6.835-22.732a138.947,138.947,0,0,1,1.783,15.6C702.233,1498.73,700.45,1502.147,698.668,1507.647Zm.148-36.4c.594,2.377.892,4.9,1.337,7.28a105.169,105.169,0,0,1-6.834,23.327c-3.863,8.915-6.835,15.453-9.064,16.344s-10.252,1.635-11.738,1.04-10.846-9.955-17.532-19.018c-6.092-8.469-6.389-9.212-8.915-16.789v-8.321c0-7.429-1.486-23.624-1.783-33.133a48.5,48.5,0,0,0,4.309-11.738c1.783-7.578,2.674-8.023,2.674-11s-1.485-7.429-1.485-9.658v-.594a81.672,81.672,0,0,1,24.367-5.5,1.775,1.775,0,0,0,.743.743,32.33,32.33,0,0,0-.3,5.349c1.04,2.229,2.08,5.646,3.12,8.024a21.021,21.021,0,0,0,3.12,5.646,73,73,0,0,1,9.806,9.36c.3,1.932.743,4.16,1.189,6.538,1.188,7.131,4.606,20.949,6.983,32.093ZM649.781,1408.1c.3-2.526,1.188-6.389,1.485-9.657,2.675-1.486,4.309-.6,8.172-1.783s6.241-2.526,10.55-1.486l.148,2.08s1.634.743,2.972,4.606a5.285,5.285,0,0,0,.594,1.337h0c-9.509-.148-14.264.594-23.921,4.9Zm33.133-92.565c0,10.1,1.189,21.395,2.526,36.4s4.012,30.31,4.012,32.836-3.566,3.566-4.755,6.983h1.04a14.539,14.539,0,0,0,1.189,1.635c.743.891,1.337,1.634,1.337,2.228,0,1.041-2.675,3.269-3.715,5.349s-7.577,7.429-6.091,8.915c2.377-2.377,5.2-4.754,6.983-6.835a34.254,34.254,0,0,1,2.674,6.389c1.635,3.863.892,9.658.892,13.818a53.025,53.025,0,0,0,.594,6.984c-3.269-4.161-7.726-7.132-9.212-8.618s-3.12-8.32-4.9-12.035c0-5.646-.594-6.686-1.634-7.875a13.976,13.976,0,0,0-2.229-4.754c-.743-.743-.3-2.229-1.189-2.972s-5.349-.743-8.766,0a81.269,81.269,0,0,0-8.618,2.229c-2.525,1.04-3.566,1.931-3.566,2.823s-.742,5.8-1.188,8.172a4.107,4.107,0,0,0-.149,1.337c-1.783.743-3.566,1.634-5.646,2.674-.446.149-.594,1.189-.594,1.189,1.931-.891,3.863-1.931,6.24-2.971,0,1.782.6,3.863.892,6.537.594,3.715-.149,4.457-1.338,8.618-1.04,3.714-2.08,9.36-4.308,12.48-.446-8.32-.892-16.492-.892-16.492s.6-.891-.594-2.229c-1.635-1.931-2.229-2.525-2.229-3.417s1.635-2.972.743-3.863c-1.931-1.931-5.2-3.714-5.2-4.755s3.12-6.834,2.08-7.874-4.16-3.418-4.16-4.755-1.635-20.058-3.418-35.213-4.606-37.74-7.28-53.935-4.16-23.327-6.686-31.35-2.675-8.915-1.189-10.4,2.972-2.972,4.755-2.674a3.808,3.808,0,0,1,1.931,1.485,12.229,12.229,0,0,1,.3,4.012l-.594-.3c-2.972-1.486-4.606-2.674-4.9-2.377s2.229,2.526,5.2,4.011,8.024,3.269,12.184,8.172c2.08,2.526,4.16,5.2,6.092,7.875s3.863,5.5,5.2,5.943c2.823-8.32,5.5-15.3,11.292-21.1s10.1-8.915,18.721-9.807a48.856,48.856,0,0,1,.743,8.024c.446,10.1,1.337,28.23,1.783,32.093s.891,4.457,3.714,5.052a3.678,3.678,0,0,0,1.189.148c1.629,1.641.738,3.127.738,12.19Zm-.149-62.85c.6,1.486.892,5.349.892,19.613s.446,27.933.446,28.527-1.189,1.635-2.08,1.635-2.526-.3-2.972-5.052c-.3-3.417-1.189-32.093-1.932-37.591s-3.417-8.023-5.051-8.023-1.338.891-.3,1.486a6.487,6.487,0,0,1,2.823,2.823,15.33,15.33,0,0,0-5.2.891c-.446-7.429,4.458-8.32,6.835-8.32s5.949,2.526,6.543,4.011Zm31.054-287.948c0,4.606,0,10.252-4.012,29.122-2.229,10.549-5.052,24.516-8.023,37.591-2.526,10.4-5.2,19.761-8.024,30.756-6.389,24.516-15.749,47.991-23.327,72.953s-9.806,40.413-9.806,46.059,3.566,9.212,3.566,11.738-2.377,3.418-1.634,8.024c.742,3.566,5.051,13.52,8.171,25.555a140.839,140.839,0,0,1,3.269,20.8l-1.337.445a6.12,6.12,0,0,0-3.566,3.121h0c.3-2.675-.743-10.252-2.377-16.939-2.675-10.846-6.835-20.058-7.281-23.475a31.247,31.247,0,0,1,.3-11.144h0a20.054,20.054,0,0,0,.891-7.28c-.743-4.9-4.9-6.686-4.9-10.995s2.823-23.476,7.28-39.077,5.943-20.652,8.469-30.607,12.778-41.3,12.778-44.574c-7.875,24.516-11,33.43-13.669,42.791s-2.526,10.7-6.092,23.624-8.618,32.836-9.212,41.751a29.023,29.023,0,0,0,.149,8.023c1.04,3.121,3.12,4.606,3.863,8.024,1.188,5.646-4.9,16.641-5.646,22.584,1.337-2.526,2.971-5.646,4.309-8.915a77.943,77.943,0,0,0,4.308,16.344,144.139,144.139,0,0,1,5.349,20.95,53.664,53.664,0,0,1,1.04,10.846h0a22.978,22.978,0,0,0-.594,4.606c-4.012,1.634-7.28,4.606-11.144,8.023a44.981,44.981,0,0,0-12.48,21.247c-6.835-9.657-8.766-12.629-13.67-16.195a59.845,59.845,0,0,0-6.686-3.862,27.178,27.178,0,0,0-.743-6.983,117.87,117.87,0,0,1-1.485-13.67c-.892-11.589.742-26.3.742-31.647s-2.823-7.578-3.863-19.018.743-27.339.743-38.483-.3-32.984.892-50.22,2.823-31.944,4.9-47.694,3.566-24.961,5.5-34.471,2.378-13.52,3.418-17.235a11.075,11.075,0,0,0-.149-7.875c-.891-2.674-1.188-3.714-.446-5.5s10.4-12.629,13.967-14.561c-1.783.446-3.269,1.783-5.8,4.012-1.04.891-2.228,2.08-3.417,3.12.149-10.4-1.634-18.127-1.932-24.516v-.445a57.411,57.411,0,0,0,15.75-3.418c1.783-.743.743-.891.3-.891a99.555,99.555,0,0,1-16.2,2.674c0-5.794,1.188-12.629,2.08-21.247,2.674.149,4.457.3,4.457.3h0c.3,2.675,1.189,3.418,2.08,3.418a35.857,35.857,0,0,0,5.647-.149,3.339,3.339,0,0,0,2.823-3.12c1.931,0,7.577,0,14.263-.3l3.418-.149a3.941,3.941,0,0,0,.891,5.349,5.006,5.006,0,0,0,2.526.743,4.541,4.541,0,0,0,2.972-1.04c.891,1.04,3.714,4.309,6.983,8.172,4.011,4.754,9.509,6.835,16.344,8.32a5.084,5.084,0,0,0,.148,4.161,3.692,3.692,0,0,0,4.16,1.783,102.566,102.566,0,0,1-1.485,15.155c-.743,4.754-1.338,10.4-2.378,16.2-1.485,7.429-5.051,25.556-8.469,39.374-3.12,12.629-6.092,21.1-7.28,26.447,2.674-5.646,8.617-25.11,11.738-40.86,2.971-15.452,8.172-38.185,8.469-56.609a6.7,6.7,0,0,0,2.971-3.12,4.2,4.2,0,0,0,3.715.892c.148,0,.3-.149.594-.149a2.162,2.162,0,0,0,.892,1.337Zm2.08-.891c-1.337-.446-1.783-1.04-1.932-1.635a19.307,19.307,0,0,0,1.486-2.228c1.189-2.378,2.377-5.944,3.863-8.915a7.545,7.545,0,0,0,2.526-6.686v-.446c4.16-2.674,6.538-1.931,6.538-1.04a2.745,2.745,0,0,1-.3,1.04,4.332,4.332,0,0,0-4.457,2.972c-.594,1.931,0,2.674,1.931,4.606-.594,1.783-1.188,3.566-1.634,4.754-1.04,4.012-.743,5.2-2.674,7.132s-2.823,1.337-5.349.446Zm1.188-16.047c1.189-1.188,1.932-1.486,2.526-.446a25.308,25.308,0,0,1-1.931,3.418c-1.932.148-1.783-1.783-.6-2.972Zm8.618,2.675c-1.337-.743-1.634-1.338-1.634-2.081s1.783-4.16,3.417-2.674C726.894,947.052,726.3,948.835,725.705,950.47Zm-.3,6.091c1.931-7.131,3.417-10.4,4.012-12.332a1.274,1.274,0,0,0,0-1.04c1.04-1.486,1.931-.891,2.823-.891.445,0,1.04.594,1.04,1.634a4.284,4.284,0,0,0-4.012,2.972c-.594,1.783,0,2.971,2.377,4.011-1.04,3.715-2.674,7.727-2.971,9.509-.6,2.526-1.04,2.378-3.269,2.675a2.258,2.258,0,0,1-1.932-.446A50.937,50.937,0,0,0,725.405,956.561Zm6.686-6.537c-2.377-.743-2.229-2.08-1.486-3.566a2.492,2.492,0,0,1,2.675-1.486,21.663,21.663,0,0,0-.6,2.526,15.527,15.527,0,0,0-.594,2.526Zm4.457,5.052c0-.743,1.783-2.823,2.526-2.823a.775.775,0,0,1,.6.3c-.6,1.04-1.338,2.228-2.229,3.714a1.13,1.13,0,0,1-.892-1.188Zm4.161-4.458a1.129,1.129,0,0,1-.3.594c-1.486-.594-2.526,0-3.864,1.486a3.232,3.232,0,0,0-1.188,2.972l1.486,1.486c-.3.445-.6,1.04-.892,1.485-2.377,3.715-4.457,7.429-6.389,7.875-1.486.3-2.674-1.188-3.12-2.08h.446c2.377-.446,2.674-.743,3.566-3.714.445-1.635,1.485-5.349,2.525-8.767a2.938,2.938,0,0,0,2.081-.891,7.356,7.356,0,0,1,3.863-1.932,4.175,4.175,0,0,1,1.783,1.486Zm-4.161-2.08c-1.188.594-2.08,1.486-3.268,1.486.3-1.04.594-2.08.891-2.823a1.5,1.5,0,0,1,1.337-.446c.6.149.892,1.04,1.04,1.783Zm49.032-80.382A113.505,113.505,0,0,1,760.916,884.2a267.443,267.443,0,0,0-25.408,14.561,88.474,88.474,0,0,0-9.657,6.983q-2.674,2.451-5.349,4.457c-1.337.446-4.309-.445-4.309.3,0,1.188,3.714,1.337,4.755,1.337.891,7.28,5.794,11.738,8.617,15.3,2.377,3.12,1.932,7.577,2.823,13.817a3.751,3.751,0,0,0-3.714.743,6.059,6.059,0,0,0-1.338-.743c-1.188-1.337-1.188-2.377-1.783-2.971s-6.091-.594-9.36-4.606c-.149,1.04-.149,1.931,1.486,2.971,3.269,2.081,7.132,2.526,7.429,2.823a5.332,5.332,0,0,1,.594,1.635,9.4,9.4,0,0,0-4.754,2.229,4,4,0,0,0-3.864-.3,10.148,10.148,0,0,0-4.754,2.675c-1.04-1.635-.3-4.309.743-6.538a13.807,13.807,0,0,0,1.783-6.834c0-2.378-3.715-8.915-5.8-12.184-2.08-3.417-2.08-3.715-3.269-3.715.743,2.229,4.606,7.43,5.944,11s2.228,5.795.3,10.55-1.783,5.943-1.783,10.846l-.3.446c-1.932-1.783-2.526-2.526-2.823-2.229s.148,1.783,2.08,3.12a.544.544,0,0,0-.149.446c0,.891-.3,2.229.3,2.229a14.687,14.687,0,0,0,3.12-4.755,7.846,7.846,0,0,1,5.2-3.715c1.634-.445,2.228.3,2.228,1.635-.891-.149-2.228.446-3.565,1.783-1.635,1.634-1.486,2.823.445,4.754a17.024,17.024,0,0,0-1.337,2.823c-1.931,4.458-3.12,7.429-4.9,7.429S700,953.293,698.809,950.173s-.743-9.212-2.526-17.532c-1.634-8.321-3.863-16.344-4.16-20.95s.446-5.052,3.714-9.063,8.024-6.389,16.641-13.967,22.436-22.287,30.9-30.607a198.463,198.463,0,0,1,24.219-20.5c-1.635-3.418-6.538-9.51-11.59-16.344-5.943-7.875-12.332-16.493-16.492-22.882a204.022,204.022,0,0,0-15.6-21.544c-2.971-3.714-4.16-5.2-6.686-4.754a53.194,53.194,0,0,1,1.337-6.686c1.635-6.092,2.229-9.807,4.755-14.413s11.143-11.44,14.858-13.372c.446-.148.743-.446,1.188-.594,2.675,1.486,5.2,4.9,8.024,11a95.571,95.571,0,0,0,8.023,14.858c3.417,5.052,13.967,21.395,27.19,41.3a362.447,362.447,0,0,1,23.922,40.86c-2.675,5.943-11.887,15.155-20.95,23.178Z"/><path d="M677.866,971.865c-3.12-1.783-9.955.149-19.909,6.092a154.489,154.489,0,0,0-21.4,15.155c-1.783,1.783-1.04,1.783.594.594,4.309-3.12,11.887-8.914,21.693-14.858s16.195-6.24,17.83-5.349C678.312,974.54,679.2,972.608,677.866,971.865Z"/><path d="M632.549,921.647A5.689,5.689,0,0,0,626.9,927v.3c.446,5.349,3.715,5.646,7.132,4.755s3.566-2.526,3.566-5.2a5.128,5.128,0,0,0-5.051-5.2Zm.743,9.509c-2.674.892-4.9-.446-4.9-3.566a4.6,4.6,0,0,1,4.012-4.9,5.063,5.063,0,0,1,4.457,4.606c.443,2.818-1.043,2.967-3.569,3.858Z"/><path d="M611.451,973.8a94.535,94.535,0,0,0-12.629-9.212l-.446.3a35.4,35.4,0,0,0,5.943,4.606C608.181,972.014,610.262,973.8,611.451,973.8Z"/><path d="M650.973,1208.256a91.942,91.942,0,0,0-3.417,10.252c2.972-2.972,7.578-17.087,6.389-19.315C653.2,1200.381,652.013,1204.987,650.973,1208.256Z"/><path d="M681.135,859.093a100.727,100.727,0,0,1-19.464,7.875C677.272,863.4,679.352,861.767,681.135,859.093Z"/><path d="M684.7,859.39c-1.189-.446-5.349,1.783-11.441,5.5A42.7,42.7,0,0,0,684.7,859.39Z"/><path d="M591.244,896.089c-.148.149-.3.743,1.486,1.337a45.324,45.324,0,0,0,13.372,2.526C591.244,896.832,591.838,895.5,591.244,896.089Z"/><path d="M616.8,810.359a60.6,60.6,0,0,0-11.738,6.537c1.783-.3,11.738-5.5,12.035-5.8.149-.3.149-.594-.149-.742C616.948,810.507,616.948,810.359,616.8,810.359Z"/><path d="M612.194,816.005a19.944,19.944,0,0,0,6.537-4.012c0-.3,0-.892-.594-.892A23.786,23.786,0,0,0,612.194,816.005Z"/><path d="M637.6,802.038c-2.823-4.9-3.714-10.549-4.606-10.1s2.823,9.806,9.212,18.126Z"/><path d="M643.544,806.647a35.091,35.091,0,0,0,9.509,11.292l.743-.743c-2.377-1.188-4.9-4.011-8.172-9.063s-4.011-7.578-6.834-10.847c0,0-.6.743-.3,1.189S641.167,802.632,643.544,806.647Z"/><path d="M660.781,819.422a95.426,95.426,0,0,1-13.67-14.264s-.743-.3-.743.446A36.816,36.816,0,0,0,660.781,819.422Z"/><path d="M666.426,817.936s-8.915-8.023-10.847-9.063C655.281,810.8,661.82,815.707,666.426,817.936Z"/><path d="M697.925,598.632c5.348,4.606,11.737,11.886,20.8,23.03-.743-3.12-3.269-6.389-7.429-11-2.08-2.229-4.458-5.052-7.281-7.726-8.469-7.726-14.115-12.035-20.652-15.6C685.444,589.568,692.581,594.026,697.925,598.632Z"/><path d="M708.325,610.964c-3.12-3.714-9.657-8.469-11.738-8.915,0,0,2.823,2.08,6.538,5.052S708.325,611.558,708.325,610.964Z"/><path d="M699.856,609.478s4.309,3.715,8.766,7.578,5.944,5.646,6.835,5.646C713.971,619.284,702.233,609.775,699.856,609.478Z"/><path d="M704.759,617.647c-.594.594.892,1.783,3.12,3.863s4.161,4.16,4.606,3.715S705.651,617.947,704.759,617.647Z"/><path d="M706.988,541.28c.743,0,6.686,4.309,7.726,4.309,0,0-1.783-1.486-3.714-3.269a8.046,8.046,0,0,0-5.2-1.634,12.393,12.393,0,0,0-5.349,2.377C701.193,543.657,704.908,541.28,706.988,541.28Z"/><path d="M735.813,572.482c-.3-4.309-6.687-13.521-14.116-20.95-.148,0-.3.149-.148.446a.145.145,0,0,0,.142.148h.006A97.57,97.57,0,0,1,735.813,572.482Z"/><path d="M696.736,548.858a26.565,26.565,0,0,1,6.835-1.338c2.674,0,4.308,1.635,11,6.538s8.469,7.875,10.4,10.7,3.418,5.794,4.309,5.794c.149-.891-.891-2.674-2.823-5.2a35.721,35.721,0,0,0-4.16-5.5c-5.646-5.646-11.738-10.549-15.155-12.183s-4.755-1.486-7.578-.743S696.142,548.858,696.736,548.858Z"/><path d="M711.594,559.11a42.556,42.556,0,0,1,9.806,9.509c0-1.486-.594-2.526-5.051-6.835a35.89,35.89,0,0,0-11-7.726,8.232,8.232,0,0,0-5.646-.594c-2.526.445-4.458,1.782-4.458,2.823,2.377-1.635,7.429-2.229,8.469-2.229S708.622,557.178,711.594,559.11Z"/><path d="M707.137,562.675c-.6-1.485-3.566-2.228-4.458-2.228s-6.983,1.634-8.617,3.269C697.627,562.675,703.273,561.635,707.137,562.675Z"/><path d="M722.886,593.283c-.594-1.486-2.377-5.052-11.143-11.589s-17.087-6.835-19.316-6.241c5.349,0,11.441,1.783,18.275,6.686A87.538,87.538,0,0,1,722.886,593.283Z"/><path d="M705.354,586.894c-6.835-3.12-13.224-4.755-15.453-4.755a89.136,89.136,0,0,1,18.127,6.835c7.132,4.012,11.144,8.915,12.629,9.509C717.834,593.58,711.3,589.717,705.354,586.894Z"/><path d="M666.281,569.659s2.823-.446,2.823-.892S667.763,568.322,666.281,569.659Z"/><path d="M671.481,567.727a25.445,25.445,0,0,0,4.755-.148C676.232,566.539,674.449,566.539,671.481,567.727Z"/><path d="M622.743,594.917c1.337-.743,3.417-3.417,6.389-6.24a80.7,80.7,0,0,1,12.035-9.212c6.686-4.012,8.172-5.052,7.875-5.5C635.818,579.614,623.635,591.647,622.743,594.917Z"/><path d="M644.581,571c-13.372,7.429-18.869,15.007-20.949,19.91,8.023-9.955,16.492-17.681,37.887-26.448,9.658-4.011,17.236-4.011,19.316-4.457C672.072,558.664,657.957,563.418,644.581,571Z"/><path d="M604.765,614.679c3.12-10.1,5.8-15.9,6.389-19.019-4.9,8.469-9.509,25.7-10.7,32.985C600.456,628.5,601.5,624.633,604.765,614.679Z"/><path d="M640.424,564.31c-1.634.3-3.863,2.823-6.835,5.349a139.06,139.06,0,0,0-12.777,12.035c-4.755,5.646-7.578,9.657-8.172,12.183.3,0,4.011-5.794,11.44-13.966A135.7,135.7,0,0,1,640.424,564.31Z"/><path d="M691.238,548.115c0-1.486-1.04-2.378-4.754-5.5,0,0,2.674,3.715,3.566,5.349S691.238,549.447,691.238,548.115Z"/><path d="M650.681,535.634a81.311,81.311,0,0,1,12.035.446c6.686.743,11.292,2.228,20.95,4.9a46.537,46.537,0,0,0-10.7-4.012,80.722,80.722,0,0,0-17.985-2.521c-5.646,0-12.481.446-12.778,1.635C642.356,536.377,646.07,535.782,650.681,535.634Z"/><path d="M661.671,551.383A103.991,103.991,0,0,0,643.99,555.1c-1.486.594-1.337.891,0,.594,4.012-.743,6.983-1.486,15.6-2.823a108.161,108.161,0,0,1,21.841-1.634c4.012,2.823,5.349,5.646,8.024,7.429,0-1.932-5.8-7.578-6.835-8.024S671.181,550.047,661.671,551.383Z"/><path d="M623.635,573.076c1.337-1.337,5.943-6.24,9.509-9.806a79.835,79.835,0,0,1,9.509-7.726c-1.486,0-5.349,1.931-9.212,5.794S623.635,571.442,623.635,573.076Z"/><path d="M639.381,548.263c-.3-.3-1.337.446-7.578,5.646s-16.789,15.3-19.018,20.8c1.486-.3,4.458-5.794,9.509-10.7,2.972-2.972,8.618-8.172,12.481-11.738A38.843,38.843,0,0,0,639.381,548.263Z"/><path d="M613.081,563.27c.446-.446-.3-1.04-.594-.743s-10.1,9.955-13.818,16.2-6.835,11.441-7.577,15.6c.445,0,1.485-2.526,2.823-5.052a57.188,57.188,0,0,1,3.714-6.24,142.544,142.544,0,0,1,9.509-13.818A20.6,20.6,0,0,1,613.081,563.27Z"/><path d="M614.125,554.652c5.052-5.052,8.618-6.537,13.521-9.806s8.915-6.538,12.332-7.429v-.743c-3.12,0-8.172,2.972-12.926,6.537-2.377,1.783-5.646,3.715-9.361,6.835s-7.874,7.281-10.4,9.658c-5.052,4.9-13.818,16.641-14.264,19.018.892-.891,3.12-4.309,5.795-7.577C603.873,565.2,610.857,557.921,614.125,554.652Z"/><path d="M662.563,642.463c-.743,6.538,0,14.561.594,16.047s1.189,1.634,4.606,1.634a46.764,46.764,0,0,0,14.115-2.823c5.795-1.932,8.469-2.823,8.469-4.606a32.329,32.329,0,0,0-.594-3.714c1.931,0,4.011-.6,4.011-.892s-1.634-.149-4.308-.149c-.3-.891-.446-1.782-.743-2.823,1.04-.445,2.674-1.337,3.12-2.525a10.846,10.846,0,0,1-3.566,1.04,19.688,19.688,0,0,0-1.04-2.675c.891-.594,3.269-2.08,3.12-3.269a7.487,7.487,0,0,1-3.714,1.932,9.467,9.467,0,0,0-1.189-2.08c2.674-2.08,2.823-3.863,2.526-4.16s-1.635.891-3.715,2.525a13.618,13.618,0,0,0-3.269-3.268,56.357,56.357,0,0,1,5.647-2.526c4.605-1.932,9.211-1.189,11.143-1.189s1.634-.446,1.634-.743-3.714-1.485-7.874-.891-13.373,5.052-18.424,8.172-11.292,6.686-13.075,7.429-2.378,1.04-2.378,1.931C657.957,644.989,659.888,643.947,662.563,642.463Zm7.874-.891c0,1.931,0,4.457-2.674,4.457a3.457,3.457,0,0,1-3.418-3.417,2.793,2.793,0,0,1,.3-1.189l4.457-2.675a3.263,3.263,0,0,1,1.337,2.824Zm-3.268,5.646h.742a3.646,3.646,0,0,0,2.378-.892,3.141,3.141,0,0,1,.891,2.526c0,2.377-.891,4.16-2.229,4.309s-2.228-1.337-2.228-3.269q.222-1.56.446-2.674Zm-.3,11.737c-2.971,0-2.971-1.634-3.417-5.943a55.463,55.463,0,0,1,.149-8.617,4.356,4.356,0,0,0,1.931,2.377c-.594,4.309.743,7.132,3.269,7.429,3.417.3,4.9-5.5,2.526-9.064a6.654,6.654,0,0,0,.594-2.971,5.9,5.9,0,0,0-2.08-3.863c.891-.6,1.931-1.04,2.823-1.635,2.377,1.338,3.714,3.418,4.606,8.024s1.04,9.657-.149,12.926Q672,658.509,666.869,658.955Zm16.938-21.247c2.378,4.755,5.052,12.927,5.052,14.561s-1.486,1.932-6.24,3.715c-1.337.446-2.823.891-4.16,1.188a31.3,31.3,0,0,0,.148-12.332,12.667,12.667,0,0,0-5.2-8.766c2.08-1.04,4.012-2.08,5.943-3.12a9.26,9.26,0,0,1,4.457,4.754Z"/><path d="M640.721,672.773c0-.743,1.486-1.783,2.526-4.457.3-.892.149-1.189-.3-1.189-.3,0-.594,1.338-1.04,1.932-.743,1.188-1.634,2.229-1.932,2.823a3.029,3.029,0,0,0,.3,2.971c1.04,1.635,2.228,2.823,3.565,2.526,0-.594-1.04-1.485-1.931-2.526A3.683,3.683,0,0,1,640.721,672.773Z"/><path d="M649.042,682.282c5.943-.3,7.874-.742,10.549-1.782s2.972-2.229,2.08-2.526-1.189.891-4.16,2.08a31.687,31.687,0,0,1-8.469,1.634C648.447,681.688,648.15,682.282,649.042,682.282Z"/><path d="M652.756,687.78s.6,1.337,2.823,1.337,3.418-.148,3.418-.446C659,687.929,656.768,688.226,652.756,687.78Z"/><path d="M723.481,640.234c0-1.634-.743-3.863-4.308-7.577l1.783-1.783a13.4,13.4,0,0,1,2.825,2.973,8.113,8.113,0,0,0-2.972-3.714c-2.08,1.04-2.229,1.337-4.16,5.2l1.931-1.931A24.978,24.978,0,0,1,723.481,640.234Z"/><path d="M711.891,657.618a35.651,35.651,0,0,0,5.5-3.714c1.485-1.486,1.783-1.932,1.783-3.121s.445-6.091.445-7.28-1.486-1.931-3.714-3.863c-.149.594,2.377,3.12,2.823,3.417v.3a4.24,4.24,0,0,1-3.418,1.189c-1.634-3.12-1.188-3.566-.445-5.052s.891-1.188,1.783-.891c-.6-1.04-1.338-1.189-2.229-.3a6.393,6.393,0,0,0-1.337,3.269,22.1,22.1,0,0,0,2.526,5.348c1.337-1.337,1.931-1.783,2.377-1.783a1.133,1.133,0,0,1,.743.3c-.149,1.931-.3,3.863-.595,5.794a22.355,22.355,0,0,0-3.12-.3c-1.634,0-3.268.149-4.011,1.189s-.3,2.971-.3,3.863S711.891,657.618,711.891,657.618Zm-.446-4.606a14.087,14.087,0,0,1,4.309-1.04,2.369,2.369,0,0,1,1.932.446c-.6.891-1.486,1.634-5.5,3.714-1.038,0-.741-2.971-.741-3.12Z"/><path d="M706.245,659.847a2.764,2.764,0,0,0,.3,3.714,3.135,3.135,0,0,0,3.863.3,3.371,3.371,0,0,0,.446-4.309,3.1,3.1,0,0,0-4.384.069c-.024.026-.049.052-.073.079Zm3.417-.149c1.783,1.04,0,4.012-1.931,2.972C706.245,661.778,708.181,658.807,709.662,659.7Z"/><path d="M697.925,598.632c-3.566-2.972-7.875-5.943-11-8.321,4.606,8.767,9.955,19.613,13.966,26.448a120.71,120.71,0,0,0,7.29,11.288"/><path d="M679.352,580.947a67.565,67.565,0,0,0,1.783,7.875l3.417-.3c-.445-.445-.891-.742-1.337-1.188"/><path d="M619.474,649.6c1.04,1.634,2.08.148,2.08-2.823s-.742-2.972-.742-2.972h0a.146.146,0,0,1-.143.149h-.006a4.35,4.35,0,0,1-1.783,1.04A6.131,6.131,0,0,0,619.474,649.6Z"/><path d="M669.1,653.012c1.337-.148,2.229-1.931,2.229-4.309a3.327,3.327,0,0,0-.892-2.526,3.638,3.638,0,0,1-2.377.892h-.743a8.24,8.24,0,0,0-.3,2.674C666.871,651.675,667.763,653.309,669.1,653.012Z"/></g></svg>