<svg id="svgcontainer" xmlns="http://www.w3.org/2000/svg" viewBox="0 0 1311.974 1680.872"><title>krillin</title><rect id="contour" width="1311.974" height="1680.872" style="fill:none"/><g id="color"><path id="sourcils" d="M703.913,804.276c-5.4.9-13.2,4.5-18.7,9.4-4,3.6-7.4,8.4-11,14.5h-34.5a54.414,54.414,0,0,0-4.3-8.3c-4.7-7.1-10-11.5-15.6-13.8s-11.1-2.1-14.1.9c-2,6.8-4,15.8-3.1,16.8.4.4,4.7-2.4,9.1-3.7a15.213,15.213,0,0,1,11.1.7c8.1,3.7,12.9,9.4,19.9,17.4a47.858,47.858,0,0,0-2.7-8.9h33.5c-1.1,1.9-2.2,3.9-3.4,6.1,1.6-.6,6.3-6.8,8.7-8.8,8-6.7,14.8-10.1,21.1-10.1,8.7,0,13.5,4.5,17.5,7.5a44.336,44.336,0,0,0,8.3-13C721.013,805.476,709.313,803.376,703.913,804.276Z" style="fill:#fff"/><path id="peau" d="M779.513,1214.076c-4,.5-12.4-.7-21.8-1.4l-5.3-.4-64.7-283.4c1.4-.3,2.7-.5,3.9-.7,2.5-.4,4.6-.8,6.2-1.1a22.223,22.223,0,0,1-.3-6.3c-3.7,1.3-7.4,2.4-10.9,3.3l-.3-1.4c10-2.3,21.6-6.1,29-11.8,9.3-7.1,15.1-12.3,22-24.5,3.4,1.8,8,1.5,15.1-2.1s13.2-9.3,15.2-13.2a85.727,85.727,0,0,0,8.1-27.1c.5-4.3,1-7.4.7-10.5-.6-6.1-3.1-10.1-5.3-10.7-3.3-.8-7.3,2.7-11.8,4.7s-11.3,7.8-12.9,10.4c-2.7-3.9-2.5-4.3-3.3-8.7a50.043,50.043,0,0,0-3.3-10.8l.3-.7s4,1.8,5.3.5,3.1-8.1,1.7-15.8a65.842,65.842,0,0,0-8.9-23.9c-5.1-8-8.3-10.3-12.8-11.1s-13-.9-21.3-.3a115.7,115.7,0,0,0-21,3.8,34.2,34.2,0,0,0-5.7,1.7c-1.6.8-2.1,1.7-2.4,1.4s.7-2.2.7-2.2c-1.9.8-4.5,1.9-6.5,2.9-2.2,1.1-3.7,1.9-4.5,1.6a18.144,18.144,0,0,0,2.9-3.8c-2.9,1.3-7.8,5.3-9.8,5.3-1.4,0-5.3-2.9-9.4-4.3-.6.6,1,2.2-1.8,1.1s-3.5-2-6.2-2.5c.3,1.7,1.5,2.8.8,2.8s-1.9-.8-7.3-2.6a38.888,38.888,0,0,0-11.9-2.6c-5.9-.6-12.2-.7-14.3.7s-2.5,2.5-6.1,6c-3.5,3.5-5.3,6.4-5.9,8.7a181.529,181.529,0,0,0-4,23.2c-1.2,10.8-1.9,21.5-1.3,25,.7,4.1,2.9,17.8,4.4,28.6h-1c-1-7.9-2.2-15.6-3.4-23.2-.1-.4-.2-.9-.3-1.3,0,0-.9-.3-1.6,3.2-.8,4.3.1,17.4,1.4,23.7a70.832,70.832,0,0,0,6.2,17.2c-.4-3.3-1-7.3-1.7-13.6l-.4-2.8h1.1c1.4,10.1,2,17.8,2.4,23.3.5,5.8,0,9.3,8.8,16.4a86.139,86.139,0,0,0,16.7,10.7,128.209,128.209,0,0,0,21.8,7.7,72.725,72.725,0,0,0,20.2,2.6v1.2a90.467,90.467,0,0,1-16.4-1.8v6.4a19.416,19.416,0,0,1,4.8.9l.6.2-107,276.6c-1.9-.1-4.7-.3-6.1-.4.1,2.6.6,12.1,1.1,12.6a27.849,27.849,0,0,0,4.2,3.5c.3-2.1.6-4.3.8-6.5l109.7-283.7a16.131,16.131,0,0,1,1.5,5.3c.3-.5.6-.9.9-1.4,1.5-1.9,3.9-4.4,6.3-4.9s7-1.6,10.6-2.4c1.9-.4,4.7-1.1,7.6-1.7l64.9,282.4c-6.9-.4-14-.8-18.6-1.1a16.609,16.609,0,0,0-1.5,3.3c-1,2.9-1.2,4.5.3,6.1s3.6,1.6,5.2,3.3,4,3.6,6.2,3.8c-1.2-2.4-1.9-6.5-2.4-7s-2.7-1.3-3.3-1.9.3-.9,2.1.1c2.2,1.3,2.6,1,3.4,3.5.4,1.3.6,3.8,1.8,5.6s3.1,2.7,4.8,3.7c2.1,1.2,3.7,0,5.1-.5,1.9-.7,2-1.4,2.9-1.4s2.9,1.2,5.4,1.2a12.747,12.747,0,0,0,9.4-4.6c7.2,2.8,11.6-4.6,11.6-4.6a4.827,4.827,0,0,0,3.7-.7c2.2-1.2,4.9-5.6,5.9-9.7C786.013,1212.576,782.713,1213.676,779.513,1214.076Zm-32.6-346.1c.5-.5,2.8-.8,4.6.1.1-.5.2-1.1.4-1.8.4-1.6.9-3.6,1.2-5.3a10.866,10.866,0,0,1-4.6-3.3h.9l.1.1c1.7,1.7,2.3,2.2,3.7,2.3a6.462,6.462,0,0,0-.1-2.4c-.5-1.6-3.1-5.1-4-6.3,0,.1-.1.2-.1.3-.7,1.7-1,2.9-.7,4h-.6c-.6-2.3-.2-4.1,1.4-6.8h0a20.708,20.708,0,0,1,2.8-3.8c2-2.2,4.5-4,5.6-5.1,1.7-1.7,5.2-5.9,6.5-6.1s2,1.4,2.9,4.9a36.307,36.307,0,0,1,1,8.7c0,3.2-.6,4.9-1.3,5.6,1.3-7.7,0-10.4-.8-14.5s-1.3-4.6-3.3-2.6c-1.6,1.6-3.3,3.4-5.4,5.5,0,2.1.1,4.3.3,6.4.4,3.4,2.9,3.7,3.5,4.4a4.1,4.1,0,0,1-3.5-1.8c-.6-1.2-1.2-2.2-1.2-8.1l-.9.9a28.373,28.373,0,0,0-5.9,7.5c3.4,4,4.5,6.1,4.8,7.7s-.5,4.9-1.1,7.4-1.5,4.6-1.8,4.4-.1-.6.1-1.6a5.122,5.122,0,0,0-3-.3c-1.3.3-1.8,2.2-2.4,3.1-.3.5-1.6.4-2.9,1a4.68,4.68,0,0,0-2.2,2.4c-1.4,2.6.3,3.5.5,4.5-2-.4-2.6-3.4-.8-5.9s4.2-2.2,4.8-2.5S746.413,868.476,746.913,867.976Zm-3.4-30c-1.7-3.5-2.7-9.7-4.4-17.1C741.013,822.676,742.813,831.476,743.513,837.976Zm-3.4-7.6h0c1,3,1.6,6.3,1.1,7.3-2.4-7.8-2.5-10.5-3.5-12.3C739.613,825.776,739.313,827.776,740.113,830.376Zm-56.5-2.5h0c-2.4,2.3-3.9,4.9-4.3,4.5s2.1-3.4,4.1-5.3,8.5-6,14-5.1,8.7,3,11.5,11.3c3,9.1,1.1,20,.5,25.7-.1,1.2-1.4,1.5-1-.6s1.9-14.2.2-22-4.1-10.9-7.9-12.6-8.6-1.2-12.9,1.1A13.991,13.991,0,0,0,683.613,827.876Zm.8,22.8h0c0,4.1-2.4,6.8-4.8,6.8s-4.7-1.4-5.2-6.3c-.4-4.6,2-8,5.2-8S684.413,846.476,684.413,850.676Zm24.6,25.8h0c.5.5.1.3-6.4.9s-12,1.6-15.6,3.1c.5-1.4,5.2-2.6,11.8-3.6A38.6,38.6,0,0,1,709.013,876.476Zm-19.3,6h0c6.7-2.7,16.8-3.7,23.9-1.4C707.313,880.376,705.113,880.176,689.713,882.476Zm32.8-55.4h0c.7-2.2,7-9.3,8.6-11.5C731.013,817.776,722.513,827.576,722.513,827.076Zm5.9-12.6c0,.6-4.2,7.9-8.9,11.5.9-1.9,3.9-4.6,8.4-11.7C728.113,813.776,728.413,813.876,728.413,814.476Zm-37.8-5.7h0c10.9-6.5,16.7-6.1,23.3-4.7s11.6,5.2,12.7,7c-1.6,4.5-5.7,11.5-9.1,14-.8,0-2.5-2.3-8.2-5.4s-12.7-3.9-20.9,1.1a51.857,51.857,0,0,0-14.8,12.8c-2.8,3.5-3.7,3.8-3.7,3.8l-1.1-.7C673.313,826.976,679.713,815.276,690.613,808.776Zm-19.5-30.9h0c2.2-1.1,4.7.5,5,3.4a3.2,3.2,0,0,1-2.6,3.7,3.244,3.244,0,0,1-2.8-.8C668.313,781.776,668.913,778.976,671.113,777.876Zm-.7,20.7h0c3.2-.5,4.5,3.3,4.5,4.8s-3.6,3.7-5.9,2.1C666.413,803.776,667.213,799.076,670.413,798.576Zm-31.4-19.8h0c2.6-1,4.5,1.6,4.8,3.9.3,2.7-3.1,4.1-5.9,2.5C635.413,783.776,636.413,779.876,639.013,778.776Zm-2.74,21.484c.013-.028.026-.056.04-.084a3.739,3.739,0,0,1,1.2-1.3c3-1.9,6.5.3,6,3.3s-3.9,2.7-5.8,1.9A2.885,2.885,0,0,1,636.273,800.26Zm-39.16,20.216h0c-.4,2.9-.1,4.8-.7,4.8s-.7-2.6,0-6.3.7-5.4,1.1-5S597.513,817.576,597.113,820.476Zm2.3-4.2h0c.8-4.2,1.9-7.9,1.9-8.5,0-1.1.6-.6.6.6s-3.2,15.7-3.2,15.7C598.413,823.376,598.813,819.476,599.413,816.276Zm2,7.4c0-1.3.6-7.3,3.6-17.3,3.3-3.3,10.8-4.1,19.2.8,4,2.3,10.3,8.9,14,16,4.2,8,5.7,16.5,5.3,16.9-.7.7-2-2.6-7.6-8.1s-13-11.3-18.4-11.7-13.1,4-14.3,4.4h0C602.013,825.076,601.413,824.976,601.413,823.676Zm10.6,26.2h0c.3,5.8,1.6,11.3,1.6,12.2-1.2-1.1-2.3-6.4-2.3-17s3.7-15.6,7.8-18.7c4.1-3.2,10.9-1.3,15.6,8.4.2.5-.4,1.3-1.2-.3s-4.7-8.7-10.3-8.7-8.9,6.5-10.1,11.1A47.652,47.652,0,0,0,612.013,849.876Zm-6,28.7h0c0-1.1,9.8-3.9,17.7-3.9.3.3.4.6-2.8.9A91.449,91.449,0,0,0,606.013,878.576Zm2.4,2.1h0a77.528,77.528,0,0,1,20.1-4.8c1.5,0,3.4,0,.1.6-2,.4-6.3,1.1-11.4,2.2C614.213,879.476,609.813,880.776,608.413,880.676Zm10.9-.4h0a45.054,45.054,0,0,1,14.9-3.1c1.9,0,1.9.9,1.9.9C633.113,878.176,632.613,877.376,619.313,880.276Zm16.7-22c-2.2,0-5-2.1-5-6.4s3.1-7.7,5.3-7.7,4.3,2.1,4.3,6.9S638.213,858.276,636.013,858.276Zm15.8,40.2h0c-7.1-.7-9-1.6-11.7-3.5-.6-.4,0-1.2,0-1.2.4,0,2.7,4,15.1,4s16.2-2,19.3-5.9c.9-1.1,1.5-1.4,1,.2s-3.6,4.1-8,5.2A41.354,41.354,0,0,1,651.813,898.476Zm28.1,27.3a77.009,77.009,0,0,1-12.7,1.3v-1.3a92.827,92.827,0,0,0,11.8-1.4c1.1-.2,2.3-.4,3.5-.7l.3,1.5c-.9.2-2,.4-2.9.6Zm-1.5-43.8h0c.4-.4,4.8-2.1,10.7-4.3s10-2.8,11.1-2.8c-2,.9-4,.9-9.9,3.2S678.413,882.276,678.413,881.976Z" style="fill:#fff"/><path id="btn3" d="M681.513,967.776c-.2-2.5-.2-2.4-2.4-2.4s-3.9.7-7.5.7-4.9-.5-10-.5c-5.5,0-10.5-.4-11.8-.2a2.826,2.826,0,0,0-1.8,1.4h-1.1a4.9,4.9,0,0,1,1.7-1.8c-9.3-1.5-12.3-2.4-15-3s-3.2-1.1-4.8.5-1,3.2-1,5,2.3,2.6,3.3,2.8,2.5.4,4.6.9,5.3.6,10.4.9a3.194,3.194,0,0,1-.3-1.4h.9c.1,2,2.3,2.9,4.6,3.2,2.5.3,12.1,0,16.9,0s8-.2,10.2-1.1A4.607,4.607,0,0,0,681.513,967.776Zm-47.9-.9c-1.5-.2-1.3-.9,0-.9s5.1,1.3,11.7,1.9v.8c-1.2-.2-3.2-.4-5.1-.7C637.213,967.576,634.313,966.976,633.613,966.876Zm17.3,5.4a3.529,3.529,0,0,1-1.5-1.7h1.3a1.484,1.484,0,0,0,2.077.3h0a1.3,1.3,0,0,0,.122-.1l.1-.1.1-.1h1.3c-.1.2-.2.3-.3.5a4.717,4.717,0,0,1-3.2,1.2Zm24.2-2.8c-1.5.3-4.2.3-9.6.3-3.5,0-7.3-.1-9.5-.2v-.6c7.1-.1,17.6-.4,18.9-.4S676.613,969.176,675.113,969.476Z" style="fill:#fff"/><path id="btn1" d="M592.313,1022.676c-1.1-5.3-2.1-9.4-2.7-11.2a2.359,2.359,0,0,0-2.8-1.6v-.8a3.13,3.13,0,0,1,1.9.2c.1-1.1,0-2.3-.6-6-.6-4.2-1.3-9.5-2-10.3a2.454,2.454,0,0,0-3.2-.6,5,5,0,0,0-2.3,3.8,96.1,96.1,0,0,0,2,15.1,10.946,10.946,0,0,1,1.7-1.3v1.1a3.8,3.8,0,0,0-1.6,2.5,66.079,66.079,0,0,0,1.2,10.8,51.7,51.7,0,0,0,3.3,12.1c1,2.2,3,1.6,4.9.4s2.8-2.2,2.8-3.5S593.413,1027.876,592.313,1022.676Zm-8.3-25.2c0,.6.3,2.7.8,6.1.3,1.9.6,3.3.7,4.1h-.8a87.775,87.775,0,0,1-1.2-10.3c-.1-.9.5-.6.5.1Zm6.2,36.2c-.2-1.1-1.6-6.4-3.1-15.1h-.3v-.9c.1,0,.2.1.3.1.6,0,1.3-.5,1.3-2s-.8-2.5-1.6-2.5v-.8c1,0,2.3.4,2.7,2.9.4,2.1-.6,3-1.6,3.3,1.1,6.2,2.9,13.9,3.1,14.9S590.413,1034.876,590.213,1033.676Z" style="fill:#fff"/><path id="btn2" d="M626.513,998.676c-2.7-5.3-5.9-11.2-6.3-11.5a2.087,2.087,0,0,0-1.8,0v-.9l1.5-.3c-1.9-4.4-3.4-10.7-4.8-11.5s-3.1-.1-4.8,1.6-1.4,2.9-.9,4.6c.6,1.7,2.1,6.8,3.8,8.5a10.065,10.065,0,0,1,1.9-1.6l.8-.4c-1.4-3-2.7-6.1-3.8-9.2-.3-.8.5-.9.8,0a89.382,89.382,0,0,0,3.7,9l.2-.1v.9l-.4.2c-2.1,1-3.2,2.5-3,3.9.2,2.3,4.3,10.1,6.4,15s3.8,8.2,5.4,9a4.279,4.279,0,0,0,2.9-.8c1.4-1,3.8-2.4,4.4-3.6C630.213,1008.076,629.113,1003.976,626.513,998.676Zm-9.9-8.6v4.2c-1.2-1.3-1.5-3.4,0-4.2Zm11.4,22.6c-.2.2-1.1-1.5-3-4.8a115.584,115.584,0,0,1-5.9-12.3h-.7v-.8c.8.2,1.9,0,1.8-1.8s-.9-2.4-1.8-2.4v-.9a2.772,2.772,0,0,1,3,2.4,3.162,3.162,0,0,1-1.5,3.3c.4.8,1.5,3.1,2.7,5.9a61.541,61.541,0,0,0,4.3,8C628.313,1011.676,628.213,1012.476,628.013,1012.676Z" style="fill:#fff"/><path id="ecusson" d="M703.313,1012.576c-5.7-5.7-16-9.5-24.8-8.4a30.332,30.332,0,0,0-20.5,11.3c-5.5,6.7-6.4,12-6.7,15s-1.9,10.3,3.6,17.5,14.2,13.4,24.4,13.4,16.2-2.8,22.7-9.2c6.5-6.5,8.8-13.3,8.8-21.5C710.913,1022.576,709.013,1018.276,703.313,1012.576Z" style="fill:#fff"/><path id="cheveux" d="M772.013,756.076c-2.2-9.2-7.8-20.3-20.4-30.1s-21.1-12.2-31.3-16.1-17.6-5.7-32-18.9c0,7.3,1.5,10.3,1.5,10.3l2.1,1c-1.8.4-4.2-.6-10.3-3.5a56.28,56.28,0,0,1-10.9-7,23.961,23.961,0,0,0,3.2,9.3,87.073,87.073,0,0,1-11.4-3.1c-7-2.5-14.6-5.8-21-8.2-.1,5.3,3.2,10.2,3.2,11.1v1.6c-3.2-1.3-7.7-1.9-14.8-4.6-6.9-2.6-10.2-1.8-10.2-1.8,1.6,8,1.6,10.4,2.3,12.7a27,27,0,0,1,.8,3.9c-3.8-1.4-12.6-3.6-12.6-3.6,0,5.9-.1,10-.1,10-6.4-1.3-12.3-2.4-19.3-2a138.865,138.865,0,0,1,1.9,22.3c-5.7-2.2-8.4-2.9-11.8-3.4.6,4.6,4.7,21.2,4.7,24.5s-2.2,7-3.3,15.3-1.7,13.9-.8,23,2.7,21.9,8.2,33.3h0a237.728,237.728,0,0,1,1.1-25.3c.5-4.7,3.8-21.3,4.5-22.7a40.263,40.263,0,0,1,7.1-9.3c2.5-2.5,3.8-4.6,6.3-5.2s13.3-1,19.1.4a68.64,68.64,0,0,1,12.3,4.2s-1.9-2.4-.4-2.4,2.8.9,7.8,2.4c0,0-1.5-2.1-.5-2.1s4.1,2.3,10.6,5.4c3.7,0,5.2-4.2,11.4-6.1.3.7-.2,1.4-.8,2.1l-1.1,1.5s9.3-4.3,10-4.3,0,1.3,0,1.3,13.8-4.9,25.4-5.8,21.3-.8,25.5.8,9,6.8,13.3,14.6,6.6,17.7,7.2,25.1-1.9,12.3-2.3,12.8-2.3.4-5-.1c2.3,7.3,3.2,14.3,5,17.3,7.5-7.5,17.6-13.5,22.2-14.9,2.2-8.5,5.3-18.5,5.9-29.6S774.213,765.276,772.013,756.076Z" style="fill:#fff"/><path id="pantalon" d="M751.313,1399.276c-4.4,4.4-8.5,8.6-9.8,8.8,0-1.3,3.7-4.5,8.7-9.5s8.3-7.8,8.3-11.2-3.8-6-3.8-10.3c0-3.8,1.1-7.2,2.1-19.4-3.7.5-6.9.7-7.3.3-.7-.7-.9-3,.4-15s1.2-35.5,1.2-44.9-.7-30.2-1.3-42-.5-15.3-1.9-23.5a.6.6,0,0,1-.4-.1,15.122,15.122,0,0,1-4.5-2h0c1.4,9.2-1,33.3-1.8,46.3s-4,39.9-5.7,53.5-3.7,26.5-4.4,29.3-5.4,1.3-14.5,1.3-24.3-1.3-37.6-1.3c-4.7,0-8.2.1-11.2.3h-.4l.8-.1-.1-.5-27.3,3.6h-1.2v.2l-.9.1.1.5.8-.1v.2c-7.3.9-14.9,1.5-21.5,1.8a94.345,94.345,0,0,1-27-2.8c-7-1.8-22.3-7.1-27.6-7.7a19.061,19.061,0,0,0-8.2.6,77.737,77.737,0,0,0,3.8,24c1.7,5.5,3,9.7,3.5,11.2l1.2-1.5c1.3-1.7,2.3-2.9,3.2-4.3,1.3-2,2.3-3.8,3.5-3.4-2,4.4-3.8,6.5-6.6,9.8-3,3.6-4,4.7-4,6.6s1.2,7.8,1.2,9.6-1.5,4.8-2.8,8.5c-1.2,3.3-2.6,6.1-2.5,8.3a65.587,65.587,0,0,1,8.1-4.7,23.509,23.509,0,0,1,12.4-3c5.4,0,10.3,3.1,24.3,8.3s18.4,6.4,25.7,8.1,8.8,1.3,9.2-.3-1.4-16.3-1.4-17.8,1.7-7,4.3-20.9,2.8-15.1,3.9-30.8l-1.5.2v-.2l25.8-3.4c-.6,12.2,3.4,32.1,4.3,38.2a26.808,26.808,0,0,1-1.2,14.3c-1.5,4.4-1.8,5.2-.4,7.3s5,5.5,5.8,6.8c1.1,1.9.8,5.8.8,8.3s-.1,4.6.8,4.6,4.8.1,12-1.8,15.8-6.5,22.4-10.2,11.5-7.2,15.7-7.2c2.6,0,9.7,2.4,15.8,5.3a41.248,41.248,0,0,1,10.2,6.4c2.7-7.2-.7-13.5-2.6-18.6C748.713,1408.476,749.713,1405.276,751.313,1399.276Zm-146.8,7.8c-9.3-6.3-9.3-8.3-9.3-9s12.8-10.5,15.3-11.6c0,1.1-14.2,11.2-14.2,11.8,0,.4,1.3,2.3,4.3,4.8,1.6,1.2,3.8,2.5,6.2,4,7.1,4.5,12.3,7,12.1,7.3s-5.1-1-14.4-7.3Zm85-1.6c-3-2.1-4.3-10.3-3.6-12.4.8,2.2.5,7.9,3.8,11.3,2.3,2.3,10.7,3.8,17.7,4.8,3.3.5,8.1.8,8.3,1-3.8,1.9-23.2-2.7-26.2-4.7Z" style="fill:#fff"/><path id="tunique" d="M808.013,1181.176c0-10.2-.2-20-.2-22.3s-2.1-4.3-6.9-7.5c.4,4.2.7,7,.8,7.1a7.182,7.182,0,0,0,2.4-2.5,1.736,1.736,0,0,1,.3,1.4,8.48,8.48,0,0,1-3.4,3.1c-2.9,1.6-7.2,2.9-11.8,4-7.9,1.9-13.4,3.4-31.7,3.4-3.3,0-6.4-.3-9.1-.4a132.271,132.271,0,0,1-20.8-2.2v-1.1c1.3.3,3,.5,5.1.8a289.755,289.755,0,0,0,32.3,1.8c13.3,0,26.4-4.3,30.8-5.7a26.213,26.213,0,0,0,4.6-1.9c-.6-4.8-1.5-15.4-2.2-26.1-.6-8.8-1.2-18-1.6-21.5-.8-7.8-2.6-23.6-5.1-38.9s-6.5-38-8.3-46.2-3.2-20.2-7.5-26.2-15.2-16.3-23-22.5c-4.3-3.3-11.7-9.3-18.4-13.9a154.342,154.342,0,0,0-13.5-8c-3.2-1.6-5.2-6.7-7.7-7.4a7.866,7.866,0,0,0-4.3.1c.3,2.9.6,5,.6,5.2s-.3.8-.7.5c-1.5.8-6.9,3.5-8.5,4.4a16.1,16.1,0,0,1-5.8,1,62.768,62.768,0,0,0,8.5-3.4c3.8-1.8,4.1-2.2,5.4-2.7a6.279,6.279,0,0,1-.2-.7c-.5-2.4-1.5-11.3-2-17.8s-.4-8.3-3-9.4a10.523,10.523,0,0,0-4.3-.7,13.552,13.552,0,0,0,.2,2l1.7-.4c1.1-.3.8.6-1.1,1.4s-7.3,1.3-14.5,2.8-14.4,3.1-17.6,3.9-3.9,1.2-6,3.3-2.4,3.5-2.8,6.9c-.3,3.4-1,14.9-1.3,16.4a2.221,2.221,0,0,1-.5,1.1h3.1c3.5,0,12.5-.5,19.1-1.2s10.5-.9,11-.9.9.5,0,.5-3.7.5-10.3,1c-6.3.6-19,1.1-23.4,1.2a12.094,12.094,0,0,1-1.6,1.6c1.2.1,2.4.2,3.8.2,4.5,0,5.7.1,10.8.4s5.8-.4,8.7-.4,4.2-.1,4.2,1.2a9.744,9.744,0,0,1-1.3,6.2c-1.8,3.1-9.6,2.6-14.8,2.6-9,0-13.5.6-16.8-.2a4.961,4.961,0,0,1-2-.8,29.417,29.417,0,0,1-5.3,4c-3.5,2.3-4.5,2.6-7.7,4.4s-5.2,2.5-7.7,3.8a40.946,40.946,0,0,0-4.4,2.8c1.3,2.4,3.2,6.3,5.3,10.6,1.5,3,2.6,5.6,3.6,7.7,1.1,2.5,2,4.2,2,4.4,0,.4-3.5,3.5-4.8,4.3a14,14,0,0,1-4,1.1c-2.4-2-3.8-4.9-5.3-8.4s-2.7-5.7-4.4-9.8l-1.6-4c-5.9,3.9-20.2,14.4-22.8,16.4.8,2.1,1.7,6.1,3.2,12.7,1.7,6.9,2.3,8.4,2.3,9.8s-.7,2-2.7,3.5-4,2-5.3,1.7-1.8-1.1-3-5.7a85.631,85.631,0,0,1-3.2-18.2h0a1.4,1.4,0,0,0-.9.3c-.4.4-.3,1.3-1.5,6.6-1.3,5.3-2.5,7.8-3.7,14.3s-2.2,14.7-4.9,28c-2.8,13.3-8.8,45.7-11,60-.7,4.8-1.9,14.2-3.2,25.1h-.9c.3-3,.7-5.9,1-8.6,1.6-13.6,5-32.1,6.5-40.4s5.8-34.4,8.2-45.6c.6-2.7,1-5,1.4-7-2.5-5.6-3.4-20.2-2.9-19.7a30.8,30.8,0,0,1,1.3,6.6c.5,4.1.9,8.9,2.1,10.5.8-4.3,1.1-6.5,1.4-8.3-1.8-14.9-2.1-24.7-.9-25.9a118.259,118.259,0,0,0,1.5,22.3,35.709,35.709,0,0,1,1.6-5.6,69,69,0,0,0,2.5-10.2c.6-2.7.8-2.9,2.6-4a1.8,1.8,0,0,1,.2-1h0a100.882,100.882,0,0,1-1.9-15.5c0-2.5,1.1-5,3.3-5.6a2.8,2.8,0,0,1,3.8,2c.5,1.5,2.1,11.1,2.4,13.3a10.13,10.13,0,0,1,.1,3l.3.3c5.2-3.8,10.6-7.7,13.6-9.9,2.8-2,8.1-5.6,9.3-6.5-.2-.5-.3-.8-.4-1.1a2.983,2.983,0,0,1,.3-2.6c-1.4-1.6-2-3.3-3-6.3a33.145,33.145,0,0,1-1.6-6.2c0-.7,2.4-3,4-3.8s3.8-.8,5.5,3.1c1.5,3.4,2.5,7.4,3.2,9.2.1,0,.2.1.3.2a5.986,5.986,0,0,1,.9,1.5c3-1.7,5-2.7,8.4-4.3a53.35,53.35,0,0,0,7.1-3.8c2.4-1.6,4.5-2.5,6.8-4a8.493,8.493,0,0,0,2.6-2.4l-.2-.2c-1.8-.1-7-.4-10.6-.7-4.5-.3-3.7-1.1-5.2-1.5a11.783,11.783,0,0,1-4-1.7c-.6-.6-.9-5.4.8-7,1.6-1.6,4.3-1.4,8.6-.4a123.992,123.992,0,0,0,14.8,2.7h0c.8,0,1.8.1,2.9.2.6-.7,1.1-1.2,1.4-1.5a33.457,33.457,0,0,1-10.4-1.4c-4.5-1.2-8.4-2.6-11-5.2,1.8.4,5.6,3.9,13.2,5,4.4.6,6.8.8,8.8.9a1.4,1.4,0,0,0,.3-.4c.3-.3.9-5.7,1.3-13.1.2-3.2.3-5.2.5-6.5h0c0-3.7-1.6-7.9-3.3-8.7s-5.4-1.3-9-1.7-5.2-1.2-5.2-1.6,1.9.5,5.4,1a14.118,14.118,0,0,0,1.8.2l-.5-4.4c-3.7.1-5.4.9-8.2,2.1s-3.1,4.8-3.5,10.1c-.5,5.3-.9,12.6-1.2,15.1-.4,2.5-1.4.8-1.1-.5a1.7,1.7,0,0,0,.1-.7c-2.6-.9-4.7-1.3-5.7-.2s-1.7,3.5-2.8,4.1-4.7,2.6-11.4,6.8-24.1,14.9-29.6,18.3-6.6,6.2-10,8.9c-3.4,2.8-9.1,12.3-10.9,19.5s-3.9,19.5-5.8,29.6c-.9,5.1-2.5,11.1-4.2,18.6-1.6,7.3-3.4,16-4.5,21.2-2.3,10.5-4.6,19.2-6,25.9-1.4,6.5-7.6,40.9-9.2,48,4.1,1.8,11.4,2.4,17.1,2.1v1.3a56.2,56.2,0,0,1-9.2-.2c-6.7-.8-10.3-2.3-10.3-4.7a6.349,6.349,0,0,0,1.3,1l.2-2.5c-4.8,1.9-6,2.8-6,5.7a145.535,145.535,0,0,1-1.3,17.4c-1.2,9.6-2.6,18.7-2.8,22.7s.3,3.8,2,5.5,12.1,4.6,15.2,5.2a25.556,25.556,0,0,0,9.1.8c.9-7.2,1.8-14.3,2.4-20.2.9-7.9,1.9-16.4,2.8-24.6h1.1c-2.1,18.7-4.3,38.1-5.2,45.3-1.7,13.4-5,40.5-6.3,54.7s-3.1,36-3.1,48.1-1.3,29.4-.5,43.1c2.8,2.8,9.3,1,15.1.3a39.621,39.621,0,0,1,19,1.9c8.1,2.7,19.9,6.2,30,7.7s26.1-.4,37.7-1.6,21.1-4.1,36.7-4.1,36.9,1.3,43,1.3,7.8,1.3,8.8-.8,2.7-17.8,4.9-34.5,6.2-57.9,6.6-68.4c.4-10.3,1.5-14.3.5-25.6l6.9,2.1c1.3,6,1.3,11.4,1.9,23.2s1.5,39,1.5,49.7-.5,30.1-1.2,37.8-1.4,10.3-.6,13.5c13.1-.4,27.2-6.7,30-9.5s3.1-4.3,3.7-11.1,1.3-13.6,1.3-22.3-1.4-33.5-1.7-46.2-1.3-27.6-1.8-34.6c-.4-6-.4-7.3-1.3-9.1-3,3.5-6.8,4.5-11.3,3.5-5,4.3-10.7,5-14.8,2.9a22.5,22.5,0,0,1-4.5,1.9l-8.2-2.5v-.1h0l-1.5-1.5c-3.5.1-4.4-1.1-5.7-2.4a18.1,18.1,0,0,0-4.3-2.9c-2.7-1.3-4.4-3.3-4.7-5s1.1-3.8,2.2-7.1c-6.1-.5-8.3-1-10.2-3s-1.8-3.7-1.8-9.2c0-2.5.3-7,.5-12.1.3-6.3.5-13.1.5-15.3h1.1c.5,5.4-.6,24.4-.6,30.5s3,6.5,6.3,7.5,12.3,1.1,23.5,1.9,27,2,29.8,2,7.6-1.2,13.7-3.2,11.4-3.2,13.2-4.3c1.8-1.2,2.9-3.5,3.6-5.9S808.013,1191.276,808.013,1181.176Zm-38.4-95.2s.5-.8.5.2c-1.7,7.2-10,31.4-13.8,40C757.413,1121.876,768.713,1090.476,769.613,1085.976Zm-5.7,24.6c.7,1.5-.8,6.6-2.9,12.4s-5,13.3-6.9,16.8c2.5-7.7,4.7-11.8,9.8-29.2Zm-160.4,185.4c-1.4-9.2-3-23.8-3.8-34.8s-1-33.7-1.3-43.9.1-16.5-.3-20.5a50.244,50.244,0,0,1,.5-6.7c.3-2.7.4-4.5.9-4.5.4.4.1,1.7-.1,6.7s-.1,20.8.3,31.1.4,35.3,2.6,54.5,2.7,24.3,6.5,32.5c-2.2-1.6-3.9-5.2-5.3-14.4Zm117.3-269.2c0-5.6.8-9.3,1.2-9.3s-.2,1.3-.2,7.3c0,5.9-1.3,14.5-.2,18.3s3,9.7,4,10.6c.4-4.3.7-7.2.9-7s-.6,8.1-1,18.1-1.3,36.3-1.3,47.9c0,5.9,0,19.7.3,31.3,0,2.6.1,5.1.2,7.5h-1.2c-.5-17.7-.1-32.3-.1-43.1,0-13.3.7-30.8,1.3-41.5.3-4.2.5-8.2.8-11.6-1.5-1.5-1.3-2.2-2.9-6.4s-2.3-5.3-2.3-10c0-4.8.5-6.5.5-12.1Zm-60.5,258.5v17.1c-1.7-1.7-1.2-5.7-1.2-18s1.3-28.1,1.8-38.7,1.3-19,2.1-19c0,2.2-.7,7.9-1.2,20s-1.5,26.7-1.5,38.6Zm5.3,1.8c-.9,14.7-2.2,46.1-2.5,47.7-.9-1.9-.4-10.2.3-24.4.4-8.9,1.7-26.4,2.4-38.9.3-4,.5-7.5.6-10,.1-2.3,0-3.9.6-3.7,0,1.5-.5,14.6-1.4,29.3Zm42.7-241.5a32.579,32.579,0,0,1-26.9,16.6c-13,.6-23.6-7.6-28.5-16.1-4.8-8.5-3.2-22.2,4.6-31.1,5.4-6.1,12.3-11.6,24-11.6s21.4,5.8,26.5,13.4c5.2,7.6,4.8,20.7.3,28.8Z" style="fill:#fff"/><path id="semelle2" d="M730.913,1471.876c-4.7-.8-14.8-4.3-22-8.3-3.8-2.1-7-4.3-10.2-6.4-2.9-1.9-5.9-3.8-8.3-5.5-4.5-3.3-8.1-7.1-11.5-10.1a13.608,13.608,0,0,0,.9,4.8c.9,2,1.7,2.7,5.2,6.2s8.1,4.3,13.7,8.3,12.1,10,19.2,13.7a57.018,57.018,0,0,0,7.2,2.9c4.4,1.5,8.2,2,16.5.8,12.2-1.8,18-6.3,18.5-7.6a27.561,27.561,0,0,0,.6-4c-4.7,3.3-10.8,4.6-15.4,5.4A46.274,46.274,0,0,1,730.913,1471.876Z" style="fill:#fff"/><path id="shoe2" d="M724.513,1469.176c11.5,3.5,13.5,2.9,21.4,1.5,7.1-1.3,12.4-3.2,14.7-5.7a72.313,72.313,0,0,0,0-11.4c-.6-6.5-4.8-14.3-6.7-18s-3.8-4.8-10.3-8-12.5-6-16.5-6a17.518,17.518,0,0,0-5.9,2.2c-5.9,2.9-14,7.9-17,9.6-8.4,4.7-20.5,7.1-24.3,7.9,5,4.1,8.5,8.3,17.2,13.8C706.513,1460.876,713.013,1465.676,724.513,1469.176Zm17.6-31.9c-1.5,0-9.1-.1-10.3.3a17.065,17.065,0,0,1-6,.8,2.075,2.075,0,0,1,1-.6,20.7,20.7,0,0,0,4.2-.8c2-.8,11.6-.4,11.6-.4S743.613,1437.276,742.113,1437.276Zm-25.6,1.6c3.1-1.9,14.3-7.6,20.7-5.3a30.921,30.921,0,0,0-11.7,1.9c-3.6,1.5-3.8,1.8-6.6,3a16.347,16.347,0,0,0-4.7,3.2C713.713,1441.176,713.413,1440.876,716.513,1438.876Z" style="fill:#fff"/><path id="shoe1" d="M552.113,1462.276c12.8-.5,23.8-.8,35.7-7s19.6-10.1,29.1-13.8c8.4-3.2,11.7-4.8,12.9-6.2-1.8-.4-3.9-.8-6.2-1.4a150.078,150.078,0,0,1-21.9-6.8c-8.1-3.2-14.6-6.1-17.9-7.3a20.832,20.832,0,0,0-12.8-1.1c-5.3,1.3-13.2,6.3-13.6,6.8s-5.1,5.2-10.3,10.3a247.321,247.321,0,0,0-16.7,18.7,10.511,10.511,0,0,0-1.8,4.2C531.913,1461.176,540.113,1462.676,552.113,1462.276Zm19.3-21.4c-2.8-1.2-7.4-1.9-10.7-2.4s-4.4-.3-5-.8.6-.8,4.5,0,9.3.5,11.2,3.2Zm-19.4-5.6c1.4-.5,13.5-2.5,15.7-.4-3.4-.9-10.8.4-15.2,1.3C550.913,1436.476,550.513,1435.776,552.013,1435.276Z" style="fill:#fff"/><path id="semelle1" d="M617.413,1442.276a164.093,164.093,0,0,0-24.2,11.8c-8.2,5-19.4,8.2-32.4,9-12.7.8-24.2.6-32.3-3a5.833,5.833,0,0,0,.6,2.9c.8,1.2,3.7,2.4,10.2,3.3s19.7,2.1,30.6.5,18.5-5.8,25.9-9.4a192.151,192.151,0,0,1,23.1-9.3c7-2.4,9.6-3.2,11.9-4.8,2.4-1.7,2.7-3.4,2.7-7.3-.8-.1-1.7-.2-2.5-.3C629.413,1437.676,623.413,1439.876,617.413,1442.276Z" style="fill:#fff"/></g><g id="line"><path d="M654.613,969.676c1.4,0,6.4.2,10.9.2,5.4,0,8.1,0,9.6-.3s1.2-.8-.2-.8-13.4.3-20.4.4a2.7,2.7,0,0,0-1-1.7c-.9-.5-3.1-.8-4.1.8-1.1,1.9,1.1,4.2,1.5,4.2a5.265,5.265,0,0,0,3.2-1.2A3.669,3.669,0,0,0,654.613,969.676Zm-1.6,1.1a1.45,1.45,0,0,1-2.045.15c-.019-.016-.037-.033-.055-.05a1.847,1.847,0,0,1-.5-1.2c.2-.5,1.1-1.2,1.6-1.8.6-.6,1.1.5,1.5.8S653.713,970.076,653.013,970.776Z"/><path d="M625.013,1007.876c1.9,3.3,2.8,5,3,4.8s.3-1-1.2-3.5a76.7,76.7,0,0,1-4.3-8c-1.2-2.8-2.3-5-2.7-5.9a2.9,2.9,0,0,0,1.5-3.3c-.5-2.1-2.3-2.8-4.4-2.1s-1.6,3.6.3,5a3,3,0,0,0,1.8.6C620.913,999.676,622.913,1003.876,625.013,1007.876Zm-7.5-17.2c1.4-.4,2.5-.3,2.8,2.2.2,2.5-1.9,2-2.5,1.4-1.2-1.1-1.7-3.2-.3-3.6Z"/><path d="M586.513,1018.476a1.09,1.09,0,0,0,.5.1c1.6,8.7,2.9,14,3.1,15.1s1,.8.8-.3c-.2-1-2.1-8.7-3.1-14.9,1-.3,2-1.2,1.6-3.3-.5-3-2.4-2.9-3.3-2.9s-2,1.5-1.9,3.6A3.413,3.413,0,0,0,586.513,1018.476Zm.2-5.3c.8,0,1.7,1,1.7,2.5s-.7,2-1.3,2a2.562,2.562,0,0,1-2-2.1C585.113,1014.076,585.913,1013.176,586.713,1013.176Z"/><path d="M584.013,997.476c0-.6-.6-.9-.5,0,.3,3.7,1,10,1.4,10.9s.7.5.8.4-.3-1.7-.8-5.1C584.313,1000.176,584.013,998.076,584.013,997.476Z"/><path d="M809.513,1163.776c-.1-2.5-.4-6.5-.7-7-1.8-3-6.8-6.2-8-6.9-.5-5.3-1.2-12.5-1.7-19.4-.5-7-.3-13.2-.8-18.5-1.5-15.8-7.5-52.3-10.2-67.8-1.4-8.2-3-15-4.1-20.5-1-4.9-1.6-8.7-2.5-12.7-1.8-8.5-1.6-8.9-4.9-13.3-3.3-4.3-14.9-14.2-22.7-20.6a214.112,214.112,0,0,0-22.6-16.5c-7.3-4.6-8.4-4.5-10.4-5.8s-5.2-7.8-6.3-8.2-2.4.2-6.1-.1c-.4-3.4-.8-7.4-1-10.6-.5-7-.3-8-2.4-10-1.9-1.9-4-1.4-6.4-2.5a17.746,17.746,0,0,1,.5-3.2c8.4-3,16.5-7,21.8-11.7,9.6-8.5,11.8-11.9,17.2-19.9,8.4.6,13.5-1.5,20.4-7s8.8-6.2,12.3-14.9,6.8-21.9,6.8-31.3c0-6.8-4.4-13.8-7.7-13.8a2.21,2.21,0,0,0-.8.1,132.345,132.345,0,0,0,5.2-22.4c2.3-14.8.8-28-.1-36.7s-6-21.5-12.3-28.7-19.2-16.1-27.2-19.9c-6.2-2.9-15.9-5.5-25.1-9.7a74.321,74.321,0,0,1-7.3-4c-11.3-6.5-12.9-10.4-14.7-11.1,0,0-.7,3.8.4,11.3a87.892,87.892,0,0,1-10.8-5c-5.8-3.3-6-4.8-7.5-4.8,0,0,.7,3.2,1.9,8.8-9.9-2.6-27.1-9.6-30.7-11.8-1.2,7.5,2.7,13,2.3,13s-2.3-.5-10.2-2.8-11.2-3.9-14.6-3.2c1.2,5.4,1.5,10.8,2.8,16.3a117.3,117.3,0,0,0-12-3.1s-.3,3.6-.3,9.6c-6.1-1.2-14-2-19.3-1.3,0,0,.9,9.8,1.8,21-9-2.8-11.1-2.8-11.6-2.3s0,2.1,1.6,9.3a106.9,106.9,0,0,1,3,19.5,78.005,78.005,0,0,0-4.5,26.2,146.255,146.255,0,0,0,3,26.4c1,5.1,3.9,12.3,6.8,19.5-2.3,3.6-2.3,6.5-2.3,12a67.612,67.612,0,0,0,1.8,16.8c1.4,6,2.8,11.9,7.3,19.8,0,.8.1,1.6.1,2.5,0,4.9-.2,10.8,6.3,16.5,6.4,5.8,14.2,11.8,31.8,17.8a101.938,101.938,0,0,0,12.3,3.5l.1,1c-7.2,1.4-10.1,2.2-11.4,4.6s-1.8,5.5-2.1,13.3c-.1,3.6-.2,5.8-.2,7.2-2,.3-3-.8-5.3,0-2.4.8-3.4,4-4.3,4.8-.9.9-3.4,2.3-10.3,6.6s-21.4,12.7-30.1,18.5-13.3,11.4-17.9,19.8-5.5,13.9-7.4,24.5-6,29.9-8.7,42.7-6.1,25.6-8.5,36.8c-2.2,10.1-5.5,26.3-8.2,43.7-5.1,2.2-7.7,4-8.2,7.1s.6,7.4-1,18.6c-.7,5-1.4,10.9-2,15.5-.8,5.7-1.4,9.8-1.1,11.2.5,2.6,4.1,3.7,8.9,5.3,4.4,1.4,9,2.8,10.3,3.1.3,9.6-.1,11.2.3,12.4s3.5,3.1,5.9,6.6c-.6,4.3-1.1,8-1.5,10.8-1.6,10.8-4.7,45.1-5.4,61.7s-1.3,46.3-.8,54.7c4.8,2.8,7.9,2.8,13.8,1.8.9-.2,1.6-.3,2.3-.4.1,11.8,2.1,21,4,25.7s1.9,5.5,3.6,10.6c-2.1,2.3-3.4,3.6-3.4,5.6,0,2.7,1.5,8.9,1.5,10.1s-3,8.5-4.2,11.7c-1,2.8-1.7,4.4-1.1,6.3-1.2,1.3-3.3,3.7-8.2,8.6-7,7-6.7,7.4-11.9,12.7s-7.3,8.8-7.3,12,1.3,5.6,1.8,5.6a64.04,64.04,0,0,0,17.8,3.2c11.4.5,17.1,1,24.9-.7a74.228,74.228,0,0,0,19-6.2c8.2-3.6,9.8-4.7,15.8-7.5a173.184,173.184,0,0,1,19.7-7.2c4.9-1.5,6.6-2.8,8.2-5.9a7.861,7.861,0,0,0,.8-5,1.667,1.667,0,0,0,1.2-.5c1.3-1.3,1.3-1.5,1.3-5.3s-1.3-15.5-.8-17.9a164.159,164.159,0,0,0,4.4-22.7c1.4-11.4,2.7-23.1,3-26,2.8-.4,5.5-.8,8-1.2,5.4-.9,8.9-1.5,13-1.9,1.1,14.4,1.8,20.9,3.2,29.1s2.3,10.1,2.3,12.5a50.439,50.439,0,0,1-1.7,8.6c-.9,3.4-1.8,5.9-1.8,7.7,0,3.1,7.4,8.3,7.4,10.3s.4,7.5.4,9.6a2.913,2.913,0,0,0,2.6,3.2h.11c.2,3.9,1.5,6.8,2.3,7.5s4.1,5.1,9,7.8,6.7,3.2,11.6,6.9,10.5,8.6,14.8,10.8a65.284,65.284,0,0,0,14.2,5.2c3.1.6,12.9.1,20.4-2.5s9.9-4.6,11.5-6.2c.9-11.3,1.3-16.6-.5-22.3a76.8,76.8,0,0,0-6.6-14.6c1.9-7.5,1-11.1-1.1-16.8-2.2-5.9-3-9.3-1.8-13.5a62.256,62.256,0,0,1,2.4-7c5.1-5.1,6.7-6.7,6.7-9.1,0-3.2-4.5-7.1-4.5-10.5,0-3.1,2.2-17,2.6-19.7a45.914,45.914,0,0,0,7.5-1.9c5.8-2.1,15.1-5.1,17.4-9.3s2.4-15.1,2.8-22.3c.4-7.1.5-26.5-.2-42.8-.8-16.4-1.9-30.7-2.3-40.5-.4-9.1-1.2-14.8-.5-17.7a13.554,13.554,0,0,0,8.3-8.7c.4-1.9.1-2.2,1.5-3.8l1.5-.4c7-1.9,12.4-4,13.4-6.1s.9-4.8,1.3-13.7C809.813,1183.576,809.913,1171.276,809.513,1163.776Zm-228-365c-.8-9.1-.3-14.9.8-23.2s3.2-11.9,3.2-15.2-4.1-19.9-4.7-24.5c3.4.5,6.2,1.3,11.8,3.4a137.945,137.945,0,0,0-1.9-22.3c6.9-.4,12.8.7,19.3,2,0,0,.1-4.1.1-10,0,0,8.8,2.2,12.6,3.6a18.015,18.015,0,0,0-.8-3.9c-.6-2.3-.7-4.7-2.3-12.7,0,0,3.3-.9,10.2,1.8,7.2,2.7,11.7,3.3,14.8,4.6v-1.7c0-.9-3.3-5.8-3.2-11.1,6.4,2.4,14,5.8,21,8.2a73.822,73.822,0,0,0,11.4,3.1,25.093,25.093,0,0,1-3.2-9.3,59.539,59.539,0,0,0,10.9,7c6.1,2.9,8.4,3.9,10.3,3.5l-2.1-1s-1.5-3-1.5-10.3c14.4,13.3,21.8,15,32,18.9s18.8,6.3,31.3,16.2,18.2,20.9,20.4,30.1,2.8,25,2.3,36.4c-.6,11.1-3.6,21.1-5.9,29.6-4.6,1.4-14.7,7.4-22.2,14.9-1.8-3.1-2.8-10-5-17.3,2.8.5,4.6.5,5,.1s2.9-5.3,2.3-12.8-2.8-17.3-7.2-25.1-9.2-13-13.3-14.6-13.9-1.7-25.5-.8-25.4,5.8-25.4,5.8.7-1.3,0-1.3-10,4.3-10,4.3l1.1-1.5c.5-.8,1-1.5.8-2.1-6.3,1.9-7.8,6.1-11.5,6.1-6.5-3.2-9.6-5.4-10.6-5.4s.5,2.1.5,2.1c-5-1.5-6.3-2.4-7.8-2.4s.4,2.4.4,2.4a89.194,89.194,0,0,0-12.3-4.2c-5.8-1.4-16.6-1-19.1-.4s-3.8,2.7-6.3,5.2a42.477,42.477,0,0,0-7.1,9.3c-.7,1.3-4,18-4.5,22.7a236.678,236.678,0,0,0-1.1,25.3h0c-5.3-11.6-7.2-24.4-8-33.5Zm8.7,65.7c-1.3-6.3-2.2-19.4-1.4-23.7.7-3.5,1.6-3.2,1.6-3.2h0c.1.4.2.9.3,1.3,1.4,9.5,2.9,19.2,4.1,29.1.7,6.3,1.3,10.3,1.7,13.6a66.394,66.394,0,0,1-6.3-17.1Zm33.1,50.9a86.44,86.44,0,0,1-16.8-10.6c-8.8-7.1-8.3-10.7-8.8-16.4s-1.1-13.8-2.7-24.8-3.9-25.8-4.7-30.1c-.6-3.5.2-14.3,1.3-25a184.439,184.439,0,0,1,4-23.2c.7-2.3,2.4-5.1,5.9-8.7s4-4.7,6.1-6,8.3-1.3,14.3-.7a37.641,37.641,0,0,1,11.9,2.6c5.3,1.8,6.5,2.6,7.3,2.6s-.4-1.1-.8-2.8c2.7.5,3.3,1.4,6.2,2.5s1.3-.5,1.8-1.1c4.1,1.3,8,4.3,9.4,4.3,2,0,6.8-4.1,9.8-5.3a21.166,21.166,0,0,1-2.9,3.8c.8.3,2.3-.6,4.5-1.6,2-1,4.6-2.1,6.5-2.9,0,0-.9,1.9-.7,2.2s.8-.6,2.4-1.4a28.751,28.751,0,0,1,5.7-1.7,115.7,115.7,0,0,1,21-3.8c8.5-.6,17.1-.5,21.5.4s7.7,3,12.8,11.1a63.914,63.914,0,0,1,8.8,23.9c1.4,7.8-.4,14.6-1.7,15.8s-5.3-.5-5.3-.5l-.3.7a50.62,50.62,0,0,1,3.2,10.9c.8,4.4.6,4.8,3.3,8.7,1.6-2.6,8.4-8.4,12.9-10.4s8.6-5.5,11.8-4.7c2.2.6,4.7,4.6,5.3,10.7.3,3-.2,6.2-.7,10.5a85.719,85.719,0,0,1-8.1,27.1c-2,3.9-8.1,9.6-15.2,13.2s-11.7,3.9-15.1,2.1c-6.9,12.3-12.8,17.4-22,24.5s-25.1,11.2-36.3,13.2-20.2,2.4-34-1.2a133.457,133.457,0,0,1-21.6-7.9Zm56.6,10.3a130.7,130.7,0,0,0,17.6-4.8,22.223,22.223,0,0,0,.3,6.3c-1.6.3-3.7.7-6.2,1.1-4.5.7-11.7,2.4-15.3,3.2s-8.2,1.9-10.6,2.4-4.8,3-6.3,4.9a4.213,4.213,0,0,0-.9,1.4c-.9-5.6-2.2-6.9-4.9-7.7a20.32,20.32,0,0,0-4.8-.9v-6.4a79.414,79.414,0,0,0,31.1.5Zm-137.6,180.3c1.4-6.7,3.7-15.4,6-25.9,1.1-5.2,2.9-13.9,4.5-21.2,1.7-7.5,3.2-13.4,4.2-18.6,1.9-10.1,3.9-22.4,5.8-29.6s7.5-16.8,10.9-19.5c3.5-2.8,4.6-5.5,10-8.9s22.9-14.1,29.6-18.3,10.3-6.2,11.4-6.8,1.6-2.9,2.8-4.1c1.1-1.1,3.2-.7,5.7.2,0,.2-.1.5-.1.7-.3,1.3.7,3,1.1.5s.8-9.8,1.3-15.1.6-8.8,3.5-10.1,4.5-2.1,8.2-2.1l.5,4.4a14.118,14.118,0,0,1-1.8-.2c-3.5-.5-5.4-1.4-5.4-1s1.6,1.2,5.2,1.6a42.394,42.394,0,0,1,9,1.7c1.7.7,3.3,5,3.3,8.7h0c-.2,1.4-.3,3.3-.5,6.5-.4,7.4-1,12.8-1.3,13.1a1.382,1.382,0,0,0-.3.4c-2-.1-4.4-.3-8.8-.9-7.6-1-11.4-4.6-13.2-5,2.6,2.6,6.5,4,11,5.2a36.713,36.713,0,0,0,10.4,1.4,16.414,16.414,0,0,1-1.4,1.5c-1.1-.1-2.1-.2-2.9-.2h0a124.228,124.228,0,0,1-14.8-2.7c-4.3-1-7-1.3-8.6.4s-1.4,6.4-.8,7a11.791,11.791,0,0,0,4,1.7c1.5.3.6,1.1,5.2,1.5,3.7.3,8.9.6,10.6.7l.2.2a10.3,10.3,0,0,1-2.6,2.5c-2.3,1.5-4.4,2.4-6.8,4a40.5,40.5,0,0,1-7.1,3.8c-3.4,1.6-5.4,2.6-8.4,4.3l-.9-1.5c-.1-.1-.2-.1-.3-.2-.7-1.8-1.8-5.8-3.2-9.2-1.7-3.9-3.9-3.9-5.5-3.1s-4,3.1-4,3.8a33.222,33.222,0,0,0,1.6,6.2c1,3,1.5,4.8,3,6.3a2.983,2.983,0,0,0-.3,2.6c.1.3.3.7.4,1.1-1.2.9-6.6,4.5-9.3,6.5-3.1,2.2-8.4,6-13.6,9.9l-.3-.3a10.063,10.063,0,0,0-.1-3c-.3-2.3-1.8-11.8-2.4-13.3s-1.6-2.6-3.8-2-3.3,3.1-3.3,5.6a115.208,115.208,0,0,0,1.9,15.5h0a3.6,3.6,0,0,0-.2,1c-1.8,1.1-2,1.3-2.6,4a75.578,75.578,0,0,1-2.5,10.2,35.957,35.957,0,0,0-1.6,5.6,119.441,119.441,0,0,1-1.5-22.3c-1.2,1.2-.8,11,.9,25.9-.3,1.8-.6,4-1.4,8.3-1.1-1.7-1.6-6.4-2.1-10.5a28.563,28.563,0,0,0-1.3-6.6c-.5-.5.4,14.1,2.9,19.7-.4,1.9-.9,4.2-1.4,7-2.3,11.2-6.7,37.3-8.2,45.6s-4.9,26.8-6.5,40.4c-.5,4.6-1.1,9.7-1.7,15h0c-5.8.9-16.3.6-21.6-1.6,1.7-7.5,8-41.9,9.3-48.4Zm104.2-138.5c-.1.2-.1.4-.2.5-7.2-.6-11.4-2-12.7-2s-1.4.7,0,.9c.7.1,3.6.7,6.5,1.1,2.4.4,4.9.6,5.9.8a5.017,5.017,0,0,0,.1,3.2c-5.2-.3-8.4-.3-10.4-.9-2-.5-3.6-.7-4.6-.9s-3.3-1-3.3-2.8-.6-3.3,1-5c1.6-1.6,2-1,4.8-.5s5.7,1.5,15,3a4.149,4.149,0,0,0-2.1,2.6Zm.2,2.6c.4-2.4,1.6-4.5,3.1-4.8,1.3-.2,6.3.2,11.8.2,5.1,0,6.5.5,10,.5s5.3-.7,7.5-.7,2.2-.1,2.4,2.4a4.607,4.607,0,0,1-3.1,5c-2.2.8-5.4,1.1-10.2,1.1s-14.4.3-16.9,0c-2.6-.2-5-1.3-4.6-3.7Zm-30.3,16.8a89.382,89.382,0,0,1-3.7-9c-.3-.8-1-.8-.8,0,1.1,3.1,2.4,6.2,3.8,9.2l-.8.4a7.072,7.072,0,0,0-1.9,1.6c-1.7-1.7-3.3-6.9-3.8-8.5s-.9-2.9.9-4.6,3.4-2.5,4.8-1.6c1.4.8,3,7.1,4.8,11.5a8.864,8.864,0,0,0-3.3,1Zm-3.2,4.9c-.1-1.3,1-2.8,3-3.9,2-1,3.6-1.2,4-.8s3.6,6.3,6.3,11.5,3.8,9.5,5.9,12.7c-.6,1.2-3,2.6-4.4,3.6a4.279,4.279,0,0,1-2.9.8c-1.6-.8-3.3-4.2-5.4-9-2.3-4.7-6.3-12.5-6.5-14.9Zm-24.5,17.3a4.036,4.036,0,0,0-3.4.4,8.693,8.693,0,0,0-2.6,1.8,96.1,96.1,0,0,1-2-15.1,4.834,4.834,0,0,1,2.3-3.8,2.5,2.5,0,0,1,3.2.6c.8.8,1.4,6.1,2,10.3A34.9,34.9,0,0,1,588.713,1009.076Zm-3.2,1.1c1.5-.8,3.5-.6,4.1,1.2s1.6,6,2.7,11.2,2.5,9.3,2.5,10.6-.9,2.3-2.8,3.5-3.9,1.8-4.9-.4a63.781,63.781,0,0,1-3.3-12.1,66.079,66.079,0,0,1-1.2-10.8C582.713,1012.476,584.013,1011.076,585.513,1010.176Zm-61.3,191.8c-1.7-1.7-2.3-1.5-2-5.5s1.7-13.1,2.8-22.7a145.535,145.535,0,0,0,1.3-17.4c0-2.9,1.3-3.9,6-5.7l-.4,2.8a6.4,6.4,0,0,1-1.3-1c0,2.3,3.6,4,10.3,4.7a68.6,68.6,0,0,0,13.6-.2c-1.1,10-2.4,20.8-3.5,30.8-.7,5.9-1.6,13-2.4,20.2a25.194,25.194,0,0,1-9.1-.8c-3.1-.6-13.6-3.5-15.3-5.2Zm18,19.5c-.5-.5-1-10-1.1-12.6,1.8.1,5.7.3,7.4.5-.7,5.4-1.4,10.8-2,15.7a24.9,24.9,0,0,1-4.3-3.6Zm4.9,214.4c5.1-5.1,9.8-9.9,10.3-10.3s8.3-5.5,13.6-6.8a20.773,20.773,0,0,1,12.8,1.1c3.3,1.3,9.8,4.2,17.9,7.3a167.973,167.973,0,0,0,21.9,6.8c2.3.5,4.4,1,6.2,1.4-1.3,1.4-4.6,3-12.9,6.2-9.5,3.7-17.2,7.5-29.1,13.8s-22.9,6.5-35.7,7c-12.1.5-20.2-1-23.5-3.6a10.109,10.109,0,0,1,1.8-4.1A233.364,233.364,0,0,1,547.113,1435.876Zm83.6,7.3c-2.3,1.6-4.9,2.4-11.9,4.8a210.443,210.443,0,0,0-23.1,9.3c-7.4,3.7-15,7.8-25.9,9.4s-24.1.3-30.6-.5-9.4-2.1-10.2-3.3a4.924,4.924,0,0,1-.6-2.9c8.1,3.6,19.6,3.9,32.3,3,13-.8,24.3-4,32.4-9a154.787,154.787,0,0,1,24.2-11.8c6.1-2.4,12-4.6,13.6-6.7a9.981,9.981,0,0,0,2.5.3c0,4-.2,5.7-2.7,7.4Zm8-48.7c-2.6,13.9-4.3,19.4-4.3,20.9s1.8,16.3,1.4,17.8-1.9,2-9.2.3-11.6-2.8-25.7-8.1-18.9-8.3-24.3-8.3a23.509,23.509,0,0,0-12.4,3,65.788,65.788,0,0,0-8.1,4.7c-.1-2.2,1.3-4.9,2.5-8.3,1.3-3.8,2.8-6.7,2.8-8.5s-1.2-7.7-1.2-9.6,1-3,4-6.6c2.8-3.3,4.6-5.3,6.6-9.8-1.2-.3-2.1,1.4-3.5,3.4-.9,1.3-1.9,2.6-3.2,4.3l-1.2,1.5c-.5-1.6-1.8-5.8-3.5-11.2a77.737,77.737,0,0,1-3.8-24,18.846,18.846,0,0,1,8.2-.6c5.3.6,20.6,5.9,27.6,7.7a97.963,97.963,0,0,0,27,2.8c7.5-.3,16.2-1.1,24.2-2.1-1.1,15.6-1.3,16.9-3.9,30.7Zm3-31.9c-11.6,1.2-27.6,3.1-37.7,1.6s-21.9-5-30-7.7a39.621,39.621,0,0,0-19-1.9c-5.8.7-12.3,2.4-15.1-.3-.8-13.7.5-31,.5-43.1s1.8-33.9,3.1-48.1,4.7-41.3,6.3-54.7,7.8-70,10-84.3c2.3-14.3,8.3-46.7,11-60,2.8-13.3,3.8-21.5,4.9-28s2.4-9,3.7-14.3,1.1-6.2,1.5-6.6a1.4,1.4,0,0,1,.9-.3h0a79.831,79.831,0,0,0,3.2,18.2c1.3,4.6,1.8,5.4,3,5.7a6.7,6.7,0,0,0,5.3-1.7c2-1.6,2.6-2.1,2.6-3.5s-.6-2.9-2.3-9.8c-1.6-6.6-2.4-10.6-3.2-12.7,2.6-1.9,16.9-12.4,22.8-16.4l1.6,4c1.7,4.1,3,6.3,4.4,9.8s2.9,6.4,5.3,8.4a18.193,18.193,0,0,0,4-1.1c1.3-.8,4.8-3.9,4.8-4.3a46.425,46.425,0,0,0-2-4.4c-1-2.1-2.1-4.6-3.6-7.7-2.1-4.3-4-8.2-5.3-10.6a25.246,25.246,0,0,1,4.4-2.8c2.5-1.3,4.5-2,7.7-3.8s4.1-2.1,7.7-4.4a29.417,29.417,0,0,0,5.3-4,4.961,4.961,0,0,0,2,.8c3.3.8,7.8.2,16.8.2,5.3,0,13.1.5,14.8-2.6a9.484,9.484,0,0,0,1.3-6.2c0-1.3-1.3-1.2-4.2-1.2s-3.7.7-8.7.4-6.3-.4-10.8-.4c-1.4,0-2.6-.1-3.8-.1a12.094,12.094,0,0,0,1.6-1.6c4.4,0,17.1-.6,23.4-1.2,6.5-.6,9.4-1,10.3-1s.5-.5,0-.5-4.4.2-11,.9-15.5,1.2-19.1,1.2h-3.1a3.675,3.675,0,0,0,.5-1.1c.3-1.5.9-13,1.3-16.4.3-3.4.7-4.9,2.8-6.9a10.165,10.165,0,0,1,6-3.3c3.2-.8,10.5-2.5,17.6-3.9s12.6-1.9,14.5-2.8,2.2-1.7,1.1-1.4l-1.7.4a13.552,13.552,0,0,1-.2-2,10.523,10.523,0,0,1,4.3.7c2.6,1.1,2.4,2.9,3,9.4s1.5,15.5,2,17.9a1.419,1.419,0,0,0,.2.6c-1.3.5-1.6.9-5.4,2.7a68.336,68.336,0,0,1-8.5,3.4,16.459,16.459,0,0,0,5.8-1c1.6-.8,7-3.6,8.5-4.4.4.3.7-.3.7-.5s-.3-2.3-.6-5.2a8.963,8.963,0,0,1,4.3-.1c2.5.7,4.6,5.8,7.7,7.4a142.721,142.721,0,0,1,13.6,8c6.8,4.6,14.2,10.6,18.4,13.9,7.8,6.1,18.7,16.5,23,22.5s5.7,18,7.5,26.2,5.8,30.8,8.3,46.2c2.5,15.3,4.3,31.1,5.1,38.9.4,3.5.9,12.8,1.6,21.5.8,10.8,1.6,21.3,2.2,26.1a26.213,26.213,0,0,1-4.6,1.9c-4.4,1.4-17.5,5.7-30.8,5.7a249.583,249.583,0,0,1-32.3-1.8,49.909,49.909,0,0,1-7.7-1.5c-.1-2.2-.4-10.2-.6-19.7-.2-11.6-.3-25.4-.3-31.3,0-11.6.9-37.9,1.3-47.9s1.3-17.8,1-18.1-.5,2.7-.9,7c-.9-.9-2.9-6.8-4-10.6s.2-12.4.2-18.3.6-7.3.2-7.3-1.2,3.7-1.2,9.3-.5,7.3-.5,12,.6,5.8,2.3,10,1.5,5,2.9,6.4h0c-.3,3.3-.6,7.4-.8,11.6-.7,10.7-1.3,28.3-1.3,41.5,0,11.9-.4,28.5.3,48.7-5.4,3.3-7.3,4.5-7.6,6.4s1.3,3.9,1.3,7.8c0,2.2-.2,9-.5,15.3-.2,5.1-.5,9.6-.5,12.1,0,5.6-.2,7.3,1.8,9.2s4.1,2.5,10.2,3c-1.1,3.3-2.5,5.4-2.2,7.1s1.9,3.7,4.7,5a25.013,25.013,0,0,1,4.3,2.9c1.4,1.3,2.3,2.5,5.7,2.4a5.356,5.356,0,0,0,1.5,1.5h0c1.1,11.9,0,15.9-.5,26.4s-4.3,51.8-6.6,68.4-3.9,32.5-4.9,34.5-2.7.8-8.8.8-27.4-1.3-43-1.3S653.213,1361.476,641.713,1362.576Zm99.8,115.4c-8.3,1.2-12.1.8-16.5-.8a63.641,63.641,0,0,1-7.2-2.9c-7.1-3.7-13.6-9.8-19.2-13.7s-10.2-4.8-13.7-8.3-4.3-4.2-5.2-6.2a19.362,19.362,0,0,1-.9-4.8c3.4,3,7,6.8,11.5,10.1,2.3,1.7,5.3,3.6,8.3,5.5,3.2,2.1,6.4,4.3,10.2,6.4,7.2,4,17.3,7.5,22,8.3a38.206,38.206,0,0,0,14.3,0c4.6-.9,10.7-2.1,15.4-5.4a27.561,27.561,0,0,1-.6,4c-.4,1.5-6.3,6.1-18.4,7.8Zm19.2-13c-2.3,2.6-7.6,4.5-14.7,5.7-7.9,1.4-9.9,2-21.4-1.5s-18-8.3-27.3-14.3c-8.7-5.5-12.2-9.7-17.2-13.8,3.8-.8,15.9-3.2,24.3-7.9,3-1.7,11.1-6.7,17-9.6a19.94,19.94,0,0,1,5.9-2.2c4,0,10,2.8,16.5,6s8.4,4.3,10.3,8,6.1,11.5,6.7,18a89.624,89.624,0,0,1-.1,11.6Zm-5.9-87.9c0,4.3,3.8,7,3.8,10.3s-3.3,6.2-8.3,11.2-8.7,8.3-8.7,9.5c1.3-.2,5.4-4.4,9.8-8.8-1.6,6-2.7,9.2-.9,14.2,1.9,5.1,5.3,11.4,2.6,18.6a41.248,41.248,0,0,0-10.2-6.4c-6-2.9-13.2-5.3-15.8-5.3-4.2,0-9.1,3.5-15.7,7.2s-15.2,8.3-22.4,10.2a44.21,44.21,0,0,1-12,1.8c-.8,0-.8-2.2-.8-4.6s.3-6.3-.8-8.3c-.8-1.4-4.5-4.7-5.8-6.8s-1.1-2.9.4-7.3a26.541,26.541,0,0,0,1.2-14.2c-.9-6.1-4.9-26-4.3-38.2,3.2-.3,7-.4,12.3-.4,13.3,0,28.5,1.3,37.6,1.3s13.8,1.4,14.5-1.3,2.8-15.7,4.4-29.3,4.8-40.5,5.7-53.5,3.2-37.2,1.8-46.3h0a15.122,15.122,0,0,0,4.5,2,.6.6,0,0,1,.4.1c1.4,8.1,1.3,11.7,1.9,23.5s1.3,32.7,1.3,42,.1,32.8-1.2,44.9-1.1,14.3-.4,15c.4.4,3.5.3,7.3-.3-1.1,12-2.2,15.5-2.2,19.2Zm29.2-109.2c.3,12.7,1.7,37.5,1.7,46.2s-.7,15.5-1.3,22.3-1,8.3-3.7,11.1-16.8,9.1-30,9.5c-.8-3.2-.1-5.8.6-13.5s1.2-27.2,1.2-37.8-.9-37.8-1.5-49.7-.6-17.2-1.9-23.3a14.548,14.548,0,0,0,5.7-2.1c4.1,2.1,9.9,1.4,14.8-2.9,4.5.9,8.3,0,11.3-3.5.9,1.9.9,3.1,1.3,9.1.5,7,1.5,21.9,1.8,34.6Zm.8-47a4.822,4.822,0,0,1-3.7.7s-4.4,7.4-11.6,4.6a12.576,12.576,0,0,1-9.4,4.6c-2.5,0-4.6-1.2-5.4-1.2s-1.1.7-2.9,1.4c-1.4.5-3,1.7-5.1.5-1.7-1-3.7-2-4.8-3.7s-1.4-4.2-1.8-5.6c-.8-2.6-1.1-2.3-3.4-3.5-1.8-1-2.7-.7-2.1-.1s2.8,1.3,3.3,1.9,1.1,4.6,2.4,7c-2.3-.2-4.7-2.2-6.2-3.8s-3.7-1.8-5.2-3.3-1.3-3.2-.3-6.1a16.609,16.609,0,0,1,1.5-3.3c6.7.5,19.1,1.1,27.8,1.8,9.4.7,17.9,1.9,21.8,1.4,3.1-.4,6.5-1.5,11.1-2.9-1.1,4-3.8,8.4-6,9.6Zm23-21.2c-.7,2.4-1.8,4.7-3.6,5.9s-7.1,2.4-13.2,4.3-10.9,3.2-13.7,3.2-18.6-1.2-29.8-2-20.3-.9-23.5-1.9-6.3-1.2-6.3-7.5,1.2-26,.6-30.9-1.3-6.3-.5-7.8c.6-1.2,4.3-3.3,5.8-4.1,0,1.4.1,2.9.2,4.3-.2-.1-.5-.2-.6-.4-.6-.6-1.6-1.6-2-1.6s-.1.9-.1.9c.9.9,1.1,2.4,5.4,3.2a133.247,133.247,0,0,0,21.9,2.4c2.7.1,5.8.4,9.1.4,18.4,0,23.8-1.5,31.7-3.4,4.6-1.1,9-2.4,11.8-4a9.451,9.451,0,0,0,3.4-3.2,1.736,1.736,0,0,0-.3-1.4,7.182,7.182,0,0,1-2.4,2.5c0-.1-.3-2.9-.8-7.1,4.8,3.2,6.9,5.3,6.9,7.5s.2,12.1.2,22.3.5,15.9-.2,18.4Z"/><path d="M599.713,1223.376c-.5-10.2-.6-26-.3-31.1s.5-6.3.1-6.7c-.5,0-.6,1.8-.9,4.5a37.127,37.127,0,0,0-.5,6.7c.4,4,0,10.3.3,20.5s.5,33,1.3,43.9,2.4,25.6,3.8,34.8,3.1,12.8,5.4,14.3c-3.8-8.3-4.3-13.3-6.5-32.5S600.213,1233.576,599.713,1223.376Z"/><path d="M660.913,1245.676c-.5,10.6-1.8,26.5-1.8,38.7s-.5,16.3,1.2,18v-17.1c0-11.9.9-26.4,1.4-38.5s1.2-17.8,1.2-20C662.213,1226.676,661.413,1235.076,660.913,1245.676Z"/><path d="M666.413,1261.276c-.1,2.6-.4,6-.6,10-.8,12.5-2,30-2.4,38.9-.7,14.3-1.1,22.6-.3,24.4.4-1.5,1.6-33,2.5-47.7s1.4-27.8,1.4-29.4C666.413,1257.476,666.513,1259.076,666.413,1261.276Z"/><path d="M552.513,1436.176c4.4-.9,11.8-2.3,15.2-1.3-2.1-2.1-14.3-.1-15.7.4S550.913,1436.476,552.513,1436.176Z"/><path d="M555.713,1437.576c.6.6,1.8.3,5,.8a59.645,59.645,0,0,1,10.7,2.4c-1.9-2.7-7.3-2.4-11.2-3.3S555.213,1437.176,555.713,1437.576Z"/><path d="M600.613,1403.076c-3-2.4-4.3-4.3-4.3-4.8,0-.7,14.2-10.8,14.2-11.8-2.5,1.1-15.3,10.9-15.3,11.6s0,2.8,9.3,9,14.2,7.5,14.4,7.3-5-2.8-12.1-7.3A67.844,67.844,0,0,1,600.613,1403.076Z"/><path d="M689.813,1404.276c-3.4-3.4-3.1-9.1-3.8-11.3-.7,2.1.6,10.3,3.6,12.4s22.3,6.7,26.3,4.6c-.2-.2-5-.5-8.3-1C700.513,1408.076,692.113,1406.476,689.813,1404.276Z"/><path d="M716.513,1438.876c-3.2,2-2.8,2.3-2.3,2.8a17,17,0,0,1,4.7-3.2c2.8-1.2,3-1.5,6.6-3a30.921,30.921,0,0,1,11.7-1.9C730.813,1431.276,719.713,1436.976,716.513,1438.876Z"/><path d="M742.713,1436.676s-9.6-.5-11.6.4a31.044,31.044,0,0,1-4.2.8,1.1,1.1,0,0,0-1,.6,17.725,17.725,0,0,0,6-.8c1.2-.4,8.9-.3,10.3-.3S742.713,1436.676,742.713,1436.676Z"/><path d="M769.613,1085.976c-1,4.5-12.2,35.9-13.4,40.1,3.8-8.6,12.1-32.7,13.8-40C770.113,1085.176,769.613,1085.976,769.613,1085.976Z"/><path d="M763.913,1110.576c-5.2,17.4-7.3,21.5-9.8,29.2,1.9-3.4,4.7-11,6.9-16.8C763.213,1117.276,764.713,1112.076,763.913,1110.576Z"/><path d="M740.613,873.276c-1.8,2.4-1.2,5.5.8,5.9-.2-1-1.9-1.8-.5-4.5a6.369,6.369,0,0,1,2.2-2.4c1.3-.6,2.5-.4,2.9-1,.6-.9,1-2.8,2.4-3.1a5.106,5.106,0,0,1,3,.3c-.2,1-.2,1.4-.1,1.6s1.2-1.9,1.8-4.4,1.4-5.8,1.1-7.4-1.4-3.7-4.8-7.7a33.113,33.113,0,0,1,5.9-7.5l.9-.9c0,6,.6,7,1.2,8.1a4.357,4.357,0,0,0,3.5,1.8c-.5-.7-3.1-1-3.5-4.4-.2-2.1-.3-4.3-.3-6.4,2.1-2.2,3.9-3.9,5.4-5.5,2-2,2.5-1.5,3.3,2.6s2.1,6.8.8,14.5c.7-.7,1.3-2.4,1.3-5.6a28.389,28.389,0,0,0-1-8.7c-.9-3.5-1.6-5.1-2.9-4.9s-4.8,4.4-6.5,6.1c-1.1,1.1-3.5,2.9-5.6,5.1a20.64,20.64,0,0,0-2.8,3.8c-1.6,2.8-2,4.6-1.4,6.8s2.7,3.8,5.5,5.1c-.3,1.8-.9,3.7-1.2,5.3-.2.7-.3,1.3-.4,1.8-1.8-.9-4-.6-4.6-.1s-.9,2.8-1.5,3A6.976,6.976,0,0,0,740.613,873.276Zm8.9-15.7c-1.9-1.9-1.7-3.4-.6-6.1,0-.1.1-.2.1-.3.9,1.2,3.6,4.7,4,6.3a6.462,6.462,0,0,1,.1,2.4c-1.3-.1-1.9-.6-3.6-2.3Z"/><path d="M675.713,892.076c.4-1.6-.1-1.3-1-.2-3.1,3.9-6.9,5.9-19.3,5.9s-14.8-4-15.1-4c0,0-.7.8,0,1.2,2.6,1.9,4.5,2.8,11.7,3.5a42.7,42.7,0,0,0,15.9-1.2C672.013,896.176,675.213,893.676,675.713,892.076Z"/><path d="M623.613,874.676c-7.9,0-17.7,2.8-17.7,3.9a95.824,95.824,0,0,1,14.9-3C624.113,875.276,623.913,874.976,623.613,874.676Z"/><path d="M628.613,875.976a76.59,76.59,0,0,0-20.1,4.8c1.4,0,5.8-1.3,8.9-2,5.1-1.1,9.4-1.8,11.4-2.2C632.013,875.976,630.113,875.976,628.613,875.976Z"/><path d="M634.213,877.176a45.054,45.054,0,0,0-14.9,3.1c13.4-3,13.9-2.2,16.8-2.2C636.013,878.176,636.013,877.176,634.213,877.176Z"/><path d="M700.213,874.776c-1.2,0-5.2.6-11.1,2.8s-10.3,3.9-10.7,4.3c0,.4,6-1.6,11.9-3.9S698.313,875.776,700.213,874.776Z"/><path d="M709.013,876.476a38.834,38.834,0,0,0-10.2.5c-6.5,1-11.3,2.2-11.8,3.6,3.6-1.5,9.2-2.6,15.6-3.1S709.413,876.876,709.013,876.476Z"/><path d="M689.813,882.476c15.3-2.3,17.6-2,23.9-1.4C706.513,878.676,696.413,879.776,689.813,882.476Z"/><path d="M673.713,833.676a49.3,49.3,0,0,1,14.8-12.8c8.2-4.9,15.3-4.2,20.9-1.1s7.4,5.4,8.2,5.4c3.4-2.5,7.5-9.5,9.1-14-1.2-1.7-6.1-5.5-12.7-7s-12.4-1.8-23.3,4.7-17.3,18.2-21.7,27.9l1.1.7C670.013,837.476,670.913,837.176,673.713,833.676Zm11.5-20c5.5-4.9,13.2-8.5,18.7-9.4s17.1,1.2,22,6.8a42.36,42.36,0,0,1-8.3,13c-4-3-8.9-7.5-17.5-7.5-6.4,0-13.2,3.4-21.1,10.1-2.4,2-7.1,8.1-8.7,8.8,5-9.6,9.4-17,14.9-21.8Z"/><path d="M728.413,814.476c0-.6-.3-.7-.6-.2-4.5,7.1-7.5,9.8-8.4,11.7C724.113,822.476,728.413,815.176,728.413,814.476Z"/><path d="M731.013,815.576c-1.5,2.2-7.9,9.3-8.6,11.5C722.513,827.576,731.013,817.776,731.013,815.576Z"/><path d="M740.213,830.376c-.9-2.7-.5-4.6-2.4-5,1,1.7,1.1,4.5,3.5,12.3C741.813,836.676,741.113,833.376,740.213,830.376Z"/><path d="M739.113,820.776c1.7,7.5,2.7,13.7,4.4,17.1C742.813,831.476,741.013,822.676,739.113,820.776Z"/><path d="M709.313,858.976c.6-5.6,2.6-16.6-.5-25.7-2.8-8.3-6-10.4-11.5-11.3s-12,3.2-14,5.1-4.4,5-4.1,5.3,1.9-2.2,4.3-4.5a15.986,15.986,0,0,1,4.2-3c4.4-2.3,9.2-2.9,12.9-1.1s6.2,4.9,7.9,12.6.2,19.8-.2,22S709.213,860.276,709.313,858.976Z"/><path d="M674.413,851.076c.4,4.9,2.8,6.3,5.2,6.3s4.8-2.6,4.8-6.8-1.5-7.6-4.7-7.6S674.013,846.476,674.413,851.076Zm4.7-7.3c2-.4,4.6,1.1,4.4,6.1s-2.4,6.3-4.3,6.3-4.1-1.5-4.1-5.2c.1-4.7,1.9-6.7,4-7.2Z"/><path d="M617.513,820.276c5.4.4,12.9,6.1,18.5,11.6s6.8,8.9,7.6,8.1c.4-.4-1.1-8.9-5.3-16.9-3.8-7.1-10.1-13.7-14-16-8.4-4.9-15.9-4.1-19.2-.8-3.1,10-3.6,16.1-3.6,17.3s.6,1.4,1.8,1S612.113,819.876,617.513,820.276Zm-5.7-.1c-4.4,1.3-8.7,4.1-9.1,3.7-1-1,1-10,3.1-16.8,3-3,8.5-3.2,14.1-.9s10.9,6.7,15.6,13.8a57.284,57.284,0,0,1,7.4,18.3c-7-8-11.9-13.7-19.9-17.4a15.044,15.044,0,0,0-11.2-.7Z"/><path d="M601.313,807.776c0,.6-1.1,4.3-1.9,8.5-.6,3.2-1,7.1-.6,7.9,0,0,3.2-14.5,3.2-15.7S601.313,806.676,601.313,807.776Z"/><path d="M596.413,819.076c-.7,3.6-.6,6.3,0,6.3s.4-1.9.7-4.8.7-6.1.4-6.5S597.113,815.376,596.413,819.076Z"/><path d="M623.113,825.776c5.6,0,9.5,7.1,10.3,8.7s1.4.8,1.2.3c-4.7-9.7-11.5-11.6-15.6-8.4s-7.8,8.1-7.8,18.7,1.2,15.9,2.3,17c0-.9-1.3-6.5-1.6-12.2a51.477,51.477,0,0,1,1-13C614.213,832.276,617.513,825.776,623.113,825.776Z"/><path d="M636.213,844.176c-2.2,0-5.3,3.4-5.3,7.7s2.8,6.4,5,6.4,4.5-2.3,4.5-7.2S638.413,844.176,636.213,844.176Zm-.5,13.3c-1.6,0-3.5-2-3.8-5.6s2.3-6.8,4-7c1.4-.2,3.3,1.2,3.3,5.9s-1.9,6.7-3.5,6.7Z"/><path d="M681.413,1062.176a32.579,32.579,0,0,0,26.9-16.6c4.4-8.1,4.9-21.3-.2-28.8s-14.8-13.4-26.5-13.4-18.7,5.5-24,11.6c-7.8,8.9-9.4,22.5-4.6,31.1S668.413,1062.876,681.413,1062.176Zm-26.4-14.2c-5.5-7.2-3.9-14.5-3.6-17.5s1.2-8.3,6.7-15a30.113,30.113,0,0,1,20.5-11.3c8.8-1,19,2.7,24.8,8.4s7.5,10,7.5,18.1-2.3,15-8.8,21.5-12.5,9.2-22.7,9.2S660.613,1055.176,655.013,1047.976Z"/><path d="M635.913,844.776c-1.7.3-4.3,3.4-4,7s2.1,5.6,3.8,5.6,3.5-2.1,3.5-6.8S637.413,844.476,635.913,844.776Z"/><path d="M679.213,856.276c1.9,0,4.1-1.3,4.3-6.3s-2.4-6.6-4.4-6.1-3.9,2.5-3.9,7.2C675.213,854.776,677.313,856.276,679.213,856.276Z"/><path d="M689.713,1047.376a5.44,5.44,0,0,1-.6,1.8c-.6,1.3-1.8,1.3-3.6,1.3s-3.1.1-4.5-.6-1.5-2-1.5-6.6c.8-.2,6.9-.3,9.8-.3,1.6,1.3,2.3.9,2.9.3s.8-.9.8-3.9,1.2-6,1.2-6.5-2.8-1.4-3.3-1a3.374,3.374,0,0,0-.5,1.7,39.868,39.868,0,0,0-6.9.2,18.446,18.446,0,0,1-3.3.3,5.068,5.068,0,0,1,.2-1.3,34.856,34.856,0,0,1,.6-3.5,38.757,38.757,0,0,1,4.8.4c2,.2,3.7.3,4.2.3s1.5-1.1,2.8-3.2a59.611,59.611,0,0,1,.5-7.3c0-.6-2.8-2.9-3.5-2.9a19.62,19.62,0,0,0-2.5,1.3,9.615,9.615,0,0,1-2.8,1.1c-1.9.5-3.4.1-3.4-.1s.8-1,1.2-1.4,3.6-4.2,3.6-4.6-2.9-2.5-2.9-2.5-1.1,1.7-1.5,1.7-3.9-.3-4.8-.3-.6-.6-.6-1,0-.6-.9-.9c-.4.1-.7.2-1,.3a44.754,44.754,0,0,1-4,7.1,7.59,7.59,0,0,0,5.3-3.9,34.356,34.356,0,0,1,4.6.3c.8,2.1-1.8,5.7-1.8,5.7a21.128,21.128,0,0,0-.2,2.5c0,1.2.4,1.5.4,2.2a69.529,69.529,0,0,1-7.1.7l-.3-3.3-.6-1.3s-.9-1.1-1.6-1.1-1.4,1.1-1.4,1.1.5,8.5.5,9.1.6,1,1.6,1,1.8.1,1.8-.8h6.5l-.3,3s.7.9.3,1.3-5.9,0-7.9.3-2.5.7-3.3.4-2.7-1.6-3-1.2c-.4.4.2,1.5.2,4.8s-.1,5.3-.1,5.3a1.968,1.968,0,0,0,1.5,1c1,0,1.7-1.2,1.7-1.2l9.5-.2a15.5,15.5,0,0,1-.6,3.1,3.716,3.716,0,0,0,1.8,4.3c1.4.8,4.3,1.4,10.3,2,.9-.3,1.7-.7,2.6-1.1C691.213,1050.976,690.613,1049.876,689.713,1047.376Zm-8.2-27.6c2.6,0,7-.3,7.5-.7a17.029,17.029,0,0,1,.3,4.5c-2,.4-8,.8-8,.8s.3-1.5.8-1.5h.1a3.938,3.938,0,0,0-.6-2.1c-.3,0-.5-.1-.5-.2A5.971,5.971,0,0,1,681.513,1019.776Zm.2,7.6-.1-1.2c-.1-.1-.2-.1-.3-.2v-1c3.1,0,7.7-.3,7.7-.3s.2,1.1-.2,1.5-.3,2.9-.3,2.9-4.1-.4-4.9-.4-2.7.3-2.7-.1a1.991,1.991,0,0,1,.8-1.2Zm-4.6,14.1c0,.7-.1,1.3-.9,1.3s-8.8.3-8.8.3a2.57,2.57,0,0,0,.1-1.5c-.2-.8-.4-1.5.4-1.7a8.083,8.083,0,0,0,3.1,0,50.123,50.123,0,0,1,6.7-.2,5.47,5.47,0,0,0-.6,1.8Zm.6-5.2.1,1s.4.5.1.8a2.28,2.28,0,0,1-1.9.7c-1.3,0-7.3,0-8.8.5a8.135,8.135,0,0,0,0-3.8,38.809,38.809,0,0,1,7.6-.4c1.2,0,2.4-.1,3.6-.2a1.55,1.55,0,0,1-.7,1.4Zm.2-7.3c-.6,0-2-.2-2.7-.2s-1.7.5-2.6.5-.9-.3-.9-1.1v-2.8c1.4.5,4.8-.1,5.3-.3l1.5-.3s.1,1.4-.1,1.6l.1,1.3C678.713,1027.776,678.513,1028.976,677.913,1028.976Zm1.7,8.4h.7c.2-.8-.4-1.3-.4-1.6s-.1-1,.4-1,9.6-.3,9.6-.3l.5.5s-.6.4-.6.7v1.7c.5.2.7.8.5.8s-10.8.5-10.8.5Zm-.1,1.9s6,0,10.7-.5c0,0,0,.6-.2.8s-.5.3-.7.5a18.466,18.466,0,0,0-.4,2.3,62.957,62.957,0,0,0-9.7.2Z"/><path d="M672.915,785.282a3.512,3.512,0,0,1-2.371-.922,4.686,4.686,0,0,1-1.58-4.03A3.658,3.658,0,0,1,671,777.652a3.386,3.386,0,0,1,3.191.052,4.493,4.493,0,0,1,2.168,3.538,3.455,3.455,0,0,1-2.8,3.98A3.384,3.384,0,0,1,672.915,785.282Zm-.358-7.507a2.952,2.952,0,0,0-1.331.325,3.159,3.159,0,0,0-1.769,2.31A4.2,4.2,0,0,0,670.89,784a3.011,3.011,0,0,0,2.576.731,2.956,2.956,0,0,0,2.4-3.412l0-.016a3.994,3.994,0,0,0-1.911-3.16A2.885,2.885,0,0,0,672.557,777.775Z"/><path d="M670.892,806.288a3.5,3.5,0,0,1-2.022-.607,4,4,0,0,1-1.555-4.264,3.773,3.773,0,0,1,3.059-3.088,3.414,3.414,0,0,1,2.857.8,6.286,6.286,0,0,1,1.932,4.246,3.171,3.171,0,0,1-1.947,2.3A5.043,5.043,0,0,1,670.892,806.288Zm.085-7.507a3.4,3.4,0,0,0-.525.042,3.307,3.307,0,0,0-2.648,2.7,3.506,3.506,0,0,0,1.345,3.745,3.831,3.831,0,0,0,3.835-.034c.989-.516,1.679-1.28,1.679-1.857a5.819,5.819,0,0,0-1.757-3.866A2.9,2.9,0,0,0,670.977,798.781Z"/><path d="M640.412,786.1a5.328,5.328,0,0,1-2.623-.7,3.08,3.08,0,0,1-1.561-2.978,4.6,4.6,0,0,1,2.687-3.87l.008,0a3.13,3.13,0,0,1,2.809.212,5.409,5.409,0,0,1,2.329,3.89,2.882,2.882,0,0,1-1.337,2.806A4.208,4.208,0,0,1,640.412,786.1Zm-1.305-7.089a4.081,4.081,0,0,0-2.38,3.435,2.592,2.592,0,0,0,1.308,2.515,4.339,4.339,0,0,0,4.415.074,2.367,2.367,0,0,0,1.114-2.329,4.958,4.958,0,0,0-2.088-3.519A2.6,2.6,0,0,0,639.107,779.008Z"/><path d="M640.322,804.871a7.269,7.269,0,0,1-2.706-.564,3.141,3.141,0,0,1-1.571-4.15l.044-.093a4.02,4.02,0,0,1,1.286-1.4l0,0a4.348,4.348,0,0,1,4.779-.064,3.6,3.6,0,0,1,1.6,3.616,2.911,2.911,0,0,1-1.467,2.2A4.07,4.07,0,0,1,640.322,804.871Zm-2.673-5.786a3.507,3.507,0,0,0-1.117,1.212l-.033.07a2.639,2.639,0,0,0,1.317,3.482,5.323,5.323,0,0,0,4.236.132,2.438,2.438,0,0,0,1.215-1.846,3.062,3.062,0,0,0-1.386-3.118A3.854,3.854,0,0,0,637.649,799.085Z"/></g></svg>