<svg id="svgcontainer" xmlns="http://www.w3.org/2000/svg" viewBox="0 0 1311.974 1680.872"><title>whis</title><g id="color"><path d="M700.778,524.989H698.7c0,2.526-.149,4.006-.891,4.9C699.443,529.291,700.036,528.252,700.778,524.989Z" style="fill:#fff"/><path d="M659.68,527.51c-2.968,0-5.788.149-7.27.149a14.741,14.741,0,0,0,6.232,5.045,3.27,3.27,0,0,0,1.187.148C658.938,530.477,658.79,528.549,659.68,527.51Z" style="fill:#fff"/><path d="M667.841,529.148a4.25,4.25,0,0,1-.891,3.263,11.429,11.429,0,0,0,2.225-.3c.149-.148.149-1.929.594-4.9h-2.225A4.077,4.077,0,0,1,667.841,529.148Z" style="fill:#fff"/><path id="semelle1" d="M844.249,1451.689c-2.374-1.633-4.748-3.116-7.122-4.748-19.139-13.057-35.459-29.08-52.521-44.065h-.6a31.086,31.086,0,0,0-18.1,32.641c2.526,1.336,5.045,2.819,7.568,4.154v2.077l-8.754-5.192c-2.375-1.484-8.012-4.451-13.051-7.864a76.8,76.8,0,0,1-8.606-6.973c-7.27-7.419-13.056-16.469-18.248-26.112-7.271-1.485-14.841-5.194-21.069-8.606a53.483,53.483,0,0,1-6.525-4.9,38.089,38.089,0,0,1,1.484,8.012c.445,5.49.3,12.611.89,17.062,7.418,3.709,13.5,6.973,22.4,9.2a45.952,45.952,0,0,1-.445-4.9h1.187c0,1.484.148,3.263.148,5.193,2.819.148,8.161-2.671,8.161-2.671l-1.929-2.526h1.929c3.262,4.6,6.379,8.753,6.525,8.9,4.155,4.6,17.063,12.463,22.7,15.875,12.463,7.567,30.86,18.4,39.317,21.958a101.922,101.922,0,0,0,31.008,8.16c3.859.3,13.947,0,13.947,0s-4.154-.148-4.9-.148c-24.778-1.929-44.807-12.018-63.649-22.848v-2.219c13.353,7.27,26.26,14.243,42.432,19.882a99.633,99.633,0,0,0,26.41,3.709c2.967,0,10.385.445,10.979-4.3C855.376,1458.81,846.622,1453.321,844.249,1451.689Zm-117.507-43.62-4.3-5.638s.149,1.781.3,5.789H721.4c-.148-2.968-.148-5.789-.148-8.161a44.191,44.191,0,0,1-21.513-9.495c7.715,2.967,14.243,7.121,23.145,9.051,0,.149.149.445.149.594l5.789,7.863Z" style="fill:#fff"/><path id="robe" d="M825.11,1192.046c-.594-4.747-.891-9.644-1.336-14.094-1.039-7.864-2.67-14.84-4.154-22.1-2.374-11.869-5.935-23.145-7.567-34.273-24.332-21.366-37.834-53.411-50.149-86.646V908.962a8.4,8.4,0,0,0,2.672.445c-3.412-14.54-9.348-36.349-15.134-53.709-6.526-19.436-12.907-33.828-12.907-33.828l1.037,8.16s6.084,13.205,6.232,21.217c-1.929-6.231-3.262-13.051-5.789-18.545.737,7.566,1.484,15.133,2.375,22.4a145.955,145.955,0,0,1,6.082,15.875c4.155,11.869,8.161,23.443,13.354,33.681a13.475,13.475,0,0,0,.737,1.484v124.33c-1.781-4.9-3.561-9.789-5.194-14.688,1.781,8.309,3.561,16.617,5.194,25.222v5.935c-2.227-11.87-4.452-23.59-7.419-34.719,1.038,34.719,4.006,70.178,4.006,106.083,0,3.115.445,13.353,0,15.134-.3,1.335-5.638,9.052-10.683,15.577-4.006,5.045-7.715,9.2-9.346,10.831a178.428,178.428,0,0,1-22.849,20.771c-13.052-9.941-24.629-19.435-37.389-30.118-2.967-2.527-10.534-7.567-11.276-11.573-.445-2.819.594-7.27.891-11.276a1793.343,1793.343,0,0,0,3.412-180.117q-6.9,27.6-14.243,54.747V926.617H621.105c12.611-32.937,18.546-72.7,23.892-112.907-1.632-.445-4.155-1.039-7.27-2.077V765.788c1.781.148,4.3.3,5.789.3-.594-6.676-5.789-22.4-7.715-28.783-3.263-11.578-4.6-13.649-9.941-24.479-.891-1.93-1.929-3.859-2.967-5.639H737.721c-1.928,5.934-3.561,11.578-4.747,16.321,3.115,6.824,5.789,19.584,5.789,19.584s10.089-7.864,15.133-9.052a120.09,120.09,0,0,0-10.831,6.826c2.819-1.336,10.386-5.639,13.651-6.084-6.084,3.263-15.876,6.973-20.475,13.057,0,.3.742,2.225.89,3.412a16.879,16.879,0,0,1,8.605-1.039c1.929.3,8.16,1.484,9.941,2.968a19.771,19.771,0,0,1,3.412,4.45,11.168,11.168,0,0,1,1.187,7.864,26.708,26.708,0,0,0-5.49-12.166A30.916,30.916,0,0,0,740.1,751.1c-1.335.3-11.577,5.935-11.577,5.935l2.225,18.248-76.11,64.244,2.373,2.819,74.479-62.61,2.076,17.359s12.167-9.348,21.662-18.547c7.418-7.121,12.463-14.391,12.463-15.726-.148-4.3-.89-9.941-1.484-14.841-1.334-12.908-6.082-26.707-8.16-40.356-1.928-13.051-6.526-37.537-6.526-37.537s-2.818,6.973-6.231,16.321l-63.058-63.2a22,22,0,0,0,7.863-4.6,11.506,11.506,0,0,0,2.967-7.863c0-6.381-3.263-14.244-7.27-17.063-1.631-.148-4.748-.148-6.973-1.187-.445,1.187,2.225,1.484,2.225,1.484s-3.262,0-3.412-1.187c-.445-.89-1.039-6.825-.89-15.282-.593-1.187-2.077-1.78-3.709-2.077.3,0,.445.445.445.89-9.94,3.709-27.745,2.078-36.2-4.3-.445-2.076,0-2.67-.3-4.3a10.169,10.169,0,0,0-2.077,5.789c-.3,2.526-1.929,16.914-2.226,21.957-.89,0-.737-.736-.594-2.818-2.225.445-5.044,2.373-7.863,2.967a108.664,108.664,0,0,0,17.953,17.062,56.677,56.677,0,0,0,13.051,8.16,96.184,96.184,0,0,0,9.788,4.006,23.177,23.177,0,0,0,8.457.3l68.991,68.991c-1.186,3.412-2.526,6.973-3.709,10.533H621.55a148.3,148.3,0,0,0-21.662-27.447c-2.526-2.526-6.083-6.676-8.9-9.2a16.76,16.76,0,0,0-3.263-2.374s-5.044,11.128-7.567,17.063a37.743,37.743,0,0,0-2.076,6.973l-.149,6.083H555.971c0-4.006,0-8.16-.89-10.238-.889-2.526-2.374-5.341-3.561-7.863-1.334-2.967-3.857-8.605-3.857-8.605s-1.928,15.577-2.374,21.513c-.89,13.2-2.077,33.383-4.6,48.071a83.5,83.5,0,0,1-4.748,15.727,51.244,51.244,0,0,0-2.077,5.044c0,.446.594,2.077,1.038,4.452a42.191,42.191,0,0,1,.594,6.082c0,.742-.3,1.781-.594,4.006-.444,2.671-.889,6.677-1.038,8.012a64.568,64.568,0,0,0,.3,7.566c1.483,15.431,4.3,31.9,7.121,46.44.742-1.484,1.484-2.225,1.78-1.781-1.928,3.71-8.16,17.8-8.16,18.25a43.047,43.047,0,0,0,2.374,6.082c.742-2.67,2.819-2.373,4.006-4.9.742-4.006-1.187-6.381-.445-9.348,1.039-4.9,6.379-6.232,10.237-8.011a34.649,34.649,0,0,0,4.006-2.227s-1.928-.736-.737-1.037c2.374-.742,2.526-1.484,2.67-3.413a13.886,13.886,0,0,0-11.869.89c2.374-3.413,7.567-3.858,11.869-2.374a33.331,33.331,0,0,0-.148-3.857s-.89-.594-2.819-2.226a17.638,17.638,0,0,1-4.154-4.006c2.373,1.929,5.34,2.968,6.973,5.49-.148-19.584-.445-38.872-.3-58.605-8.012-.445-10.682,4.45-15.727,6.973a18.2,18.2,0,0,1,15.727-8.457v-6.081c0-.593-1.484.445-1.78-.3-2.819-3.561-7.567-7.121-7.27-12.759,2.077,5.192,5.638,8.9,9.051,12.463-.89-18.546.149-39.615-.593-57.715v-.148H577.49l-.445,23.738s4.3-23,6.379-32.789h1.484c-.3,1.633-.593,3.116-.593,3.116s18.695,8.457,21.513,10.831c-4.451-1.187-18.545-7.715-21.81-9.051,6.677,20.623,20.029,34.717,29.228,52.818-1.335,1.483-.89,5.934-.89,7.27,5.045,5.49,13.205,9.2,21.366,10.83-4.006-6.525-10.83-12.314-14.688-18.1a74.481,74.481,0,0,1,14.688,15.875v50.441a244.665,244.665,0,0,0-9.94,25.075c-3.116,9.788-5.789,20.029-9.347,29.525,4.451-20.92,11.424-39.614,18.545-58.012a27.875,27.875,0,0,0-3.709-1.631,34.374,34.374,0,0,0-3.857-.594c-5.342,6.676-8.9,16.766-13.354,23.442a108.809,108.809,0,0,1,11.869-23.893,35.849,35.849,0,0,1-7.863-1.929c-5.934,4.154-9.2,11.425-13.946,19.733a95.522,95.522,0,0,0-7.566,18.546c-1.039,9.643-5.194,20.772-4.6,31.009a6.14,6.14,0,0,1-4.3,1.187,7.26,7.26,0,0,1-2.526,6.526c3.116,0,8.753.742,8.309,3.857-.445,2.374-5.045,2.968-7.865,4.3-3.412,1.632-5.789,4.6-8.16,4.006,0,17.21-.147,41.394-.592,61.127,13.5-4.006,27.3-7.863,38.575-14.094V1032.1H647.22c-8.9,29.377-18.992,57.715-31.751,83.383a154.307,154.307,0,0,1-36.943,29.377c-1.93,1.037-6.084,3.262-6.084,3.262s.149,6.973.149,10.534q0,23.365-.446,46.732H559.532c-.148-26.707-.3-47.923-.3-51.633a251.86,251.86,0,0,1-58.011,14.541c-5.044,15.43-10.386,31.6-14.243,48.961-2.077,9.347-4.155,18.84-5.638,28.487-1.335,8.16-2.819,16.765-2.671,24.629,21.662,16.023,49.7,28.783,81.454,36.2,0-23.887-.3-57.27-.446-86.8H572c-.445,29.971-1.038,59.792-1.186,88.575a77.178,77.178,0,0,0,26.112-.889v2.076c-3.561.445-7.418.742-10.979.891-1.039,13.353-4.748,27.155-6.084,39.469,2.82,5.342,13.65,10.09,15.578,11.276-3.263.148-14.1-5.489-17.063-11.578a23.183,23.183,0,0,0,1.038-2.67s-3.857,4.451-5.637,6.083c.445,1.484.593,10.237,2.526,12.314a20.782,20.782,0,0,1,18.249,1.484s8.606-1.929,12.018-1.484c-3.263,1.039-7.566,1.336-10.386,2.671a26.337,26.337,0,0,1,9.052,10.682c.742-.3,3.412-2.077,3.412-2.818-.339-1.837-.321-4.064-1.067-5.777a27.044,27.044,0,0,1-2.778,1.695c2.078-3.116,5.608-4.547,8.278-7.07.737-3.858-2.346-7.5-2.791-10.916-.742-6.677,3.75-16.792,3.75-16.792l-1.584-.667s-10.336,11.189-15.088,11.783a65.073,65.073,0,0,0,14.172-12.074,21.655,21.655,0,0,1-4.822-2.623c0-1.336-.06-2.518.091-4.3h.355c-.149,1.484-.3,2.967-.446,4.3,17.8,6.973,39.142,15.172,61.843,15.769,12.867.47,25.926-.8,38.75-1.967v1.483c-1.632.148-3.412.445-5.193.594-2.526,2.374,3.412,9.495,4.748,11.275l.445.594v2.671a15.777,15.777,0,0,0-1.484-1.781,22.213,22.213,0,0,1-.89,4.3c2.226,2.67,9.644,5.935,9.644,5.935a28.971,28.971,0,0,1-3.561-3.857h1.634c1.186,1.928,2.526,4.006,2.526,4.006a14.053,14.053,0,0,0,5.49,1.186c1.631-.3,5.934-5.489,6.824-7.27a23.546,23.546,0,0,1-8.16-2.967v-1.174a28.6,28.6,0,0,0,9.2,3.412c3.115-3.56,7.418-4.9,11.276-7.566.89-.594,2.67-1.928,2.818-2.819s-3.56-4.451-4.9-7.121c-3.412,4.747-10.83,6.379-18.249,6.676v-.89c8.606-1.336,18.1-1.78,18.841-10.979-5.935,1.631-12.167,2.967-18.841,4.154v-1.335a150.087,150.087,0,0,0,25.52-6.677,227.494,227.494,0,0,0,21.512-9.051c9.941-5.045,17.508-10.831,20.475-14.688-.3-11.425,0-22.849,0-34.273,0-9.789-.3-19.733-.89-29.674h.89c.594,13.8,1.039,27.745,1.039,41.543a75.2,75.2,0,0,0,22.4-8.16c6.677-3.858,13.353-9.052,16.469-15.876,1.335-2.818,1.335-6.231,1.484-10.385A523.649,523.649,0,0,0,825.11,1192.046ZM654.191,604.958a48.313,48.313,0,0,1-16.024-6.973c10.682,4.6,16.914,7.418,27,6.379a26.482,26.482,0,0,0,15.135-6.972C680.007,601.4,667.841,607.925,654.191,604.958Zm-68.4,81.157a7.864,7.864,0,0,0-.445,1.781h-1.335a7.447,7.447,0,0,1,.593-1.929c1.039-2.671,10.238-11.425,11.276-12.018C593.8,677.212,586.534,684.779,585.791,686.115Zm43.916,484.418c-.891,6.677-2.077,15.431-2.819,22.1s-2.374,13.051-3.412,19.733c-4.154,28.338-8.9,56.231-12.611,84.569h-1.188c4.155-35.015,10.831-69.882,15.876-105.341,2.67-18.991,5.193-38.13,7.863-57.121s4.451-37.982,8.754-56.231c-4.146,31.758-8.454,60.986-12.461,92.291Zm132.2-115.429v-6.381c2.374,12.167,4.6,24.481,5.935,36.8-2.08-10.093-4.008-20.323-5.936-30.423Zm23.442,188.425c-.89-12.017-1.929-24.035-2.819-36.053-1.038-13.051-2.374-25.222-4.3-37.388-1.186-7.864-1.78-15.727-2.967-23.442-2.67-15.43-4.6-31.454-8.457-49.407,5.045,16.025,7.863,37.241,10.386,54.9,4.3,29.97,7.567,60.533,9.2,91.393Z" style="fill:#fff"/><path id="shoe1" d="M736.683,1411.63a79.146,79.146,0,0,0,8.9,9.788,145.612,145.612,0,0,0,18.7,13.052c0-14.688,6.676-27.155,18.991-32.789-.594-.594-8.606-7.567-16.766-15.727-2.67-2.671-4.9-5.638-7.418-8.309-5.045-5.489-10.089-10.534-13.205-14.688-6.083-2.078-8.6-.737-10.088-.3a14.227,14.227,0,0,0-6.526,4.006c-2.67,2.967-5.192,7.864-8.456,8.457a17.065,17.065,0,0,1-6.084-1.187c-4.9-1.78-11.869-6.379-14.242-11.276a18.814,18.814,0,0,0,4.006,2.671c0-.89.736-5.341.736-5.341s-5.637.3-8.011,4.451c-2.226,3.858-1.335,11.573-.445,15.282,7.715,6.824,17.507,11.424,28.931,14.539C730.006,1399.761,732.529,1406.437,736.683,1411.63Z" style="fill:#fff"/><path id="shoe2" d="M609.087,1372.905c2.226,4.3,0,4.3-1.632,5.936a7.468,7.468,0,0,0-1.187,1.781c.149.444.3,3.56,0,3.56-.594.149-1.929-5.638-4.154-8.754-4.9-6.677-15.577-13.65-26.262-8.9a45.887,45.887,0,0,0-5.789,4.9s-.3,31.75-.742,54.45l-8.17,2.245-.138-2.245c-.149-8.606.372-18.676-.221-26.836-3.413,12.017-6.158,25.946-10.906,36.628,3.115-1.929,6.947-1.907,11.7-1.462-.148-1.779-.269-3.582-.269-5.362h8.008c0,3.709-.149,6.973-.149,9.94a27.083,27.083,0,0,1,8.754,13.353c1.78-4.006,7.27-18.84,9.94-25.519,5.045-12.463,7.271-17.359,7.863-18.1a47.845,47.845,0,0,1,7.562-5.687c.89-.742,1.489-2.028,2.379-2.922,0,0,1.188-3.858,2.077-6.381,1.484-4.3,4.006-7.863,4.9-11.127S610.571,1374.093,609.087,1372.905Z" style="fill:#fff"/><path id="contours" d="M814.278,1114.005s-3.412-3.561-5.192-5.789c-2.078-2.526-4.006-4.9-5.49-6.974-10.83-15.43-19.881-34.124-27.448-52.818-5.638-13.8-11.127-28.629-16.32-43.175V920.086c3.709,1.039,9.788,2.671,9.788,2.671s-3.262-10.237-3.413-11.424c-1.78-.446-3.412-.891-5.192-1.483-8.457-15.431-13.947-33.828-20.326-51.336.3,7.418,1.928,20.623,1.928,20.623s7.863,27.448,14.689,40.206l1.038.3v81.3q-4.229-12.016-8.012-23.59c1.039,7.418,1.929,25.816,1.929,25.816h0L670.062,945.16c1.187-4.3,0-1.188,0-1.188s-.446-16.765-.594-22.7c-1.928,7.121-3.858,14.094-5.789,21.216H625.407c13.5-38.576,25.52-78.635,28.487-127.6l-2.225-.148V766.53h.3v-.742a4.315,4.315,0,0,1-.3-1.335v-2.82h-.594c-.742-3.857-1.632-9.2-2.226-11.869-1.335-5.489-2.819-11.424-4.747-17.507h81.453c.593,4.451,1.038,9.052,1.929,13.353,4.6-29.525,14.84-53.561,24.926-78.634,2.967-7.419,10.83-23.739,17.506-36.944,4.451-9.051,8.754-16.765,9.5-18.4,3.561-7.121,6.526-14.539,6.084-17.506-2.672-3.858-9.5-5.194-9.5-5.194a12.451,12.451,0,0,1,.737,6.973c-1.039,5.342-4.451,12.167-6.526,16.024-2.67,5.193-5.637,10.386-8.16,14.841-5.789,10.236-10.534,21.215-14.841,31.3a353.667,353.667,0,0,0-22.1,67.655H642.023a139.648,139.648,0,0,0-5.193-13.052,189.18,189.18,0,0,0-12.462-21.97,132.023,132.023,0,0,0-14.688-19.287,153.36,153.36,0,0,1-16.617-10.98l-38.13-30.86,4.9-.737c-16.024-9.5-34.124-19.584-52.521-24.629-7.864,1.781-20.772,4.6-24.925,6.084,11.276-.3,20.03,3.115,28.931,6.973,11.577,4.9,21.958,9.2,31.009,15.43a72.146,72.146,0,0,1,7.567-2.225l-1.039,1.186,39.614,32.047-.446,1.039a26.53,26.53,0,0,1,4.155,2.967c2.968,2.671,6.525,6.525,9.051,9.2a132.936,132.936,0,0,1,23.145,31.9c4.006,7.715,8.309,15.282,11.277,24.629,3.116,10.089,8.9,26.261,8.606,32.789h2.67V814h-.594s-3.709,28.19-7.566,49.109c-5.49,29.674-12.76,57.27-22.256,78.339-11.424,7.715-27.6,11.721-41.69,15.726v6.38H558.049c0-1.483-.148-3.116-.3-4.6-.148,1.483-2.526,1.038-3.115,1.483-1.781,6.232-4.6,11.573-6.381,17.953,3.263-.593,6.381-1.484,9.789-2.077v-4.6H576v-.3c17.8-5.043,34.124-11.721,46.732-21.809l1.186-3.412h38.427a1109.462,1109.462,0,0,1-58.16,158.159,210.933,210.933,0,0,1-23.442,16.024c-1.779,1.186-7.863,4.747-7.863,4.747v10.683H558.931v-3.263a171.742,171.742,0,0,1-61.721,17.061c-1.039,6.084-2.078,12.018-2.671,18.25a263.024,263.024,0,0,0,64.688-15.133v-6.385H574.8v-.89a131.371,131.371,0,0,0,31.155-21.958c3.115-2.967,7.121-6.38,9.051-9.644a144.844,144.844,0,0,0,8.754-18.841c13.2-27.744,38.872-119.139,45.4-147.477l83.234,57.27c5.489,16.32,17.8,50.742,24.481,64.688,8.9,19.14,19.732,38.576,34.866,50.742.742.593,3.115,2.526,3.115,2.526Z" style="fill:#fff"/><path id="noir" d="M769.768,923.949c-3.412-1.334-8.9-2.526-11.276-3.412a2.912,2.912,0,0,1-1.334-1.336.816.816,0,0,1-.742.445c-5.789-9.788-8.9-22.254-13.052-33.68.742,7.863,1.484,15.726,2.077,23.441H668.73c-.3-5.788-.593-13.051-.889-17.656-1.93-26.7-3.709-52.67-6.678-77.744l-2.225.148-4.6-48.219h.445c-3.561-24.184-7.863-47.626-12.611-70.624h77.893a24.373,24.373,0,0,0,.445,2.67c1.188,8.311,3.714,24.186,3.714,24.186a99.086,99.086,0,0,1,2.671-10.385c2.373-7.864,6.083-18.1,8.308-24.332,3.858-10.832,7.418-21.367,12.166-31.9,4.3-9.5,9.052-20.031,14.243-29.822,4.6-8.606,11.128-18.7,13.8-28.19a11.955,11.955,0,0,0-.446-9.052c-5.193-.445-6.973-1.335-13.051-1.187a100.781,100.781,0,0,1-6.379,40.206c-3.116,7.865-9.645,20.772-18.546,30.268l-.89.89v-17.8c.737-1.039,1.483-2.077,2.076-3.116a88.769,88.769,0,0,0,13.651-51.038c-12.76,0-21.069.89-31.3,1.483,6.379,10.831,8.6,25.668,5.637,39.169-3.709,16.914-12.463,25.371-12.463,25.371l1.484,8.9a81.221,81.221,0,0,0,19.277-18.392V660.45a95.684,95.684,0,0,1-17.359,13.5l2.226,15.133H640.986c-.446-1.928-.742-3.857-1.187-5.789-1.632-.445-3.413-.89-5.044-1.335V670.384a10.308,10.308,0,0,1,1.928.742c-.594-1.781-2.819-9.5-3.709-11.869-23.59-14.541-41.543-34.719-56.825-57.418a18.949,18.949,0,0,1-.594,2.818h-4.3a44.636,44.636,0,0,0,.593-4.451,14.965,14.965,0,0,1-4.451-.148,12.327,12.327,0,0,0,.594,2.226H547.663l-.89-2.226c-11.128.3-24.036.89-33.976,3.56v-.3h-3.263v-.3L480.9,610v.148h-.148l-.149,1.483c-.742.149-1.335.149-1.335.445-.594,2.526,5.789,12.315,10.386,16.766,16.765,16.617,36.207,31.155,56.676,43.916.3-2.373.445-5.934.445-5.934s-2.526-5.638-4.748-10.683c-2.374-5.789-4.451-11.572-5.193-13.2-1.039-2.374-2.225-4.451-1.632-6.232.3-.89.593-2.076,5.193-3.262a208.714,208.714,0,0,0-40.8-19.14,65.815,65.815,0,0,0-18.545-2.526l.148-1.186,28.041-7.271v1.19h3.709c12.908,4.6,25.223,9.788,35.757,16.765,2.818-.593,5.341-1.335,6.676-3.412-2.374-4.9-4.9-9.644-7.122-14.689h19.732c.445,2.078,1.039,4.006,1.929,4.3a4.58,4.58,0,0,0,.891-1.928h4.45c-1.038,5.193-2.67,10.088-6.825,12.166,2.819,3.56,4.9,7.863,8.16,10.979,9.052,1.187,18.547,1.929,23.442,7.269-1.483,4.155-3.412,7.715-4.895,11.87a109.633,109.633,0,0,0,38.723,22.1v11.577a207.758,207.758,0,0,1-20.771-8.16,162.383,162.383,0,0,1,33.976,65.578c.742,2.819,1.632,6.677,2.526,10.534,1.039,4.451,3.561,16.321,2.226,16.172l-.148-.148v.736l1.335-.148,4.6,48.219-2.67.3s-.3,4.006-.445,6.084c-2.967,41.394-14.1,79.676-25.371,113.649-1.039,2.967-4.748,14.391-5.489,15.577s-8.161,6.38-10.387,7.567c-11.869,6.973-24.777,11.424-38.575,15.43-.593,35.608-.742,70.475-1.187,105.637h-14.84c-.149-34.125-.149-68.1-1.188-101.042-3.262.737-6.38,1.484-9.788,2.077-19.584,53.412-38.575,107.27-50.147,168.694,24.332-1.93,43.619-8.606,61.424-17.063-.149-16.023-.3-32.195-.3-48.219h14.84c-.148,13.5-.3,27-.593,40.653,11.127-5.49,20.475-12.76,30.119-19.733,23-48.071,42.877-105.042,59.2-160.681,2.373-8.309,6.824-24.926,6.824-24.926s-.148-2.82-.3-6.677h76.854c1.187,13.353,2.226,26.707,3.263,40.059.592,7.419,1.483,22.4,1.483,22.4s4.154,12.463,6.38,18.84c6.526,18.992,13.2,38.131,20.326,55.342,6.973,16.764,14.841,33.68,24.481,48.07a179.356,179.356,0,0,0,12.611,16.024C803.744,1045.608,786.088,984.777,769.768,923.949Z" style="fill:#fff"/><path id="ceinture" d="M659.977,805.7l-9.5-1.038v-.89c3.263.3,6.38.445,9.348.89-.3-2.077-.594-4-.742-6.083-2.375,0-5.342,0-8.606-.149V796.8c4.155,0,7.27.148,8.457.148-.148-.89-.148-1.78-.3-2.526h-8.161v-1.183h8.012a7.418,7.418,0,0,0-.3-1.78l-7.715-.149v-1.039c3.413,0,6.38.149,7.567.3-.148-.742-.148-1.483-.3-2.225l-7.27.148v-1.335l7.122-.3c-.149-.594-.149-1.187-.3-1.781-.89,0-3.561,0-6.825-.147v-1.187c3.263.148,5.789.148,6.677.3-.149-1.484-.446-2.967-.594-4.451-1.928.149-3.857.3-6.083.3V778.7H656.4c-.148-1.484-.445-3.115-.593-4.451a30.744,30.744,0,0,1-5.193.445v-1.341c2.373,0,4.3-.148,5.045-.148l-.446-2.67c-.89,0-2.526.148-4.747.148v-.89l4.6-.149a15.892,15.892,0,0,0-.3-1.631c-2.226,0-10.238.3-14.54,0A50.918,50.918,0,0,1,616.208,760c-.737,1.038-2.225,1.483-2.67,2.67,2.819,4.6,9.644,8.16,17.062,9.348v1.334a39.568,39.568,0,0,1-12.759-4.451c3.115,3.263,7.863,5.045,12.759,6.526v.148c-6.824.149-10.237-3.115-13.946-6.083,0,1.484-2.226.593-1.632,1.632,1.038,1.781,5.341,4.748,7.27,5.49a31.683,31.683,0,0,0,8.457,1.631v1.039c-1.336,0-2.526-.148-3.561-.148,1.186.3,2.225.594,3.561.89v.891a38.381,38.381,0,0,1-5.935-1.336,12.631,12.631,0,0,1-6.825-4.154c-.594.3-2.373,1.484-2.225,2.818.147,1.633,2.67,3.413,3.412,4.006,2.967,2.078,7.122,3.263,11.578,4.155V787.6l-2.374-.6c-1.632-.445-7.418-1.484-10.386-3.56-.148.148-1.632,2.526-1.335,3.262a8.942,8.942,0,0,0,2.82,3.413s5.788,1.187,11.275,2.077v1.187A127.439,127.439,0,0,1,617.7,790.56c-.149-.148-2.077.445-2.077,1.484a23.648,23.648,0,0,0,3.709,4.9,62.881,62.881,0,0,0,11.578,1.928v1.336l-9.788-2.226s1.632,2.226,9.788,3.709v1.187c-5.49-1.187-9.941-2.67-11.127-4.9a5.982,5.982,0,0,1-3.414-2.526c-.736.89-2.225,1.039-2.67,2.077a36.935,36.935,0,0,1,4.006,7.567c10.831,3.116,23.293,4.155,37.092,4.895a71.624,71.624,0,0,1-20.326-.445,54.071,54.071,0,0,0,9.788,3.263,60.771,60.771,0,0,0,17.211.594A33.808,33.808,0,0,1,659.977,805.7Zm-7.419-5.789a7.467,7.467,0,0,0,1.781-.3,1.5,1.5,0,0,1,.742,1.187,22.378,22.378,0,0,1-4.451.148v-1.187h1.928Zm-24.035-31.154c.593.148,1.335.148,2.077.3v.444a5,5,0,0,1-2.077-.737Zm-7.567,12.462c2.82.445,6.084.89,9.788,1.187v1.336a30.721,30.721,0,0,1-9.788-2.527Zm4.9,15.134c1.484.148,3.116.148,4.9.3v.445a34.479,34.479,0,0,1-4.9-.741Zm24.629,9.2v-.444a17.415,17.415,0,0,0,2.967.737Z" style="fill:#fff"/><path id="contour-2" d="M755.822,1117.566c-.3-15.282-.737-31.305-1.187-45.548-2.225-60.238-6.825-119.733-11.578-175.964-3.709-44.362-11.721-111.567-18.249-160.384-4.747-35.461-9.051-61.424-9.051-61.424a57.826,57.826,0,0,1-5.193,2.818c21.216,142.433,40.5,288.574,38.576,452.965-9.052,15.875-19.437,30.267-33.383,41.394-13.354-11.721-27.448-22.7-38.576-36.8,10.238-156.23-.737-317.356-25.815-449.111a24.326,24.326,0,0,1-4.6-.594V673.5l2.225.445c-.737-6.379-2.967-13.051-3.412-18.84a217.618,217.618,0,0,0,41.7-2.079c6.824-.89,15.875-2.373,19.287-3.412.594,4.451,2.374,15.726,2.374,15.726s3.561-2.076,5.193-3.115c-.594-3.263-1.039-6.677-1.483-10.089,7.863-7.864,13.051-21.068,13.649-34.866.445-10.831-1.928-21.811-7.567-30.268-7.121.594-15.875.891-25.222,1.188-.891,0-8.754.445-10.534.593a14.525,14.525,0,0,0-4.3,1.336l.149,1.186a12.292,12.292,0,0,0,3.115.89c1.93.3,3.858,0,4.9.594s3.412,3.709,5.193,7.418a27.05,27.05,0,0,1,2.67,10.683c-.594,11.276-15.282,17.359-28.19,15.578a49.111,49.111,0,0,1-11.424-3.709,82,82,0,0,1-13.8-8.457c-7.122-5.936-15.282-12.018-18.546-20.92a11.364,11.364,0,0,0,1.335,1.334s2.82-1.186,4.154-1.928c-1.186-1.484-7.121-.148-11.127.3-10.089,1.039-23.59,3.561-33.086,3.857-3.858.149-4.6,1.039-6.825,2.967a228.055,228.055,0,0,0,27,34.867c11.869,12.166,23.739,19.881,30.418,22.849.593.89,2.526,10.533,3.709,13.65,1.781.592,3.56,1.037,5.49,1.483v11.423c-1.633-.446-2.82-.737-2.82-.737s10.683,52.373,14.689,78.634c1.186,8.16,6.083,46.142,6.676,49.851,9.941,81.9,12.315,178.041,8.309,268.545-.594,14.391-1.484,29.524-2.374,44.065-.3,4.747-1.632,11.578-.89,14.539.445,1.781,3.263,4.006,5.192,5.789,13.5,12.315,29.674,24.333,42.879,34.569a262.34,262.34,0,0,0,26.854-26.112c3.709-4.154,14.392-19.733,14.392-19.733Z" style="fill:#fff"/><path id="cravate" d="M745.733,1010c-4.9-85.311-13.052-166.171-23.591-244.806-4.006-29.524-8.011-58.9-12.611-87.833a86.308,86.308,0,0,1-17.358,6.232c3.709,25.073,8.753,48.961,9.5,77.15a23.89,23.89,0,0,1-13.649,1.483c.3-27.155-4.452-51.928-7.864-76.261-3.413.3-6.825.594-10.238.594V675.433a75.692,75.692,0,0,0,8.457-.594c-.445-2.671-1.484-6.232-1.187-8.457,3.709.149,8.012-.89,12.166-1.187.3,2.526.737,4.9,1.187,7.27a102.922,102.922,0,0,0,17.36-6.825s-1.039-6.525-1.336-8.012c-.3-1.929-1.336-6.973-1.336-6.973s-23.59,6.526-58.6,5.789c.89,6.232,2.373,11.721,3.412,17.953a115.575,115.575,0,0,0,18.991,1.187V686.86a102.128,102.128,0,0,1-16.469-.89c24.926,132.046,35.906,292.728,25.816,448.81,11.128,13.353,24.481,24.332,37.681,35.608a145.166,145.166,0,0,0,24.925-28.931c2.374-3.413,6.973-11.277,6.973-11.277s.3-9.643.3-14.84C748.107,1078.694,747.662,1043.531,745.733,1010Zm-37.388,56.825c-4.6-6.232-9.644-12.315-13.057-17.36,6.677-14.094,13.205-28.338,21.81-40.355a223.432,223.432,0,0,1,20.03,37.685,22.914,22.914,0,0,1-1.781,3.263c-2.225,4.451-6.232,12.166-8.605,15.875-3.263,4.9-7.121,12.463-10.089,14.244-.3,0,.3-.594.3-.594s-3.857-6.38-8.6-12.759ZM705.97,942.494c2.078-4.748,4.006-8.754,6.526-13.947,4.451,7.269,11.721,17.952,16.765,26.855a94.981,94.981,0,0,1,5.789,12.462s-.891-1.038-1.485-.737c-4.746,12.61-11.424,23.293-17.655,34.272-7.418-10.682-14.84-21.513-22.849-31.6,3.415-8.461,9.052-18.55,12.909-27.3Zm9.645,217.357a378.948,378.948,0,0,1-24.332-31.009c2.225-1.187,3.56-6.677,6.525-11.425,3.561-5.934,7.567-11.275,9.644-14.688,1.929-3.115,9.644-16.765,10.683-17.062,1.187-.3,7.715,9.788,13.353,20.475,3.709,7.121,6.526,13.947,9.052,19.584-6.381,13.2-16.172,23.146-24.926,34.125Z" style="fill:#fff"/><path id="losange1" d="M735.941,1046.8a225.023,225.023,0,0,0-19.139-36.5c-7.568,12.166-13.8,25.668-20.623,38.575,6.824,10.238,15.577,20.623,21.661,29.674C724.072,1068.309,730.6,1057.774,735.941,1046.8Z" style="fill:#fff"/><path id="losange2" d="M739.65,1126.023a226.205,226.205,0,0,0-21.513-40.059c-7.567,15.43-17.655,28.338-25.519,43.469,8.012,9.644,15.133,19.882,23.442,29.229C723.478,1147.388,732.974,1138.04,739.65,1126.023Z" style="fill:#fff"/><path id="losange3" d="M733.27,966.529a263.239,263.239,0,0,0-20.919-35.9C706.712,943.829,700.036,956,694.7,969.5c7.121,10.088,14.84,19.733,21.216,30.418C721.549,988.635,728.078,978.25,733.27,966.529Z" style="fill:#fff"/><path id="rectangle" d="M700.481,760.3c-.593-27.892-5.788-51.188-9.051-76.262h-.594a33.9,33.9,0,0,1-4.154,1.039V673.5c1.335-.3,2.67-.742,2.67-.742s-.742-4.154-.889-6.379c-4.3.445-5.639,1.187-10.09,1.187a52.591,52.591,0,0,0,.891,6.973,44.194,44.194,0,0,0,4.6-.593V685.37l-2.374.3c2.968,24.629,8.308,48.368,7.566,75.667C692.024,761.188,696.476,761.782,700.481,760.3Z" style="fill:#fff"/><path id="cerceau" d="M751.223,543.237a138.831,138.831,0,0,0-53.116-64.243c0-.148-1.337-2.817.443,1.189l-95.633-8.808c-.594-2.374-1.842-5.734-2.436-8.107-12.314,4.747-23.738,10.533-31.75,19.435.445,1.336,1.039,2.672,1.484,4.155l-4.748,5.49c-.3-.742-.742-1.039-1.187-.742a19.723,19.723,0,0,0-.737,2.818L553.009,506.59c.446-4,.742-6.973.742-6.973A91.562,91.562,0,0,0,541.14,532.11a33.7,33.7,0,0,1,6.379-5.789v55.784a28.235,28.235,0,0,1-6.23-5.639,83.343,83.343,0,0,0,4.747,18.1c4.452,11.721,10.534,24.48,17.8,33.827a39.971,39.971,0,0,1,5.935-.446l22.99,25.672c-.593,1.484-1.187,2.967-1.631,3.857A134.385,134.385,0,0,0,628.523,678.4a109.439,109.439,0,0,0,50.742,6.379c47.625-6.083,79.524-41.542,81.453-93.026C761.312,575.136,756.861,557.184,751.223,543.237Zm0,62.908c-4.006,22.1-14.841,39.317-29.674,51.335-14.688,11.869-34.866,20.475-61.869,18.545-24.332-1.779-43.769-11.275-58.753-22.254-2.077-1.484-6.38-5.045-6.38-5.045l-1.039,3.116L572.292,628.1h2.819c-2.819-2.526-7.27-10.682-7.27-10.682a21.993,21.993,0,0,1-3.71-3.709c-2.526-4.006-3.857-8.9-5.788-13.65a128.759,128.759,0,0,1-4.9-14.54,20,20,0,0,1-3.857-2.226V524.84a24.066,24.066,0,0,1,2.67-1.484c-.148-3.709.3-8.9.594-13.5l10.238-11.87c-.3,2.968-.446,6.084-.742,8.9,1.04-1.928,5.051-7.42,5.051-7.42-.3-1.78-.737-3.412-1.187-5.193l4.748-5.341a28.532,28.532,0,0,1,1.335,4.747c8.308-8.307,18.1-16.314,31.009-20.473-.148-.446-.148-.743-.3-1.188l96.074,8.4,6.3,13.115s3.116,2.225,4.9,3.857a147.584,147.584,0,0,1,14.541,15.876,139.6,139.6,0,0,1,14.832,22.408,118.27,118.27,0,0,1,11.127,32.937,106.463,106.463,0,0,1,.446,37.538Z" style="fill:#fff"/><path id="batonbas" d="M572,1104.807a15.65,15.65,0,0,0,.3-3.709,19.383,19.383,0,0,1-5.789,1.335v-.149h-2.078a15.733,15.733,0,0,1-4.451-1.483v3.709a11.9,11.9,0,0,0,4.451,1.335v1.039h0a23.686,23.686,0,0,1-4.451-.891s2.078,184.866,2.078,275.518c0,36.8,1.038,72.7.89,109.643,0,13.052.444,27.3.593,40.356,0,3.71-.445,11.425,1.781,10.98,2.076.148,1.187-3.412,1.187-4.9,0-15.578.889-31.9.889-47.774,0-18.4.445-36.35.742-54.6s.445-36.35.737-54.45c.445-20.178.3-40.5.594-60.682.445-38.873,1.187-77.6,1.484-116.469.3-32.344.3-64.985.889-97.181a23.039,23.039,0,0,1-5.489.594v-1.038A18.282,18.282,0,0,0,572,1104.807Z" style="fill:#fff"/><path id="batonmilieu" d="M574.963,848.725c-.594-13.353.593-37.982.3-57.418-4.9,1.336-12.462,2.67-17.358,0-.3,17.359.445,33.828.3,51.038,2.225.594,4.451,1.187,6.676,1.929V897.39c-.3,0-.593.148-.89.148a11.393,11.393,0,0,1-5.34-1.335s.148,32.344.148,49.554c0,46,.889,94.214.889,141.249v12.463a10.4,10.4,0,0,0,5.789,1.928,20.1,20.1,0,0,0,6.526-1.631c1.039-34.418-.3-70.03.89-105.786,1.188-32.493.594-76.413.891-98.813-2.078-.445-4.748.737-7.418,1.484v-52.08A93.392,93.392,0,0,1,574.963,848.725Z" style="fill:#fff"/><path id="batonhaut" d="M550.033,631.664c-4.6.89-12.76,2.526-13.353,6.083-.446,2.967,3.115,9.645,4.6,12.76,4.9,11.127,8.309,20.475,13.353,30.712,1.038,1.929,1.929,4.006,2.819,6.083.3,1.335-.3,17.358,0,23.739.891,24.184-.148,46.883.594,70.77a42.769,42.769,0,0,0,8.754,1.039v1.039a83.136,83.136,0,0,1-8.754-.89v6.973c5.045,2.374,12.611,1.484,17.655-.3V783a26.127,26.127,0,0,1-6.825.89v-1.04a15.278,15.278,0,0,0,6.825-1.484s0-28.041.3-53.856c.148-6.974.3-38.725.445-39.911s4.3-9.5,5.789-12.463c6.676-12.76,10.978-27,16.023-38.873C584.606,630.032,566.506,628.251,550.033,631.664Z" style="fill:#fff"/><path id="boule" d="M562.055,522.02c-.149,2.969.148,21.662.445,27.156.148,1.779.148,3.56.3,5.34h-9.941c-.594-9.788-.742-19.733-.445-29.673a33.162,33.162,0,0,0-18.692,29.077c-.149,15.578,9.346,26.706,22.254,31.305-.89-6.525-1.779-13.5-2.373-20.771h9.788c.594,7.715,1.188,14.985,1.93,22.551,20.326-.444,34.124-13.946,33.976-32.788C599.291,534.78,582.381,519.5,562.055,522.02Z" style="fill:#fff"/><path id="anneau" d="M553,535.967c.149,23.893,2.374,49.258,7.864,67.8,1.335,4.6,3.857,12.463,7.269,12.463s5.639-8.754,6.381-12.463a94.1,94.1,0,0,0,2.076-17.062,14.925,14.925,0,0,0-3.56.593s-.594,22.256-3.709,21.217-4.748-16.914-5.789-26.706c-2.374-24.184-4.155-52.819-2.077-78.338.445-5.045,1.039-13.5,3.412-13.051,2.967.89,4.006,11.275,6.38,30.418,1.335.148,4.6,1.038,4.6,1.038s-1.928-15.727-4.006-25.074c-.736-3.56-2.67-11.128-5.192-15.727-2.671-4.748-5.341-4.451-7.566-.445-1.633,3.116-2.82,8.16-3.711,12.76a166.727,166.727,0,0,0-2.076,20.919C553,521.725,553,528.252,553,535.967Z" style="fill:#fff"/><path id="main" d="M583.272,886.558V885.52l.147-.148a29.024,29.024,0,0,1,5.045-.445,16.577,16.577,0,0,0-5.341-.742v-3.412h0c.593-2.227,1.483-4.6,0-6.381a12.947,12.947,0,0,1-10.386,2.375c-6.973-1.484-16.172-.891-23.145-2.967,5.934.736,10.83.592,17.359,1.037,2.225.149,5.789,1.039,7.864,1.039a18.374,18.374,0,0,0,9.051-4.3,5.371,5.371,0,0,0,1.039-2.526h1.484a7.013,7.013,0,0,1-1.632,3.709s1.484,1.929,2.818,1.929a34.642,34.642,0,0,1-.592-5.489h.737a36.8,36.8,0,0,0,.742,4.3c.3-2.526.3-6.825.593-10.089h-.89c-.149.148-.149.148-.149.3v-.593a2.565,2.565,0,0,1,1.484-.148c1.188-6.973,3.858-14.243,2.967-19.733-3.115-3.857-11.577-4.748-16.172-8.16,0,5.935-.593,11.128,0,13.947a9.823,9.823,0,0,0,2.969.89,19.39,19.39,0,0,1,8.456-6.974c-2.374,2.527-5.789,3.858-7.27,7.27,4.154,1.039,6.083,1.781,6.825,4.451a8.246,8.246,0,0,1-.445,5.34h-1.781c1.039-2.526,1.188-5.49-.445-7.121s-5.637-1.633-8.754-2.819c-2.818-1.187-6.824-3.413-9.788-4.451-4.154-1.336-14.392-3.858-14.541-4.9,1.93.149,3.709.594,5.49.891-.148-2.375,0-8.012,0-8.012a28.837,28.837,0,0,1-4.3,3.116c-2.527,1.484-6.083,2.818-7.864,4.006a6.417,6.417,0,0,0-2.67,3.262,11.229,11.229,0,0,0,0,4.451,12.747,12.747,0,0,1,.148,2.374c.593-.889,1.038-.889,1.038-.889-.3.736-.592,1.779-.889,2.526a7.365,7.365,0,0,1-.3,2.526c-.891,2.077-3.412,2.968-3.709,5.193-.445,3.263,2.526,6.38,3.412,9.644.594,2.819-.3,4.6-1.187,7.567,1.336,1.781,2.967,3.263,3.561,5.193a19.488,19.488,0,0,1,0,4.154,23.669,23.669,0,0,0,3.56,2.967c1.781,1.188,4.748,1.928,6.974,2.967,3.413,1.633,5.789,2.967,7.27,3.116,1.186.148,9.5-2.225,11.721-2.526H576.6c.891-.3,4.155-2.671,5.342-3.263a6.545,6.545,0,0,1-.3-2.375h.742a5.989,5.989,0,0,0,.445,2.227c2.226-1.039,4.452-1.93,6.677-2.819C588.464,885.372,584.9,885.224,583.272,886.558ZM579.858,860h-.736a19.227,19.227,0,0,0,.148-7.121A9.164,9.164,0,0,1,579.858,860Zm-15.133,1.336c4.451,1.037,8.012,2.373,9.052,2.373.3,0,2.076-.3,3.412-.445l1.484-.148V864.3a9.234,9.234,0,0,1-4.9.742c-3.412-.742-7.864-2.078-11.869-3.116-4.155-1.039-8.754-1.335-11.578-3.71,2.967,1.039,9.2,1.929,14.391,3.117ZM572,888.492a50.606,50.606,0,0,1-6.825-.737c-3.709-.445-7.121-.742-7.121-.742s-3.412,2.374-4.6,2.374a11.977,11.977,0,0,1,3.561-2.526s-6.082,0-5.045-.889a97.913,97.913,0,0,1,13.2.3c2.671.3,5.49,1.038,7.567.592,2.967-.592,3.561-2.225,6.526-3.56v1.632c-2.078,1.483-4.3,3.412-7.271,3.561Z" style="fill:#fff"/><path id="tete" d="M707.454,507.481a42.217,42.217,0,0,0-.593-6.083c-.3-1.038-4.006-8.308-5.49-11.869-1.78-4.3-3.412-8.013-5.638-12.463a74.405,74.405,0,0,1-11.275,9.2A75.729,75.729,0,0,1,671.7,483.3c-6.974-2.076-9.788-1.928-15.134-2.818a171.086,171.086,0,0,0-17.507-2.375c-5.49-.148-12.314,1.187-15.577,4.006.889.89,1.928,1.781,2.967,2.82.737-.445,1.336-.891,1.928-1.188l-1.631,1.485c1.78,1.779,3.709,3.709,5.193,5.488,3.709,4.155,6.379,7.567,7.418,8.754-1.484,1.188-1.484,2.225-2.226,5.342-.742,2.967-1.928,5.34-3.263,10.533-1.039,4.006-1.781,6.973-2.076,8.161.889,1.187,1.334,2.077,1.037,2.077a58.9,58.9,0,0,0-6.082-6.083,34.886,34.886,0,0,0-3.709-2.819h0a5.98,5.98,0,0,0-4.451-.89c-2.526.89-4.155,7.121-4.9,11.275-.89,6.084.149,11.721,3.561,15.43a49,49,0,0,0,13.2,9.5c2.077.891,6.379-1.632,8.457-.594,1.186.594,5.045,7.27,6.676,8.754a35.815,35.815,0,0,0,6.232,4.3v1.781A45.464,45.464,0,0,1,643.956,560c-1.336-1.336-4.155-7.418-5.045-7.863a6.554,6.554,0,0,0-2.967.3,61.557,61.557,0,0,1,2.67,19.436,53.13,53.13,0,0,0,29.821,4.6,27.178,27.178,0,0,0-4.6-3.561c-2.82-1.929-6.526-3.263-9.941-5.342v-1.928c2.077,1.038,4.3,2.225,6.38,3.116,5.934,2.967,10.385,5.789,16.468,6.379,4.9.445,6.974-.737,9.052-2.819,1.335-1.187,2.819-2.818,4.3-4.3a118.668,118.668,0,0,0,7.864-9.348,27.081,27.081,0,0,0,5.638-10.83c.594-2.67,0-7.418.3-11.276C703.894,527.214,707.751,515.938,707.454,507.481Zm-78.041,37.68c-2.225-1.187-5.045-5.045-5.193-7.566a4.867,4.867,0,0,1,4.3-5.045c-.89-1.484-1.78-2.967-2.819-4.451l-.445-.594c-1.78.148-3.263,2.374-4.3,5.789.742-3.709,1.929-6.526,3.858-6.232-2.077-2.67-4.3-5.045-4.9-4.9s-1.038,1.335-1.483,1.78c-1.335,1.484-2.374,4.155-1.335,8.457a8.6,8.6,0,0,1,.445-8.457c.89-1.632,1.781-2.526,2.67-2.373s3.117,1.928,5.935,6.083h0c.445.593.891,1.335,1.336,2.077.737,1.335,1.334,2.374,1.78,3.263h0c1.632,3.115,1.632,4.451.89,4.9a3.8,3.8,0,0,1-3.857-1.039c1.779,1.188,4.451,1.039,3.56-1.335-.148-.445-.593-1.336-1.187-2.526a4.411,4.411,0,0,0-2.819,1.483c-1.484,2.077-1.484,4.3.594,6.974a30.981,30.981,0,0,0,2.967,3.263c-.148-.891,1.039-1.93,2.374-1.93v.737a1.826,1.826,0,0,0-1.632,1.039c0,.148-.148.3-.3.445a8.431,8.431,0,0,0,1.929,1.187v.593a22.948,22.948,0,0,0-2.374-1.632Zm63.946-35.015c1.187-2.374,5.789-6.231,7.715-7.121s3.71,1.038,4.451,3.709c-.889-1.78-2.373-3.561-3.115-3.413a5.893,5.893,0,0,0-3.858,2.078,38.689,38.689,0,0,0-4.6,6.379c-1.483,2.078-1.78.737-.594-1.632ZM672.292,533a14.6,14.6,0,0,1-2.526-.3h0c-.594.445-6.973.593-9.643.593a11.46,11.46,0,0,1-2.227-.3c-.593.446-1.632,1.039-2.967,2.077a8.181,8.181,0,0,1,2.527-2.07,11.5,11.5,0,0,1-2.374-1.038,13.6,13.6,0,0,0-3.412,1.335,7.27,7.27,0,0,1,2.967-1.632l-1.781-1.336a13.378,13.378,0,0,0-4.154,1.187,8.09,8.09,0,0,1,3.56-1.779,27.688,27.688,0,0,1-2.076-2.078h0a35.809,35.809,0,0,1-5.49-1.039,62.361,62.361,0,0,0,6.677.445,12.2,12.2,0,0,1,4.451-6.676,8.048,8.048,0,0,1,5.044-2.373c3.56-.594,8.6-.594,9.788.3l-.89-.148a55.7,55.7,0,0,1,3.709,4.6,49.247,49.247,0,0,0-4.9-4.747c-4.45-.446-9.346,0-12.017,2.67s-4.155,4.154-4.3,6.525c4.3.149,6.826,0,10.831-.148,5.789-.148,9.644,0,9.644,0a1.13,1.13,0,0,1-.593.3h0A4.849,4.849,0,0,1,674.365,529a12.281,12.281,0,0,0-3.857-1.484,39.174,39.174,0,0,1-.594,4.9C672,532.411,672.292,533,672.292,533Zm-2.526-23c-3.858-2.526-9.94-5.638-12.018-5.489a11.093,11.093,0,0,0-5.045,2.67c-1.186,1.039-2.076,2.819-3.115,3.116,1.632-2.077,2.077-3.561,4.9-5.044s2.967-1.484,7.27-.3a47.9,47.9,0,0,1,8.9,4.006c3.858,2.077,6.973,4.3,6.526,4.6-.737.736-3.561-1.039-7.418-3.562Zm12.166,50a5.487,5.487,0,0,1,4.006-1.336Zm-.445-.445a6.069,6.069,0,0,1,3.857-1.632c-2.225,1.041-3.857,1.635-3.857,1.635Zm2.226-4.451c-2.672,0-6.826-1.929-6.381-2.967h0l-.3-.3,1.038.3c1.781,0,3.413.148,5.194.3,1.631.149,3.115-.445,3.857,0l.3-.148a.145.145,0,0,1-.142.148h-.007c.449.891-1.035,2.67-3.557,2.67Zm5.487-8s3.116-3.858,3.116-4.748-3.116-3.412-3.263-7.864c1.633,5.342,4.155,6.084,4.155,7.42A7.2,7.2,0,0,1,689.2,547.1Zm11.577-19.733h0l-.445.891h0a11.219,11.219,0,0,1,2.077,1.632,7.556,7.556,0,0,0-2.526-1.039h0c-.149.149-.3.445-.594.594h0a5.187,5.187,0,0,1,.891,2.076,16.147,16.147,0,0,0-1.484-1.631h0l-.3.148a13.216,13.216,0,0,1-7.567,1.187,2,2,0,0,1,1.781-.742,19.639,19.639,0,0,1,1.186-4.9,5.2,5.2,0,0,0-2.076.89c1.483-1.928,3.412-1.78,6.082-1.928a36.52,36.52,0,0,0,4.006-.3c-1.186-4.9-2.67-7.864-3.709-7.864s-3.412,2.526-5.045,4.9c1.039-2.375,3.562-5.639,5.193-5.194s3.116,4.452,4.006,8.012a14.508,14.508,0,0,0,2.375-.737,3.364,3.364,0,0,1-2.226,1.485h0c-.3,0-.446.148-.742.148h0c-.149.594-.446,1.335-.594,1.928h0a3.981,3.981,0,0,1,2.078,1.039Z" style="fill:#fff"/><path id="cheveux" d="M696.169,476.491c1.488-28.141-.6-55.686-12.06-72.511a59.776,59.776,0,0,1,2.68,7.445c1.191,3.424,2.232,6.848,3.126,10.422a157.7,157.7,0,0,1,2.233,22.037c.448,10.422.6,25.609-1.637,30.075a180.733,180.733,0,0,0,.893-31.118,138.347,138.347,0,0,0-2.383-22.179,174.773,174.773,0,0,0-7.295-20.994,73.744,73.744,0,0,0-5.509-9.38c-1.489-2.084-7.594-10.869-9.38-12.507-2.978-2.68-7.3-4.918-10.72-7.3s-10.721-6.848-10.721-6.848,11.468,12.8,16.526,19.65a52.61,52.61,0,0,1,6.106,9.975A64.767,64.767,0,0,1,672.5,408c4.02,19.207,9.975,40.644,7.594,64.619.739-18.907-2.086-34.692-5.212-49.135-1.787-8.19-3.274-16.527-5.361-24.269-1.19-4.467-5.062-10.573-7.295-14.151-5.956-9.527-12.8-14.74-18.165-21.736a126.02,126.02,0,0,0-15.932-8.637c-4.466-2.085-18.314-8.04-20.548-8.189a47.509,47.509,0,0,0-9.233,1.341c9.678,6.4,20.7,12.059,25.759,23.674,2.382,5.358,4.616,11.618,7,17.717s5.211,12.06,6.1,18.612c.745,5.509-.745,12.359-.893,19.207-.446,13.7,1.34,26.652.595,40.945a391.037,391.037,0,0,1-.893-45.711c.148-4.765,1.042-9.677.6-14-.74-8.784-5.509-18.016-8.785-25.908-1.488-3.574-2.829-7.593-4.316-10.869a33.846,33.846,0,0,0-8.49-11.467c-5.359-4.466-11.619-7.892-17.42-11.912-2.535.739-16.528,5.063-18.611,7-1.341,1.191-3.724,9.38-4.02,10.719,1.935-3.87,4.616-10.123,9.232-10.57,4.316-.448,10.572,3.275,15.187,5.509,7,3.273,13.548,7.147,15.336,14.293-2.382-7.146-9.976-11.315-18.313-15.038-2.829-1.191-8.339-4.315-11.912-4.315-2.829.3-4.616,2.535-6.4,5.657a54.176,54.176,0,0,0-4.617,10.423,18.412,18.412,0,0,0-.894,8.04c.6,4.17,3.722,7.147,5.212,10.72.3-4.765.894-7,1.786-8.631a49.162,49.162,0,0,1,8.785-8.785c5.212-3.126,10.721,0,14.894,2.384a51.145,51.145,0,0,1,7.444,6.4,20.988,20.988,0,0,0-7-10.421c-4.617-3.426-13.7-2.384-18.466-.895,3.424-2.234,10.869-1.787,14.893-1.637-3.871-1.638-7.146-4.17-11.315-5.509-8.339,3.722-11.316,14.442-11.912,25.014-.894-11.913,3.425-20.994,11.018-25.312-5.359-3.275-10.274,8.487-12.508,11.911,1.341-4.616,6.106-12.358,10.126-13.4,1.49-.447,8.487,2.829,10.124,3.573,8.339,4.467,12.656,8.189,16.528,17.421.744,1.935,4.02,14.591,4.02,16.08-.149,1.192-8.041,22.179-8.784,24.718-2.83,8.487-6.549,17.271-7.594,25.013a40.876,40.876,0,0,0,.6,10.423c.745,4.315,4.616,18.612,7.892,25.61-.448,0-1.042-.745-1.042-.745a53.6,53.6,0,0,0-4.917,9.678,51.687,51.687,0,0,0-3.274,23.227c.446,2.085,5.359,8.786,5.359,8.786l-.893-2.978a37.071,37.071,0,0,0,2.382,4.912c.6.895,3.425,4.17,4.021,4.918-1.638-6.849-3.126-13.7-2.68-21.292.594,3.87.892,8.931,1.637,13.251.894,5.063,2.085,9.233,2.085,9.233s.594.745.892,1.191v.3l1.043,4.169,2.68,4.616,4.764,4.316,7.743,5.063,2.978,1.042,2.233.745h.3a4.881,4.881,0,0,0,1.639,2.233c.149-1.638-.744-2.086-.6-2.978h-1.191l.893-.893-2.084.595-3.127-.595-4.617-2.829-6.253-4.917-3.722-5.212-2.682-6.253a41.756,41.756,0,0,1,.15-6.105s-2.383-19.356,2.084-25.61c-2.977,6.1-2.234,18.016-1.787,24.716.894-5.062,2.83-10.124,6.106-11.167h1.042c1.042-12.8,7.743-20.25,13.1-22.929-7.891,5.955-11.315,12.656-12.358,23.081a8.611,8.611,0,0,1,2.084.74c1.936-6.4,7.3-9.381,9.679-10.721-6.254,4.467-8.486,7.892-9.233,11.018a19.063,19.063,0,0,1,2.828,1.936,16.452,16.452,0,0,1,4.917-5.211,40.25,40.25,0,0,0-4.467,5.508c.6.447,1.193,1.043,1.787,1.489,1.341-2.234,2.383-3.871,2.383-3.871a37.831,37.831,0,0,1-1.937,4.316,22.342,22.342,0,0,1,3.128,3.427c.3-1.191,1.19-4.169,2.083-8.189,1.341-5.212,2.535-7.594,3.274-10.572s.745-4.02,2.234-5.359c-1.042-1.193-3.722-4.617-7.444-8.786-1.638-1.786-3.425-3.722-5.211-5.509-7.445,6.4-11.167,10.274-12.061,13.7,0-3.573,7.147-10.571,11.763-13.849-1.043-1.04-2.086-2.083-2.978-2.828,3.424-2.829,10.273-4.169,15.632-4.02,5.509.149,12.211,1.489,17.57,2.383s8.189.739,15.187,2.829a76.169,76.169,0,0,0,12.807,2.969,82.828,82.828,0,0,0,11.316-9.233c0-.148-.15-.148-.15-.3C695.722,476.789,695.722,476.789,696.169,476.491Zm-92.762,45.26a32.143,32.143,0,0,1-1.19-16.378,48.806,48.806,0,0,1,4.169-12.954C603.854,499.864,600.43,511.924,603.407,521.751Zm9.084-33.2a172.692,172.692,0,0,0-5.657,20.846,62.818,62.818,0,0,1,5.657-20.846c-.149-1.337.894-.142,0,0Zm-.894-7.594c-5.061-20.845,0-46.6,4.918-64.918-4.173,17.871-8.342,42.736-4.918,64.922Zm14.144-31.116c-2.232,9.084-2.828,18.907-3.722,29.928a89.936,89.936,0,0,1,1.193-21c.738-4.616,1.488-9.527,3.424-12.506.744-1.339-.746,2.384-.895,3.577Zm-5.211-4.913a148.592,148.592,0,0,0-3.722,31.417c-1.043-10.869.894-22.48,2.977-32.906,1.639-7.892,4.765-15.336,6.106-22.929,1.638-9.084.3-17.422-1.936-25.461-1.34-4.918-5.956-19.655-6.7-22.179,0-1.191,1.193,2.234,1.49,2.979,1.638,4.467,7.892,25.907,8.19,31.118,1.338,14.74-3.872,25.313-6.4,37.968Zm19.51-17.416c.3,5.955.15,23.227,1.043,47.049C638.7,456.694,639.888,427.211,640.04,427.509Zm10.423,18.014c-.149,9.824-.3,19.506-2.084,28.292,1.935-16.825,1.042-19.805,1.339-31.265.15-6.4.745-14.894.448-21.144-.746-15.335-11.168-27.1-16.528-38.116,4.021,6.549,9.679,14.144,13.4,22.929a42.185,42.185,0,0,1,3.127,10.423c1.34,8.784.3,19.207.3,28.885Zm8.785-8.189c-.3,13.1-.148,27.1-2.68,37.671,2.233-14,1.489-28.885,2.085-41.691a94.751,94.751,0,0,0-.3-19.5c-.894-5.508-3.574-10.721-6.106-15.932-4.764-9.38-11.762-17.718-18.611-25.61-9.084-10.273-18.907-18.76-31.712-24.716,13.1,4.763,24.121,14.74,33.5,25.906a166.381,166.381,0,0,1,16.823,22.781,71.37,71.37,0,0,1,6.106,14.74c1.936,7.891,1.043,16.676.893,26.353Zm11.912,42.284c.893-22.479,1.339-43.923-3.425-62.833-2.234-8.338-6.4-16.527-10.721-24.122-6.548-11.316-12.656-20.249-22.036-27.991-.446-.446,1.34.894,2.085,1.49,7.295,5.659,13.246,13.849,18.906,23.227a112.326,112.326,0,0,1,11.62,25.014c2.977,9.823,3.573,21.143,4.315,32.315a162.088,162.088,0,0,1-.745,32.9Zm14.293-30.077c-2.084-18.611-5.061-37.67-10.869-52.708-3.127-7.891-7.892-13.849-12.507-20.4a104.075,104.075,0,0,1,13.252,20.7,118.419,118.419,0,0,1,6.4,23.676,420.006,420.006,0,0,1,6.254,57.919c-1.49-8.487-1.49-19.357-2.535-29.184Z" style="fill:#fff"/><path id="bouche" d="M687.282,552.585a3.954,3.954,0,0,1-2.078,1.038v-.736a4.583,4.583,0,0,0,1.929-.445c-.742-.446-2.226.148-3.857,0a30.475,30.475,0,0,0-5.193-.3,20.817,20.817,0,0,0,6.083.89v.742c-2.526.3-5.788-.3-6.825-1.632h0c-.594,1.039,3.709,2.967,6.38,2.967S687.722,553.327,687.282,552.585Z" style="fill:#fff"/><path id="oeil1" d="M667.544,528.994a3.529,3.529,0,0,0-.445-1.78h-.149l-6.677.148a5.306,5.306,0,0,0,.594,5.342c1.484,0,3.412-.149,5.044-.3A3.542,3.542,0,0,0,667.544,528.994Zm-3.263,1.483c-1.187,0-1.039-1.928-.148-1.928S665.467,530.477,664.281,530.477Z" style="fill:#fff"/><path id="oeil2" d="M696.624,530.181c1.631-1.632,1.483-5.192,1.483-5.192a13.407,13.407,0,0,0-3.412.445c-.445,1.631-.737,3.412-1.039,5.043.737,0,1.484-.148,2.226-.148Zm-.737-3.561c.737,0,.594,1.632-.3,1.632-.587.148-.442-1.632.3-1.632Z" style="fill:#fff"/><path id="shoe2der" d="M596.772,1409.552c-2.526,4.748-4.9,9.789-6.973,14.841-2.818,6.676-5.49,14.539-7.418,19.584-1.668,4.253-3.8,9.253-5.881,14.163l-.608-1.159,1.148-2.77c.148,0-1.34-9.5-7.864-13.946-.3,10.979-.742,34.717-.742,34.717l6.6-15.922,1.052.066c-1.473,3.485-2.9,6.9-4.088,9.925-1.186,2.967-3.263,7.715-3.263,7.715l-.023.622-.384.728.1,2.306v.954s12.612-32.938,23.294-55.638h1.187c-.737,1.632-1.336,3.116-1.78,4.154a3.68,3.68,0,0,0,2.526,0,19.76,19.76,0,0,0,1.484-4.154h.737a13.9,13.9,0,0,1-1.483,4.154c.89-.594,8.605-8.16,9.346-9.643.891-1.929.891-16.172,1.633-19.437C603.6,1404.215,598.85,1405.843,596.772,1409.552Zm4.448,1.635c-1.779,2.818-3.412,5.638-3.412,5.638l0,0a54.594,54.594,0,0,1-1.484,7.42h-.3c.445-2.671,1.039-6.083,1.039-6.083s-1.484,2.967-2.967,6.083h-1.187q1.335-2.895,2.67-5.341C598.253,1413.709,601.517,1410.741,601.22,1411.187Z" style="fill:#fff"/><path id="shoe2D" d="M561.9,1490.281v-1.718l-.147-1.258s-1.929,2.967-3.857,5.639l.309-1.944c1.928-2.526,3.845-5.375,3.845-5.375l-.3-13.448c0-13.051,0-24.629-.3-36.647a13.147,13.147,0,0,0-9.5.446,12.734,12.734,0,0,0-4.9,5.193c-1.928,3.115-8.16,15.281-9.788,17.952a198.157,198.157,0,0,0-10.979,18.693,149.318,149.318,0,0,0-7.864,21.069c-1.187,3.857-3.561,13.947-1.484,16.765,3.263,4.3,9.6,1.867,12.715.383,6.084-2.967,12.06-7.837,16.813-12.437a84.945,84.945,0,0,0,9.01-8.866l.148-.148h.78a17.115,17.115,0,0,1-1.188,1.484,106.11,106.11,0,0,1-13.2,12.611c-7.864,6.38-17.063,12.76-25.817,8.754.3,3.858,6.1,4.126,9.517,3.235,4.748-1.187,11.753-5.338,15.906-8.008a63.273,63.273,0,0,0,17.75-17.218c.592-.891,2.084-3.286,2.678-4.172Z" style="fill:#fff"/></g><g id="line"><path d="M687.425,552.436a16.59,16.59,0,0,1-10.386-.593C678.374,554.069,686.386,554.514,687.425,552.436Z"/><path d="M579.266,852.88c.736,2.373-.3,7.418-.594,9.494C580.3,860,581.046,855.55,579.266,852.88Z"/><path d="M851.518,1454.21a370.575,370.575,0,0,1-51.334-39.763c-4.451-4.154-9.789-7.566-13.947-11.869-4.45-4.6-8.753-8.754-13.353-12.76s-8.457-8.9-12.759-13.051a98.49,98.49,0,0,1-12.463-13.649c-2.226-1.336-3.858-1.929-8.606-2.374.594-1.335,4.6-2.671,4.9-4.747s-2.967-4.9-3.709-5.936a12.1,12.1,0,0,1-1.484-3.56,18.7,18.7,0,0,0,.593-4.006c8.457-3.116,18.249-5.935,27.3-10.979a123.058,123.058,0,0,0,12.166-6.974c2.374-1.632,7.121-5.637,8.9-8.9.3-.593-.445-10.089,0-20.771,14.391-3.709,27-9.051,35.608-18.546,5.193-5.638,5.341-7.27,5.935-14.688.3-4.3.3-8.754.445-13.2.3-15.875-1.336-28.635-2.374-42.581-.594-8.16-.891-16.173-1.78-23.74-2.375-20.77-8.309-40.8-12.315-58.456,1.335.891,2.374.891,3.263.149-1.781-19.882-5.49-37.389-9.2-55.639-9.788-49.554-23.442-97.329-36.053-143.322-.594-2.226-2.225-7.269-3.116-10.534a32.16,32.16,0,0,0-1.038-3.561,3.241,3.241,0,0,0-1.188-.737s-1.928-9.051-2.967-13.051a495.222,495.222,0,0,0-22.254-67.211l-4.451-10.979s-2.078-18.694-2.226-19.436c8.16-7.715,19.288-16.172,27.6-25.222,1.929-2.077,6.677-7.864,7.271-10.386s-.594-7.419-.891-11.276c-.594-6.38-5.193-26.854-8.754-46.142-3.56-18.84-6.379-36.5-6.379-36.5a76.325,76.325,0,0,1,2.373-8.309c1.633-4.154,4.155-8.457,5.49-11.127,3.116-6.38,6.083-13.353,8.754-18.84,1.78-3.561,6.231-10.831,9.789-17.358,2.077-4.006,3.857-8.012,4.451-9.348,1.484-2.967,3.709-7.715,2.967-10.386-1.632-6.526-16.914-8.6-25.223-8.456-3.709-53.116-30.563-85.756-64.984-109.2,1.187-17.952,1.335-39.614-3.561-55.192a150,150,0,0,0-15.43-30.86c-4.451-6.526-10.089-12.612-12.612-14.392a226.742,226.742,0,0,0-36.8-22.255c-3.115-1.484-17.8-8.16-19.881-8.309A57.254,57.254,0,0,0,593.208,348a82.441,82.441,0,0,0-14.243,5.342,11.771,11.771,0,0,0-2.968,4.9,69.986,69.986,0,0,0-2.819,9.5,61.761,61.761,0,0,0-1.484,11.578,20.436,20.436,0,0,0,2.226,5.934,31.933,31.933,0,0,0,5.045,8.309,16.128,16.128,0,0,1,1.186,1.484,20.547,20.547,0,0,1,.3-12.315c.594-1.484,4.154-5.49,7.566-7.863a13.01,13.01,0,0,1,6.084-2.526c5.193,0,16.172,8.457,17.952,11.87a91.091,91.091,0,0,1,3.413,13.946c0,.89-4.748,12.76-8.457,23.293-2.374,6.677-8.16,22.256-8.16,30.119a39.22,39.22,0,0,0,1.487,10.958c-13.2,4.006-23.145,10.979-32.492,18.841-2.671-5.49-6.38-5.639-8.9-1.484-3.116,4.9-4.747,18.248-4.747,18.248s-3.117,4.6-4.452,7.271a98.968,98.968,0,0,0-7.269,17.952c-1.039,3.412-2.375,10.386-2.375,10.386a55.09,55.09,0,0,0-4.3,7.567,34.03,34.03,0,0,0,4.452,34.272s1.78,8.605,2.818,12.166c1.187,3.858,2.226,7.418,3.413,10.98a243.785,243.785,0,0,0-52.818,7.567A78.477,78.477,0,0,0,482.08,609.4c-1.632.737-3.116,1.336-3.263,2.374a18.5,18.5,0,0,0,2.526,7.27,48.727,48.727,0,0,0,6.231,8.309A207.878,207.878,0,0,0,503,642.2c8.16,7.121,17.063,13.353,25.52,19.732,5.935,4.6,14.243,9.348,17.952,11.721-2.671,18.1-2.819,37.24-4.9,54.748a163.279,163.279,0,0,1-2.671,17.062c-.89,2.968-5.341,12.462-5.489,14.243-.149,1.335,1.631,8.309,1.78,9.643a100.048,100.048,0,0,0-2.077,14.689,175.54,175.54,0,0,0,2.077,19.585c.736,5.193,1.484,10.979,2.374,16.765.742,4.6,2.67,17.362,2.67,17.362s-2.076,4.895-3.115,7.269a61.822,61.822,0,0,0-2.967,7.27c-.148,2.967,2.819,7.715,2.819,7.715a10.78,10.78,0,0,0,.593,3.709c.594,1.929,3.561,4.6,3.709,7.864.149,2.526-1.632,4.6-1.187,6.677s2.526,2.526,3.116,4.3c.148.594-.445,3.859.3,5.49a13.946,13.946,0,0,0,5.045,3.709c3.116,1.484,6.526,2.375,9.2,3.709.742,16.618.742,42.582.149,62.463-.446,1.188-2.375.891-3.413,1.485-18.1,48.367-44.065,118.692-55.49,175.962-3.115,15.727-5.637,32.938-5.34,33.086.445.446,6.676-.445,6.676-.445a267.249,267.249,0,0,0-10.385,32.493c-3.71,13.8-8.309,35.607-10.238,47.328-1.039,6.678-2.67,16.469-2.225,23.739,1.186,1.039,1.334-.444,1.334-.444a73.2,73.2,0,0,0,6.526,5.34c20.475,14.541,52.225,25.52,74.624,32.047.148,20.92.594,42.285.594,62.612,0,6.973.3,20.92.3,20.92s-2.225,9.94-4.9,18.84c-1.631,5.935-3.709,11.275-4.748,14.1a206.557,206.557,0,0,1-14.985,30.418c-7.715,13.947-16.023,27.892-19.584,44.065-1.187,5.49-2.526,11.276-2.078,17.211a10.11,10.11,0,0,0,2.375,4.9c2.819,1.78,7.27.737,9.5.148,5.789-1.632,11.127-5.341,16.023-8.605a60.213,60.213,0,0,0,19.585-20.03c-.3,10.831.3,27,.3,40.06,0,1.483-.148,3.262,0,5.044.149,1.483,1.038,5.044,3.561,5.044,1.631,0,1.928-3.412,2.077-4.3.148-2.67-.149-6.676,0-9.346.148-10.238.593-20.03.593-30.119,0-5.045.446-15.578.446-15.578s2.526-4.6,5.489-11.577c5.341-12.76,13.2-32.789,16.915-41.84.444.89,2.526.89,3.709.593,1.928-.593,9.494-8.308,10.385-9.941,1.335-2.076,1.187-16.467,1.632-19.732a39.919,39.919,0,0,1,3.709-10.979c1.78-3.561,3.413-5.639,3.709-8.457.3-2.374-2.077-6.38-3.412-8.457s-1.929-1.928-1.929-1.928l-.148-1.93s4.9-3.709,5.193-4.6c.89-3.413-2.526-9.94-2.819-11.573-.3-2.67,1.78-12.017,3.412-15.43,14.688,5.639,30.86,10.385,48.665,11.869,12.166,1.039,24.777,0,37.68-.3-1.928,2.818,1.929,6.973,3.413,9.644-3.858,1.039-6.677,1.928-8.308,5.045-2.375,4.45-1.93,9.346-.594,14.539a78.251,78.251,0,0,1,2.374,11.721c.445,4.006,0,15.133.593,17.211a61.03,61.03,0,0,0,11.578,5.934,112.4,112.4,0,0,0,13.65,4.451c1.483.148,8.309-2.819,8.309-2.819s4.6,6.38,5.192,6.973c6.974,7.27,14.986,11.424,23.892,16.618,8.456,4.9,16.913,10.533,26.409,15.133,13.2,6.38,28.783,14.244,48.664,13.947,6.38-.149,12.76.148,17.953-2.078,1.928-.889,4.45-2.967,4.3-5.489S853.9,1455.7,851.518,1454.21Zm-36.5-331.749s-2.373-1.928-3.115-2.526c-15.282-12.166-25.965-31.6-34.866-50.742a483.009,483.009,0,0,1-19.14-49.258c-1.929-5.789-5.789-17.063-5.789-17.063s-.891-18.4-1.93-25.816c7.567,23.145,16.469,48.368,25.668,71.068,7.715,18.694,16.618,37.388,27.448,52.818,1.484,2.078,3.412,4.451,5.49,6.974,1.928,2.225,5.193,5.789,5.193,5.789ZM766.059,911.186c.148,1.187,3.413,11.425,3.413,11.425s-10.831-3.116-12.314-3.413a2.912,2.912,0,0,0,1.334,1.336c2.375.89,8.012,2.077,11.276,3.412,16.32,60.836,33.976,121.661,44.363,188.427-1.484-1.484-9.5-11.578-12.612-16.024-9.644-14.392-17.507-31.306-24.48-48.071-7.123-17.062-13.8-36.35-20.327-55.341-2.226-6.38-6.38-18.84-6.38-18.84s-.89-15.134-1.483-22.4c-1.781-21.81-3.413-43.175-5.49-65.578,4.154,11.424,7.27,23.892,13.051,33.681a.815.815,0,0,0,.742-.445c-6.825-12.759-14.689-40.207-14.689-40.207s-1.483-13.2-1.928-20.623c6.38,17.508,11.869,35.906,20.327,51.336,1.78.441,3.57.886,5.2,1.33ZM749.442,855.7c5.935,17.359,11.87,39.169,15.134,53.709a6.654,6.654,0,0,1-2.968-.593s-1.335-2.819-1.928-4.006c-5.194-10.385-9.2-21.811-13.354-33.681a118.809,118.809,0,0,0-6.082-15.727c-.891-7.418-1.633-14.984-2.375-22.4,2.526,5.489,3.858,12.315,5.789,18.546-.148-8.012-6.232-21.217-6.232-21.217l-1.038-8.16c.149-.3,6.38,14.1,13.052,33.531Zm-6.377,40.36c4.748,56.231,9.348,115.579,11.578,175.964.594,14.243.891,30.266,1.187,45.548l.3,16.172s-10.83,15.577-14.392,19.734a248.035,248.035,0,0,1-26.854,26.112c-13.2-10.385-29.377-22.4-42.878-34.569-1.929-1.781-4.747-4.006-5.193-5.789-.742-3.116.594-9.789.891-14.54,1.038-14.54,1.779-29.673,2.373-44.066,4.006-90.5,1.633-186.644-8.308-268.543-.446-3.858-5.342-41.84-6.677-49.852C651.086,735.971,640.4,683.6,640.4,683.6a54.349,54.349,0,0,0,10.684,2.077C676.158,817.42,687.137,978.4,676.9,1134.782c11.128,14.1,25.222,25.074,38.576,36.8,13.946-10.979,24.332-25.519,33.383-41.246C750.638,965.8,731.5,819.8,710.283,677.372a35.116,35.116,0,0,0,5.193-2.819s4.3,25.964,9.051,61.424c6.666,48.506,14.678,115.715,18.538,160.08ZM572.292,1099.911a20.106,20.106,0,0,1-6.526,1.631,10.017,10.017,0,0,1-5.789-1.928v-12.463c0-47.18-.89-95.4-.89-141.248,0-17.36-.148-49.555-.148-49.555a10.971,10.971,0,0,0,5.341,1.336c3.412-.446,7.27-2.672,10.089-2.078-.3,22.4.149,66.32-.89,98.813C572,1029.881,573.331,1065.489,572.292,1099.911Zm-.3,4.9a15.108,15.108,0,0,1-12.166-.3V1100.8a14.148,14.148,0,0,0,12.463.3,31.5,31.5,0,0,1-.289,3.707ZM583.57,890.865c2.819-1.335,7.419-1.78,7.864-4.3.593-2.967-5.045-3.857-8.309-3.857a7.265,7.265,0,0,0,2.527-6.526,6.57,6.57,0,0,0,4.3-1.187c-.593-10.237,3.561-21.366,4.6-31.008a105.817,105.817,0,0,1,7.566-18.546c4.9-8.308,8.161-15.577,13.946-19.734a46.851,46.851,0,0,0,7.864,1.93,115.745,115.745,0,0,0-11.87,23.887c4.452-6.677,8.012-16.766,13.354-23.442a29.893,29.893,0,0,1,3.857.594,27.875,27.875,0,0,1,3.709,1.631c-7.121,18.4-13.946,37.092-18.545,58.012,3.709-9.5,6.379-19.584,9.347-29.526A237.464,237.464,0,0,1,634.913,810.9a82.1,82.1,0,0,0,9.788,2.968c-6.082,46-12.907,91.393-29.821,126.7-11.578,6.974-26.113,10.979-40.356,15.134.445-19.733.594-43.917.594-61.127,2.664.886,5.037-2.081,8.449-3.713Zm-1.038-3.412c1.038-2.077,5.789-2.374,7.121-.149a42.729,42.729,0,0,0-6.676,2.82,4.285,4.285,0,0,1-.442-2.675Zm4.748-32.79c-.737-2.67-2.672-3.412-6.826-4.451,1.484-3.412,4.9-4.895,7.27-7.269a19.384,19.384,0,0,0-8.456,6.974,9.827,9.827,0,0,1-2.968-.891c-.594-2.82,0-8.012,0-13.947,4.451,3.412,13.056,4.3,16.172,8.16.742,5.49-1.78,12.76-2.967,19.733-1.633,0-2.078.445-2.374,2.375,0-.891-.445-2.527-1.484-2.375a12.452,12.452,0,0,0,1.627-8.309Zm-12.315-5.934a65.366,65.366,0,0,0-16.765-6.38c.148-17.21-.594-33.681-.3-51.038,4.9,2.67,12.314,1.336,17.358,0,.445,19.436-.889,44.065-.3,57.418Zm-16.914-58.754V783c5.192.743,11.578,1.485,17.655,0v6.677c-5.2,1.781-12.764,2.671-17.66.3Zm0-8.16c-.742-23.892.3-46.587-.593-70.77-.3-6.381.3-22.256,0-23.739a45.561,45.561,0,0,0-2.819-6.083c-5.045-10.237-8.457-19.585-13.353-30.712-1.336-3.116-5.045-9.788-4.6-12.76.594-3.56,8.754-5.045,13.353-6.083,16.469-3.413,34.569-1.632,48.368,4.6-5.193,11.869-9.5,26.113-16.172,38.873-1.484,2.967-5.638,11.424-5.789,12.463s-.446,32.931-.446,39.9c-.3,25.816-.3,53.857-.3,53.857s-5.492,3.117-17.658.445ZM567.1,598.88c-.742-3.562-1.336-6.974-1.781-10.535,0,0,4.154-.148,6.973-.594a103.349,103.349,0,0,1-.594,11.721c-.154,0-2.973-.445-4.6-.592Zm4.45,1.037s-.3,6.084-1.78,7.419c-1.335-.593-1.929-4.6-2.67-7.567a14.919,14.919,0,0,0,4.444.148Zm-6.231-12.908c-1.187-12.462-2.225-24.035-2.819-37.833-.3-5.341-.593-24.183-.445-27.155,20.475-2.526,37.241,12.76,37.389,32.2C599.3,573.061,585.647,586.565,565.322,587.009Zm-2.978-78.486s4.155-6.677,5.193-7.715c1.632,9.643,1.78,13.2,2.526,20.029a75.058,75.058,0,0,0-8.161,0c-.3-2.374.446-12.314.446-12.314Zm0-1.484c.594-5.045.594-11.276,2.077-15.43,1.484-1.336,2.967,8.012,2.967,8.012a74.662,74.662,0,0,0-5.041,7.414Zm37.833,47.774c.446-17.062-10.385-27.6-23.441-32.79a152.069,152.069,0,0,0-3.116-20.029c-.445-2.077-1.187-7.121-1.187-7.121s4.154-4.3,6.084-5.935a90.176,90.176,0,0,1,24.925-14.84c.148,0,1.929,5.49,3.413,8.457-5.789,8.012-8.309,14.392-8.754,32.492a20.511,20.511,0,0,0,3.412,7.567,156.588,156.588,0,0,0,10.987,13.2c.594,5.935,3.561,8.16,7.863,11.578,3.561,2.819,9.5,6.825,11.578,6.083a68.7,68.7,0,0,1,4.6,8.606,35.342,35.342,0,0,1,.3,5.192c-3.115,1.187-2.967,4.006-3.412,9.051-.594,6.526-1.483,15.43-1.483,15.43l-2.526.891a10.058,10.058,0,0,0-2.967-1.039c-2.226-.148-13.5,1.484-16.617,1.929-6.676.891-13.8,1.928-19.881,2.374-3.709.3-7.715-.149-10.535.89a5.719,5.719,0,0,0-1.928,1.781l-.891.148s.891-8.16,1.484-12.314c12.76-5.342,21.661-15.577,22.1-31.6Zm33.086-1.78h1.188c0,.89.742,1.335.593,2.967a5.539,5.539,0,0,1-1.778-2.971Zm39.47,22.551c1.781.3,3.263.891,3.71,2.078-.3,8.308.444,14.391.889,15.281.149,1.188,3.413,1.188,3.413,1.188s-2.67-.3-2.225-1.484c2.225,1.038,5.341,1.038,6.973,1.187,4.006,2.819,7.269,10.682,7.269,17.062a12.061,12.061,0,0,1-2.967,7.864c-5.193,5.043-17.655,8.308-25.222,6.379a67.922,67.922,0,0,1-9.789-4.006,62.287,62.287,0,0,1-13.051-8.16A102.854,102.854,0,0,1,623.78,595.91c2.968-.736,5.639-2.526,7.865-2.967,0,2.077-.3,2.819.592,2.819.3-5.044,1.929-19.287,2.226-21.958a9.225,9.225,0,0,1,2.077-5.788c.3,1.632,0,2.077.3,4.3,8.308,6.232,26.261,8.012,36.2,4.3.149-.594,0-1.039-.3-1.039ZM704.039,538.2a78,78,0,0,1,.594-8.309c.889-5.638,2.373-10.238,3.115-15.577q.445-4.451.446-8.9a21.593,21.593,0,0,0-1.93-9.645,145.151,145.151,0,0,1,19.881,20.623c13.5,17.508,24.629,42.136,25.371,68.843-7.863.3-32.789,1.631-32.789,1.631s0-.593-.742-.593c-8.457.3-34.124,1.483-36.943,1.929a14.07,14.07,0,0,0-3.116,1.335c-.445-4.154-.148-8.9-.742-13.205a17.024,17.024,0,0,0,5.342-1.039,37.633,37.633,0,0,0,4.451-3.857,41.937,41.937,0,0,0,4.9-5.34c2.077-2.672,5.789-6.678,8.16-10.09a20.257,20.257,0,0,0,3.709-9.052,42.833,42.833,0,0,0,.3-8.752Zm-27,128.189c-.149,2.374.89,5.789,1.187,8.457a112.144,112.144,0,0,1-28.19-.593c-.89-6.232-2.526-11.721-3.412-17.953,35.014.736,58.6-5.789,58.6-5.789s1.039,5.045,1.336,6.973c.3,1.484,1.336,8.012,1.336,8.012a91.739,91.739,0,0,1-17.355,6.827c-.446-2.373-.891-4.747-1.188-7.269-4.153.441-8.453,1.48-12.314,1.331Zm12.166,6.38s-2.819.742-4.6,1.187c-2.526.445-5.34.742-5.34.742a56,56,0,0,1-.891-6.973c4.451,0,5.639-.742,10.09-1.187a50.38,50.38,0,0,0,.737,6.231Zm17.062-23.145c-3.412,1.038-12.463,2.526-19.287,3.412a206.412,206.412,0,0,1-41.694,2.078c.445,5.788,2.671,12.463,3.412,18.84-3.709-.742-7.418-1.633-10.978-2.67-1.039-3.117-3.116-12.76-3.709-13.651-6.677-3.115-18.546-10.83-30.418-22.848a227.943,227.943,0,0,1-27-34.867c2.226-1.928,2.967-2.818,6.825-2.967,9.644-.3,23-2.67,33.086-3.857,4.006-.445,10.089-1.781,11.128-.3-1.336.737-4.154,1.929-4.154,1.929a3.821,3.821,0,0,1-1.336-1.335c3.263,8.9,11.424,14.984,18.546,20.92a82,82,0,0,0,13.8,8.457,43,43,0,0,0,11.424,3.709c12.76,1.779,27.6-4.3,28.19-15.578a26.431,26.431,0,0,0-2.67-10.683c-1.781-3.709-4.155-6.973-5.194-7.418s-2.967-.3-4.9-.594a12.292,12.292,0,0,1-3.115-.89l-.149-1.186a20.746,20.746,0,0,1,4.3-1.336c1.781-.3,9.644-.594,10.534-.594,9.347-.445,18.1-.593,25.222-1.187,5.639,8.457,8.012,19.437,7.567,30.268-.594,13.65-5.637,27-13.649,34.865.445,3.414.889,6.826,1.483,10.09-1.632,1.039-5.192,3.115-5.192,3.115s-1.336-11.424-2.078-15.726Zm7.122,3.115s8.9-8.605,12.463-25.371c2.968-13.5.742-28.485-5.638-39.168,10.237-.594,18.546-1.483,31.3-1.483a88.775,88.775,0,0,1-13.65,51.037,86.486,86.486,0,0,1-23.145,23.887Zm-75.222-80.86a61.557,61.557,0,0,0-2.67-19.436,6.568,6.568,0,0,1,2.967-.3c.89.446,3.709,6.526,5.044,7.864a65.7,65.7,0,0,0,8.012,6.38c4.155,2.819,8.457,4.3,11.87,6.526a21.2,21.2,0,0,1,4.6,3.561,52.94,52.94,0,0,1-29.822-4.6Zm-5.49,87.24c.89,2.374,2.968,10.089,3.709,11.87-16.172-5.342-30.118-12.908-41.394-23.146,1.483-4.155,3.413-7.715,4.9-11.87-4.9-5.34-14.391-6.082-23.442-7.269-3.412-3.116-5.34-7.418-8.16-10.979,5.193-2.67,6.38-9.5,7.566-16.172,15.283,22.848,33.235,43.026,56.825,57.566Zm16.914,90.355c-.89-3.857-1.928-7.715-2.526-10.533a164.231,164.231,0,0,0-33.977-65.579c7.567,3.263,16.766,7.567,26.41,9.789,5.789,26.854,10.979,54.45,15.133,82.938a85.4,85.4,0,0,1-10.682.3c.445-6.525-5.49-22.7-8.6-32.789-2.82-9.346-7.122-16.914-11.277-24.629a129.022,129.022,0,0,0-23.145-31.9c-2.67-2.67-6.082-6.526-9.051-9.2a26.642,26.642,0,0,0-4.155-2.967l2.82-6.526a126,126,0,0,0,18.991,12.909,132.342,132.342,0,0,1,14.688,19.287,167.785,167.785,0,0,1,12.463,21.958c5.49,11.87,9.051,25.519,11.869,37.092,1.039,4.3,2.82,16.172,3.263,16.172,1.337,0-1.185-11.875-2.224-16.326ZM617.1,804.957a36.984,36.984,0,0,0-4.006-7.567c.593-1.187,1.929-1.335,2.67-2.077a4.948,4.948,0,0,0,3.413,2.526c2.967,5.342,23,6.526,33.976,8.16-1.632-.444-3.263-.889-4.9-1.483,2.226.149,9.645,1.039,11.578,1.186.3,2.672.593,5.194.889,7.42a55.763,55.763,0,0,1-17.209-.594,63.157,63.157,0,0,1-9.789-3.263,66.748,66.748,0,0,0,20.327.444c-13.5-.592-25.965-1.631-36.944-4.746Zm16.617-39.469c-8.16-1.632-16.321-5.192-21.366-10.831,0-1.335-.445-5.934.89-7.269-9.052-18.25-22.4-32.048-29.08-52.819,3.263,1.335,17.359,8.012,21.81,9.052-2.818-2.227-21.513-10.832-21.513-10.832.445-2.373.89-4.6,1.484-6.825.593-1.335,8.012-8.9,10.088-12.166-1.038.594-10.237,9.348-11.275,12.018-1.188,3.263-7.419,36.647-7.419,36.647l.594-32.641a37.746,37.746,0,0,1,2.077-6.973c2.526-5.935,7.566-17.062,7.566-17.062a16.683,16.683,0,0,1,3.263,2.373c2.67,2.526,6.379,6.677,8.9,9.2,10.238,10.386,18.84,20.771,26.113,35.608,5.342,10.98,6.676,13.051,9.941,24.48,1.78,6.381,6.973,21.959,7.715,28.784-2.374,0-7.863-.445-7.863-.445a72.9,72.9,0,0,0-16.469-18.546c3.709,5.934,10.534,11.721,14.54,18.249Zm-56.379-36.207s3.56-20.772,5.788-30.266c7.27,15.133,19.288,31.9,28.931,47.625a15.891,15.891,0,0,0-.889,9.052c1.186,1.483,3.412,2.077,4.6,3.709a23.288,23.288,0,0,0-3.709,2.967c.891,2.374,3.117,3.412,4.3,5.49.445,1.187-2.67,1.483-2.526,3.412-.149,1.633,2.818,3.413,3.412,3.709-4.3,2.078-2.373,5.193,0,7.567a11.27,11.27,0,0,0-2.373,3.857c-.149,1.039,1.928,2.968,1.928,2.968s-2.967,1.038-3.116,2.077,1.93,2.526,1.93,3.263c-1.633.445-3.711,1.632-3.711,2.819s1.781,2.671,2.226,4.3a4.326,4.326,0,0,1-.148,2.375,18.763,18.763,0,0,0-6.231,6.525,326.985,326.985,0,0,0-16.022,30.278c-4.3-3.412-11.276-4.3-15.727-7.566.445-19.437.593-75.075.89-82.344s.445-21.811.445-21.811Zm40.5,39.47c4.6,2.818,11.424,4.6,18.84,5.192,6.677.445,13.947,1.038,18.992.148.148,1.336.445,2.82.592,4.451H643.214c-7.567-.148-15.43.3-21.217-1.928-1.781-.742-6.232-3.709-7.27-5.49-.593-1.187,1.632-.3,1.632-1.633,3.857,3.117,7.418,6.381,14.54,6.084-4.9-1.627-9.794-3.407-13.058-6.819Zm41.1,28.189c-1.485,0-6.381-.148-12.315-.3s-15.282.149-20.92-.3c9.348,1.928,25.371,2.076,33.383,2.076.3,2.078.594,4.155.742,6.084-4.3-.445-8.9-.594-13.8-1.484a105.6,105.6,0,0,1-11.869-2.526c7.27-.445,13.8,1.038,20.623.3,0-.742-.3-1.188-.742-1.188a7.618,7.618,0,0,1-1.632.3c-2.526,0-7.122-.445-9.5-.594-8.16-.445-16.766-.742-23.887-2.818a30.281,30.281,0,0,1-3.709-4.9c0-1.039,1.928-1.633,2.076-1.484a110.242,110.242,0,0,0,27.891,4.167h13.205c.149,1.039.3,1.781.445,2.672Zm-21.217,5.489c-14.243-1.186-16.766-4.6-16.766-4.6l10.09,2.226a70.708,70.708,0,0,0,6.676,2.378Zm20.326-12.018c-2.526-.148-13.051-.736-17.953.446,5.935.3,15.728.445,18.1.445.148.593.148,1.187.3,1.781-2.818,0-16.765,0-19.881-.149-5.044-.445-19.287-3.116-19.287-3.116a7.958,7.958,0,0,1-2.82-3.413c-.148-.742,1.187-3.115,1.336-3.262,2.967,2.076,8.754,3.115,10.385,3.56a46.533,46.533,0,0,0,18.1,1.781c1.484-.148,9.645-.3,11.424-.445a11.575,11.575,0,0,0,.3,2.374Zm-.89-6.525h0c-2.967-.149-25.075-.891-36.2-2.67a30.754,30.754,0,0,0,10.238,2.67c9.346.89,23.59,1.335,26.26,1.335a7.518,7.518,0,0,0,.3,1.78c-2.818.149-18.99.742-21.513.3-6.38-1.039-12.907-2.077-17.062-5.045-.737-.593-3.116-2.373-3.413-4.006-.147-1.334,1.632-2.373,2.226-2.818a13.579,13.579,0,0,0,6.825,4.154c6.083,1.928,14.985,2.67,21.958,2.526-10.534-1.186-15.43-1.78-19.584-2.967,7.567.148,20.623,1.187,29.376.3.148,1.484.445,2.967.594,4.451Zm-2.374-16.024a7.68,7.68,0,0,0,.3,1.632c-2.82.148-19.436.593-26.558-.737,5.044,2.818,23.294,1.78,26.706,1.631l.446,2.67c-.891,0-3.117.149-5.789.149-6.083,0-12.166-.444-18.249-1.038-7.716-.89-14.986-4.6-17.953-9.5.594-1.335,1.93-1.632,2.67-2.67a51.282,51.282,0,0,0,24.036,7.863c4.154.149,12.166,0,14.392,0Zm-65.875,95.7c-.3,3.262-.3,7.566-.594,10.089a29.3,29.3,0,0,1-.89-5.193c0-1.633-.593-3.858.593-4.748h.891Zm-2.225,2.818a81.169,81.169,0,0,0,.737,8.457c-1.335,0-2.819-1.928-2.819-1.928s1.929-1.336,2.078-6.526Zm29.674,74.92c9.644-20.92,16.914-48.664,22.255-78.338,3.858-20.92,7.567-49.11,7.567-49.11l7.566.594c-3.115,52.077-16.468,94.065-31.008,134.866-13.051,10.385-29.674,17.062-48.071,22.254V957.03c14.095-4.006,30.418-8.012,41.691-15.727Zm-2.967,16.172c2.077-1.187,9.644-6.526,10.386-7.567s4.45-12.611,5.489-15.577c11.424-33.976,22.4-72.107,25.371-113.649.148-2.078.445-6.084.445-6.084s5.934-.593,6.082-.593c2.969,25.222,4.748,51.038,6.678,77.744.592,8.606,1.334,26.41,1.334,26.41s-4.3,16.617-6.824,24.925c-16.469,55.638-36.2,112.611-59.2,160.682-9.789,6.973-18.992,14.391-30.119,19.881.89-50.742,1.039-100,1.781-150.741,13.649-4.154,26.557-8.457,38.575-15.43Zm-40.5,178.337v-10.831s6.084-3.562,7.864-4.748a251.738,251.738,0,0,0,23.441-16.024c25.965-56.231,47.924-118.1,65.134-183.085.3,5.935.593,22.7.593,22.7s-1.779,6.526-2.818,10.535c-12.018,48.812-24.926,97.18-43.176,140.354a167.032,167.032,0,0,1-8.753,18.841c-2.077,3.413-5.935,6.825-9.051,9.644-9.5,8.605-21.217,17.508-33.086,22.848ZM681.341,685.818a51.037,51.037,0,0,0,9.5-1.781h.594c3.412,25.074,8.6,48.369,9.051,76.262-4,1.483-8.457.889-11.577,1.186.737-27.3-4.6-51.186-7.567-75.667Zm6.678,76.557a23.89,23.89,0,0,0,13.649-1.483c-.737-28.19-5.638-52.077-9.5-77.149a89.759,89.759,0,0,0,17.358-6.232c4.6,28.931,8.606,58.309,12.611,87.832,10.535,78.487,18.7,159.5,23.591,244.807,1.929,33.531,2.374,68.693,2.374,105.192,0,5.193-.3,14.84-.3,14.84s-4.6,7.715-6.973,11.277A145.232,145.232,0,0,1,715.9,1170.39c-13.2-11.276-26.706-22.255-37.68-35.608,10.09-155.933-.89-316.764-25.816-448.81a114.443,114.443,0,0,0,27.6.3c3.709,24.184,8.309,48.962,8.012,76.113Zm47.922-10.385c-2.526,1.335-7.418,4.451-7.418,4.451l-.891-8.158,4.6-22.7a55.468,55.468,0,0,1,2.373,6.381,49.841,49.841,0,0,1,2.819,12.166,36.107,36.107,0,0,0-2.967,3.709,12.594,12.594,0,0,0,1.484,4.154ZM757.9,707.628c2.077,13.65,6.825,27.448,8.16,40.356.445,4.895,1.335,10.534,1.484,14.841,0,1.335-5.045,8.6-12.463,15.727-9.5,9.2-21.662,18.546-21.662,18.546l-4.747-40.06s10.089-5.637,11.578-5.934a31.215,31.215,0,0,1,14.688,2.225,26.708,26.708,0,0,1,5.49,12.166,11.171,11.171,0,0,0-1.187-7.863,19.73,19.73,0,0,0-3.413-4.451c-1.781-1.483-8.012-2.671-9.941-2.968a15.432,15.432,0,0,0-8.6,1.039c-.148-1.187-1.038-2.967-.89-3.412,4.451-6.084,14.391-9.788,20.475-13.057-3.263.446-10.831,4.748-13.65,6.084a102.163,102.163,0,0,1,10.83-6.825c-5.043,1.187-15.133,9.051-15.133,9.051s-2.67-12.76-5.789-19.584c4.6-18.991,18.4-53.709,18.4-53.709s4.451,24.926,6.38,37.834Zm27.3-113.946c.3,2.967-2.671,10.386-6.084,17.507-.736,1.632-4.9,9.347-9.494,18.4-6.678,13.2-14.541,29.674-17.508,36.944-10.09,25.074-20.326,49.109-24.926,78.633-1.187-5.788-1.484-12.314-2.67-17.951a349.123,349.123,0,0,1,22.4-69.585c4.451-10.089,9.2-21.068,14.84-31.3,2.526-4.6,5.49-9.788,8.16-14.84,2.078-3.858,5.49-10.831,6.526-16.024a12.452,12.452,0,0,0-.742-6.973s6.972,1.339,9.5,5.2ZM774.664,588.2a11.948,11.948,0,0,1,.445,9.051c-2.67,9.5-9.2,19.733-13.8,28.19-5.342,9.788-10.09,20.178-14.244,29.822-4.748,10.534-8.308,21.067-12.166,31.9-2.225,6.231-5.934,16.469-8.309,24.332a99.579,99.579,0,0,0-2.67,10.385s-2.374-15.726-3.709-24.183c-.594-3.858-3.412-24.184-3.412-24.184a87.81,87.81,0,0,0,19.881-16.321c8.9-9.5,15.577-22.4,18.545-30.266a103.049,103.049,0,0,0,6.38-40.206c6.083.147,7.864,1.038,13.051,1.483Zm-23.441-44.958c5.788,13.8,10.089,31.751,9.5,48.961-1.929,51.335-33.68,86.944-81.453,93.027a109.426,109.426,0,0,1-50.742-6.38,134.385,134.385,0,0,1-37.388-20.92,73.93,73.93,0,0,0,3.263-8.9s4.3,3.412,6.379,5.045c14.986,10.979,34.57,20.475,58.754,22.254,27,1.93,47.18-6.676,61.868-18.545,14.986-12.166,25.817-29.377,29.674-51.335a104.677,104.677,0,0,0-.445-37.24A118.259,118.259,0,0,0,739.5,536.264a133.389,133.389,0,0,0-14.841-22.4,163.289,163.289,0,0,0-14.539-15.875c-1.779-1.631-4.9-3.857-4.9-3.857s-7.121-14.985-7.121-14.841a139.127,139.127,0,0,1,53.124,63.946Zm-151.335-95.4c1.039-7.715,4.748-16.469,7.567-24.926.737-2.526,8.753-23.442,8.753-24.629.149-1.484-3.115-14.1-4.006-16.172-3.709-9.2-8.012-12.908-16.469-17.359-1.483-.742-8.456-3.858-10.088-3.561-4.006.89-8.754,8.754-10.089,13.353,2.226-3.412,7.122-15.133,12.462-11.869-7.566,4.3-11.869,13.353-10.978,25.223.593-10.535,3.56-21.217,11.869-24.926,4.154,1.334,7.27,3.857,11.275,5.489-4-.149-11.577-.593-14.84,1.632,4.748-1.484,13.8-2.526,18.4.89a21.738,21.738,0,0,1,6.826,10.534,51.027,51.027,0,0,0-7.419-6.379c-4.154-2.526-9.644-5.49-14.84-2.375a48.948,48.948,0,0,0-8.754,8.754c-.889,1.633-1.483,3.709-1.78,8.606-1.484-3.561-4.6-6.526-5.193-10.682a18.33,18.33,0,0,1,.891-8.012,52.62,52.62,0,0,1,4.6-10.238c1.78-3.116,3.561-5.341,6.379-5.637,3.561-.149,9.052,2.967,11.87,4.3,8.308,3.709,15.726,7.864,18.249,14.985-1.632-7.27-8.308-10.979-15.133-14.244-4.748-2.225-10.98-5.934-15.134-5.489-4.6.446-7.27,6.677-9.2,10.682.3-1.187,2.67-9.5,4.006-10.682,2.225-1.78,16.172-6.232,18.545-6.974,5.789,4.006,12.018,7.271,17.359,11.87a32.372,32.372,0,0,1,8.457,11.425c1.483,3.263,2.819,7.27,4.3,10.83,3.263,7.864,8.012,17.063,8.753,25.817.445,4.3-.445,9.2-.593,13.945a389.152,389.152,0,0,0,.89,45.549c.742-14.243-1.038-27-.594-40.8.148-6.973,1.633-13.65.891-19.139-.891-6.525-3.71-12.611-6.083-18.546s-4.6-12.166-6.974-17.655c-5.044-11.578-15.875-17.211-25.667-23.59a47.388,47.388,0,0,1,9.2-1.336c2.225.148,15.875,6.231,20.622,8.457a109.415,109.415,0,0,1,15.876,8.6c5.341,6.973,12.018,12.167,18.1,21.661,2.373,3.709,6.084,9.645,7.27,14.1,2.077,7.715,3.56,16.023,5.193,24.184,2.967,14.391,5.934,30.117,5.193,48.961,2.373-23.893-3.561-45.252-7.567-64.391a64.52,64.52,0,0,0-4.451-14.689,52.471,52.471,0,0,0-6.083-9.94c-5.04-6.826-16.466-19.733-16.466-19.733s7.418,4.747,10.683,6.973,7.715,4.6,10.682,7.27c1.78,1.632,7.864,10.385,9.348,12.462a74.5,74.5,0,0,1,5.637,9.348,174.07,174.07,0,0,1,7.27,20.92,137.819,137.819,0,0,1,2.374,22.1,180.061,180.061,0,0,1-.89,31.008c2.078-4.45,1.929-19.584,1.632-29.969a139.366,139.366,0,0,0-2.226-22.1c-.89-3.561-1.928-6.973-3.115-10.386s-2.225-6.38-2.67-7.418c11.577,16.766,13.5,44.214,12.017,72.255-.445.3-.445.3-.445.742,2.225,4.6,4.006,8.457,5.789,12.759,1.484,3.561,5.193,10.831,5.49,11.87a27.317,27.317,0,0,1,.594,6.082c.3,8.606-3.561,19.733-4.3,29.526-.3,3.857.3,8.605-.3,11.275a32.121,32.121,0,0,1-5.638,10.682,93.288,93.288,0,0,1-7.864,9.348c-1.334,1.484-2.967,2.967-4.3,4.3-2.077,1.928-4.155,3.262-9.052,2.818-6.084-.593-10.386-3.412-16.469-6.379-5.045-2.526-11.578-5.638-14.54-8.457-1.483-1.484-5.489-8.16-6.677-8.754-2.077-1.039-6.525,1.633-8.457.594a49.055,49.055,0,0,1-13.2-9.5c-3.412-3.709-4.451-9.346-3.56-15.43.593-4.154,2.374-10.385,4.9-11.276a5.38,5.38,0,0,1,4.451.891h0a34.744,34.744,0,0,1,3.709,2.818,59.009,59.009,0,0,1,6.083,6.083c.742-.149-1.335-2.819-4.155-5.489a37.8,37.8,0,0,0,1.93-4.3s-1.039,1.632-2.374,3.858a15.6,15.6,0,0,0-1.781-1.484,39.916,39.916,0,0,1,4.452-5.489,14.9,14.9,0,0,0-4.9,5.192,18.869,18.869,0,0,0-2.818-1.928c.742-3.116,2.967-6.526,9.2-10.979-2.527,1.483-7.715,4.45-9.644,10.682a11.581,11.581,0,0,0-2.077-.737c1.039-10.237,4.451-17.062,12.314-23-5.34,2.671-12.018,10.089-13.051,22.849H618.3c-3.263.89-5.193,6.083-6.084,11.127-.445-6.676-1.186-18.4,1.781-24.629-4.451,6.232-2.077,25.519-2.077,25.519a54.444,54.444,0,0,0,0,6.973c-.3-.444-.737-1.038-1.038-1.483,0,0-1.187-4.154-2.078-9.2-.742-4.3-1.187-9.5-1.631-13.2-.445,7.715,1.038,14.392,2.67,21.217a44.058,44.058,0,0,1-4.006-4.9,37.367,37.367,0,0,1-2.373-4.9l.889,2.967s-4.9-6.677-5.34-8.753a51.525,51.525,0,0,1,3.262-23.145,58.67,58.67,0,0,1,4.9-9.645s.736.742,1.037.742a133.8,133.8,0,0,1-7.865-25.521,64.414,64.414,0,0,1-.445-10.682Zm.445,15.43c1.039,3.412,1.929,6.676,2.82,10.089-12.908,4.153-22.85,12.166-31.01,20.474a72.829,72.829,0,0,0-3.56-10.979c8.16-8.9,19.584-14.841,31.75-19.584Zm-44.807,30.267c.89-4.6,2.078-9.788,3.709-12.76,2.226-4.006,4.9-4.3,7.568.445,2.526,4.451,4.45,12.167,5.192,15.727,2.078,9.343,4,25.069,4,25.069s-3.263-.889-4.6-1.037c-2.373-18.992-3.412-29.377-6.379-30.418-2.374-.445-2.967,8.012-3.412,13.051-1.93,25.668-.3,54.154,2.076,78.338.891,9.789,2.672,25.667,5.789,26.706s3.709-21.217,3.709-21.217a14.935,14.935,0,0,1,3.561-.594,109.5,109.5,0,0,1-2.083,17.07c-.742,3.709-2.82,12.315-6.38,12.463s-5.935-7.863-7.27-12.463c-5.639-18.545-7.864-43.916-7.864-67.8,0-7.567-.148-14.243.3-21.514a160.888,160.888,0,0,1,2.077-21.067Zm2.82,104.305c-1.187-3.263-3.117-8.16-4.006-11.721l1.78.445s1.781,10.089,2.226,11.276ZM553.9,499.769s-1.93,15.727-1.633,23.887a36.732,36.732,0,0,0-10.979,8.605A85.366,85.366,0,0,1,553.9,499.769Zm-20.327,54.154a33.069,33.069,0,0,1,18.694-29.08,342.932,342.932,0,0,0,3.56,60.382c-12.908-4.6-22.255-15.726-22.255-31.305Zm12.465,40.8a83.459,83.459,0,0,1-4.748-18.1,38.344,38.344,0,0,0,12.167,9.051,128.559,128.559,0,0,0,4.9,14.54c1.928,4.748,3.115,9.644,5.789,13.65a21.987,21.987,0,0,0,3.709,3.709s4.451,8.16,7.271,10.682a71.62,71.62,0,0,0-11.277.3c-7.27-9.2-13.352-21.958-17.8-33.827Zm.594,5.044c2.526,6.232,5.637,12.018,8.456,17.953-1.335,2.076-3.857,2.818-6.676,3.412-10.979-7.121-23.887-12.611-37.389-17.359,10.233-2.973,24.03-3.712,35.6-4.009Zm-39.318,4.3c18.4,5.044,36.647,15.133,52.521,24.629-6.231,1.038-12.463,1.929-17.655,4.006-9.052-6.231-19.437-10.534-31.01-15.43-8.9-3.858-17.654-7.27-28.931-6.973,4.153-1.78,17.061-4.45,25.073-6.231ZM489.652,628.4c-4.451-4.451-10.98-14.094-10.386-16.766.3-1.186,13.5,0,20.326,2.078a208.653,208.653,0,0,1,40.8,19.139c-4.451,1.039-4.9,2.374-5.193,3.263-.593,1.781.593,3.857,1.632,6.232.742,1.631,2.67,7.418,5.193,13.2,2.077,5.044,4.748,10.683,4.748,10.683s-.148,3.709-.445,5.934c-20.475-12.61-39.912-27.155-56.676-43.768ZM534.9,852.588c0-.445,6.38-14.541,8.16-18.25-.3-.592-.889.3-1.78,1.781-2.818-14.539-5.638-31.008-7.121-46.439a64.585,64.585,0,0,1-.3-7.567A79.7,79.7,0,0,1,534.9,774.1c.3-2.226.594-3.263.594-4.006a28.185,28.185,0,0,0-.594-6.083c-.444-2.374-1.186-3.857-1.038-4.451a30.045,30.045,0,0,1,2.077-5.045,66.249,66.249,0,0,0,4.748-15.727c2.526-14.688,3.709-34.717,4.6-48.07.445-5.936,2.374-21.514,2.374-21.514s2.374,5.638,3.857,8.605c1.187,2.671,2.672,5.342,3.561,7.864s.737,8.754.89,13.353c.891,18.1-.148,39.169.594,57.715-3.561-3.71-7.121-7.271-9.052-12.463-.3,5.789,4.451,9.2,7.271,12.76.444.737,1.78-.148,1.78.3v6.083a18.2,18.2,0,0,0-15.727,8.457c5.045-2.526,7.715-7.418,15.727-6.972-.148,19.881.148,39.02.3,58.6-1.633-2.526-4.748-3.561-6.973-5.49a21.253,21.253,0,0,0,4.154,4.006c1.928,1.632,2.819,2.226,2.819,2.226a33.564,33.564,0,0,1,.148,3.857c-4.3-1.484-9.5-.89-11.869,2.374a13.886,13.886,0,0,1,11.869-.889c-.148,1.928-.445,2.67-2.67,3.412-1.187.3.737,1.039.737,1.039a27.009,27.009,0,0,1-4.006,2.225c-3.858,1.781-9.052,2.967-10.237,8.011-.742,3.116,1.187,5.49.445,9.348-1.187,2.373-3.115,2.225-4.006,4.9A35.3,35.3,0,0,1,534.9,852.588Zm19.882,40.356c-2.226-1.039-5.193-1.929-6.974-2.967a34.468,34.468,0,0,1-3.561-2.968,19.367,19.367,0,0,0,0-4.155c-.736-1.928-2.225-3.412-3.56-5.192.89-3.116,1.929-4.9,1.187-7.566-.737-3.263-3.709-6.381-3.412-9.645.3-2.226,2.818-3.115,3.709-5.193a7.365,7.365,0,0,0,.3-2.526,24.012,24.012,0,0,1,.889-2.526s-.445,0-1.038.891c0-.737-.148-1.632-.148-2.374a11.229,11.229,0,0,1,0-4.451,7.247,7.247,0,0,1,2.67-3.263c1.781-1.187,5.342-2.526,7.863-4.006a28.785,28.785,0,0,0,4.3-3.116,68.2,68.2,0,0,0,0,8.012c-1.781-.3-3.561-.737-5.49-.89.149,1.038,10.535,3.561,14.541,4.895,2.967,1.039,6.973,3.263,9.788,4.452,3.117,1.187,7.419,1.484,8.754,2.819,2.226,2.225,1.039,6.825-.89,9.5a51.919,51.919,0,0,1-6.677,1.039c-1.335.148-3.115.445-3.412.445-.89-.148-4.6-1.484-9.052-2.374-5.193-1.187-11.275-2.225-14.242-2.967,2.818,2.226,7.418,2.671,11.577,3.709s8.309,2.374,11.87,3.116c2.818.593,5.045-1.484,10.682-1.929,1.039,2.67,1.335,6.676-.3,8.457a19.693,19.693,0,0,1-9.052,4.3c-2.077-.149-5.638-.891-7.864-1.039-6.526-.594-11.424-.3-17.358-1.039,6.973,2.078,16.023,1.632,23.145,2.968a13.53,13.53,0,0,0,10.385-2.374c1.929,2.077.148,5.341-.3,7.715-6.38,1.632-6.083,3.857-10.089,4.748-2.077.445-5.045-.3-7.567-.594a78.493,78.493,0,0,0-13.205-.3c-1.187.891,5.045.891,5.045.891a11.941,11.941,0,0,0-3.561,2.526c1.187,0,4.6-2.375,4.6-2.375s3.412.3,7.121.742a35.578,35.578,0,0,0,6.825.742c3.56-.148,6.083-2.967,8.753-4.3a28.273,28.273,0,0,1,7.864.742,27.712,27.712,0,0,0-5.045.445,2.768,2.768,0,0,0-1.631,1.78,6.571,6.571,0,0,0,.148,2.967c-1.187.593-4.451,2.968-5.341,3.262H574.22c-2.226.149-10.535,2.526-11.721,2.526a73.354,73.354,0,0,1-7.714-3.564Zm-.3,67.507c.593-.446,2.819,0,3.116-1.484.742,5.193.148,11.721.3,17.359-3.263.742-6.381,1.484-9.789,2.077,1.921-6.385,4.744-11.577,6.376-17.958Zm-6.974,19.14c3.414-.594,6.526-1.336,9.789-2.078,1.632,49.852.89,102.374,1.484,153.708-17.8,8.309-37.092,15.133-61.424,17.063C509.084,1086.86,528.074,1033,547.51,979.591ZM494.4,1167.713c.737-6.231,1.781-12.166,2.671-18.248a171.765,171.765,0,0,0,61.721-17.063c0,7.418.3,13.946.3,20.178A266.6,266.6,0,0,1,494.4,1167.713Zm-15.727,102.375c-.3-7.864,1.336-16.469,2.671-24.629,1.483-9.644,3.561-19.288,5.638-28.487,3.857-17.211,9.2-33.531,14.243-48.961a251.855,251.855,0,0,0,58.011-14.539c0,8.16.737,102.075.891,153.114-31.751-7.418-59.792-20.178-81.454-36.5Zm82.047,129.969c.594,10.979.149,23,.594,33.976-4.6-.3-8.012-.445-11.276,1.484,4.748-10.534,7.27-23.442,10.682-35.459Zm-42.284,99.109A149.281,149.281,0,0,1,526.3,1478.1a166.771,166.771,0,0,1,10.978-18.694c1.484-2.67,7.864-14.841,9.789-17.953a11.833,11.833,0,0,1,4.9-5.192,14.849,14.849,0,0,1,9.5-.445c.3,12.017.3,23.59.3,36.646v13.2s-5.49,7.567-6.973,9.347a75.883,75.883,0,0,1-8.457,8.457c-4.9,4.6-8.457,7.863-14.541,10.98-3.115,1.483-11.275,5.934-14.539,1.483-2.375-2.819.148-12.908,1.187-16.766Zm40.8-4.006a66.07,66.07,0,0,1-17.8,17.359c-4.155,2.671-10.831,6.825-15.578,7.864-3.262.742-9.2,1.187-9.5-2.671,8.753,4.006,17.952-2.526,25.816-8.753a96.465,96.465,0,0,0,13.2-12.612c2.226-2.526,6.38-8.9,6.38-8.9l.149,3.709c-.149,0-1.781,2.819-2.672,4.006Zm8.9-59.94c-.3,18.1-.742,36.053-.742,54.6,0,15.726-.889,32.2-.889,47.774,0,1.483.737,5.044-1.187,4.9-2.226.444-1.781-7.271-1.781-10.98-.149-13.051-.593-27.3-.593-40.356.148-36.943-.89-72.848-.89-109.643,0-90.652-2.078-275.369-2.078-275.369a23.6,23.6,0,0,0,4.451.89,22.547,22.547,0,0,0,7.715-.445c-.593,32.2-.593,64.835-.89,97.18-.444,38.872-1.038,77.6-1.483,116.468-.3,20.327-.149,40.5-.594,60.682-.742,17.805-.742,36.2-1.039,54.3Zm2.526-125.37a102.61,102.61,0,0,0,13.5.445s-3.709,23.293-4.748,34.718c-2.076,2.968-5.192,4.9-7.27,7.863.743,4.006,1.039,9.347,1.781,13.051a9.343,9.343,0,0,0-4.006,3.561c0,.148,1.039-39.911.737-59.643Zm-1.484,130.415c6.38,4.451,7.864,13.946,7.864,13.946l-8.606,20.771c.15,0,.447-23.738.743-34.717Zm22.256-10.09c1.335-3.709,5.489-12.017,5.489-12.017l-1.039,6.38a25.23,25.23,0,0,1-1.928,5.637,3.669,3.669,0,0,1-2.526,0Zm12.759-9.643c-.737,1.483-8.457,9.052-9.347,9.643,1.928-3.412,2.967-13.352,2.967-13.352s1.78-2.671,3.263-5.49c.3-.445-2.967,2.526-5.638,7.715-11.276,21.959-26.854,62.611-26.854,62.611l.148-4.9s2.226-4.6,3.263-7.567c2.968-7.715,7.418-17.507,10.386-25.074,1.928-5.193,4.748-12.908,7.418-19.584,2.077-5.045,4.451-10.09,6.973-14.841,2.226-3.709,6.677-5.34,9.052-8.457-.737,3.117-.737,17.211-1.633,19.289Zm4.9-47.478c1.632,1.187,4.451,6.525,3.561,9.5s-3.413,6.824-4.9,11.127c-.889,2.526-2.076,6.232-2.076,6.232a14.564,14.564,0,0,1-2.671,2.526,56.287,56.287,0,0,0-7.27,6.084c-.593.736-2.967,5.637-7.864,18.1-2.67,6.677-8.16,21.662-9.94,25.519a27.078,27.078,0,0,0-8.754-13.353c.446-20.475.891-67.21.891-67.21a45.887,45.887,0,0,1,5.789-4.9c10.683-4.6,21.366,2.225,26.261,8.9,2.225,2.967,3.561,8.9,4.155,8.754.445-.148.148-3.117,0-3.561a3.785,3.785,0,0,1,1.187-1.781c1.631-1.632,3.857-1.781,1.631-5.935Zm1.039-18.991c.445,3.412,3.263,6.676,2.67,10.385-2.67,2.672-6.082,4.451-8.16,7.568a15.42,15.42,0,0,0,2.671-1.484,20.422,20.422,0,0,1,1.632,5.341c-.149.89-2.671,2.671-3.413,2.819a26.674,26.674,0,0,0-9.2-10.682c2.672-1.336,6.974-1.633,10.387-2.671-3.413-.446-12.018,1.484-12.018,1.484a21.354,21.354,0,0,0-18.25-1.633c-2.076-2.076-2.225-10.83-2.526-12.314a71.269,71.269,0,0,0,5.637-6.083s-.889,2.225-1.037,2.67c2.967,5.936,13.946,11.573,17.061,11.573-1.928-1.186-12.759-5.789-15.577-11.276,1.335-12.314,5.044-26.112,6.083-39.469,8.012-.446,16.469-1.188,23-3.263-.594,5.789-2.374,20.029-2.526,26.557a28.914,28.914,0,0,0,4.748,2.526,64.938,64.938,0,0,1-13.65,11.869c4.747-.736,14.84-11.425,14.84-11.425l1.187.446c-.148.148-4.451,10.534-3.56,17.062Zm58.753-5.638c-22.849-.593-44.362-8.012-62.017-14.841.594-7.418,1.631-15.43,2.526-22.848,3.709-33.234,9.347-65.43,14.244-98.368,1.038-6.676,2.67-13.051,3.412-19.732s1.928-15.43,2.819-22.1c4.154-31.155,8.308-60.534,12.759-92.136-4.451,18.25-6.232,37.24-8.753,56.231s-5.194,38.131-7.864,56.973c-5.341,37.834-12.76,75.074-16.765,112.759-10.386,3.412-25.223,5.935-38.279,4.006.3-48.521,1.78-99.851,1.78-150.148,0-3.56-.148-10.533-.148-10.533s4.154-2.225,6.083-3.263a149.371,149.371,0,0,0,36.8-29.229c24.48-49.555,39.469-108.456,54.45-167.358a1778.932,1778.932,0,0,1-3.413,180.118c-.3,4.006-1.335,8.457-.89,11.276.742,3.857,8.16,9.051,11.276,11.577,12.759,10.684,24.332,20.178,37.388,30.119a178.147,178.147,0,0,0,22.849-20.771c1.632-1.633,5.341-5.788,9.347-10.831,5.045-6.525,10.386-14.1,10.683-15.577.444-1.78,0-12.018,0-15.133,0-35.9-2.968-71.361-4.006-106.083,5.934,23.3,9.5,48.961,14.841,72.848-2.819-23.441-8.16-46.732-12.76-69.287,14.244,39.763,28.041,80.119,56.825,105.489,1.632,11.128,5.193,22.552,7.566,34.273,1.484,7.27,3.116,14.243,4.155,22.1.593,4.45.89,9.347,1.335,14.094.737,6.825,2.819,34.866,2.967,41.989q.224,12.016,0,24.48c-.148,4.006-.3,7.567-1.484,10.385-3.115,6.825-9.788,12.018-16.469,15.876a75.24,75.24,0,0,1-22.4,8.16A992.386,992.386,0,0,0,777.2,1152.288c-2.526-17.508-5.342-38.873-10.386-54.9,3.857,17.953,5.788,33.976,8.457,49.406,1.335,7.567,1.929,15.43,2.967,23.442,1.781,12.166,3.262,24.332,4.3,37.389,1.93,24.629,4.451,49.258,4.3,73.59,0,11.424-.3,23,0,34.272-2.967,3.858-10.385,9.5-20.475,14.689a212.5,212.5,0,0,1-21.512,9.052,154.755,154.755,0,0,1-30.418,7.566,312.547,312.547,0,0,1-45.559,1.627Zm33.382.89a211.79,211.79,0,0,0,35.9-6.379c-.89,10.83-14.094,9.346-23.442,11.869,8.9.3,18.841-1.039,22.849-6.676,1.484,2.818,5.044,6.379,4.9,7.121s-1.928,2.225-2.819,2.819c-3.857,2.67-8.16,4.006-11.275,7.566-4.9-.593-11.425-4.748-14.244-6.231,2.374,2.967,8.754,6.38,13.205,6.973-.891,1.781-5.193,6.973-6.825,7.27a22.633,22.633,0,0,1-5.49-1.186s-2.373-4.007-3.709-5.789-3.263-4.451-4.3-5.935c-1.335-1.928-7.269-9.052-4.748-11.424Zm12.315,23.146s-7.418-3.263-9.644-5.935a20.092,20.092,0,0,0,.89-4.3c.891.737,3.116,4.006,5.045,6.38,1.184,1.332,2.37,2.523,3.706,3.855Zm-17.8-7.716c2.375-4.3,8.012-4.45,8.012-4.45s-.736,4.45-.736,5.34a18.772,18.772,0,0,1-4.006-2.67c2.526,4.9,9.346,9.5,14.242,11.276a17.065,17.065,0,0,0,6.084,1.187c3.412-.593,5.789-5.49,8.457-8.457a14.23,14.23,0,0,1,6.526-4.006c1.484-.445,4-1.781,10.088.3,3.263,4.154,8.16,9.2,13.2,14.688,2.526,2.67,4.9,5.638,7.418,8.308,8.16,8.161,16.024,14.985,16.766,15.727-12.166,5.639-18.84,18.1-18.991,32.789a127.433,127.433,0,0,1-18.694-13.051,79,79,0,0,1-8.9-9.788c-4.154-5.342-5.942-12.486-10.542-17.679-11.275-3.115-20.966-7.83-28.681-14.507-.446-4.154-2.32-11.138-.248-14.995Zm26.114,51.784c-.149-9.941-.594-14.244-.594-14.244l8.605,11.573s-5.2,2.819-8.019,2.671Zm107.7,49.851a101.9,101.9,0,0,1-31.009-8.161c-8.457-3.56-26.854-14.391-39.317-21.957-5.638-3.412-18.546-11.276-22.7-15.875-.3-.3-14.841-20.178-14.841-20.178a.9.9,0,0,0-.148-.594c-8.754-1.929-16.337-6.784-24.052-9.752a47.331,47.331,0,0,0,22.42,10.048,153.052,153.052,0,0,0,.89,16.469c-9.052-2.078-14.985-5.49-22.4-9.2-.594-4.452-.3-11.721-.891-17.063a36.327,36.327,0,0,0-1.484-8.012,53.391,53.391,0,0,0,6.526,4.9c6.231,3.413,13.8,7.122,21.068,8.606,5.192,9.643,10.979,18.545,18.249,26.112a65.4,65.4,0,0,0,8.605,6.974,136.486,136.486,0,0,0,13.052,7.863c22.254,13.2,45.1,27.155,74.924,29.525.737.148,4.9.148,4.9.148s-9.932.444-13.79.147Zm14.1-1.78a99.592,99.592,0,0,1-26.41-3.709c-20.178-6.974-35.311-16.024-52.521-25.371-.737-14.688,6.381-27.448,18.1-32.641h.593c17.063,14.84,33.383,31.008,52.521,44.065,2.374,1.632,4.748,3.115,7.122,4.748s11.127,7.269,11.424,8.605c-.3,4.748-7.864,4.3-10.831,4.3Z"/><path d="M652.114,397.838c2.67,5.193,5.192,10.237,6.082,15.875a94.512,94.512,0,0,1,.3,19.436c-.593,12.759,0,27.448-2.077,41.543,2.526-10.534,2.374-24.481,2.671-37.537.148-9.495,1.187-18.4-.891-26.112a73.525,73.525,0,0,0-6.082-14.541,165.962,165.962,0,0,0-16.766-22.7c-9.347-11.127-20.326-21.068-33.383-25.816,12.76,5.935,22.552,14.392,31.6,24.629C640.54,380.034,647.514,388.49,652.114,397.838Z"/><path d="M657.009,392.644c4.3,7.568,8.606,15.578,10.683,24.037,4.747,18.84,4.3,40.206,3.413,62.61A151.414,151.414,0,0,0,672,446.5c-.737-11.127-1.336-22.4-4.3-32.2a111.919,111.919,0,0,0-11.577-24.925c-5.639-9.347-11.578-17.507-18.841-23.145-.742-.594-2.526-1.93-2.076-1.484C644.4,372.322,650.481,381.374,657.009,392.644Z"/><path d="M619.92,443.09c-2.225,10.385-4.154,21.958-2.967,32.789a148.065,148.065,0,0,1,3.709-31.305c2.672-12.463,7.864-23.146,6.678-37.686-.446-5.044-6.678-26.558-8.161-31.008-.3-.891-1.484-4.154-1.484-2.968.594,2.526,5.342,17.062,6.677,22.1,2.226,8.012,3.413,16.32,1.929,25.371C624.665,427.808,621.55,435.078,619.92,443.09Z"/><path d="M687.87,478.252a420.98,420.98,0,0,0-6.232-57.714,118.009,118.009,0,0,0-6.379-23.591,99.648,99.648,0,0,0-13.205-20.625c4.451,6.526,9.347,12.463,12.463,20.326,5.935,14.841,8.754,33.977,10.83,52.521C686.386,458.965,686.386,469.8,687.87,478.252Z"/><path d="M649.591,442.2c-.445,11.424.445,14.392-1.336,31.155,1.781-8.754,2.078-18.547,2.078-28.191s1.187-20.029-.3-28.782A49.38,49.38,0,0,0,646.921,406c-3.709-8.754-9.2-16.321-13.354-22.849,5.342,10.979,15.578,22.7,16.469,37.982C650.338,427.363,649.888,435.968,649.591,442.2Z"/><path d="M616.658,415.642c-4.9,18.249-9.789,43.917-4.9,64.688C608.343,458.371,612.5,433.594,616.658,415.642Z"/><path d="M641.134,474.1c-.89-23.738-.737-40.949-1.039-46.883C639.948,426.918,638.761,456.3,641.134,474.1Z"/><path d="M626.594,445.76c-1.929,2.968-2.671,7.863-3.412,12.463A90.112,90.112,0,0,0,622,479.143c.742-10.979,1.336-20.772,3.709-29.822C626,448.283,627.485,444.574,626.594,445.76Z"/><path d="M612.647,488.045C613.538,488.045,612.351,486.709,612.647,488.045Z"/><path d="M612.647,488.045a63.577,63.577,0,0,0-5.637,20.772A194.93,194.93,0,0,1,612.647,488.045Z"/><path d="M603.6,521.131c-2.967-9.788.593-21.81,3.116-29.229a45.281,45.281,0,0,0-4.154,12.909A27.819,27.819,0,0,0,603.6,521.131Z"/><path d="M654.191,604.958c13.65,2.967,25.816-3.561,26.113-7.566a26.482,26.482,0,0,1-15.135,6.972c-10.088,1.039-16.32-1.928-27-6.379A49.684,49.684,0,0,0,654.191,604.958Z"/><path d="M733.566,967.122c.594-.3,1.484.737,1.484.737a94.975,94.975,0,0,0-5.788-12.462c-5.044-8.9-12.167-19.733-16.765-26.855-2.526,5.193-4.451,9.2-6.526,13.947-3.857,8.754-9.494,18.84-12.759,27.3,8.011,10.089,15.282,20.92,22.849,31.6C722.291,990.416,728.82,979.733,733.566,967.122Zm-21.215-36.5a233.694,233.694,0,0,1,20.919,35.9c-5.192,11.721-11.721,22.1-17.359,33.383-6.525-10.683-14.243-20.179-21.216-30.418,5.341-13.5,12.017-25.52,17.656-38.872Z"/><path d="M716.8,1080.178c2.819-1.929,6.824-9.347,10.088-14.244,2.374-3.709,6.38-11.424,8.606-15.875.593-1.039,1.187-2.076,1.78-3.263a223.432,223.432,0,0,0-20.03-37.685c-8.753,12.017-15.281,26.261-21.809,40.356,3.412,5.044,8.605,11.275,13.051,17.359s8.753,12.76,8.753,12.76S716.654,1080.178,716.8,1080.178Zm-20.623-31.306c6.824-12.907,13.2-26.409,20.623-38.575a224.982,224.982,0,0,1,19.139,36.5c-5.49,10.979-11.869,21.514-18.1,31.751-5.928-9.053-14.839-19.438-21.66-29.676Z"/><path d="M740.539,1125.726c-2.671-5.789-5.341-12.611-9.051-19.584-5.639-10.682-12.166-20.772-13.354-20.475-.89.148-8.753,13.8-10.682,17.062-2.077,3.413-6.083,8.754-9.644,14.688-2.819,4.748-4.3,10.238-6.526,11.425a379.349,379.349,0,0,0,24.333,31.009C724.368,1148.873,734.16,1138.931,740.539,1125.726Zm-22.4-39.762a216.887,216.887,0,0,1,21.514,40.059c-6.676,12.018-16.172,21.366-23.739,32.492-8.308-9.346-15.43-19.584-23.441-29.227,7.859-14.988,17.947-28.043,25.662-43.324Z"/><path d="M614.577,499.024c.89-3.709,5.045-7.863,13.649-14.985C623.776,486.416,614.428,494.87,614.577,499.024Z"/><path d="M629.413,544.573a31.09,31.09,0,0,1-2.967-3.263c-2.078-2.671-2.078-4.9-.594-6.974a4.079,4.079,0,0,1,2.819-1.483,11.839,11.839,0,0,1,1.187,2.526c1.039,2.375-1.632,2.526-3.56,1.336a3.648,3.648,0,0,0,3.857,1.039c.737-.446.737-1.781-.89-4.9h0c-.446-.89-1.039-2.077-1.78-3.262-.445-.737-.891-1.485-1.336-2.078h0c-2.818-4.154-5.045-5.934-5.935-6.083s-1.78.737-2.67,2.374a8.6,8.6,0,0,0-.445,8.457c-1.039-4.451,0-6.973,1.335-8.457.445-.594,1.188-1.781,1.483-1.781a22.591,22.591,0,0,1,4.9,4.9c-1.929-.3-3.116,2.672-3.858,6.232,1.039-3.412,2.526-5.638,4.3-5.789l.445.594c1.039,1.484,1.929,2.967,2.819,4.451a4.867,4.867,0,0,0-4.3,5.045c.148,2.526,3.116,6.379,5.193,7.566s3.263,2.374,3.858,2.374a2.975,2.975,0,0,0,.593-4.006.145.145,0,0,0-.142-.148h-.006C631.935,541.754,629.265,543.237,629.413,544.573Zm3.561,2.076a10.628,10.628,0,0,1-3.116-1.779c.149-.149.149-.3.3-.445a2,2,0,0,1,2.67-.891c.149,0,.149.148.3.148,1.336.891.149,2.819-.15,2.967Z"/><path d="M681.493,559.558s1.484-.594,3.857-1.632A7.467,7.467,0,0,0,681.493,559.558Z"/><path d="M681.935,560c1.336-.3,2.67-.891,4.006-1.336A5.487,5.487,0,0,0,681.935,560Z"/><path d="M689.205,547.1a7.487,7.487,0,0,0,4.006-5.192c0-1.336-2.526-2.078-4.155-7.42.149,4.451,3.263,6.826,3.263,7.864S689.205,547.1,689.205,547.1Z"/><path d="M690.986,531.368a12.267,12.267,0,0,0,7.566-1.187l.3-.149h0a7.785,7.785,0,0,1,1.484,1.633,8.771,8.771,0,0,0-.89-2.077h0l.593-.594h0a7.6,7.6,0,0,1,2.526,1.039,11.179,11.179,0,0,0-2.076-1.632h0l.444-.891h0l2.226.446s-.3-.594-2.078-1.039h0a9.622,9.622,0,0,0,.594-1.928h0a1.336,1.336,0,0,0,.742-.149h0a3.747,3.747,0,0,0,2.226-1.484,11.09,11.09,0,0,1-2.374.737c-.891-3.561-2.374-7.715-4.006-8.012s-4.155,2.819-5.194,5.193c1.633-2.374,4.155-4.9,5.045-4.9s2.375,2.967,3.709,7.863a36.275,36.275,0,0,1-4.006.3c-2.67.149-4.451,0-6.082,1.928.737-.3,1.334-.592,2.076-.889a29.4,29.4,0,0,0-1.187,4.895A2.048,2.048,0,0,0,690.986,531.368Zm9.788-6.379h0c-.89,3.262-1.484,4.3-2.968,4.9.737-.891.89-2.375.89-4.9Zm-5.935.445a12.645,12.645,0,0,1,3.412-.445s.149,3.56-1.483,5.192l-.742.148a11.212,11.212,0,0,1-2.226.148,20.306,20.306,0,0,1,1.039-5.043Z"/><path d="M694.1,511.487a46.078,46.078,0,0,1,4.6-6.379,4.92,4.92,0,0,1,3.857-1.93c.891,0,2.375,1.633,3.116,3.413-.737-2.671-2.671-4.6-4.452-3.71s-6.525,4.748-7.715,7.122S692.47,513.861,694.1,511.487Z"/><path d="M674.368,528.7a4.858,4.858,0,0,0-2.225-1.633h0c.149-.148.445-.148.593-.3h-9.643c-3.858,0-6.526.3-10.832.149.149-2.374,1.484-3.561,4.3-6.526s7.568-3.115,12.018-2.67a49.471,49.471,0,0,1,4.9,4.747,36.028,36.028,0,0,0-3.709-4.6l.89.148c-1.187-.89-6.379-.89-9.788-.3a9.375,9.375,0,0,0-5.044,2.373,12.744,12.744,0,0,0-4.451,6.676,59.871,59.871,0,0,1-6.677-.445,32.632,32.632,0,0,0,5.49,1.039h0a27.688,27.688,0,0,0,2.076,2.078,8.081,8.081,0,0,0-3.56,1.78,13.353,13.353,0,0,1,4.154-1.188l1.781,1.336A7.282,7.282,0,0,0,651.673,533a13.6,13.6,0,0,1,3.412-1.335,6.835,6.835,0,0,0,2.374,1.039,5.792,5.792,0,0,0-2.526,2.076c1.335-.889,2.373-1.631,2.967-2.076a11.44,11.44,0,0,0,2.226.3c2.67,0,9.2-.148,9.643-.593h0a14.7,14.7,0,0,0,2.526.3s-.3-.594-2.374-.891c.148-1.335.593-4.3.593-4.9A18.231,18.231,0,0,1,674.368,528.7Zm-4.451-1.484h0c-.445,2.967-.445,4.748-.593,4.9a11.429,11.429,0,0,1-2.225.3,4.25,4.25,0,0,0,.89-3.263,8.689,8.689,0,0,0-.3-1.929Zm-17.359.3c1.484,0,4.3,0,7.271-.148-.742,1.039-.742,3.116.3,5.342a3.273,3.273,0,0,1-1.188-.149,13.537,13.537,0,0,1-6.383-5.051Zm8.16,5.342a6.186,6.186,0,0,1-.592-5.342l6.676-.148h.148a3.946,3.946,0,0,1,.445,1.781,3.519,3.519,0,0,1-1.78,3.412c-1.632.139-3.415.291-4.9.291Z"/><path d="M695.882,526.622c-.742,0-1.039,1.781-.3,1.633C696.476,528.252,696.624,526.622,695.882,526.622Z"/><path d="M664.132,528.7c-.891,0-1.039,1.928.148,1.928S664.873,528.7,664.132,528.7Z"/><path d="M677.335,552.139c1.93,0,4.006.149,5.936.3,1.631.149,3.115-.445,3.857,0s-.742,2.67-3.412,2.67S676.742,553.178,677.335,552.139Z"/><path d="M695.882,476.918a77.624,77.624,0,0,1-11.424,9.5,75.852,75.852,0,0,1-12.76-2.967c-6.974-2.077-9.788-1.93-15.134-2.819a171.365,171.365,0,0,0-17.507-2.375c-5.49-.148-12.314,1.188-15.577,4.006,2.526,2.375,5.934,5.789,8.456,8.606,3.71,4.154,6.38,7.566,7.419,8.754-1.484,1.187-1.484,2.225-2.226,5.341s-1.928,5.341-3.263,10.534-2.227,8.6-2.227,8.6" style="fill:#fff"/><path d="M661.905,505.107c-4.451-1.187-4.451-1.187-7.269.3s-3.263,2.967-4.9,5.044c1.039-.445,1.93-2.077,3.116-3.116a9.313,9.313,0,0,1,5.045-2.67c2.077-.148,8.16,2.967,12.017,5.489s6.677,4.3,7.419,3.71c.445-.3-2.671-2.526-6.526-4.6A47.914,47.914,0,0,0,661.905,505.107Z"/><path d="M677.152,552.122a39.473,39.473,0,0,1,5.92.332c1.7.193,3.076-.473,3.854.034s-.727,2.63-3.429,2.63S676.638,553.18,677.152,552.122Z" style="fill:none;stroke:#1d1d1b;stroke-linecap:round;stroke-linejoin:round;stroke-width:0.30000000000000004px"/><path d="M695.733,477.09c-4.556,4.478-10.808,9.3-11.387,9.42s-5.827-.927-12.777-2.935-9.729-1.969-15.133-2.741-12.046-2.123-17.489-2.316-12.2,1.2-15.6,3.976c2.525,2.353,5.843,5.736,8.378,8.572,3.706,4.144,6.343,7.579,7.374,8.725-1.467,1.2-1.544,2.24-2.278,5.251s-1.969,5.289-3.282,10.5-2.278,8.648-2.278,8.648" style="fill:none;stroke:#1d1d1b;stroke-linecap:round;stroke-linejoin:round;stroke-width:0.30000000000000004px"/></g><rect id="contour" width="1311.974" height="1680.872" style="fill:none"/></svg>